<?xml version="1.0" encoding="UTF-8"?>
<svg version="1.1" xmlns="http://www.w3.org/2000/svg" width="240" height="240">
<path d="M0 0 C1.03447266 0.14961182 1.03447266 0.14961182 2.08984375 0.30224609 C4.37569252 0.64145892 6.65664049 1.00378751 8.9375 1.375 C9.67154053 1.4886792 10.40558105 1.6023584 11.16186523 1.71948242 C15.14765244 2.40992288 18.09436193 3.10162602 21 6 C22.32545954 9.19669654 22.26445923 11.19903019 21.18359375 14.47265625 C19.05188959 19.24964346 17.05530363 22.95942937 12.1015625 25.26171875 C1.46031746 29 1.46031746 29 -4 29 C-4.23074219 29.6084375 -4.46148437 30.216875 -4.69921875 30.84375 C-6.35863236 33.59448968 -7.9258372 34.14971695 -10.8125 35.5 C-16.38999979 38.66084995 -17.79684228 42.06496352 -19.84765625 47.9765625 C-20.98329309 50.95616559 -22.31323895 53.12556044 -24.1875 55.6875 C-27.2127206 60.01146569 -28.40505323 63.78546658 -29 69 C-29.19335938 70.27617187 -29.19335938 70.27617187 -29.390625 71.578125 C-29.63310826 74.277772 -29.6570499 76.36730004 -29 79 C-26.72095461 81.65101394 -23.98138247 83.22234435 -21 85 C-19.59166999 86.02470812 -18.19533737 87.06614167 -16.8125 88.125 C-16.14863281 88.61355469 -15.48476562 89.10210937 -14.80078125 89.60546875 C-13 91 -13 91 -10.5 93.4375 C-7.57422549 95.26610907 -5.46740175 95.55103642 -2.05859375 94.9453125 C2.2097891 92.98525813 4.47662315 88.80103602 7 85 C7.53367187 84.360625 8.06734375 83.72125 8.6171875 83.0625 C10.32841528 80.51016027 10.7341235 78.32241851 11.3125 75.3125 C13.37507491 66.45746636 18.31298399 58.85249472 25.9375 53.6875 C28.92327258 52.69224247 30.86928471 52.48886281 34 53 C38.81097177 57.32710966 38.81097177 57.32710966 39.24243164 61.14550781 C39.1230971 63.57941916 38.87970445 65.9589278 38.5625 68.375 C37.75673273 74.68100475 37.71447422 78.70396592 41.09301758 84.24047852 C42 86 42 86 42.125 89.5625 C40.64595715 94.0817976 38.25484048 96.61997335 35 100 C30.7439169 104.68169141 26.7732869 109.53124524 22.9375 114.5625 C17.078166 122.22714823 17.078166 122.22714823 14.75 125.0625 C14.35296875 125.54847656 13.9559375 126.03445312 13.546875 126.53515625 C12 128 12 128 9.12890625 129.765625 C5.60071163 132.28513477 3.52173373 135.120883 1.1875 138.6875 C-4.94551945 147.60909777 -11.17613797 154.15273737 -20.6953125 159.4609375 C-25.25615529 162.50665286 -28.27927035 166.83781104 -30 172 C-30.06938235 173.46986503 -30.08455626 174.94272616 -30.0625 176.4140625 C-30.05089844 177.67863281 -30.05089844 177.67863281 -30.0390625 178.96875 C-30.01972656 180.28359375 -30.01972656 180.28359375 -30 181.625 C-29.97460456 183.36712697 -29.95353287 185.10932421 -29.9375 186.8515625 C-29.92589844 187.62322754 -29.91429688 188.39489258 -29.90234375 189.18994141 C-30 191 -30 191 -31 192 C-32.82399175 192.0990865 -34.65183501 192.12799245 -36.47851562 192.12939453 C-37.65063599 192.13254669 -38.82275635 192.13569885 -40.03039551 192.13894653 C-41.30942749 192.1369223 -42.58845947 192.13489807 -43.90625 192.1328125 C-45.21525269 192.13376923 -46.52425537 192.13472595 -47.8729248 192.13571167 C-50.65390189 192.13718973 -53.43484695 192.13503338 -56.21582031 192.13037109 C-59.75842135 192.12471811 -63.30094588 192.12792367 -66.84354401 192.13394356 C-70.23945185 192.13846113 -73.63533999 192.13528008 -77.03125 192.1328125 C-78.9255072 192.13584885 -78.9255072 192.13584885 -80.85803223 192.13894653 C-87.32445854 192.12192275 -93.59047377 191.86892743 -100 191 C-100.34602854 180.54224859 -100.34602854 180.54224859 -99 176.125 C-98.01454234 172.75014501 -97.98858946 169.8852979 -98.125 166.375 C-98.22547299 160.47388666 -97.36517158 155.18011706 -96.1875 149.4375 C-94.1614709 139.3867891 -93.25926835 129.39248031 -92.5 119.1875 C-90.55820779 93.57656596 -87.47471901 69.26898716 -76 46 C-74.95288117 43.73167559 -73.91118385 41.46084038 -72.875 39.1875 C-70.99935794 35.1252286 -69.10650299 31.08192109 -67.0546875 27.10546875 C-66.20948869 25.41820149 -65.41286972 23.70663586 -64.6328125 21.98828125 C-59.7282831 11.45497847 -59.7282831 11.45497847 -54 9 C-51.67968195 8.58565749 -49.34360915 8.25110098 -47 8 C-46.16210938 7.71382812 -45.32421875 7.42765625 -44.4609375 7.1328125 C-39.75109595 5.59121651 -34.96095163 4.56818209 -30.125 3.5 C-28.21075167 3.07375037 -26.29668577 2.64668051 -24.3828125 2.21875 C-23.46669189 2.01531982 -22.55057129 1.81188965 -21.60668945 1.60229492 C-19.2595907 1.05998036 -16.93930474 0.45723016 -14.61328125 -0.16796875 C-9.44988041 -1.35694646 -5.19598176 -0.76084019 0 0 Z " fill="#E1A888" transform="translate(150,27)"/>
<path d="M0 0 C4.29 0 8.58 0 13 0 C11.875 5.625 11.875 5.625 9 8 C10.65 8 12.3 8 14 8 C14 7.34 14 6.68 14 6 C14.66 6 15.32 6 16 6 C16.66 4.68 17.32 3.36 18 2 C22.28568968 1.65014778 25.07273631 1.78566833 28.6875 4.0625 C31.71626055 6.27144114 31.71626055 6.27144114 34.4375 5.75 C34.953125 5.5025 35.46875 5.255 36 5 C36.495 8.96 36.495 8.96 37 13 C35.35 13.33 33.7 13.66 32 14 C32 14.66 32 15.32 32 16 C30.95199219 16.14695312 30.95199219 16.14695312 29.8828125 16.296875 C28.97273438 16.44640625 28.06265625 16.5959375 27.125 16.75 C26.22007812 16.88921875 25.31515625 17.0284375 24.3828125 17.171875 C21.8549058 17.76874882 21.8549058 17.76874882 20.78515625 19.9765625 C20.52605469 20.64429687 20.26695312 21.31203125 20 22 C16.76803412 25.11226344 13.27274996 25.87559211 9 27 C8.113125 27.391875 7.22625 27.78375 6.3125 28.1875 C3.63288944 29.12898479 2.66844745 28.6886316 0 28 C-2.18298142 28.59145334 -2.18298142 28.59145334 -4 30 C-4.28875 30.60972656 -4.5775 31.21945313 -4.875 31.84765625 C-6.20165263 34.38580069 -7.7328914 35.85847769 -9.875 37.75 C-10.55304688 38.36359375 -11.23109375 38.9771875 -11.9296875 39.609375 C-14 41 -14 41 -18 41 C-19.25 34.375 -19.25 34.375 -17 31 C-17.99 31.33 -18.98 31.66 -20 32 C-20 30.68 -20 29.36 -20 28 C-20.66 28.2475 -21.32 28.495 -22 28.75 C-26.37366612 29.11447218 -29.50083568 27.58349516 -33 25 C-34 22.625 -34 22.625 -34 20 C-34.103125 19.01 -34.20625 18.02 -34.3125 17 C-33.91958958 13.22805994 -32.52359203 11.75300949 -30 9 C-29.67 8.34 -29.34 7.68 -29 7 C-26.8359375 6.46484375 -26.8359375 6.46484375 -24 6 C-15.40143536 4.13231248 -15.40143536 4.13231248 -6.9375 1.75 C-4.07180286 1.01833265 -2.71068323 0.91572671 0 2 C0 1.34 0 0.68 0 0 Z " fill="#D8937B" transform="translate(124,38)"/>
<path d="M0 0 C4.80136567 4.33023599 4.80136567 4.33023599 5.2590332 8.17749023 C5.15955692 10.64291669 4.92963314 13.05151113 4.625 15.5 C3.90936015 21.71833006 3.65643232 25.42457983 7 31 C7.1875 33.875 7.1875 33.875 7 36 C6.01 36.33 5.02 36.66 4 37 C2.87914688 39.3430809 2.87914688 39.3430809 2 42 C1.34786461 43.34050052 0.68620031 44.67661368 0 46 C-1.65 45.34 -3.3 44.68 -5 44 C-5 44.66 -5 45.32 -5 46 C-4.34 46 -3.68 46 -3 46 C-3 47.32 -3 48.64 -3 50 C-4.65 50.66 -6.3 51.32 -8 52 C-11 48.25 -11 48.25 -11 46 C-11.8353125 45.814375 -11.8353125 45.814375 -12.6875 45.625 C-15.22114364 44.94023145 -17.57921032 44.00866237 -20 43 C-20 42.34 -20 41.68 -20 41 C-20.66 41 -21.32 41 -22 41 C-21.67 43.64 -21.34 46.28 -21 49 C-28.23404255 48.63829787 -28.23404255 48.63829787 -31.625 45.8125 C-33 43 -33 43 -32.6875 40.1875 C-31.14025131 37.26491915 -29.75304968 35.59751717 -27.5 33.25 C-23.99855142 29.46036635 -23.22950298 26.60270903 -22.51171875 21.5859375 C-21.11789748 14.54235215 -17.02825834 8.02825834 -12 3 C-7.97648434 0.43179852 -4.7663599 -0.91270721 0 0 Z " fill="#DE987A" transform="translate(184,80)"/>
<path d="M0 0 C1.98 0.66 3.96 1.32 6 2 C6 2.99 6 3.98 6 5 C6.66 5.66 7.32 6.32 8 7 C5.36 7 2.72 7 0 7 C-0.144375 7.61875 -0.28875 8.2375 -0.4375 8.875 C-1 11 -1 11 -2 13 C-2.66 13 -3.32 13 -4 13 C-4.33 13.99 -4.66 14.98 -5 16 C-7.25 17.0625 -7.25 17.0625 -10 18 C-10.845625 18.391875 -11.69125 18.78375 -12.5625 19.1875 C-15.32531472 20.10843824 -16.27150348 19.70412813 -19 19 C-21.18298142 19.59145334 -21.18298142 19.59145334 -23 21 C-23.28875 21.60972656 -23.5775 22.21945313 -23.875 22.84765625 C-25.20165263 25.38580069 -26.7328914 26.85847769 -28.875 28.75 C-29.55304688 29.36359375 -30.23109375 29.9771875 -30.9296875 30.609375 C-33 32 -33 32 -37 32 C-38.25 25.375 -38.25 25.375 -36 22 C-36.99 22.33 -37.98 22.66 -39 23 C-39 21.68 -39 20.36 -39 19 C-39.721875 19.226875 -40.44375 19.45375 -41.1875 19.6875 C-44.75584692 20.08398299 -46.13871099 19.04377787 -49 17 C-45.44885036 14.6325669 -42.62054887 14.52833827 -38.5 14.3125 C-37.82324219 14.26544922 -37.14648438 14.21839844 -36.44921875 14.16992188 C-33.28996264 13.97986801 -31.03216896 13.98927701 -28 15 C-28 14.34 -28 13.68 -28 13 C-27.34 13 -26.68 13 -26 13 C-26 12.34 -26 11.68 -26 11 C-27.32 11 -28.64 11 -30 11 C-30.33 9.35 -30.66 7.7 -31 6 C-30.01 6.33 -29.02 6.66 -28 7 C-25.87672644 7.09523918 -23.75040289 7.12986362 -21.625 7.125 C-20.50351563 7.12757812 -19.38203125 7.13015625 -18.2265625 7.1328125 C-15.35231459 7.01450205 -12.80550714 6.57660682 -10 6 C-7.1875 6.4375 -7.1875 6.4375 -5 7 C-2.22999175 3.67913229 -2.22999175 3.67913229 0 0 Z " fill="#BE6F5A" transform="translate(143,47)"/>
<path d="M0 0 C3.9641064 -0.38674209 6.30770166 -0.02245425 9.625 2.0625 C12.708955 4.2694956 12.708955 4.2694956 15.4375 3.75 C15.953125 3.5025 16.46875 3.255 17 3 C17.495 6.96 17.495 6.96 18 11 C16.35 11.33 14.7 11.66 13 12 C13 12.66 13 13.32 13 14 C12.30132812 14.09796875 11.60265625 14.1959375 10.8828125 14.296875 C9.97273438 14.44640625 9.06265625 14.5959375 8.125 14.75 C6.76761719 14.95882812 6.76761719 14.95882812 5.3828125 15.171875 C2.85560348 15.76663281 2.85560348 15.76663281 1.8046875 17.96875 C1.53914063 18.6390625 1.27359375 19.309375 1 20 C-2.42857143 23 -2.42857143 23 -5 23 C-4.6875 21.125 -4.6875 21.125 -4 19 C-3.01 18.34 -2.02 17.68 -1 17 C-0.505 15.515 -0.505 15.515 0 14 C1.65 13.67 3.3 13.34 5 13 C5.33 11.68 5.66 10.36 6 9 C5.071875 8.7834375 5.071875 8.7834375 4.125 8.5625 C2 8 2 8 0 7 C-0.268125 7.763125 -0.53625 8.52625 -0.8125 9.3125 C-1.99113373 11.97993422 -2.71086504 13.25316581 -5 15 C-7.2265625 15.0390625 -7.2265625 15.0390625 -9.625 14.625 C-11.07847507 14.38510606 -12.53659598 14.16907855 -14 14 C-14.33 14.33 -14.66 14.66 -15 15 C-17.1446942 15.07294878 -19.29166979 15.08365276 -21.4375 15.0625 C-22.61183594 15.05347656 -23.78617188 15.04445313 -24.99609375 15.03515625 C-25.98738281 15.02355469 -26.97867188 15.01195312 -28 15 C-28.66 15 -29.32 15 -30 15 C-30 15.99 -30 16.98 -30 18 C-28.68 18 -27.36 18 -26 18 C-26 18.66 -26 19.32 -26 20 C-26.66 20 -27.32 20 -28 20 C-28 20.66 -28 21.32 -28 22 C-28.99 22.33 -29.98 22.66 -31 23 C-31 22.34 -31 21.68 -31 21 C-33.31 21.33 -35.62 21.66 -38 22 C-37.66226563 21.46890625 -37.32453125 20.9378125 -36.9765625 20.390625 C-36.53054687 19.68421875 -36.08453125 18.9778125 -35.625 18.25 C-34.96371094 17.20585938 -34.96371094 17.20585938 -34.2890625 16.140625 C-33.08119094 14.13482617 -32.01612263 12.10821704 -31 10 C-28.24993392 9.9729797 -25.50013454 9.95315117 -22.75 9.9375 C-21.97269531 9.92912109 -21.19539063 9.92074219 -20.39453125 9.91210938 C-19.26337891 9.90727539 -19.26337891 9.90727539 -18.109375 9.90234375 C-17.07248535 9.89448853 -17.07248535 9.89448853 -16.01464844 9.88647461 C-13.90026102 10.00562029 -12.03358485 10.42381763 -10 11 C-10 10.34 -10 9.68 -10 9 C-7.69 9 -5.38 9 -3 9 C-2.01 6.03 -1.02 3.06 0 0 Z " fill="#D0806A" transform="translate(143,40)"/>
<path d="M0 0 C2.25 0.3125 2.25 0.3125 4 1 C3.38898438 1.21527344 2.77796875 1.43054688 2.1484375 1.65234375 C-0.79544927 3.49896363 -1.20791175 5.32196773 -2.375 8.5625 C-4.59110987 14.28572456 -7.3750046 19.06701657 -11 24 C-13.97722547 23.29666462 -16.85256543 22.41751463 -19.75 21.4375 C-20.54921875 21.16808594 -21.3484375 20.89867188 -22.171875 20.62109375 C-22.77515625 20.41613281 -23.3784375 20.21117188 -24 20 C-24.33 22.31 -24.66 24.62 -25 27 C-26.09887842 24.88073448 -27.07975676 22.79263242 -27.9375 20.5625 C-28.91819263 17.9283424 -28.91819263 17.9283424 -30.6875 15.625 C-32.45193457 12.09613085 -31.81480368 9.77772616 -31 6 C-32.32 5.67 -33.64 5.34 -35 5 C-32 3 -32 3 -30 3 C-29.67 3.99 -29.34 4.98 -29 6 C-28.34 6 -27.68 6 -27 6 C-27.26041667 8.01822917 -27.52083333 10.03645833 -27.78125 12.0546875 C-28.0372485 14.00498344 -28.0372485 14.00498344 -28 16 C-21.50705729 14.17385986 -16.70064997 8.94359997 -12.375 4 C-11.59125 3.34 -10.8075 2.68 -10 2 C-6.9375 2.375 -6.9375 2.375 -4 3 C-2.63838689 2.03886134 -1.30144802 1.04115841 0 0 Z " fill="#D99781" transform="translate(134,63)"/>
<path d="M0 0 C-1.75 5.75 -1.75 5.75 -4 8 C-7.06108161 14.47536494 -7.35260386 19.89568524 -7 27 C-6.01 27 -5.02 27 -4 27 C-4 27.66 -4 28.32 -4 29 C-5.32 29.33 -6.64 29.66 -8 30 C-6.515 33.465 -6.515 33.465 -5 37 C-10.59552106 36.13915061 -15.51094033 32.31442862 -19 28 C-19.99704499 19.73236854 -17.70920999 11.77974736 -13 5 C-10.4526903 2.10502599 -7.97639552 0.3106713 -4.25 -0.875 C-2 -1 -2 -1 0 0 Z " fill="#C57359" transform="translate(180,84)"/>
<path d="M0 0 C4.29 0 8.58 0 13 0 C11.875 5.625 11.875 5.625 9 8 C10.65 8 12.3 8 14 8 C14 7.34 14 6.68 14 6 C14.66 6 15.32 6 16 6 C16.66 4.68 17.32 3.36 18 2 C18.33 2 18.66 2 19 2 C19.24687966 4.9625559 19.21079991 6.62056017 17.75 9.25 C15.7786824 11.2213176 14.75349568 11.74185978 12 12 C11.01 11.67 10.02 11.34 9 11 C9 11.66 9 12.32 9 13 C8.06148193 12.98428955 8.06148193 12.98428955 7.10400391 12.96826172 C4.2777099 12.92676809 1.45147989 12.90069527 -1.375 12.875 C-2.35984375 12.85824219 -3.3446875 12.84148438 -4.359375 12.82421875 C-5.30039063 12.81777344 -6.24140625 12.81132813 -7.2109375 12.8046875 C-8.08024902 12.79421387 -8.94956055 12.78374023 -9.84521484 12.77294922 C-12.21345939 12.79404891 -12.21345939 12.79404891 -14 15 C-14.6875 12.75 -14.6875 12.75 -15 10 C-13.6875 7.9375 -13.6875 7.9375 -12 6 C-11.7525 5.278125 -11.505 4.55625 -11.25 3.8125 C-10 2 -10 2 -6.5625 1.1875 C-3 1 -3 1 0 2 C0 1.34 0 0.68 0 0 Z " fill="#E09B83" transform="translate(124,38)"/>
<path d="M0 0 C0.33 0 0.66 0 1 0 C0.91878906 0.65226562 0.83757812 1.30453125 0.75390625 1.9765625 C0.27198007 7.29294194 0.27198007 7.29294194 2.48828125 11.9296875 C4.26558191 13.40893153 6.08005473 14.71424479 8 16 C8.66 16.66 9.32 17.32 10 18 C9.34 18 8.68 18 8 18 C8 18.66 8 19.32 8 20 C9.36125 20.2165625 9.36125 20.2165625 10.75 20.4375 C13.21476956 20.86409473 15.58847107 21.35074221 18 22 C18 22.66 18 23.32 18 24 C18.66 24 19.32 24 20 24 C20 25.32 20 26.64 20 28 C18.35 28.66 16.7 29.32 15 30 C12 26.25 12 26.25 12 24 C11.443125 23.87625 10.88625 23.7525 10.3125 23.625 C7.77885636 22.94023145 5.42078968 22.00866237 3 21 C3 20.34 3 19.68 3 19 C2.34 19 1.68 19 1 19 C1.33 21.64 1.66 24.28 2 27 C-5.23404255 26.63829787 -5.23404255 26.63829787 -8.625 23.8125 C-10 21 -10 21 -9.6875 18.1875 C-8.13565792 15.25624274 -6.67364144 13.45572576 -4.4375 11.0625 C-0.98592173 7.34596655 -0.10484224 5.03242757 0 0 Z " fill="#DE997B" transform="translate(161,102)"/>
<path d="M0 0 C0.99 0.33 1.98 0.66 3 1 C2.690625 1.763125 2.38125 2.52625 2.0625 3.3125 C0.64840734 6.88932262 -0.11983735 9.58918373 -0.0625 13.4140625 C-0.05476563 14.25710937 -0.04703125 15.10015625 -0.0390625 15.96875 C-0.02617188 16.8453125 -0.01328125 17.721875 0 18.625 C0.02539544 20.36712697 0.04646713 22.10932421 0.0625 23.8515625 C0.07410156 24.62322754 0.08570312 25.39489258 0.09765625 26.18994141 C0 28 0 28 -1 29 C-3.35313555 29.07271741 -5.70833668 29.08370868 -8.0625 29.0625 C-9.35285156 29.05347656 -10.64320312 29.04445312 -11.97265625 29.03515625 C-12.97167969 29.02355469 -13.97070312 29.01195312 -15 29 C-14.88648483 27.18674449 -14.75887039 25.37436643 -14.625 23.5625 C-14.55539063 22.55316406 -14.48578125 21.54382813 -14.4140625 20.50390625 C-14.20910156 19.26447266 -14.20910156 19.26447266 -14 18 C-13.34 17.67 -12.68 17.34 -12 17 C-11.67 20.3 -11.34 23.6 -11 27 C-8.02934491 26.65772428 -8.02934491 26.65772428 -5 26 C-4.67 25.34 -4.34 24.68 -4 24 C-4.66 24 -5.32 24 -6 24 C-5.95875 23.05125 -5.9175 22.1025 -5.875 21.125 C-5.65026182 17.89755144 -5.65026182 17.89755144 -8 16 C-8.1953125 13.1796875 -8.1953125 13.1796875 -8.125 9.875 C-8.10695313 8.77929688 -8.08890625 7.68359375 -8.0703125 6.5546875 C-8.04710938 5.71164063 -8.02390625 4.86859375 -8 4 C-5.69 4.33 -3.38 4.66 -1 5 C-0.67 3.35 -0.34 1.7 0 0 Z " fill="#E6B393" transform="translate(120,190)"/>
<path d="M0 0 C1.98 0.66 3.96 1.32 6 2 C6 2.99 6 3.98 6 5 C6.66 5.66 7.32 6.32 8 7 C7.03900391 7.03867187 7.03900391 7.03867187 6.05859375 7.078125 C1.60561754 7.37012344 -1.97746759 7.66136245 -5.8125 10.0625 C-9.00740431 12.00450066 -10.36832804 12.44020266 -14 12 C-14 12.66 -14 13.32 -14 14 C-15.65 14.33 -17.3 14.66 -19 15 C-19 14.34 -19 13.68 -19 13 C-20.423125 13.495 -20.423125 13.495 -21.875 14 C-25 15 -25 15 -27 15 C-26.67 13.68 -26.34 12.36 -26 11 C-27.32 11 -28.64 11 -30 11 C-30.33 9.35 -30.66 7.7 -31 6 C-30.01 6.33 -29.02 6.66 -28 7 C-25.87672644 7.09523918 -23.75040289 7.12986362 -21.625 7.125 C-20.50351563 7.12757812 -19.38203125 7.13015625 -18.2265625 7.1328125 C-15.35231459 7.01450205 -12.80550714 6.57660682 -10 6 C-7.1875 6.4375 -7.1875 6.4375 -5 7 C-2.22999175 3.67913229 -2.22999175 3.67913229 0 0 Z " fill="#AD5B47" transform="translate(143,47)"/>
<path d="M0 0 C1.44003686 0.21399507 2.88014692 0.42749794 4.3203125 0.640625 C5.85980732 0.88268291 7.39887396 1.12747978 8.9375 1.375 C10.03928589 1.54539795 10.03928589 1.54539795 11.16333008 1.71923828 C15.14467634 2.40984714 18.10637339 3.09186899 21 6 C22.15661483 9.10840235 22.36797509 11.05011082 21.16015625 14.16796875 C20.17074977 16.15734478 19.13075071 18.08791511 18 20 C17.505 19.01 17.505 19.01 17 18 C17.33 17.34 17.66 16.68 18 16 C18.06996014 14.29297265 18.08440154 12.58331997 18.0625 10.875 C18.05347656 9.96492188 18.04445312 9.05484375 18.03515625 8.1171875 C18.02355469 7.41851562 18.01195312 6.71984375 18 6 C17.34 6.33 16.68 6.66 16 7 C16 7.99 16 8.98 16 10 C14.02 10.99 14.02 10.99 12 12 C12 10.02 12 8.04 12 6 C6.76390013 4.07091057 1.46864457 3.01591421 -4 2 C-4 2.66 -4 3.32 -4 4 C-11.92 4 -19.84 4 -28 4 C-19.87799484 -1.41467011 -9.33315186 -1.56739955 0 0 Z " fill="#E3BFB1" transform="translate(150,27)"/>
<path d="M0 0 C0.33 0 0.66 0 1 0 C1.02685938 2.14576637 1.04633088 4.29162645 1.0625 6.4375 C1.07410156 7.63246094 1.08570313 8.82742187 1.09765625 10.05859375 C1 13 1 13 0 14 C-0.91592544 20.34924497 -1.08962263 26.77380042 -1.24023438 33.17822266 C-1.4767106 42.41198006 -2.3938446 50.9516971 -4.5534668 59.92456055 C-6.12930904 66.77199608 -6.49431826 73.46243651 -6.70483398 80.4699707 C-6.93085963 87.76530925 -7.75369323 94.80046087 -9 102 C-9.66 102 -10.32 102 -11 102 C-11.34602854 91.54224859 -11.34602854 91.54224859 -10 87.125 C-9.01454234 83.75014501 -8.98858946 80.8852979 -9.125 77.375 C-9.22547135 71.47398273 -8.36550854 66.18002438 -7.1875 60.4375 C-4.79902594 48.61815945 -3.903459 36.74653297 -3.03979492 24.73999023 C-2.43039959 16.39627867 -1.5900287 8.22944591 0 0 Z " fill="#EEDBD2" transform="translate(61,116)"/>
<path d="M0 0 C0.33 0 0.66 0 1 0 C1.19622241 4.21878192 0.80230168 7.17010894 -1 11 C-1.99 11 -2.98 11 -4 11 C-2.7625 11.99 -2.7625 11.99 -1.5 13 C1.85305515 17.02366618 1.43160977 18.90700467 1 24 C1.66 23.67 2.32 23.34 3 23 C4.99960012 22.960008 7.00047242 22.95653201 9 23 C8.67 24.32 8.34 25.64 8 27 C6.02 27 4.04 27 2 27 C2.33 28.65 2.66 30.3 3 32 C1.02 32 -0.96 32 -3 32 C-3.12375 30.865625 -3.2475 29.73125 -3.375 28.5625 C-3.58125 27.386875 -3.7875 26.21125 -4 25 C-4.66 24.67 -5.32 24.34 -6 24 C-4.35 23.67 -2.7 23.34 -1 23 C-1 22.34 -1 21.68 -1 21 C-1.99 21 -2.98 21 -4 21 C-5.33639786 13.22855595 -5.10854297 7.84757162 -1 1 C-0.67 0.67 -0.34 0.34 0 0 Z " fill="#D68F72" transform="translate(177,90)"/>
<path d="M0 0 C0.66 0 1.32 0 2 0 C2 1.98 2 3.96 2 6 C3.32 4.68 4.64 3.36 6 2 C5.67 1.34 5.34 0.68 5 0 C5.99 0 6.98 0 8 0 C10.22329032 4.44658065 9.21919789 9.25716269 7.875 13.8125 C5.66025245 17.57757084 4.12113999 18.65432164 0 20 C-2.375 19.6875 -2.375 19.6875 -4 19 C-2.68 18.34 -1.36 17.68 0 17 C-0.33 15.02 -0.66 13.04 -1 11 C-1.99 11.33 -2.98 11.66 -4 12 C-4.99 11.34 -5.98 10.68 -7 10 C-6.38125 9.896875 -5.7625 9.79375 -5.125 9.6875 C-2.63473516 9.12474627 -2.63473516 9.12474627 -1 6 C-1.66 5.34 -2.32 4.68 -3 4 C-2.01 4 -1.02 4 0 4 C0 2.68 0 1.36 0 0 Z " fill="#E29E7F" transform="translate(160,33)"/>
<path d="M0 0 C0.66 0.66 1.32 1.32 2 2 C3.32 1.34 4.64 0.68 6 0 C6.6029204 7.11446067 6.6029204 7.11446067 4 10.9375 C0.13024026 13.59795982 -2.35317161 13.76372059 -7 14 C-9 11 -9 11 -8.625 8.8125 C-8.41875 8.214375 -8.2125 7.61625 -8 7 C-7.34 7.33 -6.68 7.66 -6 8 C-5.566875 7.05125 -5.13375 6.1025 -4.6875 5.125 C-3 2 -3 2 0 0 Z " fill="#D8997C" transform="translate(161,142)"/>
<path d="M0 0 C4.80136567 4.33023599 4.80136567 4.33023599 5.2590332 8.17749023 C5.15955692 10.64291669 4.92963314 13.05151113 4.625 15.5 C3.91172361 21.69779349 3.62659356 25.45185946 7 31 C7 31.66 7 32.32 7 33 C5.125 32.75 5.125 32.75 3 32 C1.04072696 28.96590135 0.76118076 26.58317739 0.8046875 23.015625 C0.81435547 21.61376953 0.81435547 21.61376953 0.82421875 20.18359375 C0.84097656 19.21550781 0.85773438 18.24742188 0.875 17.25 C0.88402344 16.26644531 0.89304688 15.28289062 0.90234375 14.26953125 C0.92587215 11.84610593 0.95874632 9.42317778 1 7 C0.01 7 -0.98 7 -2 7 C-2 5.35 -2 3.7 -2 2 C-6.455 3.485 -6.455 3.485 -11 5 C-11.33 4.34 -11.66 3.68 -12 3 C-7.85673762 0.6324215 -4.78960803 -0.91715898 0 0 Z " fill="#E3BFB0" transform="translate(184,80)"/>
<path d="M0 0 C1.27123594 4.25010224 0.70729002 7.69437198 0 12 C-0.12375 12.804375 -0.2475 13.60875 -0.375 14.4375 C-0.58125 14.953125 -0.7875 15.46875 -1 16 C-1.99 16.33 -2.98 16.66 -4 17 C-5.17082878 19.92914165 -5.17082878 19.92914165 -6 23 C-6.33 23.66 -6.66 24.32 -7 25 C-7.66 25 -8.32 25 -9 25 C-9.10957031 25.84304687 -9.21914062 26.68609375 -9.33203125 27.5546875 C-9.49058594 28.65039062 -9.64914063 29.74609375 -9.8125 30.875 C-9.96332031 31.96554688 -10.11414063 33.05609375 -10.26953125 34.1796875 C-11 37 -11 37 -14 39 C-13.40584874 29.09747906 -9.60761486 19.59330795 -4.98046875 10.88671875 C-3.13921511 7.34358924 -1.59275854 3.6599558 0 0 Z M3 4 C3.33 4 3.66 4 4 4 C4.20086443 7.71599191 4.1519437 8.77208445 2 12 C1.34 12 0.68 12 0 12 C0.62759865 9.07120629 1.58622659 6.63904371 3 4 Z " fill="#D8A79C" transform="translate(78,64)"/>
<path d="M0 0 C0.66 0 1.32 0 2 0 C2 0.99 2 1.98 2 3 C3.65 3.33 5.3 3.66 7 4 C7 4.99 7 5.98 7 7 C6.01 7 5.02 7 4 7 C4.33 10.96 4.66 14.92 5 19 C-0.70212766 17.57446809 -0.70212766 17.57446809 -3 14 C-3.19500601 8.79723964 -2.91550048 4.37325072 0 0 Z " fill="#B86856" transform="translate(164,98)"/>
<path d="M0 0 C0.33 0.99 0.66 1.98 1 3 C1.66 3 2.32 3 3 3 C2.73958333 5.01822917 2.47916667 7.03645833 2.21875 9.0546875 C1.9627515 11.00498344 1.9627515 11.00498344 2 13 C2.804375 13.144375 3.60875 13.28875 4.4375 13.4375 C7 14 7 14 8 15 C8 14.67 8 14.34 8 14 C9.65 14 11.3 14 13 14 C13.66 15.32 14.32 16.64 15 18 C15.66 18 16.32 18 17 18 C16.67 18.99 16.34 19.98 16 21 C11.05 19.02 11.05 19.02 6 17 C5.67 19.31 5.34 21.62 5 24 C3.90112158 21.88073448 2.92024324 19.79263242 2.0625 17.5625 C1.08180737 14.9283424 1.08180737 14.9283424 -0.6875 12.625 C-2.45193457 9.09613085 -1.81480368 6.77772616 -1 3 C-2.32 2.67 -3.64 2.34 -5 2 C-2 0 -2 0 0 0 Z " fill="#D58E72" transform="translate(104,66)"/>
<path d="M0 0 C0.103125 0.5775 0.20625 1.155 0.3125 1.75 C1.13546261 4.44333219 2.00371406 6.00371406 4 8 C6.62625139 8.33425735 6.62625139 8.33425735 9 8 C10.1875 10.125 10.1875 10.125 11 13 C9.8125 16.25 9.8125 16.25 8 19 C7.01 19.33 6.02 19.66 5 20 C4.01 18.02 3.02 16.04 2 14 C1.67 14 1.34 14 1 14 C0.67 11.69 0.34 9.38 0 7 C-0.71027344 6.87882812 -1.42054688 6.75765625 -2.15234375 6.6328125 C-3.07144531 6.46523437 -3.99054688 6.29765625 -4.9375 6.125 C-5.85402344 5.96257812 -6.77054688 5.80015625 -7.71484375 5.6328125 C-8.84599609 5.31957031 -8.84599609 5.31957031 -10 5 C-10.33 4.34 -10.66 3.68 -11 3 C-9.906875 3.020625 -8.81375 3.04125 -7.6875 3.0625 C-4.05615809 3.18544452 -4.05615809 3.18544452 -1 2 C-0.67 1.34 -0.34 0.68 0 0 Z " fill="#EAB396" transform="translate(151,119)"/>
<path d="M0 0 C0.66 0.99 1.32 1.98 2 3 C2.99 3.33 3.98 3.66 5 4 C4.67 5.32 4.34 6.64 4 8 C3.34 8 2.68 8 2 8 C1.566875 9.11375 1.566875 9.11375 1.125 10.25 C0.17631737 12.56900199 -0.86559779 14.76932676 -2 17 C-2.74765625 16.79503906 -3.4953125 16.59007813 -4.265625 16.37890625 C-5.25046875 16.10949219 -6.2353125 15.84007813 -7.25 15.5625 C-8.71179688 15.16224609 -8.71179688 15.16224609 -10.203125 14.75390625 C-12.46372653 14.14455416 -14.72622009 13.55761745 -17 13 C-17 12.34 -17 11.68 -17 11 C-13.37 11.66 -9.74 12.32 -6 13 C-6.33 11.35 -6.66 9.7 -7 8 C-5.02 8 -3.04 8 -1 8 C-0.67 5.36 -0.34 2.72 0 0 Z " fill="#DF9D80" transform="translate(186,109)"/>
<path d="M0 0 C0.53625 0.268125 1.0725 0.53625 1.625 0.8125 C0.965 2.4625 0.305 4.1125 -0.375 5.8125 C-1.035 5.1525 -1.695 4.4925 -2.375 3.8125 C-3.365 4.1425 -4.355 4.4725 -5.375 4.8125 C-5.519375 5.92625 -5.66375 7.04 -5.8125 8.1875 C-6.375 11.8125 -6.375 11.8125 -7.375 13.8125 C-6.385 13.4825 -5.395 13.1525 -4.375 12.8125 C-4.045 11.1625 -3.715 9.5125 -3.375 7.8125 C-2.715 7.8125 -2.055 7.8125 -1.375 7.8125 C-2.32433899 11.16683109 -3.27248835 14.50496505 -4.375 17.8125 C-6.025 17.4825 -7.675 17.1525 -9.375 16.8125 C-9.375 15.8225 -9.375 14.8325 -9.375 13.8125 C-10.035 13.8125 -10.695 13.8125 -11.375 13.8125 C-11.705 14.8025 -12.035 15.7925 -12.375 16.8125 C-12.705 16.1525 -13.035 15.4925 -13.375 14.8125 C-11.33549134 9.07955278 -7.28923948 -0.57546627 0 0 Z " fill="#C37B68" transform="translate(175.375,84.1875)"/>
<path d="M0 0 C2.52480693 2.52480693 2.55738633 4.13823034 3.125 7.625 C3.29257813 8.62789062 3.46015625 9.63078125 3.6328125 10.6640625 C3.75398438 11.43492187 3.87515625 12.20578125 4 13 C3.01 13 2.02 13 1 13 C0.67 13.99 0.34 14.98 0 16 C-0.99 15.67 -1.98 15.34 -3 15 C-4.1875 12.4375 -4.1875 12.4375 -5 10 C-5.66 10 -6.32 10 -7 10 C-7.33 8.02 -7.66 6.04 -8 4 C-7.401875 4.185625 -6.80375 4.37125 -6.1875 4.5625 C-3.83591238 5.22093687 -3.83591238 5.22093687 -1 4 C-0.26676204 1.98491642 -0.26676204 1.98491642 0 0 Z " fill="#D99E7D" transform="translate(123,174)"/>
<path d="M0 0 C0 1.65 0 3.3 0 5 C0.66 3.35 1.32 1.7 2 0 C2.33 0 2.66 0 3 0 C2.95875 1.010625 2.9175 2.02125 2.875 3.0625 C3.00573843 7.18076052 3.73250786 10.11830533 5 14 C-2.29613734 13.63519313 -2.29613734 13.63519313 -5.5625 10.6875 C-7 8 -7 8 -7 5.9375 C-5.455568 2.94516299 -3.57510767 0 0 0 Z " fill="#D4896D" transform="translate(158,115)"/>
<path d="M0 0 C0.66 0.33 1.32 0.66 2 1 C1.30003906 1.84111328 1.30003906 1.84111328 0.5859375 2.69921875 C-1.08553513 5.12408914 -1.68548348 6.96936371 -2.375 9.8125 C-3.76413154 14.79573378 -5.78996048 17.96687342 -9 22 C-9.66 22.99 -10.32 23.98 -11 25 C-10.76325756 23.07224017 -10.52435561 21.14471601 -10.2734375 19.21875 C-10.03652054 17.2963381 -9.85675844 15.36704625 -9.6875 13.4375 C-8.63121865 8.15609325 -6.77076626 4.34915525 -2.375 1 C-1.59125 0.67 -0.8075 0.34 0 0 Z " fill="#CA8B7D" transform="translate(88,51)"/>
<path d="M0 0 C0.99 0.99 1.98 1.98 3 3 C2.690625 3.556875 2.38125 4.11375 2.0625 4.6875 C0.89651333 6.96656701 0.89651333 6.96656701 0.5625 9.5 C-0.07803153 12.34680678 -1.02782897 13.87005529 -3 16 C-3.66 16 -4.32 16 -5 16 C-5.969375 16.845625 -6.93875 17.69125 -7.9375 18.5625 C-8.948125 19.366875 -9.95875 20.17125 -11 21 C-11.99 20.67 -12.98 20.34 -14 20 C-13.55269531 19.53851563 -13.10539062 19.07703125 -12.64453125 18.6015625 C-8.46075166 14.08771928 -5.58507628 9.70634566 -3.04296875 4.1015625 C-2 2 -2 2 0 0 Z " fill="#EDB58C" transform="translate(107,157)"/>
<path d="M0 0 C0.33 0 0.66 0 1 0 C0.73158513 6.57616437 -1.5495114 9.35082887 -6 14 C-7.21350168 15.39134245 -8.42180752 16.78723289 -9.625 18.1875 C-11.99375404 20.89239653 -14.40435728 23.50818299 -17 26 C-17.1953125 19.9453125 -17.1953125 19.9453125 -17 18 C-16.34 17.34 -15.68 16.68 -15 16 C-14.67 16.66 -14.34 17.32 -14 18 C-12.68 17.67 -11.36 17.34 -10 17 C-10 15.68 -10 14.36 -10 13 C-10.66 13 -11.32 13 -12 13 C-12 12.34 -12 11.68 -12 11 C-9.525 11.99 -9.525 11.99 -7 13 C-6.896875 12.443125 -6.79375 11.88625 -6.6875 11.3125 C-5.85988599 8.52870742 -4.62262248 6.40148127 -3 4 C-2.34 3.67 -1.68 3.34 -1 3 C-0.67 2.01 -0.34 1.02 0 0 Z " fill="#DCB1A1" transform="translate(191,113)"/>
<path d="M0 0 C1.9375 0.375 1.9375 0.375 4 1 C4.33 1.66 4.66 2.32 5 3 C5.99 3.33 6.98 3.66 8 4 C8 6.97 8 9.94 8 13 C6.906875 13.433125 5.81375 13.86625 4.6875 14.3125 C1.90591207 15.49495641 -0.06361939 16.60800043 -2 19 C-2.99 18.67 -3.98 18.34 -5 18 C-4.67 17.34 -4.34 16.68 -4 16 C-3.34 16 -2.68 16 -2 16 C-1.67 15.01 -1.34 14.02 -1 13 C-0.01 13 0.98 13 2 13 C2.33 10.03 2.66 7.06 3 4 C2.01 4 1.02 4 0 4 C0 2.68 0 1.36 0 0 Z " fill="#DD997E" transform="translate(95,65)"/>
<path d="M0 0 C0.61875 0.28875 1.2375 0.5775 1.875 0.875 C6.15866124 2.41711805 10.52928212 3.18398547 15 4 C16 7 16 7 15 10 C14.34 9.34 13.68 8.68 13 8 C11.01178687 7.60235737 9.01055661 7.26224651 7 7 C7 6.34 7 5.68 7 5 C4.69 5.66 2.38 6.32 0 7 C0 6.34 0 5.68 0 5 C-1.32 4.67 -2.64 4.34 -4 4 C-2.68 3.34 -1.36 2.68 0 2 C0 1.34 0 0.68 0 0 Z " fill="#E09D80" transform="translate(136,121)"/>
<path d="M0 0 C0.99 0.33 1.98 0.66 3 1 C2.690625 1.763125 2.38125 2.52625 2.0625 3.3125 C0.64840734 6.88932262 -0.11983735 9.58918373 -0.0625 13.4140625 C-0.05476563 14.25710937 -0.04703125 15.10015625 -0.0390625 15.96875 C-0.02617188 16.8453125 -0.01328125 17.721875 0 18.625 C0.02539544 20.36712697 0.04646713 22.10932421 0.0625 23.8515625 C0.07410156 24.62322754 0.08570312 25.39489258 0.09765625 26.18994141 C0 28 0 28 -1 29 C-2.66617115 29.04063832 -4.33388095 29.042721 -6 29 C-5.01 28.67 -4.02 28.34 -3 28 C-3 20.41 -3 12.82 -3 5 C-2.34 5 -1.68 5 -1 5 C-0.67 3.35 -0.34 1.7 0 0 Z " fill="#EDD2C1" transform="translate(120,190)"/>
<path d="M0 0 C5.75 0.875 5.75 0.875 8 2 C7.57811541 3.8161982 7.13700835 5.62794073 6.6875 7.4375 C6.44386719 8.44683594 6.20023437 9.45617187 5.94921875 10.49609375 C5.63597656 11.32238281 5.32273437 12.14867188 5 13 C4.01 13.33 3.02 13.66 2 14 C2 12.35 2 10.7 2 9 C1.34 9 0.68 9 0 9 C0 6.03 0 3.06 0 0 Z " fill="#EBAF8B" transform="translate(110,83)"/>
<path d="M0 0 C8.4 -0.32941176 8.4 -0.32941176 12 2 C13.2574498 5.10664069 13.37620439 7.03162203 12.15625 10.171875 C11.16895629 12.16056661 10.12995389 14.08926252 9 16 C8.67 15.34 8.34 14.68 8 14 C8.33 13.34 8.66 12.68 9 12 C9.06996014 10.29297265 9.08440154 8.58331997 9.0625 6.875 C9.05347656 5.96492188 9.04445312 5.05484375 9.03515625 4.1171875 C9.02355469 3.41851562 9.01195312 2.71984375 9 2 C8.01 2.495 8.01 2.495 7 3 C7 3.99 7 4.98 7 6 C5.02 6.99 5.02 6.99 3 8 C3 6.02 3 4.04 3 2 C2.01 1.67 1.02 1.34 0 1 C0 0.67 0 0.34 0 0 Z " fill="#DEA992" transform="translate(159,31)"/>
<path d="M0 0 C0.99 0 1.98 0 3 0 C3 0.66 3 1.32 3 2 C3.99 2.33 4.98 2.66 6 3 C6 4.32 6 5.64 6 7 C5.01 7 4.02 7 3 7 C2.9175 7.61875 2.835 8.2375 2.75 8.875 C2 11 2 11 0 12.125 C-0.66 12.41375 -1.32 12.7025 -2 13 C-2.33 13.66 -2.66 14.32 -3 15 C-3 14.34 -3 13.68 -3 13 C-3.66 13 -4.32 13 -5 13 C-5 13.66 -5 14.32 -5 15 C-5.99 15 -6.98 15 -8 15 C-8 14.34 -8 13.68 -8 13 C-6.865625 12.525625 -5.73125 12.05125 -4.5625 11.5625 C-2.03280505 10.15994736 -1.16293558 9.53787256 -0.3125 6.73046875 C-0.08465881 4.46985692 0.03396897 2.27106848 0 0 Z " fill="#CE947B" transform="translate(137,166)"/>
<path d="M0 0 C0.99 0 1.98 0 3 0 C3.125 6.75 3.125 6.75 2 9 C1.2044513 15.12305787 1.2044513 15.12305787 3.1171875 20.76953125 C4.61376333 22.29595363 4.61376333 22.29595363 7 24 C3.59687262 22.94124926 0.98646769 21.99097846 -2 20 C-2.29296875 17.6171875 -2.29296875 17.6171875 -2.1875 14.875 C-2.16042969 13.96492188 -2.13335937 13.05484375 -2.10546875 12.1171875 C-2.07066406 11.41851562 -2.03585938 10.71984375 -2 10 C-1.34 10 -0.68 10 0 10 C0 6.7 0 3.4 0 0 Z " fill="#EDCDBE" transform="translate(119,87)"/>
<path d="M0 0 C0.99 0.33 1.98 0.66 3 1 C-0.19426332 8.03051093 -5.99814594 13.3156261 -12 18 C-12.33 17.34 -12.66 16.68 -13 16 C-12.0625 13.875 -12.0625 13.875 -11 12 C-10.01 12 -9.02 12 -8 12 C-7.67 10.68 -7.34 9.36 -7 8 C-6.01 8 -5.02 8 -4 8 C-3.67 6.68 -3.34 5.36 -3 4 C-2.34 4 -1.68 4 -1 4 C-0.67 2.68 -0.34 1.36 0 0 Z " fill="#DFBEA8" transform="translate(147,165)"/>
<path d="M0 0 C0.04682759 3.13075913 -0.1095583 5.98699378 -1 9 C-3.23463826 11.29344453 -4.89200269 11.84108575 -8 13 C-10.4375 12.75 -10.4375 12.75 -12 12 C-11.360625 11.773125 -10.72125 11.54625 -10.0625 11.3125 C-7.74737559 10.16952088 -7.74737559 10.16952088 -7.375 7.5625 C-7.189375 6.2940625 -7.189375 6.2940625 -7 5 C-5.25712466 2.38568699 -3.44910983 0 0 0 Z " fill="#CE876D" transform="translate(168,40)"/>
<path d="M0 0 C1.32 0.66 2.64 1.32 4 2 C4 2.66 4 3.32 4 4 C4.99 4 5.98 4 7 4 C6.67 4.99 6.34 5.98 6 7 C5.113125 7.28875 4.22625 7.5775 3.3125 7.875 C-0.75285841 9.25568776 -2.83748703 11.13867874 -6 14 C-5.25 9.25 -5.25 9.25 -3 7 C-2.30899447 5.00827818 -1.64097297 3.00838196 -1 1 C-0.67 0.67 -0.34 0.34 0 0 Z " fill="#CB8E80" transform="translate(74,80)"/>
<path d="M0 0 C1.9375 1.9375 1.9375 1.9375 3 5 C2.93868395 8.05558328 2.54332848 10.99532807 2 14 C1.67 14 1.34 14 1 14 C1 11.69 1 9.38 1 7 C0.01 7 -0.98 7 -2 7 C-2 5.35 -2 3.7 -2 2 C-6.455 3.485 -6.455 3.485 -11 5 C-11.33 4.34 -11.66 3.68 -12 3 C-7.87119213 0.64068122 -4.78616798 -0.85087431 0 0 Z " fill="#DFB29F" transform="translate(184,80)"/>
<path d="M0 0 C0.33 0 0.66 0 1 0 C0.98839844 0.69867188 0.97679687 1.39734375 0.96484375 2.1171875 C0.95582031 3.02726562 0.94679687 3.93734375 0.9375 4.875 C0.92589844 5.77992187 0.91429687 6.68484375 0.90234375 7.6171875 C0.83750743 10.0168585 0.83750743 10.0168585 2 12 C1.01 12.495 1.01 12.495 0 13 C-0.68472665 14.88764903 -0.68472665 14.88764903 -1.125 17.0625 C-1.29257813 17.79597656 -1.46015625 18.52945313 -1.6328125 19.28515625 C-1.75398437 19.85105469 -1.87515625 20.41695312 -2 21 C-4 18 -4 18 -3.625 15.3125 C-3.41875 14.549375 -3.2125 13.78625 -3 13 C-4.32 14.32 -5.64 15.64 -7 17 C-7.66 16.67 -8.32 16.34 -9 16 C-8.43410156 15.43152344 -7.86820313 14.86304687 -7.28515625 14.27734375 C-1.41009175 8.09310812 -1.41009175 8.09310812 0 0 Z " fill="#DBA899" transform="translate(161,102)"/>
<path d="M0 0 C0.66 0.66 1.32 1.32 2 2 C0.7890625 3.5234375 0.7890625 3.5234375 -1 5 C-3.2265625 5.0390625 -3.2265625 5.0390625 -5.625 4.625 C-7.07847507 4.38510606 -8.53659598 4.16907855 -10 4 C-10.33 4.33 -10.66 4.66 -11 5 C-13.14307896 5.12537741 -15.29078886 5.17574364 -17.4375 5.1875 C-18.61183594 5.20167969 -19.78617187 5.21585938 -20.99609375 5.23046875 C-24 5 -24 5 -26 3 C-24.64455078 2.90912109 -24.64455078 2.90912109 -23.26171875 2.81640625 C-22.08222656 2.73261719 -20.90273437 2.64882813 -19.6875 2.5625 C-17.92986328 2.44068359 -17.92986328 2.44068359 -16.13671875 2.31640625 C-12.97409042 2.1132629 -12.97409042 2.1132629 -10 1 C-8.845 1.185625 -7.69 1.37125 -6.5 1.5625 C-2.89285508 2.40062885 -2.89285508 2.40062885 0 0 Z " fill="#CD7B66" transform="translate(139,50)"/>
<path d="M0 0 C0.66 0.33 1.32 0.66 2 1 C1.3555021 3.7498577 0.53150017 6.34905653 -0.4375 9 C-2.32634562 14.54616924 -3.16806397 20.2155977 -4 26 C-4.33 26 -4.66 26 -5 26 C-5.28765823 6.82278481 -5.28765823 6.82278481 0 0 Z " fill="#CC9C8F" transform="translate(68,97)"/>
<path d="M0 0 C2.33944736 0.28730055 4.6739143 0.61936779 7 1 C7 1.66 7 2.32 7 3 C4.53825102 3.50110701 2.07588127 3.99538032 -0.390625 4.47265625 C-2.39885391 4.8785109 -4.39173963 5.36082139 -6.375 5.875 C-7.674375 5.936875 -7.674375 5.936875 -9 6 C-11.1640625 4.0078125 -11.1640625 4.0078125 -13 2 C-12.14535156 1.93941406 -11.29070312 1.87882812 -10.41015625 1.81640625 C-8.75306641 1.69072266 -8.75306641 1.69072266 -7.0625 1.5625 C-5.96035156 1.48128906 -4.85820313 1.40007813 -3.72265625 1.31640625 C-1.08890097 1.29581916 -1.08890097 1.29581916 0 0 Z " fill="#C16D58" transform="translate(129,53)"/>
<path d="M0 0 C1.35439668 2.70879335 1.06501451 5.00933268 1 8 C0.01 8.33 -0.98 8.66 -2 9 C-2.10957031 9.84304687 -2.21914062 10.68609375 -2.33203125 11.5546875 C-2.49058594 12.65039062 -2.64914063 13.74609375 -2.8125 14.875 C-2.96332031 15.96554688 -3.11414063 17.05609375 -3.26953125 18.1796875 C-4 21 -4 21 -7 23 C-6.60628218 16.43803628 -4.82833224 4.82833224 0 0 Z " fill="#E4C1BB" transform="translate(71,80)"/>
<path d="M0 0 C2 1 2 1 2.8515625 3.1796875 C3.23441406 4.51386719 3.23441406 4.51386719 3.625 5.875 C3.88539062 6.75929687 4.14578125 7.64359375 4.4140625 8.5546875 C5 11 5 11 5 14 C4.01 13.67 3.02 13.34 2 13 C1.87625 12.195625 1.7525 11.39125 1.625 10.5625 C1.315625 9.2940625 1.315625 9.2940625 1 8 C0.34 7.67 -0.32 7.34 -1 7 C-1 9.64 -1 12.28 -1 15 C-1.33 15 -1.66 15 -2 15 C-2.05386629 12.87527424 -2.09273071 10.75016348 -2.125 8.625 C-2.14820312 7.44164062 -2.17140625 6.25828125 -2.1953125 5.0390625 C-2 2 -2 2 0 0 Z " fill="#EAB990" transform="translate(116,153)"/>
<path d="M0 0 C0.33 0.66 0.66 1.32 1 2 C3.02463255 2.65213292 3.02463255 2.65213292 5 3 C4.30132812 3.09796875 3.60265625 3.1959375 2.8828125 3.296875 C1.97273437 3.44640625 1.06265625 3.5959375 0.125 3.75 C-0.77992188 3.88921875 -1.68484375 4.0284375 -2.6171875 4.171875 C-5.14439652 4.76663281 -5.14439652 4.76663281 -6.1953125 6.96875 C-6.59363281 7.97421875 -6.59363281 7.97421875 -7 9 C-10.42857143 12 -10.42857143 12 -13 12 C-12.6875 10.125 -12.6875 10.125 -12 8 C-11.01 7.34 -10.02 6.68 -9 6 C-8.67 5.01 -8.34 4.02 -8 3 C-5.36 3 -2.72 3 0 3 C0 2.01 0 1.02 0 0 Z " fill="#D4A9A0" transform="translate(151,51)"/>
<path d="M0 0 C0.33 0 0.66 0 1 0 C1.02685938 2.14576637 1.04633088 4.29162645 1.0625 6.4375 C1.07410156 7.63246094 1.08570313 8.82742187 1.09765625 10.05859375 C1 13 1 13 0 14 C-0.22714004 15.63066766 -0.39455086 17.26976003 -0.53515625 18.91015625 C-0.66567383 20.39418945 -0.66567383 20.39418945 -0.79882812 21.90820312 C-0.88583984 22.94912109 -0.97285156 23.99003906 -1.0625 25.0625 C-1.15337891 26.10728516 -1.24425781 27.15207031 -1.33789062 28.22851562 C-1.56260908 30.8186915 -1.7831231 33.40915767 -2 36 C-2.33 36 -2.66 36 -3 36 C-3.56299461 23.7809319 -1.84599173 12.04804179 0 0 Z " fill="#F3E1D9" transform="translate(61,116)"/>
<path d="M0 0 C0.99 0 1.98 0 3 0 C3.66 3.3 4.32 6.6 5 10 C0.81269198 8.953173 -0.29986005 8.1823078 -3 5 C-3 4.34 -3 3.68 -3 3 C-2.01 2.67 -1.02 2.34 0 2 C0 1.34 0 0.68 0 0 Z " fill="#B45D45" transform="translate(164,107)"/>
<path d="M0 0 C0 0.66 0 1.32 0 2 C-0.969375 2.309375 -1.93875 2.61875 -2.9375 2.9375 C-5.84065792 3.69523342 -5.84065792 3.69523342 -7 5 C-9.01964199 5.07244053 -11.04167124 5.08377188 -13.0625 5.0625 C-14.16722656 5.05347656 -15.27195312 5.04445313 -16.41015625 5.03515625 C-17.69212891 5.01775391 -17.69212891 5.01775391 -19 5 C-18.67 4.34 -18.34 3.68 -18 3 C-14.98046875 2.1484375 -14.98046875 2.1484375 -11.1875 1.375 C-9.32158203 0.98441406 -9.32158203 0.98441406 -7.41796875 0.5859375 C-4 0 -4 0 0 0 Z " fill="#E3C0AF" transform="translate(122,31)"/>
<path d="M0 0 C1 7.625 1 7.625 1 11 C-0.65 9.68 -2.3 8.36 -4 7 C-4 7.99 -4 8.98 -4 10 C-4.99 9.67 -5.98 9.34 -7 9 C-6.53149863 4.78348764 -4.94559315 0 0 0 Z " fill="#C1735C" transform="translate(158,115)"/>
<path d="M0 0 C0 0.66 0 1.32 0 2 C1.65 1.34 3.3 0.68 5 0 C5 0.99 5 1.98 5 3 C0.50343896 5.24828052 -3.07872966 5.16682272 -8 5 C-7.6875 3.0625 -7.6875 3.0625 -7 1 C-4 0 -4 0 0 0 Z " fill="#C47460" transform="translate(156,48)"/>
<path d="M0 0 C0.33 0.66 0.66 1.32 1 2 C2.32 2 3.64 2 5 2 C5 1.34 5 0.68 5 0 C5.66 0 6.32 0 7 0 C7 1.65 7 3.3 7 5 C3.535 6.485 3.535 6.485 0 8 C-0.38063221 5.6739143 -0.71269945 3.33944736 -1 1 C-0.67 0.67 -0.34 0.34 0 0 Z " fill="#D09F8B" transform="translate(127,179)"/>
<path d="M0 0 C0 1.98 0 3.96 0 6 C-1.32 5.34 -2.64 4.68 -4 4 C-4 3.34 -4 2.68 -4 2 C-1 0 -1 0 0 0 Z M-4 4 C-5.65 5.65 -7.3 7.3 -9 9 C-9.33 8.34 -9.66 7.68 -10 7 C-10.99 7.33 -11.98 7.66 -13 8 C-13.99 7.34 -14.98 6.68 -16 6 C-8.71428571 2.42857143 -8.71428571 2.42857143 -4 4 Z " fill="#DE957A" transform="translate(169,37)"/>
<path d="M0 0 C0.99 1.485 0.99 1.485 2 3 C2.53238281 3.43957031 3.06476563 3.87914062 3.61328125 4.33203125 C5.62715757 6.75435573 5.29666718 8.59442979 5.1875 11.6875 C5.16042969 12.68136719 5.13335937 13.67523438 5.10546875 14.69921875 C5.07066406 15.45847656 5.03585938 16.21773437 5 17 C3 16 3 16 2.1484375 13.92578125 C0.74105263 9.17052631 -0.3961821 5.01830661 0 0 Z " fill="#D8906A" transform="translate(109,136)"/>
<path d="M0 0 C2.625 0.375 2.625 0.375 5 1 C4.02501855 2.5027237 3.04490611 4.00211963 2.0625 5.5 C1.51722656 6.3353125 0.97195312 7.170625 0.41015625 8.03125 C-0.05519531 8.6809375 -0.52054688 9.330625 -1 10 C-1.33 10 -1.66 10 -2 10 C-2.1953125 3.9453125 -2.1953125 3.9453125 -2 2 C-1.34 1.34 -0.68 0.68 0 0 Z M-4 3 C-2 4 -2 4 -2 4 Z " fill="#E0B29F" transform="translate(169,138)"/>
<path d="M0 0 C1.32 0 2.64 0 4 0 C3.67 2.97 3.34 5.94 3 9 C2.34 9 1.68 9 1 9 C1 8.34 1 7.68 1 7 C0.34 7 -0.32 7 -1 7 C-1.625 5.1875 -1.625 5.1875 -2 3 C-1.34 2.01 -0.68 1.02 0 0 Z " fill="#E5A387" transform="translate(181,87)"/>
<path d="M0 0 C-3.33333333 3.33333333 -6.66666667 6.66666667 -10 10 C-10 8.02 -10 6.04 -10 4 C-9.34 3.67 -8.68 3.34 -8 3 C-7.67 2.01 -7.34 1.02 -7 0 C-3.86650268 -1.04449911 -3.01031744 -0.93423645 0 0 Z " fill="#DFBCA9" transform="translate(160,156)"/>
<path d="M0 0 C-2.33285443 3.49928164 -3.20795069 3.6329098 -7.125 4.6875 C-8.49011719 5.06455078 -8.49011719 5.06455078 -9.8828125 5.44921875 C-10.58148438 5.63097656 -11.28015625 5.81273437 -12 6 C-12.66 5.34 -13.32 4.68 -14 4 C-9.33286748 0.166284 -5.97171665 -0.13572083 0 0 Z " fill="#D39C84" transform="translate(108,36)"/>
<path d="M0 0 C0 1.98 0 3.96 0 6 C-0.99 6 -1.98 6 -3 6 C-3 6.66 -3 7.32 -3 8 C-3.99 8.33 -4.98 8.66 -6 9 C-6.625 7.1875 -6.625 7.1875 -7 5 C-3.66666667 0 -3.66666667 0 0 0 Z " fill="#D59579" transform="translate(167,142)"/>
<path d="M0 0 C1.98 0.66 3.96 1.32 6 2 C6 2.99 6 3.98 6 5 C6.66 5.66 7.32 6.32 8 7 C1.47692308 7.36923077 1.47692308 7.36923077 -0.9375 5.5 C-1.4634375 4.7575 -1.4634375 4.7575 -2 4 C-1.34 2.68 -0.68 1.36 0 0 Z " fill="#B25F4D" transform="translate(143,47)"/>
<path d="M0 0 C1.4049404 3.89060419 0.69513239 7.23092362 0.0625 11.25 C-0.13214844 12.51328125 -0.32679687 13.7765625 -0.52734375 15.078125 C-0.68332031 16.04234375 -0.83929688 17.0065625 -1 18 C-1.66 18 -2.32 18 -3 18 C-3.33278764 11.18401613 -3.24201565 6.07877934 0 0 Z " fill="#DFC6BA" transform="translate(53,200)"/>
<path d="M0 0 C0.33 0 0.66 0 1 0 C1 2.31 1 4.62 1 7 C1.99 7 2.98 7 4 7 C4 7.66 4 8.32 4 9 C2.68 9.33 1.36 9.66 0 10 C0.33 11.65 0.66 13.3 1 15 C0.01 14.34 -0.98 13.68 -2 13 C-1.85915204 11.20793453 -1.71216299 9.41635083 -1.5625 7.625 C-1.48128906 6.62726563 -1.40007812 5.62953125 -1.31640625 4.6015625 C-1 2 -1 2 0 0 Z " fill="#C8795E" transform="translate(172,104)"/>
<path d="M0 0 C1.125 3.75 1.125 3.75 0 6 C-1.65391846 6.39171753 -3.32345271 6.72057545 -5 7 C-5.99 7.33 -6.98 7.66 -8 8 C-10.6875 7.5625 -10.6875 7.5625 -13 7 C-11.68 6.67 -10.36 6.34 -9 6 C-9 5.34 -9 4.68 -9 4 C-6.69 4 -4.38 4 -2 4 C-1.34 2.68 -0.68 1.36 0 0 Z " fill="#D98B73" transform="translate(142,45)"/>
<path d="M0 0 C0.33 0 0.66 0 1 0 C1.19672365 1.72814161 1.38196799 3.45759197 1.5625 5.1875 C1.66691406 6.15042969 1.77132812 7.11335937 1.87890625 8.10546875 C1.99922934 10.98157875 1.79629238 13.23920188 1 16 C0.34 16.66 -0.32 17.32 -1 18 C-1.02717692 15.93757383 -1.0464758 13.87504297 -1.0625 11.8125 C-1.07410156 10.66394531 -1.08570313 9.51539063 -1.09765625 8.33203125 C-1.01192832 5.40699414 -0.67849023 2.83683709 0 0 Z " fill="#CEA390" transform="translate(60,145)"/>
<path d="M0 0 C0 1.65 0 3.3 0 5 C-0.66 5 -1.32 5 -2 5 C-2 6.65 -2 8.3 -2 10 C-3.32 10.33 -4.64 10.66 -6 11 C-5.74445946 9.53890937 -5.46999628 8.08111904 -5.1875 6.625 C-5.03667969 5.81289062 -4.88585937 5.00078125 -4.73046875 4.1640625 C-3.93684712 1.81290538 -2.87282535 0 0 0 Z " fill="#C0664E" transform="translate(174,87)"/>
<path d="M0 0 C1.8871875 0.0309375 1.8871875 0.0309375 3.8125 0.0625 C3.8125 0.7225 3.8125 1.3825 3.8125 2.0625 C2.8225 2.3925 1.8325 2.7225 0.8125 3.0625 C0.8125 3.7225 0.8125 4.3825 0.8125 5.0625 C-2.0625 4.75 -2.0625 4.75 -5.1875 4.0625 C-5.8475 3.0725 -6.5075 2.0825 -7.1875 1.0625 C-4.43671116 0.14557039 -2.82801087 -0.04636083 0 0 Z " fill="#C37561" transform="translate(101.1875,61.9375)"/>
<path d="M0 0 C0.66 0 1.32 0 2 0 C2 1.32 2 2.64 2 4 C1.360625 4.28875 0.72125 4.5775 0.0625 4.875 C-2.15206079 5.82823451 -2.15206079 5.82823451 -3 8 C-3 7.34 -3 6.68 -3 6 C-3.66 6 -4.32 6 -5 6 C-5 6.66 -5 7.32 -5 8 C-5.99 8 -6.98 8 -8 8 C-8 7.34 -8 6.68 -8 6 C-6.20963542 5.0234375 -4.41927083 4.046875 -2.62890625 3.0703125 C-0.83381685 2.08589976 -0.83381685 2.08589976 0 0 Z " fill="#C98E75" transform="translate(137,173)"/>
<path d="M0 0 C2 1 2 1 2.875 3.5625 C3.04344481 8.1947322 1.31446597 11.08626784 -1 15 C-1.33 14.34 -1.66 13.68 -2 13 C-1.67 12.34 -1.34 11.68 -1 11 C-0.95509079 9.31309769 -0.96116137 7.624553 -1 5.9375 C-1.03777102 4.29210014 -1.04642479 2.64517844 -1 1 C-0.67 0.67 -0.34 0.34 0 0 Z " fill="#EBCCBE" transform="translate(169,32)"/>
<path d="M0 0 C0.33 0 0.66 0 1 0 C1.33 3.96 1.66 7.92 2 12 C0.68 12 -0.64 12 -2 12 C-1.85962479 10.18706911 -1.71255111 8.3746557 -1.5625 6.5625 C-1.48128906 5.55316406 -1.40007812 4.54382813 -1.31640625 3.50390625 C-1 1 -1 1 0 0 Z " fill="#EEC4A9" transform="translate(107,207)"/>
<path d="M0 0 C0.99 0.33 1.98 0.66 3 1 C0.89851796 4.98175544 -1.36905358 7.35039045 -5 10 C-5.33 9.34 -5.66 8.68 -6 8 C-5.0625 5.875 -5.0625 5.875 -4 4 C-3.01 4 -2.02 4 -1 4 C-0.67 2.68 -0.34 1.36 0 0 Z " fill="#D6B0A3" transform="translate(140,173)"/>
<path d="M0 0 C0.66 0 1.32 0 2 0 C3.47006623 4.41019868 2.43537323 7.69388031 1 12 C0.34 12 -0.32 12 -1 12 C-1.02712066 10.56260487 -1.04645067 9.12506137 -1.0625 7.6875 C-1.07410156 6.88699219 -1.08570313 6.08648437 -1.09765625 5.26171875 C-1 3 -1 3 0 0 Z " fill="#CDA290" transform="translate(58,164)"/>
<path d="M0 0 C2.61109045 3.82959933 1.86230768 6.8261539 1.125 11.25 C0.92132813 12.51328125 0.71765625 13.7765625 0.5078125 15.078125 C0.34023438 16.04234375 0.17265625 17.0065625 0 18 C-0.33 18 -0.66 18 -1 18 C-1.02698422 15.56242587 -1.04683099 13.12515085 -1.0625 10.6875 C-1.07087891 9.99720703 -1.07925781 9.30691406 -1.08789062 8.59570312 C-1.10307906 5.4516975 -1.00193327 3.00579981 0 0 Z " fill="#CEA090" transform="translate(62,126)"/>
<path d="M0 0 C0.33 0 0.66 0 1 0 C1.18175781 0.87011719 1.18175781 0.87011719 1.3671875 1.7578125 C2.33735474 6.28028442 3.43397783 10.63750966 5 15 C3.68 14.67 2.36 14.34 1 14 C-0.20568053 9.32798795 -0.09382426 4.78503708 0 0 Z " fill="#EDCFC4" transform="translate(186,98)"/>
<path d="M0 0 C0.99 0 1.98 0 3 0 C3 0.66 3 1.32 3 2 C3.99 2 4.98 2 6 2 C5.67 2.99 5.34 3.98 5 5 C1.4375 6.1875 1.4375 6.1875 -2 7 C-1.125 1.125 -1.125 1.125 0 0 Z " fill="#D79680" transform="translate(75,82)"/>
<path d="M0 0 C5.43806647 -0.36253776 5.43806647 -0.36253776 7.9375 1.25 C9 3 9 3 8.6875 5.1875 C8.3471875 6.0846875 8.3471875 6.0846875 8 7 C7.13375 6.071875 7.13375 6.071875 6.25 5.125 C4.19750179 3.18652947 2.56633418 2.09985751 0 1 C0 0.67 0 0.34 0 0 Z " fill="#D08E74" transform="translate(143,124)"/>
<path d="M0 0 C0.66 0.99 1.32 1.98 2 3 C2.99 3.33 3.98 3.66 5 4 C4.67 5.32 4.34 6.64 4 8 C3.34 8 2.68 8 2 8 C1.67 8.66 1.34 9.32 1 10 C-0.80411967 7.24075815 -1.0127245 6.11027897 -0.625 2.75 C-0.41875 1.8425 -0.2125 0.935 0 0 Z " fill="#E1A58E" transform="translate(186,109)"/>
<path d="M0 0 C0.66 0.33 1.32 0.66 2 1 C1.33989524 3.84550012 0.48275034 6.52325999 -0.5625 9.25 C-0.83191406 9.95640625 -1.10132812 10.6628125 -1.37890625 11.390625 C-1.68634766 12.18726562 -1.68634766 12.18726562 -2 13 C-2.33 13 -2.66 13 -3 13 C-3.27429625 7.60550707 -3.36055646 4.48074195 0 0 Z " fill="#CA9181" transform="translate(68,97)"/>
<path d="M0 0 C0.33 0.99 0.66 1.98 1 3 C-0.65 4.65 -2.3 6.3 -4 8 C-4 7.34 -4 6.68 -4 6 C-4.99 6.33 -5.98 6.66 -7 7 C-7 5.68 -7 4.36 -7 3 C-5.5459375 2.5359375 -5.5459375 2.5359375 -4.0625 2.0625 C-1.15934208 1.30476658 -1.15934208 1.30476658 0 0 Z " fill="#C87965" transform="translate(111,63)"/>
<path d="M0 0 C2.97 0.495 2.97 0.495 6 1 C5 4 5 4 2.1875 5.75 C-0.96403086 6.98589446 -1.96929372 7.28222189 -5 6 C-4.360625 5.7525 -3.72125 5.505 -3.0625 5.25 C-0.81258459 4.18437567 -0.81258459 4.18437567 -0.25 1.875 C-0.1675 1.25625 -0.085 0.6375 0 0 Z " fill="#D6AC9E" transform="translate(161,46)"/>
<path d="M0 0 C-0.5775 0.268125 -1.155 0.53625 -1.75 0.8125 C-4.05396098 1.94184834 -4.05396098 1.94184834 -6.0625 3.625 C-8 5 -8 5 -11 5 C-11 5.99 -11 6.98 -11 8 C-11.66 8 -12.32 8 -13 8 C-12.06601394 4.85841051 -11.33205059 3.2674852 -8.75 1.1875 C-5.62298529 -0.16280181 -3.3717092 -0.23523553 0 0 Z " fill="#E5C7BC" transform="translate(102,36)"/>
<path d="M0 0 C2.52480693 2.52480693 2.55738633 4.13823034 3.125 7.625 C3.29257813 8.62789062 3.46015625 9.63078125 3.6328125 10.6640625 C3.75398438 11.43492187 3.87515625 12.20578125 4 13 C3.34 13 2.68 13 2 13 C0.24252386 8.49646738 -0.19294408 4.82360189 0 0 Z " fill="#C68A6B" transform="translate(123,174)"/>
<path d="M0 0 C1.98 0 3.96 0 6 0 C6 0.66 6 1.32 6 2 C6.66 2.33 7.32 2.66 8 3 C7.34 3 6.68 3 6 3 C5.34 4.65 4.68 6.3 4 8 C3.34 8 2.68 8 2 8 C2.33 6.02 2.66 4.04 3 2 C2.01 1.34 1.02 0.68 0 0 Z " fill="#D48E73" transform="translate(176,82)"/>
<path d="M0 0 C1.9375 0.75 1.9375 0.75 4 2 C4.75 4.125 4.75 4.125 5 6 C2.5625 5.625 2.5625 5.625 0 5 C-0.33 4.34 -0.66 3.68 -1 3 C-0.67 2.01 -0.34 1.02 0 0 Z " fill="#DD9A76" transform="translate(154,122)"/>
<path d="M0 0 C0.66 0 1.32 0 2 0 C1.51171875 6.0546875 1.51171875 6.0546875 1 8 C0.01 8.66 -0.98 9.32 -2 10 C-1.125 2.25 -1.125 2.25 0 0 Z " fill="#DBB9B2" transform="translate(66,93)"/>
<path d="M0 0 C1.65 0 3.3 0 5 0 C5.66 1.32 6.32 2.64 7 4 C7.66 4 8.32 4 9 4 C8.67 4.99 8.34 5.98 8 7 C4.2047869 5.50902342 2.38957269 3.24299151 0 0 Z " fill="#C9785C" transform="translate(112,80)"/>
<path d="M0 0 C0.33 0.66 0.66 1.32 1 2 C-2.41176471 8.70588235 -2.41176471 8.70588235 -5 10 C-3.375 2.25 -3.375 2.25 0 0 Z " fill="#C2897D" transform="translate(83,60)"/>
<path d="M0 0 C0.33 0.66 0.66 1.32 1 2 C1.66 2 2.32 2 3 2 C3 2.66 3 3.32 3 4 C2.34 4 1.68 4 1 4 C1 4.66 1 5.32 1 6 C-0.65 6 -2.3 6 -4 6 C-3.67 5.01 -3.34 4.02 -3 3 C-2.34 3 -1.68 3 -1 3 C-0.67 2.01 -0.34 1.02 0 0 Z " fill="#EEAD94" transform="translate(137,40)"/>
<path d="M0 0 C0.625 3.375 0.625 3.375 1 7 C0.34 7.66 -0.32 8.32 -1 9 C-4 4.25 -4 4.25 -4 2 C-1 0 -1 0 0 0 Z " fill="#D49471" transform="translate(121,180)"/>
<path d="M0 0 C0.99 0.33 1.98 0.66 3 1 C2.34 2.32 1.68 3.64 1 5 C0.34 5 -0.32 5 -1 5 C-1 5.99 -1 6.98 -1 8 C-1.66 8 -2.32 8 -3 8 C-3 6.35 -3 4.7 -3 3 C-2.01 3 -1.02 3 0 3 C0 2.01 0 1.02 0 0 Z " fill="#CD9485" transform="translate(91,41)"/>
<path d="M0 0 C0.99 0 1.98 0 3 0 C1.70700306 2.88437779 0.34058637 4.87219421 -2 7 C-2.66 6.67 -3.32 6.34 -4 6 C-3.34 4.68 -2.68 3.36 -2 2 C-1.34 2 -0.68 2 0 2 C0 1.34 0 0.68 0 0 Z " fill="#E1C3B6" transform="translate(164,148)"/>
<path d="M0 0 C0.33 0.99 0.66 1.98 1 3 C1.66 3 2.32 3 3 3 C2.43628586 6.26954202 1.50037734 7.82575883 -1 10 C-1.125 2.25 -1.125 2.25 0 0 Z " fill="#DDAD9C" transform="translate(175,129)"/>
<path d="M0 0 C1.4783226 2.95664519 1.06032783 5.74229737 1 9 C0.67 8.34 0.34 7.68 0 7 C-0.66 7 -1.32 7 -2 7 C-2.33 7.99 -2.66 8.98 -3 10 C-3.33 9.34 -3.66 8.68 -4 8 C-3.22265625 6.0546875 -3.22265625 6.0546875 -2.0625 3.875 C-1.49208984 2.78832031 -1.49208984 2.78832031 -0.91015625 1.6796875 C-0.60980469 1.12539062 -0.30945313 0.57109375 0 0 Z " fill="#E2BCAA" transform="translate(166,91)"/>
<path d="M0 0 C0.33 0 0.66 0 1 0 C1.3125 2.75 1.3125 2.75 1 6 C-1.5 8.375 -1.5 8.375 -4 10 C-3.29445932 6.33118845 -1.72264494 3.29549466 0 0 Z " fill="#DEBCB5" transform="translate(83,54)"/>
<path d="M0 0 C3.7952131 1.49097658 5.61042731 3.75700849 8 7 C5.33333333 5.66666667 2.66666667 4.33333333 0 3 C0 2.01 0 1.02 0 0 Z " fill="#F2CCBA" transform="translate(132,115)"/>
<path d="M0 0 C0.66 0.33 1.32 0.66 2 1 C1.34 2.65 0.68 4.3 0 6 C-1.32 5.34 -2.64 4.68 -4 4 C-4 3.34 -4 2.68 -4 2 C-2.125 0.9375 -2.125 0.9375 0 0 Z " fill="#B56855" transform="translate(141,54)"/>
<path d="M0 0 C0.33 0 0.66 0 1 0 C0.6875 3.375 0.6875 3.375 0 7 C-0.99 7.66 -1.98 8.32 -3 9 C-3 7.35 -3 5.7 -3 4 C-2.34 3.67 -1.68 3.34 -1 3 C-0.67 2.01 -0.34 1.02 0 0 Z " fill="#E9CEC1" transform="translate(191,113)"/>
<path d="M0 0 C0.66 0.33 1.32 0.66 2 1 C2 1.66 2 2.32 2 3 C-2.43076923 5.09230769 -2.43076923 5.09230769 -5.3125 4.625 C-5.869375 4.41875 -6.42625 4.2125 -7 4 C-1.7265625 0.77734375 -1.7265625 0.77734375 0 0 Z " fill="#B06D61" transform="translate(159,48)"/>
<path d="M0 0 C0.99 0.33 1.98 0.66 3 1 C3 2.32 3 3.64 3 5 C1.35 5.66 -0.3 6.32 -2 7 C-1.34 4.69 -0.68 2.38 0 0 Z " fill="#D3947A" transform="translate(178,125)"/>
<path d="M0 0 C0.99 0 1.98 0 3 0 C5.1875 3 5.1875 3 7 6 C3.75728494 5.4409112 2.06942576 4.5867822 0 2 C0 1.34 0 0.68 0 0 Z " fill="#A45037" transform="translate(162,111)"/>
<path d="M0 0 C1.65 1.32 3.3 2.64 5 4 C3.35 4.33 1.7 4.66 0 5 C-0.33 4.01 -0.66 3.02 -1 2 C-0.67 1.34 -0.34 0.68 0 0 Z " fill="#C87B63" transform="translate(106,74)"/>
<path d="M0 0 C2.64 0.33 5.28 0.66 8 1 C7.67 1.99 7.34 2.98 7 4 C4.625 3.6875 4.625 3.6875 2 3 C1.34 2.01 0.68 1.02 0 0 Z " fill="#BA6853" transform="translate(116,55)"/>
<path d="" fill="#FFFFFF" transform="translate(0,0)"/>
<path d="" fill="#FFFFFF" transform="translate(0,0)"/>
<path d="" fill="#FFFFFF" transform="translate(0,0)"/>
<path d="" fill="#FFFFFF" transform="translate(0,0)"/>
<path d="" fill="#FFFFFF" transform="translate(0,0)"/>
<path d="" fill="#FFFFFF" transform="translate(0,0)"/>
<path d="" fill="#FFFFFF" transform="translate(0,0)"/>
<path d="" fill="#FFFFFF" transform="translate(0,0)"/>
<path d="" fill="#FFFFFF" transform="translate(0,0)"/>
<path d="" fill="#FFFFFF" transform="translate(0,0)"/>
<path d="" fill="#FFFFFF" transform="translate(0,0)"/>
<path d="" fill="#FFFFFF" transform="translate(0,0)"/>
<path d="" fill="#FFFFFF" transform="translate(0,0)"/>
<path d="" fill="#FFFFFF" transform="translate(0,0)"/>
<path d="" fill="#FFFFFF" transform="translate(0,0)"/>
<path d="" fill="#FFFFFF" transform="translate(0,0)"/>
<path d="" fill="#FFFFFF" transform="translate(0,0)"/>
<path d="" fill="#FFFFFF" transform="translate(0,0)"/>
<path d="" fill="#FFFFFF" transform="translate(0,0)"/>
<path d="" fill="#FFFFFF" transform="translate(0,0)"/>
<path d="" fill="#FFFFFF" transform="translate(0,0)"/>
<path d="" fill="#FFFFFF" transform="translate(0,0)"/>
<path d="" fill="#FFFFFF" transform="translate(0,0)"/>
<path d="" fill="#FFFFFF" transform="translate(0,0)"/>
<path d="" fill="#FFFFFF" transform="translate(0,0)"/>
<path d="" fill="#FFFFFF" transform="translate(0,0)"/>
<path d="" fill="#FFFFFF" transform="translate(0,0)"/>
<path d="" fill="#FFFFFF" transform="translate(0,0)"/>
<path d="" fill="#FFFFFF" transform="translate(0,0)"/>
<path d="" fill="#FFFFFF" transform="translate(0,0)"/>
<path d="" fill="#FFFFFF" transform="translate(0,0)"/>
<path d="" fill="#FFFFFF" transform="translate(0,0)"/>
<path d="" fill="#FFFFFF" transform="translate(0,0)"/>
<path d="" fill="#FFFFFF" transform="translate(0,0)"/>
<path d="" fill="#FFFFFF" transform="translate(0,0)"/>
<path d="" fill="#FFFFFF" transform="translate(0,0)"/>
<path d="" fill="#FFFFFF" transform="translate(0,0)"/>
<path d="" fill="#FFFFFF" transform="translate(0,0)"/>
<path d="" fill="#FFFFFF" transform="translate(0,0)"/>
<path d="" fill="#FFFFFF" transform="translate(0,0)"/>
<path d="" fill="#FFFFFF" transform="translate(0,0)"/>
<path d="" fill="#FFFFFF" transform="translate(0,0)"/>
<path d="" fill="#FFFFFF" transform="translate(0,0)"/>
<path d="" fill="#FFFFFF" transform="translate(0,0)"/>
<path d="" fill="#FFFFFF" transform="translate(0,0)"/>
<path d="" fill="#FFFFFF" transform="translate(0,0)"/>
<path d="" fill="#FFFFFF" transform="translate(0,0)"/>
<path d="" fill="#FFFFFF" transform="translate(0,0)"/>
<path d="" fill="#FFFFFF" transform="translate(0,0)"/>
<path d="" fill="#FFFFFF" transform="translate(0,0)"/>
<path d="" fill="#FFFFFF" transform="translate(0,0)"/>
<path d="" fill="#FFFFFF" transform="translate(0,0)"/>
<path d="" fill="#FFFFFF" transform="translate(0,0)"/>
<path d="" fill="#FFFFFF" transform="translate(0,0)"/>
</svg>
