<?xml version="1.0" encoding="UTF-8"?>
<svg version="1.1" xmlns="http://www.w3.org/2000/svg" width="240" height="240">
<path d="M0 0 C0.99168182 -0.00570007 1.98336365 -0.01140015 3.00509644 -0.01727295 C5.0875341 -0.02666096 7.16998619 -0.03323203 9.25244141 -0.03710938 C12.42767002 -0.0468688 15.60226504 -0.07797258 18.77734375 -0.109375 C20.80989203 -0.11590145 22.84244488 -0.12115332 24.875 -0.125 C26.28774704 -0.1435202 26.28774704 -0.1435202 27.72903442 -0.16241455 C33.35362446 -0.14347761 37.3500127 0.46503685 42.3046875 3.203125 C43.8671875 5.578125 43.8671875 5.578125 44.3046875 8.203125 C43.4296875 11.015625 43.4296875 11.015625 42.3046875 13.203125 C43.2946875 12.873125 44.2846875 12.543125 45.3046875 12.203125 C47.81810031 12.08141695 50.29159651 12.01801842 52.8046875 12.015625 C53.81982422 11.99725586 53.81982422 11.99725586 54.85546875 11.97851562 C58.56825794 11.96753104 60.13451826 12.08967884 63.3046875 14.203125 C64.6694037 19.10004783 64.6694037 19.10004783 64.3046875 22.203125 C57.79039805 30.16503432 45.55005438 31.80847391 35.9296875 33.578125 C33.74457719 33.99758219 31.55969061 34.4182061 29.375 34.83984375 C28.23321289 35.05817871 27.09142578 35.27651367 25.91503906 35.50146484 C19.53334401 36.74172665 13.16979587 38.06831042 6.8046875 39.390625 C5.59506348 39.64054199 4.38543945 39.89045898 3.13916016 40.14794922 C-7.55682456 41.83863287 -7.55682456 41.83863287 -17.6953125 45.203125 C-19.37185979 44.92370045 -21.04139404 44.59484253 -22.6953125 44.203125 C-23.0253125 44.863125 -23.3553125 45.523125 -23.6953125 46.203125 C-22.48875 47.0384375 -22.48875 47.0384375 -21.2578125 47.890625 C-18.41080331 50.45987719 -17.98219655 51.47363238 -17.6953125 55.203125 C-17.6953125 56.193125 -17.6953125 57.183125 -17.6953125 58.203125 C-17.0559375 58.739375 -16.4165625 59.275625 -15.7578125 59.828125 C-13.14393592 62.83804349 -12.7502249 65.0313443 -12.453125 68.9453125 C-12.87658756 72.89307637 -14.83984051 74.54687198 -17.6953125 77.203125 C-18.6853125 77.698125 -18.6853125 77.698125 -19.6953125 78.203125 C-19.6025 78.92757812 -19.5096875 79.65203125 -19.4140625 80.3984375 C-18.85160559 87.9313426 -18.85160559 87.9313426 -21.01953125 91.19921875 C-27.69529316 96.81133725 -36.39252001 97.11686806 -44.7734375 97.32421875 C-53.3220343 97.5623468 -59.02836883 98.43747789 -65.6953125 104.203125 C-67.1674484 105.3373097 -68.6464302 106.4626759 -70.1328125 107.578125 C-70.77089844 108.08085937 -71.40898438 108.58359375 -72.06640625 109.1015625 C-73.6953125 110.203125 -73.6953125 110.203125 -75.6953125 110.203125 C-75.6953125 110.863125 -75.6953125 111.523125 -75.6953125 112.203125 C-78.19278273 113.47913831 -80.69309186 114.74898671 -83.1953125 116.015625 C-83.89140625 116.37205078 -84.5875 116.72847656 -85.3046875 117.09570312 C-86.34882813 117.62260742 -86.34882813 117.62260742 -87.4140625 118.16015625 C-88.46787109 118.69697021 -88.46787109 118.69697021 -89.54296875 119.24462891 C-91.71229499 120.21068776 -93.80721795 120.74810615 -96.1015625 121.33984375 C-98.62040511 122.2678875 -99.46138776 122.72294795 -100.6496582 125.16210938 C-102.24300621 132.00627897 -101.76711824 139.05266612 -101.3828125 146.015625 C-101.33447266 147.12099609 -101.28613281 148.22636719 -101.23632812 149.36523438 C-101.03482388 154.96910467 -101.03482388 154.96910467 -100.17114258 160.4909668 C-99.48637081 164.39406046 -99.61781531 168.25076844 -99.6953125 172.203125 C-107.50106445 172.22625292 -115.30680845 172.24404238 -123.11258602 172.25493717 C-126.7367721 172.26016502 -130.3609348 172.26726087 -133.98510742 172.27856445 C-137.47991225 172.28939684 -140.97469454 172.29540258 -144.46951485 172.29800224 C-146.45770639 172.30076051 -148.44588881 172.30857188 -150.43406677 172.31642151 C-151.63523636 172.31649704 -152.83640594 172.31657257 -154.07397461 172.31665039 C-155.13764755 172.318871 -156.2013205 172.32109161 -157.29722595 172.32337952 C-159.6953125 172.203125 -159.6953125 172.203125 -160.6953125 171.203125 C-161.04534382 162.81158468 -160.10050783 154.48638902 -159.3203125 146.140625 C-159.03877835 143.09259239 -158.75919778 140.04438407 -158.48046875 136.99609375 C-158.41123703 136.24276764 -158.34200531 135.48944153 -158.27067566 134.71328735 C-157.85955114 130.18793155 -157.50047966 125.66263908 -157.19140625 121.12890625 C-155.27588676 93.27888124 -144.85568684 77.98877887 -124.6953125 59.203125 C-122.02127088 56.89700116 -119.2997133 54.67403728 -116.5390625 52.47265625 C-105.61192065 43.7519565 -94.7871716 34.64541756 -85.1484375 24.50390625 C-84.54249756 23.87331299 -83.93655762 23.24271973 -83.31225586 22.59301758 C-82.14515256 21.37064623 -80.99124754 20.13547539 -79.85375977 18.88549805 C-73.19668111 11.92496847 -64.19590125 10.71827105 -55.0703125 8.7578125 C-54.08337402 8.54246857 -53.09643555 8.32712463 -52.07958984 8.10525513 C-50.00606202 7.65416117 -47.93199552 7.20553688 -45.85742188 6.75927734 C-42.70282701 6.07974371 -39.55057779 5.39003828 -36.3984375 4.69921875 C-34.37252823 4.25980582 -32.34649067 3.82098387 -30.3203125 3.3828125 C-29.38880371 3.17864716 -28.45729492 2.97448181 -27.49755859 2.76412964 C-18.28471217 0.79540632 -9.41324278 0.04265927 0 0 Z " fill="#E5AD8A" transform="translate(170.6953125,45.796875)"/>
<path d="M0 0 C0.99168182 -0.00570007 1.98336365 -0.01140015 3.00509644 -0.01727295 C5.0875341 -0.02666096 7.16998619 -0.03323203 9.25244141 -0.03710938 C12.42767002 -0.0468688 15.60226504 -0.07797258 18.77734375 -0.109375 C20.80989203 -0.11590145 22.84244488 -0.12115332 24.875 -0.125 C26.28774704 -0.1435202 26.28774704 -0.1435202 27.72903442 -0.16241455 C33.35362446 -0.14347761 37.3500127 0.46503685 42.3046875 3.203125 C43.8671875 5.578125 43.8671875 5.578125 44.3046875 8.203125 C43.4296875 11.015625 43.4296875 11.015625 42.3046875 13.203125 C43.2946875 12.873125 44.2846875 12.543125 45.3046875 12.203125 C47.81810031 12.08141695 50.29159651 12.01801842 52.8046875 12.015625 C53.81982422 11.99725586 53.81982422 11.99725586 54.85546875 11.97851562 C58.56825794 11.96753104 60.13451826 12.08967884 63.3046875 14.203125 C64.69684436 19.19851139 64.69684436 19.19851139 64.3046875 22.203125 C61.6171875 25.078125 61.6171875 25.078125 58.3046875 27.203125 C57.6034375 27.656875 56.9021875 28.110625 56.1796875 28.578125 C53.86147708 29.35086181 52.57483405 29.01389163 50.3046875 28.203125 C51.9546875 27.873125 53.6046875 27.543125 55.3046875 27.203125 C55.3046875 26.543125 55.3046875 25.883125 55.3046875 25.203125 C56.6246875 25.203125 57.9446875 25.203125 59.3046875 25.203125 C59.3046875 23.883125 59.3046875 22.563125 59.3046875 21.203125 C54.6846875 21.203125 50.0646875 21.203125 45.3046875 21.203125 C45.3046875 19.223125 45.3046875 17.243125 45.3046875 15.203125 C43.6546875 14.873125 42.0046875 14.543125 40.3046875 14.203125 C39.9746875 13.213125 39.6446875 12.223125 39.3046875 11.203125 C36.35527042 9.981745 36.35527042 9.981745 32.8671875 9.078125 C26.38063687 7.24109968 26.38063687 7.24109968 24.3046875 6.203125 C24.3046875 5.543125 24.3046875 4.883125 24.3046875 4.203125 C18.3646875 5.688125 18.3646875 5.688125 12.3046875 7.203125 C11.9746875 8.523125 11.6446875 9.843125 11.3046875 11.203125 C7.57657978 11.56908247 3.84712084 11.91881056 0.1171875 12.265625 C-0.93791016 12.36939453 -1.99300781 12.47316406 -3.08007812 12.58007812 C-4.10166016 12.67353516 -5.12324219 12.76699219 -6.17578125 12.86328125 C-7.58186646 12.99682007 -7.58186646 12.99682007 -9.01635742 13.13305664 C-11.74330859 13.20438034 -14.05150859 12.8425859 -16.6953125 12.203125 C-16.6953125 13.523125 -16.6953125 14.843125 -16.6953125 16.203125 C-19.0053125 16.533125 -21.3153125 16.863125 -23.6953125 17.203125 C-23.6953125 17.863125 -23.6953125 18.523125 -23.6953125 19.203125 C-22.96932861 19.1316626 -22.24334473 19.0602002 -21.49536133 18.98657227 C-11.7756674 18.12552395 -2.13273802 18.08757644 7.6171875 18.140625 C9.24413923 18.14565497 10.87109249 18.1502152 12.49804688 18.15429688 C16.43363225 18.16517255 20.36914243 18.18235274 24.3046875 18.203125 C23.9746875 18.863125 23.6446875 19.523125 23.3046875 20.203125 C22.6446875 20.203125 21.9846875 20.203125 21.3046875 20.203125 C21.3046875 21.193125 21.3046875 22.183125 21.3046875 23.203125 C22.2946875 22.873125 23.2846875 22.543125 24.3046875 22.203125 C26.4921875 23.140625 26.4921875 23.140625 28.3046875 24.203125 C27.3146875 24.533125 26.3246875 24.863125 25.3046875 25.203125 C24.9746875 25.863125 24.6446875 26.523125 24.3046875 27.203125 C20.88824915 27.95234394 17.48464371 28.51863013 14.03125 29.05859375 C12.11150573 29.38086129 10.20610893 29.78614662 8.3046875 30.203125 C7.9746875 30.863125 7.6446875 31.523125 7.3046875 32.203125 C5.6546875 32.203125 4.0046875 32.203125 2.3046875 32.203125 C3.2946875 30.718125 3.2946875 30.718125 4.3046875 29.203125 C4.3046875 27.883125 4.3046875 26.563125 4.3046875 25.203125 C3.7684375 25.71875 3.2321875 26.234375 2.6796875 26.765625 C0.3046875 28.203125 0.3046875 28.203125 -2.9453125 27.890625 C-3.8528125 27.66375 -4.7603125 27.436875 -5.6953125 27.203125 C-6.0253125 25.883125 -6.3553125 24.563125 -6.6953125 23.203125 C-6.0353125 23.203125 -5.3753125 23.203125 -4.6953125 23.203125 C-4.6953125 22.543125 -4.6953125 21.883125 -4.6953125 21.203125 C-5.6853125 21.533125 -6.6753125 21.863125 -7.6953125 22.203125 C-8.0253125 23.853125 -8.3553125 25.503125 -8.6953125 27.203125 C-9.3553125 27.203125 -10.0153125 27.203125 -10.6953125 27.203125 C-11.6853125 28.688125 -11.6853125 28.688125 -12.6953125 30.203125 C-14.74243164 30.55957031 -14.74243164 30.55957031 -17.23046875 30.53125 C-18.56754883 30.52351563 -18.56754883 30.52351563 -19.93164062 30.515625 C-20.86427734 30.495 -21.79691406 30.474375 -22.7578125 30.453125 C-23.69431641 30.44796875 -24.63082031 30.4428125 -25.59570312 30.4375 C-32.54140911 30.35702839 -32.54140911 30.35702839 -33.6953125 29.203125 C-37.33296426 28.91943716 -40.98544418 28.97114782 -44.6328125 28.953125 C-46.14584961 28.9221875 -46.14584961 28.9221875 -47.68945312 28.890625 C-55.46816434 28.85055437 -63.00431413 29.36431302 -69.3515625 34.24609375 C-69.96 34.95378906 -70.5684375 35.66148438 -71.1953125 36.390625 C-72.3344657 37.68617834 -73.49472705 38.9642856 -74.6953125 40.203125 C-75.3553125 40.203125 -76.0153125 40.203125 -76.6953125 40.203125 C-78.25803439 44.59566273 -78.25803439 44.59566273 -78.6953125 49.203125 C-80.1953125 51.390625 -80.1953125 51.390625 -81.6953125 53.203125 C-81.3653125 53.863125 -81.0353125 54.523125 -80.6953125 55.203125 C-78.0553125 55.203125 -75.4153125 55.203125 -72.6953125 55.203125 C-75.0104064 57.5182189 -76.44797064 57.85073494 -79.5703125 58.703125 C-84.33022403 59.98769697 -84.33022403 59.98769697 -88.6953125 62.203125 C-89.01628906 62.86699219 -89.33726563 63.53085938 -89.66796875 64.21484375 C-91.05324787 66.89585924 -92.30340532 67.09663355 -95.1328125 68.015625 C-103.68821961 71.16044903 -110.82463876 76.31397608 -117.6953125 82.203125 C-125.47309028 87.203125 -125.47309028 87.203125 -128.6953125 87.203125 C-128.6953125 86.543125 -128.6953125 85.883125 -128.6953125 85.203125 C-127.17980328 83.89655006 -125.60607015 82.65706799 -124.0078125 81.453125 C-119.97372345 78.30024122 -116.62640453 75.4043569 -113.6953125 71.203125 C-113.6953125 70.213125 -113.6953125 69.223125 -113.6953125 68.203125 C-110.39255669 63.20664826 -105.58298818 58.64213392 -100.6953125 55.203125 C-100.0353125 55.203125 -99.3753125 55.203125 -98.6953125 55.203125 C-98.4478125 54.605 -98.2003125 54.006875 -97.9453125 53.390625 C-96.51458725 50.88685581 -95.1261543 49.72240112 -92.6953125 48.203125 C-92.0353125 48.203125 -91.3753125 48.203125 -90.6953125 48.203125 C-90.6953125 47.543125 -90.6953125 46.883125 -90.6953125 46.203125 C-90.0353125 46.203125 -89.3753125 46.203125 -88.6953125 46.203125 C-88.6953125 45.543125 -88.6953125 44.883125 -88.6953125 44.203125 C-87.01417556 42.8694034 -85.27335772 41.61041384 -83.5078125 40.390625 C-80.39082789 38.18922974 -77.6481956 36.1560081 -74.9453125 33.453125 C-71.30051221 29.80832471 -66.87318498 27.0315846 -61.6953125 26.203125 C-61.6953125 25.543125 -61.6953125 24.883125 -61.6953125 24.203125 C-66.08967461 23.34568849 -70.22103326 23.11363942 -74.6953125 23.203125 C-75.1903125 21.223125 -75.1903125 21.223125 -75.6953125 19.203125 C-77.82658154 21.28036187 -79.95031618 23.36443664 -82.0703125 25.453125 C-82.67359375 26.03964844 -83.276875 26.62617187 -83.8984375 27.23046875 C-84.47851562 27.80410156 -85.05859375 28.37773438 -85.65625 28.96875 C-86.19040527 29.49243164 -86.72456055 30.01611328 -87.27490234 30.55566406 C-88.79843208 32.18442927 -88.79843208 32.18442927 -89.77172852 34.37695312 C-90.07651123 34.97958984 -90.38129395 35.58222656 -90.6953125 36.203125 C-91.29472656 36.35265625 -91.89414063 36.5021875 -92.51171875 36.65625 C-95.79008542 37.47730784 -97.31836699 39.54239285 -99.6328125 41.953125 C-100.46683594 42.81421875 -101.30085938 43.6753125 -102.16015625 44.5625 C-103.41505859 45.86960937 -103.41505859 45.86960937 -104.6953125 47.203125 C-107.46727097 50.04626669 -110.1569829 52.69946536 -113.3828125 55.015625 C-114.07632813 55.52867188 -114.76984375 56.04171875 -115.484375 56.5703125 C-116.95833333 57.65885417 -118.43229167 58.74739583 -119.90625 59.8359375 C-125.46607869 64.10278277 -130.59478777 68.77801475 -135.6328125 73.640625 C-136.28386963 74.24898193 -136.93492676 74.85733887 -137.60571289 75.48413086 C-141.60235162 79.42327903 -143.66753533 82.760354 -145.09204102 88.20727539 C-145.6953125 90.203125 -145.6953125 90.203125 -147.6953125 93.203125 C-149.1803125 93.698125 -149.1803125 93.698125 -150.6953125 94.203125 C-151.0253125 96.183125 -151.3553125 98.163125 -151.6953125 100.203125 C-152.3553125 100.203125 -153.0153125 100.203125 -153.6953125 100.203125 C-153.22044589 87.38172665 -144.16305964 78.91800196 -135.6953125 70.203125 C-135.23431152 69.72166016 -134.77331055 69.24019531 -134.29833984 68.74414062 C-128.70069032 62.90553927 -122.89005578 57.55688848 -116.57421875 52.5078125 C-105.64521846 43.75868065 -94.80097396 34.65993988 -85.1484375 24.50390625 C-84.54249756 23.87331299 -83.93655762 23.24271973 -83.31225586 22.59301758 C-82.14515256 21.37064623 -80.99124754 20.13547539 -79.85375977 18.88549805 C-73.19668111 11.92496847 -64.19590125 10.71827105 -55.0703125 8.7578125 C-54.08337402 8.54246857 -53.09643555 8.32712463 -52.07958984 8.10525513 C-50.00606202 7.65416117 -47.93199552 7.20553688 -45.85742188 6.75927734 C-42.70282701 6.07974371 -39.55057779 5.39003828 -36.3984375 4.69921875 C-34.37252823 4.25980582 -32.34649067 3.82098387 -30.3203125 3.3828125 C-29.38880371 3.17864716 -28.45729492 2.97448181 -27.49755859 2.76412964 C-18.28471217 0.79540632 -9.41324278 0.04265927 0 0 Z M-77.6953125 52.203125 C-77.0353125 52.533125 -76.3753125 52.863125 -75.6953125 53.203125 C-77.3453125 53.863125 -78.9953125 54.523125 -80.6953125 55.203125 C-80.6953125 54.543125 -80.6953125 53.883125 -80.6953125 53.203125 C-79.7053125 52.873125 -78.7153125 52.543125 -77.6953125 52.203125 Z " fill="#F3B798" transform="translate(170.6953125,45.796875)"/>
<path d="M0 0 C0 0.66 0 1.32 0 2 C0.73605469 2.19335938 1.47210938 2.38671875 2.23046875 2.5859375 C3.20628906 2.84632812 4.18210937 3.10671875 5.1875 3.375 C6.15042969 3.63023438 7.11335938 3.88546875 8.10546875 4.1484375 C10.82210207 4.94766296 13.39137175 5.9031362 16 7 C16 7.99 16 8.98 16 10 C18.31 10 20.62 10 23 10 C22.34 10.33 21.68 10.66 21 11 C21 12.98 21 14.96 21 17 C25.62 17 30.24 17 35 17 C35 18.32 35 19.64 35 21 C33.68 21 32.36 21 31 21 C31 21.66 31 22.32 31 23 C29.35 23.33 27.7 23.66 26 24 C26 24.66 26 25.32 26 26 C14.11117885 28.82494739 2.21485432 31.39442451 -9.8125 33.5625 C-17.60266008 34.96871981 -25.35790754 36.4269819 -33.0625 38.25 C-33.75255127 38.41314697 -34.44260254 38.57629395 -35.15356445 38.74438477 C-37.56162424 39.33148018 -39.77569143 39.88784571 -42 41 C-43.87862875 40.91255632 -45.75455181 40.75824458 -47.625 40.5625 C-48.62789062 40.46066406 -49.63078125 40.35882813 -50.6640625 40.25390625 C-51.43492187 40.17011719 -52.20578125 40.08632812 -53 40 C-53 40.99 -53 41.98 -53 43 C-51.576875 43.433125 -51.576875 43.433125 -50.125 43.875 C-47 45 -47 45 -45 47 C-44.875 49.625 -44.875 49.625 -45 52 C-50.28137429 51.48474397 -53.57221156 49.74522883 -58 47 C-58 46.01 -58 45.02 -58 44 C-60.31 44 -62.62 44 -65 44 C-65 43.01 -65 42.02 -65 41 C-65.66 41 -66.32 41 -67 41 C-67 40.01 -67 39.02 -67 38 C-60.72019113 35.29928888 -54.71539173 33.29975324 -48 32 C-48 31.34 -48 30.68 -48 30 C-47.19175781 29.97421875 -46.38351563 29.9484375 -45.55078125 29.921875 C-37.49680531 29.49771304 -37.49680531 29.49771304 -31 25 C-28.67793475 24.29508733 -26.34406932 23.62787571 -24 23 C-21.1665257 21.48537267 -21.1665257 21.48537267 -19 20 C-18.875 22.375 -18.875 22.375 -19 25 C-19.66 25.66 -20.32 26.32 -21 27 C-19.68 27.33 -18.36 27.66 -17 28 C-16.505 26.515 -16.505 26.515 -16 25 C-10.72 24.34 -5.44 23.68 0 23 C0 21.68 0 20.36 0 19 C-0.99 19 -1.98 19 -3 19 C-3 18.01 -3 17.02 -3 16 C-2.34 15.67 -1.68 15.34 -1 15 C-5.73225528 14.97518181 -10.46447221 14.95708417 -15.19677734 14.94506836 C-16.80485698 14.94005625 -18.4129321 14.93324481 -20.02099609 14.92456055 C-22.33952961 14.91235774 -24.65800259 14.90674036 -26.9765625 14.90234375 C-28.04567368 14.89460182 -28.04567368 14.89460182 -29.13638306 14.88670349 C-33.2060931 14.88625162 -37.00283075 15.2633007 -41 16 C-43.29083289 16.06522873 -45.58335794 16.0858841 -47.875 16.0625 C-49.02742188 16.05347656 -50.17984375 16.04445313 -51.3671875 16.03515625 C-52.23601562 16.02355469 -53.10484375 16.01195313 -54 16 C-54 15.67 -54 15.34 -54 15 C-52.02 15 -50.04 15 -48 15 C-48 14.34 -48 13.68 -48 13 C-44.535 12.505 -44.535 12.505 -41 12 C-41 10.68 -41 9.36 -41 8 C-31.62895894 7.11504503 -22.40228594 6.8829591 -13 7 C-12.67 5.35 -12.34 3.7 -12 2 C-10.37548581 1.66430703 -8.75037083 1.3315204 -7.125 1 C-6.22007812 0.814375 -5.31515625 0.62875 -4.3828125 0.4375 C-2 0 -2 0 0 0 Z " fill="#F2A484" transform="translate(195,50)"/>
<path d="M0 0 C0.99168182 -0.00570007 1.98336365 -0.01140015 3.00509644 -0.01727295 C5.0875341 -0.02666096 7.16998619 -0.03323203 9.25244141 -0.03710938 C12.42767002 -0.0468688 15.60226504 -0.07797258 18.77734375 -0.109375 C20.80989203 -0.11590145 22.84244488 -0.12115332 24.875 -0.125 C26.28774704 -0.1435202 26.28774704 -0.1435202 27.72903442 -0.16241455 C33.35362446 -0.14347761 37.3500127 0.46503685 42.3046875 3.203125 C43.8671875 5.578125 43.8671875 5.578125 44.3046875 8.203125 C43.4296875 11.015625 43.4296875 11.015625 42.3046875 13.203125 C43.2946875 12.873125 44.2846875 12.543125 45.3046875 12.203125 C47.81810031 12.08141695 50.29159651 12.01801842 52.8046875 12.015625 C53.81982422 11.99725586 53.81982422 11.99725586 54.85546875 11.97851562 C58.56825794 11.96753104 60.13451826 12.08967884 63.3046875 14.203125 C64.69684436 19.19851139 64.69684436 19.19851139 64.3046875 22.203125 C61.6171875 25.078125 61.6171875 25.078125 58.3046875 27.203125 C57.6034375 27.656875 56.9021875 28.110625 56.1796875 28.578125 C53.86147708 29.35086181 52.57483405 29.01389163 50.3046875 28.203125 C51.9546875 27.873125 53.6046875 27.543125 55.3046875 27.203125 C55.3046875 26.543125 55.3046875 25.883125 55.3046875 25.203125 C56.6246875 25.203125 57.9446875 25.203125 59.3046875 25.203125 C59.3046875 23.883125 59.3046875 22.563125 59.3046875 21.203125 C54.6846875 21.203125 50.0646875 21.203125 45.3046875 21.203125 C45.3046875 19.223125 45.3046875 17.243125 45.3046875 15.203125 C43.6546875 14.873125 42.0046875 14.543125 40.3046875 14.203125 C39.9746875 13.213125 39.6446875 12.223125 39.3046875 11.203125 C35.98363412 10.02915049 32.62629605 9.22083323 29.2109375 8.36328125 C28.251875 7.98042969 27.2928125 7.59757812 26.3046875 7.203125 C25.3984375 5.07421875 25.3984375 5.07421875 25.3046875 3.203125 C22.7409928 3.48630632 20.17907224 3.77934993 17.6171875 4.078125 C16.89595703 4.15675781 16.17472656 4.23539063 15.43164062 4.31640625 C11.36634217 4.79904442 8.11784524 5.67659507 4.3046875 7.203125 C1.40234375 7.43359375 1.40234375 7.43359375 -1.6328125 7.390625 C-3.22029297 7.36935547 -3.22029297 7.36935547 -4.83984375 7.34765625 C-7.6953125 7.203125 -7.6953125 7.203125 -10.8203125 6.578125 C-15.20839281 6.0057667 -19.55511081 6.62828064 -23.6953125 8.203125 C-24.71001048 9.52530721 -25.71062466 10.85844376 -26.6953125 12.203125 C-28.60546875 12.92578125 -28.60546875 12.92578125 -30.7578125 13.265625 C-34.28104271 13.91828896 -37.69072478 14.70042988 -41.1328125 15.703125 C-41.95652344 15.9403125 -42.78023438 16.1775 -43.62890625 16.421875 C-45.87590343 17.10948113 -45.87590343 17.10948113 -47.6953125 19.203125 C-50.01806427 19.60359944 -52.35270607 19.9428354 -54.6953125 20.203125 C-50.86785527 21.44318681 -47.06185658 21.33004702 -43.0859375 21.30078125 C-42.35912781 21.2993663 -41.63231812 21.29795135 -40.88348389 21.29649353 C-38.57071756 21.29091292 -36.25804938 21.27836404 -33.9453125 21.265625 C-32.37369932 21.26060749 -30.80208461 21.25604502 -29.23046875 21.25195312 C-25.38537907 21.24094985 -21.5403624 21.22369861 -17.6953125 21.203125 C-20.56881454 22.79328764 -23.01113742 23.56789842 -26.2578125 24.01953125 C-27.13107178 24.14320068 -28.00433105 24.26687012 -28.90405273 24.39428711 C-29.82516846 24.51682861 -30.74628418 24.63937012 -31.6953125 24.765625 C-33.11662476 24.96393921 -33.11662476 24.96393921 -34.56665039 25.16625977 C-39.42174841 25.82765723 -44.23847352 26.36170745 -49.1328125 26.640625 C-58.01347269 27.27860346 -66.94644354 29.18590912 -73.6953125 35.203125 C-73.6953125 34.213125 -73.6953125 33.223125 -73.6953125 32.203125 C-70.0030219 28.5108344 -66.63402631 27.36517531 -61.6953125 26.203125 C-61.6953125 25.543125 -61.6953125 24.883125 -61.6953125 24.203125 C-66.08967461 23.34568849 -70.22103326 23.11363942 -74.6953125 23.203125 C-75.1903125 21.223125 -75.1903125 21.223125 -75.6953125 19.203125 C-77.82658154 21.28036187 -79.95031618 23.36443664 -82.0703125 25.453125 C-82.67359375 26.03964844 -83.276875 26.62617187 -83.8984375 27.23046875 C-84.47851562 27.80410156 -85.05859375 28.37773438 -85.65625 28.96875 C-86.19040527 29.49243164 -86.72456055 30.01611328 -87.27490234 30.55566406 C-88.79843208 32.18442927 -88.79843208 32.18442927 -89.77172852 34.37695312 C-90.07651123 34.97958984 -90.38129395 35.58222656 -90.6953125 36.203125 C-91.29472656 36.35265625 -91.89414063 36.5021875 -92.51171875 36.65625 C-95.79008542 37.47730784 -97.31836699 39.54239285 -99.6328125 41.953125 C-100.46683594 42.81421875 -101.30085938 43.6753125 -102.16015625 44.5625 C-103.41505859 45.86960937 -103.41505859 45.86960937 -104.6953125 47.203125 C-107.46727097 50.04626669 -110.1569829 52.69946536 -113.3828125 55.015625 C-114.07632813 55.52867188 -114.76984375 56.04171875 -115.484375 56.5703125 C-116.95833333 57.65885417 -118.43229167 58.74739583 -119.90625 59.8359375 C-125.46607869 64.10278277 -130.59478777 68.77801475 -135.6328125 73.640625 C-136.28386963 74.24898193 -136.93492676 74.85733887 -137.60571289 75.48413086 C-141.60235162 79.42327903 -143.66753533 82.760354 -145.09204102 88.20727539 C-145.6953125 90.203125 -145.6953125 90.203125 -147.6953125 93.203125 C-149.1803125 93.698125 -149.1803125 93.698125 -150.6953125 94.203125 C-151.0253125 96.183125 -151.3553125 98.163125 -151.6953125 100.203125 C-152.3553125 100.203125 -153.0153125 100.203125 -153.6953125 100.203125 C-153.22044589 87.38172665 -144.16305964 78.91800196 -135.6953125 70.203125 C-135.23431152 69.72166016 -134.77331055 69.24019531 -134.29833984 68.74414062 C-128.70069032 62.90553927 -122.89005578 57.55688848 -116.57421875 52.5078125 C-105.64521846 43.75868065 -94.80097396 34.65993988 -85.1484375 24.50390625 C-84.54249756 23.87331299 -83.93655762 23.24271973 -83.31225586 22.59301758 C-82.14515256 21.37064623 -80.99124754 20.13547539 -79.85375977 18.88549805 C-73.19668111 11.92496847 -64.19590125 10.71827105 -55.0703125 8.7578125 C-54.08337402 8.54246857 -53.09643555 8.32712463 -52.07958984 8.10525513 C-50.00606202 7.65416117 -47.93199552 7.20553688 -45.85742188 6.75927734 C-42.70282701 6.07974371 -39.55057779 5.39003828 -36.3984375 4.69921875 C-34.37252823 4.25980582 -32.34649067 3.82098387 -30.3203125 3.3828125 C-29.38880371 3.17864716 -28.45729492 2.97448181 -27.49755859 2.76412964 C-18.28471217 0.79540632 -9.41324278 0.04265927 0 0 Z " fill="#FAD9C7" transform="translate(170.6953125,45.796875)"/>
<path d="M0 0 C6.625 -0.125 6.625 -0.125 10 1 C10.6875 3.0625 10.6875 3.0625 11 5 C11.66 5 12.32 5 13 5 C13 5.66 13 6.32 13 7 C15.97 7.495 15.97 7.495 19 8 C19 8.66 19 9.32 19 10 C19.9075 9.79375 20.815 9.5875 21.75 9.375 C25.11027897 8.9872755 26.24075815 9.19588033 29 11 C28.34 13.31 27.68 15.62 27 18 C25.35 18.33 23.7 18.66 22 19 C22 19.66 22 20.32 22 21 C15.4 21 8.8 21 2 21 C2.33 19.68 2.66 18.36 3 17 C2.38511719 17.01160156 1.77023438 17.02320313 1.13671875 17.03515625 C0.32847656 17.04417969 -0.47976562 17.05320313 -1.3125 17.0625 C-2.51326172 17.07990234 -2.51326172 17.07990234 -3.73828125 17.09765625 C-6 17 -6 17 -9 16 C-9 16.66 -9 17.32 -9 18 C-9.66 17.67 -10.32 17.34 -11 17 C-10.67 16.01 -10.34 15.02 -10 14 C-10.99 14 -11.98 14 -13 14 C-13.66 12.35 -14.32 10.7 -15 9 C-11.92103062 6.94735375 -10.49667049 6.66450223 -6.9375 6.1875 C-4.29991565 5.77364681 -4.29991565 5.77364681 -2 5 C-0.24431996 2.54251602 -0.24431996 2.54251602 0 0 Z " fill="#E29C73" transform="translate(117,121)"/>
<path d="M0 0 C-0.33 1.32 -0.66 2.64 -1 4 C2.58327753 5.00217064 2.58327753 5.00217064 6 4 C8.04055005 3.92934383 10.08334257 3.91578024 12.125 3.9375 C13.22070312 3.94652344 14.31640625 3.95554687 15.4453125 3.96484375 C16.70988281 3.98224609 16.70988281 3.98224609 18 4 C17.67 4.99 17.34 5.98 17 7 C12.41643625 8.71244553 7.13377798 8.24558579 2.28710938 8.25390625 C-1.93200515 8.39491448 -3.48573584 8.53701574 -6.7421875 11.46875 C-7.48726562 12.3040625 -8.23234375 13.139375 -9 14 C-11.38671875 14.890625 -11.38671875 14.890625 -13.6875 15.25 C-16.95168799 15.78363373 -16.95168799 15.78363373 -20 17 C-21.87862875 16.91255632 -23.75455181 16.75824458 -25.625 16.5625 C-26.62789062 16.46066406 -27.63078125 16.35882813 -28.6640625 16.25390625 C-29.43492187 16.17011719 -30.20578125 16.08632812 -31 16 C-31 16.99 -31 17.98 -31 19 C-29.576875 19.433125 -29.576875 19.433125 -28.125 19.875 C-25 21 -25 21 -23 23 C-22.875 25.625 -22.875 25.625 -23 28 C-28.28137429 27.48474397 -31.57221156 25.74522883 -36 23 C-36 22.01 -36 21.02 -36 20 C-38.31 20 -40.62 20 -43 20 C-43 19.01 -43 18.02 -43 17 C-43.66 17 -44.32 17 -45 17 C-45 16.01 -45 15.02 -45 14 C-38.72019113 11.29928888 -32.71539173 9.29975324 -26 8 C-26 7.34 -26 6.68 -26 6 C-25.19175781 5.97421875 -24.38351563 5.9484375 -23.55078125 5.921875 C-15.50116123 5.49664542 -15.50116123 5.49664542 -9 1 C-5.87845398 0.25082896 -3.2046409 0 0 0 Z " fill="#DB8D67" transform="translate(173,74)"/>
<path d="M0 0 C0.99168182 -0.00570007 1.98336365 -0.01140015 3.00509644 -0.01727295 C5.0875341 -0.02666096 7.16998619 -0.03323203 9.25244141 -0.03710938 C12.42767002 -0.0468688 15.60226504 -0.07797258 18.77734375 -0.109375 C20.80989203 -0.11590145 22.84244488 -0.12115332 24.875 -0.125 C26.28774704 -0.1435202 26.28774704 -0.1435202 27.72903442 -0.16241455 C33.35362446 -0.14347761 37.3500127 0.46503685 42.3046875 3.203125 C43.8671875 5.578125 43.8671875 5.578125 44.3046875 8.203125 C43.4296875 11.015625 43.4296875 11.015625 42.3046875 13.203125 C41.9746875 13.203125 41.6446875 13.203125 41.3046875 13.203125 C41.3046875 10.233125 41.3046875 7.263125 41.3046875 4.203125 C38.0046875 3.873125 34.7046875 3.543125 31.3046875 3.203125 C31.3046875 2.873125 31.3046875 2.543125 31.3046875 2.203125 C21.19773273 2.16977789 11.09352705 2.19698019 0.98852539 2.41064453 C-0.5107048 2.43899646 -2.01008842 2.46013961 -3.50952148 2.47412109 C-12.70860012 2.5641023 -20.69389317 3.38647924 -29.53930664 6.21386719 C-34.00956252 7.61507991 -38.52321732 8.41151922 -43.1328125 9.203125 C-57.96807583 10.99629169 -57.96807583 10.99629169 -70.6953125 17.203125 C-71.78779297 17.56277344 -71.78779297 17.56277344 -72.90234375 17.9296875 C-76.84636017 19.72793834 -79.38726746 22.49776838 -82.3828125 25.578125 C-83.25389648 26.444375 -83.25389648 26.444375 -84.14257812 27.328125 C-87.36405939 30.5425889 -87.36405939 30.5425889 -89.76074219 34.37255859 C-90.06915039 34.97664551 -90.37755859 35.58073242 -90.6953125 36.203125 C-91.29472656 36.35265625 -91.89414063 36.5021875 -92.51171875 36.65625 C-95.79008542 37.47730784 -97.31836699 39.54239285 -99.6328125 41.953125 C-100.46683594 42.81421875 -101.30085938 43.6753125 -102.16015625 44.5625 C-103.41505859 45.86960937 -103.41505859 45.86960937 -104.6953125 47.203125 C-107.46727097 50.04626669 -110.1569829 52.69946536 -113.3828125 55.015625 C-114.07632813 55.52867188 -114.76984375 56.04171875 -115.484375 56.5703125 C-116.95833333 57.65885417 -118.43229167 58.74739583 -119.90625 59.8359375 C-125.46607869 64.10278277 -130.59478777 68.77801475 -135.6328125 73.640625 C-136.28386963 74.24898193 -136.93492676 74.85733887 -137.60571289 75.48413086 C-141.60235162 79.42327903 -143.66753533 82.760354 -145.09204102 88.20727539 C-145.6953125 90.203125 -145.6953125 90.203125 -147.6953125 93.203125 C-149.1803125 93.698125 -149.1803125 93.698125 -150.6953125 94.203125 C-151.0253125 96.183125 -151.3553125 98.163125 -151.6953125 100.203125 C-152.3553125 100.203125 -153.0153125 100.203125 -153.6953125 100.203125 C-153.22044589 87.38172665 -144.16305964 78.91800196 -135.6953125 70.203125 C-135.23431152 69.72166016 -134.77331055 69.24019531 -134.29833984 68.74414062 C-128.70069032 62.90553927 -122.89005578 57.55688848 -116.57421875 52.5078125 C-105.64521846 43.75868065 -94.80097396 34.65993988 -85.1484375 24.50390625 C-84.54249756 23.87331299 -83.93655762 23.24271973 -83.31225586 22.59301758 C-82.14515256 21.37064623 -80.99124754 20.13547539 -79.85375977 18.88549805 C-73.19668111 11.92496847 -64.19590125 10.71827105 -55.0703125 8.7578125 C-54.08337402 8.54246857 -53.09643555 8.32712463 -52.07958984 8.10525513 C-50.00606202 7.65416117 -47.93199552 7.20553688 -45.85742188 6.75927734 C-42.70282701 6.07974371 -39.55057779 5.39003828 -36.3984375 4.69921875 C-34.37252823 4.25980582 -32.34649067 3.82098387 -30.3203125 3.3828125 C-29.38880371 3.17864716 -28.45729492 2.97448181 -27.49755859 2.76412964 C-18.28471217 0.79540632 -9.41324278 0.04265927 0 0 Z " fill="#FDF6EF" transform="translate(170.6953125,45.796875)"/>
<path d="M0 0 C0.66 0.66 1.32 1.32 2 2 C1.0409375 2.4021875 1.0409375 2.4021875 0.0625 2.8125 C-2.33131686 3.88667752 -2.33131686 3.88667752 -3 7 C-3.75667969 7.45375 -4.51335937 7.9075 -5.29296875 8.375 C-8.37037929 10.22233446 -10.09412929 12.1925704 -12.3125 15 C-13.00988281 15.86625 -13.70726562 16.7325 -14.42578125 17.625 C-16.27624183 19.94187037 -16.27624183 19.94187037 -16 23 C-15.34773438 22.77183594 -14.69546875 22.54367188 -14.0234375 22.30859375 C-8.96345677 20.6443228 -5.27844478 19.49187292 0 21 C1.33248012 21.33672783 2.66567069 21.67067617 4 22 C3.18015625 22.26554687 2.3603125 22.53109375 1.515625 22.8046875 C0.43796875 23.15789062 -0.6396875 23.51109375 -1.75 23.875 C-2.81734375 24.22304687 -3.8846875 24.57109375 -4.984375 24.9296875 C-9.87492547 26.37049298 -9.87492547 26.37049298 -12.97265625 30.01171875 C-14.35793537 32.69273424 -15.60809282 32.89350855 -18.4375 33.8125 C-26.99290711 36.95732403 -34.12932626 42.11085108 -41 48 C-48.77777778 53 -48.77777778 53 -52 53 C-52 52.34 -52 51.68 -52 51 C-50.48449078 49.69342506 -48.91075765 48.45394299 -47.3125 47.25 C-43.27841095 44.09711622 -39.93109203 41.2012319 -37 37 C-37 36.01 -37 35.02 -37 34 C-33.69724419 29.00352326 -28.88767568 24.43900892 -24 21 C-23.34 21 -22.68 21 -22 21 C-21.7525 20.401875 -21.505 19.80375 -21.25 19.1875 C-19.81927475 16.68373081 -18.4308418 15.51927612 -16 14 C-15.34 14 -14.68 14 -14 14 C-14 13.34 -14 12.68 -14 12 C-13.34 12 -12.68 12 -12 12 C-12 11.34 -12 10.68 -12 10 C-10.23505506 8.6043269 -8.41191783 7.28163478 -6.5625 6 C-2.67272925 3.54099616 -2.67272925 3.54099616 0 0 Z M-1 18 C-0.34 18.33 0.32 18.66 1 19 C-0.65 19.66 -2.3 20.32 -4 21 C-4 20.34 -4 19.68 -4 19 C-3.01 18.67 -2.02 18.34 -1 18 Z " fill="#F5CDAF" transform="translate(94,80)"/>
<path d="M0 0 C-0.33 0.99 -0.66 1.98 -1 3 C-1 2.34 -1 1.68 -1 1 C-4.96 1.99 -8.92 2.98 -13 4 C-13.33 5.32 -13.66 6.64 -14 8 C-17.72810772 8.36595747 -21.45756666 8.71568556 -25.1875 9.0625 C-26.77014648 9.2181543 -26.77014648 9.2181543 -28.38476562 9.37695312 C-29.40634766 9.47041016 -30.42792969 9.56386719 -31.48046875 9.66015625 C-32.41785889 9.74918213 -33.35524902 9.83820801 -34.32104492 9.92993164 C-37.04799609 10.00125534 -39.35619609 9.6394609 -42 9 C-42 10.32 -42 11.64 -42 13 C-44.31 13.33 -46.62 13.66 -49 14 C-49 14.66 -49 15.32 -49 16 C-54.65826196 19.77217464 -61.56975268 19.11396114 -68.1875 19.1875 C-69.22136841 19.20707764 -69.22136841 19.20707764 -70.27612305 19.22705078 C-74.30381275 19.23387655 -77.3764576 18.78010918 -81 17 C-81 16.67 -81 16.34 -81 16 C-79.783125 15.896875 -78.56625 15.79375 -77.3125 15.6875 C-73.5199252 15.2217452 -71.23165229 14.07157198 -68 12 C-64.90689705 10.98879327 -61.85907963 10.15606613 -58.65625 9.57421875 C-57.8621875 9.42597656 -57.068125 9.27773438 -56.25 9.125 C-55.14398438 8.94324219 -55.14398438 8.94324219 -54.015625 8.7578125 C-51.82756446 8.14572089 -51.82756446 8.14572089 -50.55078125 6.01171875 C-48.01743228 2.72538444 -44.91312221 2.83571209 -40.98046875 2.23828125 C-36.55003121 1.88407851 -32.38696721 2.42257013 -28 3 C-23.21982698 3.27273103 -23.21982698 3.27273103 -18.6875 2.0625 C-12.89567381 -0.22729175 -6.16536174 -0.16224636 0 0 Z " fill="#F3B58F" transform="translate(196,49)"/>
<path d="M0 0 C1.63974986 0.05386382 3.2772087 0.18121456 4.91015625 0.33984375 C5.89951172 0.43330078 6.88886719 0.52675781 7.90820312 0.62304688 C8.94912109 0.72681641 9.99003906 0.83058594 11.0625 0.9375 C12.62967773 1.08735352 12.62967773 1.08735352 14.22851562 1.24023438 C16.81951329 1.48868621 19.40992248 1.74215994 22 2 C21.67 2.66 21.34 3.32 21 4 C22.98 4 24.96 4 27 4 C27 4.66 27 5.32 27 6 C24.54261348 7.22869326 22.63433534 7.28901781 19.890625 7.5 C18.83584961 7.58193604 17.78107422 7.66387207 16.69433594 7.74829102 C15.55770508 7.83135498 14.42107422 7.91441895 13.25 8 C12.09016602 8.08757568 10.93033203 8.17515137 9.73535156 8.26538086 C1.17335804 8.89205337 -7.38826353 9.356086 -15.96777344 9.65820312 C-20.40998639 9.82506279 -24.61146014 10.25844617 -29 11 C-31.29083289 11.06522873 -33.58335794 11.0858841 -35.875 11.0625 C-37.02742187 11.05347656 -38.17984375 11.04445313 -39.3671875 11.03515625 C-40.23601562 11.02355469 -41.10484375 11.01195313 -42 11 C-42 10.67 -42 10.34 -42 10 C-40.02 10 -38.04 10 -36 10 C-36 9.34 -36 8.68 -36 8 C-32.535 7.505 -32.535 7.505 -29 7 C-29 5.68 -29 4.36 -29 3 C-17.20958566 2.06551522 -17.20958566 2.06551522 -11.83203125 1.74609375 C-11.15148682 1.70476318 -10.47094238 1.66343262 -9.76977539 1.62084961 C-7.82067693 1.50422883 -5.87127913 1.39264452 -3.921875 1.28125 C-1.11131998 1.3233543 -1.11131998 1.3233543 0 0 Z " fill="#F0A179" transform="translate(183,55)"/>
<path d="M0 0 C0.99 0 1.98 0 3 0 C3.59039062 0.74765625 4.18078125 1.4953125 4.7890625 2.265625 C7.36220802 5.44796045 9.76724695 6.84941215 13.375 8.75 C15.02628906 9.63945313 15.02628906 9.63945313 16.7109375 10.546875 C19.88182832 11.94779113 22.57168458 12.60641696 26 13 C27.21153846 23.39903846 27.21153846 23.39903846 24.359375 27.16796875 C22.25304413 28.81012671 20.50746739 30.0711389 18 31 C15.734375 30.63671875 15.734375 30.63671875 14 30 C15.65 29.67 17.3 29.34 19 29 C19.144375 28.21625 19.28875 27.4325 19.4375 26.625 C20 24 20 24 21 22 C17.7 21.67 14.4 21.34 11 21 C11 20.34 11 19.68 11 19 C9.02 18.67 7.04 18.34 5 18 C5 17.34 5 16.68 5 16 C4.34 16 3.68 16 3 16 C2.34 14.02 1.68 12.04 1 10 C0.34 10 -0.32 10 -1 10 C-1.09978121 6.50765756 -0.77842938 3.40562852 0 0 Z " fill="#F1BB98" transform="translate(125,110)"/>
<path d="M0 0 C0.66 0.33 1.32 0.66 2 1 C1.85199951 1.57322998 1.70399902 2.14645996 1.55151367 2.73706055 C-0.1072299 9.88901819 -0.09048426 16.51111843 0.3125 23.8125 C0.36083984 24.91787109 0.40917969 26.02324219 0.45898438 27.16210938 C0.68470048 31.89071892 1.02969287 36.36277736 2 41 C2.06371368 42.60303627 2.08644214 44.20837672 2.0625 45.8125 C2.05347656 46.60269531 2.04445313 47.39289063 2.03515625 48.20703125 C2.02355469 48.79871094 2.01195313 49.39039063 2 50 C0.741875 50.04125 -0.51625 50.0825 -1.8125 50.125 C-2.52019531 50.14820313 -3.22789063 50.17140625 -3.95703125 50.1953125 C-6 50 -6 50 -9 48 C-7.515 47.505 -7.515 47.505 -6 47 C-4.93940512 39.31068715 -4.90071918 31.75493514 -5 24 C-5.33 25.65 -5.66 27.3 -6 29 C-8.14557888 27.29104186 -8.9441988 26.47807094 -9.26806641 23.70336914 C-9.08805345 20.81867478 -8.87953251 17.94166848 -8.625 15.0625 C-8.57472656 14.06025391 -8.52445313 13.05800781 -8.47265625 12.02539062 C-7.87246502 4.8850204 -7.87246502 4.8850204 -5.40527344 2.38232422 C-3.5234375 1.24609375 -3.5234375 1.24609375 0 0 Z " fill="#F0CFB5" transform="translate(69,168)"/>
<path d="M0 0 C1.98 0 3.96 0 6 0 C5.67 0.66 5.34 1.32 5 2 C5.804375 2.556875 6.60875 3.11375 7.4375 3.6875 C10.28450919 6.25675219 10.71311595 7.27050738 11 11 C11 11.99 11 12.98 11 14 C11.639375 14.53625 12.27875 15.0725 12.9375 15.625 C15.55063922 18.6340694 15.93973536 20.82765408 16.25 24.73828125 C15.8197166 28.63100138 13.7766393 30.35880652 11 33 C10.67 31.68 10.34 30.36 10 29 C10.99 29 11.98 29 13 29 C12.67 28.01 12.34 27.02 12 26 C9.49552484 24.78130071 9.49552484 24.78130071 7 24 C7 23.34 7 22.68 7 22 C6.34 22 5.68 22 5 22 C4.34 21.01 3.68 20.02 3 19 C2.01 18.67 1.02 18.34 0 18 C0 17.34 0 16.68 0 16 C-1.65 15.67 -3.3 15.34 -5 15 C-5.061875 14.05125 -5.12375 13.1025 -5.1875 12.125 C-5.455625 11.09375 -5.72375 10.0625 -6 9 C-8.46255685 7.54708727 -8.46255685 7.54708727 -11 7 C-11 6.34 -11 5.68 -11 5 C-6.26337391 4.25990217 -3.76658164 6.23355632 -0.00390625 8.75390625 C2.53682215 10.33381338 5.12499024 11.20937232 8 12 C7.43968727 9.06361777 7.43968727 9.06361777 6 6 C2.9994093 4.08160141 2.9994093 4.08160141 0 3 C0 2.01 0 1.02 0 0 Z " fill="#F8D4BA" transform="translate(142,90)"/>
<path d="M0 0 C0.78552246 0.01047363 1.57104492 0.02094727 2.38037109 0.03173828 C3.23115234 0.03818359 4.08193359 0.04462891 4.95849609 0.05126953 C6.29267578 0.07640625 6.29267578 0.07640625 7.65380859 0.10205078 C8.99958984 0.11558594 8.99958984 0.11558594 10.37255859 0.12939453 C12.59157445 0.15300108 14.81005937 0.18592768 17.02880859 0.22705078 C17.02880859 0.88705078 17.02880859 1.54705078 17.02880859 2.22705078 C15.37880859 2.55705078 13.72880859 2.88705078 12.02880859 3.22705078 C12.02880859 3.88705078 12.02880859 4.54705078 12.02880859 5.22705078 C-6.45926661 9.62007168 -25.11867997 13.73146653 -43.97119141 16.22705078 C-41.16620213 11.54212189 -41.16620213 11.54212189 -38.11181641 10.73681641 C-35.88880487 10.54539041 -33.70238049 10.48083888 -31.47119141 10.47705078 C-25.13371244 10.48110456 -25.13371244 10.48110456 -18.97119141 9.22705078 C-18.49681641 8.58767578 -18.02244141 7.94830078 -17.53369141 7.28955078 C-15.54587696 4.66563571 -14.11253487 4.15517499 -10.97119141 3.22705078 C-9.75431641 3.06205078 -8.53744141 2.89705078 -7.28369141 2.72705078 C-3.84202816 2.20755444 -3.12035123 0.35941623 0 0 Z " fill="#E48C6D" transform="translate(208.97119140625,70.77294921875)"/>
<path d="M0 0 C0.66 0.33 1.32 0.66 2 1 C1.46890625 1.47308594 0.9378125 1.94617188 0.390625 2.43359375 C-5.08468334 7.55920174 -9.46420467 12.63311676 -10.234375 20.34765625 C-10.2476779 22.23334294 -10.136783 24.11923375 -10 26 C-9.01 26 -8.02 26 -7 26 C-7 25.01 -7 24.02 -7 23 C-5.68 23 -4.36 23 -3 23 C-2.67 22.01 -2.34 21.02 -2 20 C1.08255636 18.05913118 4.54750232 17.10479926 8 16 C9.11375 15.62875 10.2275 15.2575 11.375 14.875 C12.24125 14.58625 13.1075 14.2975 14 14 C13 17 13 17 10.0625 18.6875 C7 20 7 20 5 20 C4.731875 20.598125 4.46375 21.19625 4.1875 21.8125 C2.94566432 24.10009205 2.02168127 25.36932522 0 27 C-2.6640625 27.6953125 -2.6640625 27.6953125 -5.625 28.125 C-9.12188551 28.38733112 -9.12188551 28.38733112 -12 30 C-12.37347351 32.51302721 -12.69130433 35.01138596 -12.97265625 37.53515625 C-13.06002548 38.28840683 -13.14739471 39.04165741 -13.2374115 39.81773376 C-13.51651399 42.23220723 -13.7895674 44.64732206 -14.0625 47.0625 C-14.2502541 48.69600921 -14.4384 50.32947345 -14.62695312 51.96289062 C-15.08918937 55.97475189 -15.54600038 59.98719864 -16 64 C-16.33 64 -16.66 64 -17 64 C-16.56133815 52.27156737 -15.96528822 40.57307546 -15 28.875 C-14.9170166 27.85083984 -14.8340332 26.82667969 -14.74853516 25.77148438 C-14.66651855 24.81306641 -14.58450195 23.85464844 -14.5 22.8671875 C-14.4278125 22.02269043 -14.355625 21.17819336 -14.28125 20.30810547 C-14.01637284 18.13436526 -13.58279584 16.10838537 -13 14 C-12.01 14 -11.02 14 -10 14 C-10 12.02 -10 10.04 -10 8 C-9.38125 7.9175 -8.7625 7.835 -8.125 7.75 C-5.84276697 7.21351879 -5.84276697 7.21351879 -5 5.125 C-4.67 4.42375 -4.34 3.7225 -4 3 C-1.875 1.25 -1.875 1.25 0 0 Z " fill="#F3D2B8" transform="translate(29,132)"/>
<path d="M0 0 C0.99 0 1.98 0 3 0 C3 0.66 3 1.32 3 2 C2.34 2 1.68 2 1 2 C2.72226496 5.24849977 2.72226496 5.24849977 6 6 C6.495 6.99 6.495 6.99 7 8 C4.02148438 8.63476562 4.02148438 8.63476562 1.04296875 9.26953125 C-1.08653381 9.82964296 -1.08653381 9.82964296 -2.24609375 11.5546875 C-5.16392035 13.95913258 -8.64314395 13.38956957 -12.25 13.3125 C-13.35794922 13.31733398 -13.35794922 13.31733398 -14.48828125 13.32226562 C-19.31055852 13.27548868 -23.37463522 12.48285431 -28 11 C-30.3260857 10.61936779 -32.66055264 10.28730055 -35 10 C-37.21875 9.71875 -37.21875 9.71875 -39.4375 9.4375 C-40.613125 9.293125 -41.78875 9.14875 -43 9 C-43.66 10.32 -44.32 11.64 -45 13 C-45.33 12.34 -45.66 11.68 -46 11 C-47.65 11.66 -49.3 12.32 -51 13 C-51 12.34 -51 11.68 -51 11 C-52.32 10.67 -53.64 10.34 -55 10 C-50.91593774 7.95796887 -48.43411592 6.87269829 -43.80859375 6.8671875 C-42.78185547 6.86589844 -41.75511719 6.86460938 -40.69726562 6.86328125 C-39.62154297 6.86714844 -38.54582031 6.87101562 -37.4375 6.875 C-36.35791016 6.87113281 -35.27832031 6.86726563 -34.16601562 6.86328125 C-32.6278418 6.86521484 -32.6278418 6.86521484 -31.05859375 6.8671875 C-30.11298584 6.86831543 -29.16737793 6.86944336 -28.19311523 6.87060547 C-26 7 -26 7 -25 8 C-21.69561091 8.2776444 -18.37717866 8.23174988 -15.0625 8.25 C-13.66354492 8.2809375 -13.66354492 8.2809375 -12.23632812 8.3125 C-10.89924805 8.32023437 -10.89924805 8.32023437 -9.53515625 8.328125 C-8.714104 8.3374707 -7.89305176 8.34681641 -7.04711914 8.35644531 C-6.37156982 8.23881836 -5.69602051 8.12119141 -5 8 C-4.34 7.01 -3.68 6.02 -3 5 C-2.34 5.33 -1.68 5.66 -1 6 C-1.020625 5.195625 -1.04125 4.39125 -1.0625 3.5625 C-1 1 -1 1 0 0 Z " fill="#EDA785" transform="translate(163,67)"/>
<path d="M0 0 C-0.9375 1.875 -0.9375 1.875 -3 4 C-5.13022692 4.69659319 -7.24200283 5.09575216 -9.4453125 5.50390625 C-12.16263367 6.03158177 -14.7802293 6.72592549 -17.4375 7.5 C-18.26121094 7.7371875 -19.08492187 7.974375 -19.93359375 8.21875 C-22.18059093 8.90635613 -22.18059093 8.90635613 -24 11 C-26.32275177 11.40047444 -28.65739357 11.7397104 -31 12 C-29.68 12.66 -28.36 13.32 -27 14 C-29.64 14 -32.28 14 -35 14 C-35 13.34 -35 12.68 -35 12 C-39.62 12.33 -44.24 12.66 -49 13 C-48 10 -48 10 -45.91796875 8.33984375 C-42.34142938 6.69760412 -39.16969053 6.6034855 -35.3125 6.5625 C-29.44019478 6.35424341 -24.96034864 5.55992364 -19.58203125 3.05859375 C-13.8422397 0.70536605 -6.01057258 -2.00352419 0 0 Z " fill="#F8CEAF" transform="translate(147,54)"/>
<path d="M0 0 C0.66 0.33 1.32 0.66 2 1 C1.0479279 2.00596297 0.08812654 3.00461563 -0.875 4 C-1.40867187 4.556875 -1.94234375 5.11375 -2.4921875 5.6875 C-4 7 -4 7 -6 7 C-7.56272189 11.39253773 -7.56272189 11.39253773 -8 16 C-11.71369531 21.7502379 -15.45703609 23.37495014 -22 25 C-22.7578125 23.34765625 -22.7578125 23.34765625 -23 21 C-21.3046875 18.30859375 -21.3046875 18.30859375 -18.875 15.4375 C-18.08867188 14.48746094 -17.30234375 13.53742188 -16.4921875 12.55859375 C-14.10913967 10.11204778 -11.9556351 8.65672415 -9 7 C-8.154375 6.154375 -7.30875 5.30875 -6.4375 4.4375 C-4.29204533 2.29204533 -2.84105283 0.97967339 0 0 Z " fill="#F1B792" transform="translate(100,79)"/>
<path d="M0 0 C-0.78375 0.61875 -1.5675 1.2375 -2.375 1.875 C-4.96837647 3.89858661 -4.96837647 3.89858661 -7 6 C-4.03 6.495 -4.03 6.495 -1 7 C-1 7.66 -1 8.32 -1 9 C0.423125 9.433125 0.423125 9.433125 1.875 9.875 C5 11 5 11 7 13 C7.125 15.625 7.125 15.625 7 18 C1.71862571 17.48474397 -1.57221156 15.74522883 -6 13 C-6 12.01 -6 11.02 -6 10 C-8.31 10 -10.62 10 -13 10 C-13 9.01 -13 8.02 -13 7 C-13.66 7 -14.32 7 -15 7 C-15 6.01 -15 5.02 -15 4 C-13.44219668 3.32243118 -11.87849904 2.65840543 -10.3125 2 C-9.44238281 1.62875 -8.57226562 1.2575 -7.67578125 0.875 C-4.9427998 -0.01870488 -2.85299066 -0.16449676 0 0 Z " fill="#E48C61" transform="translate(143,84)"/>
<path d="M0 0 C2.04055005 0.07065617 4.08334257 0.08421976 6.125 0.0625 C7.22070312 0.05347656 8.31640625 0.04445312 9.4453125 0.03515625 C10.28835937 0.02355469 11.13140625 0.01195312 12 0 C12 0.66 12 1.32 12 2 C3.57827577 6.21086212 -9.40259992 4.11816429 -18.75 4.0625 C-20.23697764 4.05746985 -21.72395695 4.05290965 -23.2109375 4.04882812 C-26.80732706 4.03795432 -30.40365237 4.0207752 -34 4 C-34 3.34 -34 2.68 -34 2 C-30.00306202 1.31385898 -26.00313344 0.64902287 -22 0 C-21.2884375 -0.11730469 -20.576875 -0.23460937 -19.84375 -0.35546875 C-5.03934426 -2.51967213 -5.03934426 -2.51967213 0 0 Z " fill="#E5794B" transform="translate(198,59)"/>
<path d="M0 0 C0.75 2.4375 0.75 2.4375 1 5 C-1.76223278 7.76223278 -4.20706617 7.57856291 -8 8 C-8 9.32 -8 10.64 -8 12 C-8.66 12 -9.32 12 -10 12 C-10.66 11.34 -11.32 10.68 -12 10 C-14.06874034 9.3574765 -14.06874034 9.3574765 -16 9 C-16 8.34 -16 7.68 -16 7 C-16.66 7 -17.32 7 -18 7 C-17.43370306 3.71547776 -16.71347836 1.98988413 -14 0 C-8.73381087 -1.95044042 -5.07462306 -2.53731153 0 0 Z " fill="#C67B4F" transform="translate(39,162)"/>
<path d="M0 0 C14.19 0 28.38 0 43 0 C42.34 1.32 41.68 2.64 41 4 C41 3.01 41 2.02 41 1 C38.4363053 1.28318132 35.87438474 1.57622493 33.3125 1.875 C32.59126953 1.95363281 31.87003906 2.03226563 31.12695312 2.11328125 C27.06165467 2.59591942 23.81315774 3.47347007 20 5 C14.94798961 5.40116906 9.86546465 5.33578364 4.875 4.4375 C0.52558281 3.77563217 -3.65810738 4.442247 -8 5 C-5.08235 3.0549 -3.37462715 2.54723683 0 2 C0 1.34 0 0.68 0 0 Z " fill="#F9D2B9" transform="translate(155,48)"/>
<path d="M0 0 C2.25 -0.25 2.25 -0.25 5 0 C7.3125 2 7.3125 2 9 4 C8.67 4.33 8.34 4.66 8 5 C9.093125 5.721875 10.18625 6.44375 11.3125 7.1875 C14.45410872 9.41333613 16.29364433 11.48691479 18 15 C17.67 14.01 17.34 13.02 17 12 C17.5775 12.309375 18.155 12.61875 18.75 12.9375 C20.9338937 14.0672869 20.9338937 14.0672869 23.1875 14.5 C23.785625 14.665 24.38375 14.83 25 15 C26.56430248 18.12860495 26.35627284 20.55602925 26 24 C23.5 26.4375 23.5 26.4375 21 28 C21 26.68 21 25.36 21 24 C21.99 24 22.98 24 24 24 C23.67 23.01 23.34 22.02 23 21 C20.49552484 19.78130071 20.49552484 19.78130071 18 19 C18 18.34 18 17.68 18 17 C17.34 17 16.68 17 16 17 C15.34 16.01 14.68 15.02 14 14 C13.01 13.67 12.02 13.34 11 13 C11 12.34 11 11.68 11 11 C9.35 10.67 7.7 10.34 6 10 C5.938125 9.05125 5.87625 8.1025 5.8125 7.125 C5.544375 6.09375 5.27625 5.0625 5 4 C2.53744315 2.54708727 2.53744315 2.54708727 0 2 C0 1.34 0 0.68 0 0 Z " fill="#F4C5A8" transform="translate(131,95)"/>
<path d="M0 0 C0.33 0 0.66 0 1 0 C1 10.89 1 21.78 1 33 C2.98 33 4.96 33 7 33 C7 33.33 7 33.66 7 34 C5.56274129 34.16873478 4.12518162 34.33490737 2.6875 34.5 C1.88699219 34.5928125 1.08648437 34.685625 0.26171875 34.78125 C-2 35 -2 35 -5 35 C-5.24129191 27.76124259 -4.31411158 21.107713 -3 14 C-2.66327796 12.00056774 -2.32900668 10.0007163 -2 8 C-1.34 8 -0.68 8 0 8 C0 5.36 0 2.72 0 0 Z " fill="#E2B494" transform="translate(15,182)"/>
<path d="M0 0 C4.29 0 8.58 0 13 0 C12.67 1.32 12.34 2.64 12 4 C10.68 4 9.36 4 8 4 C6.3550067 4.44037282 4.72135796 4.9241542 3.09765625 5.4375 C-4.53260251 7.5962184 -12.1797119 7.78465363 -20.06054688 8.171875 C-28.99724938 8.69905427 -36.7798352 10.43792859 -45 14 C-44 11 -44 11 -42.27172852 9.90771484 C-33.09926336 6.24267181 -23.31460021 5.28747721 -13.5625 4.375 C-11.10527637 4.13477221 -8.64823602 3.89266045 -6.19140625 3.6484375 C-5.12092041 3.54708496 -4.05043457 3.44573242 -2.94750977 3.34130859 C-0.25309574 3.02930737 2.35096309 2.57602397 5 2 C2.525 1.505 2.525 1.505 0 1 C0 0.67 0 0.34 0 0 Z " fill="#F8C7A5" transform="translate(144,66)"/>
<path d="M0 0 C0.66 0.66 1.32 1.32 2 2 C1.0409375 2.4021875 1.0409375 2.4021875 0.0625 2.8125 C-2.33131686 3.88667752 -2.33131686 3.88667752 -3 7 C-4.051875 7.5878125 -4.051875 7.5878125 -5.125 8.1875 C-8.56727416 10.35762936 -10.68453549 12.97280016 -13.29296875 16.05859375 C-15.32673596 18.37159673 -17.46008289 20.25834255 -20 22 C-20.66 22 -21.32 22 -22 22 C-22.25007813 22.58652344 -22.50015625 23.17304687 -22.7578125 23.77734375 C-24.16439632 26.29415569 -25.67693706 27.70866201 -27.875 29.5625 C-28.55304688 30.14128906 -29.23109375 30.72007813 -29.9296875 31.31640625 C-31.91651825 32.93211201 -33.93937141 34.4799399 -36 36 C-36.66 35.67 -37.32 35.34 -38 35 C-33.76420584 29.92734681 -29.46139587 24.80424409 -24 21 C-23.34 21 -22.68 21 -22 21 C-21.7525 20.401875 -21.505 19.80375 -21.25 19.1875 C-19.81927475 16.68373081 -18.4308418 15.51927612 -16 14 C-15.34 14 -14.68 14 -14 14 C-14 13.34 -14 12.68 -14 12 C-13.34 12 -12.68 12 -12 12 C-12 11.34 -12 10.68 -12 10 C-10.23505506 8.6043269 -8.41191783 7.28163478 -6.5625 6 C-2.67272925 3.54099616 -2.67272925 3.54099616 0 0 Z " fill="#FCDFC6" transform="translate(94,80)"/>
<path d="M0 0 C0.66 0.33 1.32 0.66 2 1 C1.85199951 1.57322998 1.70399902 2.14645996 1.55151367 2.73706055 C-0.1072299 9.88901819 -0.09048426 16.51111843 0.3125 23.8125 C0.36083984 24.91787109 0.40917969 26.02324219 0.45898438 27.16210938 C0.68470048 31.89071892 1.02969287 36.36277736 2 41 C2.06371368 42.60303627 2.08644214 44.20837672 2.0625 45.8125 C2.05347656 46.60269531 2.04445313 47.39289063 2.03515625 48.20703125 C2.02355469 48.79871094 2.01195313 49.39039063 2 50 C-0.64 50 -3.28 50 -6 50 C-6 49.67 -6 49.34 -6 49 C-3.69 49 -1.38 49 1 49 C0.79503906 48.20078125 0.59007813 47.4015625 0.37890625 46.578125 C-1.47504164 39.02040442 -2.69781159 31.77448352 -3 24 C-3.02723145 23.3179248 -3.05446289 22.63584961 -3.08251953 21.93310547 C-3.16121755 19.68451988 -3.21036708 17.43709382 -3.25 15.1875 C-3.27151123 14.48206055 -3.29302246 13.77662109 -3.31518555 13.04980469 C-3.34740481 7.89715365 -2.24515146 4.51984439 0 0 Z " fill="#F7EADF" transform="translate(69,168)"/>
<path d="M0 0 C2.0625 0.4375 2.0625 0.4375 4 1 C1.03806991 2.97462006 -0.50755473 3.46458668 -3.91796875 4.11328125 C-4.91417236 4.30712402 -5.91037598 4.5009668 -6.93676758 4.70068359 C-8.00950928 4.90258301 -9.08225098 5.10448242 -10.1875 5.3125 C-12.44555634 5.74743385 -14.70336264 6.18366756 -16.9609375 6.62109375 C-18.70068848 6.95729736 -18.70068848 6.95729736 -20.47558594 7.30029297 C-23.94289889 7.98866363 -27.39749416 8.7208416 -30.8515625 9.47265625 C-31.93671143 9.70750732 -33.02186035 9.9423584 -34.13989258 10.18432617 C-36.22189528 10.63757632 -38.30252963 11.09716797 -40.3815918 11.5637207 C-41.32429932 11.76698975 -42.26700684 11.97025879 -43.23828125 12.1796875 C-44.4763855 12.45401611 -44.4763855 12.45401611 -45.73950195 12.73388672 C-48.1229191 13.01447044 -49.73260187 12.73422988 -52 12 C-50.52734375 10.0390625 -50.52734375 10.0390625 -48 8 C-45.08139544 7.60003234 -42.48098179 7.39493839 -39.5625 7.375 C-34.4938199 7.28798403 -30.71526913 7.00418359 -26 5 C-22.71647803 4.6423887 -19.45494221 4.4978945 -16.15625 4.34375 C-13.05245397 4.00571281 -10.84473976 3.2266747 -8 2 C-5.66905466 1.6503582 -3.33595238 1.31445513 -1 1 C-0.67 0.67 -0.34 0.34 0 0 Z " fill="#E6C5B8" transform="translate(217,74)"/>
<path d="M0 0 C3.63 0.66 7.26 1.32 11 2 C12.25700163 5.77100489 13.02666536 9.12634063 12 13 C9.70273614 15.64103494 7.21360796 17.5984447 4 19 C1.734375 18.65234375 1.734375 18.65234375 0 18 C1.65 17.67 3.3 17.34 5 17 C5.144375 16.2575 5.28875 15.515 5.4375 14.75 C5.90187492 12.47972261 6.41863569 10.24240521 7 8 C6.34 8 5.68 8 5 8 C4.87625 7.071875 4.87625 7.071875 4.75 6.125 C4.18741541 3.81562433 4.18741541 3.81562433 1.9375 2.75 C1.298125 2.5025 0.65875 2.255 0 2 C0 1.34 0 0.68 0 0 Z " fill="#F6D9C5" transform="translate(139,122)"/>
<path d="M0 0 C2.22941405 0.31073024 4.45852212 0.62365625 6.6875 0.9375 C7.92886719 1.11152344 9.17023438 1.28554687 10.44921875 1.46484375 C13.32474548 1.89822897 16.15644813 2.39649282 19 3 C19 3.66 19 4.32 19 5 C18.01 5 17.02 5 16 5 C16 5.66 16 6.32 16 7 C13.35541621 8.32229189 11.32238699 8.09677194 8.375 8.0625 C7.37210938 8.05347656 6.36921875 8.04445312 5.3359375 8.03515625 C4.56507812 8.02355469 3.79421875 8.01195312 3 8 C3 7.34 3 6.68 3 6 C1.35 5.67 -0.3 5.34 -2 5 C-1.34 3.35 -0.68 1.7 0 0 Z " fill="#C07E57" transform="translate(67,156)"/>
<path d="M0 0 C1.051875 0.309375 2.10375 0.61875 3.1875 0.9375 C7.66667001 2.18579328 11.34460318 3 16 3 C15.67 3.99 15.34 4.98 15 6 C16.32 6.33 17.64 6.66 19 7 C19 7.33 19 7.66 19 8 C13.27959989 8.8320582 7.77759884 9.12036664 2 9 C2.33 7.68 2.66 6.36 3 5 C1.35 4.67 -0.3 4.34 -2 4 C-1.34 2.68 -0.68 1.36 0 0 Z " fill="#C9835F" transform="translate(117,133)"/>
<path d="M0 0 C0.680625 0.33 1.36125 0.66 2.0625 1 C5.50840238 2.17307315 8.38397422 2.14180493 12 2 C12.33 2.99 12.66 3.98 13 5 C13.763125 4.896875 14.52625 4.79375 15.3125 4.6875 C16.199375 4.790625 17.08625 4.89375 18 5 C19.81883009 7.3832946 21 8.95818337 21 12 C13.59505241 11.67089122 6.77734524 8.24464271 1.171875 3.4296875 C0 2 0 2 0 0 Z " fill="#E19871" transform="translate(129,111)"/>
<path d="M0 0 C0.99 0.33 1.98 0.66 3 1 C1.35 2.32 -0.3 3.64 -2 5 C-2 3.68 -2 2.36 -2 1 C-1.34 0.67 -0.68 0.34 0 0 Z M-3 5 C-1.86734695 8.39795915 -2.39360741 9.98492433 -3.33984375 13.34375 C-3.86275018 15.44775219 -4.26739129 17.58109631 -4.62890625 19.71875 C-4.74202148 20.38100586 -4.85513672 21.04326172 -4.97167969 21.72558594 C-5.3015392 23.68489471 -5.61396446 25.64711394 -5.92578125 27.609375 C-7.17542595 31.55370807 -8.5772988 32.78892386 -12 35 C-10.71962503 24.5436044 -7.28410037 14.58822463 -3 5 Z " fill="#D6976D" transform="translate(33,169)"/>
<path d="M0 0 C3.37923539 0.42240442 5.96262075 1.42405629 8.9375 3 C12.27933587 4.75018349 15.20998786 5.62099879 19 6 C19 6.33 19 6.66 19 7 C16.03 7 13.06 7 10 7 C10 6.34 10 5.68 10 5 C9.01 5 8.02 5 7 5 C8.2375 6.423125 8.2375 6.423125 9.5 7.875 C12 10.75 12 10.75 12 13 C12.66 13 13.32 13 14 13 C14 13.66 14 14.32 14 15 C8.65430798 14.21129134 8.65430798 14.21129134 6 13 C4.1875 9.5625 4.1875 9.5625 3 6 C2.01834406 4.98198643 1.02408568 3.9753197 0 3 C0 2.01 0 1.02 0 0 Z " fill="#F0C1A3" transform="translate(132,117)"/>
<path d="M0 0 C0.763125 0.20625 1.52625 0.4125 2.3125 0.625 C2.3125 1.285 2.3125 1.945 2.3125 2.625 C2.9725 2.955 3.6325 3.285 4.3125 3.625 C3.9825 4.945 3.6525 6.265 3.3125 7.625 C1.0025 7.955 -1.3075 8.285 -3.6875 8.625 C-3.6875 9.285 -3.6875 9.945 -3.6875 10.625 C-6.3275 10.955 -8.9675 11.285 -11.6875 11.625 C-10.6875 9.625 -10.6875 9.625 -7.6875 8.625 C-7.00965008 6.29489091 -6.34333207 3.96140176 -5.6875 1.625 C-2.6875 -0.375 -2.6875 -0.375 0 0 Z " fill="#F3AA83" transform="translate(150.6875,54.375)"/>
<path d="M0 0 C0 0.66 0 1.32 0 2 C3.63 2.99 7.26 3.98 11 5 C11 5.33 11 5.66 11 6 C3.08 6 -4.84 6 -13 6 C-12.67 4.68 -12.34 3.36 -12 2 C-10.37548581 1.66430703 -8.75037083 1.3315204 -7.125 1 C-6.22007812 0.814375 -5.31515625 0.62875 -4.3828125 0.4375 C-2 0 -2 0 0 0 Z " fill="#F3AC90" transform="translate(195,50)"/>
<path d="M0 0 C-0.9375 1.875 -0.9375 1.875 -3 4 C-5.13022692 4.69659319 -7.24200283 5.09575216 -9.4453125 5.50390625 C-12.16263367 6.03158177 -14.7802293 6.72592549 -17.4375 7.5 C-18.26121094 7.7371875 -19.08492187 7.974375 -19.93359375 8.21875 C-22.18059093 8.90635613 -22.18059093 8.90635613 -24 11 C-27.38308224 11.61510586 -30.56114107 12 -34 12 C-34.33 11.34 -34.66 10.68 -35 10 C-33.329375 9.814375 -33.329375 9.814375 -31.625 9.625 C-27.96896323 9.3534187 -27.96896323 9.3534187 -26 7 C-23.25481338 6.12258276 -20.52872648 5.31672576 -17.75 4.5625 C-13.48963341 3.40423567 -9.58523775 2.30010447 -5.640625 0.27734375 C-3 -1 -3 -1 0 0 Z " fill="#F7C3A0" transform="translate(147,54)"/>
<path d="M0 0 C-1.98 0.99 -1.98 0.99 -4 2 C-4 2.66 -4 3.32 -4 4 C-2.88625 4.28875 -1.7725 4.5775 -0.625 4.875 C3 6 3 6 5 8 C4.01 8.33 3.02 8.66 2 9 C1.34 8.67 0.68 8.34 0 8 C-6.52450923 7.39535798 -12.66700634 8.51921651 -19 10 C-19 9.34 -19 8.68 -19 8 C-17.7625 7.67 -16.525 7.34 -15.25 7 C-14.20585938 6.7215625 -14.20585938 6.7215625 -13.140625 6.4375 C-11 6 -11 6 -7 6 C-7 5.01 -7 4.02 -7 3 C-9.97 2.505 -9.97 2.505 -13 2 C-11.30977377 -0.04606333 -10.16195808 -0.94459329 -7.625 -1.8125 C-4.550148 -2.03213229 -2.74643017 -1.33398037 0 0 Z " fill="#EEB48D" transform="translate(117,92)"/>
<path d="M0 0 C1.2065625 0.0309375 1.2065625 0.0309375 2.4375 0.0625 C0.65014448 3.36910772 -0.93652306 4.84940147 -4.5 6.0625 C-7.51098137 6.8010426 -10.51885202 7.47386997 -13.5625 8.0625 C-14.2225 11.6925 -14.8825 15.3225 -15.5625 19.0625 C-16.2225 19.0625 -16.8825 19.0625 -17.5625 19.0625 C-17.61672947 17.6254191 -17.65539723 16.18774538 -17.6875 14.75 C-17.71070312 13.94949219 -17.73390625 13.14898437 -17.7578125 12.32421875 C-17.5625 10.0625 -17.5625 10.0625 -15.5625 7.0625 C-14.9025 7.0625 -14.2425 7.0625 -13.5625 7.0625 C-13.2325 6.0725 -12.9025 5.0825 -12.5625 4.0625 C-10.53125 3.1484375 -10.53125 3.1484375 -8.0625 2.4375 C-5.1388574 1.57706088 -2.90137533 0.07076525 0 0 Z " fill="#D99668" transform="translate(36.5625,154.9375)"/>
<path d="M0 0 C0 0.66 0 1.32 0 2 C-0.79664062 2.10957031 -1.59328125 2.21914062 -2.4140625 2.33203125 C-8.19052491 3.19639241 -12.85365246 4.12761998 -18 7 C-25.25 9.5 -25.25 9.5 -29 8 C-26.4345406 5.4345406 -24.52313332 5.45953913 -21 5 C-21 4.34 -21 3.68 -21 3 C-13.82140651 0.95938459 -7.47394574 -0.37369729 0 0 Z " fill="#E49C71" transform="translate(117,99)"/>
<path d="M0 0 C-4.61798525 2.57004962 -9.32763934 2.97515996 -14.5 3.6875 C-15.92505859 3.90116211 -15.92505859 3.90116211 -17.37890625 4.11914062 C-18.29542969 4.24869141 -19.21195313 4.37824219 -20.15625 4.51171875 C-21.40631836 4.68900513 -21.40631836 4.68900513 -22.68164062 4.86987305 C-25.03104036 5.00174226 -26.7661294 4.69824523 -29 4 C-28.01 3.67 -27.02 3.34 -26 3 C-27.65 2.67 -29.3 2.34 -31 2 C-31 1.67 -31 1.34 -31 1 C-20.63496744 0.08012389 -10.39669641 -0.1132812 0 0 Z " fill="#FCD4B7" transform="translate(153,67)"/>
<path d="M0 0 C0.99 0 1.98 0 3 0 C2.67 1.32 2.34 2.64 2 4 C5.58327753 5.00217064 5.58327753 5.00217064 9 4 C11.04055005 3.92934383 13.08334257 3.91578024 15.125 3.9375 C16.22070312 3.94652344 17.31640625 3.95554687 18.4453125 3.96484375 C19.28835937 3.97644531 20.13140625 3.98804687 21 4 C20.67 4.99 20.34 5.98 20 7 C16.93737964 8.2014361 13.8227868 8.16489052 10.5625 8.1875 C9.63566406 8.20167969 8.70882812 8.21585938 7.75390625 8.23046875 C4.82166627 7.98507562 2.66138611 7.22201577 0 6 C0.185625 5.38125 0.37125 4.7625 0.5625 4.125 C1.23686176 1.95839822 1.23686176 1.95839822 0 0 Z " fill="#E09370" transform="translate(170,74)"/>
<path d="M0 0 C0.66 0.33 1.32 0.66 2 1 C-1.38121547 4.88213628 -1.38121547 4.88213628 -4.625 5.5 C-5.40875 5.665 -6.1925 5.83 -7 6 C-7.268125 6.66 -7.53625 7.32 -7.8125 8 C-8.204375 8.66 -8.59625 9.32 -9 10 C-11.05365192 10.50571728 -13.01586586 10.68852078 -15.125 10.82421875 C-17.09031685 10.89441897 -17.09031685 10.89441897 -19 12 C-19 11.01 -19 10.02 -19 9 C-17.68 9 -16.36 9 -15 9 C-14.67 8.01 -14.34 7.02 -14 6 C-10.9142918 4.05714669 -7.44144902 3.14714967 -4 2 C-3.2575 1.608125 -2.515 1.21625 -1.75 0.8125 C-1.1725 0.544375 -0.595 0.27625 0 0 Z " fill="#EFBB99" transform="translate(41,146)"/>
<path d="M0 0 C0.66 0.33 1.32 0.66 2 1 C1.46890625 1.47308594 0.9378125 1.94617188 0.390625 2.43359375 C-4.72974391 7.2269318 -7.58337527 11.46227127 -10 18 C-10.57630028 19.35717469 -11.15900692 20.71165866 -11.75 22.0625 C-12.36875 23.5165625 -12.36875 23.5165625 -13 25 C-13.33 25 -13.66 25 -14 25 C-14.14285714 17.57142857 -14.14285714 17.57142857 -13 14 C-12.01 14 -11.02 14 -10 14 C-10 12.02 -10 10.04 -10 8 C-9.38125 7.9175 -8.7625 7.835 -8.125 7.75 C-5.84276697 7.21351879 -5.84276697 7.21351879 -5 5.125 C-4.67 4.42375 -4.34 3.7225 -4 3 C-1.875 1.25 -1.875 1.25 0 0 Z " fill="#F7E0CF" transform="translate(29,132)"/>
<path d="M0 0 C0.1875 2.375 0.1875 2.375 0 5 C-0.99 5.66 -1.98 6.32 -3 7 C-3 6.01 -3 5.02 -3 4 C-3.66 3.67 -4.32 3.34 -5 3 C-1.125 0 -1.125 0 0 0 Z M20 5 C16.5933534 8.13043202 13.99121098 8.42813877 9.4375 8.625 C4.63473615 8.84848538 4.63473615 8.84848538 0 10 C-2.6875 9.5625 -2.6875 9.5625 -5 9 C-4.34 8.34 -3.68 7.68 -3 7 C-0.375 7.375 -0.375 7.375 2 8 C2 7.34 2 6.68 2 6 C8.02596573 4.9287172 13.88909517 4.90054585 20 5 Z " fill="#E79F7D" transform="translate(176,70)"/>
<path d="M0 0 C-0.33 1.32 -0.66 2.64 -1 4 C-1.928125 4.12375 -1.928125 4.12375 -2.875 4.25 C-5.18437567 4.81258459 -5.18437567 4.81258459 -6.25 7.0625 C-6.4975 7.701875 -6.745 8.34125 -7 9 C-8.65 8.67 -10.3 8.34 -12 8 C-11.8125 5.125 -11.8125 5.125 -11 2 C-7.43483742 -0.24095934 -4.12944888 -0.19206739 0 0 Z " fill="#B6693F" transform="translate(35,163)"/>
<path d="M0 0 C2.125 0.375 2.125 0.375 4 1 C1.02501745 3.60310973 -1.95244729 4.68512222 -5.64453125 5.98046875 C-9.53381586 7.66389044 -12.96276206 10.03954908 -16.484375 12.37890625 C-18.61441413 13.75152463 -20.70993858 14.92452723 -23 16 C-18.90505133 10.61537784 -13.52744508 4.40706703 -6.86328125 2.3359375 C-5.2486382 2.15314772 -3.62354798 2.06764783 -2 2 C-1.34 1.34 -0.68 0.68 0 0 Z " fill="#F5C4A0" transform="translate(78,109)"/>
<path d="M0 0 C1.61817627 0.14139404 1.61817627 0.14139404 3.26904297 0.28564453 C4.43564453 0.38232422 5.60224609 0.47900391 6.80419922 0.57861328 C8.63917969 0.74683594 8.63917969 0.74683594 10.51123047 0.91845703 C11.74228516 1.02287109 12.97333984 1.12728516 14.24169922 1.23486328 C17.29083042 1.49486672 20.33875608 1.76480553 23.38623047 2.04345703 C23.38623047 2.37345703 23.38623047 2.70345703 23.38623047 3.04345703 C22.43369385 3.08104126 22.43369385 3.08104126 21.46191406 3.11938477 C18.56151505 3.23602492 15.66138698 3.35844096 12.76123047 3.48095703 C11.76220703 3.52027344 10.76318359 3.55958984 9.73388672 3.60009766 C4.85778207 3.8099962 0.19968589 4.21355092 -4.61376953 5.04345703 C-6.90460243 5.10868576 -9.19712747 5.12934113 -11.48876953 5.10595703 C-12.64119141 5.09693359 -13.79361328 5.08791016 -14.98095703 5.07861328 C-15.84978516 5.06701172 -16.71861328 5.05541016 -17.61376953 5.04345703 C-17.61376953 4.71345703 -17.61376953 4.38345703 -17.61376953 4.04345703 C-16.69853516 3.92228516 -15.78330078 3.80111328 -14.84033203 3.67626953 C-13.65181641 3.50869141 -12.46330078 3.34111328 -11.23876953 3.16845703 C-10.05541016 3.00603516 -8.87205078 2.84361328 -7.65283203 2.67626953 C-4.17246339 1.95156552 -3.46854499 0.05766869 0 0 Z " fill="#EE9567" transform="translate(158.61376953125,60.95654296875)"/>
<path d="M0 0 C1.60495567 0.11442461 3.20898119 0.24194694 4.8125 0.375 C5.70582031 0.44460937 6.59914062 0.51421875 7.51953125 0.5859375 C10 1 10 1 13 3 C13 3.99 13 4.98 13 6 C12.01 6 11.02 6 10 6 C10 7.32 10 8.64 10 10 C9.34 10 8.68 10 8 10 C5 5.61538462 5 5.61538462 5 3 C3.35 3 1.7 3 0 3 C0 2.01 0 1.02 0 0 Z " fill="#EAA684" transform="translate(142,113)"/>
<path d="M0 0 C-1.24546405 3.73639216 -2.63404953 4.18756513 -6 6 C-5.30132812 5.97679688 -4.60265625 5.95359375 -3.8828125 5.9296875 C-2.97273438 5.91164063 -2.06265625 5.89359375 -1.125 5.875 C0.23238281 5.84019531 0.23238281 5.84019531 1.6171875 5.8046875 C4 6 4 6 6 8 C1.05 8.33 -3.9 8.66 -9 9 C-9 9.66 -9 10.32 -9 11 C-10.32 10.67 -11.64 10.34 -13 10 C-11.33333333 8.33333333 -9.66666667 6.66666667 -8 5 C-7.13375 4.071875 -6.2675 3.14375 -5.375 2.1875 C-3 0 -3 0 0 0 Z " fill="#EE9E74" transform="translate(105,79)"/>
<path d="M0 0 C1.32 0.33 2.64 0.66 4 1 C4 1.66 4 2.32 4 3 C6.29629994 4.14814997 8.07698086 4.30769809 10.625 4.5625 C11.44226563 4.64628906 12.25953125 4.73007813 13.1015625 4.81640625 C13.72804687 4.87699219 14.35453125 4.93757813 15 5 C15 6.98 15 8.96 15 11 C9.58461538 14.07692308 9.58461538 14.07692308 6.625 13.6875 C6.08875 13.460625 5.5525 13.23375 5 13 C6.65 12.67 8.3 12.34 10 12 C10 11.34 10 10.68 10 10 C11.32 10 12.64 10 14 10 C14 8.68 14 7.36 14 6 C9.38 6 4.76 6 0 6 C0 4.02 0 2.04 0 0 Z " fill="#F3C1B2" transform="translate(216,61)"/>
<path d="M0 0 C2.64 0 5.28 0 8 0 C8 0.99 8 1.98 8 3 C11.3 3.33 14.6 3.66 18 4 C18 4.33 18 4.66 18 5 C15.39590255 5.16781295 12.7917318 5.33429651 10.1875 5.5 C9.08051758 5.57154297 9.08051758 5.57154297 7.95117188 5.64453125 C4.96175412 5.83390613 1.99625426 6 -1 6 C-1 3 -1 3 0 0 Z " fill="#E8C0A7" transform="translate(112,138)"/>
<path d="M0 0 C-3.465 1.485 -3.465 1.485 -7 3 C-6.67 3.66 -6.34 4.32 -6 5 C-7.59766103 5.86627399 -9.20339944 6.71766465 -10.8125 7.5625 C-11.70582031 8.03816406 -12.59914063 8.51382813 -13.51953125 9.00390625 C-16 10 -16 10 -19 9 C-6.83163265 -2.62755102 -6.83163265 -2.62755102 0 0 Z " fill="#E8A273" transform="translate(96,104)"/>
<path d="M0 0 C0.86625 0.4640625 0.86625 0.4640625 1.75 0.9375 C3.9338937 2.0672869 3.9338937 2.0672869 6.1875 2.5 C6.785625 2.665 7.38375 2.83 8 3 C9.56430248 6.12860495 9.35627284 8.55602925 9 12 C6.5 14.4375 6.5 14.4375 4 16 C4 14.68 4 13.36 4 12 C4.99 12 5.98 12 7 12 C6.23663401 8.94021154 6.23663401 8.94021154 4.0625 7.125 C1.85208757 4.84760538 0.99430634 2.98291902 0 0 Z " fill="#F7D6C7" transform="translate(148,107)"/>
<path d="M0 0 C7.26 0.66 14.52 1.32 22 2 C21.67 2.66 21.34 3.32 21 4 C15.55072464 5.27536232 15.55072464 5.27536232 13 4 C11.47851674 3.91627341 9.95344222 3.89269973 8.4296875 3.90234375 C7.08583984 3.90717773 7.08583984 3.90717773 5.71484375 3.91210938 C4.77769531 3.92048828 3.84054688 3.92886719 2.875 3.9375 C1.45767578 3.94426758 1.45767578 3.94426758 0.01171875 3.95117188 C-2.32558387 3.96297643 -4.66276061 3.97944241 -7 4 C-7 3.67 -7 3.34 -7 3 C-5.02 3 -3.04 3 -1 3 C-0.67 2.01 -0.34 1.02 0 0 Z " fill="#F19472" transform="translate(183,55)"/>
<path d="M0 0 C0.66 0 1.32 0 2 0 C2.02917228 3.22914752 2.04685663 6.45826083 2.0625 9.6875 C2.07087891 10.59951172 2.07925781 11.51152344 2.08789062 12.45117188 C2.09111328 13.33740234 2.09433594 14.22363281 2.09765625 15.13671875 C2.10289307 15.94842529 2.10812988 16.76013184 2.11352539 17.59643555 C1.9929791 20.14864673 1.559949 22.51026137 1 25 C-0.5090332 23.8190918 -0.5090332 23.8190918 -2 22 C-2.15698242 19.63989258 -2.15698242 19.63989258 -1.85546875 16.89453125 C-1.70561523 15.42016602 -1.70561523 15.42016602 -1.55273438 13.91601562 C-1.43220703 12.89185547 -1.31167969 11.86769531 -1.1875 10.8125 C-1.07857422 9.77673828 -0.96964844 8.74097656 -0.85742188 7.67382812 C-0.58609893 5.11395515 -0.29976097 2.55667302 0 0 Z " fill="#EFC2A0" transform="translate(62,172)"/>
<path d="M0 0 C1.32 0.33 2.64 0.66 4 1 C3.34 1 2.68 1 2 1 C2 2.98 2 4.96 2 7 C5.63 7 9.26 7 13 7 C13 7.33 13 7.66 13 8 C6.85221129 9.6277833 1.35987804 10.20190089 -5 10 C-4.34 8.68 -3.68 7.36 -3 6 C-2.01 6.33 -1.02 6.66 0 7 C0 4.69 0 2.38 0 0 Z " fill="#F2AE99" transform="translate(214,60)"/>
<path d="M0 0 C3.60351091 0.27719315 6.28950409 0.55126574 9.375 2.5 C11.73975697 6.13808764 11.8177212 9.73467611 12 14 C11.67 14 11.34 14 11 14 C10.67 11.69 10.34 9.38 10 7 C9.278125 6.938125 8.55625 6.87625 7.8125 6.8125 C4.13605406 5.75041562 2.48715058 3.84245781 0 1 C0 0.67 0 0.34 0 0 Z " fill="#FAE8DA" transform="translate(146,103)"/>
<path d="M0 0 C0.94875 0.04125 1.8975 0.0825 2.875 0.125 C2.875 1.115 2.875 2.105 2.875 3.125 C2.17632812 3.25777344 1.47765625 3.39054687 0.7578125 3.52734375 C-0.15226562 3.70394531 -1.06234375 3.88054687 -2 4.0625 C-3.35738281 4.32353516 -3.35738281 4.32353516 -4.7421875 4.58984375 C-7.12456317 5.02463701 -7.12456317 5.02463701 -9.125 6.125 C-10.66523996 6.19450541 -12.20834988 6.20952357 -13.75 6.1875 C-14.97589844 6.17396484 -14.97589844 6.17396484 -16.2265625 6.16015625 C-17.16628906 6.14275391 -17.16628906 6.14275391 -18.125 6.125 C-17.795 5.465 -17.465 4.805 -17.125 4.125 C-14.47265625 3.5625 -14.47265625 3.5625 -11.1875 3.125 C-6.75454175 2.53323442 -4.06789841 0.16271594 0 0 Z " fill="#D6866B" transform="translate(213.125,72.875)"/>
<path d="M0 0 C2.13093906 1.06546953 3.36587557 2.29159719 5 4 C3.41037341 8.03520597 1.71767682 12.01811282 0 16 C-0.33 16 -0.66 16 -1 16 C-0.67 10.72 -0.34 5.44 0 0 Z " fill="#DC9D70" transform="translate(16,184)"/>
<path d="M0 0 C4.95 0.99 4.95 0.99 10 2 C10 2.99 10 3.98 10 5 C6.6875 6.125 6.6875 6.125 3 7 C2.01 6.34 1.02 5.68 0 5 C0 3.35 0 1.7 0 0 Z " fill="#C88F69" transform="translate(102,139)"/>
<path d="M0 0 C1.16660156 0.04833984 2.33320313 0.09667969 3.53515625 0.14648438 C5.37013672 0.2305957 5.37013672 0.2305957 7.2421875 0.31640625 C8.47324219 0.36861328 9.70429688 0.42082031 10.97265625 0.47460938 C14.02107338 0.60458065 17.069187 0.73955644 20.1171875 0.87890625 C14.93288662 4.33510683 7.99081625 3.39615943 1.9921875 2.31640625 C-2.35722969 1.65453842 -6.54091988 2.32115325 -10.8828125 2.87890625 C-6.68535305 0.08059995 -5.00941439 -0.21885791 0 0 Z " fill="#F6C4A6" transform="translate(157.8828125,50.12109375)"/>
<path d="M0 0 C0.99 0.66 1.98 1.32 3 2 C-5.47562648 5.72927565 -14.74353814 7.22661771 -24 7 C-20.6140954 4.74273027 -17.604219 4.19275302 -13.6875 3.5 C-9.87283963 2.80159452 -6.34659603 2.12827754 -2.70703125 0.78125 C-1.81371094 0.5234375 -0.92039063 0.265625 0 0 Z " fill="#FCE8DB" transform="translate(152,48)"/>
<path d="M0 0 C-1 3 -1 3 -3.3125 4.1875 C-8.5503146 5.34159474 -13.65884952 5.15556749 -19 5 C-19 4.34 -19 3.68 -19 3 C-17.865625 2.855625 -16.73125 2.71125 -15.5625 2.5625 C-12.19222799 2.38828522 -12.19222799 2.38828522 -11 1 C-7.27655361 0.45949972 -3.75944015 0 0 0 Z " fill="#DD946B" transform="translate(116,111)"/>
<path d="M0 0 C1.32 0 2.64 0 4 0 C4 0.66 4 1.32 4 2 C7.63 2 11.26 2 15 2 C11.28186004 4.78860497 10.04846999 5.4522354 5.75 6.1875 C4.41195312 6.42533203 4.41195312 6.42533203 3.046875 6.66796875 C2.37140625 6.77753906 1.6959375 6.88710937 1 7 C1.66 5.02 2.32 3.04 3 1 C2.01 0.67 1.02 0.34 0 0 Z " fill="#DEAF93" transform="translate(66,162)"/>
<path d="M0 0 C5.23607896 -0.65450987 8.09046826 0.90309701 12.36328125 3.61328125 C14 5 14 5 15 8 C11.30626473 7.41712333 8.50118255 6.40083644 5.25 4.5625 C4.47140625 4.13066406 3.6928125 3.69882813 2.890625 3.25390625 C1 2 1 2 0 0 Z " fill="#D27F56" transform="translate(133,115)"/>
<path d="M0 0 C9.6402439 -0.56707317 9.6402439 -0.56707317 14 3 C14.99 4.485 14.99 4.485 16 6 C15.34 6.66 14.68 7.32 14 8 C12.68 7.34 11.36 6.68 10 6 C10 5.01 10 4.02 10 3 C9.4225 3.185625 8.845 3.37125 8.25 3.5625 C5.76855951 4.04500232 4.39011444 3.71703433 2 3 C1.34 3 0.68 3 0 3 C0 2.01 0 1.02 0 0 Z " fill="#D58B68" transform="translate(122,133)"/>
<path d="M0 0 C6.75 0.75 6.75 0.75 9 3 C9 3.99 9 4.98 9 6 C2.25 5.125 2.25 5.125 0 4 C0 2.68 0 1.36 0 0 Z " fill="#EB6144" transform="translate(140,95)"/>
<path d="M0 0 C-1.98 0.99 -1.98 0.99 -4 2 C-3.67 3.32 -3.34 4.64 -3 6 C-4.32 6 -5.64 6 -7 6 C-7 5.01 -7 4.02 -7 3 C-9.97 2.505 -9.97 2.505 -13 2 C-11.30977377 -0.04606333 -10.16195808 -0.94459329 -7.625 -1.8125 C-4.550148 -2.03213229 -2.74643017 -1.33398037 0 0 Z " fill="#F4BF9C" transform="translate(117,92)"/>
<path d="M0 0 C2.4377963 -0.05397335 4.87439685 -0.09365616 7.3125 -0.125 C8.00279297 -0.14175781 8.69308594 -0.15851562 9.40429688 -0.17578125 C13.17135396 -0.21217794 14.78431704 -0.14378864 18 2 C18.70052461 4.663063 18.77744818 7.24035737 19 10 C18.01 10.66 17.02 11.32 16 12 C15.93941406 11.36191406 15.87882813 10.72382812 15.81640625 10.06640625 C15.73261719 9.24011719 15.64882812 8.41382812 15.5625 7.5625 C15.48128906 6.73878906 15.40007812 5.91507813 15.31640625 5.06640625 C15.21069185 3.01337975 15.21069185 3.01337975 14 2 C11.65012738 1.76472227 9.29443961 1.58613583 6.9375 1.4375 C5.64714844 1.35371094 4.35679687 1.26992188 3.02734375 1.18359375 C1.52880859 1.09271484 1.52880859 1.09271484 0 1 C0 0.67 0 0.34 0 0 Z " fill="#FEF2EB" transform="translate(216,58)"/>
<path d="M0 0 C-0.33 0.66 -0.66 1.32 -1 2 C-3.36872661 2.65117579 -5.65458485 3.17515074 -8.0625 3.625 C-8.7419165 3.75688721 -9.42133301 3.88877441 -10.12133789 4.0246582 C-14.84936891 4.89883819 -19.2131865 5.29307021 -24 5 C-20.39561201 2.89056173 -16.61440413 2.1513179 -12.5625 1.375 C-11.90701172 1.2409375 -11.25152344 1.106875 -10.57617188 0.96875 C-7.00225146 0.26615381 -3.64175979 -0.15437132 0 0 Z " fill="#F9E6D6" transform="translate(128,55)"/>
<path d="M0 0 C0 3 0 3 -0.96875 5.3359375 C-2.3993931 9.0317655 -2.44110909 12.55024096 -2.65625 16.4765625 C-3 19 -3 19 -5 22 C-4.94815917 18.89446608 -4.8531005 15.79172169 -4.75 12.6875 C-4.73582031 11.80642578 -4.72164062 10.92535156 -4.70703125 10.01757812 C-4.45812087 3.47123501 -4.45812087 3.47123501 -1.953125 0.89453125 C-1.30859375 0.59933594 -0.6640625 0.30414063 0 0 Z " fill="#F0CCB1" transform="translate(68,169)"/>
<path d="M0 0 C0.77085937 -0.01417969 1.54171875 -0.02835938 2.3359375 -0.04296875 C4.84334888 0.20948393 6.45761902 0.93556533 8.625 2.1875 C8.625 2.5175 8.625 2.8475 8.625 3.1875 C3.675 3.1875 -1.275 3.1875 -6.375 3.1875 C-6.375 2.5275 -6.375 1.8675 -6.375 1.1875 C-4.04904054 0.02452027 -2.58776769 0.02149309 0 0 Z " fill="#A7533E" transform="translate(127.375,137.8125)"/>
<path d="M0 0 C0.66 0.33 1.32 0.66 2 1 C1.24163557 2.65161581 0.46787924 4.29617138 -0.3125 5.9375 C-0.74175781 6.85402344 -1.17101562 7.77054688 -1.61328125 8.71484375 C-3 11 -3 11 -6 12 C-6.33 13.98 -6.66 15.96 -7 18 C-7.66 18 -8.32 18 -9 18 C-8.67 15.36 -8.34 12.72 -8 10 C-7.01 9.67 -6.02 9.34 -5 9 C-3.802159 7.1724381 -3.802159 7.1724381 -2.875 5 C-1.05960265 1.05960265 -1.05960265 1.05960265 0 0 Z " fill="#F9EDE2" transform="translate(26,128)"/>
<path d="M0 0 C0.5775 0.165 1.155 0.33 1.75 0.5 C4.26664369 1.14462031 4.26664369 1.14462031 8 1 C8 1.99 8 2.98 8 4 C6.35 4.33 4.7 4.66 3 5 C3 5.66 3 6.32 3 7 C-0.63 7 -4.26 7 -8 7 C-8 6.67 -8 6.34 -8 6 C-5.03 6 -2.06 6 1 6 C0.67 4.02 0.34 2.04 0 0 Z " fill="#DBA88F" transform="translate(136,135)"/>
<path d="M0 0 C1.98 0 3.96 0 6 0 C5.67 0.66 5.34 1.32 5 2 C5.804375 2.556875 6.60875 3.11375 7.4375 3.6875 C10 6 10 6 10.9375 8.625 C10.958125 9.40875 10.97875 10.1925 11 11 C10.34 11.66 9.68 12.32 9 13 C9 11.02 9 9.04 9 7 C8.2575 6.71125 7.515 6.4225 6.75 6.125 C4.43260203 5.17697356 2.22082885 4.15154089 0 3 C0 2.01 0 1.02 0 0 Z " fill="#FCDFCB" transform="translate(142,90)"/>
<path d="M0 0 C3.37923539 0.42240442 5.96262075 1.42405629 8.9375 3 C12.27933587 4.75018349 15.20998786 5.62099879 19 6 C19 6.33 19 6.66 19 7 C16.03 7 13.06 7 10 7 C10 6.34 10 5.68 10 5 C9.01 5 8.02 5 7 5 C6.67 5.66 6.34 6.32 6 7 C5.38125 6.21625 4.7625 5.4325 4.125 4.625 C2.10141339 2.03162353 2.10141339 2.03162353 0 0 Z " fill="#F7CAAC" transform="translate(132,117)"/>
<path d="M0 0 C3.1875 -0.3125 3.1875 -0.3125 7 0 C9.9375 2.5 9.9375 2.5 12 5 C11.34 7.31 10.68 9.62 10 12 C9.67 12 9.34 12 9 12 C9 9.03 9 6.06 9 3 C5.7 2.67 2.4 2.34 -1 2 C-0.67 1.34 -0.34 0.68 0 0 Z " fill="#FCEBE0" transform="translate(203,47)"/>
<path d="M0 0 C8.12622089 0.78136739 8.12622089 0.78136739 11 4 C11.25 6.6875 11.25 6.6875 11 9 C9.68 8.67 8.36 8.34 7 8 C7.99 8 8.98 8 10 8 C9.49743888 5.98567734 9.49743888 5.98567734 8 4 C4.45411499 2.70079254 4.45411499 2.70079254 1 2 C1 2.99 1 3.98 1 5 C0.01 4.67 -0.98 4.34 -2 4 C-1.34 2.68 -0.68 1.36 0 0 Z " fill="#E77D5F" transform="translate(139,93)"/>
<path d="M0 0 C0 0.99 0 1.98 0 3 C-8.03571429 5.27678571 -8.03571429 5.27678571 -12 4 C-8.41084094 -0.78554541 -5.58334594 -0.37222306 0 0 Z " fill="#D9AF99" transform="translate(177,82)"/>
<path d="M0 0 C6.0546875 -0.1953125 6.0546875 -0.1953125 8 0 C10.8086289 2.8086289 10.72711179 5.11134294 11 9 C10.01 10.485 10.01 10.485 9 12 C9 10.35 9 8.7 9 7 C8.01 6.67 7.02 6.34 6 6 C6.66 5.67 7.32 5.34 8 5 C7.67 4.01 7.34 3.02 7 2 C4.36 2 1.72 2 -1 2 C-0.67 1.34 -0.34 0.68 0 0 Z " fill="#F7D9CF" transform="translate(222,59)"/>
<path d="M0 0 C-0.33 0.99 -0.66 1.98 -1 3 C-4.03173281 4.19493974 -7.02459427 4.10493955 -10.25 4.0625 C-11.14203125 4.05347656 -12.0340625 4.04445313 -12.953125 4.03515625 C-13.62859375 4.02355469 -14.3040625 4.01195313 -15 4 C-12.02775596 2.01850397 -10.37032887 1.51201979 -6.9375 0.875 C-6.05964844 0.70742187 -5.18179688 0.53984375 -4.27734375 0.3671875 C-2 0 -2 0 0 0 Z " fill="#D08D70" transform="translate(191,78)"/>
<path d="M0 0 C-5.66748157 2.83374078 -10.69732561 3.63223832 -17 4 C-14.23719462 2.15812975 -12.19292174 1.27751723 -9.0625 0.3125 C-7.78052734 -0.09548828 -7.78052734 -0.09548828 -6.47265625 -0.51171875 C-3.89489426 -1.02075548 -2.45550663 -0.84888744 0 0 Z " fill="#F9D1B6" transform="translate(139,56)"/>
<path d="M0 0 C3.96 0 7.92 0 12 0 C11.34 1.32 10.68 2.64 10 4 C9.67 3.34 9.34 2.68 9 2 C7.35 2.66 5.7 3.32 4 4 C4 3.34 4 2.68 4 2 C2.68 1.67 1.36 1.34 0 1 C0 0.67 0 0.34 0 0 Z " fill="#F39A78" transform="translate(108,76)"/>
<path d="M0 0 C0.33 0 0.66 0 1 0 C1 1.98 1 3.96 1 6 C0.01 6 -0.98 6 -2 6 C-2 9.96 -2 13.92 -2 18 C-2.33 18 -2.66 18 -3 18 C-3.08150744 15.93816367 -3.1394194 13.87538651 -3.1875 11.8125 C-3.22230469 10.66394531 -3.25710938 9.51539063 -3.29296875 8.33203125 C-2.97545546 4.72084678 -2.15237035 2.87886312 0 0 Z " fill="#ECC7AC" transform="translate(18,152)"/>
<path d="M0 0 C0.66 0 1.32 0 2 0 C2.3125 2.8125 2.3125 2.8125 2 6 C-0.25 7.9375 -0.25 7.9375 -3 9 C-5.3125 8.6875 -5.3125 8.6875 -7 8 C-5.35 7.67 -3.7 7.34 -2 7 C-1.855625 6.21625 -1.71125 5.4325 -1.5625 4.625 C-1 2 -1 2 0 0 Z " fill="#EAC6AF" transform="translate(146,132)"/>
<path d="M0 0 C0.66 0.66 1.32 1.32 2 2 C-0.76223278 4.76223278 -3.20706617 4.57856291 -7 5 C-7 6.32 -7 7.64 -7 9 C-7.66 9 -8.32 9 -9 9 C-8.67 7.02 -8.34 5.04 -8 3 C-6.02 3 -4.04 3 -2 3 C-2 2.34 -2 1.68 -2 1 C-1.34 0.67 -0.68 0.34 0 0 Z " fill="#CB8861" transform="translate(38,165)"/>
<path d="M0 0 C-1.72526042 0.71614583 -3.45052083 1.43229167 -5.17578125 2.1484375 C-7.26533932 3.06806692 -7.26533932 3.06806692 -10 5 C-12.1875 4.625 -12.1875 4.625 -14 4 C-5.71518987 -1.83702532 -5.71518987 -1.83702532 0 0 Z " fill="#EFB58D" transform="translate(96,104)"/>
<path d="M0 0 C0.66 0.33 1.32 0.66 2 1 C0.35 1.66 -1.3 2.32 -3 3 C-3 2.34 -3 1.68 -3 1 C-2.01 0.67 -1.02 0.34 0 0 Z M-4 3 C-1.03 3 1.94 3 5 3 C2.6870518 5.3129482 1.52095125 5.49580975 -1.625 6.125 C-2.44226563 6.29257813 -3.25953125 6.46015625 -4.1015625 6.6328125 C-5.04128906 6.81457031 -5.04128906 6.81457031 -6 7 C-5.34 5.68 -4.68 4.36 -4 3 Z " fill="#F6C6A5" transform="translate(93,98)"/>
<path d="M0 0 C0.66 0.33 1.32 0.66 2 1 C1.814375 1.598125 1.62875 2.19625 1.4375 2.8125 C0.77906313 5.16408762 0.77906313 5.16408762 2 8 C0.68 8 -0.64 8 -2 8 C-2 7.01 -2 6.02 -2 5 C-2.66 5 -3.32 5 -4 5 C-4 4.01 -4 3.02 -4 2 C-2.125 0.9375 -2.125 0.9375 0 0 Z " fill="#E1996D" transform="translate(132,86)"/>
<path d="M0 0 C-3.23585033 3.23585033 -7.62097487 3.98945574 -12 5 C-5.60587432 -1.7397541 -5.60587432 -1.7397541 0 0 Z " fill="#E4A37A" transform="translate(41,153)"/>
<path d="M0 0 C2.0625 0.4375 2.0625 0.4375 4 1 C-1.02416822 4.34944548 -5.09951257 4.09834146 -11 4 C-7.54941314 1.69960876 -5.05904498 1.5261725 -1 1 C-0.67 0.67 -0.34 0.34 0 0 Z " fill="#E5B2A3" transform="translate(217,74)"/>
<path d="M0 0 C0.33 0.66 0.66 1.32 1 2 C0.34 2 -0.32 2 -1 2 C-1.33 3.32 -1.66 4.64 -2 6 C-3.98 6.33 -5.96 6.66 -8 7 C-7.67 6.01 -7.34 5.02 -7 4 C-4.9375 3.3125 -4.9375 3.3125 -3 3 C-3 2.34 -3 1.68 -3 1 C-2.01 0.67 -1.02 0.34 0 0 Z " fill="#CA9B7D" transform="translate(95,152)"/>
<path d="M0 0 C0.928125 0.0825 1.85625 0.165 2.8125 0.25 C2.8125 1.24 2.8125 2.23 2.8125 3.25 C-1.6425 3.745 -1.6425 3.745 -6.1875 4.25 C-4.36434338 1.00883268 -3.82500054 0.30000004 0 0 Z " fill="#DB7E5E" transform="translate(213.1875,72.75)"/>
<path d="M0 0 C1.1171875 1.734375 1.1171875 1.734375 2 4 C1.3203125 6.140625 1.3203125 6.140625 0.125 8.25 C-0.26429687 8.95640625 -0.65359375 9.6628125 -1.0546875 10.390625 C-1.36664062 10.92171875 -1.67859375 11.4528125 -2 12 C-3.12377697 8.69564916 -2.89554742 6.9493138 -1.5625 3.75 C-1.27503906 3.04359375 -0.98757812 2.3371875 -0.69140625 1.609375 C-0.46324219 1.07828125 -0.23507813 0.5471875 0 0 Z " fill="#D59162" transform="translate(19,186)"/>
<path d="M0 0 C3.12786541 0.90543472 4.63918447 1.3814591 6.3125 4.25 C7.06644253 7.26577013 7.14404138 9.90311028 7 13 C6.67 13 6.34 13 6 13 C5.7525 11.96875 5.505 10.9375 5.25 9.875 C4.15920937 5.99399857 2.37066116 3.23990359 0 0 Z " fill="#FDF9F3" transform="translate(151,104)"/>
<path d="M0 0 C0.99 0.66 1.98 1.32 3 2 C1.73160474 2.50615298 0.46016898 3.00469099 -0.8125 3.5 C-1.87404297 3.91765625 -1.87404297 3.91765625 -2.95703125 4.34375 C-5 5 -5 5 -8 5 C-8 4.34 -8 3.68 -8 3 C-6.73637508 2.44172391 -5.4637081 1.90387903 -4.1875 1.375 C-3.47980469 1.07335938 -2.77210938 0.77171875 -2.04296875 0.4609375 C-1.36878906 0.30882812 -0.69460937 0.15671875 0 0 Z " fill="#FBDFCD" transform="translate(152,48)"/>
<path d="M0 0 C0 3 0 3 -1.125 4.5625 C-3.57245046 6.43887869 -6.05734424 7.14989945 -9 8 C-9 7.01 -9 6.02 -9 5 C-7.68 5 -6.36 5 -5 5 C-4.67 4.01 -4.34 3.02 -4 2 C-1.9375 0.8125 -1.9375 0.8125 0 0 Z " fill="#F6CFB5" transform="translate(31,150)"/>
<path d="M0 0 C2.67927341 4.01891012 2.15601248 6.24161923 2 11 C1.01 11.495 1.01 11.495 0 12 C-0.19477739 10.37585622 -0.38059458 8.75063577 -0.5625 7.125 C-0.66691406 6.22007812 -0.77132812 5.31515625 -0.87890625 4.3828125 C-1 2 -1 2 0 0 Z " fill="#FBEFE7" transform="translate(149,124)"/>
<path d="M0 0 C2.0625 0.4375 2.0625 0.4375 4 1 C0.35883227 4.33773709 -3.28607242 4.97864902 -8 6 C-8 5.34 -8 4.68 -8 4 C-6.865625 3.525625 -5.73125 3.05125 -4.5625 2.5625 C-1.24259834 1.36377917 -1.24259834 1.36377917 0 0 Z " fill="#F2BA90" transform="translate(78,109)"/>
<path d="M0 0 C0.33 0.66 0.66 1.32 1 2 C2.65 1.34 4.3 0.68 6 0 C6 0.99 6 1.98 6 3 C6.66 3.33 7.32 3.66 8 4 C5.03 4 2.06 4 -1 4 C-0.67 2.68 -0.34 1.36 0 0 Z " fill="#EEA481" transform="translate(183,52)"/>
<path d="M0 0 C3.63 1.32 7.26 2.64 11 4 C6.87585243 5.03103689 6.0158858 4.94701684 2.25 3.5625 C1.45078125 3.27503906 0.6515625 2.98757812 -0.171875 2.69140625 C-0.77515625 2.46324219 -1.3784375 2.23507813 -2 2 C-1.34 1.34 -0.68 0.68 0 0 Z " fill="#F9C2B4" transform="translate(199,51)"/>
<path d="M0 0 C0.99 0 1.98 0 3 0 C3 1.32 3 2.64 3 4 C0.36 3.67 -2.28 3.34 -5 3 C-4.360625 2.690625 -3.72125 2.38125 -3.0625 2.0625 C-1.06389179 1.1654837 -1.06389179 1.1654837 0 0 Z " fill="#F09478" transform="translate(227,67)"/>
<path d="M0 0 C1.32 0 2.64 0 4 0 C4.25 2.8125 4.25 2.8125 4 6 C2 7.875 2 7.875 0 9 C0 7.68 0 6.36 0 5 C0.99 5 1.98 5 3 5 C2.2236068 1.9254644 2.2236068 1.9254644 0 0 Z " fill="#F1C6AF" transform="translate(152,114)"/>
<path d="M0 0 C0 0.99 0 1.98 0 3 C-4.455 4.485 -4.455 4.485 -9 6 C-6.6875 3.5 -6.6875 3.5 -4 1 C-3.01 1 -2.02 1 -1 1 C-0.67 0.67 -0.34 0.34 0 0 Z " fill="#F1C1A2" transform="translate(87,98)"/>
<path d="M0 0 C0.99 0.33 1.98 0.66 3 1 C1.35 2.32 -0.3 3.64 -2 5 C-2 3.68 -2 2.36 -2 1 C-1.34 0.67 -0.68 0.34 0 0 Z M-3 5 C-2.67 5.66 -2.34 6.32 -2 7 C-2.66 7.66 -3.32 8.32 -4 9 C-3.67 7.68 -3.34 6.36 -3 5 Z " fill="#D1926C" transform="translate(33,169)"/>
<path d="M0 0 C0.99 0.33 1.98 0.66 3 1 C1.58480285 3.0343459 0.45017877 3.90410393 -1.98046875 4.421875 C-3.98176954 4.66273952 -5.9909944 4.83532741 -8 5 C-5 3 -5 3 -1 3 C-0.67 2.01 -0.34 1.02 0 0 Z " fill="#D78E60" transform="translate(35,156)"/>
<path d="M0 0 C0.99 0.33 1.98 0.66 3 1 C3.6875 3.0625 3.6875 3.0625 4 5 C4.66 5 5.32 5 6 5 C6 5.66 6 6.32 6 7 C4.125 6.6875 4.125 6.6875 2 6 C0 3 0 3 0 0 Z " fill="#F6C8AC" transform="translate(140,125)"/>
<path d="M0 0 C0 2.62113708 -0.31292445 4.50935112 -1 7 C-2.65 7 -4.3 7 -6 7 C-5.34 6.67 -4.68 6.34 -4 6 C-3.3162955 4.67532254 -2.65035814 3.34136367 -2 2 C-1.34 1.34 -0.68 0.68 0 0 Z " fill="#F4AC8C" transform="translate(183,50)"/>
<path d="M0 0 C-0.33 0.99 -0.66 1.98 -1 3 C-3.9375 4.25 -3.9375 4.25 -7 5 C-7.66 4.67 -8.32 4.34 -9 4 C-3.375 0 -3.375 0 0 0 Z " fill="#E49F75" transform="translate(116,111)"/>
<path d="M0 0 C-3.96 1.98 -3.96 1.98 -8 4 C-8 3.01 -8 2.02 -8 1 C-4.59449725 -1.06762667 -4.18836538 -1.04709135 0 0 Z " fill="#F9C7AB" transform="translate(108,76)"/>
<path d="M0 0 C0.99 0 1.98 0 3 0 C2.34 2.31 1.68 4.62 1 7 C0.34 6.67 -0.32 6.34 -1 6 C-1.042721 4.33388095 -1.04063832 2.66617115 -1 1 C-0.67 0.67 -0.34 0.34 0 0 Z " fill="#FCC2A0" transform="translate(160,64)"/>
<path d="" fill="#FFFFFF" transform="translate(0,0)"/>
<path d="" fill="#FFFFFF" transform="translate(0,0)"/>
<path d="" fill="#FFFFFF" transform="translate(0,0)"/>
<path d="" fill="#FFFFFF" transform="translate(0,0)"/>
<path d="" fill="#FFFFFF" transform="translate(0,0)"/>
<path d="" fill="#FFFFFF" transform="translate(0,0)"/>
<path d="" fill="#FFFFFF" transform="translate(0,0)"/>
<path d="" fill="#FFFFFF" transform="translate(0,0)"/>
<path d="" fill="#FFFFFF" transform="translate(0,0)"/>
<path d="" fill="#FFFFFF" transform="translate(0,0)"/>
<path d="" fill="#FFFFFF" transform="translate(0,0)"/>
<path d="" fill="#FFFFFF" transform="translate(0,0)"/>
<path d="" fill="#FFFFFF" transform="translate(0,0)"/>
<path d="" fill="#FFFFFF" transform="translate(0,0)"/>
<path d="" fill="#FFFFFF" transform="translate(0,0)"/>
<path d="" fill="#FFFFFF" transform="translate(0,0)"/>
<path d="" fill="#FFFFFF" transform="translate(0,0)"/>
<path d="" fill="#FFFFFF" transform="translate(0,0)"/>
<path d="" fill="#FFFFFF" transform="translate(0,0)"/>
<path d="" fill="#FFFFFF" transform="translate(0,0)"/>
<path d="" fill="#FFFFFF" transform="translate(0,0)"/>
<path d="" fill="#FFFFFF" transform="translate(0,0)"/>
<path d="" fill="#FFFFFF" transform="translate(0,0)"/>
<path d="" fill="#FFFFFF" transform="translate(0,0)"/>
<path d="" fill="#FFFFFF" transform="translate(0,0)"/>
<path d="" fill="#FFFFFF" transform="translate(0,0)"/>
<path d="" fill="#FFFFFF" transform="translate(0,0)"/>
<path d="" fill="#FFFFFF" transform="translate(0,0)"/>
<path d="" fill="#FFFFFF" transform="translate(0,0)"/>
<path d="" fill="#FFFFFF" transform="translate(0,0)"/>
<path d="" fill="#FFFFFF" transform="translate(0,0)"/>
<path d="" fill="#FFFFFF" transform="translate(0,0)"/>
<path d="" fill="#FFFFFF" transform="translate(0,0)"/>
<path d="" fill="#FFFFFF" transform="translate(0,0)"/>
<path d="" fill="#FFFFFF" transform="translate(0,0)"/>
<path d="" fill="#FFFFFF" transform="translate(0,0)"/>
<path d="" fill="#FFFFFF" transform="translate(0,0)"/>
<path d="" fill="#FFFFFF" transform="translate(0,0)"/>
<path d="" fill="#FFFFFF" transform="translate(0,0)"/>
<path d="" fill="#FFFFFF" transform="translate(0,0)"/>
<path d="" fill="#FFFFFF" transform="translate(0,0)"/>
<path d="" fill="#FFFFFF" transform="translate(0,0)"/>
<path d="" fill="#FFFFFF" transform="translate(0,0)"/>
<path d="" fill="#FFFFFF" transform="translate(0,0)"/>
<path d="" fill="#FFFFFF" transform="translate(0,0)"/>
<path d="" fill="#FFFFFF" transform="translate(0,0)"/>
<path d="" fill="#FFFFFF" transform="translate(0,0)"/>
<path d="" fill="#FFFFFF" transform="translate(0,0)"/>
<path d="" fill="#FFFFFF" transform="translate(0,0)"/>
<path d="" fill="#FFFFFF" transform="translate(0,0)"/>
<path d="" fill="#FFFFFF" transform="translate(0,0)"/>
<path d="" fill="#FFFFFF" transform="translate(0,0)"/>
<path d="" fill="#FFFFFF" transform="translate(0,0)"/>
<path d="" fill="#FFFFFF" transform="translate(0,0)"/>
<path d="" fill="#FFFFFF" transform="translate(0,0)"/>
<path d="" fill="#FFFFFF" transform="translate(0,0)"/>
<path d="" fill="#FFFFFF" transform="translate(0,0)"/>
<path d="" fill="#FFFFFF" transform="translate(0,0)"/>
<path d="" fill="#FFFFFF" transform="translate(0,0)"/>
<path d="" fill="#FFFFFF" transform="translate(0,0)"/>
</svg>
