<?xml version="1.0" encoding="UTF-8"?>
<svg version="1.1" xmlns="http://www.w3.org/2000/svg" width="250" height="250">
<path d="M0 0 C10.93846051 7.41384546 16.24503526 22.21946915 21.15380859 33.99169922 C21.86276822 35.67430219 22.60871119 37.3412576 23.36328125 39.00390625 C26.75682886 46.59793623 29.07635411 54.49750693 31.41430664 62.46557617 C34.19694092 71.91391014 37.25476918 81.03310328 41.875 89.75 C45.77685796 97.31122758 48.98434025 105.04962429 52 113 C57.02817916 111.839181 60.0102341 110.63006561 63.5625 106.875 C64.32820313 106.070625 65.09390625 105.26625 65.8828125 104.4375 C67.72538927 102.316157 69.34200168 100.18261339 70.9375 97.875 C77.69085713 88.58682115 88.12028638 84.58604492 99.046875 82.38671875 C104.95956064 81.61243849 110.16042869 82.12862412 115.5625 84.6875 C118.46957994 87.44549891 118.82089375 89.05966251 119 93 C115.57166631 95.46136778 112.34771533 97.3354887 108.4375 98.9375 C104.37889261 100.68946552 101.96413594 102.65584663 99 106 C97.5883234 107.40087984 96.17130104 108.79638588 94.75 110.1875 C92.0104308 112.82951295 92.0104308 112.82951295 90 116 C89.34 116 88.68 116 88 116 C87.60361328 116.85851562 87.60361328 116.85851562 87.19921875 117.734375 C85.93448073 120.12378234 84.45298708 122.10272629 82.8125 124.25 C74.21129752 136.52981594 70.27507806 150.99940652 65.85546875 165.15234375 C60.8432714 181.12760685 60.8432714 181.12760685 57.42578125 186.453125 C51.74880526 196.59391499 54.14111749 222.48424021 54 227 C30.9 227 7.8 227 -16 227 C-19.25454545 219.40606061 -19.25454545 219.40606061 -20.3125 215.75 C-22.55613492 208.89187883 -26.32382461 202.82320521 -29.9921875 196.64453125 C-36.64642258 185.38666796 -40.96483643 174.0229841 -44.0078125 161.3125 C-44.82612232 158.02847029 -44.82612232 158.02847029 -46.54296875 155.58984375 C-48.56280939 151.99961763 -48.80344093 148.61802285 -49.1875 144.5625 C-49.26935547 143.82451172 -49.35121094 143.08652344 -49.43554688 142.32617188 C-50.73973575 129.99665523 -50.73973575 129.99665523 -46.62109375 123.89453125 C-43.1650083 119.85549162 -38.89352518 117.51979123 -33.8125 116.125 C-30.72076347 114.88830539 -30.33834588 114.31170848 -28.625 111.625 C-25.9084409 107.45438522 -22.73142429 105.47299058 -18 104 C-15.55115565 103.71815188 -13.47418723 103.79381773 -11 104 C-11.0825 102.80375 -11.165 101.6075 -11.25 100.375 C-11.24203716 95.86803136 -9.93235061 93.48711965 -7 90 C-3.90757329 87.14545227 -1.09903527 85.04859042 3 84 C5.73265885 84.13765259 8.29244002 84.54109153 11 85 C10.44691201 80.22661016 9.46496133 76.10777868 7.75 71.625 C5.79530174 66.31295258 4.02589569 60.99512168 2.4375 55.5625 C2.22681885 54.84457275 2.0161377 54.12664551 1.79907227 53.38696289 C0.47349 48.80444202 -0.68336445 44.19789858 -1.8125 39.5625 C-3.55723464 32.8070605 -6.18748413 26.68137656 -9.27075195 20.42797852 C-11.64706084 15.45572101 -13.26318355 10.5853398 -13 5 C-9.36422265 -1.01783837 -6.6949772 -1.47516447 0 0 Z " fill="#E1A588" transform="translate(103,15)"/>
<path d="M0 0 C1.67542976 0.28604898 3.34385343 0.61781233 5 1 C5.495 3.97 5.495 3.97 6 7 C6.66 6.67 7.32 6.34 8 6 C8.05607422 7.22976562 8.05607422 7.22976562 8.11328125 8.484375 C8.21189453 10.10085937 8.21189453 10.10085937 8.3125 11.75 C8.37050781 12.81734375 8.42851563 13.8846875 8.48828125 14.984375 C9.0393704 18.23201485 9.880638 19.55083932 12 22 C13.37249613 24.96170218 14 26.71280891 14 30 C14.66 30 15.32 30 16 30 C15.94779297 28.46279297 15.94779297 28.46279297 15.89453125 26.89453125 C15.86637965 25.53387064 15.83908096 24.1731922 15.8125 22.8125 C15.78736328 22.13896484 15.76222656 21.46542969 15.73632812 20.77148438 C15.67076522 16.29135252 16.33256351 13.60559001 19 10 C21.31 10.66 23.62 11.32 26 12 C26.33 11.01 26.66 10.02 27 9 C27.99 9 28.98 9 30 9 C29.75 11.375 29.75 11.375 29 14 C28.34 14.28875 27.68 14.5775 27 14.875 C26.34 15.24625 25.68 15.6175 25 16 C24.18129815 19.56206661 24.18129815 19.56206661 24 23 C25.98 23.66 27.96 24.32 30 25 C30 25.66 30 26.32 30 27 C31.65 27 33.3 27 35 27 C35.66794383 35.07469871 34.77708398 39.53446393 30 46 C29.31724229 47.22030203 28.64972498 48.44929461 28 49.6875 C25.98429226 53.02601594 23.77863839 55.29260875 21 58 C20.566875 58.86625 20.13375 59.7325 19.6875 60.625 C17.48889236 63.71933668 15.49288588 64.01127469 11.96875 65.109375 C9.61156402 65.98427372 9.61156402 65.98427372 7.625 69.1875 C5 72 5 72 2.75390625 72.45703125 C-2.75398274 72.54924857 -7.73953232 71.55865709 -13 70 C-13 69.34 -13 68.68 -13 68 C-13.66 68.66 -14.32 69.32 -15 70 C-15 70.33 -15 70.66 -15 71 C-24.80843419 70.38029501 -24.80843419 70.38029501 -29 67 C-29 66.34 -29 65.68 -29 65 C-29.556875 64.773125 -30.11375 64.54625 -30.6875 64.3125 C-33.63694755 62.63848923 -35.6752269 60.45043651 -38 58 C-39.81115956 56.18884044 -42.61278227 56.61800552 -45.0625 56.4375 C-46.16722656 56.35371094 -47.27195312 56.26992187 -48.41015625 56.18359375 C-49.26480469 56.12300781 -50.11945312 56.06242187 -51 56 C-51.04898438 55.25234375 -51.09796875 54.5046875 -51.1484375 53.734375 C-51.26058594 52.25710937 -51.26058594 52.25710937 -51.375 50.75 C-51.44460937 49.77546875 -51.51421875 48.8009375 -51.5859375 47.796875 C-51.98874656 45.07601379 -52.7184796 43.39320074 -54 41 C-54.1875 38.1875 -54.1875 38.1875 -53 35 C-50.19214764 32.38005363 -47.14466543 30.19521837 -44 28 C-43.67 27.67 -43.34 27.34 -43 27 C-41.00041636 26.95919217 -38.99954746 26.95745644 -37 27 C-36.67 25.35 -36.34 23.7 -36 22 C-33.02148438 21.36523438 -33.02148438 21.36523438 -30.04296875 20.73046875 C-27.91788655 20.14578416 -27.91788655 20.14578416 -26.5625 18.46875 C-24.39835796 16.43445649 -22.7346301 16.50224871 -19.8125 16.3125 C-18.91144531 16.24675781 -18.01039062 16.18101563 -17.08203125 16.11328125 C-16.39496094 16.07589844 -15.70789063 16.03851563 -15 16 C-15 13.69 -15 11.38 -15 9 C-14.34 9 -13.68 9 -13 9 C-13 9.66 -13 10.32 -13 11 C-12.34 11 -11.68 11 -11 11 C-11 8.36 -11 5.72 -11 3 C-10.28972656 2.86722656 -9.57945313 2.73445313 -8.84765625 2.59765625 C-7.92855469 2.42105469 -7.00945312 2.24445313 -6.0625 2.0625 C-5.14597656 1.88847656 -4.22945312 1.71445313 -3.28515625 1.53515625 C-1.04710156 1.22285012 -1.04710156 1.22285012 0 0 Z " fill="#CF7D5F" transform="translate(109,111)"/>
<path d="M0 0 C2.9375 0.75 2.9375 0.75 6 2 C6.6875 4 6.6875 4 7 6 C7.99 6.66 8.98 7.32 10 8 C10.6875 11.625 10.6875 11.625 11 15 C11.99 15.33 12.98 15.66 14 16 C14.71023028 18.30824842 15.01261364 20.58303983 15.375 22.96875 C15.684375 23.97421875 15.684375 23.97421875 16 25 C16.99 25.33 17.98 25.66 19 26 C23.26951466 33.00721872 25.64311259 40.21581287 26.48046875 48.34375 C27.08160113 51.41720879 28.30039121 53.39160296 30 56 C31.35072724 59.37681811 32.07364465 62.40428276 32.375 66 C32.80945492 70.17866641 34.6556541 72.51900154 37 76 C38.94973591 81.75852233 39.27414521 87.6780567 39.4609375 93.71484375 C39.63882813 94.46894531 39.81671875 95.22304687 40 96 C41.946934 97.16099208 41.946934 97.16099208 44 98 C44.33 98.99 44.66 99.98 45 101 C43 104 43 104 40.375 104.6875 C39.59125 104.790625 38.8075 104.89375 38 105 C38.33 103.35 38.66 101.7 39 100 C35.88214887 100.64644661 35.88214887 100.64644661 35 103 C30.25 102.125 30.25 102.125 28 101 C25.79050168 105.41029783 25.7629352 109.48940324 25.875 114.3125 C25.88402344 115.05306641 25.89304687 115.79363281 25.90234375 116.55664062 C25.92575787 118.37123467 25.96162385 120.18566071 26 122 C23 121 23 121 21.90234375 119.00390625 C21.58394531 118.19824219 21.26554687 117.39257812 20.9375 116.5625 C19.81367045 113.75066945 19.1627793 112.1627793 17 110 C16.61740179 107.14355654 16.49341762 104.31095376 16.34375 101.43359375 C16.17359375 100.22896484 16.17359375 100.22896484 16 99 C15.34 98.67 14.68 98.34 14 98 C14 96.02 14 94.04 14 92 C10.97984289 91.8223437 8.89684092 92.03438636 6 93 C3.10315908 93.96561364 1.02015711 94.1776563 -2 94 C-2 96.64 -2 99.28 -2 102 C-2.66 101.67 -3.32 101.34 -4 101 C-3.88381173 94.26108062 -3.88381173 94.26108062 -1.69140625 91.1328125 C1.39973246 88.14875711 4.19088283 86.55296027 8.5 86.125 C12.3539785 86.41536824 14.29558214 87.64841478 17 90.375 C20.55583479 94.95734599 21.08151551 99.31720418 21 105 C21.66 105 22.32 105 23 105 C22.96447021 104.44538086 22.92894043 103.89076172 22.89233398 103.31933594 C22.73433185 100.79657727 22.58582437 98.27334539 22.4375 95.75 C22.38142578 94.87730469 22.32535156 94.00460938 22.26757812 93.10546875 C22.19506836 91.83896484 22.19506836 91.83896484 22.12109375 90.546875 C22.0739624 89.77182617 22.02683105 88.99677734 21.97827148 88.19824219 C22 86 22 86 22.54321289 83.87597656 C23.21717401 81.10808921 22.2214145 79.50711397 21 77 C20.34 76.01 19.68 75.02 19 74 C18.875 71.3125 18.875 71.3125 19 69 C18.34 69 17.68 69 17 69 C16.66226563 67.92878906 16.32453125 66.85757813 15.9765625 65.75390625 C15.52643751 64.35664325 15.07589504 62.95951469 14.625 61.5625 C14.40328125 60.85544922 14.1815625 60.14839844 13.953125 59.41992188 C13.35897394 57.5937811 12.68450381 55.79422968 12 54 C11.34 53.67 10.68 53.34 10 53 C7.54762096 47.61702801 6.46777389 41.77254744 5.52734375 35.96875 C5.35332031 35.3190625 5.17929688 34.669375 5 34 C4.34 33.67 3.68 33.34 3 33 C-0.61276025 25.47341614 -3.1708878 17.43046483 -3 9 C-1.5625 5.875 -1.5625 5.875 0 4 C-0.99 3.67 -1.98 3.34 -3 3 C-2.01 2.01 -1.02 1.02 0 0 Z " fill="#F5A78A" transform="translate(100,20)"/>
<path d="M0 0 C2 1.75 2 1.75 4 4 C4 5.32 4 6.64 4 8 C4.99 8.33 5.98 8.66 7 9 C7.8871292 11.65248665 8.58044327 14.15859828 9.1875 16.875 C9.36474609 17.60847656 9.54199219 18.34195313 9.72460938 19.09765625 C10.43871239 22.12501188 11 24.88012933 11 28 C11.99 28.33 12.98 28.66 14 29 C15.16796875 31.87109375 15.16796875 31.87109375 16.1875 35.4375 C16.53167969 36.61183594 16.87585938 37.78617188 17.23046875 38.99609375 C18 42 18 42 18 44 C18.66 44 19.32 44 20 44 C20.28875 45.0725 20.5775 46.145 20.875 47.25 C21.73773751 50.1257917 22.64225387 52.37502414 24 55 C25.17857143 58.64285714 25.17857143 58.64285714 24 61 C23.91657841 62.44848582 23.89267139 63.90070869 23.90234375 65.3515625 C23.90556641 66.20234375 23.90878906 67.053125 23.91210938 67.9296875 C23.92048828 68.81914063 23.92886719 69.70859375 23.9375 70.625 C23.94201172 71.5221875 23.94652344 72.419375 23.95117188 73.34375 C23.96297409 75.56256648 23.97943845 77.78125018 24 80 C23.34 80 22.68 80 22 80 C21.88785156 79.03900391 21.88785156 79.03900391 21.7734375 78.05859375 C20.93425914 72.5381165 19.7912518 68.30356543 15.83984375 64.2265625 C12.96577221 62.31051481 10.58020454 62.15511717 7.1875 62.453125 C3.20671765 63.44832059 1.66181079 64.80582706 -1 68 C-1.76863774 70.77222011 -1.90134612 73.08971062 -2 76 C-2.99 75.67 -3.98 75.34 -5 75 C-5 77.31 -5 79.62 -5 82 C-5.66386719 82.09796875 -6.32773438 82.1959375 -7.01171875 82.296875 C-12.58712383 83.24103119 -15.60865134 84.34054278 -20 88 C-23.3125 88.25 -23.3125 88.25 -26 88 C-26.33 89.65 -26.66 91.3 -27 93 C-28.051875 93.2475 -29.10375 93.495 -30.1875 93.75 C-33.83332034 94.78114111 -36.15511219 96.47121084 -39 99 C-40.485 99.99 -40.485 99.99 -42 101 C-43.69042532 105.9505313 -42.37812731 109.15170479 -40.63671875 113.80859375 C-39.77679176 116.76821976 -40.17291497 119.06760763 -41 122 C-39.906875 121.938125 -38.81375 121.87625 -37.6875 121.8125 C-34 122 -34 122 -32 123.25 C-31 125 -31 125 -31.3125 127.1875 C-31.6528125 128.0846875 -31.6528125 128.0846875 -32 129 C-33.32 129 -34.64 129 -36 129 C-35.54851905 131.251385 -35.08855496 133.50106998 -34.625 135.75 C-34.36976562 137.00296875 -34.11453125 138.2559375 -33.8515625 139.546875 C-33.1569875 142.36340848 -32.44319917 144.51518752 -31 147 C-30.34 146.67 -29.68 146.34 -29 146 C-29.0825 147.175625 -29.165 148.35125 -29.25 149.5625 C-29.27358492 152.89976554 -28.7678552 154.86142162 -27 157.6875 C-25.02370485 160.96073885 -24.55120661 162.29745453 -25 166 C-24.34 166 -23.68 166 -23 166 C-22.67 167.65 -22.34 169.3 -22 171 C-25.67388769 167.75977834 -27.80206834 164.0895284 -29.9375 159.75 C-30.28377441 159.05269775 -30.63004883 158.35539551 -30.98681641 157.63696289 C-35.04346544 149.2015136 -37.6032059 140.39670446 -39.9453125 131.34765625 C-40.82700081 128.03635527 -40.82700081 128.03635527 -42.55078125 125.58984375 C-44.56021484 121.99886135 -44.80380253 118.61420451 -45.1875 114.5625 C-45.26935547 113.82451172 -45.35121094 113.08652344 -45.43554688 112.32617188 C-46.73973575 99.99665523 -46.73973575 99.99665523 -42.62109375 93.89453125 C-39.1650083 89.85549162 -34.89352518 87.51979123 -29.8125 86.125 C-26.72076347 84.88830539 -26.33834588 84.31170848 -24.625 81.625 C-21.9084409 77.45438522 -18.73142429 75.47299058 -14 74 C-11.55115565 73.71815188 -9.47418723 73.79381773 -7 74 C-7.0825 72.80375 -7.165 71.6075 -7.25 70.375 C-7.24203716 65.86803136 -5.93235061 63.48711965 -3 60 C0.09242671 57.14545227 2.90096473 55.04859042 7 54 C9.73265885 54.13765259 12.29244002 54.54109153 15 55 C14.44691201 50.22661016 13.46496133 46.10777868 11.75 41.625 C6.75613105 28.02498225 3.1646885 14.12617941 0 0 Z " fill="#F3C6AF" transform="translate(99,45)"/>
<path d="M0 0 C1.67542976 0.28604898 3.34385343 0.61781233 5 1 C5.33 2.98 5.66 4.96 6 7 C6.66 6.67 7.32 6.34 8 6 C8.03738281 6.81984375 8.07476562 7.6396875 8.11328125 8.484375 C8.21189453 10.10085937 8.21189453 10.10085937 8.3125 11.75 C8.37050781 12.81734375 8.42851563 13.8846875 8.48828125 14.984375 C9.0393704 18.23201485 9.880638 19.55083932 12 22 C13.37249613 24.96170218 14 26.71280891 14 30 C14.66 30 15.32 30 16 30 C15.94779297 28.46279297 15.94779297 28.46279297 15.89453125 26.89453125 C15.86637965 25.53387064 15.83908096 24.1731922 15.8125 22.8125 C15.78736328 22.13896484 15.76222656 21.46542969 15.73632812 20.77148438 C15.67076522 16.29135252 16.33256351 13.60559001 19 10 C21.31 10.66 23.62 11.32 26 12 C26.33 11.01 26.66 10.02 27 9 C27.99 9 28.98 9 30 9 C29.75 11.375 29.75 11.375 29 14 C28.34 14.28875 27.68 14.5775 27 14.875 C26.34 15.24625 25.68 15.6175 25 16 C24.18129815 19.56206661 24.18129815 19.56206661 24 23 C25.98 23.66 27.96 24.32 30 25 C30 25.66 30 26.32 30 27 C31.65 27 33.3 27 35 27 C35.66787852 35.07390923 34.77662097 39.5359118 30 46 C29.25371236 47.30284114 28.52337531 48.61500366 27.8125 49.9375 C26 53 26 53 24 54 C23.773125 53.443125 23.54625 52.88625 23.3125 52.3125 C21.63575448 49.35823409 19.45423315 47.33152149 17 45 C14.60175053 42.60175053 14.68563796 41.72664782 14.4375 38.4375 C14.41550697 35.41952212 14.41550697 35.41952212 13 33 C12.67 33.99 12.34 34.98 12 36 C12 35.34 12 34.68 12 34 C10.88625 34.495 10.88625 34.495 9.75 35 C7 36 7 36 3 36 C1.25 34.625 1.25 34.625 0 33 C0 32.34 0 31.68 0 31 C-0.66 31 -1.32 31 -2 31 C-2 30.34 -2 29.68 -2 29 C-2.99 28.67 -3.98 28.34 -5 28 C-6.375 25.5625 -6.375 25.5625 -8 22 C-8.89048111 20.2056672 -9.78659474 18.41412172 -10.6875 16.625 C-11.45833333 15.08333333 -12.22916667 13.54166667 -13 12 C-12.34 11.67 -11.68 11.34 -11 11 C-11 8.36 -11 5.72 -11 3 C-10.28972656 2.86722656 -9.57945313 2.73445313 -8.84765625 2.59765625 C-7.92855469 2.42105469 -7.00945312 2.24445313 -6.0625 2.0625 C-5.14597656 1.88847656 -4.22945312 1.71445313 -3.28515625 1.53515625 C-1.04710156 1.22285012 -1.04710156 1.22285012 0 0 Z " fill="#DD8667" transform="translate(109,111)"/>
<path d="M0 0 C10.93846051 7.41384546 16.24503526 22.21946915 21.15380859 33.99169922 C21.86276822 35.67430219 22.60871119 37.3412576 23.36328125 39.00390625 C26.75682886 46.59793623 29.07635411 54.49750693 31.41430664 62.46557617 C34.19694092 71.91391014 37.25476918 81.03310328 41.875 89.75 C45.77685796 97.31122758 48.98434025 105.04962429 52 113 C57.02817916 111.839181 60.0102341 110.63006561 63.5625 106.875 C64.32820313 106.070625 65.09390625 105.26625 65.8828125 104.4375 C67.72538927 102.316157 69.34200168 100.18261339 70.9375 97.875 C77.69085713 88.58682115 88.12028638 84.58604492 99.046875 82.38671875 C104.95956064 81.61243849 110.16042869 82.12862412 115.5625 84.6875 C118.46957994 87.44549891 118.82089375 89.05966251 119 93 C118.67 92.34 118.34 91.68 118 91 C117.34 91 116.68 91 116 91 C116 90.34 116 89.68 116 89 C115.195625 88.690625 114.39125 88.38125 113.5625 88.0625 C111 87 111 87 110 86 C102.09560719 85.38835056 95.294965 85.89091928 88 89 C86.989375 89.391875 85.97875 89.78375 84.9375 90.1875 C83.9784375 90.5896875 83.9784375 90.5896875 83 91 C83 91.66 83 92.32 83 93 C81.515 93.495 81.515 93.495 80 94 C78.47967951 95.49595331 78.47967951 95.49595331 77.0625 97.3125 C74.8235822 100.02567132 72.48811494 102.51188506 70 105 C69.2575 105.94875 68.515 106.8975 67.75 107.875 C64.138707 112.25536466 59.70673886 115.96886139 54.375 118 C51.28532882 118 48.85561092 117.12896246 46 116 C46 115.34 46 114.68 46 114 C44.02 115.32 42.04 116.64 40 118 C39.67 117.34 39.34 116.68 39 116 C39.66 116 40.32 116 41 116 C41 115.34 41 114.68 41 114 C38.36 114 35.72 114 33 114 C33.6875 112.125 33.6875 112.125 35 110 C35.845625 109.690625 36.69125 109.38125 37.5625 109.0625 C38.366875 108.711875 39.17125 108.36125 40 108 C40.89386164 105.45224694 40.89386164 105.45224694 41 103 C40.360625 102.855625 39.72125 102.71125 39.0625 102.5625 C37 102 37 102 36 101 C35.78706687 99.09203483 35.5796101 97.18325089 35.40405273 95.27148438 C34.58645699 84.26128058 34.58645699 84.26128058 29 75 C28.67533241 73.48586842 28.39052676 71.96311431 28.125 70.4375 C27.21982954 65.70224261 25.79646253 61.45716919 24 57 C22.7746753 53.61233759 21.86307194 50.34048679 21.1875 46.8125 C19.92316078 40.90221588 17.75648428 33.75648428 13.40625 29.40625 C11.11837335 27.11837335 10.84945821 24.05804955 10 21 C9.34 20.67 8.68 20.34 8 20 C7.71125 18.906875 7.4225 17.81375 7.125 16.6875 C5.97542749 12.91945678 4.96786781 11.47322318 2 9 C2.33 8.34 2.66 7.68 3 7 C0.09926819 6.32198966 0.09926819 6.32198966 -3 6 C-3.66 6.66 -4.32 7.32 -5 8 C-4.34 8.33 -3.68 8.66 -3 9 C-3.57584432 11.38564077 -4.22227595 13.66682784 -5 16 C-4.91343435 18.39870613 -4.76001509 20.79537281 -4.5625 23.1875 C-4.46066406 24.45980469 -4.35882813 25.73210938 -4.25390625 27.04296875 C-4.17011719 28.01878906 -4.08632812 28.99460937 -4 30 C-9.1601194 23.6479232 -12.64602924 15.10132596 -13.2109375 6.91015625 C-12.86037523 3.73562013 -11.28923611 2.09301587 -9 0 C-5.81229009 -1.59385496 -3.40972958 -0.75129635 0 0 Z " fill="#F8D7C6" transform="translate(103,15)"/>
<path d="M0 0 C2.9375 0.75 2.9375 0.75 6 2 C6.6875 4 6.6875 4 7 6 C7.99 6.66 8.98 7.32 10 8 C10.6875 11.625 10.6875 11.625 11 15 C11.99 15.33 12.98 15.66 14 16 C17.58776732 22.79301533 18.89681132 30.65169846 20.2890625 38.12890625 C20.76472602 41.10900408 20.76472602 41.10900408 23 43 C23.26991906 45.68839385 23.08737357 48.29141936 23 51 C18.25378027 53.30530672 15.69232372 52.84615888 10.8125 51.3125 C6.44176311 48.14748363 6.40198541 41.088645 5.5625 36.07421875 C5.376875 35.38972656 5.19125 34.70523438 5 34 C4.34 33.67 3.68 33.34 3 33 C-0.61276025 25.47341614 -3.1708878 17.43046483 -3 9 C-1.5625 5.875 -1.5625 5.875 0 4 C-0.99 3.67 -1.98 3.34 -3 3 C-2.01 2.01 -1.02 1.02 0 0 Z " fill="#F38C71" transform="translate(100,20)"/>
<path d="M0 0 C2.52824769 2.26670483 3.83381049 4.428265 5.25 7.5 C7.66749731 12.52721154 10.55446566 17.11160731 13.64453125 21.75 C15 24 15 24 15 26 C16.32 25.67 17.64 25.34 19 25 C19 25.66 19 26.32 19 27 C19.66 27 20.32 27 21 27 C21.268125 27.78375 21.53625 28.5675 21.8125 29.375 C22.84814432 32.28114923 22.84814432 32.28114923 26 34 C26.69658363 35.65438613 27.36096883 37.32254318 28 39 C28.99387334 40.33790641 29.9926892 41.67218122 31 43 C31 43.66 31 44.32 31 45 C27.7 44.67 24.4 44.34 21 44 C21 43.34 21 42.68 21 42 C20.34 42.66 19.68 43.32 19 44 C19 44.33 19 44.66 19 45 C9.19156581 44.38029501 9.19156581 44.38029501 5 41 C5 40.34 5 39.68 5 39 C4.443125 38.773125 3.88625 38.54625 3.3125 38.3125 C0.36305245 36.63848923 -1.6752269 34.45043651 -4 32 C-5.81115956 30.18884044 -8.61278227 30.61800552 -11.0625 30.4375 C-12.16722656 30.35371094 -13.27195313 30.26992187 -14.41015625 30.18359375 C-15.26480469 30.12300781 -16.11945312 30.06242187 -17 30 C-16.67 29.34 -16.34 28.68 -16 28 C-15.01 28 -14.02 28 -13 28 C-13.99 24.04 -14.98 20.08 -16 16 C-12 17 -12 17 -10 20 C-8.35 19.67 -6.7 19.34 -5 19 C-4.34 20.32 -3.68 21.64 -3 23 C-0.36 23 2.28 23 5 23 C6.373784 20.9160686 6.373784 20.9160686 7 18 C5.9997098 15.25651401 4.98084868 12.92718575 3.625 10.375 C0 3.31578947 0 3.31578947 0 0 Z " fill="#C96E53" transform="translate(75,137)"/>
<path d="M0 0 C0.721875 0.70125 1.44375 1.4025 2.1875 2.125 C2.1875 2.785 2.1875 3.445 2.1875 4.125 C2.8475 4.125 3.5075 4.125 4.1875 4.125 C4.078125 5.94140625 4.078125 5.94140625 3.1875 8.125 C0.421875 9.65234375 0.421875 9.65234375 -3.0625 11.0625 C-8.07453652 13.09793112 -11.16595164 15.12595197 -14.8125 19.125 C-15.53953125 19.84042969 -16.2665625 20.55585937 -17.015625 21.29296875 C-17.69109375 21.95941406 -18.3665625 22.62585938 -19.0625 23.3125 C-19.74828125 23.98667969 -20.4340625 24.66085938 -21.140625 25.35546875 C-22.88699111 27.03298995 -22.88699111 27.03298995 -23.8125 29.125 C-24.4725 29.125 -25.1325 29.125 -25.8125 29.125 C-25.8125 27.805 -25.8125 26.485 -25.8125 25.125 C-25.1525 25.125 -24.4925 25.125 -23.8125 25.125 C-22.57476676 22.23869851 -22.57476676 22.23869851 -23.3125 19.625 C-23.8125 17.125 -23.8125 17.125 -22.8125 14.125 C-23.4725 14.125 -24.1325 14.125 -24.8125 14.125 C-25.1425 14.785 -25.4725 15.445 -25.8125 16.125 C-25.8125 15.135 -25.8125 14.145 -25.8125 13.125 C-26.4725 13.125 -27.1325 13.125 -27.8125 13.125 C-28.4725 12.135 -29.1325 11.145 -29.8125 10.125 C-30.30878906 10.51171875 -30.80507812 10.8984375 -31.31640625 11.296875 C-35.66133147 14.62770951 -39.99879161 17.51757462 -44.8125 20.125 C-43.58089546 15.47227174 -41.11499531 13.41297302 -37.46875 10.5546875 C-35.5598865 9.03575059 -35.5598865 9.03575059 -33.8125 6.125 C-32.8225 6.125 -31.8325 6.125 -30.8125 6.125 C-30.8125 5.465 -30.8125 4.805 -30.8125 4.125 C-29.42172699 3.30386823 -28.02461107 2.49347505 -26.625 1.6875 C-25.84769531 1.23503906 -25.07039063 0.78257813 -24.26953125 0.31640625 C-17.64059399 -2.8979433 -6.39662976 -4.1164914 0 0 Z " fill="#F5B3A0" transform="translate(216.8125,101.875)"/>
<path d="M0 0 C0 3.45470024 -0.35534723 3.69491155 -2.5 6.1875 C-11.57103697 18.02669379 -15.78691178 31.8835697 -20.11328125 45.953125 C-21.70176802 51.11065458 -23.41825745 56.1970809 -25.3125 61.25 C-25.76238281 62.45140625 -26.21226562 63.6528125 -26.67578125 64.890625 C-28 68 -28 68 -29.60546875 70.546875 C-32.3922405 75.44909533 -32.16176099 81.06289243 -32.31640625 86.5859375 C-32.33718735 87.28772125 -32.35796844 87.989505 -32.37937927 88.71255493 C-32.44426324 90.93327958 -32.5034723 93.15411276 -32.5625 95.375 C-32.60574354 96.88933371 -32.6493596 98.40365683 -32.69335938 99.91796875 C-32.79988086 103.61186655 -32.90131677 107.30588354 -33 111 C-35.97 110.67 -38.94 110.34 -42 110 C-41.01 109.505 -41.01 109.505 -40 109 C-40.0407666 108.42556152 -40.0815332 107.85112305 -40.12353516 107.25927734 C-40.30300209 104.6318602 -40.46413874 102.0036192 -40.625 99.375 C-40.68945312 98.47136719 -40.75390625 97.56773437 -40.8203125 96.63671875 C-41.34690016 87.61890507 -38.31469861 81.32863298 -34.47851562 73.390625 C-33.00632666 70.3024664 -31.62607714 67.37910126 -31 64 C-30.34 64 -29.68 64 -29 64 C-28.91959473 63.36908447 -28.83918945 62.73816895 -28.75634766 62.08813477 C-28.38865528 59.24494428 -28.00702337 56.4037988 -27.625 53.5625 C-27.49867188 52.56927734 -27.37234375 51.57605469 -27.2421875 50.55273438 C-27.11328125 49.60849609 -26.984375 48.66425781 -26.8515625 47.69140625 C-26.67874756 46.37958374 -26.67874756 46.37958374 -26.50244141 45.04125977 C-26.33663574 44.36764404 -26.17083008 43.69402832 -26 43 C-25.01 42.505 -25.01 42.505 -24 42 C-23.30772968 39.19019327 -23.30772968 39.19019327 -22.875 35.9375 C-22.70742187 34.83277344 -22.53984375 33.72804687 -22.3671875 32.58984375 C-22.24601562 31.73519531 -22.12484375 30.88054687 -22 30 C-21.34 30 -20.68 30 -20 30 C-20.04125 28.88625 -20.0825 27.7725 -20.125 26.625 C-20 23 -20 23 -18 21 C-17.01 21 -16.02 21 -15 21 C-14.896875 20.13375 -14.79375 19.2675 -14.6875 18.375 C-13.96601586 14.83316877 -12.72876739 12.15687958 -11 9 C-10.34 9 -9.68 9 -9 9 C-8.79375 8.4225 -8.5875 7.845 -8.375 7.25 C-6.50122558 4.18382368 -4.02419977 2.86599561 -1 1 C-0.67 0.67 -0.34 0.34 0 0 Z " fill="#E9B590" transform="translate(190,131)"/>
<path d="M0 0 C5.00692564 1.39537272 6.97619427 3.85101574 9.8125 8.0625 C9.4825 8.7225 9.1525 9.3825 8.8125 10.0625 C8.338125 9.4025 7.86375 8.7425 7.375 8.0625 C4.12777228 5.52807837 2.10546815 5.4146749 -1.9296875 5.62109375 C-6.00736314 6.41828639 -7.50701532 7.84591838 -10.1875 11.0625 C-10.95613774 13.83472011 -11.08884612 16.15221062 -11.1875 19.0625 C-12.1775 18.7325 -13.1675 18.4025 -14.1875 18.0625 C-14.1875 20.3725 -14.1875 22.6825 -14.1875 25.0625 C-14.85136719 25.16046875 -15.51523438 25.2584375 -16.19921875 25.359375 C-21.77462383 26.30353119 -24.79615134 27.40304278 -29.1875 31.0625 C-32.5 31.3125 -32.5 31.3125 -35.1875 31.0625 C-35.5175 32.7125 -35.8475 34.3625 -36.1875 36.0625 C-37.239375 36.31 -38.29125 36.5575 -39.375 36.8125 C-43.02082034 37.84364111 -45.34261219 39.53371084 -48.1875 42.0625 C-49.1775 42.7225 -50.1675 43.3825 -51.1875 44.0625 C-52.87792532 49.0130313 -51.56562731 52.21420479 -49.82421875 56.87109375 C-48.96429176 59.83071976 -49.36041497 62.13010763 -50.1875 65.0625 C-49.094375 65.000625 -48.00125 64.93875 -46.875 64.875 C-43.1875 65.0625 -43.1875 65.0625 -41.1875 66.3125 C-40.1875 68.0625 -40.1875 68.0625 -40.5 70.25 C-40.726875 70.848125 -40.95375 71.44625 -41.1875 72.0625 C-42.5075 72.0625 -43.8275 72.0625 -45.1875 72.0625 C-44.73601905 74.313885 -44.27605496 76.56356998 -43.8125 78.8125 C-43.55726562 80.06546875 -43.30203125 81.3184375 -43.0390625 82.609375 C-42.3444875 85.42590848 -41.63069917 87.57768752 -40.1875 90.0625 C-39.1975 89.5675 -39.1975 89.5675 -38.1875 89.0625 C-38.27 90.238125 -38.3525 91.41375 -38.4375 92.625 C-38.46108492 95.96226554 -37.9553552 97.92392162 -36.1875 100.75 C-34.21120485 104.02323885 -33.73870661 105.35995453 -34.1875 109.0625 C-33.5275 109.0625 -32.8675 109.0625 -32.1875 109.0625 C-31.8575 110.7125 -31.5275 112.3625 -31.1875 114.0625 C-34.86138769 110.82227834 -36.98956834 107.1520284 -39.125 102.8125 C-39.47127441 102.11519775 -39.81754883 101.41789551 -40.17431641 100.69946289 C-44.26279308 92.19783079 -46.75995655 83.33094336 -49.22265625 74.2421875 C-50.01250959 71.076272 -50.01250959 71.076272 -51.75 68.75 C-53.93967946 64.65625144 -53.95332938 60.64183659 -54.1875 56.0625 C-54.27515625 55.134375 -54.3628125 54.20625 -54.453125 53.25 C-54.82986336 47.08519054 -54.05450277 43.52576368 -49.953125 38.83984375 C-49.37046875 38.25332031 -48.7878125 37.66679687 -48.1875 37.0625 C-47.37539063 36.22912109 -47.37539063 36.22912109 -46.546875 35.37890625 C-42.77677064 31.84663558 -38.95340499 29.99552427 -34.19921875 28.06640625 C-31.37530251 26.6571898 -29.94581888 24.63235067 -28.1875 22.0625 C-25.02509418 19.95422945 -23.68092531 19.72432535 -20 19.4375 C-19.09894531 19.36273438 -18.19789062 19.28796875 -17.26953125 19.2109375 C-16.58246094 19.16195312 -15.89539063 19.11296875 -15.1875 19.0625 C-15.1875 18.0725 -15.1875 17.0825 -15.1875 16.0625 C-14.5275 16.0625 -13.8675 16.0625 -13.1875 16.0625 C-13.27 15.34707031 -13.3525 14.63164063 -13.4375 13.89453125 C-13.01356684 9.09216347 -9.9182548 6.51631744 -6.69921875 3.140625 C-4.27472823 1.13467017 -3.08912294 0.26290408 0 0 Z " fill="#F1BAA6" transform="translate(108.1875,101.9375)"/>
<path d="M0 0 C0.66 0.33 1.32 0.66 2 1 C2 3.64 2 6.28 2 9 C1.39671875 9.10957031 0.7934375 9.21914062 0.171875 9.33203125 C-4.7359851 10.1915198 -4.7359851 10.1915198 -9 12.5625 C-12.26180631 14.90692329 -16.07271235 14.75664243 -20 15 C-19.69287554 20.11874095 -18.74801264 22.62205055 -15.2890625 26.39453125 C-12.99706301 29.24911243 -11.63730033 32.39886922 -11 36 C-11.8125 38.4375 -11.8125 38.4375 -14 40 C-16.70571949 40.62072388 -19.20967501 40.81702787 -22 41 C-22.2475 40.360625 -22.495 39.72125 -22.75 39.0625 C-23.81562433 36.81258459 -23.81562433 36.81258459 -26.125 36.25 C-26.74375 36.1675 -27.3625 36.085 -28 36 C-28.33 36.66 -28.66 37.32 -29 38 C-29.2475 37.360625 -29.495 36.72125 -29.75 36.0625 C-30.81562433 33.81258459 -30.81562433 33.81258459 -33.125 33.25 C-33.74375 33.1675 -34.3625 33.085 -35 33 C-34.505 34.051875 -34.01 35.10375 -33.5 36.1875 C-32.17220212 39.25452609 -31.69284994 41.62134936 -32 45 C-33.98 45.495 -33.98 45.495 -36 46 C-36.07347656 44.98679687 -36.07347656 44.98679687 -36.1484375 43.953125 C-36.26058594 42.61507812 -36.26058594 42.61507812 -36.375 41.25 C-36.44460937 40.36828125 -36.51421875 39.4865625 -36.5859375 38.578125 C-37.00150628 35.99062129 -37.79108485 34.29645329 -39 32 C-39.1875 29.1875 -39.1875 29.1875 -38 26 C-35.19214764 23.38005363 -32.14466543 21.19521837 -29 19 C-28.67 18.67 -28.34 18.34 -28 18 C-26.00041636 17.95919217 -23.99954746 17.95745644 -22 18 C-21.67 16.35 -21.34 14.7 -21 13 C-19.01432292 12.57682292 -17.02864583 12.15364583 -15.04296875 11.73046875 C-12.91788655 11.14578416 -12.91788655 11.14578416 -11.5625 9.46875 C-9.39835796 7.43445649 -7.7346301 7.50224871 -4.8125 7.3125 C-3.46091797 7.21388672 -3.46091797 7.21388672 -2.08203125 7.11328125 C-1.05142578 7.05720703 -1.05142578 7.05720703 0 7 C0 4.69 0 2.38 0 0 Z " fill="#DB9072" transform="translate(94,120)"/>
<path d="M0 0 C2.96836609 3.48015335 4.96172053 6.92344106 7 11 C7.66 11.33 8.32 11.66 9 12 C9 12.66 9 13.32 9 14 C9.66 14 10.32 14 11 14 C11 14.66 11 15.32 11 16 C11.99 16.33 12.98 16.66 14 17 C14 17.66 14 18.32 14 19 C15.11375 18.5359375 15.11375 18.5359375 16.25 18.0625 C18.50692176 17.1905075 20.6450153 16.52332993 23 16 C23.33 14.68 23.66 13.36 24 12 C25.56043336 15.22489562 26.13344988 17.97101166 26.375 21.5 C26.92370877 27.20467911 29.43541524 29.68432645 33.75 33.3125 C34.4925 33.869375 35.235 34.42625 36 35 C34.625 37.5 34.625 37.5 33 40 C32.34 40 31.68 40 31 40 C30.7525 39.113125 30.505 38.22625 30.25 37.3125 C28.91495061 33.77461912 27.75029788 31.59750355 25 29 C21.90606581 28.82272245 21.90606581 28.82272245 19 29 C19.08708038 31.10494301 19.19525693 33.20902142 19.3125 35.3125 C19.37050781 36.48425781 19.42851563 37.65601563 19.48828125 38.86328125 C20.01604768 42.0983686 20.42380724 43.08684881 23 45 C22.38125 45.28875 21.7625 45.5775 21.125 45.875 C18.86674235 46.93720042 18.86674235 46.93720042 17 49 C16.979375 47.96875 16.95875 46.9375 16.9375 45.875 C16.3295706 40.98587767 14.21206874 37.1085309 11.94238281 32.78662109 C9.4243182 27.95628293 7.24543224 23.04286592 5.1875 18 C4.89794434 17.29431885 4.60838867 16.5886377 4.31005859 15.86157227 C0 5.21580364 0 5.21580364 0 0 Z " fill="#C4634A" transform="translate(98,128)"/>
<path d="M0 0 C4.24934879 2.84421269 6.89098976 6.34385992 9.5625 10.625 C9.95381104 11.24455566 10.34512207 11.86411133 10.74829102 12.50244141 C16.44876958 21.73542595 19.39384352 31.29229013 21 42 C18.93590449 39.54274343 17.76004405 37.43010463 16.5 34.4375 C15.30655205 31.10202707 15.30655205 31.10202707 13.4375 29.5 C11.16587123 27.12960476 10.86394305 24.11019499 10 21 C9.34 20.67 8.68 20.34 8 20 C7.71125 18.906875 7.4225 17.81375 7.125 16.6875 C5.97542749 12.91945678 4.96786781 11.47322318 2 9 C2.33 8.34 2.66 7.68 3 7 C0.09926819 6.32198966 0.09926819 6.32198966 -3 6 C-3.66 6.66 -4.32 7.32 -5 8 C-4.34 8.33 -3.68 8.66 -3 9 C-3.57584432 11.38564077 -4.22227595 13.66682784 -5 16 C-4.91343435 18.39870613 -4.76001509 20.79537281 -4.5625 23.1875 C-4.46066406 24.45980469 -4.35882813 25.73210938 -4.25390625 27.04296875 C-4.17011719 28.01878906 -4.08632812 28.99460937 -4 30 C-9.1601194 23.6479232 -12.64602924 15.10132596 -13.2109375 6.91015625 C-12.86037523 3.73562013 -11.28923611 2.09301587 -9 0 C-5.81229009 -1.59385496 -3.40972958 -0.75129635 0 0 Z " fill="#F9B29C" transform="translate(103,15)"/>
<path d="M0 0 C4.37399617 3.29653084 5.64344948 6.09024157 6.45703125 11.28710938 C6.55371094 12.03798828 6.65039062 12.78886719 6.75 13.5625 C6.97309891 15.06393004 7.19703022 16.56523667 7.421875 18.06640625 C7.70804688 20.01353516 7.70804688 20.01353516 8 22 C8.31912431 23.33680536 8.64863971 24.67130333 9 26 C9.66 26 10.32 26 11 26 C11 21.05 11 16.1 11 11 C12.98 10.34 14.96 9.68 17 9 C18.0725 8.62875 19.145 8.2575 20.25 7.875 C23 7 23 7 25 7 C24.67 8.65 24.34 10.3 24 12 C25.32 12 26.64 12 28 12 C28 12.66 28 13.32 28 14 C28.66 14.33 29.32 14.66 30 15 C29.01 15.99 28.02 16.98 27 18 C26.34 17.67 25.68 17.34 25 17 C25.33 15.68 25.66 14.36 26 13 C22.88214887 13.64644661 22.88214887 13.64644661 22 16 C17.25 15.125 17.25 15.125 15 14 C12.79050168 18.41029783 12.7629352 22.48940324 12.875 27.3125 C12.88402344 28.05306641 12.89304687 28.79363281 12.90234375 29.55664062 C12.92575787 31.37123467 12.96162385 33.18566071 13 35 C10 34 10 34 8.90234375 32.00390625 C8.58394531 31.19824219 8.26554687 30.39257812 7.9375 29.5625 C6.81367045 26.75066945 6.1627793 25.1627793 4 23 C3.61740179 20.14355654 3.49341762 17.31095376 3.34375 14.43359375 C3.2303125 13.63050781 3.116875 12.82742187 3 12 C2.34 11.67 1.68 11.34 1 11 C1 9.02 1 7.04 1 5 C-2.02015711 4.8223437 -4.10315908 5.03438636 -7 6 C-9.89684092 6.96561364 -11.97984289 7.1776563 -15 7 C-15 9.64 -15 12.28 -15 15 C-15.66 14.67 -16.32 14.34 -17 14 C-16.88381173 7.26108062 -16.88381173 7.26108062 -14.69140625 4.1328125 C-10.48837715 0.07538487 -5.76245379 -1.82240146 0 0 Z " fill="#F3A687" transform="translate(113,107)"/>
<path d="M0 0 C0.66 0 1.32 0 2 0 C4.45918915 5.26457483 6.51152201 10.36504762 8 16 C8.391875 17.051875 8.78375 18.10375 9.1875 19.1875 C10.02006432 22.06945342 10.16563952 23.28017445 9 26 C7 28 7 28 4.0625 28.375 C1 28 1 28 -0.5546875 26.4921875 C-2.54334124 23.06310349 -3.31493505 19.59335999 -4.1875 15.75 C-4.36474609 15.00492188 -4.54199219 14.25984375 -4.72460938 13.4921875 C-5.15834193 11.66347729 -5.58034597 9.83199221 -6 8 C-3 6 -3 6 1 6 C1 5.01 1 4.02 1 3 C0.34 3 -0.32 3 -1 3 C-0.67 2.01 -0.34 1.02 0 0 Z " fill="#EE8363" transform="translate(111,39)"/>
<path d="M0 0 C5.00692564 1.39537272 6.97619427 3.85101574 9.8125 8.0625 C9.4825 8.7225 9.1525 9.3825 8.8125 10.0625 C8.338125 9.4025 7.86375 8.7425 7.375 8.0625 C4.12777228 5.52807837 2.10546815 5.4146749 -1.9296875 5.62109375 C-6.00736314 6.41828639 -7.50701532 7.84591838 -10.1875 11.0625 C-10.95613774 13.83472011 -11.08884612 16.15221062 -11.1875 19.0625 C-12.1775 18.7325 -13.1675 18.4025 -14.1875 18.0625 C-14.1875 20.3725 -14.1875 22.6825 -14.1875 25.0625 C-15.18330078 25.20945312 -15.18330078 25.20945312 -16.19921875 25.359375 C-21.77462383 26.30353119 -24.79615134 27.40304278 -29.1875 31.0625 C-32.5 31.3125 -32.5 31.3125 -35.1875 31.0625 C-35.1875 29.0625 -35.1875 29.0625 -33 26.6875 C-32.071875 25.82125 -31.14375 24.955 -30.1875 24.0625 C-29.465625 23.32 -28.74375 22.5775 -28 21.8125 C-23.92526618 19.27711007 -19.90761205 19.24580532 -15.1875 19.0625 C-15.1875 18.0725 -15.1875 17.0825 -15.1875 16.0625 C-14.5275 16.0625 -13.8675 16.0625 -13.1875 16.0625 C-13.27 15.34707031 -13.3525 14.63164063 -13.4375 13.89453125 C-13.01356684 9.09216347 -9.9182548 6.51631744 -6.69921875 3.140625 C-4.27472823 1.13467017 -3.08912294 0.26290408 0 0 Z " fill="#F6B99A" transform="translate(108.1875,101.9375)"/>
<path d="M0 0 C2.8364141 2.76177162 3.19788349 4.41593674 3.375 8.3125 C2.88 7.3225 2.88 7.3225 2.375 6.3125 C1.715 6.3125 1.055 6.3125 0.375 6.3125 C0.375 5.6525 0.375 4.9925 0.375 4.3125 C-0.429375 4.003125 -1.23375 3.69375 -2.0625 3.375 C-4.625 2.3125 -4.625 2.3125 -5.625 1.3125 C-13.52939281 0.70085056 -20.330035 1.20341928 -27.625 4.3125 C-28.635625 4.704375 -29.64625 5.09625 -30.6875 5.5 C-31.326875 5.768125 -31.96625 6.03625 -32.625 6.3125 C-32.625 6.9725 -32.625 7.6325 -32.625 8.3125 C-33.615 8.6425 -34.605 8.9725 -35.625 9.3125 C-37.14532049 10.80845331 -37.14532049 10.80845331 -38.5625 12.625 C-40.80007897 15.33452491 -43.09233547 17.87028778 -45.625 20.3125 C-46.285 20.9725 -46.945 21.6325 -47.625 22.3125 C-48.285 22.3125 -48.945 22.3125 -49.625 22.3125 C-51.33180947 23.93803283 -53.00160195 25.60365995 -54.625 27.3125 C-55.285 26.9825 -55.945 26.6525 -56.625 26.3125 C-56.04492188 25.755625 -55.46484375 25.19875 -54.8671875 24.625 C-51.14601526 20.98979543 -47.62010431 17.49766772 -44.6875 13.1875 C-37.95847864 3.93279117 -27.84707386 0.31694968 -17.109375 -2.30078125 C-11.16767879 -3.22566792 -5.43013872 -2.5278232 0 0 Z " fill="#FAE5DD" transform="translate(218.625,99.6875)"/>
<path d="M0 0 C6.43809812 8.07881612 9.20291327 18.23499844 12.0625 28 C15.30167006 38.92979362 18.52106901 49.6488459 23.875 59.75 C27.77685796 67.31122758 30.98434025 75.04962429 34 83 C36.31 82.67 38.62 82.34 41 82 C40.67 82.66 40.34 83.32 40 84 C36.625 84.8125 36.625 84.8125 33 85 C30.36367837 83.01174789 29.47339858 81.05492308 28.5625 77.9375 C26.39584211 70.98377598 24.02041529 64.11802326 20 58 C17.29020678 53.82240213 15.70697284 49.65538046 14 45 C13.67 44.67 13.34 44.34 13 44 C12.72305795 42.25406097 12.47942617 40.50281592 12.25 38.75 C11.3127684 32.79999938 9.50306203 27.56537652 7.21875 22.0078125 C6.40502319 19.99957646 5.65709791 17.96344101 4.9765625 15.90625 C3.83573089 12.51113512 2.35409828 9.3716643 0.8046875 6.1484375 C0 4 0 4 0 0 Z " fill="#FEF3EB" transform="translate(121,45)"/>
<path d="M0 0 C0.33 0 0.66 0 1 0 C1 1.65 1 3.3 1 5 C0.20335937 4.95359375 -0.59328125 4.9071875 -1.4140625 4.859375 C-8.31649269 4.42509067 -8.31649269 4.42509067 -14.625 6.75 C-16.78815745 8.79930706 -18.00609853 10.21707588 -19 13 C-19.66 13 -20.32 13 -21 13 C-21.33 16.63 -21.66 20.26 -22 24 C-23.546875 24.226875 -25.09375 24.45375 -26.6875 24.6875 C-31.5760083 25.65831644 -33.76228109 27.1147373 -37 31 C-39.76259647 33.47179684 -41.92377784 34.96894653 -45.375 36.375 C-53.42653066 39.98430685 -58.32616029 46.04001397 -62 54 C-62.63018766 48.95849869 -61.37259186 45.97111344 -58.62109375 41.89453125 C-55.1650083 37.85549162 -50.89352518 35.51979123 -45.8125 34.125 C-42.72076347 32.88830539 -42.33834588 32.31170848 -40.625 29.625 C-37.9084409 25.45438522 -34.73142429 23.47299058 -30 22 C-27.55115565 21.71815188 -25.47418723 21.79381773 -23 22 C-23.0825 20.80375 -23.165 19.6075 -23.25 18.375 C-23.24203716 13.86803136 -21.93235061 11.48711965 -19 8 C-15.90757329 5.14545227 -13.09903527 3.04859042 -9 2 C-6.26734115 2.13765259 -3.70755998 2.54109153 -1 3 C-0.67 2.01 -0.34 1.02 0 0 Z " fill="#FCF1E7" transform="translate(115,97)"/>
<path d="M0 0 C3.94231941 4.64630501 7.79560036 9.18950493 8.25 15.4375 C8.12625 16.7059375 8.12625 16.7059375 8 18 C8.99 18 9.98 18 11 18 C14.25885589 23.84603919 16.55793813 29.12718697 17.54296875 35.7734375 C18.3578871 39.74355253 20.02624457 42.29658598 23 45 C22.38125 45.28875 21.7625 45.5775 21.125 45.875 C18.86674235 46.93720042 18.86674235 46.93720042 17 49 C16.979375 47.96875 16.95875 46.9375 16.9375 45.875 C16.3295706 40.98587767 14.21206874 37.1085309 11.94238281 32.78662109 C9.4243182 27.95628293 7.24543224 23.04286592 5.1875 18 C4.89794434 17.29431885 4.60838867 16.5886377 4.31005859 15.86157227 C0 5.21580364 0 5.21580364 0 0 Z " fill="#8D2D19" transform="translate(98,128)"/>
<path d="M0 0 C0 3.45470024 -0.35534723 3.69491155 -2.5 6.1875 C-12.80064203 19.63153044 -17.24082257 36.00855171 -22 52 C-23.21137619 48.36587142 -22.65071441 46.92025777 -21.6875 43.25 C-19.87427111 35.87232099 -18.88603666 28.5365236 -18 21 C-17.01 21 -16.02 21 -15 21 C-14.896875 20.13375 -14.79375 19.2675 -14.6875 18.375 C-13.96601586 14.83316877 -12.72876739 12.15687958 -11 9 C-10.34 9 -9.68 9 -9 9 C-8.690625 8.13375 -8.690625 8.13375 -8.375 7.25 C-6.50122558 4.18382368 -4.02419977 2.86599561 -1 1 C-0.67 0.67 -0.34 0.34 0 0 Z " fill="#F4D6C4" transform="translate(190,131)"/>
<path d="M0 0 C2.52824769 2.26670483 3.83381049 4.428265 5.25 7.5 C7.66749731 12.52721154 10.55446566 17.11160731 13.64453125 21.75 C15 24 15 24 15 26 C16.32 25.67 17.64 25.34 19 25 C19 25.66 19 26.32 19 27 C19.66 27 20.32 27 21 27 C21.268125 27.78375 21.53625 28.5675 21.8125 29.375 C22.84814432 32.28114923 22.84814432 32.28114923 26 34 C26.69658363 35.65438613 27.36096883 37.32254318 28 39 C28.99387334 40.33790641 29.9926892 41.67218122 31 43 C31 43.66 31 44.32 31 45 C25.5625 44.39583333 25.5625 44.39583333 23.3125 42.8125 C21.53889918 40.36324173 20.35316366 37.70632733 19 35 C18.05873315 33.55126754 17.09879538 32.11457098 16.125 30.6875 C13.60722236 26.98525061 11.41938655 23.2019065 9.29296875 19.265625 C7.48518001 16.09789851 5.42627996 13.12451498 3.33203125 10.140625 C1.22706274 6.75786036 0 4.00704916 0 0 Z " fill="#8E321D" transform="translate(75,137)"/>
<path d="M0 0 C0.721875 0.70125 1.44375 1.4025 2.1875 2.125 C2.1875 2.785 2.1875 3.445 2.1875 4.125 C2.8475 4.125 3.5075 4.125 4.1875 4.125 C4.0625 6 4.0625 6 3.1875 8.125 C0.125 9.375 0.125 9.375 -2.8125 10.125 C-2.4825 8.805 -2.1525 7.485 -1.8125 6.125 C-1.1525 6.125 -0.4925 6.125 0.1875 6.125 C-0.31506112 4.11067734 -0.31506112 4.11067734 -1.8125 2.125 C-8.05832789 -0.72635621 -14.1458047 0.31492537 -20.8125 1.125 C-20.8125 1.785 -20.8125 2.445 -20.8125 3.125 C-21.72 3.24875 -22.6275 3.3725 -23.5625 3.5 C-26.40220323 4.04609677 -28.33840591 4.69763803 -30.8125 6.125 C-30.8125 5.465 -30.8125 4.805 -30.8125 4.125 C-29.42172699 3.30386823 -28.02461107 2.49347505 -26.625 1.6875 C-25.84769531 1.23503906 -25.07039062 0.78257813 -24.26953125 0.31640625 C-17.64059399 -2.8979433 -6.39662976 -4.1164914 0 0 Z M-33.8125 6.125 C-32.8225 6.125 -31.8325 6.125 -30.8125 6.125 C-30.8125 6.785 -30.8125 7.445 -30.8125 8.125 C-29.4925 8.455 -28.1725 8.785 -26.8125 9.125 C-27.699375 9.5375 -28.58625 9.95 -29.5 10.375 C-32.65161217 12.04000265 -35.04728126 13.89933614 -37.8125 16.125 C-40.11059369 17.53366412 -42.44847424 18.8271035 -44.8125 20.125 C-43.58089546 15.47227174 -41.11499531 13.41297302 -37.46875 10.5546875 C-35.5598865 9.03575059 -35.5598865 9.03575059 -33.8125 6.125 Z " fill="#F8CDBD" transform="translate(216.8125,101.875)"/>
<path d="M0 0 C0.66 0 1.32 0 2 0 C10.94368939 22.23549654 10.94368939 22.23549654 9 28 C7.66666667 26.66666667 6.33333333 25.33333333 5 24 C4.2575 23.29875 3.515 22.5975 2.75 21.875 C1 20 1 20 1 18 C-3.41223637 17.92121006 -5.82727856 18.02440841 -9.27734375 20.89453125 C-12.86575772 24.80739495 -15.32194981 27.61379847 -16 33 C-16.66 33 -17.32 33 -18 33 C-17.67 30.36 -17.34 27.72 -17 25 C-16.34 25 -15.68 25 -15 25 C-14.79375 24.2575 -14.5875 23.515 -14.375 22.75 C-12.5026965 19.005393 -10.75319208 17.84247611 -7 16 C-2.7431589 15.47697515 0.92857921 15.64285974 5 17 C3.05620069 11.00804764 3.05620069 11.00804764 0.8125 5.125 C0 3 0 3 0 0 Z " fill="#FADECC" transform="translate(111,85)"/>
<path d="M0 0 C0.59023852 3.49042285 0.73309434 6.5226249 0 10 C-2.08961663 12.75713306 -4.33495761 14.91013499 -6.93359375 17.1875 C-9.07529947 18.83599982 -9.07529947 18.83599982 -10 21 C-10.66 21 -11.32 21 -12 21 C-12 19.68 -12 18.36 -12 17 C-11.34 17 -10.68 17 -10 17 C-8.76226676 14.11369851 -8.76226676 14.11369851 -9.5 11.5 C-10 9 -10 9 -9 6 C-9.66 6 -10.32 6 -11 6 C-11.33 6.66 -11.66 7.32 -12 8 C-12 7.01 -12 6.02 -12 5 C-12.66 5 -13.32 5 -14 5 C-14 4.01 -14 3.02 -14 2 C-13.01 2.33 -12.02 2.66 -11 3 C-11 3.66 -11 4.32 -11 5 C-10.01 5 -9.02 5 -8 5 C-7.67 4.01 -7.34 3.02 -7 2 C-4 0 -4 0 0 0 Z " fill="#F29C7E" transform="translate(203,110)"/>
<path d="M0 0 C3.60465313 2.40310209 4.56912881 4.12969987 5.52734375 8.2890625 C5.80159117 9.85096688 6.07240567 11.41347779 6.33984375 12.9765625 C6.89122928 15.37451819 6.89122928 15.37451819 10 17 C10.51171875 19.3828125 10.51171875 19.3828125 10.6875 22.125 C10.75324219 23.03507812 10.81898438 23.94515625 10.88671875 24.8828125 C10.92410156 25.58148438 10.96148437 26.28015625 11 27 C9.02 28.32 7.04 29.64 5 31 C4.67 30.34 4.34 29.68 4 29 C4.66 29 5.32 29 6 29 C6 28.34 6 27.68 6 27 C3.36 27 0.72 27 -2 27 C-1.3125 25.125 -1.3125 25.125 0 23 C1.2684375 22.5359375 1.2684375 22.5359375 2.5625 22.0625 C3.366875 21.711875 4.17125 21.36125 5 21 C5.89386164 18.45224694 5.89386164 18.45224694 6 16 C5.360625 15.855625 4.72125 15.71125 4.0625 15.5625 C2 15 2 15 1 14 C0.76472227 11.65012738 0.58613583 9.29443961 0.4375 6.9375 C0.35371094 5.64714844 0.26992187 4.35679688 0.18359375 3.02734375 C0.12300781 2.02832031 0.06242188 1.02929688 0 0 Z " fill="#F6BBA0" transform="translate(138,102)"/>
<path d="M0 0 C0.66 0 1.32 0 2 0 C2 0.99 2 1.98 2 3 C2.99 3.33 3.98 3.66 5 4 C5 5.65 5 7.3 5 9 C8.3 9.33 11.6 9.66 15 10 C14.01 10.33 13.02 10.66 12 11 C12 11.66 12 12.32 12 13 C27.18 13 42.36 13 58 13 C58 13.66 58 14.32 58 15 C51.25564795 15.05074705 44.51134523 15.0857534 37.7668457 15.10986328 C35.47288167 15.11991528 33.17893043 15.1335589 30.88500977 15.15087891 C27.58606812 15.17516209 24.28729603 15.18649123 20.98828125 15.1953125 C19.96414627 15.20563507 18.94001129 15.21595764 17.88484192 15.22659302 C16.92422348 15.22674408 15.96360504 15.22689514 14.97387695 15.22705078 C14.13226517 15.231492 13.29065338 15.23593323 12.42353821 15.24050903 C9.5921015 14.95952064 7.53389366 14.29311008 5 13 C1.99760108 8.66320156 0.51857924 5.3154372 0 0 Z " fill="#BC9175" transform="translate(86,226)"/>
<path d="M0 0 C-0.33 1.98 -0.66 3.96 -1 6 C-2.5778125 6.37125 -2.5778125 6.37125 -4.1875 6.75 C-7.83332034 7.78114111 -10.15511219 9.47121084 -13 12 C-13.99 12.66 -14.98 13.32 -16 14 C-17.29449495 17.88348484 -17.13203312 20.90697336 -17 25 C-16.67 25.33 -16.34 25.66 -16 26 C-15.92794489 27.68608966 -15.91613932 29.37500659 -15.9375 31.0625 C-15.94652344 31.98160156 -15.95554688 32.90070313 -15.96484375 33.84765625 C-15.97644531 34.55792969 -15.98804688 35.26820313 -16 36 C-15.01 36.33 -14.02 36.66 -13 37 C-13.66 37 -14.32 37 -15 37 C-14.67 38.32 -14.34 39.64 -14 41 C-18.69374977 36.51032631 -18.53733847 32.2630663 -19 26 C-19.09023438 25.06800781 -19.18046875 24.13601562 -19.2734375 23.17578125 C-19.63383349 17.02330682 -18.86224946 13.47998397 -14.7890625 8.7890625 C-6 0 -6 0 0 0 Z " fill="#F8DFCE" transform="translate(73,132)"/>
<path d="M0 0 C1.375 2.0625 1.375 2.0625 2 4 C1.05125 3.79375 0.1025 3.5875 -0.875 3.375 C-2.421875 3.189375 -2.421875 3.189375 -4 3 C-4.66 3.66 -5.32 4.32 -6 5 C-5.34 5.33 -4.68 5.66 -4 6 C-4.57584432 8.38564077 -5.22227595 10.66682784 -6 13 C-5.91343435 15.39870613 -5.76001509 17.79537281 -5.5625 20.1875 C-5.40974609 22.09595703 -5.40974609 22.09595703 -5.25390625 24.04296875 C-5.17011719 25.01878906 -5.08632812 25.99460937 -5 27 C-7.49615163 24.0844949 -8.36428849 22.19856395 -8.5625 18.375 C-8.67526962 14.75053549 -8.67526962 14.75053549 -11 12 C-11.46987836 7.01928939 -11.06065836 4.00239939 -8 0 C-5.04063954 -1.47968023 -3.13239866 -0.84835797 0 0 Z " fill="#F7AA96" transform="translate(104,18)"/>
<path d="M0 0 C4.53663302 2.80839187 7.06859475 6.64476934 10 11 C9.67 11.66 9.34 12.32 9 13 C6.42825433 10.42825433 3.91630088 7.90127797 1.5625 5.125 C-0.85429106 2.67169578 -0.85429106 2.67169578 -4.1875 2.9375 C-7.00821449 3.74285849 -7.00821449 3.74285849 -8.375 5.625 C-9.22407492 8.85148468 -9.24586552 11.68081549 -9 15 C-8.34 15.66 -7.68 16.32 -7 17 C-6.875 20.125 -6.875 20.125 -7 23 C-11.25256131 18.74743869 -12.62190353 12.93152949 -13.140625 7.0859375 C-12.91796559 3.78315622 -11.37422344 2.17071858 -9 0 C-5.81229009 -1.59385496 -3.40972958 -0.75129635 0 0 Z " fill="#FDE0D5" transform="translate(103,15)"/>
<path d="M0 0 C3.91025991 0.57929776 6.16056336 2.3061755 9 5 C10.75 8.125 10.75 8.125 12 11 C12.33 11.66 12.66 12.32 13 13 C11.68 13 10.36 13 9 13 C9 12.34 9 11.68 9 11 C8.34 11.66 7.68 12.32 7 13 C7 13.33 7 13.66 7 14 C5.02 14 3.04 14 1 14 C1.66 13.67 2.32 13.34 3 13 C2.319375 11.96875 1.63875 10.9375 0.9375 9.875 C-0.77423963 6.92600295 -1.00995139 6.13683163 -0.75 2.5625 C-0.5025 1.716875 -0.255 0.87125 0 0 Z " fill="#D07F6F" transform="translate(87,168)"/>
<path d="M0 0 C1.39318601 3.89096949 0.78624526 7.56554757 0.25 11.5625 C0.11392334 12.62017578 0.11392334 12.62017578 -0.02490234 13.69921875 C-0.83892003 19.61934736 -2.18918052 25.30195472 -4 31 C-4.66 31 -5.32 31 -6 31 C-6.66 33.64 -7.32 36.28 -8 39 C-8.33 39 -8.66 39 -9 39 C-9.27098599 32.90281525 -8.65155878 26.89259861 -7 21 C-6.34 20.67 -5.68 20.34 -5 20 C-4.30772968 17.19019327 -4.30772968 17.19019327 -3.875 13.9375 C-3.70742187 12.83277344 -3.53984375 11.72804687 -3.3671875 10.58984375 C-3.24601563 9.73519531 -3.12484375 8.88054687 -3 8 C-2.34 8 -1.68 8 -1 8 C-1.020625 6.865625 -1.04125 5.73125 -1.0625 4.5625 C-1 1 -1 1 0 0 Z " fill="#EAC1A7" transform="translate(171,153)"/>
<path d="M0 0 C3.4481982 1.26153593 4.65696105 2.83217727 6.5625 5.9375 C6.8125 8.75 6.8125 8.75 6.5625 10.9375 C4.5825 11.9275 4.5825 11.9275 2.5625 12.9375 C2.8925 11.9475 3.2225 10.9575 3.5625 9.9375 C1.5825 10.2675 -0.3975 10.5975 -2.4375 10.9375 C-2.4375 9.9475 -2.4375 8.9575 -2.4375 7.9375 C-3.0975 7.9375 -3.7575 7.9375 -4.4375 7.9375 C-4.7675 5.9575 -5.0975 3.9775 -5.4375 1.9375 C-2.4375 -0.0625 -2.4375 -0.0625 0 0 Z " fill="#D1836D" transform="translate(108.4375,168.0625)"/>
<path d="M0 0 C0.33 0.66 0.66 1.32 1 2 C-0.32 3.32 -1.64 4.64 -3 6 C-2.42655063 3.13275314 -2.1385485 2.1385485 0 0 Z M-3 7 C-5.54642509 10.11229733 -8.25510724 10.77883932 -12 12 C-12.33 12.66 -12.66 13.32 -13 14 C-14.20239258 15.6340332 -14.20239258 15.6340332 -16 17 C-18.63549805 17.15698242 -18.63549805 17.15698242 -21.76171875 16.85546875 C-22.87998047 16.75556641 -23.99824219 16.65566406 -25.15039062 16.55273438 C-26.90125977 16.37194336 -26.90125977 16.37194336 -28.6875 16.1875 C-29.86634766 16.07857422 -31.04519531 15.96964844 -32.25976562 15.85742188 C-35.17485368 15.58597643 -38.08769456 15.29961469 -41 15 C-39 12 -39 12 -36.375 11.3125 C-35.59125 11.209375 -34.8075 11.10625 -34 11 C-34 11.66 -34 12.32 -34 13 C-32.576875 12.9690625 -32.576875 12.9690625 -31.125 12.9375 C-28 13 -28 13 -26 14 C-24.33765189 14.14601706 -22.66849493 14.22089834 -21 14.25 C-20.113125 14.27578125 -19.22625 14.3015625 -18.3125 14.328125 C-17.549375 14.21984375 -16.78625 14.1115625 -16 14 C-15.34 13.01 -14.68 12.02 -14 11 C-13.34 11 -12.68 11 -12 11 C-11.67 10.01 -11.34 9.02 -11 8 C-7.68510482 6.25531833 -6.63361056 5.78879648 -3 7 Z " fill="#E09B7C" transform="translate(130,168)"/>
<path d="M0 0 C0.66 0 1.32 0 2 0 C0.49567076 6.54322068 -1.28705877 12.14972541 -4.9140625 17.83203125 C-7.34756131 22.69027528 -7.16711484 28.25410129 -7.31640625 33.5859375 C-7.33718735 34.28772125 -7.35796844 34.989505 -7.37937927 35.71255493 C-7.44426324 37.93327958 -7.5034723 40.15411276 -7.5625 42.375 C-7.60574354 43.88933371 -7.6493596 45.40365683 -7.69335938 46.91796875 C-7.79988086 50.61186655 -7.90131677 54.30588354 -8 58 C-9.32 57.67 -10.64 57.34 -12 57 C-11.01 57 -10.02 57 -9 57 C-9.01047363 56.04746338 -9.02094727 55.09492676 -9.03173828 54.11352539 C-9.06825181 50.54081052 -9.09101318 46.96811175 -9.10986328 43.39526367 C-9.11985006 41.85617285 -9.13344419 40.31710065 -9.15087891 38.77807617 C-9.24098532 30.61284536 -9.26801739 22.92126073 -7 15 C-6.66196789 13.66785017 -6.32739434 12.33480404 -6 11 C-5.34 11 -4.68 11 -4 11 C-4 10.01 -4 9.02 -4 8 C-3.34 8 -2.68 8 -2 8 C-1.7834375 6.576875 -1.7834375 6.576875 -1.5625 5.125 C-1 2 -1 2 0 0 Z " fill="#F4DFD2" transform="translate(165,184)"/>
<path d="M0 0 C3.48601782 0.1884334 4.78097461 0.78689421 7.3125 3.25 C9.12328851 6.2009146 9.38684492 7.61510691 9 11 C2.9453125 11.9765625 2.9453125 11.9765625 1 12 C-1 10 -1 10 -1.23046875 7.87109375 C-1.20919922 6.66646484 -1.20919922 6.66646484 -1.1875 5.4375 C-1.18105469 4.63183594 -1.17460938 3.82617188 -1.16796875 2.99609375 C-1 1 -1 1 0 0 Z " fill="#D0826E" transform="translate(119,156)"/>
<path d="M0 0 C0.99 0.33 1.98 0.66 3 1 C3 1.99 3 2.98 3 4 C3.99 4.33 4.98 4.66 6 5 C6.9921875 7.00390625 6.9921875 7.00390625 7.875 9.5625 C10.36815822 16.19506214 12.49331478 21.74665739 19 25 C16.03 25.33 13.06 25.66 10 26 C8.31365155 22.22579156 6.80821742 18.50499031 5.5625 14.5625 C4.54530157 11.40269211 3.33120995 8.51435878 1.8125 5.5625 C0 2 0 2 0 0 Z " fill="#DDC1B3" transform="translate(77,216)"/>
<path d="M0 0 C1.9375 0.8125 1.9375 0.8125 4 2 C4.33 2.99 4.66 3.98 5 5 C4.34 5 3.68 5 3 5 C2.67 5.66 2.34 6.32 2 7 C2 6.34 2 5.68 2 5 C1.443125 5.495 0.88625 5.99 0.3125 6.5 C-2 8 -2 8 -7 8 C-7 12.95 -7 17.9 -7 23 C-7.66 23 -8.32 23 -9 23 C-11.76081837 16.6381142 -12.63176001 10.90767437 -13 4 C-12.01 4.495 -12.01 4.495 -11 5 C-10.5859375 7.28515625 -10.5859375 7.28515625 -10.375 10.0625 C-10.30023438 10.98160156 -10.22546875 11.90070313 -10.1484375 12.84765625 C-10.07496094 13.91306641 -10.07496094 13.91306641 -10 15 C-9.34 15 -8.68 15 -8 15 C-8 10.71 -8 6.42 -8 2 C-7.34 2.33 -6.68 2.66 -6 3 C-6 3.99 -6 4.98 -6 6 C-4.35 5.67 -2.7 5.34 -1 5 C-0.67 3.35 -0.34 1.7 0 0 Z " fill="#F7B398" transform="translate(131,110)"/>
<path d="M0 0 C0.66 0.33 1.32 0.66 2 1 C1.67 1.66 1.34 2.32 1 3 C3.97 3 6.94 3 10 3 C9.01 3.495 9.01 3.495 8 4 C8 4.66 8 5.32 8 6 C6 7.625 6 7.625 4 9 C5.32 10.32 6.64 11.64 8 13 C6.35 13 4.7 13 3 13 C3 12.34 3 11.68 3 11 C0.03 10.505 0.03 10.505 -3 10 C-4.26339822 6.20980534 -3.49719015 4.62477616 -2 1 C-1.34 0.67 -0.68 0.34 0 0 Z " fill="#F2A787" transform="translate(136,125)"/>
<path d="M0 0 C0.66 0.33 1.32 0.66 2 1 C2 3.97 2 6.94 2 10 C5.1964086 11.06546953 7.65747276 11.07427838 11 11 C11.33 9.68 11.66 8.36 12 7 C12.75 9.75 12.75 9.75 13 13 C11.5 15.3125 11.5 15.3125 9 17 C5.25 17.75 5.25 17.75 2 18 C2.33 17.34 2.66 16.68 3 16 C2.01 15.34 1.02 14.68 0 14 C-0.546875 10.99609375 -0.546875 10.99609375 -0.75 7.4375 C-0.82734375 6.26058594 -0.9046875 5.08367187 -0.984375 3.87109375 C-0.98953125 2.92363281 -0.9946875 1.97617188 -1 1 C-0.67 0.67 -0.34 0.34 0 0 Z " fill="#BA6C50" transform="translate(117,156)"/>
<path d="M0 0 C0.33 0.66 0.66 1.32 1 2 C1.66 2 2.32 2 3 2 C3.268125 2.78375 3.53625 3.5675 3.8125 4.375 C4.84814432 7.28114923 4.84814432 7.28114923 8 9 C8.69658363 10.65438613 9.36096883 12.32254318 10 14 C10.99387334 15.33790641 11.9926892 16.67218122 13 18 C13 18.66 13 19.32 13 20 C10.125 19.6875 10.125 19.6875 7 19 C5 16 5 16 4.1875 13.25 C2.91950245 9.77969091 1.2734712 7.40295148 -0.9765625 4.515625 C-2 3 -2 3 -2 1 C-1.34 0.67 -0.68 0.34 0 0 Z " fill="#B1543D" transform="translate(93,162)"/>
<path d="M0 0 C1.27953905 3.84292536 1.03266268 7.62150199 0.87890625 11.609375 C0.85529526 12.33618469 0.83168427 13.06299438 0.80735779 13.81182861 C0.73101128 16.12476558 0.64686319 18.43734293 0.5625 20.75 C0.50925021 22.3215972 0.45651002 23.89321176 0.40429688 25.46484375 C0.27543568 29.31012196 0.13957873 33.15509651 0 37 C-1.32 36.67 -2.64 36.34 -4 36 C-3.67 35.34 -3.34 34.68 -3 34 C-2.86870976 31.71193052 -2.79710777 29.42033216 -2.75390625 27.12890625 C-2.7209718 25.73632175 -2.68776008 24.34374377 -2.65429688 22.95117188 C-2.60685885 20.75452103 -2.56241782 18.55789745 -2.52319336 16.36108398 C-2.4834751 14.24174594 -2.43193609 12.12294713 -2.37890625 10.00390625 C-2.3538501 8.73361572 -2.32879395 7.4633252 -2.30297852 6.15454102 C-2 3 -2 3 0 0 Z " fill="#F0C9AE" transform="translate(156,204)"/>
<path d="M0 0 C4.44686166 4.03695542 5.95213061 9.24412906 6.4375 15.125 C7.06535485 19.4502223 8.46313014 21.51180394 11 25 C12.42314121 28.50311681 11.74665476 31.34968783 11 35 C10.67 35 10.34 35 10 35 C9.731875 34.01 9.46375 33.02 9.1875 32 C8.41502081 29.24352748 7.46521865 26.64545948 6.375 24 C4.88185047 20.15832885 4.74404578 17.09526759 5 13 C4.34 13 3.68 13 3 13 C2.49487756 11.39743892 1.99608373 9.79288208 1.5 8.1875 C1.2215625 7.29417969 0.943125 6.40085937 0.65625 5.48046875 C0 3 0 3 0 0 Z " fill="#F8B79D" transform="translate(126,71)"/>
<path d="M0 0 C0.33 0.66 0.66 1.32 1 2 C0.01 2.33 -0.98 2.66 -2 3 C-3.52032049 4.49595331 -3.52032049 4.49595331 -4.9375 6.3125 C-7.17507897 9.02202491 -9.46733547 11.55778778 -12 14 C-12.66 14.66 -13.32 15.32 -14 16 C-14.66 16 -15.32 16 -16 16 C-17.70680947 17.62553283 -19.37660195 19.29115995 -21 21 C-21.66 20.67 -22.32 20.34 -23 20 C-22.39671875 19.40832031 -21.7934375 18.81664063 -21.171875 18.20703125 C-16.1679081 13.28044195 -16.1679081 13.28044195 -11.625 7.9375 C-11.08875 7.298125 -10.5525 6.65875 -10 6 C-9.01 6 -8.02 6 -7 6 C-7 5.34 -7 4.68 -7 4 C-4.69 2.68 -2.38 1.36 0 0 Z " fill="#FAE2D7" transform="translate(185,106)"/>
<path d="M0 0 C0.99 0 1.98 0 3 0 C2.67 1.65 2.34 3.3 2 5 C-0.07553648 5.5534764 -1.84365964 6 -4 6 C-5.79341527 7.32854809 -5.79341527 7.32854809 -7.625 9 C-8.57246094 9.8353125 -8.57246094 9.8353125 -9.5390625 10.6875 C-10.02117187 11.120625 -10.50328125 11.55375 -11 12 C-11.32613618 7.32538149 -10.70582788 4.83325617 -8 1 C-5.69 1.66 -3.38 2.32 -1 3 C-0.67 2.01 -0.34 1.02 0 0 Z " fill="#EC956E" transform="translate(136,120)"/>
<path d="M0 0 C0.66 0.33 1.32 0.66 2 1 C2 3.64 2 6.28 2 9 C1.39671875 9.10957031 0.7934375 9.21914062 0.171875 9.33203125 C-4.75396695 10.20940905 -4.75396695 10.20940905 -9.0625 12.5625 C-12.19922066 14.88974436 -15.13156118 14.81281748 -19 15 C-19.66 14.34 -20.32 13.68 -21 13 C-19.01432292 12.57682292 -17.02864583 12.15364583 -15.04296875 11.73046875 C-12.91788655 11.14578416 -12.91788655 11.14578416 -11.5625 9.46875 C-9.39835796 7.43445649 -7.7346301 7.50224871 -4.8125 7.3125 C-3.46091797 7.21388672 -3.46091797 7.21388672 -2.08203125 7.11328125 C-1.39496094 7.07589844 -0.70789063 7.03851563 0 7 C0 4.69 0 2.38 0 0 Z " fill="#EB9E7B" transform="translate(94,120)"/>
<path d="M0 0 C0.5508974 2.12488996 1.03233331 4.20477761 1.375 6.375 C1.92283094 9.14955016 1.92283094 9.14955016 3.5625 12 C5.01131166 15.02360695 5.29019723 16.71109809 5 20 C5.66 20 6.32 20 7 20 C7.33 21.65 7.66 23.3 8 25 C3.03206833 20.37766358 -1.18680069 14.35342047 -2.453125 7.57421875 C-2.5 5.4375 -2.5 5.4375 -2 2 C-1.34 1.34 -0.68 0.68 0 0 Z " fill="#E3C5B6" transform="translate(69,191)"/>
<path d="M0 0 C0.66 0 1.32 0 2 0 C2 0.99 2 1.98 2 3 C2.99 3.33 3.98 3.66 5 4 C5 5.65 5 7.3 5 9 C8.3 9.33 11.6 9.66 15 10 C14.01 10.33 13.02 10.66 12 11 C12 11.66 12 12.32 12 13 C14.97 13 17.94 13 21 13 C21 13.33 21 13.66 21 14 C7.60269631 15.21334071 7.60269631 15.21334071 3.92578125 12.4296875 C1.48351749 8.57193754 0.34224442 4.56325897 0 0 Z " fill="#C58A69" transform="translate(86,226)"/>
<path d="M0 0 C2.15912302 2.15912302 3.2351664 4.1019181 4.625 6.8125 C5.07101563 7.66457031 5.51703125 8.51664063 5.9765625 9.39453125 C7.05498084 12.13997032 7.19919797 14.08017719 7 17 C6.29875 16.195625 5.5975 15.39125 4.875 14.5625 C1.73708407 11.76566189 0.11241237 11.28691249 -4 11 C-3.67 9.68 -3.34 8.36 -3 7 C-2.01 7 -1.02 7 0 7 C0 4.69 0 2.38 0 0 Z " fill="#C26148" transform="translate(108,157)"/>
<path d="M0 0 C0.33 0 0.66 0 1 0 C1 1.98 1 3.96 1 6 C-0.010625 6.103125 -1.02125 6.20625 -2.0625 6.3125 C-6.31943405 7.0557742 -9.21136224 7.95413561 -13 10 C-14.04289755 12.06890419 -14.04289755 12.06890419 -14 14 C-14.66 14 -15.32 14 -16 14 C-16.33 14.66 -16.66 15.32 -17 16 C-17.0625 13.4375 -17.0625 13.4375 -16 10 C-13.20733913 7.36278475 -10.14493974 5.19540986 -7 3 C-6.67 2.67 -6.34 2.34 -6 2 C-4.00041636 1.95919217 -1.99954746 1.95745644 0 2 C0 1.34 0 0.68 0 0 Z " fill="#EFB497" transform="translate(72,136)"/>
<path d="M0 0 C2.0625 2.3125 2.0625 2.3125 3 5 C2.1875 7.3125 2.1875 7.3125 1 9 C0 8 0 8 -0.0625 4.9375 C-0.0315625 3.4834375 -0.0315625 3.4834375 0 2 C-4.10970412 1.7582527 -7.13737004 2.65647654 -11 4 C-11.99 4 -12.98 4 -14 4 C-13.3125 2.0625 -13.3125 2.0625 -12 0 C-7.93202414 -1.51096246 -4.14811736 -1.07543783 0 0 Z " fill="#EA987B" transform="translate(114,110)"/>
<path d="M0 0 C4 1 4 1 5.25 2.875 C6 5 6 5 6 8 C6.31802943 9.66965451 6.64984951 11.33678518 7 13 C7 13.33 7 13.66 7 14 C4.36 14 1.72 14 -1 14 C-0.67 13.34 -0.34 12.68 0 12 C0.99 12 1.98 12 3 12 C2.01 8.04 1.02 4.08 0 0 Z " fill="#C77456" transform="translate(59,153)"/>
<path d="M0 0 C2.40921705 2.40921705 3.53812156 4.94334509 5 8 C3.68 8 2.36 8 1 8 C1 7.34 1 6.68 1 6 C0.34 6.66 -0.32 7.32 -1 8 C-1 8.33 -1 8.66 -1 9 C-2.98 9 -4.96 9 -7 9 C-6.34 8.67 -5.68 8.34 -5 8 C-5.66 6.35 -6.32 4.7 -7 3 C-3.535 2.505 -3.535 2.505 0 2 C0 1.34 0 0.68 0 0 Z " fill="#CE7B64" transform="translate(95,173)"/>
<path d="M0 0 C1.375 2.0625 1.375 2.0625 2 4 C1.113125 3.773125 0.22625 3.54625 -0.6875 3.3125 C-3.98011716 2.75696404 -3.98011716 2.75696404 -6.8125 4.0625 C-9.63076 6.55867315 -9.75475087 8.32126307 -10 12 C-10.33 12 -10.66 12 -11 12 C-11.29363808 7.00815264 -11.07836372 4.02555256 -8 0 C-5.04063954 -1.47968023 -3.13239866 -0.84835797 0 0 Z " fill="#F9BDA7" transform="translate(104,18)"/>
<path d="M0 0 C0.33 0.99 0.66 1.98 1 3 C0.33613281 3.09796875 -0.32773438 3.1959375 -1.01171875 3.296875 C-6.58712383 4.24103119 -9.60865134 5.34054278 -14 9 C-17.3125 9.25 -17.3125 9.25 -20 9 C-17 7 -17 7 -14 6 C-13.67 5.34 -13.34 4.68 -13 4 C-12.01 4 -11.02 4 -10 4 C-10 3.01 -10 2.02 -10 1 C-6.7 1.33 -3.4 1.66 0 2 C0 1.34 0 0.68 0 0 Z " fill="#F1B594" transform="translate(93,124)"/>
<path d="M0 0 C3.125 0.375 3.125 0.375 6 1 C5.67 1.99 5.34 2.98 5 4 C3.68 3.67 2.36 3.34 1 3 C1.16371094 3.70511719 1.32742187 4.41023438 1.49609375 5.13671875 C2.01699824 8.09658688 2.09866732 10.81061273 2.0625 13.8125 C2.05347656 14.78832031 2.04445313 15.76414062 2.03515625 16.76953125 C2.02355469 17.50558594 2.01195313 18.24164063 2 19 C1.34 18.67 0.68 18.34 0 18 C-0.53203084 15.33097864 -0.9332002 12.75762769 -1.25 10.0625 C-1.353125 9.32064453 -1.45625 8.57878906 -1.5625 7.81445312 C-1.80034856 5.88543138 -1.90883076 3.9414904 -2 2 C-1.34 1.34 -0.68 0.68 0 0 Z " fill="#F1927E" transform="translate(99,27)"/>
<path d="M0 0 C-5.625 2 -5.625 2 -9 2 C-9 3.32 -9 4.64 -9 6 C-9.99 6 -10.98 6 -12 6 C-12.33 6.99 -12.66 7.98 -13 9 C-14.98 9.33 -16.96 9.66 -19 10 C-8.46236559 -2.82078853 -8.46236559 -2.82078853 0 0 Z " fill="#F8D3C0" transform="translate(92,122)"/>
<path d="M0 0 C1 2 1 2 0.50390625 4.0234375 C-1.32913024 8.60222575 -2.71645382 11.33196307 -7.25 13.5625 C-8.48837488 14.07095684 -9.73531853 14.56104502 -11 15 C-10.67 13.35 -10.34 11.7 -10 10 C-9.01 10 -8.02 10 -7 10 C-7 9.34 -7 8.68 -7 8 C-5.68 7.67 -4.36 7.34 -3 7 C-2.87625 6.21625 -2.7525 5.4325 -2.625 4.625 C-2 2 -2 2 0 0 Z " fill="#D49A77" transform="translate(157,199)"/>
<path d="M0 0 C0.66 0.33 1.32 0.66 2 1 C1.195625 1.763125 0.39125 2.52625 -0.4375 3.3125 C-3.58972235 6.61848929 -4.36591471 9.56140297 -5 14 C-4.62277985 16.72502965 -4.62277985 16.72502965 -4 19 C-4.66 19.33 -5.32 19.66 -6 20 C-8.65306122 10.79231693 -8.65306122 10.79231693 -7 7 C-4.80841256 4.5043167 -2.46018735 2.22894259 0 0 Z " fill="#DA7557" transform="translate(133,124)"/>
<path d="M0 0 C2.475 0.495 2.475 0.495 5 1 C5.67789024 3.35143176 6.34240747 5.70538624 7 8.0625 C7.19078125 8.71927734 7.3815625 9.37605469 7.578125 10.05273438 C8.79596429 14.4674018 9.19227394 18.37941677 9 23 C6.62072568 18.76448149 5.82786143 14.28609457 4.78125 9.58203125 C4.39453125 8.30392578 4.39453125 8.30392578 4 7 C3.34 6.67 2.68 6.34 2 6 C1.27306096 4.02111039 0.60183749 2.02045442 0 0 Z " fill="#EC9A81" transform="translate(101,47)"/>
<path d="M0 0 C5.35054774 4.74253095 6.71074852 10.71661635 7.18359375 17.71875 C7.18690806 19.81339156 7.10289093 21.9078844 7 24 C5.19015657 21.28523485 4.50635562 19.68908906 3.7109375 16.62109375 C3.49179688 15.78255859 3.27265625 14.94402344 3.046875 14.08007812 C2.82515625 13.20802734 2.6034375 12.33597656 2.375 11.4375 C2.14554687 10.56158203 1.91609375 9.68566406 1.6796875 8.78320312 C0 2.28941127 0 2.28941127 0 0 Z " fill="#F7DCD1" transform="translate(99,45)"/>
<path d="M0 0 C3.94231941 4.64630501 7.79560036 9.18950493 8.25 15.4375 C8.12625 16.7059375 8.12625 16.7059375 8 18 C7.34 16.68 6.68 15.36 6 14 C5.34 14 4.68 14 4 14 C3.32471777 12.42032193 2.66010306 10.83608097 2 9.25 C1.62875 8.36828125 1.2575 7.4865625 0.875 6.578125 C0 4 0 4 0 0 Z " fill="#A8482D" transform="translate(98,128)"/>
<path d="M0 0 C0 3 0 3 -1.71484375 4.97265625 C-2.44832031 5.66230469 -3.18179688 6.35195312 -3.9375 7.0625 C-6.86434414 9.73700793 -6.86434414 9.73700793 -9 13 C-9.66 13 -10.32 13 -11 13 C-11 11.68 -11 10.36 -11 9 C-10.34 9 -9.68 9 -9 9 C-8.79375 8.05125 -8.5875 7.1025 -8.375 6.125 C-7 3 -7 3 -3.9375 1.6875 C-2.968125 1.460625 -1.99875 1.23375 -1 1 C-0.67 0.67 -0.34 0.34 0 0 Z " fill="#F2CCBD" transform="translate(202,118)"/>
<path d="M0 0 C2.7842826 0.10807751 3.89724582 0.44124224 6.04296875 2.26171875 C7.538155 4.01261381 8.90186859 5.77853215 10.1875 7.6875 C9.8575 8.3475 9.5275 9.0075 9.1875 9.6875 C8.589375 9.048125 7.99125 8.40875 7.375 7.75 C4.1972497 4.75383543 1.69234674 4.56424135 -2.5 4.625 C-3.30824219 4.63402344 -4.11648437 4.64304687 -4.94921875 4.65234375 C-5.56410156 4.66394531 -6.17898437 4.67554687 -6.8125 4.6875 C-5.01478136 1.09206273 -4.04629335 0.72965946 0 0 Z " fill="#F7CBB3" transform="translate(107.8125,102.3125)"/>
<path d="M0 0 C0.99 0.495 0.99 0.495 2 1 C2.4140625 3.28515625 2.4140625 3.28515625 2.625 6.0625 C2.69976562 6.98160156 2.77453125 7.90070313 2.8515625 8.84765625 C2.92503906 9.91306641 2.92503906 9.91306641 3 11 C3.66 11 4.32 11 5 11 C5.33 10.34 5.66 9.68 6 9 C6 12.3 6 15.6 6 19 C5.34 19 4.68 19 4 19 C1.23918163 12.6381142 0.36823999 6.90767437 0 0 Z " fill="#F6BDA3" transform="translate(118,114)"/>
<path d="M0 0 C3.05936637 3.75467691 5 7.08113061 5 12 C6.32 12 7.64 12 9 12 C8.67 13.65 8.34 15.3 8 17 C7.67 16.01 7.34 15.02 7 14 C6.01 14 5.02 14 4 14 C4 13.01 4 12.02 4 11 C3.34 11 2.68 11 2 11 C2 9.68 2 8.36 2 7 C1.34 7 0.68 7 0 7 C-0.38133299 5.0085944 -0.71325582 3.00720923 -1 1 C-0.67 0.67 -0.34 0.34 0 0 Z " fill="#EA9375" transform="translate(118,129)"/>
<path d="M0 0 C0.66 0 1.32 0 2 0 C2 1.32 2 2.64 2 4 C2.66 4 3.32 4 4 4 C5.75747614 8.50353262 6.19294408 12.17639811 6 17 C3.59032361 14.09083887 2.34602049 11.56302424 1.3125 7.9375 C1.06113281 7.08027344 0.80976562 6.22304687 0.55078125 5.33984375 C0 3 0 3 0 0 Z " fill="#F0DACF" transform="translate(61,181)"/>
<path d="M0 0 C0.66 0.33 1.32 0.66 2 1 C2 3.97 2 6.94 2 10 C5.1964086 11.06546953 7.65747276 11.07427838 11 11 C11.33 9.68 11.66 8.36 12 7 C12.042721 8.66611905 12.04063832 10.33382885 12 12 C11 13 11 13 9.00390625 13.1328125 C8.19824219 13.13023437 7.39257812 13.12765625 6.5625 13.125 C5.75941406 13.12757813 4.95632812 13.13015625 4.12890625 13.1328125 C2 13 2 13 0 12 C-0.44921875 9.53125 -0.44921875 9.53125 -0.6875 6.5 C-0.77386719 5.4996875 -0.86023438 4.499375 -0.94921875 3.46875 C-0.96597656 2.6540625 -0.98273438 1.839375 -1 1 C-0.67 0.67 -0.34 0.34 0 0 Z " fill="#C5735E" transform="translate(117,156)"/>
<path d="M0 0 C2.8364141 2.76177162 3.19788349 4.41593674 3.375 8.3125 C3.045 7.6525 2.715 6.9925 2.375 6.3125 C1.715 6.3125 1.055 6.3125 0.375 6.3125 C0.106875 5.69375 -0.16125 5.075 -0.4375 4.4375 C-1.58056848 2.0129767 -1.58056848 2.0129767 -4.625 0.3125 C-7.21385171 0.01258931 -9.71649082 -0.19615225 -12.3125 -0.3125 C-13.3653418 -0.37050781 -13.3653418 -0.37050781 -14.43945312 -0.4296875 C-16.16754655 -0.5237334 -17.89623675 -0.6066968 -19.625 -0.6875 C-19.625 -1.0175 -19.625 -1.3475 -19.625 -1.6875 C-12.85686786 -3.29080074 -6.32727781 -2.94545691 0 0 Z " fill="#FDF4ED" transform="translate(218.625,99.6875)"/>
<path d="M0 0 C0.66 0 1.32 0 2 0 C2.86992154 2.05590454 3.72037689 4.12005336 4.5625 6.1875 C5.03816406 7.33605469 5.51382813 8.48460938 6.00390625 9.66796875 C7.02459541 13.08227404 7.26085368 14.69832268 6 18 C5.01 18.66 4.02 19.32 3 20 C2.67 19.01 2.34 18.02 2 17 C2.99 17 3.98 17 5 17 C3.05620069 11.00804764 3.05620069 11.00804764 0.8125 5.125 C0 3 0 3 0 0 Z " fill="#F9E6D7" transform="translate(111,85)"/>
<path d="M0 0 C0.66 0 1.32 0 2 0 C2.28875 1.0725 2.5775 2.145 2.875 3.25 C3.73773751 6.1257917 4.64225387 8.37502414 6 11 C6.75 13.125 6.75 13.125 7 15 C6.34 15.66 5.68 16.32 5 17 C2.54582388 11.326858 0.53753096 6.18160604 0 0 Z " fill="#F6BCA1" transform="translate(117,89)"/>
<path d="M0 0 C0.66 0.33 1.32 0.66 2 1 C1.67 1.515625 1.34 2.03125 1 2.5625 C-0.34292714 5.8358849 -0.25952656 8.49639145 0 12 C0.66 12.66 1.32 13.32 2 14 C2.125 17.125 2.125 17.125 2 20 C-1.38347683 16.61652317 -2.80986907 12.58442444 -3.375 7.875 C-2.94737767 4.59656212 -1.89246196 2.68098777 0 0 Z " fill="#F6D1C7" transform="translate(94,18)"/>
<path d="M0 0 C-0.56943014 3.30269479 -1.40929363 4.87191977 -4 7 C-4.86625 7.515625 -5.7325 8.03125 -6.625 8.5625 C-9.11190375 9.77912906 -9.11190375 9.77912906 -10 12 C-10.66 12 -11.32 12 -12 12 C-10.65263662 9.06559801 -9.11433035 6.74926573 -7 4.3125 C-6.484375 3.71050781 -5.96875 3.10851562 -5.4375 2.48828125 C-3.63305698 0.62009432 -2.61553534 0 0 0 Z " fill="#EAB296" transform="translate(191,128)"/>
<path d="M0 0 C3.14889975 2.0992665 3.74629714 2.59709222 5 6 C5.44944748 8.66604074 5.73062484 11.3062484 6 14 C5.01 14 4.02 14 3 14 C2.49528803 12.23050388 1.99639315 10.45934777 1.5 8.6875 C1.2215625 7.70136719 0.943125 6.71523437 0.65625 5.69921875 C0 3 0 3 0 0 Z " fill="#F6C8B3" transform="translate(138,102)"/>
<path d="M0 0 C0.33 0.99 0.66 1.98 1 3 C0.67 3.66 0.34 4.32 0 5 C-1.0725 5.28875 -2.145 5.5775 -3.25 5.875 C-7.05880345 7.01764104 -9.09137572 8.35579611 -12 11 C-12.33 10.34 -12.66 9.68 -13 9 C-4.738041 1.33257403 -4.738041 1.33257403 0 0 Z " fill="#F5C1A5" transform="translate(72,133)"/>
<path d="M0 0 C0 0.33 0 0.66 0 1 C-1.6396875 1.4021875 -1.6396875 1.4021875 -3.3125 1.8125 C-6.73731936 2.91540793 -7.86079253 3.32599067 -10 6 C-11 7 -12 8 -13 9 C-12.7452901 5.26425478 -12.36763692 3.42170118 -9.875 0.5625 C-6.15738677 -1.45794197 -4.03970096 -0.95051787 0 0 Z " fill="#FCEBE4" transform="translate(103,15)"/>
<path d="M0 0 C4.03384128 2.07143201 5.92856799 3.96615872 8 8 C5.36 8 2.72 8 0 8 C0.20625 7.401875 0.4125 6.80375 0.625 6.1875 C1.30671915 3.71549154 1.30671915 3.71549154 -1 1 C-0.67 0.67 -0.34 0.34 0 0 Z " fill="#A5472A" transform="translate(64,158)"/>
<path d="M0 0 C0 0.33 0 0.66 0 1 C-6.15234375 1.09765625 -6.15234375 1.09765625 -8 1 C-8.33 0.67 -8.66 0.34 -9 0 C-10.85287502 -0.07226502 -12.70833878 -0.0838122 -14.5625 -0.0625 C-15.57441406 -0.05347656 -16.58632812 -0.04445313 -17.62890625 -0.03515625 C-18.41136719 -0.02355469 -19.19382813 -0.01195313 -20 0 C-17.1469362 -2.8530638 -14.60554472 -2.70518505 -10.6875 -3.046875 C-6.59975611 -2.97557714 -3.68932205 -1.70801947 0 0 Z " fill="#FABDAC" transform="translate(216,104)"/>
<path d="M0 0 C3.03901272 2.56528426 4.24652224 5.42319941 5.75 9.0625 C6.19859375 10.12597656 6.6471875 11.18945312 7.109375 12.28515625 C8 15 8 15 7 17 C4.16625119 13.79663178 3.4794463 11.21912747 3 7 C2.34 7 1.68 7 1 7 C0.67 4.69 0.34 2.38 0 0 Z " fill="#FEECE3" transform="translate(113,28)"/>
<path d="M0 0 C3.38946688 2.25964458 3.85336716 3.20729138 5 7 C5.125 9.8125 5.125 9.8125 5 12 C3.68 12.33 2.36 12.66 1 13 C0.67 8.71 0.34 4.42 0 0 Z " fill="#DF9E81" transform="translate(57,153)"/>
<path d="M0 0 C0.33 0.99 0.66 1.98 1 3 C-2.3 5.64 -5.6 8.28 -9 11 C-9 8 -9 8 -6.75 5.5 C-4.56458892 3.51326265 -2.41145588 1.69695043 0 0 Z " fill="#F0B39A" transform="translate(183,127)"/>
<path d="M0 0 C0 0.99 0 1.98 0 3 C-0.99 3 -1.98 3 -3 3 C-3 5.64 -3 8.28 -3 11 C-3.33 11 -3.66 11 -4 11 C-4.66 7.37 -5.32 3.74 -6 0 C-3.50907189 -1.24546405 -2.58919267 -0.7767578 0 0 Z " fill="#EFD2C3" transform="translate(64,169)"/>
<path d="M0 0 C2.65845673 2.37000248 4.11161791 4.81984154 5.6875 8 C6.12449219 8.86625 6.56148438 9.7325 7.01171875 10.625 C8 13 8 13 8 16 C5.34154327 13.62999752 3.88838209 11.18015846 2.3125 8 C1.87550781 7.13375 1.43851562 6.2675 0.98828125 5.375 C0 3 0 3 0 0 Z " fill="#A84B30" transform="translate(75,137)"/>
<path d="M0 0 C0.99 0 1.98 0 3 0 C3.86883706 1.57533086 4.71959068 3.16064509 5.5625 4.75 C6.03816406 5.63171875 6.51382813 6.5134375 7.00390625 7.421875 C8.07998186 10.20701188 8.06528748 11.26980214 7 14 C6.32845067 12.71086513 5.66291141 11.41859796 5 10.125 C4.62875 9.40570313 4.2575 8.68640625 3.875 7.9453125 C3 6 3 6 3 4 C2.34 4 1.68 4 1 4 C0.67 2.68 0.34 1.36 0 0 Z " fill="#AB4934" transform="translate(106,146)"/>
<path d="M0 0 C0.99 0 1.98 0 3 0 C3.33 2.31 3.66 4.62 4 7 C3.67 6.34 3.34 5.68 3 5 C1.8553125 5.495 1.8553125 5.495 0.6875 6 C-2 7 -2 7 -5 7 C-4.67 5.68 -4.34 4.36 -4 3 C-2.35 3 -0.7 3 1 3 C0.67 2.01 0.34 1.02 0 0 Z " fill="#D77359" transform="translate(118,140)"/>
<path d="M0 0 C-0.350625 0.61875 -0.70125 1.2375 -1.0625 1.875 C-1.5265625 2.926875 -1.5265625 2.926875 -2 4 C-1.67 4.66 -1.34 5.32 -1 6 C-1.99 5.67 -2.98 5.34 -4 5 C-4 5.66 -4 6.32 -4 7 C-4.33 7.66 -4.66 8.32 -5 9 C-7 7 -7 7 -7.125 3.375 C-7.08375 2.26125 -7.0425 1.1475 -7 0 C-2.25 -1.125 -2.25 -1.125 0 0 Z " fill="#E58764" transform="translate(81,135)"/>
<path d="M0 0 C0.66 0 1.32 0 2 0 C2 2.64 2 5.28 2 8 C-0.64 8 -3.28 8 -6 8 C-5 6 -5 6 -2 5 C-0.78130071 2.49552484 -0.78130071 2.49552484 0 0 Z " fill="#FAC8B1" transform="translate(146,119)"/>
<path d="M0 0 C0.66 0 1.32 0 2 0 C2 0.66 2 1.32 2 2 C3.32 2 4.64 2 6 2 C5.34 3.98 4.68 5.96 4 8 C3.34 8 2.68 8 2 8 C2 7.34 2 6.68 2 6 C1.34 6 0.68 6 0 6 C0 4.02 0 2.04 0 0 Z " fill="#CF9C81" transform="translate(74,205)"/>
<path d="M0 0 C3.46560787 2.67796972 4.08264666 5.83662716 5 10 C5.125 13.4375 5.125 13.4375 5 16 C2.57395248 13.57395248 2.24156481 11.85807224 1.375 8.5625 C1.11460938 7.59441406 0.85421875 6.62632813 0.5859375 5.62890625 C0 3 0 3 0 0 Z " fill="#F8E5DB" transform="translate(106,69)"/>
<path d="M0 0 C3.9226818 3.24635735 5.96609666 7.0527242 7 12 C6.57421875 14.25 6.57421875 14.25 6 16 C4.9901527 14.08850332 3.99245505 12.17058431 3 10.25 C2.443125 9.18265625 1.88625 8.1153125 1.3125 7.015625 C0 4 0 4 0 0 Z " fill="#F9CFBC" transform="translate(117,41)"/>
<path d="M0 0 C0.66 0.66 1.32 1.32 2 2 C-0.6734043 7.32405622 -2.8845759 11.63843559 -8 15 C-8 14.01 -8 13.02 -8 12 C-7.236875 11.2575 -6.47375 10.515 -5.6875 9.75 C-2.570465 6.56047582 -1.53834879 4.12925203 0 0 Z " fill="#E49779" transform="translate(140,153)"/>
<path d="M0 0 C0.96661363 3.12180401 0.98988909 5.52083795 0.5625 8.75 C0.40974609 9.94882813 0.40974609 9.94882813 0.25390625 11.171875 C0.12822266 12.07679688 0.12822266 12.07679688 0 13 C-0.66 13 -1.32 13 -2 13 C-2.33 13.66 -2.66 14.32 -3 15 C-3 12.69 -3 10.38 -3 8 C-2.34 8 -1.68 8 -1 8 C-1.020625 6.865625 -1.04125 5.73125 -1.0625 4.5625 C-1 1 -1 1 0 0 Z " fill="#EBB69B" transform="translate(171,153)"/>
<path d="M0 0 C0.33 0 0.66 0 1 0 C1 1.98 1 3.96 1 6 C-5.625 7 -5.625 7 -9 7 C-6.16569547 3.7457985 -4.31392226 2.4793247 0 2 C0 1.34 0 0.68 0 0 Z " fill="#ECA183" transform="translate(72,136)"/>
<path d="M0 0 C2 3 2 3 1.69140625 5.35546875 C1.46324219 6.22816406 1.23507813 7.10085937 1 8 C0.82339844 8.88300781 0.64679688 9.76601562 0.46484375 10.67578125 C-0.0234375 13.1171875 -0.51171875 15.55859375 -1 18 C-1.33 18 -1.66 18 -2 18 C-2.27560214 11.79895188 -1.22899346 6.06815522 0 0 Z " fill="#E4B598" transform="translate(164,174)"/>
<path d="M0 0 C0 0.66 0 1.32 0 2 C1.98 2 3.96 2 6 2 C5.67 2.66 5.34 3.32 5 4 C1.04 4 -2.92 4 -7 4 C-4.83989616 0.75984424 -3.8842653 0 0 0 Z " fill="#DA8F74" transform="translate(96,179)"/>
<path d="M0 0 C5 2 5 2 10 4 C8.375 5.125 8.375 5.125 6 6 C2.75 5.125 2.75 5.125 0 4 C0 2.68 0 1.36 0 0 Z " fill="#F6CAB7" transform="translate(149,127)"/>
<path d="M0 0 C0.66 0.33 1.32 0.66 2 1 C0.625 2.5 0.625 2.5 -1 4 C-1.66 4 -2.32 4 -3 4 C-3 4.66 -3 5.32 -3 6 C-4.32 6 -5.64 6 -7 6 C-7.33 6.66 -7.66 7.32 -8 8 C-8 7.01 -8 6.02 -8 5 C-8.66 5 -9.32 5 -10 5 C-10 4.01 -10 3.02 -10 2 C-9.01 2.33 -8.02 2.66 -7 3 C-7 3.66 -7 4.32 -7 5 C-6.01 5 -5.02 5 -4 5 C-3.67 4.01 -3.34 3.02 -3 2 C-2.01 1.34 -1.02 0.68 0 0 Z " fill="#F6A48D" transform="translate(199,110)"/>
<path d="M0 0 C3.47695381 3.63499716 4.48364069 8.1117985 5 13 C4.546875 15.28125 4.546875 15.28125 4 17 C3.69255859 15.82630859 3.69255859 15.82630859 3.37890625 14.62890625 C3.10949219 13.61699219 2.84007813 12.60507813 2.5625 11.5625 C2.16224609 10.04849609 2.16224609 10.04849609 1.75390625 8.50390625 C1.24021923 6.08247999 1.24021923 6.08247999 0 5 C-0.04063832 3.33382885 -0.042721 1.66611905 0 0 Z " fill="#F8B49C" transform="translate(121,53)"/>
<path d="M0 0 C0.33 0.66 0.66 1.32 1 2 C-0.32 3.32 -1.64 4.64 -3 6 C-2.42655063 3.13275314 -2.1385485 2.1385485 0 0 Z M-3 7 C-5.97 8.32 -8.94 9.64 -12 11 C-11 8 -11 8 -8.625 6.75 C-6 6 -6 6 -3 7 Z " fill="#D89474" transform="translate(130,168)"/>
<path d="M0 0 C0.66 0 1.32 0 2 0 C1.28547412 4.76350585 0.20465156 9.34201396 -1 14 C-1.33 14 -1.66 14 -2 14 C-2.3690205 4.58997722 -2.3690205 4.58997722 0 0 Z " fill="#F2CEB8" transform="translate(176,147)"/>
<path d="M0 0 C2.97 0.495 2.97 0.495 6 1 C5.01 1.66 4.02 2.32 3 3 C1.59866565 4.03425441 0.20309695 5.07635312 -1.1875 6.125 C-1.90292969 6.66382812 -2.61835938 7.20265625 -3.35546875 7.7578125 C-3.89816406 8.16773437 -4.44085938 8.57765625 -5 9 C-4 7 -3 5 -2 3 C-1.34 3 -0.68 3 0 3 C0 2.01 0 1.02 0 0 Z " fill="#FCC7B4" transform="translate(184,109)"/>
<path d="M0 0 C0.66 0.33 1.32 0.66 2 1 C0.7934375 2.0828125 0.7934375 2.0828125 -0.4375 3.1875 C-3.02292072 6.02515689 -3.68042813 7.27166147 -4 11 C-4.66 11 -5.32 11 -6 11 C-5.73831243 5.67901938 -5.73831243 5.67901938 -5 3 C-2.5625 0.9375 -2.5625 0.9375 0 0 Z " fill="#F7D1BD" transform="translate(99,107)"/>
<path d="M0 0 C3.33717549 1.3809002 5.22301036 2.8201238 7 6 C6.6875 8.25 6.6875 8.25 6 10 C5.67 9.01 5.34 8.02 5 7 C3.04402816 5.60287726 1.04563599 4.26220093 -1 3 C-0.67 2.01 -0.34 1.02 0 0 Z " fill="#F7B8A9" transform="translate(106,22)"/>
<path d="M0 0 C3.93809611 3.76687454 3.93809611 3.76687454 4.09765625 6.9453125 C4.06510417 8.96354167 4.03255208 10.98177083 4 13 C1.99706653 9.99559979 1.50728374 8.29006055 0.875 4.8125 C0.70742187 3.91144531 0.53984375 3.01039062 0.3671875 2.08203125 C0.24601562 1.39496094 0.12484375 0.70789063 0 0 Z " fill="#F8B297" transform="translate(126,71)"/>
<path d="M0 0 C0.99 0.495 0.99 0.495 2 1 C3.28317892 4.84953676 3.06643637 7.94738135 3 12 C2.67 10.68 2.34 9.36 2 8 C1.34 8 0.68 8 0 8 C0 5.36 0 2.72 0 0 Z " fill="#E9C5B6" transform="translate(61,173)"/>
<path d="M0 0 C2.94956528 1.36944102 5.52468811 2.87830409 8 5 C8 5.66 8 6.32 8 7 C8.99 7.33 9.98 7.66 11 8 C10.01 8.495 10.01 8.495 9 9 C7.68103535 8.07161713 6.37001311 7.13194268 5.0625 6.1875 C4.33160156 5.66542969 3.60070312 5.14335937 2.84765625 4.60546875 C1 3 1 3 0 0 Z " fill="#DD8E72" transform="translate(72,171)"/>
<path d="M0 0 C0.66 0.33 1.32 0.66 2 1 C-1.33333333 4.33333333 -4.66666667 7.66666667 -8 11 C-7.43040847 7.37386801 -6.07625466 5.74482259 -3.4375 3.25 C-2.79683594 2.63640625 -2.15617188 2.0228125 -1.49609375 1.390625 C-1.00238281 0.93171875 -0.50867188 0.4728125 0 0 Z " fill="#D27048" transform="translate(133,124)"/>
<path d="M0 0 C0 0.99 0 1.98 0 3 C-0.66 3.66 -1.32 4.32 -2 5 C-3.32 5 -4.64 5 -6 5 C-6.33 5.66 -6.66 6.32 -7 7 C-7 5.68 -7 4.36 -7 3 C-5.5459375 2.5359375 -5.5459375 2.5359375 -4.0625 2.0625 C-1.15934208 1.30476658 -1.15934208 1.30476658 0 0 Z " fill="#F0BFA8" transform="translate(202,118)"/>
<path d="M0 0 C8.13496933 -0.3190184 8.13496933 -0.3190184 12 2 C13.3125 4.625 13.3125 4.625 14 7 C13.360625 6.38125 12.72125 5.7625 12.0625 5.125 C8.18436924 2.43405212 4.59564421 1.76093455 0 1 C0 0.67 0 0.34 0 0 Z " fill="#F7C4A9" transform="translate(104,105)"/>
<path d="M0 0 C0.99 0.495 0.99 0.495 2 1 C2.6328125 3.50390625 2.6328125 3.50390625 3.125 6.5625 C3.29257812 7.57441406 3.46015625 8.58632812 3.6328125 9.62890625 C3.75398438 10.41136719 3.87515625 11.19382813 4 12 C3.34 12 2.68 12 2 12 C0.70756464 7.8803623 -0.26252625 4.33168317 0 0 Z " fill="#EBC5B1" transform="translate(55,152)"/>
<path d="M0 0 C0.99 0.495 0.99 0.495 2 1 C1.95875 2.0725 1.9175 3.145 1.875 4.25 C1.99101939 7.73058168 2.29268093 9.11889908 4 12 C4 12.66 4 13.32 4 14 C3.34 14 2.68 14 2 14 C-0.3992233 9.35150485 -0.19957409 5.08913926 0 0 Z " fill="#E39476" transform="translate(73,134)"/>
<path d="M0 0 C0.66 0 1.32 0 2 0 C0.515 5.445 0.515 5.445 -1 11 C-1.33 11 -1.66 11 -2 11 C-2.28571429 3.57142857 -2.28571429 3.57142857 0 0 Z " fill="#F6DFD2" transform="translate(165,184)"/>
<path d="M0 0 C1.32 1.32 2.64 2.64 4 4 C3.03114628 5.68496298 2.03013277 7.35178756 1 9 C0.67 9 0.34 9 0 9 C0 6.03 0 3.06 0 0 Z " fill="#F0A988" transform="translate(144,138)"/>
<path d="M0 0 C0.99 0 1.98 0 3 0 C3.33 0.99 3.66 1.98 4 3 C7.465 2.505 7.465 2.505 11 2 C10.67 2.66 10.34 3.32 10 4 C6.625 4.8125 6.625 4.8125 3 5 C1.0625 3.6875 1.0625 3.6875 0 2 C0 1.34 0 0.68 0 0 Z " fill="#FCEEE5" transform="translate(151,125)"/>
<path d="M0 0 C0.598125 0.226875 1.19625 0.45375 1.8125 0.6875 C0.6059375 1.244375 0.6059375 1.244375 -0.625 1.8125 C-3.49922896 3.4984337 -3.49922896 3.4984337 -4 6.875 C-4.061875 7.803125 -4.12375 8.73125 -4.1875 9.6875 C-4.5175 9.6875 -4.8475 9.6875 -5.1875 9.6875 C-5.5508218 3.26881488 -5.5508218 3.26881488 -3.9375 0.6875 C-2.1875 -0.3125 -2.1875 -0.3125 0 0 Z " fill="#F8B69D" transform="translate(98.1875,20.3125)"/>
<path d="M0 0 C0.99 0.33 1.98 0.66 3 1 C3.33 2.65 3.66 4.3 4 6 C2.68 6 1.36 6 0 6 C0 4.02 0 2.04 0 0 Z " fill="#D98874" transform="translate(109,171)"/>
<path d="M0 0 C2.375 -0.125 2.375 -0.125 5 0 C7 2 7 2 7 5 C4.525 4.01 4.525 4.01 2 3 C2 2.34 2 1.68 2 1 C1.34 0.67 0.68 0.34 0 0 Z " fill="#DF9A80" transform="translate(65,167)"/>
<path d="M0 0 C0.33 0.99 0.66 1.98 1 3 C-2.32534757 4.10844919 -4.62182575 3.84454356 -8 3 C-5.08235 1.0549 -3.37462715 0.54723683 0 0 Z " fill="#F7C5AA" transform="translate(91,122)"/>
<path d="M0 0 C0.66 0.33 1.32 0.66 2 1 C2 3.64 2 6.28 2 9 C0.68 9 -0.64 9 -2 9 C-1.34 8.67 -0.68 8.34 0 8 C0 5.36 0 2.72 0 0 Z " fill="#EB9773" transform="translate(98,114)"/>
<path d="M0 0 C3.61290323 3.61290323 3.61290323 3.61290323 4 7 C3.72949547 9.00946222 3.40632091 11.01354224 3 13 C2.67 13 2.34 13 2 13 C1.34 8.71 0.68 4.42 0 0 Z " fill="#F8C3AA" transform="translate(134,93)"/>
<path d="M0 0 C0.66 0.33 1.32 0.66 2 1 C2 3.64 2 6.28 2 9 C1.34 9 0.68 9 0 9 C-1.125 2.25 -1.125 2.25 0 0 Z " fill="#F29175" transform="translate(121,62)"/>
<path d="M0 0 C0.33 0.66 0.66 1.32 1 2 C2.32 1.67 3.64 1.34 5 1 C5.33 1.66 5.66 2.32 6 3 C5.38125 3.28875 4.7625 3.5775 4.125 3.875 C1.86674235 4.93720042 1.86674235 4.93720042 0 7 C0 4.69 0 2.38 0 0 Z " fill="#A75236" transform="translate(115,170)"/>
<path d="M0 0 C1.65 0 3.3 0 5 0 C5.33 0.99 5.66 1.98 6 3 C5.34 3.66 4.68 4.32 4 5 C4 4.01 4 3.02 4 2 C3.01 3.485 3.01 3.485 2 5 C1.01 4.01 0.02 3.02 -1 2 C-0.67 1.34 -0.34 0.68 0 0 Z " fill="#D08063" transform="translate(66,156)"/>
<path d="M0 0 C0.6875 1.8125 0.6875 1.8125 1 4 C-0.4375 5.75 -0.4375 5.75 -2 7 C-3.32 6.34 -4.64 5.68 -6 5 C-5.01 4.67 -4.02 4.34 -3 4 C-2.67 3.34 -2.34 2.68 -2 2 C-1.34 2 -0.68 2 0 2 C0 1.34 0 0.68 0 0 Z " fill="#EAA389" transform="translate(202,114)"/>
<path d="M0 0 C2.72426311 2.35277269 3.8141763 4.62496331 5 8 C4.34 8 3.68 8 3 8 C3 7.34 3 6.68 3 6 C2.34 6 1.68 6 1 6 C0.34 4.35 -0.32 2.7 -1 1 C-0.67 0.67 -0.34 0.34 0 0 Z " fill="#D1846A" transform="translate(77,145)"/>
<path d="M0 0 C0.66 0.33 1.32 0.66 2 1 C0.6875 3.5 0.6875 3.5 -1 6 C-1.99 6 -2.98 6 -4 6 C-4 5.01 -4 4.02 -4 3 C-2 1.3125 -2 1.3125 0 0 Z " fill="#FAAF94" transform="translate(196,109)"/>
<path d="" fill="#FFFFFF" transform="translate(0,0)"/>
<path d="" fill="#FFFFFF" transform="translate(0,0)"/>
<path d="" fill="#FFFFFF" transform="translate(0,0)"/>
<path d="" fill="#FFFFFF" transform="translate(0,0)"/>
<path d="" fill="#FFFFFF" transform="translate(0,0)"/>
<path d="" fill="#FFFFFF" transform="translate(0,0)"/>
<path d="" fill="#FFFFFF" transform="translate(0,0)"/>
<path d="" fill="#FFFFFF" transform="translate(0,0)"/>
<path d="" fill="#FFFFFF" transform="translate(0,0)"/>
<path d="" fill="#FFFFFF" transform="translate(0,0)"/>
<path d="" fill="#FFFFFF" transform="translate(0,0)"/>
<path d="" fill="#FFFFFF" transform="translate(0,0)"/>
<path d="" fill="#FFFFFF" transform="translate(0,0)"/>
<path d="" fill="#FFFFFF" transform="translate(0,0)"/>
<path d="" fill="#FFFFFF" transform="translate(0,0)"/>
<path d="" fill="#FFFFFF" transform="translate(0,0)"/>
<path d="" fill="#FFFFFF" transform="translate(0,0)"/>
<path d="" fill="#FFFFFF" transform="translate(0,0)"/>
<path d="" fill="#FFFFFF" transform="translate(0,0)"/>
<path d="" fill="#FFFFFF" transform="translate(0,0)"/>
<path d="" fill="#FFFFFF" transform="translate(0,0)"/>
<path d="" fill="#FFFFFF" transform="translate(0,0)"/>
<path d="" fill="#FFFFFF" transform="translate(0,0)"/>
<path d="" fill="#FFFFFF" transform="translate(0,0)"/>
<path d="" fill="#FFFFFF" transform="translate(0,0)"/>
<path d="" fill="#FFFFFF" transform="translate(0,0)"/>
<path d="" fill="#FFFFFF" transform="translate(0,0)"/>
<path d="" fill="#FFFFFF" transform="translate(0,0)"/>
<path d="" fill="#FFFFFF" transform="translate(0,0)"/>
<path d="" fill="#FFFFFF" transform="translate(0,0)"/>
<path d="" fill="#FFFFFF" transform="translate(0,0)"/>
<path d="" fill="#FFFFFF" transform="translate(0,0)"/>
<path d="" fill="#FFFFFF" transform="translate(0,0)"/>
<path d="" fill="#FFFFFF" transform="translate(0,0)"/>
<path d="" fill="#FFFFFF" transform="translate(0,0)"/>
<path d="" fill="#FFFFFF" transform="translate(0,0)"/>
<path d="" fill="#FFFFFF" transform="translate(0,0)"/>
<path d="" fill="#FFFFFF" transform="translate(0,0)"/>
<path d="" fill="#FFFFFF" transform="translate(0,0)"/>
<path d="" fill="#FFFFFF" transform="translate(0,0)"/>
<path d="" fill="#FFFFFF" transform="translate(0,0)"/>
<path d="" fill="#FFFFFF" transform="translate(0,0)"/>
<path d="" fill="#FFFFFF" transform="translate(0,0)"/>
<path d="" fill="#FFFFFF" transform="translate(0,0)"/>
<path d="" fill="#FFFFFF" transform="translate(0,0)"/>
<path d="" fill="#FFFFFF" transform="translate(0,0)"/>
<path d="" fill="#FFFFFF" transform="translate(0,0)"/>
<path d="" fill="#FFFFFF" transform="translate(0,0)"/>
<path d="" fill="#FFFFFF" transform="translate(0,0)"/>
<path d="" fill="#FFFFFF" transform="translate(0,0)"/>
<path d="" fill="#FFFFFF" transform="translate(0,0)"/>
<path d="" fill="#FFFF00" transform="translate(0,0)"/>
<path d="" fill="#FFFFFF" transform="translate(0,0)"/>
<path d="" fill="#FFFFFF" transform="translate(0,0)"/>
<path d="" fill="#FFFFFF" transform="translate(0,0)"/>
<path d="" fill="#FFFFFF" transform="translate(0,0)"/>
<path d="" fill="#FFFFFF" transform="translate(0,0)"/>
<path d="" fill="#FFFFFF" transform="translate(0,0)"/>
<path d="" fill="#FFFFFF" transform="translate(0,0)"/>
<path d="" fill="#FFFFFF" transform="translate(0,0)"/>
<path d="" fill="#FFFFFF" transform="translate(0,0)"/>
<path d="" fill="#FFFFFF" transform="translate(0,0)"/>
<path d="" fill="#FFFFFF" transform="translate(0,0)"/>
<path d="" fill="#FFFFFF" transform="translate(0,0)"/>
<path d="" fill="#FFFFFF" transform="translate(0,0)"/>
<path d="" fill="#FFFFFF" transform="translate(0,0)"/>
</svg>
