<svg width="50" height="51" viewBox="0 0 50 51" fill="none" xmlns="http://www.w3.org/2000/svg">
<path d="M38.4143 39.4979C37.9504 41.933 35.8214 43.6949 33.3425 43.6949H16.6251C14.1461 43.6949 12.0171 41.933 11.5532 39.4979L7.78271 19.7027L24.8439 7.08606L42.1856 19.6983L38.4143 39.4979Z" fill="#FFC800"/>
<path opacity="0.5" fill-rule="evenodd" clip-rule="evenodd" d="M20.5559 36.1311C20.5559 35.2106 21.302 34.4644 22.2225 34.4644H28.8892C29.8097 34.4644 30.5559 35.2106 30.5559 36.1311C30.5559 37.0515 29.8097 37.7978 28.8892 37.7978H22.2225C21.302 37.7978 20.5559 37.0515 20.5559 36.1311Z" fill="#945151"/>
<path d="M30.4352 25.4884C30.4352 28.49 28.0019 30.9231 25.0004 30.9231C21.9988 30.9231 19.5657 28.49 19.5657 25.4884C19.5657 22.4869 21.9988 20.0536 25.0004 20.0536C28.0019 20.0536 30.4352 22.4869 30.4352 25.4884Z" fill="#945151"/>
<path d="M25.2632 4.46474C26.0048 4.46113 26.7551 4.68547 27.4001 5.15374L46.7898 19.1324C48.4032 20.3047 48.7609 22.563 47.5887 24.1764C46.4167 25.7894 44.1593 26.1474 42.5459 24.9761L25.2503 12.5073L7.95634 24.975L7.95498 24.9761C6.34161 26.147 4.08426 25.7892 2.91233 24.1761C1.74008 22.5627 2.09775 20.3044 3.71122 19.1322L3.7137 19.1303L23.0998 5.15433C23.7523 4.68066 24.5136 4.45578 25.2632 4.46474Z" fill="#FF4B4B"/>
</svg>
