<svg width="50" height="51" viewBox="0 0 50 51" fill="none" xmlns="http://www.w3.org/2000/svg">
<path d="M38.0773 8.37616H11.9224V39.2864H38.0773V8.37616Z" fill="#AA572A"/>
<path fill-rule="evenodd" clip-rule="evenodd" d="M3.60059 6.59273C3.60059 5.60785 4.39899 4.80945 5.38388 4.80945H10.1393C11.1242 4.80945 11.9226 5.60785 11.9226 6.59273V21.4535H38.0774V6.59273C38.0774 5.60785 38.8759 4.80945 39.8607 4.80945H44.6162C45.601 4.80945 46.3995 5.60785 46.3995 6.59273V43.4474C46.3995 44.4322 45.601 45.2307 44.6162 45.2307H5.38388C4.39899 45.2307 3.60059 44.4322 3.60059 43.4474V6.59273ZM11.9226 39.2863H38.0774V28.5866H11.9226V39.2863Z" fill="#FFC800"/>
<path d="M46.3994 33.2575L33.5284 45.2305H6.17065L12.5608 39.2861H38.0773V28.5864H24.063L31.7311 21.4533H38.0773V15.5498L46.3994 7.80841V33.2575Z" fill="#FBE56D"/>
<path d="M11.9226 21.3593L3.60059 29.1007V15.2514L11.9226 7.51001V21.3593Z" fill="#FBE56D"/>
<path d="M20.5369 16.4294H29.8825C31.3573 16.4294 32.5528 17.6655 32.5528 19.1905V30.2355C32.5528 31.7603 31.3573 32.9966 29.8825 32.9966H20.5369C19.0622 32.9966 17.8667 31.7603 17.8667 30.2355V19.1905C17.8667 17.6655 19.0622 16.4294 20.5369 16.4294Z" fill="#FFC800"/>
<path d="M28.4655 22.6417C28.4655 20.7355 26.9711 19.1902 25.1277 19.1902C23.2843 19.1902 21.79 20.7355 21.79 22.6417C21.79 23.7677 22.3113 24.7677 23.118 25.3977L22.2721 28.4774C22.2383 28.6 22.2213 28.7271 22.2213 28.8546C22.2213 29.6171 22.8189 30.2352 23.5564 30.2352H26.6975C26.821 30.2352 26.9436 30.2175 27.0624 30.1827C27.7716 29.9744 28.1833 29.2108 27.9819 28.4774L27.1361 25.3986C27.9436 24.7688 28.4655 23.7683 28.4655 22.6417Z" fill="#CD7900"/>
</svg>
