<svg width="50" height="51" viewBox="0 0 50 51" fill="none" xmlns="http://www.w3.org/2000/svg">
<path d="M43.4782 39.1505V18.4983H6.52173V39.1505C6.52173 41.5517 8.4127 43.4983 10.7453 43.4983H39.2547C41.5873 43.4983 43.4782 41.5517 43.4782 39.1505Z" fill="#A56644"/>
<path d="M4.3479 10.8896C4.3479 8.48833 6.29449 6.54175 8.69573 6.54175H18.4783V18.4983H4.3479V10.8896Z" fill="#EA2B2B"/>
<path d="M4.3479 18.4983H18.4783V19.0418C18.4783 22.9438 15.3152 26.107 11.4131 26.107C7.51111 26.107 4.3479 22.9438 4.3479 19.0418V18.4983Z" fill="#FF4945"/>
<path d="M18.4783 18.4983H31.5217V19.0418C31.5217 22.9438 28.6019 26.107 25 26.107C21.3982 26.107 18.4783 22.9438 18.4783 19.0418V18.4983Z" fill="white"/>
<path d="M31.5217 18.4983H45.6522V19.0418C45.6522 22.9438 42.489 26.107 38.5869 26.107C34.6849 26.107 31.5217 22.9438 31.5217 19.0418V18.4983Z" fill="#FF4945"/>
<path d="M18.4783 6.54175H31.5217V18.4983H18.4783V6.54175Z" fill="#D0D0D0"/>
<path d="M31.5217 6.54175H41.3043C43.7055 6.54175 45.6522 8.48833 45.6522 10.8896V18.4983H31.5217V6.54175Z" fill="#EA2B2B"/>
<path d="M11.9565 32.6287C11.9565 31.428 12.9298 30.4548 14.1305 30.4548H19.5652C20.7659 30.4548 21.7392 31.428 21.7392 32.6287V43.4983H11.9565V32.6287Z" fill="#B9E8FF"/>
<path d="M26.0869 32.6287C26.0869 31.428 27.0602 30.4548 28.2608 30.4548H36.9565C38.1571 30.4548 39.1304 31.428 39.1304 32.6287V36.9765C39.1304 38.1772 38.1571 39.1504 36.9565 39.1504H28.2608C27.0602 39.1504 26.0869 38.1772 26.0869 36.9765V32.6287Z" fill="#B9E8FF"/>
</svg>
