<?xml version="1.0" encoding="UTF-8"?>
<svg version="1.1" xmlns="http://www.w3.org/2000/svg" width="270" height="270">
<path d="M0 0 C2.5402626 4.44545955 3.08048565 9.03233299 3.75 14.0625 C4.34941406 13.72992187 4.94882813 13.39734375 5.56640625 13.0546875 C8.68818024 11.63620701 10.48737799 12.13032228 13.75 13.0625 C18.80414032 15.70990683 19.95392179 19.48981129 21.7421875 24.59423828 C23.76064013 31.54049264 24.79320609 38.68010492 25.9375 45.8125 C26.19892363 47.38948006 26.46128783 48.96630449 26.72460938 50.54296875 C30.15041134 71.1810753 30.91372022 91.16928075 30.75 112.0625 C31.41 112.3925 32.07 112.7225 32.75 113.0625 C33.12890625 115.50390625 33.12890625 115.50390625 33.3125 118.625 C33.52546998 122.03686603 33.79301658 125.38472173 34.24560547 128.77490234 C34.76342807 132.8566024 34.96543323 136.9239816 35.06640625 141.03515625 C35.08718735 141.76190048 35.10796844 142.48864471 35.12937927 143.2374115 C35.19401895 145.53319143 35.25323318 147.82907582 35.3125 150.125 C35.35578827 151.66732705 35.39940547 153.2096449 35.44335938 154.75195312 C35.48467584 156.24217919 35.52570132 157.73241336 35.56640625 159.22265625 C35.58514297 159.90513931 35.6038797 160.58762238 35.6231842 161.29078674 C35.95874104 174.36603305 35.95874104 174.36603305 34.0625 179.6875 C33.69640625 180.7290625 33.3303125 181.770625 32.953125 182.84375 C31.78203061 185.97680772 30.55197471 189.08096845 29.3125 192.1875 C27.21763854 197.55112362 25.53893208 202.95759377 24 208.5 C23.68397827 209.63622803 23.68397827 209.63622803 23.36157227 210.79541016 C20.14278445 222.68158524 18.53275216 236.2440287 23.09375 247.984375 C23.75 250.0625 23.75 250.0625 23.75 255.0625 C-1 255.0625 -25.75 255.0625 -51.25 255.0625 C-52.57 252.0925 -53.89 249.1225 -55.25 246.0625 C-56.05050781 244.83273438 -56.85101563 243.60296875 -57.67578125 242.3359375 C-61.21275731 236.86465651 -63.22829958 230.78368997 -65.4375 224.6875 C-65.87513672 223.51960937 -66.31277344 222.35171875 -66.76367188 221.1484375 C-70.54218928 210.85702521 -72.56820412 201.56965169 -72.48046875 190.6015625 C-72.48001053 189.64857269 -72.47955231 188.69558289 -72.4790802 187.7137146 C-72.47608268 185.71879821 -72.46827248 183.72388363 -72.45581055 181.72900391 C-72.43742307 178.67472069 -72.43530218 175.62073936 -72.43554688 172.56640625 C-72.43063537 170.61978904 -72.42480866 168.67317388 -72.41796875 166.7265625 C-72.41685593 165.8161319 -72.4157431 164.90570129 -72.41459656 163.96768188 C-72.40821671 163.11934784 -72.40183685 162.27101379 -72.39526367 161.39697266 C-72.39145187 160.65436188 -72.38764008 159.9117511 -72.38371277 159.14663696 C-72.24647634 157.00757787 -71.80406024 155.12812165 -71.25 153.0625 C-70.9790255 148.75081744 -71.1318753 144.68533934 -71.9375 140.4375 C-72.3429971 136.05813137 -71.43050792 133.86080412 -69.25 130.0625 C-65.74847086 126.06663733 -62.46706224 124.74646632 -57.25 124.0625 C-57.22421875 123.12148437 -57.1984375 122.18046875 -57.171875 121.2109375 C-56.60025791 108.66134407 -56.60025791 108.66134407 -52.25 104.0625 C-51.693125 103.44375 -51.13625 102.825 -50.5625 102.1875 C-46.78811887 100.35131459 -43.34556534 100.22461838 -39.25 101.0625 C-35.47200019 103.0512597 -32.12533263 105.30537472 -30.19140625 109.1875 C-29.34828161 111.34521398 -29.34828161 111.34521398 -26.625 112.3125 C-25.84125 112.56 -25.0575 112.8075 -24.25 113.0625 C-23.49743836 107.66473846 -23.09420481 102.38215868 -23.0390625 96.9296875 C-23.01307755 95.32469677 -22.98643494 93.71971659 -22.95922852 92.11474609 C-22.94594513 91.27256531 -22.93266174 90.43038452 -22.91897583 89.56268311 C-22.63858838 72.8246613 -21.90704061 56.14158557 -20.8125 39.4375 C-20.75096741 38.47326111 -20.68943481 37.50902222 -20.6260376 36.51556396 C-18.52480645 3.92732838 -18.52480645 3.92732838 -14.875 -0.8125 C-9.60150612 -5.08151885 -5.24300792 -4.51481237 0 0 Z M2.75 74.0625 C1.31490779 76.93268441 1.63841494 79.39793723 1.65234375 82.6015625 C1.65556641 83.90351562 1.65878906 85.20546875 1.66210938 86.546875 C1.67046534 87.92708399 1.67893029 89.30729232 1.6875 90.6875 C1.69251499 92.07551926 1.6970779 93.46354022 1.70117188 94.8515625 C1.71299024 98.25525132 1.72946566 101.65885439 1.75 105.0625 C2.41 105.0625 3.07 105.0625 3.75 105.0625 C3.75 94.8325 3.75 84.6025 3.75 74.0625 C3.42 74.0625 3.09 74.0625 2.75 74.0625 Z " fill="#EAB69C" transform="translate(148.25,9.9375)"/>
<path d="M0 0 C2.5402626 4.44545955 3.08048565 9.03233299 3.75 14.0625 C4.34941406 13.72992187 4.94882813 13.39734375 5.56640625 13.0546875 C8.68818024 11.63620701 10.48737799 12.13032228 13.75 13.0625 C18.80414032 15.70990683 19.95392179 19.48981129 21.7421875 24.59423828 C23.76064013 31.54049264 24.79320609 38.68010492 25.9375 45.8125 C26.19892363 47.38948006 26.46128783 48.96630449 26.72460938 50.54296875 C30.15041134 71.1810753 30.91372022 91.16928075 30.75 112.0625 C31.41 112.3925 32.07 112.7225 32.75 113.0625 C33.12890625 115.50390625 33.12890625 115.50390625 33.3125 118.625 C33.52546998 122.03686603 33.79301658 125.38472173 34.24560547 128.77490234 C34.76342807 132.8566024 34.96543323 136.9239816 35.06640625 141.03515625 C35.08718735 141.76190048 35.10796844 142.48864471 35.12937927 143.2374115 C35.19401895 145.53319143 35.25323318 147.82907582 35.3125 150.125 C35.35578827 151.66732705 35.39940547 153.2096449 35.44335938 154.75195312 C35.48467584 156.24217919 35.52570132 157.73241336 35.56640625 159.22265625 C35.58514297 159.90513931 35.6038797 160.58762238 35.6231842 161.29078674 C35.95874104 174.36603305 35.95874104 174.36603305 34.0625 179.6875 C33.69640625 180.7290625 33.3303125 181.770625 32.953125 182.84375 C31.78203061 185.97680772 30.55197471 189.08096845 29.3125 192.1875 C27.21763854 197.55112362 25.53893208 202.95759377 24 208.5 C23.68397827 209.63622803 23.68397827 209.63622803 23.36157227 210.79541016 C20.14278445 222.68158524 18.53275216 236.2440287 23.09375 247.984375 C23.86431859 250.42450887 23.85672492 252.51888943 23.75 255.0625 C21.44 255.0625 19.13 255.0625 16.75 255.0625 C15.06055164 245.98171505 14.50091024 237.29265944 14.75 228.0625 C15.41 228.0625 16.07 228.0625 16.75 228.0625 C16.80607422 226.95455078 16.80607422 226.95455078 16.86328125 225.82421875 C17.3332048 218.57265333 18.58056503 211.99377651 20.75 205.0625 C21.41 205.0625 22.07 205.0625 22.75 205.0625 C22.523125 204.258125 22.29625 203.45375 22.0625 202.625 C21.7269203 198.79939143 22.59386543 196.56792472 23.9140625 193.03125 C25.05007244 188.99682219 25.49515973 184.97325016 25.9375 180.8125 C26.02104736 180.03165039 26.10459473 179.25080078 26.19067383 178.44628906 C26.75653596 172.78402094 27.02841339 167.6555586 25.75 162.0625 C24.76 162.0625 23.77 162.0625 22.75 162.0625 C22.75 160.4125 22.75 158.7625 22.75 157.0625 C21.76 157.0625 20.77 157.0625 19.75 157.0625 C20.08 158.0525 20.41 159.0425 20.75 160.0625 C20.09 160.0625 19.43 160.0625 18.75 160.0625 C18.5025 159.464375 18.255 158.86625 18 158.25 C16.91107749 155.96266365 16.91107749 155.96266365 14.83984375 154.80078125 C12.11393084 152.53343313 11.33953756 150.34976388 10.0625 147.0625 C9.64613281 146.010625 9.22976562 144.95875 8.80078125 143.875 C8.081722 141.95038044 7.39970814 140.01162442 6.75 138.0625 C6.09 138.0625 5.43 138.0625 4.75 138.0625 C4.56566406 137.42441406 4.38132812 136.78632813 4.19140625 136.12890625 C3.26313232 133.48435698 2.38800659 131.34447224 0.75 129.0625 C-1.69618204 128.22827806 -3.65085913 128.12164906 -6.2265625 128.16015625 C-8.25 128.0625 -8.25 128.0625 -10.25 126.0625 C-8.25 124.0625 -8.25 124.0625 -5.625 123.9375 C-4.84125 123.97875 -4.0575 124.02 -3.25 124.0625 C-3.58 123.0725 -3.91 122.0825 -4.25 121.0625 C-3.91015625 118.36328125 -3.91015625 118.36328125 -3.3125 115.375 C-3.11785156 114.38113281 -2.92320312 113.38726562 -2.72265625 112.36328125 C-2.56667969 111.60402344 -2.41070312 110.84476562 -2.25 110.0625 C-0.93 109.7325 0.39 109.4025 1.75 109.0625 C1.75 107.7425 1.75 106.4225 1.75 105.0625 C2.41 105.0625 3.07 105.0625 3.75 105.0625 C3.77480163 99.90299832 3.79290809 94.74353169 3.80493164 89.58398438 C3.80994651 87.83039749 3.81676002 86.07681476 3.82543945 84.32324219 C3.83763 81.7962135 3.84325688 79.26924032 3.84765625 76.7421875 C3.85281754 75.96382538 3.85797882 75.18546326 3.86329651 74.3835144 C3.8637284 70.15029966 3.50863913 66.24094208 2.75 62.0625 C2.676073 60.48316497 2.6415148 58.90133972 2.65234375 57.3203125 C2.65717773 56.06347656 2.65717773 56.06347656 2.66210938 54.78125 C2.67467773 53.49734375 2.67467773 53.49734375 2.6875 52.1875 C2.69201172 51.30835938 2.69652344 50.42921875 2.70117188 49.5234375 C2.71287663 47.36976197 2.73080931 45.21612183 2.75 43.0625 C3.08 43.0625 3.41 43.0625 3.75 43.0625 C4.41 34.1525 5.07 25.2425 5.75 16.0625 C3.77 16.0625 1.79 16.0625 -0.25 16.0625 C-0.25 12.1025 -0.25 8.1425 -0.25 4.0625 C-2.56 4.0625 -4.87 4.0625 -7.25 4.0625 C-7.43175781 5.72539062 -7.43175781 5.72539062 -7.6171875 7.421875 C-7.78606296 8.88546234 -7.95535572 10.34900157 -8.125 11.8125 C-8.20363281 12.54210937 -8.28226563 13.27171875 -8.36328125 14.0234375 C-8.81125979 17.81402517 -9.50095183 20.70286998 -11.25 24.0625 C-11.4905332 26.55237441 -11.4905332 26.55237441 -11.375 29.125 C-11.35695312 29.98222656 -11.33890625 30.83945312 -11.3203125 31.72265625 C-11.29710937 32.49480469 -11.27390625 33.26695313 -11.25 34.0625 C-11.25 36.90217231 -11.65267181 39.29985711 -12.25 42.0625 C-11.26 42.5575 -11.26 42.5575 -10.25 43.0625 C-10.58 43.76375 -10.91 44.465 -11.25 45.1875 C-12.34295056 48.32973285 -12.32335281 50.76162374 -12.25 54.0625 C-12.745 55.0525 -12.745 55.0525 -13.25 56.0625 C-12.92832773 58.5554601 -12.63584632 59.72672534 -10.71484375 61.3984375 C-8.77402452 63.60320815 -8.93691315 64.86150251 -9.0625 67.75 C-9.10310547 68.96236328 -9.10310547 68.96236328 -9.14453125 70.19921875 C-9.17933594 70.81410156 -9.21414062 71.42898437 -9.25 72.0625 C-11.23 72.5575 -11.23 72.5575 -13.25 73.0625 C-13.75449717 76.73812222 -14.21522786 80.35882179 -14.3984375 84.06640625 C-14.79957422 92.00318276 -16.39940226 98.66150364 -19.25 106.0625 C-19.55679688 106.87332031 -19.86359375 107.68414062 -20.1796875 108.51953125 C-20.45039062 109.23496094 -20.72109375 109.95039062 -21 110.6875 C-22.36577145 113.77524208 -22.36577145 113.77524208 -22.25 116.0625 C-21.26 116.7225 -20.27 117.3825 -19.25 118.0625 C-19.745 120.0425 -19.745 120.0425 -20.25 122.0625 C-21.36375 121.7840625 -21.36375 121.7840625 -22.5 121.5 C-25.15920935 120.85625183 -25.15920935 120.85625183 -27.25 121.75 C-29.25 122.0625 -29.25 122.0625 -32 120.3125 C-32.7425 119.57 -33.485 118.8275 -34.25 118.0625 C-34.25 117.0725 -34.25 116.0825 -34.25 115.0625 C-36.21756452 115.09372943 -36.21756452 115.09372943 -38.25 116.0625 C-39.5545656 119.05865946 -39.5545656 119.05865946 -40.25 122.0625 C-41.75 121 -41.75 121 -43.25 119.0625 C-43.8432427 113.82218945 -42.89473443 110.58058798 -40.25 106.0625 C-43.22 106.5575 -43.22 106.5575 -46.25 107.0625 C-46.26981934 107.75698242 -46.28963867 108.45146484 -46.31005859 109.16699219 C-46.40664048 112.38247525 -46.51576748 115.59742277 -46.625 118.8125 C-46.67140625 120.45025391 -46.67140625 120.45025391 -46.71875 122.12109375 C-46.98341206 129.57574174 -47.84045211 136.73815128 -49.25 144.0625 C-49.91 144.0625 -50.57 144.0625 -51.25 144.0625 C-51.758783 142.50283782 -52.25663469 140.93960759 -52.75 139.375 C-53.0284375 138.50488281 -53.306875 137.63476562 -53.59375 136.73828125 C-54.24850805 134.06858323 -54.36831495 131.79853316 -54.25 129.0625 C-55.735 130.0525 -55.735 130.0525 -57.25 131.0625 C-57.04375 131.97 -56.8375 132.8775 -56.625 133.8125 C-56.2372755 137.17277897 -56.44588033 138.30325815 -58.25 141.0625 C-57.26 141.3925 -56.27 141.7225 -55.25 142.0625 C-54.88374029 146.57970311 -54.88374029 146.57970311 -56.625 148.875 C-58.25 150.0625 -58.25 150.0625 -60.25 150.0625 C-60.25 150.7225 -60.25 151.3825 -60.25 152.0625 C-60.91 152.0625 -61.57 152.0625 -62.25 152.0625 C-62.25 154.3725 -62.25 156.6825 -62.25 159.0625 C-64.5578491 160.21642455 -66.72230331 160.59687166 -69.25 161.0625 C-66.28 162.0525 -63.31 163.0425 -60.25 164.0625 C-60.19617894 166.68777189 -60.15641687 169.31194713 -60.125 171.9375 C-60.10824219 172.68386719 -60.09148437 173.43023437 -60.07421875 174.19921875 C-60.0566041 176.15444461 -60.14679811 178.10992021 -60.25 180.0625 C-61.24 181.0525 -61.24 181.0525 -62.25 182.0625 C-63.02249145 176.65505982 -63.34752461 171.52387814 -63.25 166.0625 C-65.56 165.7325 -67.87 165.4025 -70.25 165.0625 C-69.92 167.0425 -69.59 169.0225 -69.25 171.0625 C-69.91 171.3925 -70.57 171.7225 -71.25 172.0625 C-72.20807717 168.83849427 -72.38422292 165.91964324 -72.375 162.5625 C-72.37757812 161.6240625 -72.38015625 160.685625 -72.3828125 159.71875 C-72.26295935 157.32168708 -71.84896068 155.36943449 -71.25 153.0625 C-70.9790255 148.75081744 -71.1318753 144.68533934 -71.9375 140.4375 C-72.3429971 136.05813137 -71.43050792 133.86080412 -69.25 130.0625 C-65.74847086 126.06663733 -62.46706224 124.74646632 -57.25 124.0625 C-57.22421875 123.12148437 -57.1984375 122.18046875 -57.171875 121.2109375 C-56.60025791 108.66134407 -56.60025791 108.66134407 -52.25 104.0625 C-51.693125 103.44375 -51.13625 102.825 -50.5625 102.1875 C-46.78811887 100.35131459 -43.34556534 100.22461838 -39.25 101.0625 C-35.47200019 103.0512597 -32.12533263 105.30537472 -30.19140625 109.1875 C-29.34828161 111.34521398 -29.34828161 111.34521398 -26.625 112.3125 C-25.84125 112.56 -25.0575 112.8075 -24.25 113.0625 C-23.49743836 107.66473846 -23.09420481 102.38215868 -23.0390625 96.9296875 C-23.01307755 95.32469677 -22.98643494 93.71971659 -22.95922852 92.11474609 C-22.94594513 91.27256531 -22.93266174 90.43038452 -22.91897583 89.56268311 C-22.63858838 72.8246613 -21.90704061 56.14158557 -20.8125 39.4375 C-20.75096741 38.47326111 -20.68943481 37.50902222 -20.6260376 36.51556396 C-18.52480645 3.92732838 -18.52480645 3.92732838 -14.875 -0.8125 C-9.60150612 -5.08151885 -5.24300792 -4.51481237 0 0 Z " fill="#F8B49A" transform="translate(148.25,9.9375)"/>
<path d="M0 0 C-0.50603992 2.16874252 -0.99983813 3.99967627 -2 6 C-2.40454244 11.25905171 -1.66166853 14.45298292 1 19 C1.598125 18.484375 2.19625 17.96875 2.8125 17.4375 C3.534375 16.963125 4.25625 16.48875 5 16 C5.99 16.33 6.98 16.66 8 17 C8 17.66 8 18.32 8 19 C8.886875 19.268125 9.77375 19.53625 10.6875 19.8125 C13.80789038 20.93113051 16.33172267 22.03803137 19 24 C19 24.99 19 25.98 19 27 C20.051875 27.103125 21.10375 27.20625 22.1875 27.3125 C25.93049091 27.98746557 27.83691863 29.03376023 31 31 C32.32 31 33.64 31 35 31 C36.4606285 33.64738916 37 34.89448334 37 38 C36.01 38.495 36.01 38.495 35 39 C35.3403125 40.11375 35.3403125 40.11375 35.6875 41.25 C36 44 36 44 34.5625 46.3125 C34.046875 46.869375 33.53125 47.42625 33 48 C34.58337885 52.35429183 36.09963832 54.36362735 40.1875 56.375 C41.45045266 56.93479524 42.71903607 57.48274616 44 58 C44 58.33 44 58.66 44 59 C42.35 59 40.7 59 39 59 C40.32 60.32 41.64 61.64 43 63 C42.67 63.66 42.34 64.32 42 65 C38.23112714 62.48741809 35.01144497 60.24702345 32.1875 56.6875 C31.465625 55.800625 30.74375 54.91375 30 54 C29.34 54 28.68 54 28 54 C27.90203125 55.24136719 27.8040625 56.48273438 27.703125 57.76171875 C27.55299828 59.40372974 27.40190569 61.04565263 27.25 62.6875 C27.1571875 63.91243164 27.1571875 63.91243164 27.0625 65.16210938 C26.57028749 70.22779648 25.85656381 73.35287505 22 77 C19.06123095 77.97958968 17.79175344 78.39587672 15 77 C14.375 74.9375 14.375 74.9375 14 73 C13.01 73.99 13.01 73.99 12 75 C10.875 68.375 10.875 68.375 12 65 C11.34 65 10.68 65 10 65 C9.505 60.05 9.505 60.05 9 55 C7.515 54.505 7.515 54.505 6 54 C6 53.01 6 52.02 6 51 C3.36 51.33 0.72 51.66 -2 52 C-2 56.29 -2 60.58 -2 65 C-4 61 -4 61 -5 58 C-4.08081374 63.66025222 -3.38174429 67.05643014 1 71 C1 72.32 1 73.64 1 75 C0.01 75 -0.98 75 -2 75 C-2.83819158 73.37750059 -3.6704116 71.75191503 -4.5 70.125 C-4.9640625 69.22007812 -5.428125 68.31515625 -5.90625 67.3828125 C-7 65 -7 65 -7 63 C-9.475 63.495 -9.475 63.495 -12 64 C-12.33 66.31 -12.66 68.62 -13 71 C-13.66 71 -14.32 71 -15 71 C-15.2765289 68.92002174 -15.52030075 66.8356692 -15.75 64.75 C-15.88921875 63.58984375 -16.0284375 62.4296875 -16.171875 61.234375 C-15.95797132 57.20909662 -14.79735152 56.69919884 -12 54 C-11.69450222 51.20505215 -11.69450222 51.20505215 -12.1875 48.3125 C-12.30480469 47.33925781 -12.42210938 46.36601562 -12.54296875 45.36328125 C-12.76107724 43.05226104 -12.76107724 43.05226104 -14 42 C-14.07271741 39.64686445 -14.08370868 37.29166332 -14.0625 34.9375 C-14.05347656 33.64714844 -14.04445313 32.35679687 -14.03515625 31.02734375 C-14.02355469 30.02832031 -14.01195313 29.02929688 -14 28 C-12.2175082 31.33311475 -11.51207144 34.24480943 -11 38 C-10.34 38 -9.68 38 -9 38 C-8.93268677 36.43318481 -8.93268677 36.43318481 -8.86401367 34.8347168 C-8.69376843 30.95945607 -8.50486156 27.08529154 -8.31030273 23.21118164 C-8.2287073 21.53433861 -8.152175 19.85724123 -8.08081055 18.17993164 C-7.97734576 15.76884532 -7.855701 13.35926032 -7.73046875 10.94921875 C-7.70220505 10.19912033 -7.67394135 9.44902191 -7.64482117 8.67619324 C-7.47779129 5.73748563 -7.3282828 3.50594028 -5.7043457 1.00317383 C-4 0 -4 0 0 0 Z " fill="#ECA389" transform="translate(108,116)"/>
<path d="M0 0 C0 3.96 0 7.92 0 12 C1.98 12 3.96 12 6 12 C6.16207546 23.03913945 5.65764731 33.98440762 5 45 C4.67 45 4.34 45 4 45 C3.87809322 53.39802254 4.15672251 61.64251778 5 70 C4.34 70 3.68 70 3 70 C2.67 81.55 2.34 93.1 2 105 C0.02 105.495 0.02 105.495 -2 106 C-2.33 109.63 -2.66 113.26 -3 117 C-10.01020479 117.45227128 -15.85436762 116.6459208 -22 113 C-23.2475059 109.2574823 -22.54732546 107.98355501 -21.25 104.3125 C-20.87746094 103.23484375 -20.50492187 102.1571875 -20.12109375 101.046875 C-19.24913835 98.67710075 -18.3079022 96.38015288 -17.3125 94.0625 C-14.94162721 87.92915519 -14.8518252 80.80315308 -15.10546875 74.29296875 C-15 72 -15 72 -13 69 C-11.515 68.505 -11.515 68.505 -10 68 C-10 64.37 -10 60.74 -10 57 C-10.99 56.67 -11.98 56.34 -13 56 C-14.125 51.25 -14.125 51.25 -13 49 C-11.97289739 43.51712003 -11.97289739 43.51712003 -12.5 38.0625 C-13.17549059 35.2761013 -13.01116651 33.06141579 -12.5 30.25 C-11.89867091 26.95072801 -11.89867091 26.95072801 -12.0625 23.375 C-12 20 -12 20 -11.0625 18.234375 C-9.60527635 15.16991939 -9.35471527 12.23375825 -8.9375 8.875 C-8.09722222 2.19444444 -8.09722222 2.19444444 -7 0 C-4 -1 -4 -1 0 0 Z " fill="#F6A48B" transform="translate(148,14)"/>
<path d="M0 0 C0 0.33 0 0.66 0 1 C-0.928125 1.28875 -1.85625 1.5775 -2.8125 1.875 C-6.09791667 2.8875 -6.09791667 2.8875 -9 5 C-11.11048848 12.32997611 -11.82440358 19.86314387 -12.5625 27.4375 C-12.66013138 28.42538513 -12.66013138 28.42538513 -12.75973511 29.43322754 C-14.33631874 45.84555749 -14.47985011 62.31013899 -14.62133789 78.78686523 C-14.7547596 91.87959027 -14.99999125 103.72725124 -20 116 C-20 116.66 -20 117.32 -20 118 C-19.01 118.66 -18.02 119.32 -17 120 C-17.495 121.98 -17.495 121.98 -18 124 C-19.11375 123.7215625 -19.11375 123.7215625 -20.25 123.4375 C-22.90920935 122.79375183 -22.90920935 122.79375183 -25 123.6875 C-27 124 -27 124 -29.75 122.25 C-30.4925 121.5075 -31.235 120.765 -32 120 C-32 119.01 -32 118.02 -32 117 C-33.96756452 117.03122943 -33.96756452 117.03122943 -36 118 C-37.3045656 120.99615946 -37.3045656 120.99615946 -38 124 C-39.5 122.9375 -39.5 122.9375 -41 121 C-41.5932427 115.75968945 -40.64473443 112.51808798 -38 108 C-40.97 108.495 -40.97 108.495 -44 109 C-44.01981934 109.69448242 -44.03963867 110.38896484 -44.06005859 111.10449219 C-44.15664048 114.31997525 -44.26576748 117.53492277 -44.375 120.75 C-44.42140625 122.38775391 -44.42140625 122.38775391 -44.46875 124.05859375 C-44.73341206 131.51324174 -45.59045211 138.67565128 -47 146 C-47.66 146 -48.32 146 -49 146 C-49.508783 144.44033782 -50.00663469 142.87710759 -50.5 141.3125 C-50.7784375 140.44238281 -51.056875 139.57226562 -51.34375 138.67578125 C-51.99850805 136.00608323 -52.11831495 133.73603316 -52 131 C-53.485 131.99 -53.485 131.99 -55 133 C-54.79375 133.9075 -54.5875 134.815 -54.375 135.75 C-53.9872755 139.11027897 -54.19588033 140.24075815 -56 143 C-55.01 143.33 -54.02 143.66 -53 144 C-52.63374029 148.51720311 -52.63374029 148.51720311 -54.375 150.8125 C-56 152 -56 152 -58 152 C-58 152.66 -58 153.32 -58 154 C-58.66 154 -59.32 154 -60 154 C-60 156.31 -60 158.62 -60 161 C-62.3078491 162.15392455 -64.47230331 162.53437166 -67 163 C-64.03 163.99 -61.06 164.98 -58 166 C-57.94617894 168.62527189 -57.90641687 171.24944713 -57.875 173.875 C-57.85824219 174.62136719 -57.84148437 175.36773437 -57.82421875 176.13671875 C-57.8066041 178.09194461 -57.89679811 180.04742021 -58 182 C-58.99 182.99 -58.99 182.99 -60 184 C-60.77249145 178.59255982 -61.09752461 173.46137814 -61 168 C-63.31 167.67 -65.62 167.34 -68 167 C-67.67 168.98 -67.34 170.96 -67 173 C-67.66 173.33 -68.32 173.66 -69 174 C-69.95807717 170.77599427 -70.13422292 167.85714324 -70.125 164.5 C-70.12757812 163.5615625 -70.13015625 162.623125 -70.1328125 161.65625 C-70.01295935 159.25918708 -69.59896068 157.30693449 -69 155 C-68.7290255 150.68831744 -68.8818753 146.62283934 -69.6875 142.375 C-70.0929971 137.99563137 -69.18050792 135.79830412 -67 132 C-63.49847086 128.00413733 -60.21706224 126.68396632 -55 126 C-54.97421875 125.05898437 -54.9484375 124.11796875 -54.921875 123.1484375 C-54.35025791 110.59884407 -54.35025791 110.59884407 -50 106 C-49.443125 105.38125 -48.88625 104.7625 -48.3125 104.125 C-44.53811887 102.28881459 -41.09556534 102.16211838 -37 103 C-33.22200019 104.9887597 -29.87533263 107.24287472 -27.94140625 111.125 C-27.09828161 113.28271398 -27.09828161 113.28271398 -24.375 114.25 C-23.59125 114.4975 -22.8075 114.745 -22 115 C-21.24743836 109.60223846 -20.84420481 104.31965868 -20.7890625 98.8671875 C-20.76307755 97.26219677 -20.73643494 95.65721659 -20.70922852 94.05224609 C-20.69594513 93.21006531 -20.68266174 92.36788452 -20.66897583 91.50018311 C-20.38858838 74.7621613 -19.65704061 58.07908557 -18.5625 41.375 C-18.50096741 40.41076111 -18.43943481 39.44652222 -18.3760376 38.45306396 C-16.27480645 5.86482838 -16.27480645 5.86482838 -12.625 1.125 C-7.83310567 -2.75415256 -5.69175891 -2.19908867 0 0 Z " fill="#F7D6C6" transform="translate(146,8)"/>
<path d="M0 0 C2.29273519 3.77108393 2.80598205 7.81941287 3.47265625 12.10546875 C3.60063095 12.90294022 3.72860565 13.70041168 3.86045837 14.52204895 C4.13012132 16.21526106 4.39635952 17.90902164 4.65942383 19.60327148 C5.05433974 22.13518238 5.46480374 24.66420454 5.87695312 27.19335938 C8.29265422 42.33472987 9.18491836 57.22253824 9.0625 72.5625 C9.05798828 73.67818359 9.05347656 74.79386719 9.04882812 75.94335938 C9.0373019 78.62896938 9.02104409 81.31445078 9 84 C9.99 84.495 9.99 84.495 11 85 C11.37890625 87.44140625 11.37890625 87.44140625 11.5625 90.5625 C11.77546998 93.97436603 12.04301658 97.32222173 12.49560547 100.71240234 C13.01342807 104.7941024 13.21543323 108.8614816 13.31640625 112.97265625 C13.33718735 113.69940048 13.35796844 114.42614471 13.37937927 115.1749115 C13.44401895 117.47069143 13.50323318 119.76657582 13.5625 122.0625 C13.60578827 123.60482705 13.64940547 125.1471449 13.69335938 126.68945312 C13.73467584 128.17967919 13.77570132 129.66991336 13.81640625 131.16015625 C13.83514297 131.84263931 13.8538797 132.52512238 13.8731842 133.22828674 C14.20874104 146.30353305 14.20874104 146.30353305 12.3125 151.625 C11.94640625 152.6665625 11.5803125 153.708125 11.203125 154.78125 C10.03203061 157.91430772 8.80197471 161.01846845 7.5625 164.125 C5.46763854 169.48862362 3.78893208 174.89509377 2.25 180.4375 C1.93397827 181.57372803 1.93397827 181.57372803 1.61157227 182.73291016 C-1.60721555 194.61908524 -3.21724784 208.1815287 1.34375 219.921875 C2.11431859 222.36200887 2.10672492 224.45638943 2 227 C-0.31 227 -2.62 227 -5 227 C-6.68944836 217.91921505 -7.24908976 209.23015944 -7 200 C-6.34 200 -5.68 200 -5 200 C-4.96261719 199.26136719 -4.92523438 198.52273437 -4.88671875 197.76171875 C-4.4167952 190.51015333 -3.16943497 183.93127651 -1 177 C-0.34 177 0.32 177 1 177 C0.773125 176.195625 0.54625 175.39125 0.3125 174.5625 C-0.0230797 170.73689143 0.84386543 168.50542472 2.1640625 164.96875 C3.30007244 160.93432219 3.74515973 156.91075016 4.1875 152.75 C4.27104736 151.96915039 4.35459473 151.18830078 4.44067383 150.38378906 C5.00653596 144.72152094 5.27841339 139.5930586 4 134 C3.01 134 2.02 134 1 134 C1 132.35 1 130.7 1 129 C0.01 129 -0.98 129 -2 129 C-1.67 129.99 -1.34 130.98 -1 132 C-1.66 132 -2.32 132 -3 132 C-3.2475 131.401875 -3.495 130.80375 -3.75 130.1875 C-4.83892251 127.90016365 -4.83892251 127.90016365 -6.91015625 126.73828125 C-9.63606916 124.47093313 -10.41046244 122.28726388 -11.6875 119 C-12.10386719 117.948125 -12.52023438 116.89625 -12.94921875 115.8125 C-13.668278 113.88788044 -14.35029186 111.94912442 -15 110 C-15.66 110 -16.32 110 -17 110 C-17.18433594 109.36191406 -17.36867187 108.72382813 -17.55859375 108.06640625 C-18.48686768 105.42185698 -19.36199341 103.28197224 -21 101 C-23.44618204 100.16577806 -25.40085913 100.05914906 -27.9765625 100.09765625 C-30 100 -30 100 -32 98 C-30 96 -30 96 -27.375 95.875 C-26.59125 95.91625 -25.8075 95.9575 -25 96 C-25.33 95.01 -25.66 94.02 -26 93 C-25.66015625 90.30078125 -25.66015625 90.30078125 -25.0625 87.3125 C-24.86785156 86.31863281 -24.67320312 85.32476562 -24.47265625 84.30078125 C-24.31667969 83.54152344 -24.16070312 82.78226562 -24 82 C-22.02 81.505 -22.02 81.505 -20 81 C-20 79.68 -20 78.36 -20 77 C-19.34 77 -18.68 77 -18 77 C-18 74.69 -18 72.38 -18 70 C-17.34 71.32 -16.68 72.64 -16 74 C-14.515 73.505 -14.515 73.505 -13 73 C-11.515 73.99 -11.515 73.99 -10 75 C-9.625 77.4375 -9.625 77.4375 -10 80 C-10.474375 80.45375 -10.94875 80.9075 -11.4375 81.375 C-13.35870323 83.04192066 -13.35870323 83.04192066 -13.375 86.4375 C-14 90 -14 90 -16.5625 92.4375 C-17.7690625 93.2109375 -17.7690625 93.2109375 -19 94 C-18.38764009 97.12719303 -17.37055924 99.20758971 -15.5234375 101.79296875 C-15.02094482 102.50146973 -14.51845215 103.2099707 -14.00073242 103.93994141 C-13.46424072 104.68163574 -12.92774902 105.42333008 -12.375 106.1875 C-11.82884033 106.94981934 -11.28268066 107.71213867 -10.7199707 108.49755859 C-4.91251085 116.5699364 0.90307312 124.02393942 8 131 C8.09567407 120.45082949 8.18058011 109.91050974 7.5625 99.375 C7.52326416 98.68414307 7.48402832 97.99328613 7.44360352 97.28149414 C7.2836577 94.83502927 7.12687557 92.47759003 6.49581909 90.10214233 C5.93002974 87.70334454 5.81948539 85.49354617 5.75048828 83.02978516 C5.72020538 82.03999664 5.68992249 81.05020813 5.65872192 80.03042603 C5.62954681 78.96077606 5.6003717 77.8911261 5.5703125 76.7890625 C5.49650463 74.48696596 5.42227102 72.18488303 5.34765625 69.8828125 C5.23550573 66.28331481 5.12664649 62.6838195 5.02587891 59.08398438 C4.60359293 44.29367555 3.58412119 29.87948041 1.31907654 15.25527954 C0.60335711 10.19647017 0.27903378 5.09958294 0 0 Z " fill="#F4D2BB" transform="translate(170,38)"/>
<path d="M0 0 C0.33 0 0.66 0 1 0 C0.99476318 1.3003418 0.98952637 2.60068359 0.98413086 3.94042969 C0.96587927 8.81591083 0.95449509 13.69138901 0.94506836 18.56689453 C0.94007386 20.66748565 0.93327596 22.76807336 0.92456055 24.86865234 C0.80034075 40.96334508 0.80034075 40.96334508 2 57 C1.34 57 0.68 57 0 57 C-0.33 67.89 -0.66 78.78 -1 90 C-4.60795953 91.80397977 -8.86915355 91.00913492 -12.8359375 90.9375 C-15.46650699 90.98946187 -17.51248727 91.21575953 -20 92 C-19.71515154 90.26969709 -19.42180062 88.54079286 -19.125 86.8125 C-18.96257812 85.84957031 -18.80015625 84.88664062 -18.6328125 83.89453125 C-18.01842448 81.08427494 -17.08741102 78.65469169 -16 76 C-15.62599214 73.67284 -15.29235267 71.33882138 -15 69 C-14.28419487 64.90968494 -13.29095844 60.94881405 -12 57 C-11.01 56.505 -11.01 56.505 -10 56 C-9.27095914 54.35965807 -8.61344757 52.68698082 -8 51 C-6.22222222 46.11111111 -6.22222222 46.11111111 -4 45 C-3.0593405 42.25324446 -2.87178937 39.69984318 -2.8671875 36.8125 C-2.86589844 36.03132813 -2.86460937 35.25015625 -2.86328125 34.4453125 C-2.86908203 33.23488281 -2.86908203 33.23488281 -2.875 32 C-2.87113281 31.19304688 -2.86726563 30.38609375 -2.86328125 29.5546875 C-2.86521484 28.38292969 -2.86521484 28.38292969 -2.8671875 27.1875 C-2.86831543 26.47980469 -2.86944336 25.77210937 -2.87060547 25.04296875 C-3.00509941 22.91948705 -3.45287843 21.05143875 -4 19 C-4.28903059 14.24799701 -4.19494132 9.63039762 -3 5 C-2.34 5 -1.68 5 -1 5 C-0.67 3.35 -0.34 1.7 0 0 Z " fill="#F69472" transform="translate(151,27)"/>
<path d="M0 0 C3.20831437 2.06248781 6.23171664 4.13766201 9.125 6.625 C13.99166521 10.64528865 16.61381436 11.33611503 23 11 C24.67557379 10.71479595 26.34817245 10.40044304 28 10 C26.88820837 13.33537489 25.52588702 14.63707344 23 17 C23.99 17.33 24.98 17.66 26 18 C25.9071875 19.3303125 25.9071875 19.3303125 25.8125 20.6875 C26.02610134 24.46112372 26.6844616 26.04569239 29 29 C30.65948148 30.01187895 32.32580562 31.0126546 34 32 C35.125 34.0625 35.125 34.0625 36 36 C36.99 36.66 37.98 37.32 39 38 C38.505 38.99 38.505 38.99 38 40 C34.23112714 37.48741809 31.01144497 35.24702345 28.1875 31.6875 C27.465625 30.800625 26.74375 29.91375 26 29 C25.34 29 24.68 29 24 29 C23.91363281 30.25296875 23.82726562 31.5059375 23.73828125 32.796875 C23.59755868 34.44801977 23.45556489 36.09905654 23.3125 37.75 C23.25900391 38.575 23.20550781 39.4 23.15039062 40.25 C22.76522225 44.40311989 22.53577676 46.40768398 19.66796875 49.578125 C17 51 17 51 13 51 C11.7619986 47.42355152 12.25073929 44.66305234 13 41 C12.01 40.67 11.02 40.34 10 40 C9.81824219 38.98679688 9.63648437 37.97359375 9.44921875 36.9296875 C9.19578418 35.57803647 8.94185135 34.22647881 8.6875 32.875 C8.56955078 32.20984375 8.45160156 31.5446875 8.33007812 30.859375 C7.48762715 26.45270834 6.04977643 22.96253571 4 19 C3.33984375 16.40234375 3.33984375 16.40234375 2.9375 13.9375 C2.30354717 10.38416775 1.37620122 7.34220295 0 4 C0 2.68 0 1.36 0 0 Z " fill="#D4775A" transform="translate(112,141)"/>
<path d="M0 0 C1.32 0.33 2.64 0.66 4 1 C4 1.66 4 2.32 4 3 C5.3303125 3.4021875 5.3303125 3.4021875 6.6875 3.8125 C9.80789038 4.93113051 12.33172267 6.03803137 15 8 C15 8.99 15 9.98 15 11 C16.051875 11.103125 17.10375 11.20625 18.1875 11.3125 C21.93049091 11.98746557 23.83691863 13.03376023 27 15 C28.32 15 29.64 15 31 15 C32.4606285 17.64738916 33 18.89448334 33 22 C32.01 22.495 32.01 22.495 31 23 C31.3403125 24.11375 31.3403125 24.11375 31.6875 25.25 C32 28 32 28 30.5625 30.3125 C30.046875 30.869375 29.53125 31.42625 29 32 C30.58337885 36.35429183 32.09963832 38.36362735 36.1875 40.375 C37.45045266 40.93479524 38.71903607 41.48274616 40 42 C40 42.33 40 42.66 40 43 C37.03 43.495 37.03 43.495 34 44 C34 43.01 34 42.02 34 41 C33.2575 40.79375 32.515 40.5875 31.75 40.375 C28.0898912 38.5449456 26.87288176 36.60703153 25 33 C24.75 29.625 24.75 29.625 25 27 C24.34 26.67 23.68 26.34 23 26 C24.29299694 23.11562221 25.65941363 21.12780579 28 19 C27.319375 19.33 26.63875 19.66 25.9375 20 C22.21895591 21.26588735 19.92382804 21.52317707 16 21 C10.47661372 18.11781414 5.67781615 14.07809613 1 10 C1.4607161 14.64680572 1.4607161 14.64680572 3 19 C4 21 4 21 4.375 24.1875 C4.91387399 27.47463131 5.51493832 29.2898836 6.9375 32.1875 C9.18109939 36.87718971 9.8728463 41.46218639 10.5078125 46.59375 C10.67023438 47.3878125 10.83265625 48.181875 11 49 C11.66 49.33 12.32 49.66 13 50 C13 53.3 13 56.6 13 60 C14.98 59.34 16.96 58.68 19 58 C18.67 58.99 18.34 59.98 18 61 C13.25 62.125 13.25 62.125 11 61 C10.375 58.9375 10.375 58.9375 10 57 C9.34 57.66 8.68 58.32 8 59 C6.875 52.375 6.875 52.375 8 49 C7.34 49 6.68 49 6 49 C5.86722656 48.30132812 5.73445313 47.60265625 5.59765625 46.8828125 C5.42105469 45.97273438 5.24445313 45.06265625 5.0625 44.125 C4.88847656 43.22007812 4.71445313 42.31515625 4.53515625 41.3828125 C4.10036299 39.00043683 4.10036299 39.00043683 3 37 C2.72690486 34.47278622 2.55442823 31.94588875 2.37890625 29.41015625 C2.13222921 26.74469973 2.13222921 26.74469973 0 24 C0.185625 23.278125 0.37125 22.55625 0.5625 21.8125 C1.36664297 16.6430095 -1.37572062 12.18167168 -3.75 7.6875 C-5 5 -5 5 -4 2 C-3.34 2.33 -2.68 2.66 -2 3 C-1.34 2.01 -0.68 1.02 0 0 Z M-4 19 C-2.35 19 -0.7 19 1 19 C1 19.33 1 19.66 1 20 C-0.65 20 -2.3 20 -4 20 C-4 19.67 -4 19.34 -4 19 Z " fill="#E9977F" transform="translate(112,132)"/>
<path d="M0 0 C0 0.33 0 0.66 0 1 C-1.3921875 1.433125 -1.3921875 1.433125 -2.8125 1.875 C-6.09791667 2.8875 -6.09791667 2.8875 -9 5 C-11.11048848 12.32997611 -11.82440358 19.86314387 -12.5625 27.4375 C-12.62758759 28.09609009 -12.69267517 28.75468018 -12.75973511 29.43322754 C-14.33631874 45.84555749 -14.47985011 62.31013899 -14.62133789 78.78686523 C-14.8275958 98.78769948 -14.8275958 98.78769948 -17 108 C-18.485 108.495 -18.485 108.495 -20 109 C-20.33 109.99 -20.66 110.98 -21 112 C-20.70042211 88.3217608 -20.11997252 64.69508206 -18.5625 41.0625 C-18.50105804 40.10784851 -18.43961609 39.15319702 -18.37631226 38.1696167 C-16.26907044 5.85391997 -16.26907044 5.85391997 -12.625 1.125 C-7.83310567 -2.75415256 -5.69175891 -2.19908867 0 0 Z " fill="#FBDECF" transform="translate(146,8)"/>
<path d="M0 0 C3.16675707 2.83916151 3.57971414 5.88119861 4 10 C4.03622333 11.66627298 4.04899842 13.33405374 4 15 C3.01 15 2.02 15 1 15 C1 11.7 1 8.4 1 5 C-1.31 5 -3.62 5 -6 5 C-6.12117187 6.10859375 -6.24234375 7.2171875 -6.3671875 8.359375 C-6.53606296 9.82296234 -6.70535572 11.28650157 -6.875 12.75 C-6.99294922 13.84441406 -6.99294922 13.84441406 -7.11328125 14.9609375 C-7.56125979 18.75152517 -8.25095183 21.64036998 -10 25 C-10.2405332 27.48987441 -10.2405332 27.48987441 -10.125 30.0625 C-10.10695312 30.91972656 -10.08890625 31.77695312 -10.0703125 32.66015625 C-10.04710937 33.43230469 -10.02390625 34.20445313 -10 35 C-10 37.83967231 -10.40267181 40.23735711 -11 43 C-10.34 43.33 -9.68 43.66 -9 44 C-9.33 44.70125 -9.66 45.4025 -10 46.125 C-11.09295056 49.26723285 -11.07335281 51.69912374 -11 55 C-11.33 55.66 -11.66 56.32 -12 57 C-11.67832773 59.4929601 -11.38584632 60.66422534 -9.46484375 62.3359375 C-7.52402452 64.54070815 -7.68691315 65.79900251 -7.8125 68.6875 C-7.83957031 69.49574219 -7.86664063 70.30398437 -7.89453125 71.13671875 C-7.92933594 71.75160156 -7.96414062 72.36648437 -8 73 C-9.98 73.495 -9.98 73.495 -12 74 C-12.66438475 78.84051749 -13.09667797 83.62084442 -13.375 88.5 C-13.75857119 93.90143692 -14.78047786 98.07845091 -17 103 C-18.12375572 99.62873285 -17.74481955 98.38746951 -17 95 C-16.90645663 93.45204644 -16.85518893 91.90106553 -16.84228516 90.3503418 C-16.83189713 89.45188538 -16.82150909 88.55342896 -16.81080627 87.62774658 C-16.80363083 86.6613324 -16.79645538 85.69491821 -16.7890625 84.69921875 C-16.76319694 82.60016971 -16.73655476 80.50113014 -16.70922852 78.40209961 C-16.69594513 77.30493622 -16.68266174 76.20777283 -16.66897583 75.07736206 C-16.45811896 58.82353115 -16.15947132 42.62204683 -14.5625 26.4375 C-14.4402002 25.18219482 -14.31790039 23.92688965 -14.19189453 22.63354492 C-12.3662733 5.55603349 -12.3662733 5.55603349 -8.75 1.4375 C-5.47468368 -0.27459717 -3.64178016 -0.63335307 0 0 Z " fill="#FACFBF" transform="translate(147,9)"/>
<path d="M0 0 C2.29273519 3.77108393 2.80598205 7.81941287 3.47265625 12.10546875 C3.60063095 12.90294022 3.72860565 13.70041168 3.86045837 14.52204895 C4.13012132 16.21526106 4.39635952 17.90902164 4.65942383 19.60327148 C5.05433974 22.13518238 5.46480374 24.66420454 5.87695312 27.19335938 C8.29265422 42.33472987 9.18491836 57.22253824 9.0625 72.5625 C9.05798828 73.67818359 9.05347656 74.79386719 9.04882812 75.94335938 C9.0373019 78.62896938 9.02104409 81.31445078 9 84 C9.66 84.33 10.32 84.66 11 85 C11.37890625 87.44140625 11.37890625 87.44140625 11.5625 90.5625 C11.77546998 93.97436603 12.04301658 97.32222173 12.49560547 100.71240234 C13.01342807 104.7941024 13.21543323 108.8614816 13.31640625 112.97265625 C13.33718735 113.69940048 13.35796844 114.42614471 13.37937927 115.1749115 C13.44401895 117.47069143 13.50323318 119.76657582 13.5625 122.0625 C13.60578827 123.60482705 13.64940547 125.1471449 13.69335938 126.68945312 C13.73467584 128.17967919 13.77570132 129.66991336 13.81640625 131.16015625 C13.83514297 131.84263931 13.8538797 132.52512238 13.8731842 133.22828674 C14.20723051 146.24467388 14.20723051 146.24467388 12.5 151.4375 C12.2215625 152.30246094 11.943125 153.16742188 11.65625 154.05859375 C11.4396875 154.69925781 11.223125 155.33992187 11 156 C10.09146253 152.83501291 9.81616876 149.84423035 9.625 146.5625 C9.27791874 142.21819953 8.49685545 139.63178974 6 136 C6.33 135.01 6.66 134.02 7 133 C7.99 133 8.98 133 10 133 C9.91618748 129.24927409 9.80372343 125.49985026 9.6875 121.75 C9.66494141 120.72519531 9.64238281 119.70039063 9.61914062 118.64453125 C9.39441032 111.90262201 8.62780918 105.42751411 7.51953125 98.7890625 C5.51230482 86.45476925 5.30531467 74.09674913 5 61.625 C4.61573287 45.97728507 3.71438672 30.74759614 1.3210907 15.27139282 C0.60517229 10.20699216 0.27933977 5.10517502 0 0 Z " fill="#F9DFD0" transform="translate(170,38)"/>
<path d="M0 0 C0.2475 0.61875 0.495 1.2375 0.75 1.875 C2.24391702 4.41465893 3.21539622 5.09909878 6 6 C6.66 5.835 7.32 5.67 8 5.5 C10 5 10 5 12.25 5.9375 C12.8275 6.288125 13.405 6.63875 14 7 C14.66 5.68 15.32 4.36 16 3 C16.825 3.309375 17.65 3.61875 18.5 3.9375 C22.39126155 5.11877583 25.96166953 5.58224168 30 6 C30.495 7.485 30.495 7.485 31 9 C29.02 9.66 27.04 10.32 25 11 C27.31 11.66 29.62 12.32 32 13 C31.01 14.98 30.02 16.96 29 19 C29.66 19 30.32 19 31 19 C31.495 20.98 31.495 20.98 32 23 C27.43996902 23 24.1460983 22.12181052 19.9375 20.5 C17.6332871 19.6154653 15.34322561 18.7810752 13 18 C13 17.01 13 16.02 13 15 C12.29875 14.731875 11.5975 14.46375 10.875 14.1875 C7.8350176 12.9318551 4.9272226 11.49764877 2 10 C2 9.34 2 8.68 2 8 C-1.87797662 7.56613908 -1.87797662 7.56613908 -3.75 9.5 C-4.1625 9.995 -4.575 10.49 -5 11 C-6.1875 9.375 -6.1875 9.375 -7 7 C-4.25490196 0 -4.25490196 0 0 0 Z " fill="#F5BFA9" transform="translate(114,125)"/>
<path d="M0 0 C3.71973817 2.39126025 7.01278146 4.87854322 10.35546875 7.7890625 C12.21263874 9.15657484 14.06994581 9.96913587 16.1875 10.875 C19.55338807 12.46159228 19.9745095 12.95477492 21.9375 16.4375 C22.288125 17.613125 22.63875 18.78875 23 20 C23.28875 20.804375 23.5775 21.60875 23.875 22.4375 C24.06662467 26.36580569 22.50907745 29.42655687 21 33 C20.43107466 34.49757478 19.86829152 35.9975014 19.3125 37.5 C18.879375 38.655 18.44625 39.81 18 41 C17.67 41 17.34 41 17 41 C17 37.04 17 33.08 17 29 C15.35 29 13.7 29 12 29 C12 29.66 12 30.32 12 31 C11.34 31 10.68 31 10 31 C10.33 29.02 10.66 27.04 11 25 C10.34 25 9.68 25 9 25 C8.76925781 24.01 8.53851563 23.02 8.30078125 22 C6.46062402 14.44330442 4.54180719 8.43422685 0 2 C0 1.34 0 0.68 0 0 Z " fill="#AA3F24" transform="translate(112,141)"/>
<path d="M0 0 C0.66 0.99 1.32 1.98 2 3 C1.01 3.66 0.02 4.32 -1 5 C-0.79375 5.9075 -0.5875 6.815 -0.375 7.75 C0.0127245 11.11027897 -0.19588033 12.24075815 -2 15 C-1.01 15.33 -0.02 15.66 1 16 C1.36625971 20.51720311 1.36625971 20.51720311 -0.375 22.8125 C-2 24 -2 24 -4 24 C-4 24.66 -4 25.32 -4 26 C-4.66 26 -5.32 26 -6 26 C-6 28.31 -6 30.62 -6 33 C-8.46278801 34.231394 -10.2795055 34.07159196 -13 34 C-13 33.34 -13 32.68 -13 32 C-12.01 32 -11.02 32 -10 32 C-10.515625 30.80375 -11.03125 29.6075 -11.5625 28.375 C-13.66804674 22.06838618 -13.46946694 15.44798882 -12 9 C-9.42562155 5.86942868 -6.60411854 3.84826592 -3 2 C-2.01 2 -1.02 2 0 2 C0 1.34 0 0.68 0 0 Z " fill="#F7D1BF" transform="translate(92,136)"/>
<path d="M0 0 C0.66 1.32 1.32 2.64 2 4 C2.99 3.67 3.98 3.34 5 3 C5.99 3.66 6.98 4.32 8 5 C8.375 7.4375 8.375 7.4375 8 10 C7.525625 10.45375 7.05125 10.9075 6.5625 11.375 C4.64129677 13.04192066 4.64129677 13.04192066 4.625 16.4375 C4 20 4 20 1.4375 22.4375 C0.2309375 23.2109375 0.2309375 23.2109375 -1 24 C-0.54552268 26.54507297 -0.16262009 27.82487067 1.625 29.75 C3.77895344 33.27465109 2.73110354 36.0121625 2 40 C-0.6465335 37.3534665 -1.59941997 34.43778736 -3 31 C-3.62648437 30.95101562 -4.25296875 30.90203125 -4.8984375 30.8515625 C-5.71570313 30.77679688 -6.53296875 30.70203125 -7.375 30.625 C-8.18710938 30.55539063 -8.99921875 30.48578125 -9.8359375 30.4140625 C-12 30 -12 30 -14 28 C-12 26 -12 26 -9.375 25.875 C-8.59125 25.91625 -7.8075 25.9575 -7 26 C-7.33 25.01 -7.66 24.02 -8 23 C-7.66015625 20.30078125 -7.66015625 20.30078125 -7.0625 17.3125 C-6.86785156 16.31863281 -6.67320312 15.32476562 -6.47265625 14.30078125 C-6.31667969 13.54152344 -6.16070312 12.78226563 -6 12 C-4.68 11.67 -3.36 11.34 -2 11 C-2 9.68 -2 8.36 -2 7 C-1.34 7 -0.68 7 0 7 C0 4.69 0 2.38 0 0 Z " fill="#FACCB7" transform="translate(152,108)"/>
<path d="M0 0 C0.33 0 0.66 0 1 0 C0.99476318 1.3003418 0.98952637 2.60068359 0.98413086 3.94042969 C0.96587927 8.81591083 0.95449509 13.69138901 0.94506836 18.56689453 C0.94007386 20.66748565 0.93327596 22.76807336 0.92456055 24.86865234 C0.80034075 40.96334508 0.80034075 40.96334508 2 57 C1.34 57 0.68 57 0 57 C-0.33 66.24 -0.66 75.48 -1 85 C-1.33 85 -1.66 85 -2 85 C-2.05534912 84.2793335 -2.11069824 83.55866699 -2.16772461 82.81616211 C-2.42197408 79.52308909 -2.67970742 76.23029747 -2.9375 72.9375 C-3.02451172 71.80376953 -3.11152344 70.67003906 -3.20117188 69.50195312 C-3.63720068 63.96277236 -4.16189793 58.49177406 -5 53 C-5.32591694 46.69893907 -5.32591694 46.69893907 -4 43.85546875 C-2.59862392 39.85388315 -2.74800357 36.14334631 -2.8125 31.9375 C-2.81314453 31.13505859 -2.81378906 30.33261719 -2.81445312 29.50585938 C-2.84212136 25.80139041 -3.04782078 22.59016863 -4 19 C-4.28903059 14.24799701 -4.19494132 9.63039762 -3 5 C-2.34 5 -1.68 5 -1 5 C-0.67 3.35 -0.34 1.7 0 0 Z " fill="#E78E6E" transform="translate(151,27)"/>
<path d="M0 0 C0.33 0 0.66 0 1 0 C0.44687265 4.02992782 -0.1558062 8.02022924 -1 12 C-0.16210938 11.68289062 0.67578125 11.36578125 1.5390625 11.0390625 C5.2340989 9.92971749 8.52889627 9.59270398 12.375 9.375 C14.24285156 9.26285156 14.24285156 9.26285156 16.1484375 9.1484375 C17.55996094 9.07496094 17.55996094 9.07496094 19 9 C19 9.66 19 10.32 19 11 C17.68 11.33 16.36 11.66 15 12 C14.67 15.63 14.34 19.26 14 23 C6.98979521 23.45227128 1.14563238 22.6459208 -5 19 C-6.26351118 15.20946645 -5.4910584 13.78892667 -4.1875 10.0625 C-3.83042969 9.02222656 -3.47335938 7.98195313 -3.10546875 6.91015625 C-2.19258686 4.50698661 -1.20651784 2.26563304 0 0 Z " fill="#F9AD8F" transform="translate(131,108)"/>
<path d="M0 0 C2.43046191 6.32837252 3.59060025 12.23784552 4 19 C1.38229617 20.44114447 0.12688726 21 -2.9375 21 C-6.18940092 19.9381548 -7.94928779 18.69408267 -10.03125 15.96484375 C-11.88308174 12.20891082 -11.91027488 8.12735574 -12 4 C-10 7 -10 7 -9 9 C-9.061875 8.071875 -9.12375 7.14375 -9.1875 6.1875 C-9 3 -9 3 -7.875 1.125 C-5.21965017 -0.4682099 -3.03210482 -0.20214032 0 0 Z " fill="#F3C1B5" transform="translate(114,167)"/>
<path d="M0 0 C0.99 0.33 1.98 0.66 3 1 C2.67 1.70125 2.34 2.4025 2 3.125 C0.90704944 6.26723285 0.92664719 8.69912374 1 12 C0.67 12.66 0.34 13.32 0 14 C0.32167227 16.4929601 0.61415368 17.66422534 2.53515625 19.3359375 C4.47597548 21.54070815 4.31308685 22.79900251 4.1875 25.6875 C4.16042969 26.49574219 4.13335937 27.30398437 4.10546875 28.13671875 C4.07066406 28.75160156 4.03585938 29.36648437 4 30 C2.68 30.33 1.36 30.66 0 31 C-0.66438475 35.84051749 -1.09667797 40.62084442 -1.375 45.5 C-1.75857119 50.90143692 -2.78047786 55.07845091 -5 60 C-6.15644579 56.53066264 -5.71792437 55.52526844 -5 52 C-4.7437349 48.7880106 -4.62782533 45.5709087 -4.5 42.3515625 C-4.45939453 41.42080902 -4.41878906 40.49005554 -4.37695312 39.53109741 C-4.24761923 36.56254264 -4.12325918 33.5938128 -4 30.625 C-3.87659735 27.66333632 -3.75198116 24.70175424 -3.62304688 21.74032593 C-3.54295266 19.90064203 -3.46596734 18.06081928 -3.39257812 16.22085571 C-3.18343907 11.41495707 -2.77282586 6.7488539 -2 2 C-1.34 2 -0.68 2 0 2 C0 1.34 0 0.68 0 0 Z " fill="#FAC1A8" transform="translate(135,52)"/>
<path d="M0 0 C5.85362454 5.7035316 5.85362454 5.7035316 6.4375 10.875 C6.79666238 14.05045155 7.53357967 16.15881061 9 19 C9.12375 20.051875 9.2475 21.10375 9.375 22.1875 C9.91387399 25.47463131 10.51493832 27.2898836 11.9375 30.1875 C14.18109939 34.87718971 14.8728463 39.46218639 15.5078125 44.59375 C15.67023438 45.3878125 15.83265625 46.181875 16 47 C16.66 47.33 17.32 47.66 18 48 C18 51.3 18 54.6 18 58 C19.98 57.34 21.96 56.68 24 56 C23.67 56.99 23.34 57.98 23 59 C18.25 60.125 18.25 60.125 16 59 C15.375 56.9375 15.375 56.9375 15 55 C14.34 55.66 13.68 56.32 13 57 C11.875 50.375 11.875 50.375 13 47 C12.34 47 11.68 47 11 47 C10.86722656 46.30132812 10.73445313 45.60265625 10.59765625 44.8828125 C10.42105469 43.97273438 10.24445313 43.06265625 10.0625 42.125 C9.88847656 41.22007812 9.71445313 40.31515625 9.53515625 39.3828125 C9.10036299 37.00043683 9.10036299 37.00043683 8 35 C7.72690486 32.47278622 7.55442823 29.94588875 7.37890625 27.41015625 C7.13222921 24.74469973 7.13222921 24.74469973 5 22 C5.185625 21.278125 5.37125 20.55625 5.5625 19.8125 C6.36478669 14.65494271 3.6150972 10.20741302 1.3125 5.6875 C0 3 0 3 0 0 Z M1 17 C2.65 17 4.3 17 6 17 C6 17.33 6 17.66 6 18 C4.35 18 2.7 18 1 18 C1 17.67 1 17.34 1 17 Z " fill="#E58871" transform="translate(107,134)"/>
<path d="M0 0 C1.77149845 3.1841464 2.62308068 6.20960386 3.40234375 9.76171875 C3.77842773 11.44104492 3.77842773 11.44104492 4.16210938 13.15429688 C4.41798828 14.32025391 4.67386719 15.48621094 4.9375 16.6875 C7.39441146 31.13102622 7.39441146 31.13102622 15 43 C15 44.32 15 45.64 15 47 C14.01 47 13.02 47 12 47 C11.16180842 45.37750059 10.3295884 43.75191503 9.5 42.125 C9.0359375 41.22007812 8.571875 40.31515625 8.09375 39.3828125 C7 37 7 37 7 35 C4.525 35.495 4.525 35.495 2 36 C1.67 38.31 1.34 40.62 1 43 C0.34 43 -0.32 43 -1 43 C-1.2765289 40.92002174 -1.52030075 38.8356692 -1.75 36.75 C-1.88921875 35.58984375 -2.0284375 34.4296875 -2.171875 33.234375 C-1.95797132 29.20909662 -0.79735152 28.69919884 2 26 C2.30549778 23.20505215 2.30549778 23.20505215 1.8125 20.3125 C1.69519531 19.33925781 1.57789062 18.36601562 1.45703125 17.36328125 C1.23892276 15.05226104 1.23892276 15.05226104 0 14 C-0.07271741 11.64686445 -0.08370868 9.29166332 -0.0625 6.9375 C-0.05347656 5.64714844 -0.04445313 4.35679687 -0.03515625 3.02734375 C-0.02355469 2.02832031 -0.01195313 1.02929688 0 0 Z " fill="#EA9980" transform="translate(94,144)"/>
<path d="M0 0 C0 5.94 0 11.88 0 18 C-6.41878176 16.71624365 -8.28124189 14.13752601 -12 9 C-13.51881049 6.37538888 -14.7610134 3.77532998 -16 1 C-11.02155978 -0.99137609 -5.05462732 -2.52731366 0 0 Z " fill="#ECAE91" transform="translate(176,146)"/>
<path d="M0 0 C0.33 0 0.66 0 1 0 C3.65659203 16.54743427 4.65640941 32.88500496 5.125 49.625 C5.2334722 53.21663495 5.34523528 56.80811892 5.4616394 60.39950562 C5.53249927 62.60965284 5.59843076 64.81996524 5.65872192 67.03042603 C5.68900482 68.02021454 5.71928772 69.01000305 5.75048828 70.02978516 C5.78687912 71.32923569 5.78687912 71.32923569 5.82400513 72.65493774 C5.99182568 74.89108035 6.42537237 76.83946828 7 79 C7.23416758 81.44285936 7.42266909 83.864167 7.5625 86.3125 C7.6049585 87.0336499 7.64741699 87.7547998 7.69116211 88.49780273 C8.22008912 98.65596842 8.0876208 108.831943 8 119 C6.02 117.35 4.04 115.7 2 114 C2.31710938 113.44828125 2.63421875 112.8965625 2.9609375 112.328125 C4.12709975 109.71522011 4.40045711 107.59420998 4.625 104.75 C4.73714844 103.41195312 4.73714844 103.41195312 4.8515625 102.046875 C4.90054688 101.37140625 4.94953125 100.6959375 5 100 C5.66 100 6.32 100 7 100 C6.67 98.9275 6.34 97.855 6 96.75 C4.78069188 91.99214034 4.88515139 87.42306082 5.02734375 82.5390625 C5.1852483 80.00586665 5.1852483 80.00586665 4 78 C3.85742855 76.29651461 3.77364758 74.58795397 3.71875 72.87939453 C3.68201172 71.81133575 3.64527344 70.74327698 3.60742188 69.64285278 C3.57197266 68.48453949 3.53652344 67.3262262 3.5 66.1328125 C3.45939453 64.94654266 3.41878906 63.76027283 3.37695312 62.53805542 C3.24691038 58.73383609 3.12280187 54.92945953 3 51.125 C2.83823755 46.12742489 2.67077892 41.13008662 2.5 36.1328125 C2.46455078 34.97854767 2.42910156 33.82428284 2.39257812 32.63504028 C2.3374707 31.02349564 2.3374707 31.02349564 2.28125 29.37939453 C2.25095703 28.43500519 2.22066406 27.49061584 2.18945312 26.51760864 C2.01627004 24.21620962 1.60784212 22.21768643 1 20 C0.8578299 18.41432161 0.75495959 16.82481368 0.68359375 15.234375 C0.64169922 14.34492187 0.59980469 13.45546875 0.55664062 12.5390625 C0.49766602 11.15847656 0.49766602 11.15847656 0.4375 9.75 C0.39431641 8.81414063 0.35113281 7.87828125 0.30664062 6.9140625 C0.2008195 4.60951359 0.09873443 2.30486161 0 0 Z " fill="#F4C8B1" transform="translate(171,51)"/>
<path d="M0 0 C0 0.33 0 0.66 0 1 C-1.0725 1.226875 -2.145 1.45375 -3.25 1.6875 C-7.58579037 3.20502663 -8.76638117 4.02912208 -11 8 C-12.75957924 14.59141565 -13.46070508 21.34301365 -14 28.125 C-14.08048584 29.10452637 -14.16097168 30.08405273 -14.24389648 31.09326172 C-14.50765591 34.39472293 -14.75638914 37.69699207 -15 41 C-15.08781738 42.18464844 -15.17563477 43.36929688 -15.26611328 44.58984375 C-16.19513328 57.44437813 -16.9757595 70.28257883 -17.27734375 83.16796875 C-17.29740982 84.01552734 -17.31747589 84.86308594 -17.33815002 85.73632812 C-17.43282174 89.89263261 -17.5117926 94.04860126 -17.57055664 98.20556641 C-17.59902532 99.71647316 -17.62758512 101.2273782 -17.65625 102.73828125 C-17.6614415 103.43052292 -17.666633 104.12276459 -17.67198181 104.83598328 C-17.74818277 108.4398824 -17.94056114 109.91084171 -20 113 C-19.70042211 89.3217608 -19.11997252 65.69508206 -17.5625 42.0625 C-17.50105804 41.10784851 -17.43961609 40.15319702 -17.37631226 39.1696167 C-15.26907044 6.85391997 -15.26907044 6.85391997 -11.625 2.125 C-7.40084699 -1.29455244 -5.20034044 -1.30008511 0 0 Z " fill="#FDF3EC" transform="translate(145,7)"/>
<path d="M0 0 C0.33 0 0.66 0 1 0 C3.48147961 16.22345494 3.12824207 32.63433834 3 49 C3.66 49.33 4.32 49.66 5 50 C5.37890625 52.44140625 5.37890625 52.44140625 5.5625 55.5625 C5.77112459 58.90475105 6.02511391 62.17838847 6.4921875 65.49609375 C7.31074928 71.79637894 7.36587921 78.15656205 7.5625 84.5 C7.60568359 85.799375 7.64886719 87.09875 7.69335938 88.4375 C7.7988251 91.62490845 7.90094448 94.81238698 8 98 C7.01 98 6.02 98 5 98 C4.98541748 97.3287207 4.97083496 96.65744141 4.95581055 95.96582031 C4.64379272 82.92501881 4.03084469 70.02138512 2.5 57.0625 C0.28446601 38.12673263 -0.29171386 19.05863896 0 0 Z " fill="#FCF3EA" transform="translate(176,73)"/>
<path d="M0 0 C-0.66 0.66 -1.32 1.32 -2 2 C-3.32 2 -4.64 2 -6 2 C-6.33 2.99 -6.66 3.98 -7 5 C-7.99 5 -8.98 5 -10 5 C-12.73506974 13.6865815 -11.41346104 24.40204504 -9 33 C-9.99 33 -10.98 33 -12 33 C-11.67 34.32 -11.34 35.64 -11 37 C-8.36 37.66 -5.72 38.32 -3 39 C-2.94617894 41.62527189 -2.90641687 44.24944713 -2.875 46.875 C-2.85824219 47.62136719 -2.84148437 48.36773437 -2.82421875 49.13671875 C-2.8066041 51.09194461 -2.89679811 53.04742021 -3 55 C-3.66 55.66 -4.32 56.32 -5 57 C-5.77249145 51.59255982 -6.09752461 46.46137814 -6 41 C-8.31 40.67 -10.62 40.34 -13 40 C-12.67 41.98 -12.34 43.96 -12 46 C-12.99 46.495 -12.99 46.495 -14 47 C-14.95807717 43.77599427 -15.13422292 40.85714324 -15.125 37.5 C-15.12757812 36.5615625 -15.13015625 35.623125 -15.1328125 34.65625 C-15.01295935 32.25918708 -14.59896068 30.30693449 -14 28 C-13.7290255 23.68831744 -13.8818753 19.62283934 -14.6875 15.375 C-15.0929971 10.99563137 -14.18050792 8.79830412 -12 5 C-8.50698759 0.92139433 -5.44573879 -0.64830224 0 0 Z " fill="#FCF0E7" transform="translate(91,135)"/>
<path d="M0 0 C1.32 0 2.64 0 4 0 C4.16207546 11.03913945 3.65764731 21.98440762 3 33 C2.67 33 2.34 33 2 33 C2 30.69 2 28.38 2 26 C1.34 25.67 0.68 25.34 0 25 C0.66 25 1.32 25 2 25 C1.67 17.74 1.34 10.48 1 3 C0.67 3.99 0.34 4.98 0 6 C-0.66 6 -1.32 6 -2 6 C-2.02707139 8.24993359 -2.04642829 10.49996095 -2.0625 12.75 C-2.07410156 14.00296875 -2.08570313 15.2559375 -2.09765625 16.546875 C-2.13188465 19.77809637 -2.13188465 19.77809637 -1.50439453 21.95629883 C-0.6133072 25.56679837 -0.8154728 29.23636664 -0.8125 32.9375 C-0.80025391 33.73607422 -0.78800781 34.53464844 -0.77539062 35.35742188 C-0.76460731 39.69590705 -0.97984621 43.0475252 -3 47 C-3.33 47 -3.66 47 -4 47 C-4.89316269 41.06390334 -4.97040422 35.93024803 -4 30 C-4.33 30 -4.66 30 -5 30 C-5.06058594 29.09636719 -5.12117187 28.19273438 -5.18359375 27.26171875 C-5.26738281 26.08222656 -5.35117188 24.90273438 -5.4375 23.6875 C-5.51871094 22.51574219 -5.59992188 21.34398437 -5.68359375 20.13671875 C-5.8867371 16.97409042 -5.8867371 16.97409042 -7 14 C-6.00390625 11.08203125 -6.00390625 11.08203125 -4.5625 7.8125 C-4.08941406 6.72582031 -3.61632812 5.63914062 -3.12890625 4.51953125 C-2.75636719 3.68808594 -2.38382813 2.85664063 -2 2 C-1.34 2 -0.68 2 0 2 C0 1.34 0 0.68 0 0 Z " fill="#F48F72" transform="translate(150,26)"/>
<path d="M0 0 C6.57293111 5.89772435 8.35535007 14.45838846 9 23 C9.66 23 10.32 23 11 23 C10.67 24.98 10.34 26.96 10 29 C10.66 29 11.32 29 12 29 C12 28.34 12 27.68 12 27 C13.65 27 15.3 27 17 27 C17.33 30.3 17.66 33.6 18 37 C18.66 35.02 19.32 33.04 20 31 C20.33 31 20.66 31 21 31 C21.08121924 32.60332791 21.13929134 34.20784026 21.1875 35.8125 C21.23970703 37.15248047 21.23970703 37.15248047 21.29296875 38.51953125 C21 41 21 41 19.67578125 42.82421875 C18 44 18 44 15 44 C15 40.7 15 37.4 15 34 C13.515 34.495 13.515 34.495 12 35 C11.505 33.515 11.505 33.515 11 32 C11.33 31.34 11.66 30.68 12 30 C11.01 30 10.02 30 9 30 C8.72285156 29.14535156 8.44570312 28.29070312 8.16015625 27.41015625 C7.61681641 25.75306641 7.61681641 25.75306641 7.0625 24.0625 C6.70285156 22.96035156 6.34320313 21.85820312 5.97265625 20.72265625 C5.26143332 18.11876525 5.26143332 18.11876525 4 17 C3.6503697 15.4663276 3.34533014 13.92238472 3.0625 12.375 C2.25678498 8.15862667 1.24930384 4.10485549 0 0 Z " fill="#D17154" transform="translate(112,143)"/>
<path d="M0 0 C1.2375 0.495 1.2375 0.495 2.5 1 C5.47704561 1.85058446 7.19922554 2.0883778 10.1875 2 C14 2 14 2 17 4 C16.67 4.66 16.34 5.32 16 6 C16.65742187 5.92998779 17.31484375 5.85997559 17.9921875 5.7878418 C26.55030568 4.96812367 35.05023483 4.81380053 43.63916016 4.81469727 C46.02393619 4.81247772 48.40827208 4.79415433 50.79296875 4.77539062 C52.32031094 4.77246158 53.84765529 4.77047352 55.375 4.76953125 C56.43593872 4.75875298 56.43593872 4.75875298 57.51831055 4.74775696 C61.27597296 4.76522874 63.73342391 5.1954594 67 7 C59.15035902 7.11606911 51.30092065 7.20480322 43.45063591 7.25906086 C39.80499748 7.28510794 36.15994796 7.32041371 32.51464844 7.37719727 C28.99382909 7.43169587 25.4735746 7.4614573 21.95236588 7.47438622 C19.96145224 7.48806304 17.97076454 7.52706858 15.98019409 7.56648254 C5.87973303 7.56960709 5.87973303 7.56960709 2.12939453 4.59448242 C0 2 0 2 0 0 Z " fill="#D2A78D" transform="translate(98,258)"/>
<path d="M0 0 C2.4294516 3.6441774 2.16179575 5.71241272 2 10 C2.66 10 3.32 10 4 10 C3.979375 10.94875 3.95875 11.8975 3.9375 12.875 C3.77448174 15.90666283 3.77448174 15.90666283 5 18 C5.66 17.67 6.32 17.34 7 17 C7 18.65 7 20.3 7 22 C12.15998377 21.62590749 12.15998377 21.62590749 16.4375 18.9375 C16.953125 18.298125 17.46875 17.65875 18 17 C17.4409112 20.24271506 16.5867822 21.93057424 14 24 C13.34 24 12.68 24 12 24 C11.67 24.99 11.34 25.98 11 27 C9.0625 27.5625 9.0625 27.5625 7 28 C6.34 28.66 5.68 29.32 5 30 C4.01 29.67 3.02 29.34 2 29 C1.67 29.99 1.34 30.98 1 32 C0.09470211 27.59332941 0.04818948 23.84176308 0.5 19.375 C1.05347073 12.78939885 0.78002348 6.5521972 0 0 Z " fill="#EBAE92" transform="translate(116,171)"/>
<path d="M0 0 C1.32 0.33 2.64 0.66 4 1 C4 1.66 4 2.32 4 3 C5.3303125 3.4021875 5.3303125 3.4021875 6.6875 3.8125 C9.80789038 4.93113051 12.33172267 6.03803137 15 8 C15 8.99 15 9.98 15 11 C15.99 11.33 16.98 11.66 18 12 C17.01 12 16.02 12 15 12 C15 12.66 15 13.32 15 14 C10.42409231 14.31199371 8.49497103 13.91247585 5 11 C4.01 10.8453125 4.01 10.8453125 3 10.6875 C-0.2597653 9.56695568 -1.30026955 6.85311897 -3 4 C-2.01 2.68 -1.02 1.36 0 0 Z " fill="#EFA48C" transform="translate(112,132)"/>
<path d="M0 0 C0.66 0.33 1.32 0.66 2 1 C2.4140625 3.50390625 2.4140625 3.50390625 2.625 6.5625 C2.69976562 7.57441406 2.77453125 8.58632812 2.8515625 9.62890625 C2.90054688 10.41136719 2.94953125 11.19382813 3 12 C2.01 12.33 1.02 12.66 0 13 C-1.00496852 16.01490557 -1.10335303 18.04181692 -1.0625 21.1875 C-1.04896484 22.53908203 -1.04896484 22.53908203 -1.03515625 23.91796875 C-1.02355469 24.60503906 -1.01195313 25.29210937 -1 26 C-5.16277256 22.94730012 -6.04810272 19.55236643 -6.89453125 14.68359375 C-7.06288375 10.39995795 -5.73671173 6.86558417 -4 3 C-2.68 3 -1.36 3 0 3 C0 2.01 0 1.02 0 0 Z " fill="#F2B096" transform="translate(94,158)"/>
<path d="M0 0 C2.38564077 0.57584432 4.66682784 1.22227595 7 2 C7 3.32 7 4.64 7 6 C7.928125 5.690625 8.85625 5.38125 9.8125 5.0625 C11.875 4.375 13.9375 3.6875 16 3 C15.14474906 6.57971012 14.11704021 10.09925425 13.0625 13.625 C12.55396484 15.34589844 12.55396484 15.34589844 12.03515625 17.1015625 C11 20 11 20 9 22 C9 18.04 9 14.08 9 10 C7.35 10 5.7 10 4 10 C4 10.66 4 11.32 4 12 C3.34 12 2.68 12 2 12 C2.33 10.02 2.66 8.04 3 6 C2.34 6 1.68 6 1 6 C0.67 4.02 0.34 2.04 0 0 Z " fill="#AC4B2F" transform="translate(120,160)"/>
<path d="M0 0 C3 3.625 3 3.625 3 7 C2.01 7.495 2.01 7.495 1 8 C1.3403125 9.11375 1.3403125 9.11375 1.6875 10.25 C2 13 2 13 0.5625 15.3125 C0.046875 15.869375 -0.46875 16.42625 -1 17 C0.58337885 21.35429183 2.09963832 23.36362735 6.1875 25.375 C7.45045266 25.93479524 8.71903607 26.48274616 10 27 C10 27.33 10 27.66 10 28 C8.02 28.33 6.04 28.66 4 29 C4 28.01 4 27.02 4 26 C3.2575 25.79375 2.515 25.5875 1.75 25.375 C-1.9101088 23.5449456 -3.12711824 21.60703153 -5 18 C-5.25 14.625 -5.25 14.625 -5 12 C-5.66 11.67 -6.32 11.34 -7 11 C-5.63016497 7.83884224 -5.0109362 7.0072908 -2 5 C-0.79549696 2.44816596 -0.79549696 2.44816596 0 0 Z " fill="#E99C7E" transform="translate(142,147)"/>
<path d="M0 0 C4.15187618 1.5164982 5.63529148 4.08470168 7.9375 7.75 C10.15452137 11.21669073 12.2977448 14.51200194 15.0625 17.5625 C15.701875 18.366875 16.34125 19.17125 17 20 C16.67 20.99 16.34 21.98 16 23 C11.81532378 21.45011992 9.64770536 18.40522325 7 15 C6.39285156 14.2678125 5.78570312 13.535625 5.16015625 12.78125 C4.52980469 12.0078125 3.89945313 11.234375 3.25 10.4375 C2.65703125 9.71433594 2.0640625 8.99117187 1.453125 8.24609375 C-0.14315514 5.77872525 -0.70147507 3.91061809 -1 1 C-0.67 0.67 -0.34 0.34 0 0 Z " fill="#FBDCCB" transform="translate(154,142)"/>
<path d="M0 0 C1.24361238 3.73083714 0.54946902 5.34381202 -0.4375 9.125 C-2.85387342 19.8817591 -3.72074672 31.45955936 0.34375 41.921875 C1.11431859 44.36200887 1.10672492 46.45638943 1 49 C-0.65 49 -2.3 49 -4 49 C-3.96744792 47.07942708 -3.93489583 45.15885417 -3.90234375 43.23828125 C-3.94138472 40.9663087 -3.94138472 40.9663087 -4.48828125 38.65234375 C-6.19453556 29.80847599 -5.17221497 20.60539489 -3.625 11.8125 C-3.49899414 11.09416992 -3.37298828 10.37583984 -3.24316406 9.63574219 C-2.5775067 6.14477601 -1.82435358 3.0696732 0 0 Z " fill="#F3DDCD" transform="translate(171,216)"/>
<path d="M0 0 C0.33 0 0.66 0 1 0 C0.96693723 2.75322741 0.89974574 5.49840371 0.8125 8.25 C0.80669922 9.02730469 0.80089844 9.80460938 0.79492188 10.60546875 C0.6379216 14.6874758 0.51975885 16.42464725 -2.30078125 19.546875 C-5 21 -5 21 -9 21 C-10.2380014 17.42355152 -9.74926071 14.66305234 -9 11 C-9.99 10.67 -10.98 10.34 -12 10 C-12.33 7.36 -12.66 4.72 -13 2 C-12.01 2 -11.02 2 -10 2 C-9.67 3.32 -9.34 4.64 -9 6 C-8.34 6 -7.68 6 -7 6 C-6.67 8.97 -6.34 11.94 -6 15 C-5.01 15 -4.02 15 -3 15 C-1.60300974 12.20601948 -1.39128865 9.46076285 -0.9375 6.375 C-0.76089844 5.18648437 -0.58429688 3.99796875 -0.40234375 2.7734375 C-0.26957031 1.85820312 -0.13679687 0.94296875 0 0 Z " fill="#D68467" transform="translate(134,171)"/>
<path d="M0 0 C-0.33 0.99 -0.66 1.98 -1 3 C-1.66 3 -2.32 3 -3 3 C-2.97905273 3.66008057 -2.95810547 4.32016113 -2.93652344 5.00024414 C-2.85284607 8.02083818 -2.80117771 11.04118759 -2.75 14.0625 C-2.71648437 15.10083984 -2.68296875 16.13917969 -2.6484375 17.20898438 C-2.56546681 23.74292593 -3.15308317 27.661267 -7 33 C-7.33 33 -7.66 33 -8 33 C-7.93112505 28.78188503 -7.84316262 24.56472995 -7.73754883 20.34741211 C-7.70430999 18.91295372 -7.67627465 17.47836487 -7.65356445 16.04370117 C-7.61999729 13.98039193 -7.56768587 11.91827697 -7.51171875 9.85546875 C-7.48553467 8.61434326 -7.45935059 7.37321777 -7.43237305 6.09448242 C-7 3 -7 3 -5.71801758 1.0715332 C-4 0 -4 0 0 0 Z " fill="#F4BFAA" transform="translate(108,116)"/>
<path d="M0 0 C0.33 0 0.66 0 1 0 C1 7.92 1 15.84 1 24 C0.34 24 -0.32 24 -1 24 C-1.33 24.99 -1.66 25.98 -2 27 C-4.16040997 19.57359074 -4.95959774 12.59344125 -3 5 C-2.34 5 -1.68 5 -1 5 C-0.67 3.35 -0.34 1.7 0 0 Z " fill="#E96346" transform="translate(151,27)"/>
<path d="M0 0 C2.625 0.375 2.625 0.375 5 1 C4.67 1.66 4.34 2.32 4 3 C2.35 3 0.7 3 -1 3 C-1.12117187 4.10859375 -1.24234375 5.2171875 -1.3671875 6.359375 C-1.53606296 7.82296234 -1.70535572 9.28650157 -1.875 10.75 C-1.99294922 11.84441406 -1.99294922 11.84441406 -2.11328125 12.9609375 C-2.56125979 16.75152517 -3.25095183 19.64036998 -5 23 C-5.2405332 25.48987441 -5.2405332 25.48987441 -5.125 28.0625 C-5.10695312 28.91972656 -5.08890625 29.77695312 -5.0703125 30.66015625 C-5.04710937 31.43230469 -5.02390625 32.20445313 -5 33 C-5 36 -5 36 -7 39 C-11.43632186 30.12735628 -6.53842238 16.0568116 -4 7 C-2.92152793 3.88580738 -2.32931621 2.32931621 0 0 Z " fill="#FBBBA9" transform="translate(142,11)"/>
<path d="M0 0 C0.66 0 1.32 0 2 0 C2.18175781 1.02480469 2.36351563 2.04960937 2.55078125 3.10546875 C2.80416678 4.4662429 3.0581022 5.82691473 3.3125 7.1875 C3.43044922 7.86103516 3.54839844 8.53457031 3.66992188 9.22851562 C4.46683982 13.41744329 5.70821841 16.43500642 8 20 C8.1875 22.8125 8.1875 22.8125 8 25 C8.66 25 9.32 25 10 25 C10.69784331 27.434964 11.38353822 29.87227105 12.0625 32.3125 C12.26166016 33.00279297 12.46082031 33.69308594 12.66601562 34.40429688 C14.11328125 39.66015625 14.11328125 39.66015625 13 43 C11.45957857 39.05704409 9.93015785 35.11003812 8.41015625 31.15917969 C7.89319627 29.81984183 7.37341047 28.48159072 6.85058594 27.14453125 C0 9.61123084 0 9.61123084 0 0 Z " fill="#F4DECF" transform="translate(76,207)"/>
<path d="M0 0 C0 15.51 0 31.02 0 47 C-0.33 47 -0.66 47 -1 47 C-1.83442027 42.66857039 -2.10651655 38.61089331 -2.0625 34.203125 C-2.05476562 32.9140625 -2.04703125 31.625 -2.0390625 30.296875 C-2.02050169 28.27863103 -2.00010634 26.26041144 -1.97949219 24.2421875 C-1.90667957 16.42441202 -1.97223348 8.75871957 -3 1 C-1 0 -1 0 0 0 Z " fill="#E7A48A" transform="translate(154,67)"/>
<path d="M0 0 C3.07648443 0.89056128 4.62746924 1.34807118 6.25 4.1875 C7.11793105 7.44224144 7.60666875 10.65668436 8 14 C6.35 14.33 4.7 14.66 3 15 C0.31256307 10.2729904 -1.6837704 6.60691724 -1 1 C-0.67 0.67 -0.34 0.34 0 0 Z " fill="#F2B5A6" transform="translate(97,181)"/>
<path d="M0 0 C0.66 1.32 1.32 2.64 2 4 C3.65 4 5.3 4 7 4 C6.33333333 8 5.66666667 12 5 16 C4.34 16 3.68 16 3 16 C3 16.66 3 17.32 3 18 C2.34 18 1.68 18 1 18 C0.49528803 16.23050388 -0.00360685 14.45934777 -0.5 12.6875 C-0.7784375 11.70136719 -1.056875 10.71523437 -1.34375 9.69921875 C-2 7 -2 7 -2 4 C-1.34 4 -0.68 4 0 4 C0 2.68 0 1.36 0 0 Z " fill="#FABDA6" transform="translate(99,150)"/>
<path d="M0 0 C4.75 0.875 4.75 0.875 7 2 C7.703125 3.77734375 7.703125 3.77734375 8.25 5.9375 C8.44078125 6.64777344 8.6315625 7.35804688 8.828125 8.08984375 C8.88484375 8.72019531 8.9415625 9.35054687 9 10 C8.34 10.66 7.68 11.32 7 12 C6.01 12 5.02 12 4 12 C3.67 11.01 3.34 10.02 3 9 C-0.50294871 7.28432339 -0.50294871 7.28432339 -4 6 C-2.68 4.02 -1.36 2.04 0 0 Z " fill="#942811" transform="translate(125,152)"/>
<path d="M0 0 C0.226875 0.5775 0.45375 1.155 0.6875 1.75 C1.93074207 4.20085375 1.93074207 4.20085375 4.5625 6 C7.08066518 8.06618681 7.6619668 8.84502343 8 12 C6.02 11.34 4.04 10.68 2 10 C2 9.34 2 8.68 2 8 C-1.87797662 7.56613908 -1.87797662 7.56613908 -3.75 9.5 C-4.1625 9.995 -4.575 10.49 -5 11 C-6.1875 9.375 -6.1875 9.375 -7 7 C-4.25490196 0 -4.25490196 0 0 0 Z " fill="#F9B09A" transform="translate(114,125)"/>
<path d="M0 0 C0.66 0.33 1.32 0.66 2 1 C1.83886719 1.49242188 1.67773438 1.98484375 1.51171875 2.4921875 C0.79018367 6.02826017 0.81571371 9.53206949 0.8125 13.125 C0.80025391 13.85332031 0.78800781 14.58164063 0.77539062 15.33203125 C0.77014812 17.22282978 0.87766615 19.11315581 1 21 C1.66 21.66 2.32 22.32 3 23 C2.73308748 26.8702316 0.37854556 29.1011476 -2 32 C-2.33 32.99 -2.66 33.98 -3 35 C-1.515 34.505 -1.515 34.505 0 34 C0.33 34.99 0.66 35.98 1 37 C-1.97 37.495 -1.97 37.495 -5 38 C-5.38456624 34.05819601 -5.24752772 32.36767275 -2.99609375 29.0234375 C-0.01205711 24.0233566 -0.60376785 18.8374194 -0.8125 13.1875 C-0.86463614 11.11858556 -0.91300778 9.04957171 -0.95703125 6.98046875 C-0.98772705 6.07192139 -1.01842285 5.16337402 -1.05004883 4.22729492 C-1 2 -1 2 0 0 Z " fill="#EFB29B" transform="translate(105,117)"/>
<path d="M0 0 C0 0.33 0 0.66 0 1 C-1.010625 1.020625 -2.02125 1.04125 -3.0625 1.0625 C-7.24346754 1.72804177 -9.80764974 3.4870341 -12.6875 6.546875 C-15.38688884 11.59216128 -14.48426612 17.4578433 -14 23 C-15.32 23.33 -16.64 23.66 -18 24 C-17.93950287 21.62246262 -17.85232887 19.25080939 -17.75 16.875 C-17.73582031 16.20984375 -17.72164063 15.5446875 -17.70703125 14.859375 C-17.41566477 8.91549885 -15.20740126 5.45266807 -11.3125 1.125 C-7.66574774 -0.64909569 -3.98371984 -0.22982999 0 0 Z " fill="#FCEDE4" transform="translate(109,111)"/>
<path d="M0 0 C1.47038043 4.41114129 1.90404947 6.47975267 1 11 C1.33 11.99 1.66 12.98 2 14 C1.34 14 0.68 14 0 14 C0 18.29 0 22.58 0 27 C-0.66 25.68 -1.32 24.36 -2 23 C-2.66 22.01 -3.32 21.02 -4 20 C-6 16.33333333 -6 16.33333333 -6 14 C-5.34 14 -4.68 14 -4 14 C-4 13.34 -4 12.68 -4 12 C-3.34 12 -2.68 12 -2 12 C-2.02320312 11.30132812 -2.04640625 10.60265625 -2.0703125 9.8828125 C-2.08835937 8.97273437 -2.10640625 8.06265625 -2.125 7.125 C-2.14820312 6.22007812 -2.17140625 5.31515625 -2.1953125 4.3828125 C-2 2 -2 2 0 0 Z " fill="#EAA696" transform="translate(106,154)"/>
<path d="M0 0 C1.35862973 3.90480249 0.89469712 7.7101776 0.5625 11.75 C0.51029297 12.44738281 0.45808594 13.14476562 0.40429688 13.86328125 C0.27525928 15.57596203 0.13840386 17.28805066 0 19 C0.66 19 1.32 19 2 19 C2.33 22.96 2.66 26.92 3 31 C1.68 31 0.36 31 -1 31 C-1.16975572 27.50014278 -1.33523723 24.00009554 -1.5 20.5 C-1.54769531 19.51773438 -1.59539062 18.53546875 -1.64453125 17.5234375 C-1.90191812 12.00800467 -2.05258434 6.52135535 -2 1 C-1.34 0.67 -0.68 0.34 0 0 Z " fill="#EBB18D" transform="translate(162,233)"/>
<path d="M0 0 C0.99 0 1.98 0 3 0 C3 0.66 3 1.32 3 2 C3.99 2 4.98 2 6 2 C5.44531682 10.59758931 3.46627042 18.17497093 -2 25 C-2.2226746 23.56465159 -2.42761906 22.12654475 -2.625 20.6875 C-2.74101562 19.88699219 -2.85703125 19.08648437 -2.9765625 18.26171875 C-3 16 -3 16 -1 13 C-0.01 12.67 0.98 12.34 2 12 C2 8.37 2 4.74 2 1 C1.34 0.67 0.68 0.34 0 0 Z " fill="#F8B295" transform="translate(136,70)"/>
<path d="M0 0 C0 1.65 0 3.3 0 5 C-4.95 4.67 -9.9 4.34 -15 4 C-15.33 3.01 -15.66 2.02 -16 1 C-11.02155978 -0.99137609 -5.05462732 -2.52731366 0 0 Z " fill="#EDA282" transform="translate(176,146)"/>
<path d="M0 0 C0.33 0 0.66 0 1 0 C1.33 2.64 1.66 5.28 2 8 C2.33 5.69 2.66 3.38 3 1 C3.66 1 4.32 1 5 1 C6.78727273 6.46695188 7.35594791 9.1285809 4.9375 14.25 C4.628125 14.8275 4.31875 15.405 4 16 C2.68 15.67 1.36 15.34 0 15 C0 10.05 0 5.1 0 0 Z " fill="#F7C1AB" transform="translate(151,53)"/>
<path d="M0 0 C3.36720387 1.39332574 4.9859524 2.9789286 7 6 C4.83125748 5.49396008 3.00032373 5.00016187 1 4 C1.350625 5.258125 1.70125 6.51625 2.0625 7.8125 C2.93609485 10.94716388 3.07239297 11.78282108 2 15 C1.01 15 0.02 15 -1 15 C-1.33 15.66 -1.66 16.32 -2 17 C-1.85978195 14.35375716 -1.71310224 11.70815422 -1.5625 9.0625 C-1.52318359 8.30775391 -1.48386719 7.55300781 -1.44335938 6.77539062 C-1.11328125 1.11328125 -1.11328125 1.11328125 0 0 Z " fill="#F0A085" transform="translate(136,169)"/>
<path d="M0 0 C0.99 0.495 0.99 0.495 2 1 C3.53668796 1.53534436 5.07904306 2.05454272 6.625 2.5625 C7.44226563 2.83191406 8.25953125 3.10132813 9.1015625 3.37890625 C9.72804688 3.58386719 10.35453125 3.78882813 11 4 C11.05382106 6.62527189 11.09358313 9.24944713 11.125 11.875 C11.14175781 12.62136719 11.15851563 13.36773437 11.17578125 14.13671875 C11.1933959 16.09194461 11.10320189 18.04742021 11 20 C10.34 20.66 9.68 21.32 9 22 C8.22750855 16.59255982 7.90247539 11.46137814 8 6 C5.36 5.67 2.72 5.34 0 5 C0 3.35 0 1.7 0 0 Z " fill="#FAD7C7" transform="translate(77,170)"/>
<path d="M0 0 C1.32 0.33 2.64 0.66 4 1 C4 1.66 4 2.32 4 3 C4.66 3 5.32 3 6 3 C5.67 4.65 5.34 6.3 5 8 C6.65 7.67 8.3 7.34 10 7 C10.76173392 11.3164922 11.16063604 14.74433453 10 19 C9.67 19 9.34 19 9 19 C9 16.03 9 13.06 9 10 C7.35 10 5.7 10 4 10 C4 10.66 4 11.32 4 12 C3.34 12 2.68 12 2 12 C2.33 10.02 2.66 8.04 3 6 C2.34 6 1.68 6 1 6 C0.67 4.02 0.34 2.04 0 0 Z " fill="#BE5D41" transform="translate(120,160)"/>
<path d="M0 0 C5.14385142 1.57464839 7.40146763 3.70357292 9.9375 8.4375 C11.05367435 11.91004243 11.10427167 12.68374738 10.0625 15.9375 C9.05716333 14.31579621 8.05838093 12.69002763 7.0625 11.0625 C6.505625 10.15757813 5.94875 9.25265625 5.375 8.3203125 C4.0625 5.9375 4.0625 5.9375 4.0625 3.9375 C0.4325 3.6075 -3.1975 3.2775 -6.9375 2.9375 C-2.9375 -0.0625 -2.9375 -0.0625 0 0 Z " fill="#F7D0C0" transform="translate(158.9375,22.0625)"/>
<path d="M0 0 C3.21071285 3.21071285 3.64625557 7.52345562 4.8046875 11.8359375 C6.07108059 15.18815451 7.49563581 16.53754986 10 19 C10 20.32 10 21.64 10 23 C9.01 23 8.02 23 7 23 C6.57847656 22.14535156 6.15695313 21.29070312 5.72265625 20.41015625 C4.90087891 18.75306641 4.90087891 18.75306641 4.0625 17.0625 C3.51722656 15.96035156 2.97195312 14.85820312 2.41015625 13.72265625 C1.25295022 11.15205586 1.25295022 11.15205586 0 10 C-0.07205511 8.31391034 -0.08386068 6.62499341 -0.0625 4.9375 C-0.05347656 4.01839844 -0.04445313 3.09929687 -0.03515625 2.15234375 C-0.02355469 1.44207031 -0.01195313 0.73179687 0 0 Z " fill="#D57261" transform="translate(99,168)"/>
<path d="M0 0 C0.33 0 0.66 0 1 0 C1.33868777 2.20751848 1.67071689 4.41605911 2 6.625 C2.185625 7.85476562 2.37125 9.08453125 2.5625 10.3515625 C2.95402516 13.6166027 3.08080924 16.71712451 3 20 C1.68 19.34 0.36 18.68 -1 18 C-1.33 18.99 -1.66 19.98 -2 21 C-2.19551338 19.39679026 -2.38111983 17.79237014 -2.5625 16.1875 C-2.71912109 14.84751953 -2.71912109 14.84751953 -2.87890625 13.48046875 C-3 11 -3 11 -2 8 C-1.34 8 -0.68 8 0 8 C0 5.36 0 2.72 0 0 Z " fill="#D87659" transform="translate(150,64)"/>
<path d="M0 0 C1.65 0 3.3 0 5 0 C5.33 3.3 5.66 6.6 6 10 C6.66 8.02 7.32 6.04 8 4 C8.33 4 8.66 4 9 4 C9.08121924 5.60332791 9.13929134 7.20784026 9.1875 8.8125 C9.22230469 9.70582031 9.25710937 10.59914062 9.29296875 11.51953125 C9 14 9 14 7.67578125 15.82421875 C6 17 6 17 3 17 C3.03480469 16.10796875 3.06960937 15.2159375 3.10546875 14.296875 C3.13253906 13.12640625 3.15960938 11.9559375 3.1875 10.75 C3.22230469 9.58984375 3.25710937 8.4296875 3.29296875 7.234375 C2.97982934 3.77731593 2.34290892 2.48434437 0 0 Z " fill="#C66B4E" transform="translate(124,170)"/>
<path d="M0 0 C0.99 0 1.98 0 3 0 C4.38226016 2.76452033 4.09525387 5.0461363 4.0625 8.125 C4.05347656 9.22070312 4.04445313 10.31640625 4.03515625 11.4453125 C4.02355469 12.28835937 4.01195313 13.13140625 4 14 C3.01 14.495 3.01 14.495 2 15 C-0.01890086 10.12098958 -1.52405359 6.37154932 -1 1 C-0.67 0.67 -0.34 0.34 0 0 Z " fill="#F5D6CA" transform="translate(106,169)"/>
<path d="M0 0 C4.27454425 2.7479213 8.14126153 5.69250989 12 9 C11.01 9.495 11.01 9.495 10 10 C9.26924352 12.3140622 8.59861742 14.64828869 8 17 C7.72285156 16.44441406 7.44570312 15.88882813 7.16015625 15.31640625 C6.35959483 13.7179789 5.55463202 12.12175099 4.74609375 10.52734375 C4.31425781 9.67269531 3.88242188 8.81804687 3.4375 7.9375 C3.00308594 7.08027344 2.56867188 6.22304687 2.12109375 5.33984375 C1 3 1 3 0 0 Z " fill="#B44428" transform="translate(112,141)"/>
<path d="M0 0 C3 1 3 1 4.3125 2.4375 C6.61015902 4.56496206 9.02750796 5.14128008 12 6 C11.01 6.495 11.01 6.495 10 7 C10.33 7.99 10.66 8.98 11 10 C8.64561267 11.42944945 7.51967567 12.08661261 4.75 11.625 C4.1725 11.41875 3.595 11.2125 3 11 C3.2475 10.2575 3.495 9.515 3.75 8.75 C3.8325 7.8425 3.915 6.935 4 6 C2.12491838 3.7914234 2.12491838 3.7914234 0 2 C0 1.34 0 0.68 0 0 Z " fill="#ECA88D" transform="translate(151,181)"/>
<path d="M0 0 C1.125 3.75 1.125 3.75 0 6 C-0.15378852 7.95774069 -0.24971463 9.92017352 -0.31640625 11.8828125 C-0.35830078 13.04941406 -0.40019531 14.21601562 -0.44335938 15.41796875 C-0.48267578 16.64128906 -0.52199219 17.86460938 -0.5625 19.125 C-0.60568359 20.35605469 -0.64886719 21.58710937 -0.69335938 22.85546875 C-0.79968704 25.90352853 -0.90171781 28.9516719 -1 32 C-1.33 32 -1.66 32 -2 32 C-4.38297872 9.14893617 -4.38297872 9.14893617 -2 2 C-1.34 2 -0.68 2 0 2 C0 1.34 0 0.68 0 0 Z " fill="#E3967B" transform="translate(151,80)"/>
<path d="M0 0 C1.28636333 2.57272666 0.80142173 3.55584978 0.125 6.3125 C-0.06578125 7.11171875 -0.2565625 7.9109375 -0.453125 8.734375 C-0.72382813 9.85585937 -0.72382813 9.85585937 -1 11 C-1.33986667 12.66534667 -1.67702486 14.33129513 -2 16 C-2.66 16 -3.32 16 -4 16 C-4 20.62 -4 25.24 -4 30 C-4.33 30 -4.66 30 -5 30 C-5.27701005 6.6388191 -5.27701005 6.6388191 0 0 Z " fill="#EFBF9F" transform="translate(167,222)"/>
<path d="M0 0 C0.33 0 0.66 0 1 0 C1.26305952 8.2425317 0.60614551 15.91191011 -1 24 C-1.66 24 -2.32 24 -3 24 C-5.42857143 17.71428571 -5.42857143 17.71428571 -4 14 C-3.67 14.66 -3.34 15.32 -3 16 C-1.29915181 10.67067568 -0.47986031 5.56890517 0 0 Z " fill="#F9CFBA" transform="translate(100,130)"/>
<path d="M0 0 C0.33 0 0.66 0 1 0 C4.09042019 8.90768173 1.53521108 16.18256775 -1 25 C-1.97963374 21.82662906 -2.00148074 19.30840242 -1.66015625 16.015625 C-1.56669922 15.08105469 -1.47324219 14.14648438 -1.37695312 13.18359375 C-1.27318359 12.21550781 -1.16941406 11.24742187 -1.0625 10.25 C-0.96259766 9.26644531 -0.86269531 8.28289062 -0.75976562 7.26953125 C-0.51267098 4.84565041 -0.25920287 2.42261093 0 0 Z " fill="#F5CCB5" transform="translate(176,180)"/>
<path d="M0 0 C0.99 0.33 1.98 0.66 3 1 C3.144375 1.639375 3.28875 2.27875 3.4375 2.9375 C3.623125 3.618125 3.80875 4.29875 4 5 C5.3153341 5.70151152 6.65117592 6.36525925 8 7 C10.2665024 9.34744891 10.96335524 10.46254352 11.1875 13.75 C11.125625 14.4925 11.06375 15.235 11 16 C10.34 16 9.68 16 9 16 C8.7525 15.401875 8.505 14.80375 8.25 14.1875 C7.17010606 11.89058772 7.17010606 11.89058772 5.0625 10.8125 C1.80821933 7.9526776 1.13084793 4.0864732 0 0 Z " fill="#F3CEBA" transform="translate(158,154)"/>
<path d="M0 0 C2.4294516 3.6441774 2.16179575 5.71241272 2 10 C2.66 10 3.32 10 4 10 C3.979375 10.94875 3.95875 11.8975 3.9375 12.875 C3.77448174 15.90666283 3.77448174 15.90666283 5 18 C5.66 17.67 6.32 17.34 7 17 C7 18.32 7 19.64 7 21 C5.35 21.66 3.7 22.32 2 23 C1.66324721 20.10452736 1.33048266 17.20868928 1 14.3125 C0.90460938 13.49587891 0.80921875 12.67925781 0.7109375 11.83789062 C0.26129478 7.87139948 -0.13034543 3.99997537 0 0 Z " fill="#E69F83" transform="translate(116,171)"/>
<path d="M0 0 C0.66 1.32 1.32 2.64 2 4 C2.99 3.67 3.98 3.34 5 3 C5.99 3.66 6.98 4.32 8 5 C8.375 7.5 8.375 7.5 8 10 C7.01 10.66 6.02 11.32 5 12 C4.34 11.01 3.68 10.02 3 9 C2.01 9.33 1.02 9.66 0 10 C0 6.7 0 3.4 0 0 Z " fill="#F7C4AD" transform="translate(152,108)"/>
<path d="M0 0 C0.33 0 0.66 0 1 0 C1 3.3 1 6.6 1 10 C2.98 9.34 4.96 8.68 7 8 C6.67 8.99 6.34 9.98 6 11 C1.25 12.125 1.25 12.125 -1 11 C-1.625 8.9375 -1.625 8.9375 -2 7 C-2.66 7.66 -3.32 8.32 -4 9 C-4.33 6.69 -4.66 4.38 -5 2 C-4.34 2 -3.68 2 -3 2 C-2.67 2.66 -2.34 3.32 -2 4 C-1.34 2.68 -0.68 1.36 0 0 Z " fill="#DF9476" transform="translate(124,182)"/>
<path d="M0 0 C0.66 0 1.32 0 2 0 C2 5.61 2 11.22 2 17 C0.68 16.34 -0.64 15.68 -2 15 C-2 12 -2 12 -1.5625 10.3125 C-0.73427102 6.90755864 -0.4059928 3.47993828 0 0 Z " fill="#F1BFA2" transform="translate(176,151)"/>
<path d="M0 0 C0.66 0 1.32 0 2 0 C2 4.95 2 9.9 2 15 C0.68 14.34 -0.64 13.68 -2 13 C-2 10 -2 10 -1.4375 8.0625 C-0.83405752 5.98130832 -0.83405752 5.98130832 -1.5625 3.875 C-1.706875 3.25625 -1.85125 2.6375 -2 2 C-1.34 1.34 -0.68 0.68 0 0 Z " fill="#F5B59E" transform="translate(92,139)"/>
<path d="M0 0 C0.66 0 1.32 0 2 0 C2.19335938 1.01320312 2.38671875 2.02640625 2.5859375 3.0703125 C2.84874923 4.42191568 3.11178183 5.77347592 3.375 7.125 C3.50132813 7.79015625 3.62765625 8.4553125 3.7578125 9.140625 C4.37344371 12.2803442 5.08167738 15.22749068 6.1640625 18.2421875 C7.02134082 21.07040477 7.04314421 22.28782505 6 25 C2.79912733 16.82689795 0 8.85540139 0 0 Z " fill="#F8EAE1" transform="translate(76,207)"/>
<path d="M0 0 C2.01565047 3.52078685 2.82990674 7.05088764 3.6875 11 C3.95949219 12.216875 4.23148437 13.43375 4.51171875 14.6875 C4.94757352 17.64433877 5.02405328 19.25086369 4 22 C3.525625 20.865625 3.05125 19.73125 2.5625 18.5625 C1.36377917 15.24259834 1.36377917 15.24259834 0 14 C-0.07271741 11.64686445 -0.08370868 9.29166332 -0.0625 6.9375 C-0.05347656 5.64714844 -0.04445313 4.35679687 -0.03515625 3.02734375 C-0.02355469 2.02832031 -0.01195313 1.02929688 0 0 Z " fill="#DA9076" transform="translate(94,144)"/>
<path d="M0 0 C0.99 0.33 1.98 0.66 3 1 C3.33 3.64 3.66 6.28 4 9 C3.34 8.67 2.68 8.34 2 8 C2 7.01 2 6.02 2 5 C0.03243548 5.03122943 0.03243548 5.03122943 -2 6 C-3.3045656 8.99615946 -3.3045656 8.99615946 -4 12 C-4.99 11.01 -5.98 10.02 -7 9 C-6.01 8.67 -5.02 8.34 -4 8 C-3.26676204 5.98491642 -3.26676204 5.98491642 -3 4 C-2.34 4 -1.68 4 -1 4 C-0.67 2.68 -0.34 1.36 0 0 Z " fill="#FACCB9" transform="translate(112,120)"/>
<path d="M0 0 C2.55028983 1.27514492 2.93081711 2.40341297 4 5 C4 5.99 4 6.98 4 8 C4.99 8 5.98 8 7 8 C7.33 6.68 7.66 5.36 8 4 C9.32 4.33 10.64 4.66 12 5 C12 5.66 12 6.32 12 7 C8.02806853 10.12940055 4.95769796 10.29162929 0 10 C0.66 9.67 1.32 9.34 2 9 C1.34 6.03 0.68 3.06 0 0 Z " fill="#E9A089" transform="translate(102,183)"/>
<path d="M0 0 C0.66 0 1.32 0 2 0 C1.69106068 1.6256807 1.3777305 3.25052748 1.0625 4.875 C0.88847656 5.77992187 0.71445313 6.68484375 0.53515625 7.6171875 C0 10 0 10 -1 12 C-1.99 12 -2.98 12 -4 12 C-4.50130606 6.73628638 -3.31168629 4.0909066 0 0 Z " fill="#FDE2D0" transform="translate(109,116)"/>
<path d="M0 0 C3.47548539 3.24378636 5.82682259 5.71405824 6.1953125 10.578125 C6.16050781 11.90070313 6.16050781 11.90070313 6.125 13.25 C6.10695313 14.14203125 6.08890625 15.0340625 6.0703125 15.953125 C6.03550781 16.96632812 6.03550781 16.96632812 6 18 C5.34 17.67 4.68 17.34 4 17 C3.4375 14.9609375 3.4375 14.9609375 3 12.375 C2.23402295 8.14388869 1.25130438 4.11142867 0 0 Z " fill="#DE775A" transform="translate(112,143)"/>
<path d="M0 0 C1.32 0.33 2.64 0.66 4 1 C3.67 3.97 3.34 6.94 3 10 C2.34 10 1.68 10 1 10 C1 10.66 1 11.32 1 12 C0.34 12 -0.32 12 -1 12 C-1.75 9.75 -1.75 9.75 -2 7 C-0.0625 4.6875 -0.0625 4.6875 2 3 C1.34 2.67 0.68 2.34 0 2 C0 1.34 0 0.68 0 0 Z " fill="#EFBCA6" transform="translate(101,156)"/>
<path d="M0 0 C0.33 0.66 0.66 1.32 1 2 C0.40832031 2.10957031 -0.18335937 2.21914062 -0.79296875 2.33203125 C-5.48483841 3.27346676 -8.92359989 4.4059272 -13 7 C-13.66 6.67 -14.32 6.34 -15 6 C-10.28617982 0.19837516 -7.39841857 -0.88781023 0 0 Z " fill="#FCDFD0" transform="translate(111,112)"/>
<path d="M0 0 C1.75273986 5.51438924 1.07076434 11.39798789 0 17 C-1.46909951 19.43395364 -2.62900998 20.35854537 -5 22 C-4.80664062 21.24976562 -4.61328125 20.49953125 -4.4140625 19.7265625 C-2.74892681 13.18142519 -1.24817824 6.63737133 0 0 Z " fill="#F9AB98" transform="translate(141,14)"/>
<path d="M0 0 C0.66 0.33 1.32 0.66 2 1 C2.6328125 3.94140625 2.6328125 3.94140625 3.125 7.5625 C3.29257813 8.76003906 3.46015625 9.95757812 3.6328125 11.19140625 C3.75398438 12.11824219 3.87515625 13.04507813 4 14 C2.02 14.33 0.04 14.66 -2 15 C-2.33 14.01 -2.66 13.02 -3 12 C-2.34 11.34 -1.68 10.68 -1 10 C-0.34 10.66 0.32 11.32 1 12 C0.67 8.04 0.34 4.08 0 0 Z " fill="#F0B5AA" transform="translate(114,170)"/>
<path d="M0 0 C2.52259061 1.97420135 2.9929808 2.96745642 3.6875 6.1875 C3.790625 7.115625 3.89375 8.04375 4 9 C3.01 9.66 2.02 10.32 1 11 C-1.08997373 7.60379269 -1.2632246 4.94836905 -1 1 C-0.67 0.67 -0.34 0.34 0 0 Z " fill="#F2BCB3" transform="translate(97,181)"/>
<path d="M0 0 C0.625 1.875 0.625 1.875 1 4 C0.34 4.66 -0.32 5.32 -1 6 C-1.99 6 -2.98 6 -4 6 C-4.33 5.01 -4.66 4.02 -5 3 C-5.99 2.34 -6.98 1.68 -8 1 C-4.93251126 -0.86240388 -3.40254489 -1.2151946 0 0 Z " fill="#92260F" transform="translate(133,158)"/>
<path d="M0 0 C0.33 0.99 0.66 1.98 1 3 C-0.28965176 4.37562854 -1.62689293 5.70766393 -3 7 C-3.66 7 -4.32 7 -5 7 C-5.33 7.99 -5.66 8.98 -6 10 C-6.99 10 -7.98 10 -9 10 C-9.33 8.35 -9.66 6.7 -10 5 C-8.906875 4.9175 -7.81375 4.835 -6.6875 4.75 C-2.96723336 4.36310791 -2.96723336 4.36310791 -1.0625 1.9375 C-0.711875 1.298125 -0.36125 0.65875 0 0 Z " fill="#E7A289" transform="translate(133,188)"/>
<path d="M0 0 C1.2739902 0.76560456 2.54406512 1.53772626 3.8125 2.3125 C4.52019531 2.74175781 5.22789063 3.17101562 5.95703125 3.61328125 C7.88960231 4.92506467 9.41410612 6.29403845 11 8 C10.67 8.66 10.34 9.32 10 10 C5.21495828 7.51545911 2.13922331 5.52048157 -1 1 C-0.67 0.67 -0.34 0.34 0 0 Z " fill="#E3896B" transform="translate(117,142)"/>
<path d="M0 0 C2 1 2 1 5 3 C2.25 9.875 2.25 9.875 0 11 C0 9.02 0 7.04 0 5 C-0.66 4.67 -1.32 4.34 -2 4 C-1.34 2.68 -0.68 1.36 0 0 Z " fill="#E89678" transform="translate(137,154)"/>
<path d="M0 0 C3 3.625 3 3.625 3 7 C2.01 7 1.02 7 0 7 C0 7.66 0 8.32 0 9 C-0.99 9.33 -1.98 9.66 -3 10 C-3.33 9.34 -3.66 8.68 -4 8 C-3.22265625 6.0546875 -3.22265625 6.0546875 -2.0625 3.875 C-1.49208984 2.78832031 -1.49208984 2.78832031 -0.91015625 1.6796875 C-0.60980469 1.12539062 -0.30945313 0.57109375 0 0 Z " fill="#EEA58B" transform="translate(142,147)"/>
<path d="M0 0 C4.35535069 1.16142685 6.64619703 2.07699505 9 6 C6.69 6 4.38 6 2 6 C1.34 4.02 0.68 2.04 0 0 Z " fill="#E9CDBB" transform="translate(95,259)"/>
<path d="M0 0 C0.33 0 0.66 0 1 0 C1.44117322 4.49996683 1.52867608 6.34611117 -1.375 9.9375 C-4 12 -4 12 -6 12 C-6.33 12.66 -6.66 13.32 -7 14 C-6.4409112 10.75728494 -5.5867822 9.06942576 -3 7 C-2.34 7 -1.68 7 -1 7 C-1.020625 6.030625 -1.04125 5.06125 -1.0625 4.0625 C-1 1 -1 1 0 0 Z " fill="#FDBCA7" transform="translate(157,121)"/>
<path d="M0 0 C0.33 0 0.66 0 1 0 C1.33 4.29 1.66 8.58 2 13 C0.35 13.33 -1.3 13.66 -3 14 C-2.67 12.02 -2.34 10.04 -2 8 C-1.34 8 -0.68 8 0 8 C0 5.36 0 2.72 0 0 Z " fill="#E88B68" transform="translate(148,104)"/>
<path d="M0 0 C1.98 0.99 1.98 0.99 4 2 C4 5 4 8 4 11 C1.22157405 8.22157405 0.05528792 6.21633419 -0.125 2.25 C-0.063125 1.13625 -0.063125 1.13625 0 0 Z " fill="#F7D2BA" transform="translate(150,137)"/>
<path d="M0 0 C1.55758125 4.67274376 1.97290766 7.13546169 1 12 C0.01 12 -0.98 12 -2 12 C-2.05395478 10.37536158 -2.09277195 8.75021459 -2.125 7.125 C-2.14820312 6.22007812 -2.17140625 5.31515625 -2.1953125 4.3828125 C-2 2 -2 2 0 0 Z " fill="#F2AC92" transform="translate(106,154)"/>
<path d="M0 0 C-1 3 -1 3 -4 5 C-4.99 5 -5.98 5 -7 5 C-7.33 5.66 -7.66 6.32 -8 7 C-8 5.68 -8 4.36 -8 3 C-8.66 2.67 -9.32 2.34 -10 2 C-9.236875 1.855625 -8.47375 1.71125 -7.6875 1.5625 C-0.22222222 0 -0.22222222 0 0 0 Z " fill="#CF7056" transform="translate(140,151)"/>
<path d="M0 0 C0.33 0 0.66 0 1 0 C1.66 6.6 2.32 13.2 3 20 C0 17 0 17 -0.34057617 15.09887695 C-0.32486572 14.40238037 -0.30915527 13.70588379 -0.29296875 12.98828125 C-0.28330078 12.23095703 -0.27363281 11.47363281 -0.26367188 10.69335938 C-0.23853516 9.90767578 -0.21339844 9.12199219 -0.1875 8.3125 C-0.17396484 7.51521484 -0.16042969 6.71792969 -0.14648438 5.89648438 C-0.11117089 3.93070033 -0.05736447 1.96526418 0 0 Z " fill="#F7E6DB" transform="translate(167,238)"/>
<path d="M0 0 C1.32 0.33 2.64 0.66 4 1 C4 1.99 4 2.98 4 4 C2.1875 5.75 2.1875 5.75 0 7 C-0.99 6.67 -1.98 6.34 -3 6 C-2 4 -2 4 0 3 C0 2.01 0 1.02 0 0 Z " fill="#F5BCA5" transform="translate(145,180)"/>
<path d="M0 0 C1.65 0.99 3.3 1.98 5 3 C4.67 3.99 4.34 4.98 4 6 C3.01 6.33 2.02 6.66 1 7 C0.01 6.34 -0.98 5.68 -2 5 C-2 4.34 -2 3.68 -2 3 C-1.34 3 -0.68 3 0 3 C0 2.01 0 1.02 0 0 Z " fill="#F0AD92" transform="translate(156,179)"/>
<path d="M0 0 C1.99097846 2.98646769 2.94124926 5.59687262 4 9 C4.33 9 4.66 9 5 9 C5 10.65 5 12.3 5 14 C2.37200898 12.13497412 1.13634249 10.69589209 0.51171875 7.5078125 C0.27406427 5.0035728 0.0959336 2.51346021 0 0 Z " fill="#F9B6A5" transform="translate(102,171)"/>
<path d="M0 0 C0.33 1.32 0.66 2.64 1 4 C-0.32 4 -1.64 4 -3 4 C-3.66 5.65 -4.32 7.3 -5 9 C-5.66 8.34 -6.32 7.68 -7 7 C-3.72340426 0 -3.72340426 0 0 0 Z " fill="#FBBEA9" transform="translate(114,125)"/>
<path d="M0 0 C3 1 3 1 4.3125 2.4375 C6.61015902 4.56496206 9.02750796 5.14128008 12 6 C11.34 6.66 10.68 7.32 10 8 C5.73850721 7.84780383 2.9570262 4.75541078 0 2 C0 1.34 0 0.68 0 0 Z " fill="#E99B80" transform="translate(151,181)"/>
<path d="M0 0 C0.66 0 1.32 0 2 0 C2.05416188 1.60379341 2.09286638 3.20811406 2.125 4.8125 C2.14820313 5.70582031 2.17140625 6.59914063 2.1953125 7.51953125 C2 10 2 10 0 13 C-0.19551338 11.39679026 -0.38111983 9.79237014 -0.5625 8.1875 C-0.71912109 6.84751953 -0.71912109 6.84751953 -0.87890625 5.48046875 C-1 3 -1 3 0 0 Z " fill="#EF815B" transform="translate(148,72)"/>
<path d="M0 0 C0.804375 0.8971875 0.804375 0.8971875 1.625 1.8125 C4.23142645 4.21315594 6.7884073 5.54018514 10 7 C10 7.33 10 7.66 10 8 C8.02 8.33 6.04 8.66 4 9 C4 8.01 4 7.02 4 6 C3.360625 5.731875 2.72125 5.46375 2.0625 5.1875 C0 4 0 4 -1 1 C-0.67 0.67 -0.34 0.34 0 0 Z " fill="#EDA285" transform="translate(142,167)"/>
<path d="M0 0 C1.2375 0.495 1.2375 0.495 2.5 1 C5.4906594 1.85447411 7.24309874 2.08779274 10.25 2 C11.4875 2 12.725 2 14 2 C14.66 2.66 15.32 3.32 16 4 C13.89611431 4.05402274 11.79183286 4.09280256 9.6875 4.125 C7.92986328 4.15980469 7.92986328 4.15980469 6.13671875 4.1953125 C3 4 3 4 0 2 C0 1.34 0 0.68 0 0 Z " fill="#DCA485" transform="translate(98,258)"/>
<path d="M0 0 C2.39763185 2.39763185 2.34280586 3.33273498 2.625 6.625 C2.69976562 7.44226563 2.77453125 8.25953125 2.8515625 9.1015625 C2.90054688 9.72804687 2.94953125 10.35453125 3 11 C2.01 10.67 1.02 10.34 0 10 C0 6.7 0 3.4 0 0 Z " fill="#C96856" transform="translate(99,168)"/>
<path d="M0 0 C0.66 0 1.32 0 2 0 C2 0.66 2 1.32 2 2 C2.99 2.33 3.98 2.66 5 3 C4.67 4.65 4.34 6.3 4 8 C2 6.25 2 6.25 0 4 C0 2.68 0 1.36 0 0 Z " fill="#DD8265" transform="translate(133,156)"/>
<path d="M0 0 C2.625 -0.1875 2.625 -0.1875 5 0 C4.01 0.495 4.01 0.495 3 1 C1.69364726 3.30532837 0.84142926 5.47571223 0 8 C-0.66 8 -1.32 8 -2 8 C-2.20086443 4.28400809 -2.1519437 3.22791555 0 0 Z " fill="#9E3219" transform="translate(122,151)"/>
<path d="M0 0 C1.98 0 3.96 0 6 0 C6 3 6 3 4.5 4.6875 C4.005 5.120625 3.51 5.55375 3 6 C2.01 4.02 1.02 2.04 0 0 Z " fill="#F3B69C" transform="translate(162,150)"/>
<path d="M0 0 C0 0.33 0 0.66 0 1 C-1.546875 1.12375 -1.546875 1.12375 -3.125 1.25 C-7.332719 2.06439723 -9.59632265 3.46703081 -13 6 C-13.99 6.495 -13.99 6.495 -15 7 C-11.93033106 -0.4183666 -7.26649335 -0.41922077 0 0 Z " fill="#FEF5EE" transform="translate(109,111)"/>
<path d="M0 0 C0.99 0.495 0.99 0.495 2 1 C2 2.65 2 4.3 2 6 C2.66 6 3.32 6 4 6 C4.33 7.98 4.66 9.96 5 12 C4.01 11.67 3.02 11.34 2 11 C1.34 7.37 0.68 3.74 0 0 Z " fill="#F0D7C9" transform="translate(82,226)"/>
<path d="M0 0 C0.99 0 1.98 0 3 0 C4.38226016 2.76452033 4.09525387 5.0461363 4.0625 8.125 C4.05347656 9.22070312 4.04445313 10.31640625 4.03515625 11.4453125 C4.02355469 12.28835937 4.01195313 13.13140625 4 14 C3.01 14.495 3.01 14.495 2 15 C1.67 14.01 1.34 13.02 1 12 C1.33 11.34 1.66 10.68 2 10 C2.06950541 8.45976004 2.08452357 6.91665012 2.0625 5.375 C2.04896484 4.14910156 2.04896484 4.14910156 2.03515625 2.8984375 C2.02355469 2.27195313 2.01195313 1.64546875 2 1 C1.34 0.67 0.68 0.34 0 0 Z " fill="#F4CDC2" transform="translate(106,169)"/>
<path d="M0 0 C0.66 0 1.32 0 2 0 C1.71682074 1.60568666 1.42312209 3.20952047 1.125 4.8125 C0.96257812 5.70582031 0.80015625 6.59914062 0.6328125 7.51953125 C0 10 0 10 -2 13 C-1.85915204 11.20793453 -1.71216299 9.41635083 -1.5625 7.625 C-1.48128906 6.62726563 -1.40007812 5.62953125 -1.31640625 4.6015625 C-1 2 -1 2 0 0 Z " fill="#F9EDE3" transform="translate(182,181)"/>
<path d="M0 0 C0.66 0 1.32 0 2 0 C2.92470553 4.71599818 3.22923777 7.67265609 1 12 C-0.3271261 8.0186217 -0.06915913 4.14954773 0 0 Z " fill="#F5E6DA" transform="translate(181,171)"/>
<path d="M0 0 C2.4294516 3.6441774 2.16179575 5.71241272 2 10 C2.66 10 3.32 10 4 10 C3.67 11.32 3.34 12.64 3 14 C0.31907309 11.31907309 0.61329743 9.60832637 0.375 5.875 C0.30023438 4.77929688 0.22546875 3.68359375 0.1484375 2.5546875 C0.09945312 1.71164063 0.05046875 0.86859375 0 0 Z " fill="#EDA08F" transform="translate(116,171)"/>
<path d="M0 0 C1.32 0 2.64 0 4 0 C4.33 1.32 4.66 2.64 5 4 C2.69 3.67 0.38 3.34 -2 3 C-1.34 2.01 -0.68 1.02 0 0 Z " fill="#EFB19A" transform="translate(80,169)"/>
<path d="M0 0 C2.72647685 2.35468455 3.98756342 4.5408417 5 8 C4.625 10.3125 4.625 10.3125 4 12 C2.18757677 7.9811485 0.66498383 4.38889325 0 0 Z " fill="#FCDCCC" transform="translate(165,26)"/>
<path d="M0 0 C0.66 0 1.32 0 2 0 C1.67 3.3 1.34 6.6 1 10 C0.34 10 -0.32 10 -1 10 C-0.67 6.7 -0.34 3.4 0 0 Z " fill="#F9BA9E" transform="translate(144,120)"/>
<path d="M0 0 C0.33 0 0.66 0 1 0 C1.33 3.63 1.66 7.26 2 11 C0.68 10.34 -0.64 9.68 -2 9 C-1.34 6.03 -0.68 3.06 0 0 Z " fill="#F8BA9F" transform="translate(127,117)"/>
<path d="M0 0 C0.33 0 0.66 0 1 0 C1.6875 3.3125 1.6875 3.3125 2 7 C0.51953125 8.73046875 0.51953125 8.73046875 -1 10 C-1.02689216 8.52093108 -1.04634621 7.04172517 -1.0625 5.5625 C-1.07410156 4.73878906 -1.08570312 3.91507812 -1.09765625 3.06640625 C-1 1 -1 1 0 0 Z " fill="#F8DDD0" transform="translate(95,119)"/>
<path d="M0 0 C0.33 0 0.66 0 1 0 C1 1.98 1 3.96 1 6 C0.01 6.33 -0.98 6.66 -2 7 C-1.125 2.25 -1.125 2.25 0 0 Z M-5 8 C-4.34 8.33 -3.68 8.66 -3 9 C-3.99 9.66 -4.98 10.32 -6 11 C-5.67 10.01 -5.34 9.02 -5 8 Z " fill="#F89B7F" transform="translate(144,76)"/>
<path d="M0 0 C1.32 0.33 2.64 0.66 4 1 C4 1.66 4 2.32 4 3 C4.66 3 5.32 3 6 3 C5.67 4.65 5.34 6.3 5 8 C4.67 7.01 4.34 6.02 4 5 C3.34 5 2.68 5 2 5 C2 3.68 2 2.36 2 1 C1.34 0.67 0.68 0.34 0 0 Z " fill="#B85436" transform="translate(120,160)"/>
<path d="M0 0 C3 1 3 1 4.25 3.3125 C5.04631835 6.16597407 4.8214856 7.24802325 4 10 C3.32845067 8.71086513 2.66291141 7.41859796 2 6.125 C1.62875 5.40570313 1.2575 4.68640625 0.875 3.9453125 C0 2 0 2 0 0 Z " fill="#F2C7AF" transform="translate(158,154)"/>
<path d="M0 0 C1.32 0.33 2.64 0.66 4 1 C4 1.66 4 2.32 4 3 C2.03533587 4.06775224 0.03144641 5.06553465 -2 6 C-2.66 5.67 -3.32 5.34 -4 5 C-2.68 3.35 -1.36 1.7 0 0 Z " fill="#801201" transform="translate(125,152)"/>
<path d="M0 0 C0.66 1.32 1.32 2.64 2 4 C1.34 4 0.68 4 0 4 C-0.33 5.32 -0.66 6.64 -1 8 C-1.99 7.67 -2.98 7.34 -4 7 C-3.34 6.34 -2.68 5.68 -2 5 C-2 4.01 -2 3.02 -2 2 C-1.34 1.34 -0.68 0.68 0 0 Z " fill="#EE9981" transform="translate(117,135)"/>
<path d="M0 0 C4.55384615 -0.36923077 4.55384615 -0.36923077 6.8125 1.5 C7.204375 1.995 7.59625 2.49 8 3 C5.69 3 3.38 3 1 3 C0.67 2.01 0.34 1.02 0 0 Z " fill="#F8B59A" transform="translate(147,175)"/>
<path d="M0 0 C0.99 0 1.98 0 3 0 C3 2.97 3 5.94 3 9 C2.34 8.67 1.68 8.34 1 8 C0.40644386 5.35139573 0.25790731 2.70802678 0 0 Z " fill="#DB7D5E" transform="translate(121,173)"/>
<path d="M0 0 C0.33 0 0.66 0 1 0 C1.33 3.63 1.66 7.26 2 11 C1.01 11 0.02 11 -1 11 C-0.67 7.37 -0.34 3.74 0 0 Z " fill="#FDF5EF" transform="translate(182,160)"/>
<path d="M0 0 C0 0.99 0 1.98 0 3 C-2 5 -2 5 -4.625 5.125 C-5.40875 5.08375 -6.1925 5.0425 -7 5 C-6.34 3.68 -5.68 2.36 -5 1 C-5 1.66 -5 2.32 -5 3 C-3.35 2.01 -1.7 1.02 0 0 Z " fill="#9C371F" transform="translate(134,161)"/>
<path d="M0 0 C0.33 0 0.66 0 1 0 C1 2.97 1 5.94 1 9 C0.01 8.01 -0.98 7.02 -2 6 C-1.7181953 3.67511119 -1.04553582 2.09107165 0 0 Z " fill="#EB9174" transform="translate(114,150)"/>
<path d="M0 0 C3.16717283 1.58358642 4.73268318 2.45263699 6.3125 5.6875 C6.539375 6.450625 6.76625 7.21375 7 8 C6.34 8 5.68 8 5 8 C4.87625 7.071875 4.87625 7.071875 4.75 6.125 C4.18741541 3.81562433 4.18741541 3.81562433 1.9375 2.75 C1.298125 2.5025 0.65875 2.255 0 2 C0 1.34 0 0.68 0 0 Z " fill="#F3B3A3" transform="translate(115,129)"/>
<path d="M0 0 C0.33 0.99 0.66 1.98 1 3 C1.66 3 2.32 3 3 3 C3 4.65 3 6.3 3 8 C2.01 8 1.02 8 0 8 C0 5.36 0 2.72 0 0 Z " fill="#F5C5B5" transform="translate(148,16)"/>
<path d="M0 0 C0.33 1.32 0.66 2.64 1 4 C0.34 4 -0.32 4 -1 4 C-1 4.66 -1 5.32 -1 6 C-1.66 6 -2.32 6 -3 6 C-3.33 4.35 -3.66 2.7 -4 1 C-2.68 1.33 -1.36 1.66 0 2 C0 1.34 0 0.68 0 0 Z " fill="#F5B89E" transform="translate(103,162)"/>
<path d="M0 0 C1.65 0 3.3 0 5 0 C3.625 2.5 3.625 2.5 2 5 C1.34 5 0.68 5 0 5 C0 3.35 0 1.7 0 0 Z " fill="#FAC8B4" transform="translate(99,158)"/>
<path d="M0 0 C2.5 2.3125 2.5 2.3125 5 5 C5 5.99 5 6.98 5 8 C2.5 5.6875 2.5 5.6875 0 3 C0 2.01 0 1.02 0 0 Z " fill="#D47B61" transform="translate(107,134)"/>
<path d="M0 0 C1.2065625 0.0309375 1.2065625 0.0309375 2.4375 0.0625 C1.4475 0.3925 0.4575 0.7225 -0.5625 1.0625 C-0.2325 2.7125 0.0975 4.3625 0.4375 6.0625 C-0.5525 6.0625 -1.5425 6.0625 -2.5625 6.0625 C-2.94468767 4.40635343 -3.27645102 2.73792976 -3.5625 1.0625 C-2.5625 0.0625 -2.5625 0.0625 0 0 Z " fill="#F7BAA2" transform="translate(158.5625,24.9375)"/>
<path d="" fill="#FFFFFF" transform="translate(0,0)"/>
<path d="" fill="#FFFFFF" transform="translate(0,0)"/>
<path d="" fill="#FFFFFF" transform="translate(0,0)"/>
<path d="" fill="#FFFFFF" transform="translate(0,0)"/>
<path d="" fill="#FFFFFF" transform="translate(0,0)"/>
<path d="" fill="#FFFFFF" transform="translate(0,0)"/>
<path d="" fill="#FFFFFF" transform="translate(0,0)"/>
<path d="" fill="#FFFFFF" transform="translate(0,0)"/>
<path d="" fill="#FFFFFF" transform="translate(0,0)"/>
<path d="" fill="#FFFFFF" transform="translate(0,0)"/>
<path d="" fill="#FFFFFF" transform="translate(0,0)"/>
<path d="" fill="#FFFFFF" transform="translate(0,0)"/>
<path d="" fill="#FFFFFF" transform="translate(0,0)"/>
<path d="" fill="#FFFFFF" transform="translate(0,0)"/>
<path d="" fill="#FFFFFF" transform="translate(0,0)"/>
<path d="" fill="#FFFFFF" transform="translate(0,0)"/>
<path d="" fill="#FFFFFF" transform="translate(0,0)"/>
<path d="" fill="#FFFFFF" transform="translate(0,0)"/>
<path d="" fill="#FFFFFF" transform="translate(0,0)"/>
<path d="" fill="#FFFFFF" transform="translate(0,0)"/>
<path d="" fill="#FFFFFF" transform="translate(0,0)"/>
<path d="" fill="#FFFFFF" transform="translate(0,0)"/>
<path d="" fill="#FFFFFF" transform="translate(0,0)"/>
<path d="" fill="#FFFFFF" transform="translate(0,0)"/>
<path d="" fill="#FFFFFF" transform="translate(0,0)"/>
<path d="" fill="#FFFFFF" transform="translate(0,0)"/>
<path d="" fill="#FFFFFF" transform="translate(0,0)"/>
<path d="" fill="#FFFFFF" transform="translate(0,0)"/>
<path d="" fill="#FFFFFF" transform="translate(0,0)"/>
<path d="" fill="#FFFFFF" transform="translate(0,0)"/>
<path d="" fill="#FFFFFF" transform="translate(0,0)"/>
<path d="" fill="#FFFFFF" transform="translate(0,0)"/>
<path d="" fill="#FFFFFF" transform="translate(0,0)"/>
<path d="" fill="#FFFFFF" transform="translate(0,0)"/>
<path d="" fill="#FFFFFF" transform="translate(0,0)"/>
<path d="" fill="#FFFFFF" transform="translate(0,0)"/>
<path d="" fill="#FFFFFF" transform="translate(0,0)"/>
<path d="" fill="#FFFFFF" transform="translate(0,0)"/>
<path d="" fill="#FFFFFF" transform="translate(0,0)"/>
<path d="" fill="#FFFFFF" transform="translate(0,0)"/>
<path d="" fill="#FFFFFF" transform="translate(0,0)"/>
<path d="" fill="#FFFFFF" transform="translate(0,0)"/>
<path d="" fill="#FFFFFF" transform="translate(0,0)"/>
<path d="" fill="#FFFFFF" transform="translate(0,0)"/>
<path d="" fill="#FFFFFF" transform="translate(0,0)"/>
<path d="" fill="#FFFFFF" transform="translate(0,0)"/>
<path d="" fill="#FFFFFF" transform="translate(0,0)"/>
<path d="" fill="#FFFFFF" transform="translate(0,0)"/>
<path d="" fill="#FFFFFF" transform="translate(0,0)"/>
<path d="" fill="#FFFFFF" transform="translate(0,0)"/>
<path d="" fill="#FFFFFF" transform="translate(0,0)"/>
<path d="" fill="#FFFFFF" transform="translate(0,0)"/>
<path d="" fill="#FFFFFF" transform="translate(0,0)"/>
<path d="" fill="#FFFFFF" transform="translate(0,0)"/>
<path d="" fill="#FFFFFF" transform="translate(0,0)"/>
<path d="" fill="#FFFFFF" transform="translate(0,0)"/>
<path d="" fill="#FFFFFF" transform="translate(0,0)"/>
</svg>
