<?xml version="1.0" encoding="UTF-8"?>
<svg version="1.1" xmlns="http://www.w3.org/2000/svg" width="270" height="270">
<path d="M0 0 C21.1254713 15.20068811 30.33326648 63.11461757 36.46801758 87.6875 C37.46102894 91.56780778 38.75946927 94.67431194 41 98 C46.03080253 96.71305051 48.67840322 94.99282331 52 91 C52.99288765 87.71380644 52.99288765 87.71380644 53.2578125 84.07421875 C53.3682766 83.08497406 53.3682766 83.08497406 53.48097229 82.07574463 C53.71520957 79.94790576 53.92007857 77.81834238 54.125 75.6875 C54.36083624 73.47323089 54.60452081 71.25998655 54.85165405 69.04695129 C55.0055291 67.6539237 55.15335993 66.26020914 55.29385376 64.86576843 C55.71726287 60.82223344 56.39541207 56.91729877 57.25778198 52.95256042 C58.5069032 47.09510361 59.17483927 41.37026937 59.30078125 35.37109375 C59.32845581 34.33971786 59.32845581 34.33971786 59.35668945 33.2875061 C59.44993688 29.76957624 59.50767448 26.25316557 59.53393555 22.73413086 C59.55367432 21.43741455 59.57341309 20.14069824 59.59375 18.8046875 C59.60083984 17.63921387 59.60792969 16.47374023 59.61523438 15.27294922 C60.15889327 10.64839896 61.70676944 7.29323056 65 4 C68.07990155 3.37070774 70.91528992 3.41192702 74 4 C80.52665839 9.39158737 81.8625335 17.93996975 83 26 C83.10359431 28.78990782 83.16350643 31.55410757 83.16796875 34.34375 C83.17418495 35.54115814 83.17418495 35.54115814 83.18052673 36.76275635 C83.19017181 39.34188476 83.19018947 41.92085638 83.1875 44.5 C83.18759064 45.81490417 83.18759064 45.81490417 83.18768311 47.15637207 C83.17267888 62.39159659 83.11583848 77.74382594 79.8125 92.6875 C78.20175689 100.67780049 79.36821044 108.94431149 80 117 C80.06203613 117.89251465 80.12407227 118.7850293 80.18798828 119.70458984 C80.88673259 129.74970939 81.89834124 139.63004619 83.9375 149.5 C84.09516846 150.27085937 84.25283691 151.04171875 84.4152832 151.8359375 C85.16989954 155.23719568 85.96375114 157.93121557 87.6015625 161.0390625 C89.33626047 164.71197049 89.4900082 167.89444073 89.4375 171.875 C89.43266602 173.07974976 89.43266602 173.07974976 89.42773438 174.30883789 C89.22856435 183.64836684 87.86550141 192.90430292 86.42358398 202.12255859 C84.46869689 215.7032384 84.81164978 229.30630531 85 243 C75.40368956 243.20007516 65.80724692 243.38380994 56.21023083 243.54658794 C51.75412871 243.62268501 47.29827949 243.7044448 42.8425293 243.79907227 C38.54388155 243.89015618 34.24520392 243.96646142 29.94610023 244.03244972 C28.30452984 244.06025874 26.66304133 244.09342635 25.02168846 244.13199425 C22.72562573 244.18503806 20.43001241 244.21915779 18.13354492 244.2487793 C16.1716346 244.28541939 16.1716346 244.28541939 14.17008972 244.32279968 C11 244 11 244 9.14839172 242.66340637 C7.40754648 240.14185122 6.17505891 237.46033096 4.875 234.6875 C2.38681327 229.49213899 -0.40373698 224.7093939 -3.625 219.9375 C-10.06209102 210.24618414 -13.2663721 199.83438756 -16.08984375 188.59765625 C-16.63915235 186.42635487 -17.22493913 184.2631994 -17.87890625 182.12109375 C-19.818194 175.53501023 -20.43712604 169.07530357 -20.8125 162.25 C-20.86559326 161.36231934 -20.91868652 160.47463867 -20.97338867 159.56005859 C-21.31574206 151.34511596 -20.2964204 144.62052551 -15 138 C-11.27262572 134.51571534 -7.64406383 132.10088602 -3 130 C-3.2475 128.906875 -3.495 127.81375 -3.75 126.6875 C-4.44632588 120.92233134 -2.69748308 116.05585401 0 111 C3.79848987 106.30235069 7.00883432 104.75944354 13 104 C10.78786318 96.17921541 8.57703966 88.40039932 5.70581055 80.79223633 C3.10415421 73.87680727 1.31773376 67.15888214 0.0625 59.875 C-2.42856769 45.5091787 -6.37102871 31.34693168 -12.4375 18.0625 C-14.7097608 12.97900548 -16.20506925 9.52323407 -15 4 C-10.80483219 -1.27085187 -6.38618312 -2.40546231 0 0 Z " fill="#F8C9B1" transform="translate(94,18)"/>
<path d="M0 0 C0.66 0 1.32 0 2 0 C2.33 1.65 2.66 3.3 3 5 C3.57621094 4.84144531 4.15242188 4.68289062 4.74609375 4.51953125 C10.71756213 3.14309226 15.65673297 3.68702013 21.3125 6 C30.3601181 9.56075726 38.23450078 8.75664252 47 5 C48.32 5 49.64 5 51 5 C51 8.3 51 11.6 51 15 C51.928125 14.896875 52.85625 14.79375 53.8125 14.6875 C54.864375 14.790625 55.91625 14.89375 57 15 C58.6875 17.375 58.6875 17.375 60 20 C60.99 20.66 61.98 21.32 63 22 C63 22.99 63 23.98 63 25 C64.32 25 65.64 25 67 25 C67.061875 25.61875 67.12375 26.2375 67.1875 26.875 C67.828919 29.27761141 67.828919 29.27761141 70.5625 30.25 C71.366875 30.4975 72.17125 30.745 73 31 C73 31.66 73 32.32 73 33 C72.34 33 71.68 33 71 33 C71 33.66 71 34.32 71 35 C72.485 35.99 72.485 35.99 74 37 C73.01 37.495 73.01 37.495 72 38 C72 38.66 72 39.32 72 40 C73.485 40.495 73.485 40.495 75 41 C69.5610835 41.21755666 65.12919186 41.10428384 60 39 C64.41609747 43.41609747 70.07217251 43.50924304 76 44 C76 44.66 76 45.32 76 46 C73.36 46 70.72 46 68 46 C68.33 46.66 68.66 47.32 69 48 C71.52733235 48.65555119 71.52733235 48.65555119 74 49 C75.1245717 52.37371509 74.81641956 54.57103786 74 58 C73.66055205 59.99897128 73.32578384 61.99875639 73 64 C73.66 64.33 74.32 64.66 75 65 C75 67.97 75 70.94 75 74 C73.35 74.33 71.7 74.66 70 75 C70 75.66 70 76.32 70 77 C70.99 77 71.98 77 73 77 C73.33 78.32 73.66 79.64 74 81 C74.66 81 75.32 81 76 81 C76.33 80.34 76.66 79.68 77 79 C78.91233914 83.02876191 79.24319212 86.2473189 79.1875 90.6875 C79.18105469 91.82574219 79.17460937 92.96398437 79.16796875 94.13671875 C79 97 79 97 78 99 C78.66 99.33 79.32 99.66 80 100 C56.57 100 33.14 100 9 100 C6 93 6 93 6 90 C5.34 90 4.68 90 4 90 C3.15930585 88.39967863 2.32768495 86.79458829 1.5 85.1875 C1.0359375 84.29417969 0.571875 83.40085937 0.09375 82.48046875 C-1 80 -1 80 -1 77 C-1.66 77 -2.32 77 -3 77 C-5.41430714 72.07078959 -6.66410649 68.59746895 -6 63 C-5.04521933 60.44151847 -3.97825739 57.94993074 -2.890625 55.4453125 C-1.66945206 52.09244293 -1.69328442 49.52722915 -2 46 C-2.66 45.67 -3.32 45.34 -4 45 C-4 41.04 -4 37.08 -4 33 C-4.66 33 -5.32 33 -6 33 C-6.495 31.515 -6.495 31.515 -7 30 C-11.32448133 29.26167392 -15.65535464 28.60825035 -20 28 C-18.66667905 24.00003714 -16.5042173 23.16217663 -13 21 C-13.75150023 17.72226496 -13.75150023 17.72226496 -17 16 C-16.67 14.35 -16.34 12.7 -16 11 C-16.99 11 -17.98 11 -19 11 C-19 10.34 -19 9.68 -19 9 C-17.35 9.33 -15.7 9.66 -14 10 C-14 8.35 -14 6.7 -14 5 C-12 7 -12 7 -10.9375 9.9375 C-8.98430797 14.74535731 -5.55150722 18.34322393 -2.23046875 22.265625 C0.55285346 25.6777538 2.77955139 29.20374915 5 33 C4.70222656 32.33355469 4.40445313 31.66710937 4.09765625 30.98046875 C2.8095584 27.48289344 2.10715691 23.96549617 1.4375 20.3125 C0.65559317 15.52220144 0.65559317 15.52220144 -1 11 C-1.23188406 3.69565217 -1.23188406 3.69565217 0 0 Z M78 73 C78.33 73 78.66 73 79 73 C79 74.98 79 76.96 79 79 C78.34 79 77.68 79 77 79 C77.33 77.02 77.66 75.04 78 73 Z " fill="#DFA786" transform="translate(97,161)"/>
<path d="M0 0 C1.32 0 2.64 0 4 0 C4.33 1.65 4.66 3.3 5 5 C5.99 5.33 6.98 5.66 8 6 C8 10.29 8 14.58 8 19 C8.66 19 9.32 19 10 19 C10 32.53 10 46.06 10 60 C9.34 60 8.68 60 8 60 C7.95101562 60.96679688 7.90203125 61.93359375 7.8515625 62.9296875 C7.46198404 69.71372626 6.99586724 76.22157426 5.40234375 82.8515625 C4.94904637 85.27208248 4.93533988 87.54291541 5 90 C2.17588235 90.94137255 0.47081968 91.11725382 -2.44921875 91.09765625 C-3.29677734 91.09443359 -4.14433594 91.09121094 -5.01757812 91.08789062 C-6.33918945 91.07532227 -6.33918945 91.07532227 -7.6875 91.0625 C-8.58017578 91.05798828 -9.47285156 91.05347656 -10.39257812 91.04882812 C-12.59511987 91.03704983 -14.79752599 91.02060164 -17 91 C-18.0625 89.1875 -18.0625 89.1875 -19 87 C-18.67 86.01 -18.34 85.02 -18 84 C-17.34 84 -16.68 84 -16 84 C-15.855625 83.38125 -15.71125 82.7625 -15.5625 82.125 C-15 80 -15 80 -14 78 C-13.81253198 76.13412455 -13.67822063 74.2627872 -13.5703125 72.390625 C-13.49868896 71.25020752 -13.42706543 70.10979004 -13.35327148 68.93481445 C-13.27794189 67.71882568 -13.2026123 66.50283691 -13.125 65.25 C-12.55048724 56.64354051 -11.74684668 48.54337255 -9.65234375 40.17578125 C-8.88781674 36.45386234 -8.6636228 32.78439363 -8.5 29 C-8.01901001 18.75948827 -7.48609588 7.66868358 0 0 Z " fill="#ED9F7E" transform="translate(164,27)"/>
<path d="M0 0 C9.0476181 3.56075726 16.92200078 2.75664252 25.6875 -1 C27.0075 -1 28.3275 -1 29.6875 -1 C29.6875 2.3 29.6875 5.6 29.6875 9 C31.0796875 8.8453125 31.0796875 8.8453125 32.5 8.6875 C33.551875 8.790625 34.60375 8.89375 35.6875 9 C37.375 11.375 37.375 11.375 38.6875 14 C39.6775 14.66 40.6675 15.32 41.6875 16 C41.6875 16.99 41.6875 17.98 41.6875 19 C43.0075 19 44.3275 19 45.6875 19 C45.749375 19.61875 45.81125 20.2375 45.875 20.875 C46.516419 23.27761141 46.516419 23.27761141 49.25 24.25 C50.054375 24.4975 50.85875 24.745 51.6875 25 C51.6875 25.66 51.6875 26.32 51.6875 27 C51.0275 27 50.3675 27 49.6875 27 C49.6875 27.66 49.6875 28.32 49.6875 29 C50.6775 29.66 51.6675 30.32 52.6875 31 C51.6975 31.495 51.6975 31.495 50.6875 32 C50.6875 32.66 50.6875 33.32 50.6875 34 C52.1725 34.495 52.1725 34.495 53.6875 35 C48.2485835 35.21755666 43.81669186 35.10428384 38.6875 33 C43.10359747 37.41609747 48.75967251 37.50924304 54.6875 38 C54.6875 38.66 54.6875 39.32 54.6875 40 C52.0475 40 49.4075 40 46.6875 40 C47.0175 40.66 47.3475 41.32 47.6875 42 C50.21483235 42.65555119 50.21483235 42.65555119 52.6875 43 C52.6875 43.99 52.6875 44.98 52.6875 46 C47.11859483 45.52013969 42.01682432 44.70084819 36.6875 43 C36.6875 44.98 36.6875 46.96 36.6875 49 C35.6975 49.33 34.7075 49.66 33.6875 50 C33.6875 50.66 33.6875 51.32 33.6875 52 C33.0275 52 32.3675 52 31.6875 52 C31.1925 52.99 31.1925 52.99 30.6875 54 C29.6975 53.67 28.7075 53.34 27.6875 53 C27.0275 53.185625 26.3675 53.37125 25.6875 53.5625 C25.0275 53.706875 24.3675 53.85125 23.6875 54 C22.6975 53.34 21.7075 52.68 20.6875 52 C22.3375 54.31 23.9875 56.62 25.6875 59 C24.3675 59 23.0475 59 21.6875 59 C21.3575 59.99 21.0275 60.98 20.6875 62 C19.3675 61.67 18.0475 61.34 16.6875 61 C16.6875 61.99 16.6875 62.98 16.6875 64 C15.3675 63.67 14.0475 63.34 12.6875 63 C10.97590584 55.1839773 10.42928614 47.8002077 10.5625 39.8125 C10.57152344 38.76513672 10.58054688 37.71777344 10.58984375 36.63867188 C10.61309925 34.09219486 10.64577431 31.54622969 10.6875 29 C11.0175 29 11.3475 29 11.6875 29 C12.0175 32.96 12.3475 36.92 12.6875 41 C14.1725 40.505 14.1725 40.505 15.6875 40 C16.1825 39.01 16.1825 39.01 16.6875 38 C17.3475 38 18.0075 38 18.6875 38 C18.6875 37.01 18.6875 36.02 18.6875 35 C19.3475 35 20.0075 35 20.6875 35 C21.0175 33.35 21.3475 31.7 21.6875 30 C22.6775 30 23.6675 30 24.6875 30 C24.6875 27.36 24.6875 24.72 24.6875 22 C29.14296312 23.40028841 31.50406989 25.64449259 34.6875 29 C35.3475 29.33 36.0075 29.66 36.6875 30 C30.30493936 21.80941024 22.92571154 14.35881022 12.375 12.5 C8.47479026 12.031762 4.61260485 11.77855544 0.6875 12 C0.0275 12.66 -0.6325 13.32 -1.3125 14 C-1.6425 13.01 -1.9725 12.02 -2.3125 11 C-4.31266466 9.79117904 -4.31266466 9.79117904 -6.3125 9 C-6.3125 8.34 -6.3125 7.68 -6.3125 7 C-7.01375 6.938125 -7.715 6.87625 -8.4375 6.8125 C-12.40165867 5.69219429 -14.33466113 3.83933474 -17.3125 1 C-17.3125 0.34 -17.3125 -0.32 -17.3125 -1 C-11.16821509 -3.04809497 -5.94701061 -2.43560637 0 0 Z " fill="#E1A78B" transform="translate(118.3125,167)"/>
<path d="M0 0 C2 3 2 3 2 6 C2.7425 5.67 3.485 5.34 4.25 5 C7 4 7 4 11 4 C11.33 5.32 11.66 6.64 12 8 C12.33 7.01 12.66 6.02 13 5 C17.9306334 9.61252802 17.7770223 14.63398668 18 21 C18.66 20.67 19.32 20.34 20 20 C21.87233187 26.16309242 23.27432067 31.55346419 23 38 C23.33 38.66 23.66 39.32 24 40 C24.66 37.69 25.32 35.38 26 33 C27.78916192 35.68374288 28.39082594 37.04278889 29.0625 40.0625 C29.55601159 42.25271258 29.99256926 43.98513852 31 46 C31 48.33333333 31 50.66666667 31 53 C31.33 53.99 31.66 54.98 32 56 C32.66 56 33.32 56 34 56 C34.36332974 58.58234359 34.71594867 61.16539782 35.0625 63.75 C35.16626953 64.47960937 35.27003906 65.20921875 35.37695312 65.9609375 C35.85806208 69.6107296 36.04532842 72.47672914 35 76 C28.81497797 78.02202643 28.81497797 78.02202643 25.6875 77.9375 C24 77 24 77 22.75 74.6875 C22 72 22 72 22 68 C20.8553125 67.814375 20.8553125 67.814375 19.6875 67.625 C15.35035492 65.00254018 15.19643226 60.70965532 14 56 C13.54685571 54.59550306 13.06967032 53.19840391 12.5625 51.8125 C12.35753906 51.24144531 12.15257813 50.67039063 11.94140625 50.08203125 C10.95473857 47.75490399 10.95473857 47.75490399 8.9609375 44.90234375 C6.33284775 40.37308269 6.30434144 35.88292372 6.0625 30.75 C5.56789977 23.42586867 4.60410277 17.83559891 1.04296875 11.30859375 C-0.68780956 7.47754514 -0.33890409 4.13462988 0 0 Z " fill="#F4AC8C" transform="translate(93,45)"/>
<path d="M0 0 C0.66 0 1.32 0 2 0 C6.74908857 10.97812567 6.74908857 10.97812567 7 17 C5 19 5 19 1.5625 19.75 C-2.20575221 20.64128985 -2.20575221 20.64128985 -3.6875 23.875 C-4.3371875 25.421875 -4.3371875 25.421875 -5 27 C-5.67675781 27.57234375 -6.35351562 28.1446875 -7.05078125 28.734375 C-9.78670597 31.91440775 -9.46695986 34.23672253 -9.5 38.375 C-9.54703252 44.24230633 -10.24956405 47.41011629 -14 52 C-15.03125 52.66 -16.0625 53.32 -17.125 54 C-20.59432343 56.41344239 -20.78164009 58.08384315 -22 62 C-24.125 62.875 -24.125 62.875 -26 63 C-26 63.99 -26 64.98 -26 66 C-24.68 66 -23.36 66 -22 66 C-22.061875 66.78375 -22.12375 67.5675 -22.1875 68.375 C-22.125625 69.24125 -22.06375 70.1075 -22 71 C-21.01 71.66 -20.02 72.32 -19 73 C-18.3125 75.125 -18.3125 75.125 -18 77 C-19.79036458 77.9765625 -21.58072917 78.953125 -23.37109375 79.9296875 C-25.16618315 80.91410024 -25.16618315 80.91410024 -26 83 C-25.01 82.95875 -24.02 82.9175 -23 82.875 C-18.76164134 82.8576652 -15.06806015 83.85808838 -11 85 C-11.33 85.99 -11.66 86.98 -12 88 C-11.34 88 -10.68 88 -10 88 C-9.505 93.94 -9.505 93.94 -9 100 C-8.34 100 -7.68 100 -7 100 C-6.62680753 105.0380984 -6.97510906 108.40667681 -9 113.0625 C-10.81055987 117.24219672 -11.55387676 120.38436037 -11 125 C-10.06716704 127.20067421 -10.06716704 127.20067421 -9 129 C-9 129.99 -9 130.98 -9 132 C-8.34 132 -7.68 132 -7 132 C-6.15930585 133.60032137 -5.32768495 135.20541171 -4.5 136.8125 C-4.0359375 137.70582031 -3.571875 138.59914062 -3.09375 139.51953125 C-2 142 -2 142 -2 145 C-1.34 145 -0.68 145 0 145 C2.03435531 148.72965139 3 150.66905042 3 155 C3.66 155.33 4.32 155.66 5 156 C2.734375 155.94921875 2.734375 155.94921875 0 155 C-1.49637723 152.58207339 -2.62631044 150.39600526 -3.75 147.8125 C-6.36566285 142.16491692 -9.18484656 136.95645107 -12.6875 131.8125 C-19.13269753 122.14810667 -22.27725993 111.79105662 -25.08984375 100.59765625 C-25.63915235 98.42635487 -26.22493913 96.2631994 -26.87890625 94.12109375 C-28.818194 87.53501023 -29.43712604 81.07530357 -29.8125 74.25 C-29.86559326 73.36231934 -29.91868652 72.47463867 -29.97338867 71.56005859 C-30.31574206 63.34511596 -29.2964204 56.62052551 -24 50 C-20.27262572 46.51571534 -16.64406383 44.10088602 -12 42 C-12.2475 40.906875 -12.495 39.81375 -12.75 38.6875 C-13.44632588 32.92233134 -11.69748308 28.05585401 -9 23 C-5.20151013 18.30235069 -1.99116568 16.75944354 4 16 C3.71125 15.09636719 3.4225 14.19273438 3.125 13.26171875 C2.75375 12.08222656 2.3825 10.90273437 2 9.6875 C1.62875 8.51574219 1.2575 7.34398438 0.875 6.13671875 C0 3 0 3 0 0 Z " fill="#F7D5C2" transform="translate(103,106)"/>
<path d="M0 0 C3 1 3 1 4.75 3.375 C6.87252722 6.24918408 6.87252722 6.24918408 10.4375 7.4375 C14.78544106 9.34449169 16.23544294 11.23014947 19 15 C19.66 14.34 20.32 13.68 21 13 C23.22813814 12.98586805 25.31625063 13.3504214 27.51953125 13.6796875 C29.93659515 14.05628864 29.93659515 14.05628864 32.13671875 13.9453125 C40.35354526 13.91493606 46.19014874 19.81535583 52 25 C54.20090078 27.25651922 56.08848167 29.48771877 58 32 C55 32 55 32 52.5625 29.625 C51.2940625 28.325625 51.2940625 28.325625 50 27 C47.83379456 25.70480005 47.83379456 25.70480005 46 25 C45.67 26.98 45.34 28.96 45 31 C43.68 31 42.36 31 41 31 C40.896875 31.5775 40.79375 32.155 40.6875 32.75 C39.89103535 35.35661158 38.80934723 36.9735311 37 39 C36.34 39 35.68 39 35 39 C33.82428549 35.32589215 33.92633254 31.83070817 34 28 C32.02 27.34 30.04 26.68 28 26 C28 26.66 28 27.32 28 28 C28.66 28.33 29.32 28.66 30 29 C30 36.26 30 43.52 30 51 C29.67 51 29.34 51 29 51 C28.93941406 49.83082031 28.87882812 48.66164062 28.81640625 47.45703125 C28.73195966 45.90884386 28.64731375 44.36066732 28.5625 42.8125 C28.52318359 42.04357422 28.48386719 41.27464844 28.44335938 40.48242188 C28.16285074 34.67533029 28.16285074 34.67533029 27 29 C26.34 28.67 25.68 28.34 25 28 C24.67 27.67 24.34 27.34 24 27 C24.04125 27.94875 24.0825 28.8975 24.125 29.875 C24 33 24 33 22 35 C21.67 34.34 21.34 33.68 21 33 C19.01751285 32.28293018 17.01584651 31.61709587 15 31 C14.34 30.67 13.68 30.34 13 30 C13.33 31.98 13.66 33.96 14 36 C10.16341493 34.35688872 8.83644499 32.55802324 7.078125 28.734375 C3.41870719 19.45324289 0.26569115 10.04795635 0 0 Z " fill="#C5836C" transform="translate(98,165)"/>
<path d="M0 0 C1.2684375 0.2475 1.2684375 0.2475 2.5625 0.5 C6.09138856 1.01329288 9.43932689 1.07121346 13 1 C12.67 1.99 12.34 2.98 12 4 C14.45779976 4.22126178 16.91527648 4.42750395 19.375 4.625 C20.42300781 4.72167969 20.42300781 4.72167969 21.4921875 4.8203125 C23.32369111 4.96119739 25.16312748 4.98761659 27 5 C27.66 4.34 28.32 3.68 29 3 C37.24025781 1.14854967 43.56708981 2.16843346 51 6 C50.690625 6.556875 50.38125 7.11375 50.0625 7.6875 C48.94238179 10.12540433 48.43962636 12.36224186 48 15 C47.03578125 15.20496094 46.0715625 15.40992188 45.078125 15.62109375 C43.18320313 16.02521484 43.18320313 16.02521484 41.25 16.4375 C39.99703125 16.70433594 38.7440625 16.97117188 37.453125 17.24609375 C34.95442915 17.7916235 32.47446899 18.35638812 30 19 C30 19.66 30 20.32 30 21 C25.72722295 21.46192184 22.81677014 20.61069111 18.9375 19 C12.59770553 16.51997021 6.72198933 16.61527565 0 17 C-1.86128204 11.41615387 -1.13770571 5.68852856 0 0 Z " fill="#FBD9C7" transform="translate(100,149)"/>
<path d="M0 0 C1.9375 0.8125 1.9375 0.8125 4 2 C4.33 2.99 4.66 3.98 5 5 C6.31145213 5.70874222 7.64864382 6.37066806 9 7 C10.87029539 8.52306756 12.63283265 10.13214858 14.4140625 11.7578125 C15.92666909 13.20554064 15.92666909 13.20554064 18 13 C16.68 12.34 15.36 11.68 14 11 C14 10.34 14 9.68 14 9 C16.475 9.495 16.475 9.495 19 10 C19 10.66 19 11.32 19 12 C19.99 12 20.98 12 22 12 C22.495 12.99 22.495 12.99 23 14 C25.52733235 14.65555119 25.52733235 14.65555119 28 15 C28 15.99 28 16.98 28 18 C22.43109483 17.52013969 17.32932432 16.70084819 12 15 C12 16.98 12 18.96 12 21 C11.01 21.33 10.02 21.66 9 22 C9 22.66 9 23.32 9 24 C8.34 24 7.68 24 7 24 C6.67 24.66 6.34 25.32 6 26 C5.01 25.67 4.02 25.34 3 25 C2.34 25.185625 1.68 25.37125 1 25.5625 C0.34 25.706875 -0.32 25.85125 -1 26 C-1.99 25.34 -2.98 24.68 -4 24 C-2.35 26.31 -0.7 28.62 1 31 C-0.32 31 -1.64 31 -3 31 C-3.495 32.485 -3.495 32.485 -4 34 C-5.32 33.67 -6.64 33.34 -8 33 C-8 33.99 -8 34.98 -8 36 C-9.32 35.67 -10.64 35.34 -12 35 C-13.71159416 27.1839773 -14.25821386 19.8002077 -14.125 11.8125 C-14.11597656 10.76513672 -14.10695312 9.71777344 -14.09765625 8.63867188 C-14.07440075 6.09219486 -14.04172569 3.54622969 -14 1 C-13.67 1 -13.34 1 -13 1 C-12.67 4.96 -12.34 8.92 -12 13 C-11.01 12.67 -10.02 12.34 -9 12 C-8.67 11.34 -8.34 10.68 -8 10 C-7.34 10 -6.68 10 -6 10 C-6 9.01 -6 8.02 -6 7 C-5.34 7 -4.68 7 -4 7 C-3.67 5.35 -3.34 3.7 -3 2 C-2.01 2 -1.02 2 0 2 C0 1.34 0 0.68 0 0 Z " fill="#E5B69D" transform="translate(143,195)"/>
<path d="M0 0 C1.32 0 2.64 0 4 0 C4.33 1.65 4.66 3.3 5 5 C5.99 5.33 6.98 5.66 8 6 C8 10.29 8 14.58 8 19 C8.66 19 9.32 19 10 19 C10 32.53 10 46.06 10 60 C9.34 60 8.68 60 8 60 C7.87625 61.299375 7.7525 62.59875 7.625 63.9375 C7.4140625 66.15234375 7.4140625 66.15234375 7 68 C6.01 68.495 6.01 68.495 5 69 C5 66.36 5 63.72 5 61 C4.01 61.495 4.01 61.495 3 62 C4.875 56.125 4.875 56.125 6 55 C6.08767112 52.92737924 6.10695873 50.85179706 6.09765625 48.77734375 C6.09282227 46.88725586 6.09282227 46.88725586 6.08789062 44.95898438 C6.07953403 43.61848891 6.07106907 42.27799412 6.0625 40.9375 C6.0574866 39.59310058 6.05292342 38.2486994 6.04882812 36.90429688 C6.03699488 33.60282059 6.02050971 30.30143197 6 27 C4.68 28.32 3.36 29.64 2 31 C1.01 30.67 0.02 30.34 -1 30 C-1 29.34 -1 28.68 -1 28 C-1.99 28 -2.98 28 -4 28 C-3.97679687 28.65226562 -3.95359375 29.30453125 -3.9296875 29.9765625 C-3.8237459 35.10716281 -3.97455365 39.20289023 -6 44 C-6.26425781 44.63292969 -6.52851563 45.26585937 -6.80078125 45.91796875 C-7.51721807 47.61908176 -8.2566153 49.31048931 -9 51 C-9.66 51 -10.32 51 -11 51 C-10.85866501 49.22880197 -10.71176792 47.45804713 -10.5625 45.6875 C-10.48128906 44.70136719 -10.40007812 43.71523437 -10.31640625 42.69921875 C-10 40 -10 40 -9 37 C-8.8883838 35.25341321 -8.78120179 33.50626739 -8.70996094 31.75756836 C-7.73161351 7.92018945 -7.73161351 7.92018945 0 0 Z " fill="#F59C84" transform="translate(164,27)"/>
<path d="M0 0 C0 0.66 0 1.32 0 2 C0.66 2 1.32 2 2 2 C5.07708804 7.93438408 6.48736475 12.29873464 6 19 C6.66 19 7.32 19 8 19 C8 19.99 8 20.98 8 22 C8.99 22 9.98 22 11 22 C11 23.65 11 25.3 11 27 C10.34 27 9.68 27 9 27 C9.33 29.31 9.66 31.62 10 34 C8 32 8 32 7.875 29.375 C7.91625 28.59125 7.9575 27.8075 8 27 C6.68 27 5.36 27 4 27 C3.67 27.99 3.34 28.98 3 30 C3 29.34 3 28.68 3 28 C1.68 28.33 0.36 28.66 -1 29 C-1.33 28.01 -1.66 27.02 -2 26 C-1.93821733 27.33450557 -1.84901934 28.66773974 -1.75 30 C-1.70359375 30.7425 -1.6571875 31.485 -1.609375 32.25 C-1.03582189 34.83834226 -0.31981682 36.29724878 0.96875 38.5625 C3.72011666 43.82297462 3.89907242 49.15851806 4.25 55 C4.32734375 56.06089844 4.4046875 57.12179688 4.484375 58.21484375 C4.67135827 60.80923655 4.8428396 63.4036591 5 66 C4.01 66 3.02 66 2 66 C1.62246582 64.19366089 1.62246582 64.19366089 1.23730469 62.35083008 C0.28916569 57.82251023 -0.66702813 53.29592088 -1.62548828 48.76977539 C-2.03681866 46.82198614 -2.44605191 44.87375266 -2.85302734 42.92504883 C-4.92624681 33.0046682 -6.98993554 23.19224098 -10.19433594 13.56518555 C-10.98741657 11.04006489 -11.63003682 8.62160645 -12 6 C-10.890625 4.234375 -10.890625 4.234375 -9.25 2.75 C-8.45335938 1.99976563 -8.45335938 1.99976563 -7.640625 1.234375 C-4.75524367 -0.93653096 -3.43081903 -1.14360634 0 0 Z " fill="#FBB19F" transform="translate(96,22)"/>
<path d="M0 0 C3.77188507 0.10897902 4.50550896 0.34965957 7.5625 2.875 C13.16922592 11.03375289 13.84474106 21.72022731 13.8203125 31.30078125 C13.82174759 32.55449776 13.82174759 32.55449776 13.82321167 33.83354187 C13.82388973 35.59597855 13.8220616 37.35841778 13.81787109 39.12084961 C13.81253788 41.79351534 13.81781835 44.46601147 13.82421875 47.13867188 C13.82355751 48.85937537 13.82227539 50.58007875 13.8203125 52.30078125 C13.82233673 53.08858475 13.82436096 53.87638824 13.82644653 54.68806458 C13.8043271 60.02651637 13.35118036 65.20209076 12.6875 70.5 C12.3575 70.5 12.0275 70.5 11.6875 70.5 C11.3575 55.65 11.0275 40.8 10.6875 25.5 C10.0275 25.17 9.3675 24.84 8.6875 24.5 C8.32836397 21.19958535 8.24291597 17.91887757 8.12890625 14.6015625 C7.64877883 11.22792379 7.146414 10.6376159 4.6875 8.5 C4.6875 7.51 4.6875 6.52 4.6875 5.5 C2.01229534 6.09448992 0.21487984 6.80099825 -1.46484375 9.02734375 C-6.08328676 17.54967821 -6.39568842 26.9278554 -6.85058594 36.40893555 C-7.09281797 40.69554162 -7.70478299 44.63163195 -8.75 48.8125 C-10.74854512 57.12528912 -11.06799582 65.56384063 -11.48999023 74.08325195 C-12.09844841 84.60905193 -12.09844841 84.60905193 -15.3125 89.5 C-15.9725 89.5 -16.6325 89.5 -17.3125 89.5 C-16.80534718 84.9499597 -16.29016998 80.40091612 -15.76831055 75.85253906 C-15.59273081 74.313061 -15.41914845 72.7733535 -15.24780273 71.23339844 C-14.35349976 63.20827496 -13.33295271 55.29496856 -11.70703125 47.3828125 C-9.94940614 38.6751575 -9.84959536 30.16828943 -9.80126953 21.31835938 C-9.78553343 19.31367513 -9.75235542 17.30915182 -9.71875 15.3046875 C-9.71166016 14.13921387 -9.70457031 12.97374023 -9.69726562 11.77294922 C-8.96714797 5.56231642 -6.67394728 0.26920123 0 0 Z " fill="#F8BEAC" transform="translate(163.3125,21.5)"/>
<path d="M0 0 C0.66 0 1.32 0 2 0 C2.33 1.32 2.66 2.64 3 4 C2.34 4 1.68 4 1 4 C4.17154504 23.09195715 4.17154504 23.09195715 14 39 C14 37.35 14 35.7 14 34 C16.97 34.99 19.94 35.98 23 37 C23 38.32 23 39.64 23 41 C21.35 41.66 19.7 42.32 18 43 C18.22558594 43.58265625 18.45117188 44.1653125 18.68359375 44.765625 C19 47 19 47 17.78515625 48.921875 C16.93244141 49.82679688 16.93244141 49.82679688 16.0625 50.75 C15.49660156 51.36359375 14.93070313 51.9771875 14.34765625 52.609375 C13.90292969 53.06828125 13.45820312 53.5271875 13 54 C12.34 53.67 11.68 53.34 11 53 C11.66 49.7 12.32 46.4 13 43 C11.515 42.505 11.515 42.505 10 42 C9.67 43.98 9.34 45.96 9 48 C8.01 47.34 7.02 46.68 6 46 C3.84725052 46.30840599 3.84725052 46.30840599 2 47 C2 45.02 2 43.04 2 41 C1.01 41 0.02 41 -1 41 C-1 37.37 -1 33.74 -1 30 C-5.98229776 28.08373163 -10.72684667 27.4452885 -16 27 C-15 25 -15 25 -12 24 C-10.29144978 20.99992729 -10.29144978 20.99992729 -9 18 C-10.32 17.67 -11.64 17.34 -13 17 C-13 15.35 -13 13.7 -13 12 C-4.75473523 15.25323372 0.69633414 25.64211965 5 33 C4.70222656 32.33355469 4.40445313 31.66710937 4.09765625 30.98046875 C2.8095584 27.48289344 2.10715691 23.96549617 1.4375 20.3125 C0.65559317 15.52220144 0.65559317 15.52220144 -1 11 C-1.23188406 3.69565217 -1.23188406 3.69565217 0 0 Z " fill="#D7917D" transform="translate(97,161)"/>
<path d="M0 0 C9.13674052 6.49128121 12.58147232 17.54726747 16.5 27.6875 C16.76748047 28.37046143 17.03496094 29.05342285 17.31054688 29.75708008 C19.1212004 34.63639879 19.1212004 34.63639879 18 38 C14.42895561 36.12050295 12.45255699 34.82946843 11 31 C11.66 31 12.32 31 13 31 C13 29.35 13 27.7 13 26 C12.01 26 11.02 26 10 26 C10 25.01 10 24.02 10 23 C9.34 23 8.68 23 8 23 C7.87882812 22.35933594 7.75765625 21.71867187 7.6328125 21.05859375 C6.64320773 15.95071067 5.51489049 10.97749731 4 6 C3.34 6 2.68 6 2 6 C1.67 5.34 1.34 4.68 1 4 C-3.33671225 5.1827397 -6.33398414 6.26757779 -9 10 C-8.52679341 13.73869326 -7.33160792 17.22656201 -6.16796875 20.80078125 C-3.97716953 27.83054415 -2.31092051 34.9112283 -0.76245117 42.10327148 C-0.31029194 44.19772799 0.1538839 46.28927787 0.61914062 48.38085938 C2.19459259 55.56244031 3.53930325 62.65194184 4 70 C4.99 70 5.98 70 7 70 C7.36398622 72.08164018 7.71583287 74.16540562 8.0625 76.25 C8.35833984 77.99023438 8.35833984 77.99023438 8.66015625 79.765625 C8.9606216 82.62522624 8.9439206 84.33325929 8 87 C4.48621147 78.06326449 1.67958484 69.35545087 0.0625 59.875 C-2.4257986 45.50940018 -6.37142806 31.34605717 -12.4375 18.0625 C-14.7097608 12.97900548 -16.20506925 9.52323407 -15 4 C-10.80483219 -1.27085187 -6.38618312 -2.40546231 0 0 Z " fill="#F9CBBE" transform="translate(94,18)"/>
<path d="M0 0 C0.66 0 1.32 0 2 0 C6.74908857 10.97812567 6.74908857 10.97812567 7 17 C5 19 5 19 1.5625 19.75 C-2.20575221 20.64128985 -2.20575221 20.64128985 -3.6875 23.875 C-4.3371875 25.421875 -4.3371875 25.421875 -5 27 C-5.67675781 27.57234375 -6.35351562 28.1446875 -7.05078125 28.734375 C-9.78670597 31.91440775 -9.46695986 34.23672253 -9.5 38.375 C-9.54708072 44.24832003 -10.26409873 47.39623056 -14 52 C-15.96722008 53.38123963 -17.96868328 54.71488126 -20 56 C-21.7041054 57.62836738 -23.38025441 59.28769752 -25 61 C-25.495 61.495 -25.495 61.495 -26 62 C-26.21994759 66.25232003 -26.20396074 69.80178844 -24.9375 73.875 C-24 77 -24 77 -25 79 C-25.66 79 -26.32 79 -27 79 C-27 80.65 -27 82.3 -27 84 C-26.34 84 -25.68 84 -25 84 C-22.71539837 89.8192683 -21.66758061 95.1304643 -21.25 101.359375 C-21.019516 103.7938623 -20.58397573 105.96004665 -19.9375 108.3125 C-19.06880362 111.72937243 -18.82494979 114.49899576 -19 118 C-21.16055142 115.83944858 -21.45396237 114.94636061 -22.18359375 112.0703125 C-22.38758789 111.28156738 -22.59158203 110.49282227 -22.80175781 109.68017578 C-23.01155273 108.83696777 -23.22134766 107.99375977 -23.4375 107.125 C-23.87882373 105.37497919 -24.3202297 103.62497911 -24.76171875 101.875 C-24.9736084 101.02808594 -25.18549805 100.18117188 -25.40380859 99.30859375 C-25.87984076 97.4652849 -26.40957291 95.63587146 -26.95703125 93.8125 C-28.86808866 87.33561577 -29.43921368 80.96335743 -29.8125 74.25 C-29.86567383 73.36199707 -29.91884766 72.47399414 -29.97363281 71.55908203 C-30.31533399 63.34440104 -29.29629201 56.62036501 -24 50 C-20.27262572 46.51571534 -16.64406383 44.10088602 -12 42 C-12.2475 40.906875 -12.495 39.81375 -12.75 38.6875 C-13.44632588 32.92233134 -11.69748308 28.05585401 -9 23 C-5.20151013 18.30235069 -1.99116568 16.75944354 4 16 C3.71125 15.09636719 3.4225 14.19273438 3.125 13.26171875 C2.75375 12.08222656 2.3825 10.90273437 2 9.6875 C1.62875 8.51574219 1.2575 7.34398438 0.875 6.13671875 C0 3 0 3 0 0 Z " fill="#FBEFE3" transform="translate(103,106)"/>
<path d="M0 0 C1.32 0.33 2.64 0.66 4 1 C4 1.99 4 2.98 4 4 C4.66 4.66 5.32 5.32 6 6 C5.7578125 8.8203125 5.7578125 8.8203125 5.125 12.125 C4.92132813 13.22070312 4.71765625 14.31640625 4.5078125 15.4453125 C4.34023437 16.28835937 4.17265625 17.13140625 4 18 C4.66 18 5.32 18 6 18 C6 16.02 6 14.04 6 12 C6.33 12 6.66 12 7 12 C7 13.65 7 15.3 7 17 C7.99 17 8.98 17 10 17 C10.33 16.01 10.66 15.02 11 14 C13.33333333 14 15.66666667 14 18 14 C18.66 13.34 19.32 12.68 20 12 C20.495 12.495 20.495 12.495 21 13 C20.938125 12.21625 20.87625 11.4325 20.8125 10.625 C20.9053125 9.325625 20.9053125 9.325625 21 8 C21.99 7.34 22.98 6.68 24 6 C24.91058531 9.07322544 25.08886184 11.80097361 25 15 C24.01 15 23.02 15 22 15 C22.09539062 15.75925781 22.19078125 16.51851562 22.2890625 17.30078125 C22.39992187 18.29464844 22.51078125 19.28851563 22.625 20.3125 C22.74101562 21.29863281 22.85703125 22.28476563 22.9765625 23.30078125 C23 26 23 26 21 29 C20.34 29 19.68 29 19 29 C19 27.68 19 26.36 19 25 C18.01 25.226875 17.02 25.45375 16 25.6875 C12.29038774 26.22374098 10.02783165 25.26298734 6.59765625 23.76953125 C0.65234956 22.00829002 -5.83680651 22.21690851 -12 22 C-12.33 20.02 -12.66 18.04 -13 16 C-11.68 15.34 -10.36 14.68 -9 14 C-9 15.32 -9 16.64 -9 18 C-7.68 18 -6.36 18 -5 18 C-5.33 15.36 -5.66 12.72 -6 10 C-5.01 9.67 -4.02 9.34 -3 9 C-2.87625 8.2575 -2.7525 7.515 -2.625 6.75 C-2.04513299 4.19858515 -1.26291261 2.2732427 0 0 Z " fill="#EFA583" transform="translate(137,129)"/>
<path d="M0 0 C0.9075 0.28875 1.815 0.5775 2.75 0.875 C8.0668576 2.40976302 13.53953576 3.15716972 19 4 C19.33 3.34 19.66 2.68 20 2 C20.33 4.31 20.66 6.62 21 9 C21.66 9 22.32 9 23 9 C23 6.03 23 3.06 23 0 C23.33 0 23.66 0 24 0 C24.02918634 4.35415244 24.04686145 8.70827948 24.0625 13.0625 C24.07087891 14.29162109 24.07925781 15.52074219 24.08789062 16.78710938 C24.09272461 18.58051758 24.09272461 18.58051758 24.09765625 20.41015625 C24.10551147 22.05189819 24.10551147 22.05189819 24.11352539 23.72680664 C24 27 24 27 23.5 30.48632812 C23.00236047 33.98341216 22.88607861 37.27905873 22.90234375 40.80859375 C22.90717773 42.66967773 22.90717773 42.66967773 22.91210938 44.56835938 C22.92048828 45.84517578 22.92886719 47.12199219 22.9375 48.4375 C22.94201172 49.74138672 22.94652344 51.04527344 22.95117188 52.38867188 C22.96290749 55.59249552 22.97932637 58.79622363 23 62 C21.68 61.67 20.36 61.34 19 61 C19.02320313 59.95199219 19.04640625 58.90398437 19.0703125 57.82421875 C19.08907303 56.44531963 19.10727293 55.0664128 19.125 53.6875 C19.14175781 52.99720703 19.15851563 52.30691406 19.17578125 51.59570312 C19.21217794 47.82864604 19.14378864 46.21568296 17 43 C15.515 43.495 15.515 43.495 14 44 C14 42.35 14 40.7 14 39 C13.01 39 12.02 39 11 39 C11 38.34 11 37.68 11 37 C13.475 36.505 13.475 36.505 16 36 C16 33.03 16 30.06 16 27 C15.01 26.67 14.02 26.34 13 26 C13.96355353 15.44191344 13.96355353 15.44191344 15 11 C13.35 11 11.7 11 10 11 C9.67 10.01 9.34 9.02 9 8 C8.01 7.67 7.02 7.34 6 7 C9.63 7.33 13.26 7.66 17 8 C17 7.34 17 6.68 17 6 C16.1646875 6.06960937 16.1646875 6.06960937 15.3125 6.140625 C9.05118604 6.43676823 5.40544025 5.14498342 0 2 C0 1.34 0 0.68 0 0 Z M19 35 C18.67 36.98 18.34 38.96 18 41 C18.66 41 19.32 41 20 41 C20 39.02 20 37.04 20 35 C19.67 35 19.34 35 19 35 Z " fill="#EBC4A9" transform="translate(156,199)"/>
<path d="M0 0 C1.66666667 0.66666667 3.33333333 1.33333333 5 2 C5.825 2.2475 6.65 2.495 7.5 2.75 C11.01265574 4.50632787 12.63080977 6.88620713 15 10 C15.66 9.34 16.32 8.68 17 8 C18.84765625 7.98828125 18.84765625 7.98828125 21.0625 8.3125 C23.52115586 8.66090856 25.93911321 8.99606547 28.41796875 9.15625 C32.13730488 9.40545175 34.72912593 9.86998045 38.125 11.5 C40.3324583 14.44327773 40.18516196 15.21249246 39.8125 18.75 C39.56720908 20.17131189 39.3042656 21.59013562 39 23 C38.01 22.67 37.02 22.34 36 22 C35.505 21.01 35.505 21.01 35 20 C34.113125 20.103125 33.22625 20.20625 32.3125 20.3125 C27.97040187 19.9028681 26.81132695 18.20178903 24 15 C23.34 14.67 22.68 14.34 22 14 C22 16.31 22 18.62 22 21 C21.34 20.67 20.68 20.34 20 20 C19.67 21.98 19.34 23.96 19 26 C17.33333333 24.33333333 15.66666667 22.66666667 14 21 C13.071875 20.113125 12.14375 19.22625 11.1875 18.3125 C9 16 9 16 9 14 C7.68 13.34 6.36 12.68 5 12 C5 11.34 5 10.68 5 10 C4.01 9.67 3.02 9.34 2 9 C1.34 9.66 0.68 10.32 0 11 C-0.19491452 9.54263913 -0.38069358 8.08405407 -0.5625 6.625 C-0.66691406 5.81289062 -0.77132812 5.00078125 -0.87890625 4.1640625 C-1 2 -1 2 0 0 Z " fill="#BC7B6F" transform="translate(102,170)"/>
<path d="M0 0 C0.33 0.99 0.66 1.98 1 3 C4.00847418 4.22520264 4.00847418 4.22520264 7 5 C7.33 8.63 7.66 12.26 8 16 C8.66 16 9.32 16 10 16 C10.28875 15.4225 10.5775 14.845 10.875 14.25 C11.91666667 12.16666667 12.95833333 10.08333333 14 8 C15.32 8.33 16.64 8.66 18 9 C17.01 9 16.02 9 15 9 C14.67 10.65 14.34 12.3 14 14 C13.34 14 12.68 14 12 14 C12 14.99 12 15.98 12 17 C11.34 17 10.68 17 10 17 C9.67 17.99 9.34 18.98 9 20 C8.01 20 7.02 20 6 20 C5.67 18.35 5.34 16.7 5 15 C4.79128247 24.24154826 4.85017452 32.9400212 7 42 C7.99 42.33 8.98 42.66 10 43 C10 42.01 10 41.02 10 40 C12.16874252 40.50603992 13.99967627 40.99983813 16 42 C16 41.34 16 40.68 16 40 C22.625 40.75 22.625 40.75 26 43 C24.88625 43.2475 24.88625 43.2475 23.75 43.5 C19.7592964 45.67674742 18.69986601 48.916523 17 53 C13.94926153 53.28780552 11.04178472 53.42606559 8 53 C5.29515463 50.21318962 5.03072872 48.54287411 4.8125 44.6875 C4.9053125 43.3571875 4.9053125 43.3571875 5 42 C4.34 42 3.68 42 3 42 C1.22488199 35.67520978 0.42504164 29.53738018 -0.125 23 C-0.21136719 22.03449219 -0.29773438 21.06898438 -0.38671875 20.07421875 C-0.59680508 17.71658324 -0.80110492 15.35860143 -1 13 C-1.99 13.495 -1.99 13.495 -3 14 C-4.2380014 10.42355152 -3.74926071 7.66305234 -3 4 C0.01327566 5.50663783 0.61056618 8.03166411 2 11 C2.33 9.35 2.66 7.7 3 6 C2.01 5.67 1.02 5.34 0 5 C0 3.35 0 1.7 0 0 Z " fill="#D59978" transform="translate(125,188)"/>
<path d="M0 0 C4.19283118 0.64844086 8.26499921 1.51216646 12.375 2.5625 C13.43460938 2.83191406 14.49421875 3.10132813 15.5859375 3.37890625 C16.38257813 3.58386719 17.17921875 3.78882813 18 4 C17.51496377 6.94690078 17.02324938 9.8837531 16.4375 12.8125 C15.87742564 16.89304177 15.91777431 20.88871565 16 25 C8.532166 25.71806096 2.55970093 23.5609805 -4 20 C-6.359375 17.828125 -6.359375 17.828125 -8 16 C-7.34 16 -6.68 16 -6 16 C-6 15.34 -6 14.68 -6 14 C-5.443125 14.20496094 -4.88625 14.40992188 -4.3125 14.62109375 C0.83617554 16.43878495 5.56276016 17.50570547 11 18 C10.00097656 17.67386719 9.00195312 17.34773438 7.97265625 17.01171875 C6.66906034 16.57093452 5.36568617 16.12949414 4.0625 15.6875 C3.40314453 15.47416016 2.74378906 15.26082031 2.06445312 15.04101562 C0.34313703 14.44958907 -1.33331932 13.73136173 -3 13 C-3.33 12.01 -3.66 11.02 -4 10 C-3.34 10 -2.68 10 -2 10 C-2 9.34 -2 8.68 -2 8 C-1.34 7.67 -0.68 7.34 0 7 C0 4.69 0 2.38 0 0 Z " fill="#D9AA8C" transform="translate(154,209)"/>
<path d="M0 0 C0.33 0.99 0.66 1.98 1 3 C1.99 3 2.98 3 4 3 C4 3.66 4 4.32 4 5 C7.35595828 4.40072174 9.37801226 3.15377564 12 1 C12 2.32 12 3.64 12 5 C11.34 5.66 10.68 6.32 10 7 C9.72234584 9.32817205 9.72234584 9.32817205 9.8046875 12.0078125 C9.81113281 12.99394531 9.81757813 13.98007813 9.82421875 14.99609375 C9.84097656 16.02863281 9.85773438 17.06117187 9.875 18.125 C9.88402344 19.16527344 9.89304688 20.20554687 9.90234375 21.27734375 C9.92596253 23.85179092 9.95889851 26.42578212 10 29 C8.68 29.33 7.36 29.66 6 30 C5.505 32.475 5.505 32.475 5 35 C3.68 35 2.36 35 1 35 C1.50603992 32.83125748 1.99983813 31.00032373 3 29 C0.69 28.67 -1.62 28.34 -4 28 C-4 29.32 -4 30.64 -4 32 C-4.66 32 -5.32 32 -6 32 C-6 30.02 -6 28.04 -6 26 C-5.34 26 -4.68 26 -4 26 C-3.87625 25.236875 -3.7525 24.47375 -3.625 23.6875 C-3 21 -3 21 -1 18 C0.24471916 12.02534803 0.09898325 6.08197093 0 0 Z " fill="#EA9070" transform="translate(159,52)"/>
<path d="M0 0 C0.99 0.33 1.98 0.66 3 1 C4.05404945 4.98196457 3.84098656 7.98195309 3 12 C2.34 12 1.68 12 1 12 C0.65769186 18.66866963 1.06420178 24.24206944 3.203125 30.578125 C4.22237409 33.67584281 4.89975901 36.80411742 5.5703125 39.9921875 C6.00168173 42.00785826 6.48956618 44.0030396 7 46 C3.1384261 42.47915321 0.39016058 38.74278755 -2.44140625 34.359375 C-4.80189912 30.78609757 -7.39162905 27.39458205 -10 24 C-9.34 24 -8.68 24 -8 24 C-8.33 23.29875 -8.66 22.5975 -9 21.875 C-10.16040475 18.53883634 -10.58340442 16.5004265 -10 13 C-7.1776078 10.24032763 -4.2771135 8.18474233 -1 6 C-0.26656572 2.93443402 -0.26656572 2.93443402 0 0 Z " fill="#EFB49D" transform="translate(96,149)"/>
<path d="M0 0 C1.65 0.33 3.3 0.66 5 1 C5.33 1.99 5.66 2.98 6 4 C9.4859153 5.47481032 13.27964721 5.14039067 17 5 C17.33 4.67 17.66 4.34 18 4 C19.66617115 3.95936168 21.33388095 3.957279 23 4 C23 4.66 23 5.32 23 6 C24.175625 5.7215625 24.175625 5.7215625 25.375 5.4375 C28 5 28 5 30 6 C30.495 7.485 30.495 7.485 31 9 C33.31 9.33 35.62 9.66 38 10 C38.6875 11.8125 38.6875 11.8125 39 14 C37.5625 15.75 37.5625 15.75 36 17 C35.29746094 16.52949219 34.59492188 16.05898437 33.87109375 15.57421875 C30.8277376 13.90554864 28.47877964 13.32692049 25.0625 12.8125 C24.06347656 12.65394531 23.06445312 12.49539062 22.03515625 12.33203125 C18.96832589 11.99653501 16.08064018 11.80280397 13 12 C12.34 12.66 11.68 13.32 11 14 C10.67 13.01 10.34 12.02 10 11 C7.99983534 9.79117904 7.99983534 9.79117904 6 9 C6 8.34 6 7.68 6 7 C5.236875 6.896875 4.47375 6.79375 3.6875 6.6875 C0.82940576 5.95635961 -0.15742885 5.23048087 -2 3 C-1.34 3 -0.68 3 0 3 C0 2.01 0 1.02 0 0 Z " fill="#D89885" transform="translate(106,167)"/>
<path d="M0 0 C7.71574825 3.04430883 12.95012559 12.44083955 17 19.359375 C18.04151675 21.16688704 18.04151675 21.16688704 19.875 23.1875 C21 25 21 25 20.875 27.4375 C19.90505273 30.27805986 18.74479561 32.55728615 17 35 C16.34 35 15.68 35 15 35 C15 33.02 15 31.04 15 29 C14.01 29 13.02 29 12 29 C12 25.37 12 21.74 12 18 C7.01770224 16.08373163 2.27315333 15.4452885 -3 15 C-2 13 -2 13 1 12 C2.70855022 8.99992729 2.70855022 8.99992729 4 6 C2.68 5.67 1.36 5.34 0 5 C0 3.35 0 1.7 0 0 Z " fill="#D4886E" transform="translate(84,173)"/>
<path d="M0 0 C4.45546312 1.40028841 6.81656989 3.64449259 10 7 C10.66 7.33 11.32 7.66 12 8 C11.67 7.01 11.34 6.02 11 5 C14.96 5.33 18.92 5.66 23 6 C23 6.99 23 7.98 23 9 C23.99 9.33 24.98 9.66 26 10 C26 10.66 26 11.32 26 12 C26.99 12.33 27.98 12.66 29 13 C23.5610835 13.21755666 19.12919186 13.10428384 14 11 C18.41609747 15.41609747 24.07217251 15.50924304 30 16 C30 16.66 30 17.32 30 18 C24.06997733 18.37851209 19.52760359 17.10575375 14 15 C14 15.66 14 16.32 14 17 C15.98 17.66 17.96 18.32 20 19 C18.33984375 19.7578125 18.33984375 19.7578125 16 20 C13.37890625 18.3046875 13.37890625 18.3046875 10.5625 15.875 C9.63566406 15.08867187 8.70882812 14.30234375 7.75390625 13.4921875 C0.04901244 6.51953182 0.04901244 6.51953182 -0.3125 2.6875 C-0.209375 1.800625 -0.10625 0.91375 0 0 Z " fill="#E0A78B" transform="translate(143,189)"/>
<path d="M0 0 C0.33 0 0.66 0 1 0 C1.18318681 5.83144666 1.27369095 11.35902722 -0.0625 17.0625 C-1.72730216 25.32747525 -0.65374479 33.66436936 0 42 C0.06203613 42.89251465 0.12407227 43.7850293 0.18798828 44.70458984 C0.89170189 54.82114792 1.92675773 64.75125897 4 74.6875 C4.16604736 75.48349609 4.33209473 76.27949219 4.50317383 77.09960938 C5.27788801 80.56850159 6.00850949 83.01276424 8 86 C7.67 86.99 7.34 87.98 7 89 C1.87329126 83.60346448 1.22340165 78.67654025 0.63330078 71.51171875 C0.40590556 67.30547637 0.40590556 67.30547637 -2 64 C-2.26224288 61.7172949 -2.40761122 59.4208611 -2.5 57.125 C-2.69693613 52.46754005 -2.97408951 47.88190559 -3.64453125 43.265625 C-5.37666168 30.92838634 -4.2177564 20.36572747 -1.48974609 8.23535156 C-0.89157719 5.50512502 -0.4239101 2.76225293 0 0 Z " fill="#FAE7D9" transform="translate(174,93)"/>
<path d="M0 0 C5.41852796 2.25632201 10.68693732 4.6610219 15.8984375 7.36328125 C15.8984375 10.00328125 15.8984375 12.64328125 15.8984375 15.36328125 C8.4306035 16.08134221 2.45813843 13.92426175 -4.1015625 10.36328125 C-6.4609375 8.19140625 -6.4609375 8.19140625 -8.1015625 6.36328125 C-7.4415625 6.36328125 -6.7815625 6.36328125 -6.1015625 6.36328125 C-6.1015625 5.70328125 -6.1015625 5.04328125 -6.1015625 4.36328125 C-5.26625 4.67072266 -5.26625 4.67072266 -4.4140625 4.984375 C0.73461304 6.8020662 5.46119766 7.86898672 10.8984375 8.36328125 C9.89941406 8.03714844 8.90039062 7.71101562 7.87109375 7.375 C6.56749784 6.93421577 5.26412367 6.49277539 3.9609375 6.05078125 C3.30158203 5.83744141 2.64222656 5.62410156 1.96289062 5.40429688 C0.24157453 4.81287032 -1.43488182 4.09464298 -3.1015625 3.36328125 C-3.4315625 2.37328125 -3.7615625 1.38328125 -4.1015625 0.36328125 C-2.1015625 -0.63671875 -2.1015625 -0.63671875 0 0 Z " fill="#CE9D7B" transform="translate(154.1015625,218.63671875)"/>
<path d="M0 0 C3 1 3 1 4.25 2.875 C5 5 5 5 4 8 C4.08333333 10.58333333 4.08333333 10.58333333 5 13 C6.31403276 13.70394612 7.6520257 14.36345658 9 15 C14 20.01420455 14 20.01420455 14 23 C14.5775 23.2475 15.155 23.495 15.75 23.75 C18.3002997 25.16683317 20.01785701 26.87627537 22 29 C21.67 29.66 21.34 30.32 21 31 C20.21625 30.175 19.4325 29.35 18.625 28.5 C16.36278736 25.77011494 16.36278736 25.77011494 14 26 C13.34 28.31 12.68 30.62 12 33 C10.16015625 32.3984375 10.16015625 32.3984375 8 31 C6.62109375 28.1640625 6.62109375 28.1640625 5.4375 24.625 C5.22843018 24.00375244 5.01936035 23.38250488 4.80395508 22.74243164 C-0.25400008 7.39273922 -0.25400008 7.39273922 0 0 Z " fill="#C67764" transform="translate(98,165)"/>
<path d="M0 0 C2 3 2 3 2 7 C2.66 7 3.32 7 4 7 C4 20.53 4 34.06 4 48 C3.34 48 2.68 48 2 48 C1.87625 49.299375 1.7525 50.59875 1.625 51.9375 C1.4140625 54.15234375 1.4140625 54.15234375 1 56 C0.01 56.495 0.01 56.495 -1 57 C-1 54.36 -1 51.72 -1 49 C-1.99 49.495 -1.99 49.495 -3 50 C-1.125 44.125 -1.125 44.125 0 43 C0.07510029 41.23063721 0.08317123 39.45833523 0.0625 37.6875 C0.05089844 36.07488281 0.05089844 36.07488281 0.0390625 34.4296875 C0.01972656 32.73199219 0.01972656 32.73199219 0 31 C-0.0253886 28.77088056 -0.04646254 26.54170633 -0.0625 24.3125 C-0.07410156 23.31863281 -0.08570313 22.32476562 -0.09765625 21.30078125 C0 19 0 19 1 18 C1.35712683 13.33537933 1.35712683 13.33537933 -0.0625 9 C-1.51490501 5.90153598 -0.6286568 3.26901537 0 0 Z " fill="#F5A98F" transform="translate(170,39)"/>
<path d="M0 0 C1.66666667 0.66666667 3.33333333 1.33333333 5 2 C5.79535156 2.19335938 6.59070313 2.38671875 7.41015625 2.5859375 C11.29349765 4.70625362 12.42645461 7.83639104 14.25 11.75 C14.600625 12.45382813 14.95125 13.15765625 15.3125 13.8828125 C17.26008112 17.91280729 18.51864963 21.49795827 19 26 C17.33333333 24.33333333 15.66666667 22.66666667 14 21 C13.071875 20.113125 12.14375 19.22625 11.1875 18.3125 C9 16 9 16 9 14 C7.68 13.34 6.36 12.68 5 12 C5 11.34 5 10.68 5 10 C4.01 9.67 3.02 9.34 2 9 C1.34 9.66 0.68 10.32 0 11 C-0.19491452 9.54263913 -0.38069358 8.08405407 -0.5625 6.625 C-0.66691406 5.81289062 -0.77132812 5.00078125 -0.87890625 4.1640625 C-1 2 -1 2 0 0 Z " fill="#B25F47" transform="translate(102,170)"/>
<path d="M0 0 C1.32 0.33 2.64 0.66 4 1 C3 3 2 5 1 7 C0.92818179 9.71760108 0.90700494 12.40859388 0.9375 15.125 C0.94201172 15.87910156 0.94652344 16.63320312 0.95117188 17.41015625 C0.96296501 19.27347127 0.98090058 21.13674555 1 23 C-3.29 22.67 -7.58 22.34 -12 22 C-12.33 20.02 -12.66 18.04 -13 16 C-11.68 15.34 -10.36 14.68 -9 14 C-9 15.32 -9 16.64 -9 18 C-7.68 18 -6.36 18 -5 18 C-5.33 15.36 -5.66 12.72 -6 10 C-5.01 9.67 -4.02 9.34 -3 9 C-2.87625 8.2575 -2.7525 7.515 -2.625 6.75 C-2.04513299 4.19858515 -1.26291261 2.2732427 0 0 Z " fill="#EEA284" transform="translate(137,129)"/>
<path d="M0 0 C0.33 0 0.66 0 1 0 C1.82555811 49.96531679 1.82555811 49.96531679 -3 70 C-5.475 70.495 -5.475 70.495 -8 71 C-6.515 70.505 -6.515 70.505 -5 70 C-5.20625 69.195625 -5.4125 68.39125 -5.625 67.5625 C-6.03525103 63.66511523 -5.41882674 60.97364829 -4.47265625 57.2265625 C-3.87670573 54.79855523 -3.87670573 54.79855523 -4 51.4375 C-4 47.28898452 -3.11876537 43.98560163 -2 40 C-1.34 40 -0.68 40 0 40 C0 26.8 0 13.6 0 0 Z " fill="#F6C5AE" transform="translate(174,47)"/>
<path d="M0 0 C1.17369141 -0.02513672 1.17369141 -0.02513672 2.37109375 -0.05078125 C5.02377163 0.38896749 5.885467 1.26878454 7.5625 3.3125 C7.2325 3.9725 6.9025 4.6325 6.5625 5.3125 C3.2625 4.6525 -0.0375 3.9925 -3.4375 3.3125 C-3.72625 4.7975 -4.015 6.2825 -4.3125 7.8125 C-4.92159626 10.94499504 -5.62170991 13.98235421 -6.46875 17.0625 C-7.62517413 21.62772992 -7.87911565 26.12091712 -8.0625 30.8125 C-8.10117188 31.63492188 -8.13984375 32.45734375 -8.1796875 33.3046875 C-8.27281692 35.3069701 -8.35618985 37.30970262 -8.4375 39.3125 C-8.7675 39.3125 -9.0975 39.3125 -9.4375 39.3125 C-9.51201364 35.0075223 -9.56627223 30.70289266 -9.60229492 26.39746094 C-9.61732196 24.93482925 -9.63774955 23.47224218 -9.66381836 22.00976562 C-9.70047267 19.8996272 -9.71728676 17.79008774 -9.73046875 15.6796875 C-9.7461792 14.41237793 -9.76188965 13.14506836 -9.77807617 11.83935547 C-9.1576018 5.41399864 -6.91431071 0.03406064 0 0 Z " fill="#F9D2C6" transform="translate(163.4375,21.6875)"/>
<path d="M0 0 C0.66 0.66 1.32 1.32 2 2 C-1.3 2 -4.6 2 -8 2 C-8.33 3.32 -8.66 4.64 -9 6 C-9.33 6.66 -9.66 7.32 -10 8 C-10.71613315 15.28068707 -8.99563816 20.31003224 -6.09375 26.984375 C-5.03113653 29.91415213 -4.77192473 31.92098381 -5 35 C-6.65607992 32.51588011 -7.64707994 30.58139056 -8.69140625 27.83984375 C-8.99626953 27.04642578 -9.30113281 26.25300781 -9.61523438 25.43554688 C-9.92783203 24.61119141 -10.24042969 23.78683594 -10.5625 22.9375 C-11.18800815 21.30047766 -11.81427452 19.66374479 -12.44140625 18.02734375 C-12.71670166 17.30281006 -12.99199707 16.57827637 -13.27563477 15.83178711 C-13.99022532 13.94707697 -13.99022532 13.94707697 -15 12 C-15.34565481 8.98786522 -15.56614947 6.90845414 -15 4 C-10.67286662 -1.43665476 -6.5856205 -1.98885739 0 0 Z " fill="#FBE7DF" transform="translate(94,18)"/>
<path d="M0 0 C2 1 2 1 2.81640625 3.07421875 C3.06261719 3.93660156 3.30882812 4.79898437 3.5625 5.6875 C3.81128906 6.53699219 4.06007812 7.38648438 4.31640625 8.26171875 C5.79164701 14.17111172 6.14825142 19.74584608 6.1328125 25.80078125 C6.13376923 26.63659225 6.13472595 27.47240326 6.13571167 28.33354187 C6.13638973 30.09597855 6.1345616 31.85841778 6.13037109 33.62084961 C6.12503788 36.29351534 6.13031835 38.96601147 6.13671875 41.63867188 C6.13605751 43.35937537 6.13477539 45.08007875 6.1328125 46.80078125 C6.13483673 47.58858475 6.13686096 48.37638824 6.13894653 49.18806458 C6.1168271 54.52651637 5.66368036 59.70209076 5 65 C4.67 65 4.34 65 4 65 C3.98018066 63.71536865 3.96036133 62.4307373 3.93994141 61.10717773 C3.86298087 56.27057632 3.77441548 51.43424102 3.68261719 46.59790039 C3.64469632 44.51787631 3.60978451 42.43779482 3.578125 40.35766602 C3.36730063 26.67055257 2.78601537 13.43870235 0 0 Z " fill="#FAE1D5" transform="translate(171,27)"/>
<path d="M0 0 C0.33 0 0.66 0 1 0 C3.11161731 9.41002278 3.11161731 9.41002278 4 14 C4.66 14 5.32 14 6 14 C6.84069415 15.60032137 7.67231505 17.20541171 8.5 18.8125 C8.9640625 19.70582031 9.428125 20.59914062 9.90625 21.51953125 C11 24 11 24 11 27 C11.66 27 12.32 27 13 27 C15.03435531 30.72965139 16 32.66905042 16 37 C16.66 37.33 17.32 37.66 18 38 C15.75 37.9765625 15.75 37.9765625 13 37 C11.42360006 34.43835011 10.19708005 32.10492645 9 29.375 C7.05265365 25.07658915 5.21641421 21.15150319 2.26953125 17.44140625 C-0.40238161 13.85975362 -0.52602607 11.04654744 -0.3125 6.5625 C-0.26738281 5.32628906 -0.22226563 4.09007812 -0.17578125 2.81640625 C-0.11777344 1.88699219 -0.05976562 0.95757812 0 0 Z " fill="#F3DBCC" transform="translate(90,224)"/>
<path d="M0 0 C-1.70085419 5.4118088 -4.90860584 8.37180052 -9.328125 11.8125 C-13.89010719 15.2485088 -13.89010719 15.2485088 -16.6484375 20.046875 C-16.7354563 24.53704493 -15.27541594 28.74861354 -14 33 C-14.33 33.66 -14.66 34.32 -15 35 C-15.66 35 -16.32 35 -17 35 C-17.33 35.66 -17.66 36.32 -18 37 C-20.10350314 18.03022627 -20.10350314 18.03022627 -16.375 12.875 C-14.25169764 10.72193171 -13.02990166 10.01040058 -10.125 9 C-9.42375 9 -8.7225 9 -8 9 C-7.938125 8.443125 -7.87625 7.88625 -7.8125 7.3125 C-6.59675838 3.8523123 -3.91903476 0 0 0 Z " fill="#FBE7D8" transform="translate(93,150)"/>
<path d="M0 0 C4.40544297 -0.2986741 7.0439982 -0.44873554 11.0625 1.4375 C13.32578702 4.43087961 13.19762991 5.15356628 12.8125 8.75 C12.56720908 10.17131189 12.3042656 11.59013562 12 13 C11.01 12.67 10.02 12.34 9 12 C8.67 11.34 8.34 10.68 8 10 C6.68 10 5.36 10 4 10 C2.48046875 8.3203125 2.48046875 8.3203125 1.1875 6.125 C0.74792969 5.40570313 0.30835938 4.68640625 -0.14453125 3.9453125 C-0.42683594 3.30335938 -0.70914063 2.66140625 -1 2 C-0.67 1.34 -0.34 0.68 0 0 Z " fill="#B7644D" transform="translate(129,180)"/>
<path d="M0 0 C0.33 0.99 0.66 1.98 1 3 C4.00847418 4.22520264 4.00847418 4.22520264 7 5 C7.33 8.63 7.66 12.26 8 16 C8.66 16 9.32 16 10 16 C10.28875 15.4225 10.5775 14.845 10.875 14.25 C12.4375 11.125 12.4375 11.125 14 8 C15.32 8.33 16.64 8.66 18 9 C17.01 9 16.02 9 15 9 C14.67 10.65 14.34 12.3 14 14 C13.34 14 12.68 14 12 14 C12 14.99 12 15.98 12 17 C11.34 17 10.68 17 10 17 C9.67 17.99 9.34 18.98 9 20 C8.01 20 7.02 20 6 20 C5.67 18.35 5.34 16.7 5 15 C5 20.94 5 26.88 5 33 C4.34 32.67 3.68 32.34 3 32 C3 23.42 3 14.84 3 6 C2.01 5.67 1.02 5.34 0 5 C0 3.35 0 1.7 0 0 Z " fill="#D59E86" transform="translate(125,188)"/>
<path d="M0 0 C0.99 1.485 0.99 1.485 2 3 C2.62261719 3.69867187 3.24523437 4.39734375 3.88671875 5.1171875 C6.64459035 8.87931179 8.16510563 12.78535224 9.8125 17.125 C10.13669922 17.93582031 10.46089844 18.74664062 10.79492188 19.58203125 C11.09591797 20.36191406 11.39691406 21.14179687 11.70703125 21.9453125 C11.9800708 22.65187988 12.25311035 23.35844727 12.53442383 24.08642578 C13 26 13 26 12 29 C8.42895561 27.12050295 6.45255699 25.82946843 5 22 C5.66 22 6.32 22 7 22 C7 20.35 7 18.7 7 17 C6.01 17 5.02 17 4 17 C4 16.01 4 15.02 4 14 C3.34 14 2.68 14 2 14 C1.66179834 12.4176994 1.32964061 10.83410625 1 9.25 C0.814375 8.36828125 0.62875 7.4865625 0.4375 6.578125 C0 4 0 4 0 0 Z " fill="#F9C6B8" transform="translate(100,27)"/>
<path d="M0 0 C2.77689266 2.35973614 3.56636912 4.22458689 4.3515625 7.75390625 C4.56296875 8.69169922 4.774375 9.62949219 4.9921875 10.59570312 C5.30542969 12.06426758 5.30542969 12.06426758 5.625 13.5625 C5.8415625 14.51447266 6.058125 15.46644531 6.28125 16.44726562 C7.64120357 22.61322797 8.52310283 28.70478524 9 35 C9.99 35 10.98 35 12 35 C12.36398622 37.08164018 12.71583287 39.16540562 13.0625 41.25 C13.25972656 42.41015625 13.45695312 43.5703125 13.66015625 44.765625 C13.9606216 47.62522624 13.9439206 49.33325929 13 52 C9.05068079 41.95556482 6.16321003 32.14455463 4.38183594 21.4855957 C3.4943085 16.23541187 2.26854112 11.28228348 0.5925293 6.22436523 C0 4 0 4 0 0 Z " fill="#FBE9DE" transform="translate(89,53)"/>
<path d="M0 0 C0.66 0.33 1.32 0.66 2 1 C2 3.64 2 6.28 2 9 C1.01 9 0.02 9 -1 9 C-0.90460938 9.75925781 -0.80921875 10.51851562 -0.7109375 11.30078125 C-0.60007813 12.29464844 -0.48921875 13.28851563 -0.375 14.3125 C-0.25898438 15.29863281 -0.14296875 16.28476563 -0.0234375 17.30078125 C0 20 0 20 -2 23 C-2.66 23 -3.32 23 -4 23 C-4 21.68 -4 20.36 -4 19 C-6.31 19.33 -8.62 19.66 -11 20 C-10.01 19.67 -9.02 19.34 -8 19 C-7.04237399 16.5039744 -7.04237399 16.5039744 -6.4375 13.5625 C-5.2 8.2 -5.2 8.2 -3 6 C-2.67 6.33 -2.34 6.66 -2 7 C-2.04125 6.21625 -2.0825 5.4325 -2.125 4.625 C-2 2 -2 2 0 0 Z " fill="#F9B595" transform="translate(160,135)"/>
<path d="M0 0 C0.33 0 0.66 0 1 0 C1.02753831 1.5207267 1.04663375 3.04160674 1.0625 4.5625 C1.07410156 5.40941406 1.08570313 6.25632813 1.09765625 7.12890625 C1 10 1 10 0.5 13.25390625 C0.02260282 16.83065542 -0.11426826 20.20378758 -0.09765625 23.80859375 C-0.09443359 25.04931641 -0.09121094 26.29003906 -0.08789062 27.56835938 C-0.07951172 28.84517578 -0.07113281 30.12199219 -0.0625 31.4375 C-0.05798828 32.74138672 -0.05347656 34.04527344 -0.04882812 35.38867188 C-0.03709251 38.59249552 -0.02067363 41.79622363 0 45 C-1.32 44.67 -2.64 44.34 -4 44 C-3.98259766 42.46279297 -3.98259766 42.46279297 -3.96484375 40.89453125 C-3.95545978 39.533856 -3.94636023 38.17317876 -3.9375 36.8125 C-3.92912109 36.13896484 -3.92074219 35.46542969 -3.91210938 34.77148438 C-3.89393462 31.04565869 -4.10700608 27.6211958 -5 24 C-4.34 24 -3.68 24 -3 24 C-3.0309375 22.8553125 -3.061875 21.710625 -3.09375 20.53125 C-3.09375 16.05159621 -2.39952897 11.87608689 -1.5 7.5 C-1.35691406 6.77296875 -1.21382812 6.0459375 -1.06640625 5.296875 C-0.71766302 3.52990929 -0.35980277 1.76474691 0 0 Z " fill="#F6DECB" transform="translate(179,216)"/>
<path d="M0 0 C0.70576172 0.63228516 0.70576172 0.63228516 1.42578125 1.27734375 C2.35970703 2.09912109 2.35970703 2.09912109 3.3125 2.9375 C3.92738281 3.48277344 4.54226562 4.02804688 5.17578125 4.58984375 C7.05241958 6.20081559 7.05241958 6.20081559 10 7 C9.34 6.67 8.68 6.34 8 6 C8 5.34 8 4.68 8 4 C9.65 4.33 11.3 4.66 13 5 C13 5.66 13 6.32 13 7 C13.99 7 14.98 7 16 7 C16.33 7.66 16.66 8.32 17 9 C19.52733235 9.65555119 19.52733235 9.65555119 22 10 C22 10.99 22 11.98 22 13 C16.1141231 12.52533251 10.88231039 11.52892444 5.26171875 9.71875 C3.18755704 9.05960362 1.11653376 8.50370598 -1 8 C-0.67 5.36 -0.34 2.72 0 0 Z " fill="#E3AD91" transform="translate(149,200)"/>
<path d="M0 0 C0 0.99 0 1.98 0 3 C0.66 3.33 1.32 3.66 2 4 C1 5 1 5 -2.25 5.1875 C-5.76353628 5.01182319 -7.95209933 4.70323861 -11 3 C-11.33 2.01 -11.66 1.02 -12 0 C-14.01508358 -0.73323796 -14.01508358 -0.73323796 -16 -1 C-16 -0.01 -16 0.98 -16 2 C-17.9375 1.6875 -17.9375 1.6875 -20 1 C-20.33 0.01 -20.66 -0.98 -21 -2 C-13.64917364 -4.45027545 -7.01229919 -2.78502663 0 0 Z " fill="#E3A08F" transform="translate(122,168)"/>
<path d="M0 0 C2.32767349 2.32767349 2.91208627 4.08402997 4.0234375 7.171875 C4.40314697 8.22294434 4.78285645 9.27401367 5.17407227 10.35693359 C5.57037842 11.47664551 5.96668457 12.59635742 6.375 13.75 C6.778396 14.88131348 7.18179199 16.01262695 7.59741211 17.17822266 C15 38.14095785 15 38.14095785 15 44 C14.34 44 13.68 44 13 44 C12.67 41.03 12.34 38.06 12 35 C11.34 35 10.68 35 10 35 C8.51165276 32.26316312 7.67117868 29.87221524 7.125 26.8125 C6.43374534 23.46046353 5.46254731 20.59301671 4 17.5 C1.32528078 11.80125121 0 6.29493325 0 0 Z " fill="#FBE1D2" transform="translate(113,56)"/>
<path d="M0 0 C2.35953094 2.35953094 2.49141413 3.77895617 3 7 C2.34 7 1.68 7 1 7 C1 7.66 1 8.32 1 9 C1.66 9.33 2.32 9.66 3 10 C2.34 10 1.68 10 1 10 C1.33 10.66 1.66 11.32 2 12 C2.99 12.33 3.98 12.66 5 13 C3.52307692 18.66153846 3.52307692 18.66153846 0.875 20.375 C-0.053125 20.684375 -0.053125 20.684375 -1 21 C0.98 21.66 2.96 22.32 5 23 C5 23.66 5 24.32 5 25 C1.37 24.34 -2.26 23.68 -6 23 C-4.66667905 19.00003714 -2.5042173 18.16217663 1 16 C0.24849977 12.72226496 0.24849977 12.72226496 -3 11 C-2.67 9.35 -2.34 7.7 -2 6 C-2.99 6 -3.98 6 -5 6 C-5 5.34 -5 4.68 -5 4 C-3.35 4.33 -1.7 4.66 0 5 C0 3.35 0 1.7 0 0 Z " fill="#EAB69B" transform="translate(83,166)"/>
<path d="M0 0 C0.55429688 0.30035156 1.10859375 0.60070312 1.6796875 0.91015625 C2.76636719 1.48056641 2.76636719 1.48056641 3.875 2.0625 C4.59429687 2.44535156 5.31359375 2.82820312 6.0546875 3.22265625 C6.69664063 3.47917969 7.33859375 3.73570312 8 4 C8.66 3.67 9.32 3.34 10 3 C10 5 10 7 10 9 C9.42894531 8.855625 8.85789062 8.71125 8.26953125 8.5625 C1.12431004 6.92671009 -5.69176241 6.79381148 -13 7 C-11.68 5.35 -10.36 3.7 -9 2 C-8.01 2.33 -7.02 2.66 -6 3 C-2.72554706 1.9769517 -2.72554706 1.9769517 0 0 Z " fill="#F4C1B2" transform="translate(113,159)"/>
<path d="M0 0 C3.30109027 2.63144053 3.99610533 5.58470185 5.125 9.5625 C6.30355284 13.88206393 6.30355284 13.88206393 8 18 C8.23029956 20.37123246 8.41119942 22.74741943 8.5625 25.125 C8.64628906 26.40632813 8.73007813 27.68765625 8.81640625 29.0078125 C8.87699219 29.99523437 8.93757813 30.98265625 9 32 C8.01 32 7.02 32 6 32 C5.14021384 28.0867534 4.28588196 24.17235946 3.43652344 20.25683594 C3.14699501 18.92578241 2.85599437 17.59504821 2.56347656 16.26464844 C2.1425845 14.34916006 1.72747287 12.43240443 1.3125 10.515625 C1.06113281 9.36352539 0.80976562 8.21142578 0.55078125 7.02441406 C0 4 0 4 0 0 Z " fill="#F6D4C2" transform="translate(92,56)"/>
<path d="M0 0 C1.485 0.99 1.485 0.99 3 2 C2.67 2.66 2.34 3.32 2 4 C2.66 4 3.32 4 4 4 C4.33 7.96 4.66 11.92 5 16 C5.66 16 6.32 16 7 16 C7 18.64 7 21.28 7 24 C6.01 24 5.02 24 4 24 C3.67 22.35 3.34 20.7 3 19 C2.01 18.67 1.02 18.34 0 18 C0 12.06 0 6.12 0 0 Z " fill="#F0C1A9" transform="translate(89,190)"/>
<path d="M0 0 C0.99 0.33 1.98 0.66 3 1 C2.62821531 5.27552392 1.85289144 8.43888274 0 12.3125 C-2.74240472 18.70814422 -2.63039569 25.27047648 -2.82421875 32.12109375 C-3 36 -3 36 -4 39 C-4.66 39 -5.32 39 -6 39 C-3.72961957 7.45923913 -3.72961957 7.45923913 0 0 Z " fill="#F5AE98" transform="translate(160,32)"/>
<path d="M0 0 C0.94875 0.04125 1.8975 0.0825 2.875 0.125 C2.875 1.115 2.875 2.105 2.875 3.125 C3.535 3.125 4.195 3.125 4.875 3.125 C4.545 4.115 4.215 5.105 3.875 6.125 C3.00875 5.815625 2.1425 5.50625 1.25 5.1875 C-2.0384389 4.77381615 -2.0384389 4.77381615 -3.82421875 6.44140625 C-6.7848751 9.76049558 -8.8472218 12.54165974 -9.125 17.125 C-9.785 17.125 -10.445 17.125 -11.125 17.125 C-11.125 19.765 -11.125 22.405 -11.125 25.125 C-11.455 25.125 -11.785 25.125 -12.125 25.125 C-12.91570926 13.12379064 -12.91570926 13.12379064 -9.75 9.125 C-8.88375 8.465 -8.0175 7.805 -7.125 7.125 C-5.93472016 4.52584462 -5.93472016 4.52584462 -5.125 2.125 C-3.125 0.125 -3.125 0.125 0 0 Z " fill="#FBD9C1" transform="translate(105.125,124.875)"/>
<path d="M0 0 C0.33 0 0.66 0 1 0 C0.44210432 7.01524148 -0.18447923 14.00982196 -1 21 C-3.82411765 21.94137255 -5.52918032 22.11725382 -8.44921875 22.09765625 C-9.29677734 22.09443359 -10.14433594 22.09121094 -11.01757812 22.08789062 C-12.33918945 22.07532227 -12.33918945 22.07532227 -13.6875 22.0625 C-14.58017578 22.05798828 -15.47285156 22.05347656 -16.39257812 22.04882812 C-18.59511987 22.03704983 -20.79752599 22.02060164 -23 22 C-23 21.67 -23 21.34 -23 21 C-16.30324864 19.96973056 -9.7685324 19.89847201 -3 20 C-3.33 19.01 -3.66 18.02 -4 17 C-4.06740865 15.43881572 -4.08514456 13.8749748 -4.0625 12.3125 C-4.05347656 11.50425781 -4.04445312 10.69601563 -4.03515625 9.86328125 C-4.02355469 9.24839844 -4.01195312 8.63351563 -4 8 C-3.34 8 -2.68 8 -2 8 C-1.855625 6.865625 -1.71125 5.73125 -1.5625 4.5625 C-1 1 -1 1 0 0 Z " fill="#F1AF91" transform="translate(170,96)"/>
<path d="M0 0 C0.33 0 0.66 0 1 0 C1 9.9 1 19.8 1 30 C0.34 30 -0.32 30 -1 30 C-1.12375 31.299375 -1.2475 32.59875 -1.375 33.9375 C-1.5859375 36.15234375 -1.5859375 36.15234375 -2 38 C-2.99 38.495 -2.99 38.495 -4 39 C-3.85769192 37.58297487 -3.71099254 36.1663904 -3.5625 34.75 C-3.48128906 33.96109375 -3.40007812 33.1721875 -3.31640625 32.359375 C-3 30 -3 30 -2.49780273 28.21655273 C-1.88988508 25.50969429 -1.80110801 22.9490119 -1.71875 20.17578125 C-1.68136719 19.06525391 -1.64398438 17.95472656 -1.60546875 16.81054688 C-1.53480324 14.46680749 -1.46449425 12.12305733 -1.39453125 9.77929688 C-1.33845703 8.11930664 -1.33845703 8.11930664 -1.28125 6.42578125 C-1.25095703 5.40911377 -1.22066406 4.39244629 -1.18945312 3.3449707 C-1 1 -1 1 0 0 Z " fill="#F4B69B" transform="translate(173,57)"/>
<path d="M0 0 C3.96 0.33 7.92 0.66 12 1 C12 1.99 12 2.98 12 4 C12.99 4.33 13.98 4.66 15 5 C15 5.66 15 6.32 15 7 C15.99 7.33 16.98 7.66 18 8 C11.62718321 8.39830105 6.7300864 7.96736617 1 5 C0.67 3.35 0.34 1.7 0 0 Z " fill="#D89D7D" transform="translate(154,194)"/>
<path d="M0 0 C1.28970703 0.16048828 1.28970703 0.16048828 2.60546875 0.32421875 C3.49621094 0.4325 4.38695312 0.54078125 5.3046875 0.65234375 C7.82450036 1.01627277 10.31289609 1.43303513 12.79296875 2.01171875 C13.48046875 3.82421875 13.48046875 3.82421875 13.79296875 6.01171875 C12.35546875 7.76171875 12.35546875 7.76171875 10.79296875 9.01171875 C10.15359375 8.53734375 9.51421875 8.06296875 8.85546875 7.57421875 C4.87115356 5.54140488 1.20802801 5.29066585 -3.20703125 5.01171875 C-3.53703125 4.02171875 -3.86703125 3.03171875 -4.20703125 2.01171875 C-2.20703125 0.01171875 -2.20703125 0.01171875 0 0 Z " fill="#CF8C77" transform="translate(131.20703125,174.98828125)"/>
<path d="M0 0 C0.66 0.66 1.32 1.32 2 2 C1.7248041 3.67724658 1.38046159 5.34345605 1 7 C0.93466565 8.93651019 0.91415697 10.87502861 0.9375 12.8125 C0.94652344 13.78832031 0.95554688 14.76414063 0.96484375 15.76953125 C0.97644531 16.50558594 0.98804688 17.24164063 1 18 C1.66 18.33 2.32 18.66 3 19 C1.02 18.67 -0.96 18.34 -3 18 C-5.125 5.25 -5.125 5.25 -3 1 C-2.01 0.67 -1.02 0.34 0 0 Z " fill="#F7B294" transform="translate(141,133)"/>
<path d="M0 0 C5.20833333 0.52083333 10.41666667 1.04166667 15.625 1.5625 C16.46289062 1.64628906 17.30078125 1.73007813 18.1640625 1.81640625 C18.76992187 1.87699219 19.37578125 1.93757812 20 2 C20 2.66 20 3.32 20 4 C19.34 4 18.68 4 18 4 C18 4.66 18 5.32 18 6 C18.99 6.66 19.98 7.32 21 8 C19.35 8 17.7 8 16 8 C16 7.01 16 6.02 16 5 C15.34773437 5.03480469 14.69546875 5.06960937 14.0234375 5.10546875 C8.51434628 5.27610432 4.80761576 5.0363889 0 2 C0 1.34 0 0.68 0 0 Z " fill="#E1A988" transform="translate(150,190)"/>
<path d="M0 0 C0.33 0 0.66 0 1 0 C1.27838983 21.74533898 1.27838983 21.74533898 -3 29 C-3.66 29 -4.32 29 -5 29 C-4.34 23.06 -3.68 17.12 -3 11 C-2.34 11 -1.68 11 -1 11 C-0.67 7.37 -0.34 3.74 0 0 Z " fill="#EBC6B4" transform="translate(151,82)"/>
<path d="M0 0 C3.00617269 3.00617269 2.59585316 5.82381598 3 10 C3.99 10 4.98 10 6 10 C6.12375 10.7425 6.2475 11.485 6.375 12.25 C6.9569895 14.81075381 7.80421396 16.68814698 9 19 C9 19.66 9 20.32 9 21 C10.32 21 11.64 21 13 21 C13 21.66 13 22.32 13 23 C11.02 23 9.04 23 7 23 C4 16.375 4 16.375 4 13 C3.34 13 2.68 13 2 13 C1.27503542 11.4032805 0.57049603 9.79727392 -0.125 8.1875 C-0.51945312 7.29417969 -0.91390625 6.40085938 -1.3203125 5.48046875 C-1.54460937 4.66191406 -1.76890625 3.84335938 -2 3 C-1.34 2.01 -0.68 1.02 0 0 Z " fill="#ECBEA5" transform="translate(99,238)"/>
<path d="M0 0 C4.38393416 0.4871038 7.57967146 2.21724977 11.375 4.375 C11.045 6.025 10.715 7.675 10.375 9.375 C6.83256548 8.00908831 3.44872071 6.46568516 0.0625 4.75 C-0.82050781 4.30398437 -1.70351562 3.85796875 -2.61328125 3.3984375 C-3.27714844 3.06070313 -3.94101563 2.72296875 -4.625 2.375 C-2.625 0.375 -2.625 0.375 0 0 Z " fill="#D5A787" transform="translate(156.625,215.625)"/>
<path d="M0 0 C2 1 2 1 2.78125 3.3359375 C4.40294674 10.19289436 5.83706401 17.04974729 7 24 C7.99 24.33 8.98 24.66 10 25 C9.67 26.65 9.34 28.3 9 30 C6.2289312 27.65408148 5.47940716 25.85223799 4.8125 22.3125 C4.57466797 21.10013672 4.57466797 21.10013672 4.33203125 19.86328125 C4.22246094 19.24839844 4.11289063 18.63351563 4 18 C3.34 18 2.68 18 2 18 C1.34 12.06 0.68 6.12 0 0 Z " fill="#F6D5C2" transform="translate(101,88)"/>
<path d="M0 0 C0.9075 0.28875 1.815 0.5775 2.75 0.875 C8.0668576 2.40976302 13.53953576 3.15716972 19 4 C19.33 3.34 19.66 2.68 20 2 C20.33 4.31 20.66 6.62 21 9 C18.69 9 16.38 9 14 9 C14.99 8.67 15.98 8.34 17 8 C17 7.34 17 6.68 17 6 C16.1646875 6.06960937 16.1646875 6.06960937 15.3125 6.140625 C9.05118604 6.43676823 5.40544025 5.14498342 0 2 C0 1.34 0 0.68 0 0 Z " fill="#E8B393" transform="translate(156,199)"/>
<path d="M0 0 C2.3125 0.5 2.3125 0.5 5 2 C5.68927123 3.93652392 6.37217864 5.87613936 6.9921875 7.8359375 C9.49006696 13.19960115 15.37162527 16.55201614 20 20 C13.57666891 19.22002408 9.74222519 15.08919746 5 11 C4.41992188 10.52820313 3.83984375 10.05640625 3.2421875 9.5703125 C0.62283814 7.28025277 0.02022714 6.21440766 -0.3125 2.6875 C-0.209375 1.800625 -0.10625 0.91375 0 0 Z " fill="#D89D84" transform="translate(143,189)"/>
<path d="M0 0 C0.99 0 1.98 0 3 0 C4.0076952 1.7664657 5.00591714 3.53833823 6 5.3125 C6.8353125 6.79169922 6.8353125 6.79169922 7.6875 8.30078125 C9 11 9 11 9 14 C7.25 13.875 7.25 13.875 5 13 C2.74744924 10.03950471 1.17732107 7.5319632 0 4 C-0.66 4 -1.32 4 -2 4 C-2 3.34 -2 2.68 -2 2 C-1.34 2 -0.68 2 0 2 C0 1.34 0 0.68 0 0 Z " fill="#A84B32" transform="translate(109,174)"/>
<path d="M0 0 C0.66 1.32 1.32 2.64 2 4 C1.34 4 0.68 4 0 4 C-0.34919962 10.80292589 0.06343673 16.39336042 2.44140625 22.80859375 C3.06943907 25.27241482 2.81746535 26.62339544 2 29 C1.89042969 28.36191406 1.78085938 27.72382813 1.66796875 27.06640625 C1.50941406 26.24011719 1.35085937 25.41382813 1.1875 24.5625 C0.96126953 23.32693359 0.96126953 23.32693359 0.73046875 22.06640625 C0.48941406 21.38449219 0.24835938 20.70257813 0 20 C-0.99 19.67 -1.98 19.34 -3 19 C-4.21883004 11.58819569 -3.60871441 6.70189819 0 0 Z " fill="#E3A38B" transform="translate(97,157)"/>
<path d="M0 0 C3.44428265 1.44781793 5.36130962 3.27694609 7.75 6.125 C8.36359375 6.84945312 8.9771875 7.57390625 9.609375 8.3203125 C10.29773438 9.15175781 10.29773438 9.15175781 11 10 C7.66688525 11.7824918 4.75519057 12.48792856 1 13 C1.99 10.69 2.98 8.38 4 6 C2.68 5.67 1.36 5.34 0 5 C0 3.35 0 1.7 0 0 Z " fill="#D88870" transform="translate(84,173)"/>
<path d="M0 0 C5.47035213 3.79037089 9.89962427 7.75027653 14 13 C11 13 11 13 8.5625 10.625 C7.2940625 9.325625 7.2940625 9.325625 6 8 C3.83379456 6.70480005 3.83379456 6.70480005 2 6 C1.67 7.98 1.34 9.96 1 12 C-0.32 12 -1.64 12 -3 12 C-3 11.34 -3 10.68 -3 10 C-2.01 10 -1.02 10 0 10 C-0.185625 8.72125 -0.37125 7.4425 -0.5625 6.125 C-1.125 2.25 -1.125 2.25 0 0 Z " fill="#CD8C75" transform="translate(142,184)"/>
<path d="M0 0 C0.66 0 1.32 0 2 0 C3.0064275 1.66279327 4.00585407 3.32983484 5 5 C5.99 5.66 6.98 6.32 8 7 C8 7.99 8 8.98 8 10 C9.32 10 10.64 10 12 10 C12.12375 10.61875 12.2475 11.2375 12.375 11.875 C12.87197356 14.19120832 12.87197356 14.19120832 15 16 C12.69 16 10.38 16 8 16 C7.17361624 13.10765685 7 11.11257569 7 8 C5.824375 8.0928125 5.824375 8.0928125 4.625 8.1875 C3.325625 8.0946875 3.325625 8.0946875 2 8 C-0.1519437 4.77208445 -0.20086443 3.71599191 0 0 Z " fill="#E7B394" transform="translate(152,176)"/>
<path d="M0 0 C8.03141361 -0.30890052 8.03141361 -0.30890052 11 2 C13.04280202 6.07063846 13.37189822 9.79885157 13.625 14.3125 C13.69976562 15.56675781 13.77453125 16.82101563 13.8515625 18.11328125 C13.90054688 19.06589844 13.94953125 20.01851562 14 21 C13.34 21 12.68 21 12 21 C11.96261719 20.09636719 11.92523438 19.19273438 11.88671875 18.26171875 C11.82097656 17.08222656 11.75523437 15.90273438 11.6875 14.6875 C11.62949219 13.51574219 11.57148438 12.34398437 11.51171875 11.13671875 C10.96249507 7.77010334 10.45823496 7.14189373 8 5 C8 4.01 8 3.02 8 2 C3.39257135 3.21044132 3.39257135 3.21044132 -1 5 C-0.67 3.35 -0.34 1.7 0 0 Z " fill="#FAC3B2" transform="translate(160,25)"/>
<path d="M0 0 C1.17369141 -0.02513672 1.17369141 -0.02513672 2.37109375 -0.05078125 C5.02377163 0.38896749 5.885467 1.26878454 7.5625 3.3125 C7.2325 3.9725 6.9025 4.6325 6.5625 5.3125 C5.9025 4.6525 5.2425 3.9925 4.5625 3.3125 C2.35999008 2.85243654 2.35999008 2.85243654 -0.0625 2.6875 C-1.50625 2.56375 -2.95 2.44 -4.4375 2.3125 C-5.7575 7.5925 -7.0775 12.8725 -8.4375 18.3125 C-8.7675 18.3125 -9.0975 18.3125 -9.4375 18.3125 C-9.762965 12.21304478 -9.88624186 7.6182567 -6.4375 2.3125 C-4.02263057 -0.10236943 -3.31042211 0.0163075 0 0 Z " fill="#FCEAE3" transform="translate(163.4375,21.6875)"/>
<path d="M0 0 C2.044612 3.94318028 3.69255225 7.81750866 4.8125 12.125 C5.70790957 15.4591267 7.11677141 18.39857219 8.625 21.5 C10.7465252 26.0105741 11.54838481 29.06453672 11 34 C9.12146081 31.18219121 8.42510156 29.33173349 7.5625 26.125 C6.74636348 23.27467396 6.05900393 21.09588138 4.5 18.5625 C1.25569372 13.02014343 -0.24332895 6.3960752 0 0 Z " fill="#F7C0AB" transform="translate(88,38)"/>
<path d="M0 0 C0.33 0 0.66 0 1 0 C1.65328389 11.2872939 -0.23736052 21.12210704 -3 32 C-3.33 32 -3.66 32 -4 32 C-4.2423143 24.73814324 -3.33148158 18.067224 -2 10.9375 C-1.71382812 9.35291992 -1.71382812 9.35291992 -1.421875 7.73632812 C-0.95488272 5.1561958 -0.48080032 2.57758842 0 0 Z " fill="#F6DDD1" transform="translate(153,61)"/>
<path d="M0 0 C0.66 0 1.32 0 2 0 C2 0.66 2 1.32 2 2 C6.07320083 2.91470875 6.07320083 2.91470875 10.125 2.375 C10.74375 2.25125 11.3625 2.1275 12 2 C13.32 2.99 14.64 3.98 16 5 C9.07 5 2.14 5 -5 5 C-5 4.01 -5 3.02 -5 2 C-3.35 2 -1.7 2 0 2 C0 1.34 0 0.68 0 0 Z " fill="#C89576" transform="translate(120,256)"/>
<path d="M0 0 C4.75 1.875 4.75 1.875 7 3 C7 3.99 7 4.98 7 6 C6.34 6 5.68 6 5 6 C5 6.66 5 7.32 5 8 C5.66 8 6.32 8 7 8 C6.67 8.66 6.34 9.32 6 10 C5.38125 9.79375 4.7625 9.5875 4.125 9.375 C3.42375 9.25125 2.7225 9.1275 2 9 C1.34 9.66 0.68 10.32 0 11 C-0.19491452 9.54263913 -0.38069358 8.08405407 -0.5625 6.625 C-0.66691406 5.81289062 -0.77132812 5.00078125 -0.87890625 4.1640625 C-1 2 -1 2 0 0 Z " fill="#AF5A3F" transform="translate(102,170)"/>
<path d="M0 0 C0.33 0 0.66 0 1 0 C1.05849554 3.20825562 1.09376162 6.41637233 1.125 9.625 C1.14175781 10.52863281 1.15851563 11.43226562 1.17578125 12.36328125 C1.21201643 17.32750152 0.96444146 21.34411907 -1 26 C-2.32 25.67 -3.64 25.34 -5 25 C-4.01 25 -3.02 25 -2 25 C-2.20625 24.195625 -2.4125 23.39125 -2.625 22.5625 C-3.03456012 18.67167886 -2.42261061 15.98613728 -1.4765625 12.24609375 C-0.82030131 9.15305944 -0.93700271 6.1498647 -1 3 C-0.67 2.01 -0.34 1.02 0 0 Z " fill="#F5BEA4" transform="translate(171,92)"/>
<path d="M0 0 C0.763125 0.20625 1.52625 0.4125 2.3125 0.625 C2.3125 1.285 2.3125 1.945 2.3125 2.625 C2.9725 2.625 3.6325 2.625 4.3125 2.625 C4.6425 1.635 4.9725 0.645 5.3125 -0.375 C5.6425 0.945 5.9725 2.265 6.3125 3.625 C4.9925 3.955 3.6725 4.285 2.3125 4.625 C1.9825 6.275 1.6525 7.925 1.3125 9.625 C-0.0075 9.625 -1.3275 9.625 -2.6875 9.625 C-2.18146008 7.45625748 -1.68766187 5.62532373 -0.6875 3.625 C-3.1625 2.635 -3.1625 2.635 -5.6875 1.625 C-2.6875 -0.375 -2.6875 -0.375 0 0 Z " fill="#E98B6D" transform="translate(162.6875,77.375)"/>
<path d="M0 0 C0.33 0 0.66 0 1 0 C1 2.31 1 4.62 1 7 C1.66 7 2.32 7 3 7 C3.33 9.64 3.66 12.28 4 15 C4.66 15 5.32 15 6 15 C6.66 18.96 7.32 22.92 8 27 C6 26 6 26 5.25390625 23.85546875 C4.79502982 22.08477607 4.33669154 20.31394384 3.87890625 18.54296875 C3.1482287 15.95278649 3.1482287 15.95278649 1.4140625 14.06640625 C-0.53453865 11.21886479 -0.29865457 9.15874 -0.1875 5.75 C-0.14689453 4.13351563 -0.14689453 4.13351563 -0.10546875 2.484375 C-0.07066406 1.66453125 -0.03585938 0.8446875 0 0 Z " fill="#F2B9A0" transform="translate(100,74)"/>
<path d="M0 0 C2.46751239 3.70126859 2.30721156 5.62223532 2 10 C1.1875 12.375 1.1875 12.375 0 14 C-0.99 14.33 -1.98 14.66 -3 15 C-3 13.35 -3 11.7 -3 10 C-3.99 10 -4.98 10 -6 10 C-6 9.34 -6 8.68 -6 8 C-4.35 7.67 -2.7 7.34 -1 7 C-1.020625 6.030625 -1.04125 5.06125 -1.0625 4.0625 C-1 1 -1 1 0 0 Z " fill="#E7BC9B" transform="translate(173,228)"/>
<path d="M0 0 C4.99791167 2.66257794 10.08706407 4.79858397 15.375 6.8125 C12.61805224 7.89817155 11.46676226 7.8431737 8.60546875 6.88671875 C7.60128906 6.42910156 6.59710938 5.97148437 5.5625 5.5 C1.18789676 3.57239025 -2.99282547 1.97054363 -7.625 0.8125 C-7.625 1.4725 -7.625 2.1325 -7.625 2.8125 C-8.285 2.8125 -8.945 2.8125 -9.625 2.8125 C-9.295 1.4925 -8.965 0.1725 -8.625 -1.1875 C-4.96804958 -2.54841991 -3.34552072 -1.85801721 0 0 Z " fill="#E2AF8D" transform="translate(148.625,227.1875)"/>
<path d="M0 0 C1.65 0.33 3.3 0.66 5 1 C5.68359375 2.765625 5.68359375 2.765625 6 5 C4.78515625 6.921875 4.78515625 6.921875 3.0625 8.75 C2.49660156 9.36359375 1.93070312 9.9771875 1.34765625 10.609375 C0.68056641 11.29773438 0.68056641 11.29773438 0 12 C-0.66 11.67 -1.32 11.34 -2 11 C-1.34 7.37 -0.68 3.74 0 0 Z " fill="#D18F72" transform="translate(110,203)"/>
<path d="M0 0 C0.66 0 1.32 0 2 0 C2.66 1.65 3.32 3.3 4 5 C5.32 5 6.64 5 8 5 C9.42944945 7.35438733 10.08661261 8.48032433 9.625 11.25 C9.41875 11.8275 9.2125 12.405 9 13 C8.67 12.67 8.34 12.34 8 12 C7.34 12.66 6.68 13.32 6 14 C4.02 9.38 2.04 4.76 0 0 Z " fill="#BC7061" transform="translate(114,178)"/>
<path d="M0 0 C0.9590625 0.495 0.9590625 0.495 1.9375 1 C0.4375 2.125 0.4375 2.125 -2.0625 3 C-4.8398082 2.57598348 -7.35889783 1.81108065 -10.0625 1 C-10.0625 1.99 -10.0625 2.98 -10.0625 4 C-12 3.6875 -12 3.6875 -14.0625 3 C-14.3925 2.01 -14.7225 1.02 -15.0625 0 C-10.06597926 -1.66550691 -5.00477317 -1.63421165 0 0 Z " fill="#EDAB96" transform="translate(116.0625,166)"/>
<path d="M0 0 C2.56018571 0.99622289 3.7772565 1.62293748 5.1953125 4.0234375 C5.65550781 5.18746094 5.65550781 5.18746094 6.125 6.375 C7.31613334 9.31837909 8.5432854 12.17680976 10 15 C3.79294086 12.71318874 3.79294086 12.71318874 2.1484375 9.16015625 C1.89320312 8.46792969 1.63796875 7.77570313 1.375 7.0625 C0.98441406 6.02802734 0.98441406 6.02802734 0.5859375 4.97265625 C0 3 0 3 0 0 Z " fill="#DD9883" transform="translate(100,186)"/>
<path d="M0 0 C0.99 0.33 1.98 0.66 3 1 C3 1.66 3 2.32 3 3 C3.99 3.33 4.98 3.66 6 4 C6 4.99 6 5.98 6 7 C1.25 6.125 1.25 6.125 -1 5 C-0.67 6.98 -0.34 8.96 0 11 C-1.32 10.34 -2.64 9.68 -4 9 C-2.80100302 5.9168649 -1.52299523 2.93720508 0 0 Z " fill="#CC8373" transform="translate(112,190)"/>
<path d="M0 0 C0.33 0 0.66 0 1 0 C3.28612778 7.15775723 4.44032071 13.48193151 4 21 C3.34 20.67 2.68 20.34 2 20 C1.40234375 17.890625 1.40234375 17.890625 0.9375 15.25 C0.78152344 14.38890625 0.62554687 13.5278125 0.46484375 12.640625 C0.31144531 11.76921875 0.15804687 10.8978125 0 10 C-0.19335938 9.12472656 -0.38671875 8.24945313 -0.5859375 7.34765625 C-1.06471884 4.63305636 -0.68156047 2.65051293 0 0 Z " fill="#F7B59B" transform="translate(112,65)"/>
<path d="M0 0 C0.99 0.33 1.98 0.66 3 1 C3.95024979 4.69541586 3.95024979 7.30458414 3 11 C2.34 10.34 1.68 9.68 1 9 C0.67 9.33 0.34 9.66 0 10 C-1.99958364 10.04080783 -4.00045254 10.04254356 -6 10 C-5.195625 9.46375 -4.39125 8.9275 -3.5625 8.375 C-0.53491576 5.56894631 -0.27489191 4.03174806 0 0 Z " fill="#F0B7A0" transform="translate(96,149)"/>
<path d="M0 0 C3.14166231 3.62426706 4.60604186 7.62939929 6.25 12.0625 C6.53101562 12.78244141 6.81203125 13.50238281 7.1015625 14.24414062 C9.12265181 19.63204456 9.12265181 19.63204456 8 23 C4.75857142 18.78614284 3.39269365 15.38607529 2.4921875 10.1484375 C2.08487052 7.95505464 2.08487052 7.95505464 0.9453125 5.9765625 C0 4 0 4 0 0 Z " fill="#FEEBE3" transform="translate(104,33)"/>
<path d="M0 0 C3.34252724 -0.07427838 5.8035914 -0.06546953 9 1 C11.39254576 1.22560676 13.78928123 1.40848595 16.1875 1.5625 C18.09595703 1.68818359 18.09595703 1.68818359 20.04296875 1.81640625 C21.01878906 1.87699219 21.99460938 1.93757813 23 2 C23 2.33 23 2.66 23 3 C14.75 3 6.5 3 -2 3 C-1.34 2.67 -0.68 2.34 0 2 C0 1.34 0 0.68 0 0 Z " fill="#E7C3A9" transform="translate(154,258)"/>
<path d="M0 0 C3.51705958 0.65271556 6.89325077 1.51393024 10.3125 2.5625 C11.19550781 2.83191406 12.07851562 3.10132813 12.98828125 3.37890625 C13.65214844 3.58386719 14.31601563 3.78882813 15 4 C15 4.66 15 5.32 15 6 C15.99 6 16.98 6 18 6 C18.33 6.99 18.66 7.98 19 9 C14.44684052 8.38188466 10.71540233 6.53234107 6.6875 4.4375 C6.04232422 4.10814453 5.39714844 3.77878906 4.73242188 3.43945312 C3.15214772 2.63175745 1.57567895 1.81662387 0 1 C0 0.67 0 0.34 0 0 Z " fill="#BE8C6A" transform="translate(149,224)"/>
<path d="M0 0 C1.65 0.33 3.3 0.66 5 1 C5.33 1.99 5.66 2.98 6 4 C8.00016466 5.20882096 8.00016466 5.20882096 10 6 C3.72307692 7.35384615 3.72307692 7.35384615 0.0625 5.5625 C-0.618125 5.046875 -1.29875 4.53125 -2 4 C-1.34 3.67 -0.68 3.34 0 3 C0 2.01 0 1.02 0 0 Z " fill="#E5977E" transform="translate(106,167)"/>
<path d="M0 0 C2.25 1.9375 2.25 1.9375 4 4 C4.33 2.68 4.66 1.36 5 0 C5 1.65 5 3.3 5 5 C4.01 5 3.02 5 2 5 C2 5.99 2 6.98 2 8 C0.625 9.6875 0.625 9.6875 -1 11 C-1.66 11 -2.32 11 -3 11 C-2.34 8.03 -1.68 5.06 -1 2 C-1.99 1.67 -2.98 1.34 -4 1 C-2.25 0.25 -2.25 0.25 0 0 Z " fill="#BC785D" transform="translate(137,189)"/>
<path d="M0 0 C0.33 0.66 0.66 1.32 1 2 C1.78375 2.226875 2.5675 2.45375 3.375 2.6875 C7.23954812 4.61977406 7.59182056 6.99780579 9 11 C5.80781657 10.14875108 3.52600169 9.5084683 1.125 7.1875 C-0.20193689 4.60734493 -0.23861338 2.86336051 0 0 Z " fill="#C7897E" transform="translate(123,182)"/>
<path d="M0 0 C3.21616681 2.60050059 3.98200106 5.4110036 5.125 9.3125 C5.45757812 10.42238281 5.79015625 11.53226563 6.1328125 12.67578125 C6.94188052 15.77720865 7.53021264 18.83133217 8 22 C5.16625119 18.79663178 4.4794463 16.21912747 4 12 C3.34 12 2.68 12 2 12 C0.86235649 7.73383684 0 4.43513689 0 0 Z " fill="#F4CAB7" transform="translate(92,56)"/>
<path d="M0 0 C2.475 0.99 2.475 0.99 5 2 C5 2.66 5 3.32 5 4 C4.34 4 3.68 4 3 4 C2.67 4.99 2.34 5.98 2 7 C1.236875 6.95875 0.47375 6.9175 -0.3125 6.875 C-3.22718416 6.77919176 -3.22718416 6.77919176 -6 9 C-6.33 8.01 -6.66 7.02 -7 6 C-6.030625 5.566875 -5.06125 5.13375 -4.0625 4.6875 C-0.72268235 3.2985139 -0.72268235 3.2985139 0 0 Z " fill="#C99369" transform="translate(164,237)"/>
<path d="M0 0 C5.05255964 0.63156995 9.29593201 2.13459373 14 4 C14 4.33 14 4.66 14 5 C4.9751434 6.52963671 4.9751434 6.52963671 1 4 C0.1875 1.875 0.1875 1.875 0 0 Z " fill="#CC997B" transform="translate(154,209)"/>
<path d="M0 0 C1.32 0 2.64 0 4 0 C4 0.66 4 1.32 4 2 C4.99 1.67 5.98 1.34 7 1 C7 1.66 7 2.32 7 3 C7.99 3.33 8.98 3.66 10 4 C8.35 5.32 6.7 6.64 5 8 C4.67 7.01 4.34 6.02 4 5 C1.99983534 3.79117904 1.99983534 3.79117904 0 3 C0 2.01 0 1.02 0 0 Z " fill="#CF8879" transform="translate(112,173)"/>
<path d="M0 0 C-1.66736408 2.04470249 -2.52497566 2.92566921 -5.17651367 3.34057617 C-5.99869385 3.32486572 -6.82087402 3.30915527 -7.66796875 3.29296875 C-8.56064453 3.28330078 -9.45332031 3.27363281 -10.37304688 3.26367188 C-11.76620117 3.2259668 -11.76620117 3.2259668 -13.1875 3.1875 C-14.12787109 3.17396484 -15.06824219 3.16042969 -16.03710938 3.14648438 C-18.35865038 3.11113096 -20.67903653 3.06178674 -23 3 C-22.34 2.01 -21.68 1.02 -21 0 C-17.84765625 -0.2578125 -17.84765625 -0.2578125 -14.0625 -0.125 C-9.17441969 0.02664675 -4.58299256 -1.42230804 0 0 Z " fill="#ECB59B" transform="translate(143,169)"/>
<path d="M0 0 C0.99 0.33 1.98 0.66 3 1 C3.625 3.3125 3.625 3.3125 4 6 C3.01 7.485 3.01 7.485 2 9 C1.34 9 0.68 9 0 9 C0 7.68 0 6.36 0 5 C-2.31 5.33 -4.62 5.66 -7 6 C-6.01 5.67 -5.02 5.34 -4 5 C-4 4.34 -4 3.68 -4 3 C-3.01 2.67 -2.02 2.34 -1 2 C-0.67 1.34 -0.34 0.68 0 0 Z " fill="#F5BEA1" transform="translate(156,149)"/>
<path d="M0 0 C0.33 0.66 0.66 1.32 1 2 C-2.18824568 3.59412284 -5.62896662 3.10174735 -9.125 3.0625 C-9.87910156 3.05798828 -10.63320312 3.05347656 -11.41015625 3.04882812 C-13.27347127 3.03703499 -15.13674555 3.01909942 -17 3 C-11.27901246 0.04335518 -6.34551212 -0.10755105 0 0 Z " fill="#DAB193" transform="translate(153,258)"/>
<path d="M0 0 C0.33 0 0.66 0 1 0 C1 2.64 1 5.28 1 8 C0.67 8 0.34 8 0 8 C-0.01417969 8.61488281 -0.02835937 9.22976562 -0.04296875 9.86328125 C-0.18882744 12.33499473 -0.39493183 14.59677148 -1 17 C-3.5625 19.0625 -3.5625 19.0625 -6 20 C-5.71125 19.38125 -5.4225 18.7625 -5.125 18.125 C-3.58288195 13.84133876 -2.81601453 9.47071788 -2 5 C-1.34 5 -0.68 5 0 5 C0 3.35 0 1.7 0 0 Z " fill="#FCD1B8" transform="translate(96,137)"/>
<path d="M0 0 C1.32 0.33 2.64 0.66 4 1 C3.67 1.99 3.34 2.98 3 4 C2.34 3.67 1.68 3.34 1 3 C-1.475 8.94 -1.475 8.94 -4 15 C-4.66 13.68 -5.32 12.36 -6 11 C-5.67 10.34 -5.34 9.68 -5 9 C-4.34 9 -3.68 9 -3 9 C-2.87625 8.2575 -2.7525 7.515 -2.625 6.75 C-2.04513299 4.19858515 -1.26291261 2.2732427 0 0 Z " fill="#F8AF8E" transform="translate(137,129)"/>
<path d="M0 0 C2.29013653 3.4352048 2.17842973 4.985331 2 9 C2.99 9 3.98 9 5 9 C5.33 11.31 5.66 13.62 6 16 C5.01 16 4.02 16 3 16 C3 14.02 3 12.04 3 10 C2.01 10.33 1.02 10.66 0 11 C-1.05404945 7.01803543 -0.84098656 4.01804691 0 0 Z " fill="#F8D2BB" transform="translate(124,91)"/>
<path d="M0 0 C1.18904232 3.56712695 0.78762907 4.01581686 -0.8125 7.25 C-2.6486904 11.13204961 -3.93889057 14.84398806 -5 19 C-5.66 19 -6.32 19 -7 19 C-6.41249992 14.5470164 -5.26681981 10.81179158 -3.5 6.6875 C-3.0565625 5.63949219 -2.613125 4.59148437 -2.15625 3.51171875 C-1 1 -1 1 0 0 Z " fill="#DD8C69" transform="translate(138,131)"/>
<path d="M0 0 C0.103125 0.639375 0.20625 1.27875 0.3125 1.9375 C0.539375 2.618125 0.76625 3.29875 1 4 C1.99 4.33 2.98 4.66 4 5 C3.67 5.99 3.34 6.98 3 8 C1.35 8 -0.3 8 -2 8 C-2.33 6.02 -2.66 4.04 -3 2 C-2.01 1.34 -1.02 0.68 0 0 Z " fill="#EFB092" transform="translate(127,143)"/>
<path d="M0 0 C0.99 0 1.98 0 3 0 C3.33 3.63 3.66 7.26 4 11 C4.99 11 5.98 11 7 11 C6.67 13.97 6.34 16.94 6 20 C5.67 20 5.34 20 5 20 C4.87625 19.195625 4.7525 18.39125 4.625 17.5625 C4.41875 16.716875 4.2125 15.87125 4 15 C3.34 14.67 2.68 14.34 2 14 C2 10.04 2 6.08 2 2 C1.34 2 0.68 2 0 2 C0 1.34 0 0.68 0 0 Z " fill="#E9B095" transform="translate(91,192)"/>
<path d="M0 0 C0.99 0.33 1.98 0.66 3 1 C3 1.66 3 2.32 3 3 C3.66 3.33 4.32 3.66 5 4 C4.01 4 3.02 4 2 4 C1.67 5.98 1.34 7.96 1 10 C-1.475 9.01 -1.475 9.01 -4 8 C-2.68 5.36 -1.36 2.72 0 0 Z " fill="#D48D71" transform="translate(105,199)"/>
<path d="M0 0 C1.2065625 0.0309375 1.2065625 0.0309375 2.4375 0.0625 C2.4375 2.0425 2.4375 4.0225 2.4375 6.0625 C1.1175 6.0625 -0.2025 6.0625 -1.5625 6.0625 C-2.2225 4.4125 -2.8825 2.7625 -3.5625 1.0625 C-2.5625 0.0625 -2.5625 0.0625 0 0 Z " fill="#A84E34" transform="translate(134.5625,180.9375)"/>
<path d="M0 0 C3.68548192 3.68548192 5 7.86850209 5 13 C3.68 12.67 2.36 12.34 1 12 C0.67 8.04 0.34 4.08 0 0 Z " fill="#F1BD9E" transform="translate(130,218)"/>
<path d="M0 0 C3.7900218 1.8950109 7.13818589 3.83694229 10 7 C4.70558305 7.50423019 2.18586481 6.18923033 -2 3 C-1.34 2.67 -0.68 2.34 0 2 C0 1.34 0 0.68 0 0 Z " fill="#CA9676" transform="translate(148,223)"/>
<path d="M0 0 C0.99 0 1.98 0 3 0 C4.37432457 3.81756824 3.67975039 7.07255329 3 11 C2.01 10.67 1.02 10.34 0 10 C0.04125 9.21625 0.0825 8.4325 0.125 7.625 C0.28728734 4.83883881 0.28728734 4.83883881 -2 3 C-1.34 2.67 -0.68 2.34 0 2 C0 1.34 0 0.68 0 0 Z " fill="#DFB594" transform="translate(167,215)"/>
<path d="M0 0 C3.40136289 1.37912403 4.69605565 2.62611859 6.25 5.9375 C6.58515625 6.62714844 6.9203125 7.31679687 7.265625 8.02734375 C8 10 8 10 8 13 C7.01 12.67 6.02 12.34 5 12 C4.67 10.02 4.34 8.04 4 6 C3.34 6 2.68 6 2 6 C1.34 4.02 0.68 2.04 0 0 Z " fill="#933522" transform="translate(110,175)"/>
<path d="M0 0 C1.9375 0.75 1.9375 0.75 4 2 C4.75 4.125 4.75 4.125 5 6 C3.02 6.99 1.04 7.98 -1 9 C-1.125 2.25 -1.125 2.25 0 0 Z " fill="#F6CEB7" transform="translate(80,177)"/>
<path d="M0 0 C0.99 0.33 1.98 0.66 3 1 C2.38983051 6.49152542 2.38983051 6.49152542 0.5625 8.875 C-1 10 -1 10 -3 10 C-3 8.35 -3 6.7 -3 5 C-1.68 5 -0.36 5 1 5 C0.67 3.35 0.34 1.7 0 0 Z " fill="#EA9573" transform="translate(152,143)"/>
<path d="M0 0 C0.33 0 0.66 0 1 0 C1.0272415 1.41655793 1.04650467 2.83327045 1.0625 4.25 C1.07410156 5.03890625 1.08570312 5.8278125 1.09765625 6.640625 C1.00385306 8.90691002 0.63241063 10.8288895 0 13 C-0.66 13 -1.32 13 -2 13 C-2.16682272 8.07872966 -2.24828052 4.49656104 0 0 Z " fill="#F1C5AE" transform="translate(91,195)"/>
<path d="M0 0 C4.87664009 -0.34833144 7.77050005 0.58314288 12 3 C12 3.66 12 4.32 12 5 C7.25081338 4.53439347 3.89217595 3.83067342 0 1 C0 0.67 0 0.34 0 0 Z " fill="#CA9A7E" transform="translate(154,216)"/>
<path d="M0 0 C2.02558881 3.34939881 2.21738987 5.86962551 2.125 9.75 C2.10695313 10.73484375 2.08890625 11.7196875 2.0703125 12.734375 C2.04710938 13.48203125 2.02390625 14.2296875 2 15 C0 14 0 14 -0.625 12.375 C-1.3069409 8.05604097 -1.38635713 4.15907138 0 0 Z " fill="#E6B090" transform="translate(124,216)"/>
<path d="M0 0 C3.36720387 1.39332574 4.9859524 2.9789286 7 6 C6.01 6.66 5.02 7.32 4 8 C4 7.34 4 6.68 4 6 C2.68 5.67 1.36 5.34 0 5 C0 3.35 0 1.7 0 0 Z " fill="#D89C84" transform="translate(84,173)"/>
<path d="M0 0 C2.7206656 1.3603328 3.27954134 3.28652495 4.40234375 6.01171875 C5.30882659 9.02740349 5.1907853 11.88384016 5 15 C3.12118931 12.18178397 2.30990783 10.14357281 1.375 6.9375 C0.98441406 5.62072266 0.98441406 5.62072266 0.5859375 4.27734375 C0 2 0 2 0 0 Z " fill="#F0B9A1" transform="translate(94,57)"/>
<path d="M0 0 C0.99 0.495 0.99 0.495 2 1 C2.484375 2.9609375 2.484375 2.9609375 2.75 5.375 C2.84796875 6.16648437 2.9459375 6.95796875 3.046875 7.7734375 C3 10 3 10 1 13 C0 12 0 12 -0.09765625 9.27734375 C-0.08605469 8.17519531 -0.07445313 7.07304688 -0.0625 5.9375 C-0.05347656 4.83277344 -0.04445313 3.72804687 -0.03515625 2.58984375 C-0.02355469 1.73519531 -0.01195313 0.88054688 0 0 Z " fill="#FBBFA6" transform="translate(110,54)"/>
<path d="M0 0 C3.65882521 3.3621637 6.14420341 6.36050852 8 11 C7.67 11.66 7.34 12.32 7 13 C5 10 5 10 5 7 C4.01 6.67 3.02 6.34 2 6 C2 5.34 2 4.68 2 4 C1.34 4 0.68 4 0 4 C0 2.68 0 1.36 0 0 Z " fill="#FBE1DB" transform="translate(96,20)"/>
<path d="M0 0 C3 1 3 1 4.6875 3.8125 C6 7 6 7 6 11 C6.66 11.33 7.32 11.66 8 12 C6.140625 11.77734375 6.140625 11.77734375 4 11 C2.734375 9.00390625 2.734375 9.00390625 1.75 6.5625 C1.41484375 5.75941406 1.0796875 4.95632812 0.734375 4.12890625 C0 2 0 2 0 0 Z " fill="#EED8C9" transform="translate(100,250)"/>
<path d="M0 0 C1.60495567 0.11442461 3.20898119 0.24194694 4.8125 0.375 C5.70582031 0.44460937 6.59914062 0.51421875 7.51953125 0.5859375 C10 1 10 1 13 3 C9.04 3 5.08 3 1 3 C0.67 2.01 0.34 1.02 0 0 Z " fill="#D8A184" transform="translate(150,190)"/>
<path d="M0 0 C0 0.66 0 1.32 0 2 C-4.29 2 -8.58 2 -13 2 C-13 1.67 -13 1.34 -13 1 C-4.57142857 -1.42857143 -4.57142857 -1.42857143 0 0 Z " fill="#B35538" transform="translate(96,185)"/>
<path d="M0 0 C1.485 0.99 1.485 0.99 3 2 C2.67 2.66 2.34 3.32 2 4 C2.66 4 3.32 4 4 4 C4 7.63 4 11.26 4 15 C3.67 15 3.34 15 3 15 C2.67 12.03 2.34 9.06 2 6 C1.34 6 0.68 6 0 6 C0 4.02 0 2.04 0 0 Z " fill="#EDB9A2" transform="translate(89,190)"/>
<path d="M0 0 C0.99 0.33 1.98 0.66 3 1 C2.67 3.97 2.34 6.94 2 10 C1.01 9.67 0.02 9.34 -1 9 C-0.67 6.03 -0.34 3.06 0 0 Z " fill="#AD6248" transform="translate(139,183)"/>
<path d="M0 0 C0.33 0 0.66 0 1 0 C1 1.65 1 3.3 1 5 C1.99 5 2.98 5 4 5 C4.33 4.01 4.66 3.02 5 2 C5.625 3.875 5.625 3.875 6 6 C5.34 6.66 4.68 7.32 4 8 C3.01 8 2.02 8 1 8 C-0.35439668 5.29120665 -0.06501451 2.99066732 0 0 Z " fill="#F6B391" transform="translate(143,141)"/>
<path d="M0 0 C2.97 0.33 5.94 0.66 9 1 C6.77810176 3.22189824 4.91517292 3.92598892 2 5 C1.34 3.35 0.68 1.7 0 0 Z " fill="#C7906E" transform="translate(142,229)"/>
<path d="M0 0 C0.66 0.99 1.32 1.98 2 3 C0.02 3.99 -1.96 4.98 -4 6 C-5.5 4.625 -5.5 4.625 -7 3 C-7 2.34 -7 1.68 -7 1 C-4.69 1.33 -2.38 1.66 0 2 C0 1.34 0 0.68 0 0 Z " fill="#DCAA8E" transform="translate(146,218)"/>
<path d="M0 0 C3 1 3 1 4.625 3.875 C6 7 6 7 7 10 C2.57320993 8.52440331 2.08567304 6.09942632 0 2 C0 1.34 0 0.68 0 0 Z " fill="#B86E63" transform="translate(126,180)"/>
<path d="M0 0 C0.66 0.33 1.32 0.66 2 1 C2.33 1.99 2.66 2.98 3 4 C2.01 4.99 1.02 5.98 0 7 C-0.99 6.01 -1.98 5.02 -3 4 C-2.01 2.68 -1.02 1.36 0 0 Z " fill="#D4977E" transform="translate(142,177)"/>
<path d="M0 0 C0.99 0.495 0.99 0.495 2 1 C2 2.32 2 3.64 2 5 C4.97 5.495 4.97 5.495 8 6 C6.68 6.99 5.36 7.98 4 9 C0.06153846 5.67692308 0.06153846 5.67692308 -0.25 2.25 C-0.1675 1.5075 -0.085 0.765 0 0 Z " fill="#FAC2A5" transform="translate(115,117)"/>
<path d="M0 0 C1.53166168 4.08443115 0.63081652 7.79455657 0 12 C-2 10 -2 10 -2.265625 8.125 C-2.26046875 7.42375 -2.2553125 6.7225 -2.25 6 C-2.25515625 5.29875 -2.2603125 4.5975 -2.265625 3.875 C-2 2 -2 2 0 0 Z " fill="#FEF3EF" transform="translate(81,20)"/>
<path d="M0 0 C1.98 0.495 1.98 0.495 4 1 C2.375 6.75 2.375 6.75 -1 9 C-0.67 6.03 -0.34 3.06 0 0 Z " fill="#C87C61" transform="translate(110,203)"/>
<path d="M0 0 C1.2238892 2.44777839 1.016364 3.73390541 0.75 6.4375 C0.68296875 7.21996094 0.6159375 8.00242187 0.546875 8.80859375 C-0.08974532 11.35962232 -1.00971125 12.33607581 -3 14 C-2.40380045 9.13103697 -1.43023178 4.67209049 0 0 Z " fill="#E6AB8D" transform="translate(151,94)"/>
<path d="M0 0 C0.66 0 1.32 0 2 0 C1.45276317 3.37462715 0.9451 5.08235 -1 8 C-1.66 8 -2.32 8 -3 8 C-2.37240135 5.07120629 -1.41377341 2.63904371 0 0 Z " fill="#C67A61" transform="translate(103,198)"/>
<path d="M0 0 C2.12508244 3.18762365 2.5020163 5.26512223 3 9 C0.5 6.6875 0.5 6.6875 -2 4 C-2 3.01 -2 2.02 -2 1 C-1.34 0.67 -0.68 0.34 0 0 Z " fill="#AB4F38" transform="translate(118,187)"/>
<path d="M0 0 C0.99 0.33 1.98 0.66 3 1 C3.33 2.65 3.66 4.3 4 6 C3.01 6.495 3.01 6.495 2 7 C1.34 6.67 0.68 6.34 0 6 C0 4.02 0 2.04 0 0 Z " fill="#E6A587" transform="translate(96,149)"/>
<path d="M0 0 C2 3.75 2 3.75 2 6 C3.32 6 4.64 6 6 6 C6 6.66 6 7.32 6 8 C4.02 8 2.04 8 0 8 C0 5.36 0 2.72 0 0 Z " fill="#E4BCA6" transform="translate(106,253)"/>
<path d="M0 0 C2 1 2 1 2.75 2.6875 C3.08937645 5.82673219 2.12469641 8.08902106 1 11 C0.67 11 0.34 11 0 11 C-0.19491452 9.54263913 -0.38069358 8.08405407 -0.5625 6.625 C-0.66691406 5.81289062 -0.77132812 5.00078125 -0.87890625 4.1640625 C-1 2 -1 2 0 0 Z " fill="#BD6450" transform="translate(102,170)"/>
<path d="M0 0 C0.99 0.495 0.99 0.495 2 1 C3.27536232 6.44927536 3.27536232 6.44927536 2 9 C1.34 9 0.68 9 0 9 C0 6.03 0 3.06 0 0 Z " fill="#FBE3D4" transform="translate(76,176)"/>
<path d="M0 0 C1.21236328 0.01353516 1.21236328 0.01353516 2.44921875 0.02734375 C3.37154297 0.04474609 3.37154297 0.04474609 4.3125 0.0625 C4.3125 0.3925 4.3125 0.7225 4.3125 1.0625 C1.6725 1.0625 -0.9675 1.0625 -3.6875 1.0625 C-4.0175 2.0525 -4.3475 3.0425 -4.6875 4.0625 C-5.6775 3.7325 -6.6675 3.4025 -7.6875 3.0625 C-7.6875 2.4025 -7.6875 1.7425 -7.6875 1.0625 C-4.80538698 0.10179566 -2.98899956 -0.04331883 0 0 Z " fill="#F3B49D" transform="translate(108.6875,164.9375)"/>
<path d="M0 0 C0.66 0 1.32 0 2 0 C0.68775452 3.93673644 -0.91910327 6.22719294 -4 9 C-4 4.9666466 -2.39120082 3.16482462 0 0 Z " fill="#FDDEC9" transform="translate(91,150)"/>
<path d="M0 0 C0.66 0.33 1.32 0.66 2 1 C1.75 3.875 1.75 3.875 1 7 C-0.98 7.99 -0.98 7.99 -3 9 C-2.01 6.03 -1.02 3.06 0 0 Z " fill="#F0B898" transform="translate(163,144)"/>
<path d="M0 0 C1.13643966 3.40931897 0.86747764 4.00335456 -0.4375 7.1875 C-0.86869141 8.26064453 -0.86869141 8.26064453 -1.30859375 9.35546875 C-1.53675781 9.89816406 -1.76492187 10.44085938 -2 11 C-2.33 11 -2.66 11 -3 11 C-3.36923077 4.6 -3.36923077 4.6 -1.5 1.5625 C-1.005 1.046875 -0.51 0.53125 0 0 Z " fill="#F9A58E" transform="translate(161,37)"/>
<path d="M0 0 C0.66 0 1.32 0 2 0 C1.979375 0.78375 1.95875 1.5675 1.9375 2.375 C1.81315937 4.98114961 1.81315937 4.98114961 3 7 C1.68 7 0.36 7 -1 7 C-1.04254356 5.00045254 -1.04080783 2.99958364 -1 1 C-0.67 0.67 -0.34 0.34 0 0 Z " fill="#DE9D7B" transform="translate(110,252)"/>
<path d="M0 0 C2 3 2 3 2 6 C2.99 6 3.98 6 5 6 C4.67 6.99 4.34 7.98 4 9 C3.01 9 2.02 9 1 9 C0.67 6.03 0.34 3.06 0 0 Z " fill="#DCA68C" transform="translate(130,199)"/>
<path d="M0 0 C0.33 0.66 0.66 1.32 1 2 C1.639375 2.12375 2.27875 2.2475 2.9375 2.375 C5 3 5 3 6.25 5.0625 C6.4975 5.701875 6.745 6.34125 7 7 C4.08482708 5.92598892 2.22189824 5.22189824 0 3 C0 2.01 0 1.02 0 0 Z " fill="#EAA08B" transform="translate(103,194)"/>
<path d="M0 0 C2.29633824 3.44450737 2.54016485 5.93812283 3 10 C2.01 9.67 1.02 9.34 0 9 C0 6.03 0 3.06 0 0 Z " fill="#FAC5AA" transform="translate(85,163)"/>
<path d="M0 0 C0 0.66 0 1.32 0 2 C-2.31 2 -4.62 2 -7 2 C-7.33 1.34 -7.66 0.68 -8 0 C-4.71023192 -1.09658936 -3.28696233 -0.79953138 0 0 Z " fill="#E17A5B" transform="translate(165,78)"/>
<path d="M0 0 C0.33 0.99 0.66 1.98 1 3 C0.01 4.485 0.01 4.485 -1 6 C-1.39387788 8.32387947 -1.73486085 10.65793749 -2 13 C-2.33 13 -2.66 13 -3 13 C-3.27429625 7.60550707 -3.36055646 4.48074195 0 0 Z " fill="#F9D6CC" transform="translate(85,20)"/>
<path d="M0 0 C1.23556641 0.01740234 1.23556641 0.01740234 2.49609375 0.03515625 C3.32238281 0.04417969 4.14867187 0.05320313 5 0.0625 C5.63808594 0.07410156 6.27617187 0.08570313 6.93359375 0.09765625 C4.550519 2.480731 3.17954878 2.52961412 -0.06640625 3.09765625 C-1.05640625 3.59265625 -1.05640625 3.59265625 -2.06640625 4.09765625 C-2.39640625 3.10765625 -2.72640625 2.11765625 -3.06640625 1.09765625 C-2.06640625 0.09765625 -2.06640625 0.09765625 0 0 Z " fill="#D09A72" transform="translate(160.06640625,241.90234375)"/>
<path d="M0 0 C0.66 0 1.32 0 2 0 C2.33 1.32 2.66 2.64 3 4 C1.02 4.99 1.02 4.99 -1 6 C-0.67 4.02 -0.34 2.04 0 0 Z " fill="#C87D62" transform="translate(99,194)"/>
<path d="M0 0 C0 1.65 0 3.3 0 5 C-0.99 5.33 -1.98 5.66 -3 6 C-3.33 4.68 -3.66 3.36 -4 2 C-1 0 -1 0 0 0 Z " fill="#FBD0BC" transform="translate(103,159)"/>
<path d="M0 0 C0.66 0 1.32 0 2 0 C2 1.65 2 3.3 2 5 C2.66 5.33 3.32 5.66 4 6 C1.83125748 5.49396008 0.00032373 5.00016187 -2 4 C-1.34 2.68 -0.68 1.36 0 0 Z " fill="#FCD0BB" transform="translate(154,154)"/>
<path d="M0 0 C0.94875 0.04125 1.8975 0.0825 2.875 0.125 C2.875 0.455 2.875 0.785 2.875 1.125 C1.225 1.455 -0.425 1.785 -2.125 2.125 C-2.455 3.115 -2.785 4.105 -3.125 5.125 C-4.115 5.455 -5.105 5.785 -6.125 6.125 C-5.28810868 1.94054341 -4.61542241 0.1846169 0 0 Z " fill="#FCE0CB" transform="translate(105.125,124.875)"/>
<path d="M0 0 C1.9375 1.125 1.9375 1.125 4 3 C4.75 6.1875 4.75 6.1875 5 9 C1.96938234 6.97958823 1.27760233 6.24314437 0 3 C0 2.01 0 1.02 0 0 Z " fill="#FADFD1" transform="translate(108,47)"/>
<path d="" fill="#FFFFFF" transform="translate(0,0)"/>
<path d="" fill="#FFFFFF" transform="translate(0,0)"/>
<path d="" fill="#FFFFFF" transform="translate(0,0)"/>
<path d="" fill="#FFFFFF" transform="translate(0,0)"/>
<path d="" fill="#FFFFFF" transform="translate(0,0)"/>
<path d="" fill="#FFFFFF" transform="translate(0,0)"/>
<path d="" fill="#FFFFFF" transform="translate(0,0)"/>
<path d="" fill="#FFFFFF" transform="translate(0,0)"/>
<path d="" fill="#FFFFFF" transform="translate(0,0)"/>
<path d="" fill="#FFFFFF" transform="translate(0,0)"/>
<path d="" fill="#FFFFFF" transform="translate(0,0)"/>
<path d="" fill="#FFFFFF" transform="translate(0,0)"/>
<path d="" fill="#FFFFFF" transform="translate(0,0)"/>
<path d="" fill="#FFFFFF" transform="translate(0,0)"/>
<path d="" fill="#FFFFFF" transform="translate(0,0)"/>
<path d="" fill="#FFFFFF" transform="translate(0,0)"/>
<path d="" fill="#FFFF00" transform="translate(0,0)"/>
<path d="" fill="#FFFFFF" transform="translate(0,0)"/>
<path d="" fill="#FFFFFF" transform="translate(0,0)"/>
<path d="" fill="#FFFFFF" transform="translate(0,0)"/>
<path d="" fill="#FFFFFF" transform="translate(0,0)"/>
<path d="" fill="#FFFFFF" transform="translate(0,0)"/>
<path d="" fill="#FFFFFF" transform="translate(0,0)"/>
<path d="" fill="#FFFFFF" transform="translate(0,0)"/>
<path d="" fill="#FFFFFF" transform="translate(0,0)"/>
<path d="" fill="#FFFFFF" transform="translate(0,0)"/>
<path d="" fill="#FFFFFF" transform="translate(0,0)"/>
<path d="" fill="#FFFFFF" transform="translate(0,0)"/>
<path d="" fill="#FFFFFF" transform="translate(0,0)"/>
<path d="" fill="#FFFFFF" transform="translate(0,0)"/>
<path d="" fill="#FFFFFF" transform="translate(0,0)"/>
<path d="" fill="#FFFFFF" transform="translate(0,0)"/>
<path d="" fill="#FFFFFF" transform="translate(0,0)"/>
<path d="" fill="#FFFFFF" transform="translate(0,0)"/>
<path d="" fill="#FFFFFF" transform="translate(0,0)"/>
<path d="" fill="#FFFFFF" transform="translate(0,0)"/>
<path d="" fill="#FFFFFF" transform="translate(0,0)"/>
<path d="" fill="#FFFFFF" transform="translate(0,0)"/>
<path d="" fill="#FFFFFF" transform="translate(0,0)"/>
<path d="" fill="#FFFFFF" transform="translate(0,0)"/>
<path d="" fill="#FFFFFF" transform="translate(0,0)"/>
<path d="" fill="#FFFFFF" transform="translate(0,0)"/>
<path d="" fill="#FFFFFF" transform="translate(0,0)"/>
<path d="" fill="#FFFFFE" transform="translate(0,0)"/>
<path d="" fill="#FFFFFF" transform="translate(0,0)"/>
<path d="" fill="#FFFFFF" transform="translate(0,0)"/>
<path d="" fill="#FFFFFF" transform="translate(0,0)"/>
<path d="" fill="#FFFFFF" transform="translate(0,0)"/>
<path d="" fill="#FFFFFF" transform="translate(0,0)"/>
<path d="" fill="#FFFFFF" transform="translate(0,0)"/>
<path d="" fill="#FFFFFF" transform="translate(0,0)"/>
<path d="" fill="#FFFFFF" transform="translate(0,0)"/>
<path d="" fill="#FFFFFF" transform="translate(0,0)"/>
<path d="" fill="#FFFFFF" transform="translate(0,0)"/>
<path d="" fill="#FFFFFF" transform="translate(0,0)"/>
<path d="" fill="#FFFFFF" transform="translate(0,0)"/>
<path d="" fill="#FFFFFF" transform="translate(0,0)"/>
<path d="" fill="#FFFFFF" transform="translate(0,0)"/>
<path d="" fill="#FFFFFF" transform="translate(0,0)"/>
<path d="" fill="#FFFFFF" transform="translate(0,0)"/>
<path d="" fill="#FFFFFF" transform="translate(0,0)"/>
</svg>
