<?xml version="1.0" encoding="UTF-8"?>
<svg version="1.1" xmlns="http://www.w3.org/2000/svg" width="270" height="270">
<path d="M0 0 C3.5 0.5 3.5 0.5 5.875 2.125 C8.51935385 5.98982486 8.64325383 9.39719251 8.046875 13.98828125 C7.78390625 15.25027344 7.5209375 16.51226562 7.25 17.8125 C6.96657745 19.22248156 6.68405702 20.63264469 6.40234375 22.04296875 C6.25394043 22.7704834 6.10553711 23.49799805 5.95263672 24.24755859 C5.19221706 28.03161023 4.49742422 31.82667024 3.8125 35.625 C3.68133789 36.32278564 3.55017578 37.02057129 3.41503906 37.73950195 C2.69832366 41.71073937 2.36806713 45.46662357 2.5 49.5 C3.34304687 49.70496094 4.18609375 49.90992188 5.0546875 50.12109375 C6.15039062 50.39050781 7.24609375 50.65992188 8.375 50.9375 C9.46554688 51.20433594 10.55609375 51.47117188 11.6796875 51.74609375 C14.5 52.5 14.5 52.5 16.5 53.5 C17.2425 52.55125 17.985 51.6025 18.75 50.625 C21.20581208 47.4870179 23.55886906 45.8191917 27.54296875 45.1640625 C33.66793545 45.05249662 38.11583488 46.64881091 43.5 49.5 C43.5928125 48.38625 43.5928125 48.38625 43.6875 47.25 C44.5 44.5 44.5 44.5 46.3125 42.1875 C51.31552454 39.53883995 55.97595525 39.44677746 61.5 40.5 C67.61644698 43.77066874 71.19007371 49.11040125 73.5 55.5 C75.53137135 62.76978842 75.5586299 69.39934596 75 76.875 C74.49994146 85.08742392 74.41277067 92.47882943 76.5 100.5 C79.66890978 98.19533834 82.23514578 95.72796257 84.75 92.75 C88.63837991 88.21215099 92.93581376 84.34478736 97.5 80.5 C98.40298828 79.67822266 98.40298828 79.67822266 99.32421875 78.83984375 C107.84729654 71.61094263 118.69821079 69.07345342 129.625 69 C130.33519287 68.99371582 131.04538574 68.98743164 131.77709961 68.98095703 C137.26380557 69.11601037 140.58765665 70.52391188 144.375 74.4375 C145.5 76.5 145.5 76.5 145.35546875 78.46875 C144.15973095 81.30794478 142.70189666 81.78370276 139.9375 83.0625 C138.58398438 83.69865234 138.58398438 83.69865234 137.203125 84.34765625 C134.88307022 85.33669694 132.57494554 86.1935537 130.1875 87 C123.38637448 89.76655953 119.38830713 95.96713725 114.88671875 101.5625 C113.37726592 103.4202881 111.84111529 105.25696737 110.26953125 107.0625 C105.05372026 113.11837966 101.09608001 119.44489787 97.16699219 126.36157227 C93.87437694 132.07360531 90.11644757 136.78717566 85.5 141.5 C84.28276604 142.86712689 83.07424351 144.24206492 81.875 145.625 C81.3078125 146.27339844 80.740625 146.92179688 80.15625 147.58984375 C78.54840823 149.4441707 76.96087628 151.31438592 75.375 153.1875 C72.86829069 156.10976005 70.34010518 158.89657025 67.5 161.5 C66.84 161.5 66.18 161.5 65.5 161.5 C65.08041016 162.37785156 65.08041016 162.37785156 64.65234375 163.2734375 C63.57740041 165.35044667 62.37967676 167.19642344 61.0625 169.125 C53.2983758 181.79641931 54.63562735 196.00290364 57.94921875 210.02734375 C58.75896877 213.2706702 59.60675142 216.49697953 60.50366211 219.71728516 C60.77315674 220.68843262 61.04265137 221.65958008 61.3203125 222.66015625 C61.57055176 223.52261963 61.82079102 224.38508301 62.07861328 225.27368164 C62.5 227.5 62.5 227.5 61.5 230.5 C51.38187997 230.52315071 41.26376622 230.54092905 31.14562511 230.55181217 C26.44757846 230.55703501 21.74954991 230.56412183 17.05151367 230.57543945 C12.51928339 230.58628956 7.98707053 230.59228136 3.45482826 230.59487724 C1.7240401 230.59672765 -0.00674709 230.60034093 -1.73752785 230.60573006 C-4.15812887 230.61296862 -6.5786575 230.61398974 -8.99926758 230.61352539 C-9.71783936 230.61712067 -10.43641113 230.62071594 -11.17675781 230.62442017 C-14.23437095 230.61805582 -16.57402748 230.47532417 -19.5 229.5 C-20.52514648 226.74951172 -20.52514648 226.74951172 -21.43359375 223.0546875 C-21.60032089 222.38758759 -21.76704803 221.72048767 -21.93882751 221.03317261 C-22.47571883 218.8590651 -22.99054178 216.68068953 -23.5 214.5 C-23.75321014 213.42667419 -23.75321014 213.42667419 -24.01153564 212.33166504 C-25.05893927 207.86872733 -26.06709601 203.39785944 -27.05493164 198.92138672 C-27.56081583 196.6326197 -28.07404006 194.34558375 -28.58789062 192.05859375 C-38.65460833 146.90154362 -38.65460833 146.90154362 -37.5 127.5 C-37.45746094 126.65099121 -37.41492188 125.80198242 -37.37109375 124.92724609 C-36.50658632 108.55979285 -34.14164255 93.52351519 -28.015625 78.28125 C-25.44409385 71.68492136 -23.91596407 65.12203038 -22.5625 58.1875 C-22.05634811 55.72855496 -21.54717657 53.27022977 -21.03515625 50.8125 C-20.78137207 49.59046875 -20.52758789 48.3684375 -20.26611328 47.109375 C-10.58789238 1.51255605 -10.58789238 1.51255605 0 0 Z " fill="#E7BAA1" transform="translate(109.5,21.5)"/>
<path d="M0 0 C2.375 2.25 2.375 2.25 4 5 C4.4125 5.66 4.825 6.32 5.25 7 C6.16040138 9.42773701 6.14287008 11.42833863 6 14 C6.66 14 7.32 14 8 14 C8.33 13.34 8.66 12.68 9 12 C10.01973129 15.05919388 10.11533602 17.12418025 10.09765625 20.32421875 C10.09282227 21.86625977 10.09282227 21.86625977 10.08789062 23.43945312 C10.07532227 25.04723633 10.07532227 25.04723633 10.0625 26.6875 C10.05798828 27.77095703 10.05347656 28.85441406 10.04882812 29.97070312 C10.03703743 32.64719085 10.02058063 35.32356777 10 38 C9.34 38 8.68 38 8 38 C8.28110489 40.79310605 8.57436052 43.58398875 8.875 46.375 C8.95363281 47.1690625 9.03226562 47.963125 9.11328125 48.78125 C9.46476858 53.3593122 9.46476858 53.3593122 12 57 C12 57.99 12 58.98 12 60 C7.00121563 62.27953824 2.00341469 64.41704345 -3.16796875 66.2734375 C-5.24697761 67.05044965 -5.24697761 67.05044965 -8 68.6875 C-11.18466486 70.08079088 -13.30681893 69.99315125 -16.72265625 69.85546875 C-22.56331148 70.22614498 -28.34208422 72.73010706 -32.9375 76.25 C-37.13945247 78.6511157 -40.63604923 78.26177385 -45.390625 78.04296875 C-47.98359208 77.79934622 -47.98359208 77.79934622 -50 79 C-53.28765018 79.47264315 -55.89474459 79.19026792 -59 78 C-63.86890334 73.53993588 -68.21314278 68.73746497 -69 62 C-69.91523437 61.80664062 -70.83046875 61.61328125 -71.7734375 61.4140625 C-72.96195313 61.15367188 -74.15046875 60.89328125 -75.375 60.625 C-76.55835937 60.36976562 -77.74171875 60.11453125 -78.9609375 59.8515625 C-82 59 -82 59 -84 57 C-79.71 57 -75.42 57 -71 57 C-71.061875 55.88625 -71.12375 54.7725 -71.1875 53.625 C-71.125625 52.42875 -71.06375 51.2325 -71 50 C-70.01 49.34 -69.02 48.68 -68 48 C-66.11608215 51.26545761 -65.50712033 54.28111761 -65 58 C-64.360625 57.21625 -63.72125 56.4325 -63.0625 55.625 C-59.67556897 52.16954724 -55.63862668 51.67709801 -51 51 C-50.855625 50.360625 -50.71125 49.72125 -50.5625 49.0625 C-50 47 -50 47 -49 46 C-49.33 46 -49.66 46 -50 46 C-50.22389218 43.47970021 -50.42942078 40.96002743 -50.625 38.4375 C-50.68945312 37.73302734 -50.75390625 37.02855469 -50.8203125 36.30273438 C-51.17983493 31.42671139 -50.53740473 27.70539025 -49 23 C-48.83071457 20.20755955 -48.83071457 20.20755955 -49 18 C-49.99 18.495 -49.99 18.495 -51 19 C-50.67 17.35 -50.34 15.7 -50 14 C-49.05125 13.896875 -48.1025 13.79375 -47.125 13.6875 C-43.70892499 13.31460705 -43.70892499 13.31460705 -42 10 C-41.34 10 -40.68 10 -40 10 C-39.34 11.32 -38.68 12.64 -38 14 C-37.63648438 13.48308594 -37.27296875 12.96617188 -36.8984375 12.43359375 C-35.36415872 10.42329515 -33.91491465 8.65555827 -32 7 C-28.6875 7 -28.6875 7 -26 8 C-25.505 8.495 -25.505 8.495 -25 9 C-23.845 9.165 -22.69 9.33 -21.5 9.5 C-18 10 -18 10 -17 11 C-16.92755947 13.01964199 -16.91622812 15.04167124 -16.9375 17.0625 C-16.94652344 18.16722656 -16.95554687 19.27195312 -16.96484375 20.41015625 C-16.97644531 21.26480469 -16.98804688 22.11945313 -17 23 C-16.01 23 -15.02 23 -14 23 C-13.896875 22.278125 -13.79375 21.55625 -13.6875 20.8125 C-12.94013068 17.75508007 -11.71954811 15.61670365 -10 13 C-11.32 13.33 -12.64 13.66 -14 14 C-15.625 11.75 -15.625 11.75 -17 9 C-16.0579862 5.11419306 -13.12800066 3.26780048 -10 1 C-6.79079002 -0.60460499 -3.47166416 -0.61994003 0 0 Z " fill="#EBB39A" transform="translate(172,65)"/>
<path d="M0 0 C3.5 0.5 3.5 0.5 5.875 2.125 C8.51935385 5.98982486 8.64325383 9.39719251 8.046875 13.98828125 C7.78390625 15.25027344 7.5209375 16.51226562 7.25 17.8125 C6.96657745 19.22248156 6.68405702 20.63264469 6.40234375 22.04296875 C6.25394043 22.7704834 6.10553711 23.49799805 5.95263672 24.24755859 C5.19221706 28.03161023 4.49742422 31.82667024 3.8125 35.625 C3.68133789 36.32278564 3.55017578 37.02057129 3.41503906 37.73950195 C2.69832366 41.71073937 2.36806713 45.46662357 2.5 49.5 C3.34304687 49.70496094 4.18609375 49.90992188 5.0546875 50.12109375 C6.15039062 50.39050781 7.24609375 50.65992188 8.375 50.9375 C9.46554688 51.20433594 10.55609375 51.47117188 11.6796875 51.74609375 C14.5 52.5 14.5 52.5 16.5 53.5 C17.2425 52.55125 17.985 51.6025 18.75 50.625 C21.20581208 47.4870179 23.55886906 45.8191917 27.54296875 45.1640625 C33.66793545 45.05249662 38.11583488 46.64881091 43.5 49.5 C43.5928125 48.38625 43.5928125 48.38625 43.6875 47.25 C44.5 44.5 44.5 44.5 46.3125 42.1875 C51.31552454 39.53883995 55.97595525 39.44677746 61.5 40.5 C67.61644698 43.77066874 71.19007371 49.11040125 73.5 55.5 C75.53150284 62.77025895 75.5573621 69.39898299 75 76.875 C74.18217411 88.82906379 74.18217411 88.82906379 76.5 100.5 C77.16 100.83 77.82 101.16 78.5 101.5 C77.51 101.5 76.52 101.5 75.5 101.5 C75.5 100.84 75.5 100.18 75.5 99.5 C73.52 99.005 73.52 99.005 71.5 98.5 C70.50749455 92.79309366 70.39522488 87.28591511 70.5 81.5 C71.16 81.5 71.82 81.5 72.5 81.5 C72.17 73.91 71.84 66.32 71.5 58.5 C70.015 58.005 70.015 58.005 68.5 57.5 C67.65625 55.57421875 67.65625 55.57421875 67 53.1875 C66.03401285 49.70879627 65.05544049 47.11391739 62.5 44.5 C59.09586168 43.59769828 55.93153017 43.76581215 52.5 44.5 C49.90475918 46.26415191 48.4786365 48.00066969 46.5 50.5 C46.83 51.098125 47.16 51.69625 47.5 52.3125 C48.5 54.5 48.5 54.5 48.5 57.5 C50.15 56.84 51.8 56.18 53.5 55.5 C52.860625 56.5725 52.22125 57.645 51.5625 58.75 C50.09398727 61.30822182 48.97145458 63.55340886 48.5 66.5 C47.51 66.5 46.52 66.5 45.5 66.5 C45.005 60.56 45.005 60.56 44.5 54.5 C42.8603125 54.314375 42.8603125 54.314375 41.1875 54.125 C37.5 53.5 37.5 53.5 34.5 51.5 C30.73329891 51.59912371 29.58132909 52.42245366 26.8125 55.0625 C26.049375 55.866875 25.28625 56.67125 24.5 57.5 C23.84 57.5 23.18 57.5 22.5 57.5 C22.5 56.18 22.5 54.86 22.5 53.5 C19.98916886 54.75541557 19.62874554 56.00063488 18.5 58.5 C18.5 57.84 18.5 57.18 18.5 56.5 C16.52 57.16 14.54 57.82 12.5 58.5 C12.5 59.49 12.5 60.48 12.5 61.5 C13.16 61.17 13.82 60.84 14.5 60.5 C14.35833643 62.41697937 14.21150416 64.33357723 14.0625 66.25 C13.98128906 67.31734375 13.90007812 68.3846875 13.81640625 69.484375 C13.5 72.5 13.5 72.5 12.94140625 74.54296875 C12.35331203 77.15035993 12.60786671 79.40921666 12.875 82.0625 C12.96523437 83.01253906 13.05546875 83.96257812 13.1484375 84.94140625 C13.43562771 87.61379003 13.43562771 87.61379003 14.5 90.5 C13.51 90.995 13.51 90.995 12.5 91.5 C12.5 92.49 12.5 93.48 12.5 94.5 C6.76819923 96.45402299 6.76819923 96.45402299 4.3125 96.875 C1.68017531 97.78269817 0.88597812 99.12403751 -0.5 101.5 C-1.21433121 104.14934822 -1.21433121 104.14934822 -1.5 106.5 C-1.83 106.5 -2.16 106.5 -2.5 106.5 C-3.49 101.88 -4.48 97.26 -5.5 92.5 C-6.49 92.995 -6.49 92.995 -7.5 93.5 C-7.90729228 95.82156597 -8.24438677 98.1568787 -8.5 100.5 C-13.945 100.995 -13.945 100.995 -19.5 101.5 C-18.51 102.49 -17.52 103.48 -16.5 104.5 C-17.82 104.17 -19.14 103.84 -20.5 103.5 C-20.83 104.49 -21.16 105.48 -21.5 106.5 C-21.5 105.84 -21.5 105.18 -21.5 104.5 C-22.49 104.5 -23.48 104.5 -24.5 104.5 C-24.5 103.84 -24.5 103.18 -24.5 102.5 C-25.6446875 102.995 -25.6446875 102.995 -26.8125 103.5 C-29.5 104.5 -29.5 104.5 -32.5 104.5 C-32.46519531 105.56927734 -32.46519531 105.56927734 -32.4296875 106.66015625 C-32.26412986 115.44653675 -32.26412986 115.44653675 -33.5625 119.4375 C-34.5082196 122.52685069 -34.48287921 123.55136236 -33.5 126.5 C-33.995 127.49 -33.995 127.49 -34.5 128.5 C-34.87495616 133.91480804 -34.3749902 139.15283767 -33.5 144.5 C-32.33753501 152.17507003 -32.33753501 152.17507003 -33.5 154.5 C-32.84 154.5 -32.18 154.5 -31.5 154.5 C-31.005 153.51 -31.005 153.51 -30.5 152.5 C-29.51 152.83 -28.52 153.16 -27.5 153.5 C-28.83333333 156.16666667 -30.16666667 158.83333333 -31.5 161.5 C-31.17 161.83 -30.84 162.16 -30.5 162.5 C-29.98319545 165.19361343 -29.51942397 167.87806719 -29.08984375 170.5859375 C-28.89220177 171.80502304 -28.89220177 171.80502304 -28.69056702 173.04873657 C-28.41212893 174.7717614 -28.13569281 176.49511073 -27.86108398 178.21875 C-27.44027721 180.85758438 -27.01265076 183.49524475 -26.58398438 186.1328125 C-26.31469727 187.80462201 -26.04580408 189.47649503 -25.77734375 191.1484375 C-25.58518532 192.33450089 -25.58518532 192.33450089 -25.3891449 193.54452515 C-24.91052195 196.56338551 -24.5 199.4380385 -24.5 202.5 C-23.84 202.5 -23.18 202.5 -22.5 202.5 C-20.96833832 206.58443115 -21.86918348 210.29455657 -22.5 214.5 C-22.83 214.5 -23.16 214.5 -23.5 214.5 C-24.58947829 209.68545872 -25.6735626 204.869742 -26.75317383 200.05297852 C-27.11929286 198.42278201 -27.48675368 196.79288612 -27.85571289 195.16333008 C-30.38489415 183.98731629 -32.62714584 172.80487117 -34.5 161.5 C-34.75366333 159.97161499 -34.75366333 159.97161499 -35.01245117 158.41235352 C-36.67769037 148.08303022 -38.12390455 137.98382466 -37.5 127.5 C-37.45746094 126.65099121 -37.41492188 125.80198242 -37.37109375 124.92724609 C-36.50658632 108.55979285 -34.14164255 93.52351519 -28.015625 78.28125 C-25.44409385 71.68492136 -23.91596407 65.12203038 -22.5625 58.1875 C-22.05634811 55.72855496 -21.54717657 53.27022977 -21.03515625 50.8125 C-20.78137207 49.59046875 -20.52758789 48.3684375 -20.26611328 47.109375 C-10.58789238 1.51255605 -10.58789238 1.51255605 0 0 Z " fill="#F2C5AC" transform="translate(109.5,21.5)"/>
<path d="M0 0 C0.33 0 0.66 0 1 0 C1.029729 0.92280762 1.029729 0.92280762 1.06005859 1.86425781 C1.15549727 4.65992542 1.26509955 7.4548651 1.375 10.25 C1.4059375 11.21808594 1.436875 12.18617187 1.46875 13.18359375 C1.50742188 14.11816406 1.54609375 15.05273438 1.5859375 16.015625 C1.6173584 16.87446289 1.6487793 17.73330078 1.68115234 18.61816406 C2.02380912 21.17785741 2.58961922 22.84080881 4 25 C6.63571568 25.91956802 6.63571568 25.91956802 9.625 26.25 C10.62789063 26.39953125 11.63078125 26.5490625 12.6640625 26.703125 C13.43492187 26.80109375 14.20578125 26.8990625 15 27 C17.64812363 32.7635632 16.8019749 37.90932576 16 44 C18.97 44 21.94 44 25 44 C25 44.33 25 44.66 25 45 C22.36 45 19.72 45 17 45 C16.67 45.99 16.34 46.98 16 48 C15.071875 48.433125 14.14375 48.86625 13.1875 49.3125 C9.77943382 50.7306437 9.77943382 50.7306437 8.4375 54 C5.00194613 58.228374 1.58377931 58.18567605 -3.62890625 59.14453125 C-7.07034763 60.01785183 -9.1701774 61.17646857 -12.0625 63.1875 C-16.9212987 66.42669913 -20.79763308 66.49010401 -26.53125 66.11328125 C-29.00387952 65.79871387 -29.00387952 65.79871387 -31 67 C-34.28765018 67.47264315 -36.89474459 67.19026792 -40 66 C-44.86890334 61.53993588 -49.21314278 56.73746497 -50 50 C-50.91523437 49.80664062 -51.83046875 49.61328125 -52.7734375 49.4140625 C-53.96195313 49.15367188 -55.15046875 48.89328125 -56.375 48.625 C-57.55835937 48.36976562 -58.74171875 48.11453125 -59.9609375 47.8515625 C-63 47 -63 47 -65 45 C-60.71 45 -56.42 45 -52 45 C-52.061875 43.88625 -52.12375 42.7725 -52.1875 41.625 C-52.125625 40.42875 -52.06375 39.2325 -52 38 C-51.01 37.34 -50.02 36.68 -49 36 C-46.47725544 39.94311334 -46.33445161 44.20820789 -45.875 48.75 C-45.78863281 49.54277344 -45.70226562 50.33554688 -45.61328125 51.15234375 C-45.40199946 53.10083141 -45.20007533 55.05032976 -45 57 C-44.34 57 -43.68 57 -43 57 C-43.04640625 56.40832031 -43.0928125 55.81664062 -43.140625 55.20703125 C-43.32350904 51.20317703 -43.35071692 48.65934781 -41.4375 45.0625 C-36.84661988 41.17790913 -31.8498415 40.71464188 -26 41 C-26.165 39.7625 -26.33 38.525 -26.5 37.25 C-27.05332791 31.7483396 -27.11295207 26.27397414 -27.125 20.75 C-27.12951172 19.88665039 -27.13402344 19.02330078 -27.13867188 18.13378906 C-27.12824663 13.64224433 -26.91005461 9.42026525 -26 5 C-25.67 5 -25.34 5 -25 5 C-24.970271 6.05912598 -24.970271 6.05912598 -24.93994141 7.13964844 C-24.84459585 10.34346994 -24.73495487 13.54664801 -24.625 16.75 C-24.5940625 17.86117187 -24.563125 18.97234375 -24.53125 20.1171875 C-24.47324219 21.72207031 -24.47324219 21.72207031 -24.4140625 23.359375 C-24.3826416 24.34389648 -24.3512207 25.32841797 -24.31884766 26.34277344 C-23.84054305 30.32888935 -22.20905205 32.68642193 -20 36 C-20 36.66 -20 37.32 -20 38 C-15.545 37.505 -15.545 37.505 -11 37 C-10.89042969 36.3709375 -10.78085938 35.741875 -10.66796875 35.09375 C-10.50941406 34.2378125 -10.35085937 33.381875 -10.1875 32.5 C-10.03667969 31.6646875 -9.88585937 30.829375 -9.73046875 29.96875 C-9.14198946 27.57706947 -8.44935614 25.49007131 -7.5546875 23.2109375 C-5.61721078 18.20297751 -4.5608391 13.06896299 -3.45117188 7.828125 C-2.20561607 2.20561607 -2.20561607 2.20561607 0 0 Z " fill="#C26640" transform="translate(153,77)"/>
<path d="M0 0 C3.5 0.5 3.5 0.5 5.875 2.125 C8.60271087 6.11165434 8.72499755 9.93092899 7.94140625 14.5859375 C7.65898532 16.01774596 7.36581739 17.44747221 7.0625 18.875 C6.91490234 19.61105469 6.76730469 20.34710938 6.61523438 21.10546875 C6.2528781 22.90556123 5.87773891 24.70307253 5.5 26.5 C5.17 26.5 4.84 26.5 4.5 26.5 C4.5 19.57 4.5 12.64 4.5 5.5 C-2.34422049 6.69978892 -2.34422049 6.69978892 -4.6875 10.375 C-8.45596332 18.20430742 -10.87603396 26.13622711 -11.2265625 34.83203125 C-11.5 37.5 -11.5 37.5 -12.48828125 40.59765625 C-14.02053287 45.6641274 -13.92580834 50.87070607 -14.0625 56.125 C-14.12269919 58.158964 -14.18637993 60.19282858 -14.25390625 62.2265625 C-14.27783447 63.11939941 -14.3017627 64.01223633 -14.32641602 64.93212891 C-14.50196682 67.52909564 -14.93333414 69.96213625 -15.5 72.5 C-14.51 72.5 -13.52 72.5 -12.5 72.5 C-12.83 77.12 -13.16 81.74 -13.5 86.5 C-14.16 86.5 -14.82 86.5 -15.5 86.5 C-15.5 89.8 -15.5 93.1 -15.5 96.5 C-22.43 97.49 -22.43 97.49 -29.5 98.5 C-29.5 99.16 -29.5 99.82 -29.5 100.5 C-28.46875 100.62375 -27.4375 100.7475 -26.375 100.875 C-22.87883154 101.43889814 -19.81602373 102.28682059 -16.5 103.5 C-17.49 103.995 -17.49 103.995 -18.5 104.5 C-19.16 104.17 -19.82 103.84 -20.5 103.5 C-20.83 104.49 -21.16 105.48 -21.5 106.5 C-21.5 105.84 -21.5 105.18 -21.5 104.5 C-22.49 104.5 -23.48 104.5 -24.5 104.5 C-24.5 103.84 -24.5 103.18 -24.5 102.5 C-25.6446875 102.995 -25.6446875 102.995 -26.8125 103.5 C-29.5 104.5 -29.5 104.5 -32.5 104.5 C-32.46519531 105.56927734 -32.46519531 105.56927734 -32.4296875 106.66015625 C-32.26412986 115.44653675 -32.26412986 115.44653675 -33.5625 119.4375 C-34.5082196 122.52685069 -34.48287921 123.55136236 -33.5 126.5 C-33.995 127.49 -33.995 127.49 -34.5 128.5 C-34.87495616 133.91480804 -34.3749902 139.15283767 -33.5 144.5 C-32.33753501 152.17507003 -32.33753501 152.17507003 -33.5 154.5 C-32.84 154.5 -32.18 154.5 -31.5 154.5 C-31.005 153.51 -31.005 153.51 -30.5 152.5 C-29.51 152.83 -28.52 153.16 -27.5 153.5 C-28.83333333 156.16666667 -30.16666667 158.83333333 -31.5 161.5 C-31.17 161.83 -30.84 162.16 -30.5 162.5 C-29.98319545 165.19361343 -29.51942397 167.87806719 -29.08984375 170.5859375 C-28.89220177 171.80502304 -28.89220177 171.80502304 -28.69056702 173.04873657 C-28.41212893 174.7717614 -28.13569281 176.49511073 -27.86108398 178.21875 C-27.44027721 180.85758438 -27.01265076 183.49524475 -26.58398438 186.1328125 C-26.31469727 187.80462201 -26.04580408 189.47649503 -25.77734375 191.1484375 C-25.58518532 192.33450089 -25.58518532 192.33450089 -25.3891449 193.54452515 C-24.91052195 196.56338551 -24.5 199.4380385 -24.5 202.5 C-23.84 202.5 -23.18 202.5 -22.5 202.5 C-20.96833832 206.58443115 -21.86918348 210.29455657 -22.5 214.5 C-22.83 214.5 -23.16 214.5 -23.5 214.5 C-24.58947829 209.68545872 -25.6735626 204.869742 -26.75317383 200.05297852 C-27.11929286 198.42278201 -27.48675368 196.79288612 -27.85571289 195.16333008 C-30.38489415 183.98731629 -32.62714584 172.80487117 -34.5 161.5 C-34.75366333 159.97161499 -34.75366333 159.97161499 -35.01245117 158.41235352 C-36.67769037 148.08303022 -38.12390455 137.98382466 -37.5 127.5 C-37.45746094 126.65099121 -37.41492188 125.80198242 -37.37109375 124.92724609 C-36.50658632 108.55979285 -34.14164255 93.52351519 -28.015625 78.28125 C-25.44409385 71.68492136 -23.91596407 65.12203038 -22.5625 58.1875 C-22.05634811 55.72855496 -21.54717657 53.27022977 -21.03515625 50.8125 C-20.78137207 49.59046875 -20.52758789 48.3684375 -20.26611328 47.109375 C-10.58789238 1.51255605 -10.58789238 1.51255605 0 0 Z " fill="#FCE4D3" transform="translate(109.5,21.5)"/>
<path d="M0 0 C2.22326428 6.66979283 1.01395074 14.15583251 0 21 C-0.66 21 -1.32 21 -2 21 C-2.05534912 21.7113208 -2.11069824 22.4226416 -2.16772461 23.15551758 C-2.42042089 26.37483133 -2.67889202 29.59365597 -2.9375 32.8125 C-3.02451172 33.93205078 -3.11152344 35.05160156 -3.20117188 36.20507812 C-3.28818359 37.27822266 -3.37519531 38.35136719 -3.46484375 39.45703125 C-3.58267212 40.9416687 -3.58267212 40.9416687 -3.70288086 42.45629883 C-4 45 -4 45 -5 48 C-5.66 48 -6.32 48 -7 48 C-7 48.66 -7 49.32 -7 50 C-7.66 50 -8.32 50 -9 50 C-11.53518371 55.83494664 -11.29650285 61.51086711 -11.25 67.75 C-11.25773437 68.80316406 -11.26546875 69.85632813 -11.2734375 70.94140625 C-11.26957031 72.44767578 -11.26957031 72.44767578 -11.265625 73.984375 C-11.26336914 74.89928711 -11.26111328 75.81419922 -11.25878906 76.75683594 C-11.2120863 79.20218547 -11.2120863 79.20218547 -9 81 C-8.875 84.125 -8.875 84.125 -9 87 C-10.485 87.495 -10.485 87.495 -12 88 C-12.33 90.31 -12.66 92.62 -13 95 C-13.75925781 95.06058594 -14.51851562 95.12117188 -15.30078125 95.18359375 C-16.29464844 95.26738281 -17.28851563 95.35117188 -18.3125 95.4375 C-19.29863281 95.51871094 -20.28476563 95.59992188 -21.30078125 95.68359375 C-24.09375599 95.91812559 -24.09375599 95.91812559 -27 97 C-29.35188447 96.40206327 -31.68925595 95.74118205 -34 95 C-34 94.34 -34 93.68 -34 93 C-29.07262981 91.02905192 -25.21979128 90.8200072 -20 91 C-20 87.7 -20 84.4 -20 81 C-19.34 81 -18.68 81 -18 81 C-17.67 76.38 -17.34 71.76 -17 67 C-17.99 67 -18.98 67 -20 67 C-19.88958177 62.47868775 -19.75907813 57.95816761 -19.625 53.4375 C-19.5940625 52.16068359 -19.563125 50.88386719 -19.53125 49.56835938 C-19.33702567 43.33699532 -18.98912545 37.90397793 -17 32 C-16.84538494 30.33725448 -16.73832333 28.66914513 -16.6875 27 C-15.98143182 17.89676388 -13.2722375 7.78553438 -7 1 C-4.53721199 -0.231394 -2.7204945 -0.07159196 0 0 Z " fill="#F4AA8C" transform="translate(114,27)"/>
<path d="M0 0 C2.375 2.25 2.375 2.25 4 5 C4.4125 5.66 4.825 6.32 5.25 7 C6.16040138 9.42773701 6.14287008 11.42833863 6 14 C6.66 14 7.32 14 8 14 C8.33 13.34 8.66 12.68 9 12 C10.01973129 15.05919388 10.11533602 17.12418025 10.09765625 20.32421875 C10.09443359 21.35224609 10.09121094 22.38027344 10.08789062 23.43945312 C10.07951172 24.51130859 10.07113281 25.58316406 10.0625 26.6875 C10.05798828 27.77095703 10.05347656 28.85441406 10.04882812 29.97070312 C10.03703743 32.64719085 10.02058063 35.32356777 10 38 C9.34 38 8.68 38 8 38 C7.34 35.03 6.68 32.06 6 29 C2.88303339 33.33664919 2.44033187 36.80408388 2 42 C1.34 41.01 0.68 40.02 0 39 C-0.99 39.495 -0.99 39.495 -2 40 C-2 39.34 -2 38.68 -2 38 C-3.03060547 37.90912109 -3.03060547 37.90912109 -4.08203125 37.81640625 C-4.98308594 37.73261719 -5.88414062 37.64882812 -6.8125 37.5625 C-7.70582031 37.48128906 -8.59914062 37.40007812 -9.51953125 37.31640625 C-12 37 -12 37 -15 36 C-16.4053516 31.56204759 -17.29241839 27.67869431 -17 23 C-16.01 23 -15.02 23 -14 23 C-13.896875 22.278125 -13.79375 21.55625 -13.6875 20.8125 C-12.94013068 17.75508007 -11.71954811 15.61670365 -10 13 C-11.32 13.33 -12.64 13.66 -14 14 C-15.625 11.75 -15.625 11.75 -17 9 C-16.0579862 5.11419306 -13.12800066 3.26780048 -10 1 C-6.79079002 -0.60460499 -3.47166416 -0.61994003 0 0 Z " fill="#EEB599" transform="translate(172,65)"/>
<path d="M0 0 C0.33 0 0.66 0 1 0 C1.01981934 0.61520508 1.03963867 1.23041016 1.06005859 1.86425781 C1.15549727 4.65992542 1.26509955 7.4548651 1.375 10.25 C1.4059375 11.21808594 1.436875 12.18617187 1.46875 13.18359375 C1.50742188 14.11816406 1.54609375 15.05273438 1.5859375 16.015625 C1.63306885 17.30388184 1.63306885 17.30388184 1.68115234 18.61816406 C2.02380912 21.17785741 2.58961922 22.84080881 4 25 C6.63571568 25.91956802 6.63571568 25.91956802 9.625 26.25 C10.62789062 26.39953125 11.63078125 26.5490625 12.6640625 26.703125 C13.43492187 26.80109375 14.20578125 26.8990625 15 27 C17.64812363 32.7635632 16.8019749 37.90932576 16 44 C18.97 44 21.94 44 25 44 C25 44.33 25 44.66 25 45 C22.36 45 19.72 45 17 45 C16.67 45.99 16.34 46.98 16 48 C15.071875 48.433125 14.14375 48.86625 13.1875 49.3125 C9.76520027 50.78426847 9.76520027 50.78426847 8 54.1875 C7.34 55.115625 6.68 56.04375 6 57 C2.75 57.375 2.75 57.375 0 57 C0.99 56.505 0.99 56.505 2 56 C2 55.34 2 54.68 2 54 C2.99 53.34 3.98 52.68 5 52 C3.515 51.505 3.515 51.505 2 51 C0.75622607 48.51245214 0.86693765 46.77344699 0.875 44 C0.87113281 42.6696875 0.87113281 42.6696875 0.8671875 41.3125 C1 39 1 39 2 37 C2.66 37 3.32 37 4 37 C3.52219697 35.70782829 3.04270894 34.41627954 2.5625 33.125 C2.29566406 32.40570313 2.02882812 31.68640625 1.75390625 30.9453125 C1.02083146 28.96351155 1.02083146 28.96351155 0 27 C-0.04022391 24.6670134 -0.04320247 22.33293334 0 20 C-0.66 20 -1.32 20 -2 20 C-1.979375 21.258125 -1.95875 22.51625 -1.9375 23.8125 C-1.9375 30.20081516 -1.96890589 36.90671766 -4 43 C-5.485 43.495 -5.485 43.495 -7 44 C-7.495 41.525 -7.495 41.525 -8 39 C-8.54398438 39.34289062 -9.08796875 39.68578125 -9.6484375 40.0390625 C-12.65264645 41.26669606 -14.45069174 40.94825783 -17.625 40.375 C-19.06746094 40.13910156 -19.06746094 40.13910156 -20.5390625 39.8984375 C-23 39 -23 39 -24.328125 37.1171875 C-25.20482614 34.35455948 -25.13083565 31.87838427 -25 29 C-20 35.59090909 -20 35.59090909 -20 38 C-15.545 37.505 -15.545 37.505 -11 37 C-10.83564453 36.05640625 -10.83564453 36.05640625 -10.66796875 35.09375 C-10.50941406 34.2378125 -10.35085937 33.381875 -10.1875 32.5 C-9.96126953 31.24703125 -9.96126953 31.24703125 -9.73046875 29.96875 C-9.14198946 27.57706947 -8.44935614 25.49007131 -7.5546875 23.2109375 C-5.61721078 18.20297751 -4.5608391 13.06896299 -3.45117188 7.828125 C-2.20561607 2.20561607 -2.20561607 2.20561607 0 0 Z " fill="#D17251" transform="translate(153,77)"/>
<path d="M0 0 C0.66 0.33 1.32 0.66 2 1 C2.64438698 3.61597465 3.17069217 6.16314363 3.625 8.8125 C3.7590625 9.53759766 3.893125 10.26269531 4.03125 11.00976562 C4.64142065 14.41240094 5 17.5321696 5 21 C5.66 21 6.32 21 7 21 C6.95359375 20.40832031 6.9071875 19.81664062 6.859375 19.20703125 C6.67649096 15.20317703 6.64928308 12.65934781 8.5625 9.0625 C13.15338012 5.17790913 18.1501585 4.71464188 24 5 C24.125 8.375 24.125 8.375 24 12 C23.34 12.66 22.68 13.32 22 14 C21.74917923 16.32579259 21.59579164 18.66268398 21.5 21 C21.22222222 27.77777778 21.22222222 27.77777778 19 30 C19 30.33 19 30.66 19 31 C15.39565035 31.1716357 13.33725511 31.19940447 10 30 C5.12475159 25.55513881 0.78589605 20.72923491 0 14 C-0.91523437 13.80664062 -1.83046875 13.61328125 -2.7734375 13.4140625 C-3.96195313 13.15367188 -5.15046875 12.89328125 -6.375 12.625 C-8.15003906 12.24214844 -8.15003906 12.24214844 -9.9609375 11.8515625 C-13 11 -13 11 -15 9 C-10.71 9 -6.42 9 -2 9 C-2.04125 7.88625 -2.0825 6.7725 -2.125 5.625 C-2 2 -2 2 0 0 Z " fill="#D47B55" transform="translate(103,113)"/>
<path d="M0 0 C1.44010481 0.25662245 2.8770687 0.53090821 4.3125 0.8125 C5.11300781 0.96332031 5.91351563 1.11414063 6.73828125 1.26953125 C10.68728272 2.54494278 11.86226072 4.7566606 13.875 8.3125 C17.26211763 14.86974826 17.26211763 14.86974826 23.25 18.62890625 C27.76078269 19.26663217 27.76078269 19.26663217 32 18 C33.83436009 18.08417159 35.66766275 18.19207577 37.5 18.3125 C43.54507378 18.3921357 46.82472478 16.81413149 51.74609375 13.47265625 C55.42409377 11.06952625 58.9891421 9.69063725 63.4375 10.375 C63.953125 10.58125 64.46875 10.7875 65 11 C61.1141746 13.49432983 57.1032674 15.27768351 52.8125 16.9375 C52.15338623 17.19692383 51.49427246 17.45634766 50.81518555 17.72363281 C48.87813023 18.4858923 46.93915239 19.24309512 45 20 C43.10321329 20.74758558 41.20721839 21.49718778 39.3125 22.25 C38.19294922 22.69085938 38.19294922 22.69085938 37.05078125 23.140625 C34.98264024 24.00727457 32.99330818 24.97409872 31 26 C31 25.34 31 24.68 31 24 C30.34 24 29.68 24 29 24 C29 23.34 29 22.68 29 22 C21.75062891 22.82184072 15.94916347 24.0432041 9.7421875 27.9765625 C8 29 8 29 6 29 C5.34 27.35 4.68 25.7 4 24 C4.66 23.34 5.32 22.68 6 22 C3.525 21.01 3.525 21.01 1 20 C1.49306641 19.19949219 1.49306641 19.19949219 1.99609375 18.3828125 C3.25612807 15.39206956 3.16178991 13.1078794 3.0625 9.875 C2.90277778 4.19444444 2.90277778 4.19444444 4 2 C2.68 1.67 1.36 1.34 0 1 C0 0.67 0 0.34 0 0 Z " fill="#F3B494" transform="translate(92,124)"/>
<path d="M0 0 C0.33 0 0.66 0 1 0 C1.12060791 1.25659424 1.12060791 1.25659424 1.24365234 2.53857422 C1.545972 5.64414322 1.85621538 8.74878815 2.171875 11.85302734 C2.30690015 13.19711182 2.43875537 14.54151866 2.56738281 15.88623047 C2.75273783 17.81820012 2.95041571 19.74897504 3.1484375 21.6796875 C3.26364746 22.84226074 3.37885742 24.00483398 3.49755859 25.20263672 C3.74838863 28.12903185 3.74838863 28.12903185 6 30 C6 30.99 6 31.98 6 33 C1.64893586 34.98416582 -2.6914788 36.9275832 -7.1875 38.5625 C-10.59197062 39.80421073 -13.78853033 41.31397843 -17 43 C-17.66 42.34 -18.32 41.68 -19 41 C-16.89833613 36.90728614 -14.99649968 35.19807482 -11 33 C-9.24850835 31.41754725 -9.24850835 31.41754725 -8 30 C-8.33 29.67 -8.66 29.34 -9 29 C-9.07210404 26.15189035 -8.99622599 23.31696073 -8.9375 20.46875 C-8.71492704 18.05541144 -8.71492704 18.05541144 -10 17 C-10.04063832 15.33382885 -10.042721 13.66611905 -10 12 C-11.051875 12.04125 -12.10375 12.0825 -13.1875 12.125 C-16.79735482 12.0066441 -18.89397921 11.77486902 -22 10 C-23.375 8.125 -23.375 8.125 -24 6 C-23.625 3.75 -23.625 3.75 -23 2 C-21.5393715 4.64738916 -21 5.89448334 -21 9 C-20.26394531 9.04898438 -19.52789062 9.09796875 -18.76953125 9.1484375 C-17.30580078 9.26058594 -17.30580078 9.26058594 -15.8125 9.375 C-14.36810547 9.47941406 -14.36810547 9.47941406 -12.89453125 9.5859375 C-9.98491062 10.00215853 -7.67109226 10.79874096 -5 12 C-4.731875 11.13375 -4.46375 10.2675 -4.1875 9.375 C-3.02888013 6.08208036 -1.61790161 3.08872125 0 0 Z " fill="#F2B396" transform="translate(178,92)"/>
<path d="M0 0 C0.66 0 1.32 0 2 0 C2.12117188 0.58007812 2.24234375 1.16015625 2.3671875 1.7578125 C3.33866621 6.28639788 4.50150209 10.61154185 6 15 C6 15.66 6 16.32 6 17 C5.34 17 4.68 17 4 17 C4 21.62 4 26.24 4 31 C5.32 31.33 6.64 31.66 8 32 C6.68 32.66 5.36 33.32 4 34 C4 34.66 4 35.32 4 36 C3.34 36 2.68 36 2 36 C2 36.66 2 37.32 2 38 C1.22914063 38.27714844 0.45828125 38.55429688 -0.3359375 38.83984375 C-1.84027344 39.38318359 -1.84027344 39.38318359 -3.375 39.9375 C-4.87160156 40.47697266 -4.87160156 40.47697266 -6.3984375 41.02734375 C-8.93504165 41.92349292 -8.93504165 41.92349292 -11 43 C-13.6723621 43.13415472 -16.32250488 43.04318541 -19 43 C-19.66 41.68 -20.32 40.36 -21 39 C-21.99 39 -22.98 39 -24 39 C-23.505 30.09 -23.505 30.09 -23 21 C-18.73173127 25.26826873 -18.43731081 26.31495945 -18 32 C-17.01 31.67 -16.02 31.34 -15 31 C-15 33.31 -15 35.62 -15 38 C-12.36 38 -9.72 38 -7 38 C-7.34227572 35.02934491 -7.34227572 35.02934491 -8 32 C-8.66 31.67 -9.32 31.34 -10 31 C-10 30.34 -10 29.68 -10 29 C-7.36 29 -4.72 29 -2 29 C-1.02700338 25.68973391 -0.80653218 22.58290092 -0.68359375 19.140625 C-0.64169922 18.02558594 -0.59980469 16.91054687 -0.55664062 15.76171875 C-0.51732422 14.60285156 -0.47800781 13.44398437 -0.4375 12.25 C-0.39431641 11.07566406 -0.35113281 9.90132812 -0.30664062 8.69140625 C-0.20065206 5.79438549 -0.09858362 2.89728065 0 0 Z " fill="#B56146" transform="translate(151,97)"/>
<path d="M0 0 C3.5 0.5 3.5 0.5 5.875 2.125 C8.60271087 6.11165434 8.72499755 9.93092899 7.94140625 14.5859375 C7.65898532 16.01774596 7.36581739 17.44747221 7.0625 18.875 C6.91490234 19.61105469 6.76730469 20.34710938 6.61523438 21.10546875 C6.2528781 22.90556123 5.87773891 24.70307253 5.5 26.5 C5.17 26.5 4.84 26.5 4.5 26.5 C4.375 18.75 4.375 18.75 5.5 16.5 C5.69758231 14.42435324 5.69758231 14.42435324 5.6875 12.125 C5.70167969 11.35414062 5.71585938 10.58328125 5.73046875 9.7890625 C5.47801607 7.28165112 4.75193467 5.66738098 3.5 3.5 C1.13143358 3.17611039 1.13143358 3.17611039 -1.5 3.5 C-6.21492199 7.99764448 -8.36414165 14.26476676 -9.95703125 20.43359375 C-10.5 22.5 -10.5 22.5 -11.5 24.5 C-11.84231477 26.36978658 -12.14971122 28.24604847 -12.4375 30.125 C-14.39760638 42.29521277 -14.39760638 42.29521277 -16.5 46.5 C-16.69666661 48.15312129 -16.84405846 49.81226513 -16.96484375 51.47265625 C-17.08182617 52.94508789 -17.08182617 52.94508789 -17.20117188 54.44726562 C-17.35899657 56.527682 -17.51262859 58.60842059 -17.66210938 60.68945312 C-17.78102539 62.15995117 -17.78102539 62.15995117 -17.90234375 63.66015625 C-17.96929443 64.56386963 -18.03624512 65.46758301 -18.10522461 66.39868164 C-18.30063843 67.43883423 -18.30063843 67.43883423 -18.5 68.5 C-19.49 68.995 -19.49 68.995 -20.5 69.5 C-20.83 68.51 -21.16 67.52 -21.5 66.5 C-21.59796875 67.21285156 -21.6959375 67.92570312 -21.796875 68.66015625 C-23.16891892 77.44833411 -23.16891892 77.44833411 -25.4375 81.125 C-28.32615695 85.85189318 -30.5 90.90329124 -30.5 96.5 C-31.16 96.5 -31.82 96.5 -32.5 96.5 C-32.995 97.49 -32.995 97.49 -33.5 98.5 C-32.71659244 92.12468328 -31.19363996 86.50527887 -28.75 80.5625 C-24.87505847 70.92391002 -23.08449233 60.84894028 -21 50.70703125 C-10.88930282 1.55561469 -10.88930282 1.55561469 0 0 Z " fill="#FBDCCD" transform="translate(109.5,21.5)"/>
<path d="M0 0 C6.11644698 3.27066874 9.69007371 8.61040125 12 15 C14.03150284 22.27025895 14.0573621 28.89898299 13.5 36.375 C12.68217411 48.32906379 12.68217411 48.32906379 15 60 C15.99 60.495 15.99 60.495 17 61 C16.01 61 15.02 61 14 61 C14 60.34 14 59.68 14 59 C12.68 58.67 11.36 58.34 10 58 C9.00749455 52.29309366 8.89522488 46.78591511 9 41 C9.66 41 10.32 41 11 41 C10.67 33.41 10.34 25.82 10 18 C9.01 17.67 8.02 17.34 7 17 C6.15625 15.07421875 6.15625 15.07421875 5.5 12.6875 C4.5334512 9.20677366 3.54707781 6.62302279 1 4 C-2.4462583 2.96371254 -5.53004585 3.09844092 -9 4 C-11.86116179 6.32532583 -13.9453447 8.95203452 -16 12 C-21.68595041 10.14876033 -21.68595041 10.14876033 -24.375 8.875 C-27.97014911 7.67661696 -31.25107872 7.34602996 -35 8 C-37.7905817 9.89816542 -37.7905817 9.89816542 -40 12 C-40.99 12 -41.98 12 -43 12 C-43 12.66 -43 13.32 -43 14 C-43.66 13.67 -44.32 13.34 -45 13 C-39.14368858 5.51693541 -39.14368858 5.51693541 -33.95703125 4.6640625 C-27.83206455 4.55249662 -23.38416512 6.14881091 -18 9 C-17.9071875 7.88625 -17.9071875 7.88625 -17.8125 6.75 C-17 4 -17 4 -15.1875 1.6875 C-10.18447546 -0.96116005 -5.52404475 -1.05322254 0 0 Z " fill="#FBEADB" transform="translate(171,62)"/>
<path d="M0 0 C0.66 0 1.32 0 2 0 C1.855625 1.15757813 1.71125 2.31515625 1.5625 3.5078125 C1.37481224 5.04685211 1.18732273 6.58591591 1 8.125 C0.90460938 8.88554688 0.80921875 9.64609375 0.7109375 10.4296875 C0.20169812 14.64909952 -0.10888068 18.74004344 0 23 C0.81984375 23.19335938 1.6396875 23.38671875 2.484375 23.5859375 C3.56203125 23.84632812 4.6396875 24.10671875 5.75 24.375 C7.35101563 24.75785156 7.35101563 24.75785156 8.984375 25.1484375 C11.55852722 25.87533541 13.67600186 26.7026224 16 28 C16 27.34 16 26.68 16 26 C17.423125 25.319375 17.423125 25.319375 18.875 24.625 C22.00313679 23.19761746 22.00313679 23.19761746 24 21 C31.44859248 20.03444172 37.40436904 22.6514489 44 26 C46 28 46 28 46 31 C47.65 30.34 49.3 29.68 51 29 C50.360625 30.0725 49.72125 31.145 49.0625 32.25 C47.59398727 34.80822182 46.47145458 37.05340886 46 40 C45.01 40 44.02 40 43 40 C42.505 34.06 42.505 34.06 42 28 C40.906875 27.87625 39.81375 27.7525 38.6875 27.625 C35 27 35 27 32 25 C28.23329891 25.09912371 27.08132909 25.92245366 24.3125 28.5625 C23.549375 29.366875 22.78625 30.17125 22 31 C21.34 31 20.68 31 20 31 C20 29.68 20 28.36 20 27 C19.01 27.66 18.02 28.32 17 29 C12.45468578 29.21993456 8.43409099 29.10852275 4 28 C1.08772731 31.28804981 -0.49701212 33.59885603 -1 38 C-1.66 38 -2.32 38 -3 38 C-3.99 36.02 -4.98 34.04 -6 32 C-6.99 32.495 -6.99 32.495 -8 33 C-7.67 31.68 -7.34 30.36 -7 29 C-6.34 29 -5.68 29 -5 29 C-5 28.34 -5 27.68 -5 27 C-4.34 27 -3.68 27 -3 27 C-2.95101562 25.88882813 -2.90203125 24.77765625 -2.8515625 23.6328125 C-2.46083081 15.60431402 -1.98094455 7.82761584 0 0 Z " fill="#F6CCB0" transform="translate(112,48)"/>
<path d="M0 0 C0.99 0.33 1.98 0.66 3 1 C3.34535282 11.6100061 3.34535282 11.6100061 1.9375 15.9375 C0.9917804 19.02685069 1.01712079 20.05136236 2 23 C1.67 23.66 1.34 24.32 1 25 C0.62504384 30.41480804 1.1250098 35.65283767 2 41 C3.16246499 48.67507003 3.16246499 48.67507003 2 51 C2.66 51 3.32 51 4 51 C4.33 50.34 4.66 49.68 5 49 C5.99 49.33 6.98 49.66 8 50 C6 54 6 54 4 58 C4.33 58.33 4.66 58.66 5 59 C5.51680455 61.69361343 5.98057603 64.37806719 6.41015625 67.0859375 C6.60779823 68.30502304 6.60779823 68.30502304 6.80943298 69.54873657 C7.08787107 71.2717614 7.36430719 72.99511073 7.63891602 74.71875 C8.05972279 77.35758438 8.48734924 79.99524475 8.91601562 82.6328125 C9.18530273 84.30462201 9.45419592 85.97649503 9.72265625 87.6484375 C9.85076187 88.43914642 9.97886749 89.22985535 10.1108551 90.04452515 C10.58947805 93.06338551 11 95.9380385 11 99 C11.66 99 12.32 99 13 99 C14.53166168 103.08443115 13.63081652 106.79455657 13 111 C12.67 111 12.34 111 12 111 C10.91052171 106.18545872 9.8264374 101.369742 8.74682617 96.55297852 C8.38070714 94.92278201 8.01324632 93.29288612 7.64428711 91.66333008 C5.11510585 80.48731629 2.87285416 69.30487117 1 58 C0.83089111 56.98107666 0.66178223 55.96215332 0.48754883 54.91235352 C-2.53317165 36.17510637 -1.73348356 18.85393886 0 0 Z " fill="#F3E0D1" transform="translate(74,125)"/>
<path d="M0 0 C0.39824713 8.09769158 -0.40709271 16.11063907 -5 23 C-5.30838908 25.37786064 -5.30838908 25.37786064 -5.375 27.9375 C-5.66289793 31.33271006 -5.85457111 32.77666278 -7.75 35.6875 C-10 37 -10 37 -12.75 36.75 C-13.4925 36.5025 -14.235 36.255 -15 36 C-14.125 30.25 -14.125 30.25 -13 28 C-12.72428521 24.91899659 -12.55336467 21.83828524 -12.37890625 18.75 C-12 16 -12 16 -10 14 C-9.5875 12.7625 -9.175 11.525 -8.75 10.25 C-7.56805262 6.91130327 -4.15877105 0 0 0 Z " fill="#EF8D6F" transform="translate(113,33)"/>
<path d="M0 0 C0.71043457 -0.00644531 1.42086914 -0.01289062 2.15283203 -0.01953125 C7.63926795 0.11687548 10.96266569 1.52392121 14.75 5.4375 C15.875 7.5 15.875 7.5 15.5625 9.75 C15.335625 10.3275 15.10875 10.905 14.875 11.5 C14.215 11.5 13.555 11.5 12.875 11.5 C12.875 10.18 12.875 8.86 12.875 7.5 C12.215 7.5 11.555 7.5 10.875 7.5 C10.875 6.84 10.875 6.18 10.875 5.5 C6.85771467 4.60726993 2.91350523 4.35113453 -1.1875 4.25 C-2.18910156 4.22421875 -3.19070312 4.1984375 -4.22265625 4.171875 C-7.5468276 4.5476898 -9.34839579 5.70337375 -12.125 7.5 C-14.1875 7.125 -14.1875 7.125 -16.125 6.5 C-18.18214832 6.51382865 -18.18214832 6.51382865 -20.125 7.5 C-20.723125 8.28375 -21.32125 9.0675 -21.9375 9.875 C-24.64791786 13.12750143 -27.25766701 13.87164927 -31.125 15.5 C-32.81373879 17.14429829 -34.47805515 18.81384218 -36.125 20.5 C-39.64457219 23.04907933 -43.23309766 25.55404883 -47.125 27.5 C-42.77175982 17.24047179 -30.49861121 8.48015268 -20.69140625 3.89453125 C-13.70732095 1.25609903 -7.42643144 0.0642286 0 0 Z " fill="#FAE6DB" transform="translate(239.125,90.5)"/>
<path d="M0 0 C-0.0714624 0.54060059 -0.1429248 1.08120117 -0.21655273 1.63818359 C-1.15315304 9.62996088 -1.1131175 17.59305343 -1.0625 25.625 C-1.05747197 27.02473797 -1.05291138 28.4244777 -1.04882812 29.82421875 C-1.03713176 33.21616472 -1.0191995 36.6080882 -1 40 C-5.29 40.66 -9.58 41.32 -14 42 C-14.33 42.99 -14.66 43.98 -15 45 C-15.66 45 -16.32 45 -17 45 C-17.33 48.63 -17.66 52.26 -18 56 C-18.66 56 -19.32 56 -20 56 C-21.35438303 50.31159127 -20.38601735 46.93509556 -17.9375 41.75 C-14.83755842 38.95005277 -11.03959603 38.64362536 -7 38 C-6.855625 37.360625 -6.71125 36.72125 -6.5625 36.0625 C-6 34 -6 34 -5 33 C-5.33 33 -5.66 33 -6 33 C-6.22389218 30.47970021 -6.42942078 27.96002743 -6.625 25.4375 C-6.72167969 24.38079102 -6.72167969 24.38079102 -6.8203125 23.30273438 C-7.17983493 18.42671139 -6.53740473 14.70539025 -5 10 C-4.83071457 7.20755955 -4.83071457 7.20755955 -5 5 C-5.99 5.495 -5.99 5.495 -7 6 C-6.67 4.35 -6.34 2.7 -6 1 C-3 0 -3 0 0 0 Z " fill="#DF9269" transform="translate(128,78)"/>
<path d="M0 0 C0.33 0 0.66 0 1 0 C0.68932522 4.43762972 0.37612233 8.8750777 0.0625 13.3125 C-0.02451172 14.55580078 -0.11152344 15.79910156 -0.20117188 17.08007812 C-0.60646324 22.79918955 -1.02285622 28.51717598 -1.50390625 34.23046875 C-1.57552979 35.08406982 -1.64715332 35.9376709 -1.72094727 36.81713867 C-2 39 -2 39 -3 42 C-4.485 42.495 -4.485 42.495 -6 43 C-6.495 40.525 -6.495 40.525 -7 38 C-7.54398438 38.34289062 -8.08796875 38.68578125 -8.6484375 39.0390625 C-11.65264645 40.26669606 -13.45069174 39.94825783 -16.625 39.375 C-18.06746094 39.13910156 -18.06746094 39.13910156 -19.5390625 38.8984375 C-22 38 -22 38 -23.328125 36.1171875 C-24.20482614 33.35455948 -24.13083565 30.87838427 -24 28 C-19 34.59090909 -19 34.59090909 -19 37 C-14.545 36.505 -14.545 36.505 -10 36 C-9.83564453 35.05640625 -9.83564453 35.05640625 -9.66796875 34.09375 C-9.50941406 33.2378125 -9.35085937 32.381875 -9.1875 31.5 C-8.96126953 30.24703125 -8.96126953 30.24703125 -8.73046875 28.96875 C-8.14253203 26.57927455 -7.45141598 24.49233055 -6.55859375 22.21484375 C-4.89428025 17.91133915 -3.85607262 13.56366117 -2.875 9.0625 C-1.12621359 1.12621359 -1.12621359 1.12621359 0 0 Z " fill="#DF8F6C" transform="translate(152,78)"/>
<path d="M0 0 C2.375 0.75 2.375 0.75 4.1875 2.6875 C5.7756298 6.78320318 5.63021755 10.41130162 5.375 14.75 C5.045 14.75 4.715 14.75 4.375 14.75 C4.045 11.12 3.715 7.49 3.375 3.75 C-1.18812862 4.53977226 -2.9496021 4.86233419 -5.8125 8.625 C-9.58096332 16.45430742 -12.00103396 24.38622711 -12.3515625 33.08203125 C-12.625 35.75 -12.625 35.75 -13.61328125 38.84765625 C-15.14553287 43.9141274 -15.05080834 49.12070607 -15.1875 54.375 C-15.24769919 56.408964 -15.31137993 58.44282858 -15.37890625 60.4765625 C-15.40283447 61.36939941 -15.4267627 62.26223633 -15.45141602 63.18212891 C-15.62696682 65.77909564 -16.05833414 68.21213625 -16.625 70.75 C-15.635 70.75 -14.645 70.75 -13.625 70.75 C-13.625 73.06 -13.625 75.37 -13.625 77.75 C-13.955 77.75 -14.285 77.75 -14.625 77.75 C-14.625 76.1 -14.625 74.45 -14.625 72.75 C-16.275 72.42 -17.925 72.09 -19.625 71.75 C-19.9298253 46.95754257 -19.9298253 46.95754257 -16.625 40.75 C-15.32880323 36.31920974 -14.58967997 31.8428953 -14.1875 27.25 C-13.35645905 18.89585147 -9.03717507 2.58205002 0 0 Z " fill="#F8C2AF" transform="translate(110.625,23.25)"/>
<path d="M0 0 C3.25 -0.3125 3.25 -0.3125 7 0 C9.3125 2.25 9.3125 2.25 11 5 C11.61875 5.99 11.61875 5.99 12.25 7 C13.16040138 9.42773701 13.14287008 11.42833863 13 14 C13.66 14 14.32 14 15 14 C15.33 13.34 15.66 12.68 16 12 C17.01973129 15.05919388 17.11533602 17.12418025 17.09765625 20.32421875 C17.09443359 21.35224609 17.09121094 22.38027344 17.08789062 23.43945312 C17.07951172 24.51130859 17.07113281 25.58316406 17.0625 26.6875 C17.05798828 27.77095703 17.05347656 28.85441406 17.04882812 29.97070312 C17.03703743 32.64719085 17.02058063 35.32356777 17 38 C16.34 38 15.68 38 15 38 C14.34 35.03 13.68 32.06 13 29 C12.34 30.32 11.68 31.64 11 33 C10.34 33 9.68 33 9 33 C8.875 25.25 8.875 25.25 10 23 C10.23029956 20.62876754 10.41119942 18.25258057 10.5625 15.875 C10.64628906 14.59367187 10.73007813 13.31234375 10.81640625 11.9921875 C10.87699219 11.00476563 10.93757812 10.01734375 11 9 C10.34 9 9.68 9 9 9 C9 7.68 9 6.36 9 5 C4.9899066 4.82135369 4.9899066 4.82135369 1 5 C0.34 5.66 -0.32 6.32 -1 7 C-0.67 4.69 -0.34 2.38 0 0 Z " fill="#F8CAA9" transform="translate(165,65)"/>
<path d="M0 0 C0.66 0 1.32 0 2 0 C2.12117187 0.58007812 2.24234375 1.16015625 2.3671875 1.7578125 C3.33866621 6.28639788 4.50150209 10.61154185 6 15 C6 15.66 6 16.32 6 17 C5.34 17 4.68 17 4 17 C4 21.62 4 26.24 4 31 C5.32 31.33 6.64 31.66 8 32 C6.68 32.66 5.36 33.32 4 34 C4 34.66 4 35.32 4 36 C3.34 36 2.68 36 2 36 C2 36.66 2 37.32 2 38 C-0.64 38.33 -3.28 38.66 -6 39 C-6 36.36 -6 33.72 -6 31 C-4.68 31.99 -3.36 32.98 -2 34 C-1.07226123 26.64825496 -0.69807851 19.34049273 -0.4375 11.9375 C-0.37272461 10.20983398 -0.37272461 10.20983398 -0.30664062 8.44726562 C-0.20149148 5.63160509 -0.09934607 2.81587024 0 0 Z " fill="#A9523A" transform="translate(151,97)"/>
<path d="M0 0 C0 3.55768332 -0.7333771 4.27516005 -2.8125 7.0625 C-10.16964466 18.01104703 -9.89089825 29.28577847 -8 42 C-6.86819145 47.45975143 -5.49215532 52.84663974 -3.99633789 58.21728516 C-3.72684326 59.18843262 -3.45734863 60.15958008 -3.1796875 61.16015625 C-2.92944824 62.02261963 -2.67920898 62.88508301 -2.42138672 63.77368164 C-2 66 -2 66 -3 69 C-11.25 69 -19.5 69 -28 69 C-28 68.67 -28 68.34 -28 68 C-21.4 68 -14.8 68 -8 68 C-8.12375 65.03 -8.2475 62.06 -8.375 59 C-8.40899902 58.08089844 -8.44299805 57.16179687 -8.47802734 56.21484375 C-8.66140403 52.34484882 -8.96479684 48.76236032 -10.0234375 45.02734375 C-11.34631941 40.22179735 -11.29288044 35.51876369 -11.25 30.5625 C-11.25773437 29.67240234 -11.26546875 28.78230469 -11.2734375 27.86523438 C-11.248874 19.45837629 -10.72448021 12.46312281 -5 6 C-4.835 5.278125 -4.67 4.55625 -4.5 3.8125 C-4 2 -4 2 -1.9375 0.75 C-1.298125 0.5025 -0.65875 0.255 0 0 Z " fill="#F5E4D6" transform="translate(174,183)"/>
<path d="M0 0 C1.2476907 3.74307209 0.19264246 5.40217493 -1.10546875 8.98828125 C-2.4751383 13.59970144 -3.17633036 18.31001196 -3.90917969 23.05908203 C-4.79911896 28.60418521 -4.79911896 28.60418521 -5.99780273 30.96606445 C-7.07469177 33.15158518 -7.4466274 34.92991685 -7.78125 37.3359375 C-7.90113281 38.15320313 -8.02101563 38.97046875 -8.14453125 39.8125 C-8.26183594 40.658125 -8.37914063 41.50375 -8.5 42.375 C-9.26182681 47.81662007 -10.17034436 52.79547534 -12 58 C-12.12375 59.299375 -12.2475 60.59875 -12.375 61.9375 C-12.75970872 65.56475367 -13.98643427 68.02682083 -15.9453125 71.13671875 C-18.34204082 75.37093878 -20 80.13342974 -20 85 C-20.66 85 -21.32 85 -22 85 C-22.495 85.99 -22.495 85.99 -23 87 C-22.21659244 80.62468328 -20.69363996 75.00527887 -18.25 69.0625 C-14.37848555 59.43243459 -12.58724692 49.36879518 -10.51171875 39.234375 C-9.10018589 32.36546756 -7.51016084 25.55340772 -5.8125 18.75 C-5.45575195 17.2969043 -5.45575195 17.2969043 -5.09179688 15.81445312 C-3.72207809 10.37778221 -2.07303569 5.2101074 0 0 Z " fill="#FDF4EB" transform="translate(99,33)"/>
<path d="M0 0 C2.55698318 2.48595586 4.82899289 4.73127454 6.75 7.75 C9.70783023 10.70783023 11.91855838 10.74460745 15.9765625 11.0546875 C18.07079556 11.1408045 18.07079556 11.1408045 20 10 C21.83436009 10.08417159 23.66766275 10.19207577 25.5 10.3125 C31.54507378 10.3921357 34.82472478 8.81413149 39.74609375 5.47265625 C43.42409377 3.06952625 46.9891421 1.69063725 51.4375 2.375 C51.953125 2.58125 52.46875 2.7875 53 3 C49.11422496 5.4942975 45.10335867 7.2779826 40.8125 8.9375 C39.48045297 9.46089734 38.14842176 9.98433495 36.81640625 10.5078125 C36.16816895 10.76079102 35.51993164 11.01376953 34.85205078 11.27441406 C32.31107414 12.26990346 29.78072083 13.29126656 27.25 14.3125 C24.8414845 15.28327921 22.46575769 16.17808077 20 17 C20 15.68 20 14.36 20 13 C19.26394531 13.03480469 18.52789062 13.06960937 17.76953125 13.10546875 C8.02498402 13.37579305 8.02498402 13.37579305 4 10 C3.34 9.34 2.68 8.68 2 8 C2 7.01 2 6.02 2 5 C1.34 4.67 0.68 4.34 0 4 C0 2.68 0 1.36 0 0 Z " fill="#DA977C" transform="translate(104,132)"/>
<path d="M0 0 C3 3.625 3 3.625 3 7 C3.75925781 7.03738281 4.51851562 7.07476562 5.30078125 7.11328125 C6.29464844 7.17902344 7.28851563 7.24476562 8.3125 7.3125 C9.29863281 7.37050781 10.28476563 7.42851563 11.30078125 7.48828125 C14.28169894 8.05340457 15.23310764 8.58214729 17 11 C17.6875 13.6875 17.6875 13.6875 18 16 C18.78375 16.12375 19.5675 16.2475 20.375 16.375 C23 17 23 17 25 19 C25 19.99 25 20.98 25 22 C22.69 22.33 20.38 22.66 18 23 C18 23.99 18 24.98 18 26 C19.093125 25.938125 20.18625 25.87625 21.3125 25.8125 C25 26 25 26 26.73046875 27.51171875 C27.14941406 28.00285156 27.56835938 28.49398437 28 29 C27.39671875 29.06058594 26.7934375 29.12117188 26.171875 29.18359375 C25.37265625 29.26738281 24.5734375 29.35117188 23.75 29.4375 C22.96109375 29.51871094 22.1721875 29.59992188 21.359375 29.68359375 C19.17635361 29.97634993 17.1226818 30.42064419 15 31 C15 28.74606329 15.00646631 26.49203536 15.03515625 24.23828125 C15.04417969 23.27277344 15.05320313 22.30726562 15.0625 21.3125 C15.07410156 20.33925781 15.08570313 19.36601563 15.09765625 18.36328125 C15.26902159 16.04325177 15.26902159 16.04325177 14 15 C13.95936168 13.33382885 13.957279 11.66611905 14 10 C12.948125 10.04125 11.89625 10.0825 10.8125 10.125 C7.20264518 10.0066441 5.10602079 9.77486902 2 8 C-0.06694582 5.04722026 0 3.76276389 0 0 Z " fill="#E78E6E" transform="translate(154,94)"/>
<path d="M0 0 C1.32 0 2.64 0 4 0 C4 5.28 4 10.56 4 16 C3.34 16 2.68 16 2 16 C1.87625 16.928125 1.7525 17.85625 1.625 18.8125 C1 22 1 22 -1 25 C-1.33074186 27.54545633 -1.44034179 30.06160277 -1.55859375 32.625 C-2.06889858 35.37071092 -2.86522651 36.26941029 -5 38 C-5.66 37.67 -6.32 37.34 -7 37 C-6.27490234 36.4121875 -6.27490234 36.4121875 -5.53515625 35.8125 C-3.55835703 33.47856911 -3.57695969 32.02312613 -3.4375 29 C-3.25634196 25.31096349 -3.12539942 24.18809914 -1 21 C1.2476536 14.61790103 2.38206655 8.74984231 2 2 C-2.18055494 5.59992231 -4.13984733 9.00191715 -6.203125 14.109375 C-7 16 -7 16 -8 17 C-8.24545998 20.00461202 -8.38405999 23.00824354 -8.5234375 26.01953125 C-9.03408083 29.21314488 -9.85666506 30.63316222 -12 33 C-9.94989992 9.74754905 -9.94989992 9.74754905 -3.3125 2.9375 C-2.549375 2.298125 -1.78625 1.65875 -1 1 C-0.67 0.67 -0.34 0.34 0 0 Z " fill="#F3997D" transform="translate(110,32)"/>
<path d="M0 0 C0.66 0 1.32 0 2 0 C1.855625 1.15757813 1.71125 2.31515625 1.5625 3.5078125 C1.37481224 5.04685211 1.18732273 6.58591591 1 8.125 C0.90460938 8.88554688 0.80921875 9.64609375 0.7109375 10.4296875 C0.20169812 14.64909952 -0.10888068 18.74004344 0 23 C0.85464844 23.19335938 1.70929688 23.38671875 2.58984375 23.5859375 C3.69457031 23.84632812 4.79929687 24.10671875 5.9375 24.375 C7.03964844 24.63023438 8.14179687 24.88546875 9.27734375 25.1484375 C10.17582031 25.42945312 11.07429688 25.71046875 12 26 C12.33 26.66 12.66 27.32 13 28 C9.37 27.34 5.74 26.68 2 26 C0.97493954 28.93850666 0.04545662 31.74430649 -0.5 34.8125 C-0.665 35.534375 -0.83 36.25625 -1 37 C-1.99 37.495 -1.99 37.495 -3 38 C-3.99 36.02 -4.98 34.04 -6 32 C-6.99 32.495 -6.99 32.495 -8 33 C-7.67 31.68 -7.34 30.36 -7 29 C-6.34 29 -5.68 29 -5 29 C-5 28.34 -5 27.68 -5 27 C-4.34 27 -3.68 27 -3 27 C-2.95101562 25.88882813 -2.90203125 24.77765625 -2.8515625 23.6328125 C-2.46083081 15.60431402 -1.98094455 7.82761584 0 0 Z " fill="#FBE7DA" transform="translate(112,48)"/>
<path d="M0 0 C0.99 0.33 1.98 0.66 3 1 C3.34535282 11.6100061 3.34535282 11.6100061 1.9375 15.9375 C0.9917804 19.02685069 1.01712079 20.05136236 2 23 C1.67 23.66 1.34 24.32 1 25 C0.71345585 29.1380347 0.85545423 33.16484668 1.5625 37.25 C2.21940239 42.88059195 1.54983335 48.37478186 1 54 C0.67 54 0.34 54 0 54 C-2.46183953 35.64610705 -1.69367502 18.42096803 0 0 Z " fill="#FAF2EB" transform="translate(74,125)"/>
<path d="M0 0 C0.33 0 0.66 0 1 0 C1 1.98 1 3.96 1 6 C0.34 6 -0.32 6 -1 6 C-1 9.3 -1 12.6 -1 16 C-5.62 16.66 -10.24 17.32 -15 18 C-15 18.66 -15 19.32 -15 20 C-13.35 20 -11.7 20 -10 20 C-10 20.33 -10 20.66 -10 21 C-12.97 21.66 -15.94 22.32 -19 23 C-17.80625551 19.60241954 -16.77585351 17.3175149 -14 15 C-12.02734375 14.3671875 -12.02734375 14.3671875 -9.9375 13.875 C-7.77575715 13.24654514 -7.77575715 13.24654514 -6 12 C-5.049601 9.61536252 -4.70093095 7.51107095 -4.44921875 4.9609375 C-4.30097656 4.31382813 -4.15273437 3.66671875 -4 3 C-3.01 2.67 -2.02 2.34 -1 2 C-0.67 1.34 -0.34 0.68 0 0 Z " fill="#FCCCB2" transform="translate(95,102)"/>
<path d="M0 0 C1.00496852 3.01490557 1.10335303 5.04181692 1.0625 8.1875 C1.05347656 9.08855469 1.04445313 9.98960938 1.03515625 10.91796875 C1.02355469 11.60503906 1.01195313 12.29210938 1 13 C0.67 13 0.34 13 0 13 C0 10.36 0 7.72 0 5 C-1.6396875 5.61875 -1.6396875 5.61875 -3.3125 6.25 C-3.92738281 6.48203125 -4.54226562 6.7140625 -5.17578125 6.953125 C-10.71674386 10.13294937 -12.31609969 17.25311086 -14 23 C-14.53067334 26.02744792 -14.79845121 28.92638103 -15 32 C-15.33 32 -15.66 32 -16 32 C-16.93583673 21.99694517 -14.84807422 11.41961598 -8.953125 3.1171875 C-5.98781318 -0.09721052 -4.24124205 -0.11161163 0 0 Z " fill="#F9AB98" transform="translate(114,27)"/>
<path d="M0 0 C-0.99 0.495 -0.99 0.495 -2 1 C-2.33 12.55 -2.66 24.1 -3 36 C-4.32 36.66 -5.64 37.32 -7 38 C-7 35.17555626 -6.98538594 33.98538594 -5 32 C-5.33 32 -5.66 32 -6 32 C-6.22389218 29.47970021 -6.42942078 26.96002743 -6.625 24.4375 C-6.72167969 23.38079102 -6.72167969 23.38079102 -6.8203125 22.30273438 C-7.17983493 17.42671139 -6.53740473 13.70539025 -5 9 C-4.83071457 6.20755955 -4.83071457 6.20755955 -5 4 C-5.99 4.495 -5.99 4.495 -7 5 C-6.67 3.35 -6.34 1.7 -6 0 C-3 -1 -3 -1 0 0 Z " fill="#E9A988" transform="translate(128,79)"/>
<path d="M0 0 C0.33 0 0.66 0 1 0 C1.05394705 2.60444348 1.09364469 5.20776998 1.125 7.8125 C1.14175781 8.55048828 1.15851563 9.28847656 1.17578125 10.04882812 C1.21074628 13.91246426 1.19397555 15.70903668 -1 19 C-2.32 19 -3.64 19 -5 19 C-5 18.34 -5 17.68 -5 17 C-5.99 17.33 -6.98 17.66 -8 18 C-10.125 17.75 -10.125 17.75 -12 17 C-12.33 16.01 -12.66 15.02 -13 14 C-16.50294871 12.28432339 -16.50294871 12.28432339 -20 11 C-17.12259913 9.92097467 -14.96449654 10.08685317 -12 10.5625 C-8.70706702 11.05398253 -6.81903696 10.99681784 -4 9 C-4 10.65 -4 12.3 -4 14 C-3.01 14 -2.02 14 -1 14 C-0.67 9.38 -0.34 4.76 0 0 Z " fill="#D17352" transform="translate(150,106)"/>
<path d="M0 0 C0.66 0.33 1.32 0.66 2 1 C2.6328125 2.92578125 2.6328125 2.92578125 3.125 5.3125 C3.29257813 6.09238281 3.46015625 6.87226562 3.6328125 7.67578125 C4 10 4 10 4 14 C1.95737483 13.71512349 -0.08407027 13.42177949 -2.125 13.125 C-3.26195313 12.96257812 -4.39890625 12.80015625 -5.5703125 12.6328125 C-8.86078915 12.02568583 -11.85779103 11.13654367 -15 10 C-15 9.67 -15 9.34 -15 9 C-10.71 9 -6.42 9 -2 9 C-2.04125 7.88625 -2.0825 6.7725 -2.125 5.625 C-2 2 -2 2 0 0 Z " fill="#C75D33" transform="translate(103,113)"/>
<path d="M0 0 C0.54398438 0.32097656 1.08796875 0.64195313 1.6484375 0.97265625 C0.59785156 1.1428125 -0.45273438 1.31296875 -1.53515625 1.48828125 C-12.92776255 3.26812803 -12.92776255 3.26812803 -23.3515625 7.97265625 C-23.6815625 8.63265625 -24.0115625 9.29265625 -24.3515625 9.97265625 C-26.19921875 10.82421875 -26.19921875 10.82421875 -28.4140625 11.59765625 C-29.14753906 11.85804687 -29.88101563 12.1184375 -30.63671875 12.38671875 C-31.20261719 12.58007812 -31.76851562 12.7734375 -32.3515625 12.97265625 C-29.92500861 6.42096076 -23.13554237 2.80266473 -17.1484375 -0.08203125 C-11.73047341 -1.91324258 -5.31542919 -2.32218917 0 0 Z " fill="#FAC1AC" transform="translate(246.3515625,95.02734375)"/>
<path d="M0 0 C1.32296047 6.37426409 1.32296047 6.37426409 0 8.9375 C-3.0216934 10.54277462 -5.64709907 10.24836303 -9 10 C-10 9 -10 9 -10.25 5.5625 C-10.1675 4.386875 -10.085 3.21125 -10 2 C-6.3558226 -0.4294516 -4.28758728 -0.16179575 0 0 Z " fill="#DA876C" transform="translate(123,130)"/>
<path d="M0 0 C1.30776041 3.92328124 1.14471297 7.66284463 1.125 11.75 C1.12886719 12.53632812 1.13273437 13.32265625 1.13671875 14.1328125 C1.12888554 18.84840429 0.95677487 23.37356962 0 28 C-0.66 28.33 -1.32 28.66 -2 29 C-3.83371357 21.74700795 -6.4835556 10.9671112 -3 4 C-2.34 4 -1.68 4 -1 4 C-0.67 2.68 -0.34 1.36 0 0 Z " fill="#EA9A75" transform="translate(102,80)"/>
<path d="M0 0 C0.33 0 0.66 0 1 0 C1.01981934 0.69448242 1.03963867 1.38896484 1.06005859 2.10449219 C1.15664048 5.31997525 1.26576748 8.53492277 1.375 11.75 C1.4059375 12.84183594 1.436875 13.93367188 1.46875 15.05859375 C1.72932802 22.39820787 2.07231971 29.87790702 4 37 C4.66 37.33 5.32 37.66 6 38 C5.01 38 4.02 38 3 38 C3 37.34 3 36.68 3 36 C1.68 35.67 0.36 35.34 -1 35 C-1.99250545 29.29309366 -2.10477512 23.78591511 -2 18 C-1.34 18 -0.68 18 0 18 C0 12.06 0 6.12 0 0 Z " fill="#F9D7C3" transform="translate(182,85)"/>
<path d="M0 0 C0.33 1.32 0.66 2.64 1 4 C0.01 4.33 -0.98 4.66 -2 5 C-2.33 7.31 -2.66 9.62 -3 12 C-3.75925781 12.06058594 -4.51851562 12.12117188 -5.30078125 12.18359375 C-6.79158203 12.30927734 -6.79158203 12.30927734 -8.3125 12.4375 C-9.29863281 12.51871094 -10.28476563 12.59992188 -11.30078125 12.68359375 C-14.09375599 12.91812559 -14.09375599 12.91812559 -17 14 C-19.35188447 13.40206327 -21.68925595 12.74118205 -24 12 C-24 11.67 -24 11.34 -24 11 C-20.00204108 10.04380267 -16.29196078 9.8960408 -12.1875 9.9375 C-11.02605469 9.94652344 -9.86460938 9.95554687 -8.66796875 9.96484375 C-7.78753906 9.97644531 -6.90710938 9.98804687 -6 10 C-6.061875 8.906875 -6.12375 7.81375 -6.1875 6.6875 C-6 3 -6 3 -4.6875 1.0625 C-3 0 -3 0 0 0 Z " fill="#EE966F" transform="translate(104,110)"/>
<path d="M0 0 C5.28061761 0.09707018 9.76479828 2.20146479 14.5 4.375 C14.5 4.705 14.5 5.035 14.5 5.375 C12.52 5.375 10.54 5.375 8.5 5.375 C8.5 4.715 8.5 4.055 8.5 3.375 C6.72925083 3.34794271 4.95838289 3.32857805 3.1875 3.3125 C2.20136719 3.30089844 1.21523437 3.28929688 0.19921875 3.27734375 C-2.59963849 3.25170138 -2.59963849 3.25170138 -5.5 4.375 C-5.83 6.355 -6.16 8.335 -6.5 10.375 C-6.83 9.055 -7.16 7.735 -7.5 6.375 C-8.49 7.035 -9.48 7.695 -10.5 8.375 C-14.38523632 8.56299531 -17.50637066 8.64598982 -21.25 7.625 C-21.9925 7.5425 -22.735 7.46 -23.5 7.375 C-25.83454661 9.20858335 -25.83454661 9.20858335 -27.5 11.375 C-26.99396008 9.20625748 -26.50016187 7.37532373 -25.5 5.375 C-20.43437617 5.12171881 -16.34241633 6.03916101 -11.5 7.375 C-11.5 6.715 -11.5 6.055 -11.5 5.375 C-10.55125 4.92125 -9.6025 4.4675 -8.625 4 C-1.17474048 0.12586505 -1.17474048 0.12586505 0 0 Z " fill="#F7D3BC" transform="translate(139.5,68.625)"/>
<path d="M0 0 C0.66 0.99 1.32 1.98 2 3 C2.66 2.34 3.32 1.68 4 1 C4.66 1.66 5.32 2.32 6 3 C5.625 5.125 5.625 5.125 5 7 C5 6.34 5 5.68 5 5 C3.35 5.33 1.7 5.66 0 6 C-0.33 8.97 -0.66 11.94 -1 15 C-6.94 15.33 -12.88 15.66 -19 16 C-15.47320901 13.64880601 -13.97120515 13.78556548 -9.8125 13.875 C-8.72582031 13.89304687 -7.63914062 13.91109375 -6.51953125 13.9296875 C-5.27236328 13.96449219 -5.27236328 13.96449219 -4 14 C-4.03480469 13.38511719 -4.06960937 12.77023438 -4.10546875 12.13671875 C-4.13253906 11.32847656 -4.15960938 10.52023438 -4.1875 9.6875 C-4.22230469 8.88699219 -4.25710937 8.08648437 -4.29296875 7.26171875 C-3.93326052 4.48477122 -3.07948025 3.78615306 -1 2 C-0.67 1.34 -0.34 0.68 0 0 Z " fill="#F2AA85" transform="translate(99,105)"/>
<path d="M0 0 C0.66 0 1.32 0 2 0 C3.76615118 4.70973649 4.48594831 9.03083364 5 14 C7.31 14.66 9.62 15.32 12 16 C12 16.66 12 17.32 12 18 C9.36 18 6.72 18 4 18 C3.34 16.68 2.68 15.36 2 14 C1.01 14 0.02 14 -1 14 C-0.67 9.38 -0.34 4.76 0 0 Z " fill="#952E17" transform="translate(128,122)"/>
<path d="M0 0 C0.75539062 -0.01611328 1.51078125 -0.03222656 2.2890625 -0.04882812 C6.91488786 -0.05287168 9.83507368 0.39169213 13.625 3.3125 C15.5 5.25 15.5 5.25 16.625 7.3125 C16.3125 9.5625 16.3125 9.5625 15.625 11.3125 C14.965 11.3125 14.305 11.3125 13.625 11.3125 C13.625 9.9925 13.625 8.6725 13.625 7.3125 C12.965 7.3125 12.305 7.3125 11.625 7.3125 C11.625 6.6525 11.625 5.9925 11.625 5.3125 C6.93613215 2.96329126 2.4475651 2.88204075 -2.6875 2.6875 C-3.52345703 2.64882812 -4.35941406 2.61015625 -5.22070312 2.5703125 C-7.27179259 2.47654841 -9.32336515 2.39345755 -11.375 2.3125 C-7.55898858 -0.23150761 -4.42085144 -0.01866914 0 0 Z " fill="#FBE3D9" transform="translate(238.375,90.6875)"/>
<path d="M0 0 C2.55832852 2.48726384 4.94085627 4.92346105 7.125 7.75 C10.46804473 11.76165367 15.27831233 11.48368748 20.1875 12.0625 C20.93708984 12.15337891 21.68667969 12.24425781 22.45898438 12.33789062 C24.30565535 12.5613731 26.15278554 12.78105513 28 13 C25.33440687 14.77706209 22.9719385 15.87548273 20 17 C20 15.68 20 14.36 20 13 C19.26394531 13.03480469 18.52789062 13.06960937 17.76953125 13.10546875 C8.02498402 13.37579305 8.02498402 13.37579305 4 10 C3.34 9.34 2.68 8.68 2 8 C2 7.01 2 6.02 2 5 C1.34 4.67 0.68 4.34 0 4 C0 2.68 0 1.36 0 0 Z " fill="#E5A17C" transform="translate(104,132)"/>
<path d="M0 0 C1.9375 0.75 1.9375 0.75 4 2 C4.75 4.125 4.75 4.125 5 6 C6.32 5.01 7.64 4.02 9 3 C8.34 5.97 7.68 8.94 7 12 C6.34 12 5.68 12 5 12 C5 12.66 5 13.32 5 14 C3.68 14 2.36 14 1 14 C0.04738513 9.23692563 -0.08333357 4.8333472 0 0 Z " fill="#F7CDB4" transform="translate(104,100)"/>
<path d="M0 0 C1.0592918 3.17787541 1.11458939 5.42588943 1.09765625 8.76171875 C1.09443359 9.87998047 1.09121094 10.99824219 1.08789062 12.15039062 C1.07951172 13.31763672 1.07113281 14.48488281 1.0625 15.6875 C1.05798828 16.86634766 1.05347656 18.04519531 1.04882812 19.25976562 C1.03703273 22.17322789 1.0205727 25.08658863 1 28 C1.99 28 2.98 28 4 28 C4 30.31 4 32.62 4 35 C3.67 35 3.34 35 3 35 C3 33.35 3 31.7 3 30 C1.35 29.67 -0.3 29.34 -2 29 C-2.3 4.6 -2.3 4.6 0 0 Z " fill="#F9CEB7" transform="translate(93,66)"/>
<path d="M0 0 C3.25 -0.3125 3.25 -0.3125 7 0 C9.3125 2.25 9.3125 2.25 11 5 C11.61875 5.99 11.61875 5.99 12.25 7 C13.16040138 9.42773701 13.14287008 11.42833863 13 14 C13.66 14 14.32 14 15 14 C15.33 13.34 15.66 12.68 16 12 C15.67 13.32 15.34 14.64 15 16 C13.68 15.67 12.36 15.34 11 15 C11 13.02 11 11.04 11 9 C10.34 9 9.68 9 9 9 C9 7.68 9 6.36 9 5 C4.9899066 4.82135369 4.9899066 4.82135369 1 5 C0.34 5.66 -0.32 6.32 -1 7 C-0.67 4.69 -0.34 2.38 0 0 Z " fill="#F6CEB3" transform="translate(165,65)"/>
<path d="M0 0 C0.99 0.33 1.98 0.66 3 1 C3 1.99 3 2.98 3 4 C3.66 4 4.32 4 5 4 C5.3690205 17.6332574 5.3690205 17.6332574 3 24 C4.65 24.33 6.3 24.66 8 25 C7.34 25.66 6.68 26.32 6 27 C3.9375 26.75 3.9375 26.75 2 26 C0.75622607 23.51245214 0.86693765 21.77344699 0.875 19 C0.87242187 18.113125 0.86984375 17.22625 0.8671875 16.3125 C1 14 1 14 2 12 C2.66 12 3.32 12 4 12 C3.79503906 11.46890625 3.59007812 10.9378125 3.37890625 10.390625 C2.97478516 9.33101562 2.97478516 9.33101562 2.5625 8.25 C2.29566406 7.55390625 2.02882812 6.8578125 1.75390625 6.140625 C1.03853307 4.10940997 0.48634348 2.0964709 0 0 Z " fill="#C06653" transform="translate(153,102)"/>
<path d="M0 0 C1.9375 0.5625 1.9375 0.5625 4 2 C5.18965077 6.9568782 5.25347651 11.93046978 5 17 C4.34 17.99 3.68 18.98 3 20 C2.34 20 1.68 20 1 20 C1 22.97 1 25.94 1 29 C-1.97 29 -4.94 29 -8 29 C-8 28.67 -8 28.34 -8 28 C-5.36 28 -2.72 28 0 28 C0 24.7 0 21.4 0 18 C0.66 18 1.32 18 2 18 C2.33 13.38 2.66 8.76 3 4 C2.01 4 1.02 4 0 4 C0 2.68 0 1.36 0 0 Z " fill="#F9B696" transform="translate(94,90)"/>
<path d="M0 0 C2.31 0 4.62 0 7 0 C7 1.32 7 2.64 7 4 C6.01 4 5.02 4 4 4 C4 4.99 4 5.98 4 7 C-0.455 7.495 -0.455 7.495 -5 8 C-5 8.66 -5 9.32 -5 10 C-6.32 9.34 -7.64 8.68 -9 8 C-7.329375 7.4121875 -7.329375 7.4121875 -5.625 6.8125 C-2.68039334 5.57517033 -2.14117455 5.26393503 -0.5625 2.3125 C-0.376875 1.549375 -0.19125 0.78625 0 0 Z " fill="#E79B83" transform="translate(242,98)"/>
<path d="M0 0 C0 3.55768332 -0.7333771 4.27516005 -2.8125 7.0625 C-9.88703484 17.52413524 -9.63579503 28.76773646 -10 41 C-10.33 41 -10.66 41 -11 41 C-11.0588996 37.68757688 -11.09389398 34.37529149 -11.125 31.0625 C-11.14175781 30.13630859 -11.15851563 29.21011719 -11.17578125 28.25585938 C-11.23602564 19.67103356 -10.85799247 12.61386246 -5 6 C-4.7525 4.9171875 -4.7525 4.9171875 -4.5 3.8125 C-4 2 -4 2 -1.9375 0.75 C-1.298125 0.5025 -0.65875 0.255 0 0 Z " fill="#F3DAC7" transform="translate(174,183)"/>
<path d="M0 0 C0.33 0 0.66 0 1 0 C1 2.97 1 5.94 1 9 C1.78375 8.79375 2.5675 8.5875 3.375 8.375 C4.674375 8.189375 4.674375 8.189375 6 8 C6.66 8.66 7.32 9.32 8 10 C10.32275177 10.40047444 12.65739357 10.7397104 15 11 C13.98046875 12.48828125 13.98046875 12.48828125 12 14 C9.35003674 14.2172101 6.94923442 14.28351554 4.3125 14.1875 C3.2596582 14.16719727 3.2596582 14.16719727 2.18554688 14.14648438 C0.45670171 14.11120182 -1.27174765 14.05739583 -3 14 C-2.67 13.34 -2.34 12.68 -2 12 C-1.34 12 -0.68 12 0 12 C0 8.04 0 4.08 0 0 Z " fill="#C67756" transform="translate(124,129)"/>
<path d="M0 0 C3.625 0.375 3.625 0.375 6 2 C8.72771087 5.98665434 8.84999755 9.80592899 8.06640625 14.4609375 C7.78398532 15.89274596 7.49081739 17.32247221 7.1875 18.75 C7.03990234 19.48605469 6.89230469 20.22210938 6.74023438 20.98046875 C6.3778781 22.78056123 6.00273891 24.57807253 5.625 26.375 C5.295 26.375 4.965 26.375 4.625 26.375 C4.5 18.625 4.5 18.625 5.625 16.375 C5.82258231 14.29935324 5.82258231 14.29935324 5.8125 12 C5.83376953 10.84371094 5.83376953 10.84371094 5.85546875 9.6640625 C5.60301607 7.15665112 4.87693467 5.54238098 3.625 3.375 C-0.82370215 2.98246746 -3.51743493 4.22194043 -7.375 6.375 C-4.640625 0.515625 -4.640625 0.515625 0 0 Z " fill="#FCE8DF" transform="translate(109.375,21.625)"/>
<path d="M0 0 C0.33 0 0.66 0 1 0 C0.49824917 9.60247276 -0.95171566 18.85514699 -4 28 C-4.99 27.67 -5.98 27.34 -7 27 C-6.5204391 22.39621532 -5.56597198 18.6626123 -3.83203125 14.33203125 C-2.16836986 9.669093 -1.13144618 4.8146646 0 0 Z " fill="#E59F80" transform="translate(150,84)"/>
<path d="M0 0 C0.66 0 1.32 0 2 0 C2 7.59 2 15.18 2 23 C1.34 23 0.68 23 0 23 C-1.66895458 14.80928447 -2.37321711 8.08719369 0 0 Z " fill="#F0B998" transform="translate(180,80)"/>
<path d="M0 0 C-1.24687592 0.96239452 -2.49764969 1.91974009 -3.75 2.875 C-4.44609375 3.40867187 -5.1421875 3.94234375 -5.859375 4.4921875 C-9.04389427 6.73529779 -11.05567463 8 -15 8 C-14.5625 5.75 -14.5625 5.75 -13 3 C-8.74907101 0.32133242 -4.94516582 -1.73871127 0 0 Z M-17 6 C-16.01 6.33 -15.02 6.66 -14 7 C-15.65 8.32 -17.3 9.64 -19 11 C-18.34 9.35 -17.68 7.7 -17 6 Z " fill="#F4B39E" transform="translate(236,99)"/>
<path d="M0 0 C0.99 0.33 1.98 0.66 3 1 C3.94921875 3.50390625 3.94921875 3.50390625 4.6875 6.5625 C4.93886719 7.57441406 5.19023438 8.58632812 5.44921875 9.62890625 C5.63097656 10.41136719 5.81273438 11.19382813 6 12 C8.97 12.495 8.97 12.495 12 13 C12 13.99 12 14.98 12 16 C9.03 15.67 6.06 15.34 3 15 C2.49363393 13.25183142 1.99515381 11.50137737 1.5 9.75 C1.2215625 8.77546875 0.943125 7.8009375 0.65625 6.796875 C0 4 0 4 0 0 Z " fill="#E7D2C2" transform="translate(87,236)"/>
<path d="M0 0 C0.33 0.66 0.66 1.32 1 2 C2.32 2 3.64 2 5 2 C4.690625 2.886875 4.38125 3.77375 4.0625 4.6875 C2.95606829 7.88251165 2.95606829 7.88251165 2.5 10.8125 C2.335 11.534375 2.17 12.25625 2 13 C1.01 13.495 1.01 13.495 0 14 C-0.99 12.02 -1.98 10.04 -3 8 C-3.99 8.495 -3.99 8.495 -5 9 C-4.67 7.68 -4.34 6.36 -4 5 C-3.34 5 -2.68 5 -2 5 C-2 4.34 -2 3.68 -2 3 C-1.34 3 -0.68 3 0 3 C0 2.01 0 1.02 0 0 Z " fill="#FCE4CD" transform="translate(109,72)"/>
<path d="M0 0 C0.8741826 2.99303676 1.09654642 5.59117704 1.02734375 8.703125 C1.01509766 9.60160156 1.00285156 10.50007812 0.99023438 11.42578125 C0.95536833 13.29305182 0.91637605 15.16025039 0.87304688 17.02734375 C0.80350526 22.76248196 1.45231239 27.48372822 3 33 C3.15457651 35.36544607 3.09888425 37.62677788 3 40 C2.34 40 1.68 40 1 40 C-0.87318037 31.43688973 -1.19271324 23.11238194 -1.1875 14.375 C-1.18814453 13.30765625 -1.18878906 12.2403125 -1.18945312 11.140625 C-1.13504756 3.40514268 -1.13504756 3.40514268 0 0 Z " fill="#F0C9AA" transform="translate(163,199)"/>
<path d="M0 0 C2.33294775 -0.04241723 4.66702567 -0.04092937 7 0 C8 1 8 1 8.0625 4.0625 C8.041875 5.031875 8.02125 6.00125 8 7 C5.36 7 2.72 7 0 7 C0 4.69 0 2.38 0 0 Z " fill="#C3775C" transform="translate(136,128)"/>
<path d="M0 0 C2.31 0 4.62 0 7 0 C7.33 0.66 7.66 1.32 8 2 C7.03685937 4.01800895 6.03041427 6.01549844 5 8 C4.30028027 9.98867713 3.62335603 11.98608051 3 14 C2.67 14 2.34 14 2 14 C1.34 9.38 0.68 4.76 0 0 Z " fill="#F1AC89" transform="translate(105,114)"/>
<path d="M0 0 C1.32 0 2.64 0 4 0 C5.60725635 3.21451269 5.05748185 6.43612536 5 10 C3.35 10.33 1.7 10.66 0 11 C0 7.37 0 3.74 0 0 Z " fill="#D68A73" transform="translate(159,115)"/>
<path d="M0 0 C0 0.66 0 1.32 0 2 C0.66 2 1.32 2 2 2 C1.8125 4.375 1.8125 4.375 1 7 C-1.5625 8.3125 -1.5625 8.3125 -4 9 C-4 8.01 -4 7.02 -4 6 C-3.01 6 -2.02 6 -1 6 C-1 4.68 -1 3.36 -1 2 C-2.58409994 2.11487748 -4.16728963 2.24234508 -5.75 2.375 C-6.63171875 2.44460937 -7.5134375 2.51421875 -8.421875 2.5859375 C-10.99066382 2.99850055 -12.75841015 3.71160957 -15 5 C-10.68177756 -0.75762992 -6.92478377 -0.60507819 0 0 Z " fill="#F2BAA7" transform="translate(250,96)"/>
<path d="M0 0 C0 0.66 0 1.32 0 2 C-1.2375 2.433125 -2.475 2.86625 -3.75 3.3125 C-6.29437227 4.25320102 -8.06156618 5.04617463 -10.25 6.6875 C-12 8 -12 8 -16 8 C-14.53327154 4.13317042 -12.65654995 2.82827498 -9 1 C-3.54545455 -1.18181818 -3.54545455 -1.18181818 0 0 Z " fill="#EAA080" transform="translate(176,124)"/>
<path d="M0 0 C0.33 0 0.66 0 1 0 C1.33 6.93 1.66 13.86 2 21 C0.68 21 -0.64 21 -2 21 C-2.265625 4.53125 -2.265625 4.53125 0 0 Z " fill="#851F09" transform="translate(152,110)"/>
<path d="M0 0 C3.85790584 3.22023545 4.77502228 5.87511141 5.75 10.75 C5.99234375 11.92046875 6.2346875 13.0909375 6.484375 14.296875 C6.73960937 15.63492188 6.73960937 15.63492188 7 17 C9.31 17.66 11.62 18.32 14 19 C14 19.66 14 20.32 14 21 C6.25 20.25 6.25 20.25 4 18 C3.54152311 15.63969304 3.17856869 13.2601826 2.875 10.875 C2.70742187 9.59367187 2.53984375 8.31234375 2.3671875 6.9921875 C2.24601563 6.00476563 2.12484375 5.01734375 2 4 C1.34 4 0.68 4 0 4 C0 2.68 0 1.36 0 0 Z " fill="#AD4E31" transform="translate(128,118)"/>
<path d="M0 0 C0.96661363 3.12180401 0.98988909 5.52083795 0.5625 8.75 C0.46066406 9.54921875 0.35882813 10.3484375 0.25390625 11.171875 C0.17011719 11.77515625 0.08632812 12.3784375 0 13 C-0.99 13.33 -1.98 13.66 -3 14 C-5.97148323 10.64509957 -7.2679078 8.3925532 -8 4 C-8.66 3.67 -9.32 3.34 -10 3 C-7.03 3.495 -7.03 3.495 -4 4 C-3.67 6.31 -3.34 8.62 -3 11 C-2.34 11 -1.68 11 -1 11 C-1.01160156 10.37351563 -1.02320312 9.74703125 -1.03515625 9.1015625 C-1.04417969 8.28429687 -1.05320312 7.46703125 -1.0625 6.625 C-1.07410156 5.81289062 -1.08570312 5.00078125 -1.09765625 4.1640625 C-1 2 -1 2 0 0 Z " fill="#DD7E59" transform="translate(111,123)"/>
<path d="M0 0 C0.33 0 0.66 0 1 0 C1 1.98 1 3.96 1 6 C-3.62 6.66 -8.24 7.32 -13 8 C-13 8.66 -13 9.32 -13 10 C-11.35 10 -9.7 10 -8 10 C-8 10.33 -8 10.66 -8 11 C-10.97 11.66 -13.94 12.32 -17 13 C-15.8138286 9.62397371 -14.88004752 7.18486363 -12 5 C-9.08203125 4.48828125 -9.08203125 4.48828125 -5.8125 4.3125 C-4.72582031 4.24675781 -3.63914062 4.18101563 -2.51953125 4.11328125 C-1.68808594 4.07589844 -0.85664062 4.03851563 0 4 C0 2.68 0 1.36 0 0 Z " fill="#F7C4A8" transform="translate(93,112)"/>
<path d="M0 0 C0.83595703 0.00902344 1.67191406 0.01804687 2.53320312 0.02734375 C4.58475969 0.05079011 6.63616777 0.08665734 8.6875 0.125 C9.0175 0.785 9.3475 1.445 9.6875 2.125 C8.25857422 2.07279297 8.25857422 2.07279297 6.80078125 2.01953125 C5.54652344 1.99246094 4.29226562 1.96539062 3 1.9375 C1.75863281 1.90269531 0.51726562 1.86789063 -0.76171875 1.83203125 C-4.56619063 2.14593157 -6.15884319 3.12200175 -9.3125 5.125 C-12.13795777 5.21868883 -14.50540406 4.64835687 -17.3125 4.125 C-11.42146438 0.19764292 -6.9043194 -0.14168296 0 0 Z " fill="#F8D2C1" transform="translate(236.3125,92.875)"/>
<path d="M0 0 C1.26242518 3.7590123 0.92985044 7.14475989 0.625 11.0625 C0.53476563 12.29097656 0.44453125 13.51945312 0.3515625 14.78515625 C0 18 0 18 -1 21 C-1.66 21 -2.32 21 -3 21 C-3.33 21.66 -3.66 22.32 -4 23 C-3.7221455 19.72783887 -3.42534437 16.4576674 -3.125 13.1875 C-3.04636719 12.25873047 -2.96773438 11.32996094 -2.88671875 10.37304688 C-2.80292969 9.48037109 -2.71914062 8.58769531 -2.6328125 7.66796875 C-2.55949707 6.84578857 -2.48618164 6.0236084 -2.41064453 5.17651367 C-2 3 -2 3 0 0 Z " fill="#F0B395" transform="translate(110,54)"/>
<path d="M0 0 C0.66 0.33 1.32 0.66 2 1 C2 3.97 2 6.94 2 10 C2.66 10.33 3.32 10.66 4 11 C3.236875 11.391875 2.47375 11.78375 1.6875 12.1875 C-1.16632443 13.80762972 -1.16632443 13.80762972 -2.4375 16.6875 C-2.953125 17.450625 -3.46875 18.21375 -4 19 C-7.1875 19.3125 -7.1875 19.3125 -10 19 C-9.34 18.67 -8.68 18.34 -8 18 C-8 17.34 -8 16.68 -8 16 C-5.5 14.375 -5.5 14.375 -3 13 C-3.33 12.34 -3.66 11.68 -4 11 C-2.68 10.67 -1.36 10.34 0 10 C0 6.7 0 3.4 0 0 Z " fill="#D28062" transform="translate(163,115)"/>
<path d="M0 0 C0.99 0.33 1.98 0.66 3 1 C1.02 3.97 1.02 3.97 -1 7 C-0.01 6.34 0.98 5.68 2 5 C7.24801962 4.65586757 11.05601526 5.0224061 16 7 C15.01 7.495 15.01 7.495 14 8 C13.34 7.67 12.68 7.34 12 7 C11.67 7.99 11.34 8.98 11 10 C11 9.34 11 8.68 11 8 C10.01 8 9.02 8 8 8 C8 7.34 8 6.68 8 6 C6.9171875 6.495 6.9171875 6.495 5.8125 7 C2.98302573 8.00603529 0.97104534 8.16977402 -2 8 C-2 6.02 -2 4.04 -2 2 C-1.34 2 -0.68 2 0 2 C0 1.34 0 0.68 0 0 Z " fill="#FCE2D0" transform="translate(77,118)"/>
<path d="M0 0 C0.33 0 0.66 0 1 0 C1.19401633 1.81181405 1.38004375 3.62448532 1.5625 5.4375 C1.66691406 6.44683594 1.77132812 7.45617187 1.87890625 8.49609375 C1.93884766 9.73552734 1.93884766 9.73552734 2 11 C1 12 1 12 -1.5625 12.0625 C-2.366875 12.041875 -3.17125 12.02125 -4 12 C-4.61528766 6.92387682 -2.61658349 4.17017994 0 0 Z " fill="#E58E6A" transform="translate(178,92)"/>
<path d="M0 0 C0.78503906 0.00644531 1.57007813 0.01289062 2.37890625 0.01953125 C4.4375 0.1875 4.4375 0.1875 6.4375 1.1875 C6.4375 1.8475 6.4375 2.5075 6.4375 3.1875 C8.4175 3.1875 10.3975 3.1875 12.4375 3.1875 C12.4375 3.5175 12.4375 3.8475 12.4375 4.1875 C5.8125 4.4375 5.8125 4.4375 2.4375 2.1875 C-1.34441042 2.28702396 -2.53271909 3.16036628 -5.375 5.75 C-6.096875 6.554375 -6.81875 7.35875 -7.5625 8.1875 C-8.5625 5.1875 -8.5625 5.1875 -7.5625 2.1875 C-4.404724 0.082316 -3.60852866 -0.06539344 0 0 Z " fill="#F4C2A5" transform="translate(141.5625,70.8125)"/>
<path d="M0 0 C0.66 1.32 1.32 2.64 2 4 C1.67 4.66 1.34 5.32 1 6 C1.66 6 2.32 6 3 6 C3.33 5.34 3.66 4.68 4 4 C4.99 4.33 5.98 4.66 7 5 C5.66666667 7.66666667 4.33333333 10.33333333 3 13 C2.01 13 1.02 13 0 13 C0 8.71 0 4.42 0 0 Z " fill="#F3D4C4" transform="translate(75,170)"/>
<path d="M0 0 C0.625 1.875 0.625 1.875 1 4 C0.34 4.66 -0.32 5.32 -1 6 C-1 6.33 -1 6.66 -1 7 C-3.97 6.67 -6.94 6.34 -10 6 C-10 4.68 -10 3.36 -10 2 C-6.7 2 -3.4 2 0 2 C0 1.34 0 0.68 0 0 Z " fill="#CB7E59" transform="translate(123,137)"/>
<path d="M0 0 C0.66 0.66 1.32 1.32 2 2 C1.01 2.33 0.02 2.66 -1 3 C-1 3.66 -1 4.32 -1 5 C-0.34 5 0.32 5 1 5 C1.042721 6.66611905 1.04063832 8.33382885 1 10 C-0.87243981 11.87243981 -3.93659518 11.17380392 -6.4375 11.1875 C-7.61183594 11.20167969 -8.78617187 11.21585938 -9.99609375 11.23046875 C-13 11 -13 11 -15 9 C-10.71 9 -6.42 9 -2 9 C-2.04125 7.88625 -2.0825 6.7725 -2.125 5.625 C-2 2 -2 2 0 0 Z " fill="#E17448" transform="translate(103,113)"/>
<path d="M0 0 C0.33 0 0.66 0 1 0 C0.85919445 2.77117304 0.71256882 5.54182641 0.5625 8.3125 C0.52318359 9.09818359 0.48386719 9.88386719 0.44335938 10.69335938 C0.40146484 11.45068359 0.35957031 12.20800781 0.31640625 12.98828125 C0.27974854 13.68477783 0.24309082 14.38127441 0.20532227 15.09887695 C0 17 0 17 -1 20 C-1.99 20.33 -2.98 20.66 -4 21 C-4.33 20.01 -4.66 19.02 -5 18 C-4.54625 17.154375 -4.0925 16.30875 -3.625 15.4375 C-1.78282905 11.54059992 -1.48145769 8.42290658 -1.2109375 4.171875 C-1 2 -1 2 0 0 Z " fill="#DC7D5D" transform="translate(150,100)"/>
<path d="M0 0 C0.99 0.33 1.98 0.66 3 1 C4.10087193 8.01805857 4.09733092 14.90565767 4 22 C3.67 22 3.34 22 3 22 C2.49599549 19.08397391 1.99665334 16.16727908 1.5 13.25 C1.35691406 12.425 1.21382813 11.6 1.06640625 10.75 C0.93105469 9.95078125 0.79570313 9.1515625 0.65625 8.328125 C0.53056641 7.5949707 0.40488281 6.86181641 0.27539062 6.10644531 C0 4 0 4 0 0 Z " fill="#F7E8DB" transform="translate(76,183)"/>
<path d="M0 0 C0.66 0 1.32 0 2 0 C2.13489391 2.26921536 2.23193995 4.5407067 2.3125 6.8125 C2.37050781 8.07707031 2.42851563 9.34164062 2.48828125 10.64453125 C2 14 2 14 -0.51953125 15.94921875 C-1.33808594 16.29597656 -2.15664062 16.64273438 -3 17 C-2.505 15.515 -2.505 15.515 -2 14 C-1.69301138 10.61459776 -1.49095405 7.22864938 -1.28125 3.8359375 C-1 1 -1 1 0 0 Z " fill="#FAC6AC" transform="translate(94,126)"/>
<path d="M0 0 C0.33 0 0.66 0 1 0 C1.02705729 1.77074917 1.04642195 3.54161711 1.0625 5.3125 C1.07410156 6.29863281 1.08570313 7.28476563 1.09765625 8.30078125 C1 11 1 11 0 14 C0.99 14.33 1.98 14.66 3 15 C1.35 15.33 -0.3 15.66 -2 16 C-3.44799047 6.03852337 -3.44799047 6.03852337 -1.625 1.8125 C-1.08875 1.214375 -0.5525 0.61625 0 0 Z " fill="#AF4C33" transform="translate(127,122)"/>
<path d="M0 0 C0.66 0 1.32 0 2 0 C2.12117187 0.58007812 2.24234375 1.16015625 2.3671875 1.7578125 C3.33866621 6.28639788 4.50150209 10.61154185 6 15 C6 15.66 6 16.32 6 17 C5.34 17 4.68 17 4 17 C3.67 17.66 3.34 18.32 3 19 C2.67 15.7 2.34 12.4 2 9 C1.34 9 0.68 9 0 9 C0 6.03 0 3.06 0 0 Z " fill="#B75030" transform="translate(151,97)"/>
<path d="M0 0 C0.66 0.33 1.32 0.66 2 1 C1.67 4.63 1.34 8.26 1 12 C3.97 12 6.94 12 10 12 C10 12.33 10 12.66 10 13 C7.36 13 4.72 13 2 13 C1.67 13.99 1.34 14.98 1 16 C-1 14 -1 14 -1.23046875 11.7578125 C-1.21628906 10.88898438 -1.20210937 10.02015625 -1.1875 9.125 C-1.18105469 8.26132813 -1.17460937 7.39765625 -1.16796875 6.5078125 C-1.01393667 4.20807774 -0.64161776 2.20716511 0 0 Z " fill="#E07B5E" transform="translate(168,109)"/>
<path d="M0 0 C0.06058594 1.19238281 0.12117187 2.38476562 0.18359375 3.61328125 C0.26801149 5.17969925 0.35265887 6.74610488 0.4375 8.3125 C0.47681641 9.09818359 0.51613281 9.88386719 0.55664062 10.69335938 C0.61948242 11.8293457 0.61948242 11.8293457 0.68359375 12.98828125 C0.72025146 13.68477783 0.75690918 14.38127441 0.79467773 15.09887695 C0.95581153 17.2216572 0.95581153 17.2216572 2 20 C1.34 20 0.68 20 0 20 C-1.585869 16.828262 -1.37866445 13.36486178 -1.5625 9.875 C-1.60568359 9.12089844 -1.64886719 8.36679688 -1.69335938 7.58984375 C-1.7994832 5.72678112 -1.90025001 3.86341476 -2 2 C-3.65 2.66 -5.3 3.32 -7 4 C-7.33 2.68 -7.66 1.36 -8 0 C-4.71303767 -0.79953138 -3.28976808 -1.09658936 0 0 Z " fill="#EBA886" transform="translate(155,76)"/>
<path d="M0 0 C4.6043176 6.9064764 2.7697628 15.12473447 2 23 C1.67 23 1.34 23 1 23 C0.13190561 17.79826905 -0.12515348 12.83021184 -0.0625 7.5625 C-0.05798828 6.83095703 -0.05347656 6.09941406 -0.04882812 5.34570312 C-0.03718148 3.56376581 -0.01925191 1.78187137 0 0 Z " fill="#F5E7DB" transform="translate(73,156)"/>
<path d="M0 0 C-4.34856 4.7562375 -9.23708098 8.11854049 -15 11 C-12.67601173 5.29566515 -6.52842439 -2.17614146 0 0 Z " fill="#F7D5C9" transform="translate(207,107)"/>
<path d="M0 0 C0.33 0 0.66 0 1 0 C1.04898438 0.90621094 1.09796875 1.81242188 1.1484375 2.74609375 C1.63602248 11.00546966 1.63602248 11.00546966 3.125 19.125 C3.93257244 22.70139223 4.03054372 23.73419244 3 27 C0.24413336 20.75047564 -0.39080223 15.78716692 -0.1875 9 C-0.17396484 8.12988281 -0.16042969 7.25976562 -0.14648438 6.36328125 C-0.11151678 4.24191373 -0.0577253 2.12087026 0 0 Z " fill="#FAEBDD" transform="translate(164,211)"/>
<path d="M0 0 C0.33 0 0.66 0 1 0 C1.05394705 2.60444348 1.09364469 5.20776998 1.125 7.8125 C1.14175781 8.55048828 1.15851563 9.28847656 1.17578125 10.04882812 C1.21074628 13.91246426 1.19397555 15.70903668 -1 19 C-1.99 19 -2.98 19 -4 19 C-3.67 17.35 -3.34 15.7 -3 14 C-2.34 14 -1.68 14 -1 14 C-0.67 9.38 -0.34 4.76 0 0 Z " fill="#CD694B" transform="translate(150,106)"/>
<path d="M0 0 C2.97 0.495 2.97 0.495 6 1 C6 3.31 6 5.62 6 8 C4.33388095 8.042721 2.66617115 8.04063832 1 8 C0 7 0 7 -0.0625 3.4375 C-0.041875 2.303125 -0.02125 1.16875 0 0 Z " fill="#F09F80" transform="translate(171,103)"/>
<path d="M0 0 C1.32 0.99 2.64 1.98 4 3 C4.33 2.34 4.66 1.68 5 1 C5 1.66 5 2.32 5 3 C6.32 3.33 7.64 3.66 9 4 C3.375 8 3.375 8 0 8 C0 5.36 0 2.72 0 0 Z " fill="#92381A" transform="translate(145,128)"/>
<path d="M0 0 C0.33 0 0.66 0 1 0 C1.125 5.75 1.125 5.75 0 8 C-5.75 6.125 -5.75 6.125 -8 5 C-8 4.34 -8 3.68 -8 3 C-5.36 3 -2.72 3 0 3 C0 2.01 0 1.02 0 0 Z " fill="#AE4C30" transform="translate(149,123)"/>
<path d="M0 0 C5 6.59090909 5 6.59090909 5 9 C7.97 9 10.94 9 14 9 C14 9.33 14 9.66 14 10 C10.04 10 6.08 10 2 10 C0.0044484 6.00889681 -0.19546065 4.30013434 0 0 Z " fill="#DC9370" transform="translate(128,106)"/>
<path d="M0 0 C1.953125 0.7109375 1.953125 0.7109375 4 2 C4.609375 4.1640625 4.609375 4.1640625 4.75 6.625 C4.80671875 7.44226563 4.8634375 8.25953125 4.921875 9.1015625 C4.94765625 9.72804688 4.9734375 10.35453125 5 11 C4.01 11.33 3.02 11.66 2 12 C0.70756464 7.8803623 -0.26252625 4.33168317 0 0 Z " fill="#FAD9CA" transform="translate(104,100)"/>
<path d="M0 0 C0.33 1.32 0.66 2.64 1 4 C2.65 4.33 4.3 4.66 6 5 C5.01 5.495 5.01 5.495 4 6 C3.34786708 8.02463255 3.34786708 8.02463255 3 10 C2.01 10 1.02 10 0 10 C-1.125 3.375 -1.125 3.375 0 0 Z " fill="#F09C80" transform="translate(97,65)"/>
<path d="M0 0 C0.33 1.32 0.66 2.64 1 4 C0.34 4 -0.32 4 -1 4 C-1.061875 4.9075 -1.12375 5.815 -1.1875 6.75 C-2.18446044 10.73784176 -3.64888166 11.76592111 -7 14 C-7 10.63674077 -6.42212241 9.74242957 -4.625 7 C-4.18414062 6.319375 -3.74328125 5.63875 -3.2890625 4.9375 C-2.19363983 3.29104654 -1.0969552 1.6454328 0 0 Z " fill="#DAAA8C" transform="translate(171,181)"/>
<path d="M0 0 C1.19126781 3.57380342 0.7349445 5.50883302 0.0625 9.1875 C-0.13214844 10.27417969 -0.32679687 11.36085937 -0.52734375 12.48046875 C-0.68332031 13.31191406 -0.83929688 14.14335937 -1 15 C-1.66 15 -2.32 15 -3 15 C-4.11855687 10.30206113 -3.87823146 7.44844292 -2 3 C-1.34 2.01 -0.68 1.02 0 0 Z " fill="#EF9270" transform="translate(111,119)"/>
<path d="M0 0 C0.99 0.33 1.98 0.66 3 1 C3 1.99 3 2.98 3 4 C3.66 4 4.32 4 5 4 C5.63019694 12.03501094 5.63019694 12.03501094 3 16.0625 C2.34 16.701875 1.68 17.34125 1 18 C1.33 16.02 1.66 14.04 2 12 C2.66 12 3.32 12 4 12 C3.79503906 11.46890625 3.59007812 10.9378125 3.37890625 10.390625 C2.97478516 9.33101562 2.97478516 9.33101562 2.5625 8.25 C2.29566406 7.55390625 2.02882812 6.8578125 1.75390625 6.140625 C1.03853307 4.10940997 0.48634348 2.0964709 0 0 Z " fill="#C35D41" transform="translate(153,102)"/>
<path d="M0 0 C0.66 0 1.32 0 2 0 C0.38325319 3.42946293 -1.57597677 6.56263052 -3.625 9.75 C-4.57246094 11.22726563 -4.57246094 11.22726563 -5.5390625 12.734375 C-6.02117187 13.48203125 -6.50328125 14.2296875 -7 15 C-8 13 -8 13 -7.75 11.0625 C-6.89270744 8.70494545 -5.75236968 7.75236968 -4 6 C-3.28552357 3.89667109 -3.28552357 3.89667109 -3 2 C-2.01 2 -1.02 2 0 2 C0 1.34 0 0.68 0 0 Z " fill="#F5E0D3" transform="translate(214,132)"/>
<path d="M0 0 C1.19109375 0.00773438 1.19109375 0.00773438 2.40625 0.015625 C3.2003125 0.01046875 3.994375 0.0053125 4.8125 0 C6.90625 0.265625 6.90625 0.265625 8.90625 2.265625 C6.17782939 3.62983531 4.29671682 3.14369711 1.28125 2.828125 C0.27835937 2.72628906 -0.72453125 2.62445313 -1.7578125 2.51953125 C-2.52867188 2.43574219 -3.29953125 2.35195312 -4.09375 2.265625 C-2.09375 0.265625 -2.09375 0.265625 0 0 Z " fill="#D8946F" transform="translate(126.09375,141.734375)"/>
<path d="M0 0 C2.20914 3.31371 2.22481553 4.3446021 2.125 8.1875 C2.10695313 9.08855469 2.08890625 9.98960937 2.0703125 10.91796875 C2.03550781 11.94857422 2.03550781 11.94857422 2 13 C0.68 12.34 -0.64 11.68 -2 11 C-2 10.34 -2 9.68 -2 9 C-1.34 9 -0.68 9 0 9 C0 6.03 0 3.06 0 0 Z " fill="#CD6945" transform="translate(111,127)"/>
<path d="M0 0 C0.66 0 1.32 0 2 0 C1.38722388 2.96175123 0.74627478 4.38058783 -1 7 C-2.9453125 7.29296875 -2.9453125 7.29296875 -5.125 7.1875 C-6.40375 7.125625 -7.6825 7.06375 -9 7 C-8.401875 6.731875 -7.80375 6.46375 -7.1875 6.1875 C-4.95672092 5.1106021 -4.95672092 5.1106021 -3.375 3.375 C-2.92125 2.92125 -2.4675 2.4675 -2 2 C-1.34 2 -0.68 2 0 2 C0 1.34 0 0.68 0 0 Z " fill="#CA6948" transform="translate(125,122)"/>
<path d="M0 0 C0 0.33 0 0.66 0 1 C-5.65146223 2.17122859 -11.27601207 3.25339288 -17 4 C-12.26804215 -1.40795183 -6.60725309 -0.37936381 0 0 Z " fill="#FBC6B1" transform="translate(244,94)"/>
<path d="M0 0 C-0.33 0.99 -0.66 1.98 -1 3 C-1.66 3 -2.32 3 -3 3 C-3.33 4.65 -3.66 6.3 -4 8 C-4.99 7.67 -5.98 7.34 -7 7 C-7.99 7 -8.98 7 -10 7 C-8.71372289 5.82739389 -7.42080217 4.6620717 -6.125 3.5 C-5.04605469 2.52546875 -5.04605469 2.52546875 -3.9453125 1.53125 C-2 0 -2 0 0 0 Z " fill="#EDBDAC" transform="translate(198,114)"/>
<path d="M0 0 C0.33 0.66 0.66 1.32 1 2 C0.09507812 2.09087891 0.09507812 2.09087891 -0.828125 2.18359375 C-2.02695313 2.30927734 -2.02695313 2.30927734 -3.25 2.4375 C-4.03890625 2.51871094 -4.8278125 2.59992188 -5.640625 2.68359375 C-7.82364639 2.97634993 -9.8773182 3.42064419 -12 4 C-11 1 -11 1 -9.375 -0.25 C-5.99486537 -1.31741094 -3.41578604 -0.77338552 0 0 Z " fill="#E59374" transform="translate(181,121)"/>
<path d="M0 0 C0.33 0 0.66 0 1 0 C1 5.28 1 10.56 1 16 C-0.98 16.99 -0.98 16.99 -3 18 C-3 15 -3 15 -2 13 C-1.34 13 -0.68 13 0 13 C0 8.71 0 4.42 0 0 Z " fill="#E3A27D" transform="translate(124,99)"/>
<path d="M0 0 C1.625 1.625 1.625 1.625 3 4 C2.1875 7.25 2.1875 7.25 1 10 C0.34 10 -0.32 10 -1 10 C-1.125 2.25 -1.125 2.25 0 0 Z " fill="#FAC1A3" transform="translate(175,88)"/>
<path d="M0 0 C0.66 0 1.32 0 2 0 C1.34 4.95 0.68 9.9 0 15 C-0.33 15 -0.66 15 -1 15 C-1.02685412 12.68756208 -1.04632841 10.3750373 -1.0625 8.0625 C-1.07410156 6.77472656 -1.08570312 5.48695312 -1.09765625 4.16015625 C-1 1 -1 1 0 0 Z " fill="#E5976F" transform="translate(126,79)"/>
<path d="M0 0 C1.98 0 3.96 0 6 0 C3 2 3 2 1 2 C1 2.66 1 3.32 1 4 C-1.97 4.66 -4.94 5.32 -8 6 C-6.49736177 2.99472353 -4.08347159 3.02782386 -1 2 C-0.67 1.34 -0.34 0.68 0 0 Z " fill="#F2AA8C" transform="translate(176,123)"/>
<path d="M0 0 C0.33 1.32 0.66 2.64 1 4 C0.01 4.33 -0.98 4.66 -2 5 C-2.66 5.66 -3.32 6.32 -4 7 C-5 6 -5 6 -5.0625 3.4375 C-5.041875 2.633125 -5.02125 1.82875 -5 1 C-3 0 -3 0 0 0 Z " fill="#E58A63" transform="translate(104,110)"/>
<path d="M0 0 C0 0.66 0 1.32 0 2 C-4.455 2.495 -4.455 2.495 -9 3 C-9 3.66 -9 4.32 -9 5 C-10.32 4.34 -11.64 3.68 -13 3 C-8.76915382 1.13345022 -4.65260883 0 0 0 Z " fill="#DBA494" transform="translate(246,103)"/>
<path d="M0 0 C-0.57352893 3.87132028 -2.48704352 6.08172796 -5 9 C-5.99 8.67 -6.98 8.34 -8 8 C-7.34 8 -6.68 8 -6 8 C-5.896875 7.236875 -5.79375 6.47375 -5.6875 5.6875 C-4.83195622 2.34310158 -3.70341243 0 0 0 Z " fill="#FCF5EB" transform="translate(159,63)"/>
<path d="M0 0 C0.66 0.66 1.32 1.32 2 2 C1.67 2.99 1.34 3.98 1 5 C2.98 4.67 4.96 4.34 7 4 C7 4.66 7 5.32 7 6 C4.36 6.33 1.72 6.66 -1 7 C-1.33 5.68 -1.66 4.36 -2 3 C-1.34 3 -0.68 3 0 3 C0 2.01 0 1.02 0 0 Z " fill="#DEAA89" transform="translate(86,205)"/>
<path d="M0 0 C0.66 0.66 1.32 1.32 2 2 C0.515 7.445 0.515 7.445 -1 13 C-3 11 -3 11 -3.3125 8.1875 C-2.96840628 4.67774407 -2.01272399 2.85135899 0 0 Z " fill="#E8B491" transform="translate(163,194)"/>
<path d="M0 0 C1.69188216 3.38376432 2.23703516 4.68349354 2.5 8.1875 C2.665 9.445625 2.83 10.70375 3 12 C3.66 12.33 4.32 12.66 5 13 C4.01 13 3.02 13 2 13 C2 12.34 2 11.68 2 11 C1.34 11 0.68 11 0 11 C0 7.37 0 3.74 0 0 Z " fill="#FDF3EC" transform="translate(183,110)"/>
<path d="M0 0 C1.98 0.99 1.98 0.99 4 2 C4 5.63 4 9.26 4 13 C3.01 13.495 3.01 13.495 2 14 C2.33 10.7 2.66 7.4 3 4 C2.01 4 1.02 4 0 4 C0 2.68 0 1.36 0 0 Z " fill="#F6BCA2" transform="translate(94,90)"/>
<path d="M0 0 C0.99 0 1.98 0 3 0 C3 0.66 3 1.32 3 2 C4.32 2.33 5.64 2.66 7 3 C4.10765685 3.82638376 2.11257569 4 -1 4 C-1.66 4.66 -2.32 5.32 -3 6 C-2.42655063 3.13275314 -2.1385485 2.1385485 0 0 Z " fill="#F4C5A9" transform="translate(167,66)"/>
<path d="M0 0 C0.66 0.33 1.32 0.66 2 1 C1 3 0 5 -1 7 C-3.0625 7.625 -3.0625 7.625 -5 8 C-4.64950425 4.75791433 -4.43778819 3.38472296 -1.9375 1.1875 C-1.298125 0.795625 -0.65875 0.40375 0 0 Z " fill="#ECAD92" transform="translate(91,188)"/>
<path d="M0 0 C0.66 0.33 1.32 0.66 2 1 C-1.28804981 3.91227269 -3.59885603 5.49701212 -8 6 C-7 3 -7 3 -3.5625 1.25 C-2.386875 0.8375 -1.21125 0.425 0 0 Z " fill="#F8C9B0" transform="translate(106,163)"/>
<path d="M0 0 C0.66 0.33 1.32 0.66 2 1 C0.68775452 4.93673644 -0.91910327 7.22719294 -4 10 C-3.52449439 8.51965236 -3.04448784 7.04074979 -2.5625 5.5625 C-2.29566406 4.73878906 -2.02882812 3.91507813 -1.75390625 3.06640625 C-1 1 -1 1 0 0 Z " fill="#F2D4C2" transform="translate(204,146)"/>
<path d="M0 0 C0.33 0.33 0.66 0.66 1 1 C3.32817964 1.36760731 5.6618385 1.70241581 8 2 C8 2.33 8 2.66 8 3 C6.41753293 3.08153933 4.83383727 3.13943557 3.25 3.1875 C1.92742187 3.23970703 1.92742187 3.23970703 0.578125 3.29296875 C-2.44671583 2.94923684 -3.75583602 1.99772541 -6 0 C-3.49749232 -1.25125384 -2.59701335 -0.83774624 0 0 Z " fill="#B46847" transform="translate(131,138)"/>
<path d="M0 0 C-3.66291938 2.47785723 -6.6109185 3.48964169 -11 4 C-9.68 3.34 -8.36 2.68 -7 2 C-7 1.34 -7 0.68 -7 0 C-3.86650268 -1.04449911 -3.01031744 -0.93423645 0 0 Z " fill="#E3A387" transform="translate(157,135)"/>
<path d="M0 0 C0.33 0 0.66 0 1 0 C1 3.63 1 7.26 1 11 C0.01 11 -0.98 11 -2 11 C-1 3.57142857 -1 3.57142857 0 0 Z " fill="#CB7963" transform="translate(158,115)"/>
<path d="M0 0 C4.29 0 8.58 0 13 0 C13.33 1.65 13.66 3.3 14 5 C13.34 5 12.68 5 12 5 C12 4.34 12 3.68 12 3 C11.34 3 10.68 3 10 3 C10 2.34 10 1.68 10 1 C6.7 1 3.4 1 0 1 C0 0.67 0 0.34 0 0 Z " fill="#E9B28E" transform="translate(111,145)"/>
<path d="M0 0 C1.08667969 0.29197266 1.08667969 0.29197266 2.1953125 0.58984375 C2.74960938 0.74582031 3.30390625 0.90179688 3.875 1.0625 C3.875 1.7225 3.875 2.3825 3.875 3.0625 C2.59625 3.124375 1.3175 3.18625 0 3.25 C-0.71929687 3.28480469 -1.43859375 3.31960937 -2.1796875 3.35546875 C-2.82164062 3.25878906 -3.46359375 3.16210938 -4.125 3.0625 C-4.785 2.0725 -5.445 1.0825 -6.125 0.0625 C-3.57797384 -1.21101308 -2.6967055 -0.73941925 0 0 Z " fill="#913F20" transform="translate(136.125,136.9375)"/>
<path d="M0 0 C0.66 0 1.32 0 2 0 C1.690625 0.886875 1.38125 1.77375 1.0625 2.6875 C-0.04393171 5.88251165 -0.04393171 5.88251165 -0.5 8.8125 C-0.665 9.534375 -0.83 10.25625 -1 11 C-1.99 11.495 -1.99 11.495 -3 12 C-3.34833144 7.12335991 -2.41685712 4.22949995 0 0 Z " fill="#FCD9C4" transform="translate(112,74)"/>
<path d="M0 0 C3.86379545 3.00517424 6.90983192 5.45081065 9 10 C8.67 10.66 8.34 11.32 8 12 C7.67386719 11.51789063 7.34773437 11.03578125 7.01171875 10.5390625 C6.35623047 9.59160156 6.35623047 9.59160156 5.6875 8.625 C5.25824219 7.99851562 4.82898438 7.37203125 4.38671875 6.7265625 C2.93079661 4.73621155 2.93079661 4.73621155 0 3 C0 2.01 0 1.02 0 0 Z " fill="#FEF4EC" transform="translate(173,64)"/>
<path d="M0 0 C0.33 0 0.66 0 1 0 C1 2.64 1 5.28 1 8 C0.34 8 -0.32 8 -1 8 C-1.33 9.32 -1.66 10.64 -2 12 C-2.28571429 3.42857143 -2.28571429 3.42857143 0 0 Z " fill="#F2A78F" transform="translate(113,40)"/>
<path d="M0 0 C2.31 0 4.62 0 7 0 C6.175 0.78375 5.35 1.5675 4.5 2.375 C1.77011494 4.63721264 1.77011494 4.63721264 2 7 C1.34 7 0.68 7 0 7 C0 4.69 0 2.38 0 0 Z " fill="#C06D55" transform="translate(136,128)"/>
<path d="M0 0 C0.33 0 0.66 0 1 0 C1 3.96 1 7.92 1 12 C1.66 12 2.32 12 3 12 C3 12.66 3 13.32 3 14 C1.68 14 0.36 14 -1 14 C-0.67 9.38 -0.34 4.76 0 0 Z " fill="#7F1904" transform="translate(128,122)"/>
<path d="M0 0 C0.99 0 1.98 0 3 0 C2.65120368 3.25543229 1.97866739 4.01873107 -0.5625 6.25 C-1.366875 6.8275 -2.17125 7.405 -3 8 C-1.125 1.125 -1.125 1.125 0 0 Z " fill="#F0D0BD" transform="translate(222,120)"/>
<path d="M0 0 C0.66 0 1.32 0 2 0 C3.53166168 4.08443115 2.63081652 7.79455657 2 12 C1.67 12 1.34 12 1 12 C0.01751476 7.9472484 -0.08159574 4.16138263 0 0 Z " fill="#EEDAC8" transform="translate(85,224)"/>
<path d="M0 0 C0.99 0.33 1.98 0.66 3 1 C2.34 1.66 1.68 2.32 1 3 C0.29289322 4.64991582 -0.37943989 6.31562256 -1 8 C-1.66 7.67 -2.32 7.34 -3 7 C-2.67 5.35 -2.34 3.7 -2 2 C-1.34 2 -0.68 2 0 2 C0 1.34 0 0.68 0 0 Z " fill="#F6C9B1" transform="translate(96,145)"/>
<path d="M0 0 C-0.33 1.98 -0.66 3.96 -1 6 C-1.99 6 -2.98 6 -4 6 C-4.33 5.01 -4.66 4.02 -5 3 C-2.25 0 -2.25 0 0 0 Z " fill="#E8AF8D" transform="translate(202,148)"/>
<path d="M0 0 C0.33 0 0.66 0 1 0 C1.66 2.64 2.32 5.28 3 8 C1.68 8 0.36 8 -1 8 C-1.04241723 5.66705225 -1.04092937 3.33297433 -1 1 C-0.67 0.67 -0.34 0.34 0 0 Z " fill="#690C03" transform="translate(151,123)"/>
<path d="M0 0 C0.721875 0.103125 1.44375 0.20625 2.1875 0.3125 C0.06080165 2.65186818 -1.87474856 4.11903848 -4.8125 5.3125 C-5.8025 5.3125 -6.7925 5.3125 -7.8125 5.3125 C-3.50480769 0.38942308 -3.50480769 0.38942308 0 0 Z " fill="#F3A991" transform="translate(228.8125,101.6875)"/>
<path d="M0 0 C2.31 0 4.62 0 7 0 C7 1.32 7 2.64 7 4 C5.35 4.33 3.7 4.66 2 5 C2.66 4.01 3.32 3.02 4 2 C2.35 2 0.7 2 -1 2 C-0.67 1.34 -0.34 0.68 0 0 Z " fill="#ECA28B" transform="translate(242,98)"/>
<path d="M0 0 C0.33 0 0.66 0 1 0 C1.125 7.625 1.125 7.625 0 11 C-0.66 11 -1.32 11 -2 11 C-2.33 11.66 -2.66 12.32 -3 13 C-2.67 11.02 -2.34 9.04 -2 7 C-1.34 7 -0.68 7 0 7 C0 4.69 0 2.38 0 0 Z " fill="#F6C9B1" transform="translate(109,64)"/>
<path d="M0 0 C-0.99 0.33 -1.98 0.66 -3 1 C-3 1.66 -3 2.32 -3 3 C-2.34 3.33 -1.68 3.66 -1 4 C-2.98 4 -4.96 4 -7 4 C-7 3.01 -7 2.02 -7 1 C-4.53721199 -0.231394 -2.7204945 -0.07159196 0 0 Z " fill="#EFA687" transform="translate(179,116)"/>
<path d="M0 0 C-2.66666667 2.66666667 -5.33333333 5.33333333 -8 8 C-7.34 5.36 -6.68 2.72 -6 0 C-2 -1 -2 -1 0 0 Z " fill="#F3D7C6" transform="translate(236,110)"/>
<path d="M0 0 C0.66 0 1.32 0 2 0 C3.20272819 2.40545638 3.10071472 3.94996953 3.0625 6.625 C3.05347656 7.44226563 3.04445312 8.25953125 3.03515625 9.1015625 C3.02355469 9.72804688 3.01195312 10.35453125 3 11 C2.67 11 2.34 11 2 11 C1.67 9.35 1.34 7.7 1 6 C0.67 6 0.34 6 0 6 C0 4.02 0 2.04 0 0 Z " fill="#A23719" transform="translate(151,106)"/>
<path d="M0 0 C-2.62198774 2.15377564 -4.64404172 3.40072174 -8 4 C-8 3.01 -8 2.02 -8 1 C-5.29120665 -0.35439668 -2.99066732 -0.06501451 0 0 Z " fill="#F3CAB0" transform="translate(139,146)"/>
<path d="M0 0 C2.0625 1.75 2.0625 1.75 4 4 C3.75 6.25 3.75 6.25 3 8 C2.34 8 1.68 8 1 8 C0.67 5.36 0.34 2.72 0 0 Z " fill="#FCF1EB" transform="translate(251,94)"/>
<path d="M0 0 C0.99 0 1.98 0 3 0 C3.1875 2.8125 3.1875 2.8125 3 6 C2.01 6.99 1.02 7.98 0 9 C0 6.03 0 3.06 0 0 Z " fill="#FCD9C4" transform="translate(93,96)"/>
<path d="M0 0 C2.3431213 0.25561323 4.67843403 0.59270772 7 1 C7.33 1.66 7.66 2.32 8 3 C6.68 2.67 5.36 2.34 4 2 C3.67 2.99 3.34 3.98 3 5 C3 4.34 3 3.68 3 3 C2.01 3 1.02 3 0 3 C0 2.01 0 1.02 0 0 Z " fill="#FED1B9" transform="translate(85,123)"/>
<path d="" fill="#FFFFFF" transform="translate(0,0)"/>
<path d="" fill="#FFFFFF" transform="translate(0,0)"/>
<path d="" fill="#FFFFFF" transform="translate(0,0)"/>
<path d="" fill="#FFFFFF" transform="translate(0,0)"/>
<path d="" fill="#FFFFFF" transform="translate(0,0)"/>
<path d="" fill="#FFFFFF" transform="translate(0,0)"/>
<path d="" fill="#FFFFFF" transform="translate(0,0)"/>
<path d="" fill="#FFFFFF" transform="translate(0,0)"/>
<path d="" fill="#FFFFFF" transform="translate(0,0)"/>
<path d="" fill="#FFFFFF" transform="translate(0,0)"/>
<path d="" fill="#FFFFFF" transform="translate(0,0)"/>
<path d="" fill="#FFFFFF" transform="translate(0,0)"/>
<path d="" fill="#FFFFFF" transform="translate(0,0)"/>
<path d="" fill="#FFFFFF" transform="translate(0,0)"/>
<path d="" fill="#FFFFFF" transform="translate(0,0)"/>
<path d="" fill="#FFFFFF" transform="translate(0,0)"/>
<path d="" fill="#FFFFFF" transform="translate(0,0)"/>
<path d="" fill="#FFFFFF" transform="translate(0,0)"/>
<path d="" fill="#FFFFFF" transform="translate(0,0)"/>
<path d="" fill="#FFFFFF" transform="translate(0,0)"/>
<path d="" fill="#FFFFFF" transform="translate(0,0)"/>
<path d="" fill="#FFFFFF" transform="translate(0,0)"/>
<path d="" fill="#FFFFFF" transform="translate(0,0)"/>
<path d="" fill="#FFFFFF" transform="translate(0,0)"/>
<path d="" fill="#FFFFFF" transform="translate(0,0)"/>
<path d="" fill="#FFFFFF" transform="translate(0,0)"/>
<path d="" fill="#FFFFFF" transform="translate(0,0)"/>
<path d="" fill="#FFFFFF" transform="translate(0,0)"/>
<path d="" fill="#FFFFFF" transform="translate(0,0)"/>
<path d="" fill="#FFFFFF" transform="translate(0,0)"/>
<path d="" fill="#FFFFFF" transform="translate(0,0)"/>
<path d="" fill="#FFFFFF" transform="translate(0,0)"/>
<path d="" fill="#FFFFFF" transform="translate(0,0)"/>
<path d="" fill="#FFFFFF" transform="translate(0,0)"/>
<path d="" fill="#FFFFFF" transform="translate(0,0)"/>
<path d="" fill="#FFFFFF" transform="translate(0,0)"/>
<path d="" fill="#FFFFFF" transform="translate(0,0)"/>
<path d="" fill="#FFFFFF" transform="translate(0,0)"/>
<path d="" fill="#FFFFFF" transform="translate(0,0)"/>
<path d="" fill="#FFFFFF" transform="translate(0,0)"/>
<path d="" fill="#FFFFFF" transform="translate(0,0)"/>
<path d="" fill="#FFFFFF" transform="translate(0,0)"/>
<path d="" fill="#FFFFFF" transform="translate(0,0)"/>
<path d="" fill="#FFFFFF" transform="translate(0,0)"/>
<path d="" fill="#FFFFFF" transform="translate(0,0)"/>
<path d="" fill="#FFFFFF" transform="translate(0,0)"/>
<path d="" fill="#FFFFFF" transform="translate(0,0)"/>
<path d="" fill="#FFFFFF" transform="translate(0,0)"/>
<path d="" fill="#FFFFFF" transform="translate(0,0)"/>
<path d="" fill="#FFFFFF" transform="translate(0,0)"/>
<path d="" fill="#FFFFFF" transform="translate(0,0)"/>
<path d="" fill="#FFFFFF" transform="translate(0,0)"/>
<path d="" fill="#FFFFFF" transform="translate(0,0)"/>
<path d="" fill="#FFFF00" transform="translate(0,0)"/>
<path d="" fill="#FFFFFF" transform="translate(0,0)"/>
<path d="" fill="#FFFFFF" transform="translate(0,0)"/>
<path d="" fill="#FFFFFF" transform="translate(0,0)"/>
<path d="" fill="#FFFFFF" transform="translate(0,0)"/>
<path d="" fill="#FFFFFF" transform="translate(0,0)"/>
<path d="" fill="#FFFFFF" transform="translate(0,0)"/>
<path d="" fill="#FFFFFF" transform="translate(0,0)"/>
<path d="" fill="#FFFFFF" transform="translate(0,0)"/>
<path d="" fill="#FFFFFF" transform="translate(0,0)"/>
<path d="" fill="#FFFFFF" transform="translate(0,0)"/>
<path d="" fill="#FFFFFF" transform="translate(0,0)"/>
<path d="" fill="#FFFFFF" transform="translate(0,0)"/>
</svg>
