<?xml version="1.0" encoding="UTF-8"?>
<svg version="1.1" xmlns="http://www.w3.org/2000/svg" width="240" height="240">
<path d="M0 0 C1.26155717 3.78467152 1.51582198 6.00237967 1 10 C-0.97925672 13.32421159 -3.41358271 16.13355722 -6 19 C-6.55171875 19.63292969 -7.1034375 20.26585938 -7.671875 20.91796875 C-11.48205892 25.02752426 -15.62505997 27.78596217 -20.484375 30.54296875 C-22.79856621 31.88333105 -24.94406554 33.3308651 -27.125 34.875 C-31.99950511 38.2037161 -37.25819464 40.69834882 -42.59228516 43.19677734 C-46.03610064 44.84533306 -47.83843148 45.75764723 -50 49 C-49.34 49.99 -48.68 50.98 -48 52 C-47.98828125 53.9375 -47.98828125 53.9375 -48.3125 56 C-48.41175781 56.680625 -48.51101562 57.36125 -48.61328125 58.0625 C-49 60 -49 60 -50 63 C-49.01 62.67 -48.02 62.34 -47 62 C-39.98931011 62.93475865 -36.43455956 65.54999057 -32 71 C-30.23330214 74.53339571 -30.41978221 78.18173788 -31.61328125 81.921875 C-33.43281216 85.92965233 -35.74186883 88.92738026 -38.75 92.125 C-46.24465339 100.21866844 -50.86736757 110.57221107 -55.703125 120.38671875 C-60.44839063 129.94871485 -66.66516383 137.9191409 -73.9375 145.6875 C-74.51951172 146.32494141 -75.10152344 146.96238281 -75.70117188 147.61914062 C-78.55292628 150.67932891 -81.3157918 153.32933646 -84.79296875 155.66796875 C-87.93624283 157.95363821 -89.04611596 159.07724536 -90.375 162.625 C-90.67148438 163.38039062 -90.96796875 164.13578125 -91.2734375 164.9140625 C-93.06294813 170.05168979 -93.19131525 174.28082022 -93.1875 179.6875 C-93.18814453 180.62343994 -93.18878906 181.55937988 -93.18945312 182.52368164 C-93.1358371 189.67837405 -92.50774436 196.58427164 -91.4375 203.65234375 C-91 207 -91 207 -91 213 C-112.45 213 -133.9 213 -156 213 C-156.226875 202.48125 -156.45375 191.9625 -156.6875 181.125 C-156.76701904 177.84320801 -156.84653809 174.56141602 -156.9284668 171.18017578 C-157.22256021 156.84410084 -157.36755395 143.02428532 -154 129 C-153.75886475 127.89736816 -153.51772949 126.79473633 -153.26928711 125.65869141 C-152.59930967 122.67596963 -151.87381997 119.71379796 -151.125 116.75 C-150.59919483 114.61224098 -150.07447702 112.47421425 -149.55078125 110.3359375 C-149.29119629 109.28116211 -149.03161133 108.22638672 -148.76416016 107.13964844 C-146.73085244 98.78554709 -144.85757451 90.39461266 -143 82 C-142.83338867 81.25975586 -142.66677734 80.51951172 -142.49511719 79.75683594 C-140.47714744 70.77697624 -140.47714744 70.77697624 -140 61.625 C-140.15944185 55.6160352 -139.22982674 50.52334958 -135.16015625 45.91796875 C-130.63931642 41.78438894 -127.85533683 39.87427254 -121.62890625 40.1484375 C-120.9836499 40.18855957 -120.33839355 40.22868164 -119.67358398 40.27001953 C-101.52070203 41.17273021 -84.69710404 32.23576028 -68.390625 25.234375 C-61.77740594 22.43933004 -55.04722287 20.31164615 -48.1796875 18.23828125 C-34.81445187 14.1842861 -23.22411683 9.57675832 -11.2734375 2.3515625 C-10.48195312 1.88492187 -9.69046875 1.41828125 -8.875 0.9375 C-8.23304688 0.53402344 -7.59109375 0.13054688 -6.9296875 -0.28515625 C-4.34104046 -1.24410849 -2.61544026 -0.71947232 0 0 Z " fill="#D8A07E" transform="translate(176,12)"/>
<path d="M0 0 C1.26155717 3.78467152 1.51582198 6.00237967 1 10 C-0.97925672 13.32421159 -3.41358271 16.13355722 -6 19 C-6.55171875 19.63292969 -7.1034375 20.26585938 -7.671875 20.91796875 C-11.48205892 25.02752426 -15.62505997 27.78596217 -20.484375 30.54296875 C-22.79856621 31.88333105 -24.94406554 33.3308651 -27.125 34.875 C-31.99950511 38.2037161 -37.25819464 40.69834882 -42.59228516 43.19677734 C-46.03610064 44.84533306 -47.83843148 45.75764723 -50 49 C-49.34 49.99 -48.68 50.98 -48 52 C-47.98828125 53.9375 -47.98828125 53.9375 -48.3125 56 C-48.41175781 56.680625 -48.51101562 57.36125 -48.61328125 58.0625 C-49 60 -49 60 -50 63 C-49.01 62.67 -48.02 62.34 -47 62 C-39.98931011 62.93475865 -36.43455956 65.54999057 -32 71 C-30.23330214 74.53339571 -30.41978221 78.18173788 -31.61328125 81.921875 C-34.29612544 87.83122344 -38.55873068 92.34313509 -43 97 C-43 94 -43 94 -42.484375 91.65234375 C-41.25911836 84.94307556 -42.23625923 77.71050323 -46 72 C-47.03938652 70.91447883 -48.08123436 69.83131117 -49.125 68.75 C-52.86187989 64.6338823 -52.97833736 60.38316533 -53 55 C-56.87621978 54.63942142 -58.5479221 54.68856856 -61.8125 56.9375 C-64.84036862 59.79234756 -65.25872715 60.87005129 -66 65 C-70.55960221 66.77935696 -74.14548684 67 -79 67 C-81.40312791 67.52568423 -83.65658134 68.23480207 -86 69 C-84.84371094 69.29003906 -84.84371094 69.29003906 -83.6640625 69.5859375 C-82.66117187 69.84632812 -81.65828125 70.10671875 -80.625 70.375 C-79.62726563 70.63023438 -78.62953125 70.88546875 -77.6015625 71.1484375 C-75 72 -75 72 -73 74 C-72.875 77.125 -72.875 77.125 -73 80 C-74.98 79.505 -74.98 79.505 -77 79 C-77.33 79.66 -77.66 80.32 -78 81 C-78.66 81 -79.32 81 -80 81 C-80 81.66 -80 82.32 -80 83 C-82.10409639 83.02701408 -84.20829178 83.04640223 -86.3125 83.0625 C-87.48425781 83.07410156 -88.65601562 83.08570312 -89.86328125 83.09765625 C-93 83 -93 83 -96 82 C-96 81.34 -96 80.68 -96 80 C-96.7734375 80.495 -96.7734375 80.495 -97.5625 81 C-101.39934265 82.57408929 -105.00618294 82.64749703 -108.97265625 81.359375 C-113.56382509 79.43617491 -113.56382509 79.43617491 -115 78 C-116.32 78 -117.64 78 -119 78 C-119 78.66 -119 79.32 -119 80 C-122.6678852 81.96189209 -125.87248551 83.39301257 -130 84 C-130.20625 84.94875 -130.4125 85.8975 -130.625 86.875 C-132 90 -132 90 -135.125 91.375 C-136.548125 91.684375 -136.548125 91.684375 -138 92 C-137.979375 91.195625 -137.95875 90.39125 -137.9375 89.5625 C-137.70366379 87.06645115 -137.70366379 87.06645115 -139 86 C-138.979375 86.804375 -138.95875 87.60875 -138.9375 88.4375 C-139 91 -139 91 -140 92 C-140.32468752 94.03667627 -140.6094466 96.07977297 -140.875 98.125 C-141.63616882 103.33389408 -142.77744542 107.27707151 -145 112 C-145.38270108 113.38828117 -145.73624936 114.78487915 -146.0625 116.1875 C-146.80730393 119.2163693 -147.64017606 121.28035212 -149 124 C-149 126.07321477 -148.9929708 128.14787359 -148.89453125 130.21875 C-148.67090139 136.43778988 -148.67090139 136.43778988 -150.5 139.5625 C-150.995 140.036875 -151.49 140.51125 -152 141 C-150.68 140.67 -149.36 140.34 -148 140 C-150.625 146.75 -150.625 146.75 -154 149 C-154.41480107 151.02887311 -154.41480107 151.02887311 -154.29296875 153.3515625 C-154.28330078 154.20234375 -154.27363281 155.053125 -154.26367188 155.9296875 C-154.23853516 156.81914062 -154.21339844 157.70859375 -154.1875 158.625 C-154.17396484 159.5221875 -154.16042969 160.419375 -154.14648438 161.34375 C-154.11106925 163.56309789 -154.06168461 165.78125188 -154 168 C-154.66 168 -155.32 168 -156 168 C-158.81871009 146.85967433 -153.78821385 127.55395971 -148.76416016 107.13964844 C-146.73085244 98.78554709 -144.85757451 90.39461266 -143 82 C-142.83338867 81.25975586 -142.66677734 80.51951172 -142.49511719 79.75683594 C-140.47714744 70.77697624 -140.47714744 70.77697624 -140 61.625 C-140.15944185 55.6160352 -139.22982674 50.52334958 -135.16015625 45.91796875 C-130.63931642 41.78438894 -127.85533683 39.87427254 -121.62890625 40.1484375 C-120.9836499 40.18855957 -120.33839355 40.22868164 -119.67358398 40.27001953 C-101.52070203 41.17273021 -84.69710404 32.23576028 -68.390625 25.234375 C-61.77740594 22.43933004 -55.04722287 20.31164615 -48.1796875 18.23828125 C-34.81445187 14.1842861 -23.22411683 9.57675832 -11.2734375 2.3515625 C-10.48195312 1.88492187 -9.69046875 1.41828125 -8.875 0.9375 C-8.23304688 0.53402344 -7.59109375 0.13054688 -6.9296875 -0.28515625 C-4.34104046 -1.24410849 -2.61544026 -0.71947232 0 0 Z " fill="#F9D9C2" transform="translate(176,12)"/>
<path d="M0 0 C0.66 0 1.32 0 2 0 C2.4125 1.11375 2.825 2.2275 3.25 3.375 C4.48591903 6.32666943 4.48591903 6.32666943 7 8.25 C7.66 8.4975 8.32 8.745 9 9 C10.75 10.1875 10.75 10.1875 12 12 C12.2804701 15.85646386 12.18234854 19.30516081 11 23 C11.66 23 12.32 23 13 23 C13 23.66 13 24.32 13 25 C12.34 25 11.68 25 11 25 C10.34 26.98 9.68 28.96 9 31 C8.01 31 7.02 31 6 31 C5.5196682 32.58298026 5.04078388 34.16639978 4.5625 35.75 C4.29566406 36.63171875 4.02882813 37.5134375 3.75390625 38.421875 C3.11531506 40.60565835 2.53224167 42.78835498 2 45 C1.34 45 0.68 45 0 45 C0 46.65 0 48.3 0 50 C-1.98 49.67 -3.96 49.34 -6 49 C-5.505 52.465 -5.505 52.465 -5 56 C-5.66 56 -6.32 56 -7 56 C-7 57.32 -7 58.64 -7 60 C-7.99 60 -8.98 60 -10 60 C-10.33 61.65 -10.66 63.3 -11 65 C-11.66 65 -12.32 65 -13 65 C-13.66 66.32 -14.32 67.64 -15 69 C-15.66 69 -16.32 69 -17 69 C-16.9175 69.9075 -16.835 70.815 -16.75 71.75 C-17 75 -17 75 -18.875 77.375 C-21 79 -21 79 -23 79 C-23.33 79.66 -23.66 80.32 -24 81 C-24.66 81 -25.32 81 -26 81 C-26.495 82.98 -26.495 82.98 -27 85 C-27.639375 85.12375 -28.27875 85.2475 -28.9375 85.375 C-29.9584375 85.684375 -29.9584375 85.684375 -31 86 C-31.33 86.66 -31.66 87.32 -32 88 C-32.66 88 -33.32 88 -34 88 C-34 88.66 -34 89.32 -34 90 C-34.66 90 -35.32 90 -36 90 C-36.33 90.66 -36.66 91.32 -37 92 C-37.66 92 -38.32 92 -39 92 C-40.125 85.25 -40.125 85.25 -39 83 C-39.61875 82.13375 -40.2375 81.2675 -40.875 80.375 C-44.02644376 75.28503929 -43.64071926 69.3457348 -43.82421875 63.546875 C-43.83892196 60.03509825 -43.83892196 60.03509825 -45 57 C-45.969375 56.566875 -46.93875 56.13375 -47.9375 55.6875 C-51 54 -51 54 -52.3125 51.375 C-53.02274357 47.88834973 -53.37145098 44.5028008 -53.55859375 40.953125 C-53.85478772 38.59897764 -53.85478772 38.59897764 -57 37 C-59.04705225 36.40260055 -61.11233108 35.86590017 -63.1875 35.375 C-64.27417969 35.11460938 -65.36085937 34.85421875 -66.48046875 34.5859375 C-67.31191406 34.39257812 -68.14335938 34.19921875 -69 34 C-69 33.67 -69 33.34 -69 33 C-64.38 33 -59.76 33 -55 33 C-54.97417882 28.02801942 -54.97417882 28.02801942 -57 24 C-54.33333333 24.66666667 -51.66666667 25.33333333 -49 26 C-49 23.69 -49 21.38 -49 19 C-44.62065881 19.51958285 -40.31196609 20.05675742 -36 21 C-36 21.66 -36 22.32 -36 23 C-34.02 23 -32.04 23 -30 23 C-30.515625 24.0725 -31.03125 25.145 -31.5625 26.25 C-32.59902059 28.65394916 -33.02841775 29.73003133 -32.75 32.375 C-32.11214846 34.00308665 -32.11214846 34.00308665 -31 35 C-30.95919217 36.99958364 -30.95745644 39.00045254 -31 41 C-28.03 40.34 -25.06 39.68 -22 39 C-22 38.34 -22 37.68 -22 37 C-19.16541034 34.36317241 -16.99258021 32.37812579 -13.375 31 C-10.15259953 29.6431998 -9.00429946 27.84863034 -7 25 C-4.14411031 17.96293849 -2.55208296 10.53309728 -1.39453125 3.046875 C-1 1 -1 1 0 0 Z M-31 33 C-30.01 33.495 -30.01 33.495 -29 34 C-29.99 34.495 -29.99 34.495 -31 35 C-31 34.34 -31 33.68 -31 33 Z " fill="#DD9E7F" transform="translate(121,79)"/>
<path d="M0 0 C0.87978516 0.33644531 0.87978516 0.33644531 1.77734375 0.6796875 C2.58984375 2.8671875 2.58984375 2.8671875 2.77734375 5.6796875 C1.17085608 7.59710827 -0.35564167 9.0471558 -2.22265625 10.6796875 C-3.49986591 11.96504956 -4.77021618 13.25724897 -6.03515625 14.5546875 C-9.15988334 17.67941459 -12.38952847 20.60444761 -15.73828125 23.484375 C-19.22979923 26.56964718 -22.63079621 29.74882351 -26.03515625 32.9296875 C-27.02334351 33.85225342 -27.02334351 33.85225342 -28.03149414 34.79345703 C-30.80143431 37.38633479 -33.54422544 39.99218161 -36.22265625 42.6796875 C-34.28447021 42.71727173 -34.28447021 42.71727173 -32.30712891 42.75561523 C-27.52495969 42.84960374 -22.74293863 42.94984516 -17.9609375 43.05200195 C-15.88903259 43.09538327 -13.81709118 43.13705596 -11.74511719 43.17700195 C-8.77137234 43.23462715 -5.79781177 43.29834375 -2.82421875 43.36328125 C-1.42884384 43.38834999 -1.42884384 43.38834999 -0.00527954 43.41392517 C0.85546173 43.43387039 1.716203 43.45381561 2.60302734 43.47436523 C3.3624765 43.48990952 4.12192566 43.5054538 4.90438843 43.52146912 C6.77734375 43.6796875 6.77734375 43.6796875 8.77734375 44.6796875 C8.99414062 46.97460937 8.99414062 46.97460937 8.77734375 49.6796875 C7.32617188 51.40039062 7.32617188 51.40039062 5.30859375 52.9609375 C2.23126917 55.46397264 -0.6510512 58.01434713 -3.44140625 60.8359375 C-4.49908203 61.90521484 -4.49908203 61.90521484 -5.578125 62.99609375 C-6.28582031 63.71667969 -6.99351562 64.43726562 -7.72265625 65.1796875 C-12.48349674 70.0272464 -17.29853256 74.69788175 -22.45019531 79.12988281 C-24.69013858 81.08844478 -26.77550645 83.17045081 -28.84765625 85.3046875 C-32.15980349 88.66275706 -35.53185459 91.74597336 -39.22265625 94.6796875 C-36.25265625 95.3396875 -33.28265625 95.9996875 -30.22265625 96.6796875 C-30.17993525 98.34580655 -30.18201793 100.01351635 -30.22265625 101.6796875 C-31.81203181 103.26906306 -33.46165471 102.80949893 -35.66015625 102.8125 C-37.00207031 102.81443359 -37.00207031 102.81443359 -38.37109375 102.81640625 C-39.78261719 102.81060547 -39.78261719 102.81060547 -41.22265625 102.8046875 C-42.63417969 102.81048828 -42.63417969 102.81048828 -44.07421875 102.81640625 C-44.96882812 102.81511719 -45.8634375 102.81382813 -46.78515625 102.8125 C-47.61144531 102.81137207 -48.43773437 102.81024414 -49.2890625 102.80908203 C-51.22265625 102.6796875 -51.22265625 102.6796875 -52.22265625 101.6796875 C-52.30991848 99.89897504 -52.32964666 98.1148561 -52.3203125 96.33203125 C-52.31708984 95.25244141 -52.31386719 94.17285156 -52.31054688 93.06054688 C-52.30216797 91.92423828 -52.29378906 90.78792969 -52.28515625 89.6171875 C-52.28064453 88.47701172 -52.27613281 87.33683594 -52.27148438 86.16210938 C-52.25965372 83.33458399 -52.24317035 80.5071611 -52.22265625 77.6796875 C-50.5565372 77.6369665 -48.8888274 77.63904918 -47.22265625 77.6796875 C-46.22265625 78.6796875 -46.22265625 78.6796875 -46.125 81.18359375 C-46.13660156 82.19292969 -46.14820313 83.20226562 -46.16015625 84.2421875 C-46.16917969 85.25410156 -46.17820313 86.26601562 -46.1875 87.30859375 C-46.19910156 88.09105469 -46.21070313 88.87351562 -46.22265625 89.6796875 C-40.02424269 84.33811346 -33.97396406 78.83977724 -27.96435547 73.28759766 C-26.73816696 72.15559912 -25.51049031 71.02521148 -24.28173828 69.89599609 C-22.25862185 68.03590039 -20.24019446 66.17083047 -18.22265625 64.3046875 C-17.5877124 63.72195068 -16.95276855 63.13921387 -16.29858398 62.53881836 C-15.39474976 61.69975952 -15.39474976 61.69975952 -14.47265625 60.84375 C-13.9415625 60.35342285 -13.41046875 59.8630957 -12.86328125 59.35791016 C-10.81130783 57.25891235 -9.02753035 54.99218244 -7.22265625 52.6796875 C-8.4844873 52.65986816 -9.74631836 52.64004883 -11.04638672 52.61962891 C-15.71684117 52.54369985 -20.38697885 52.45496338 -25.05712891 52.36230469 C-27.08050291 52.32396229 -29.10394631 52.28911879 -31.12744141 52.2578125 C-34.03182828 52.21227581 -36.93573519 52.15426341 -39.83984375 52.09375 C-40.74821991 52.08219879 -41.65659607 52.07064758 -42.59249878 52.05874634 C-43.4332193 52.03887665 -44.27393982 52.01900696 -45.14013672 51.99853516 C-45.88182098 51.98521149 -46.62350525 51.97188782 -47.38766479 51.9581604 C-49.22265625 51.6796875 -49.22265625 51.6796875 -51.22265625 49.6796875 C-51.73771027 46.41402585 -51.48987789 45.06954708 -49.60546875 42.3203125 C-44.86374996 37.29966907 -40.01111143 32.51792945 -34.8203125 27.9609375 C-32.10272196 25.57436175 -29.44446016 23.13093776 -26.78515625 20.6796875 C-22.25200369 16.54990869 -17.58533135 12.6352564 -12.80078125 8.80078125 C-9.72447707 6.2698219 -6.83260524 3.57272647 -3.9765625 0.796875 C-2.22265625 -0.3203125 -2.22265625 -0.3203125 0 0 Z " fill="#ABACA8" transform="translate(221.22265625,24.3203125)"/>
<path d="M0 0 C0.66 0 1.32 0 2 0 C3.49821059 3.37097383 4 5.20442119 4 9 C4.639375 9.226875 5.27875 9.45375 5.9375 9.6875 C8 11 8 11 8.75 13.1875 C9.65873016 23.41071429 9.65873016 23.41071429 7 27 C4.00711009 28.99525994 2.76914404 29 -1 29 C0.07401108 31.91517292 0.77810176 33.77810176 3 36 C-1.35515272 36.3732988 -3.35708332 35.27682292 -7 33 C-9.69254991 32.29329272 -9.69254991 32.29329272 -12 32 C-11.2575 31.113125 -10.515 30.22625 -9.75 29.3125 C-4.37416351 21.77414571 -2.78425352 12.03461156 -1.39453125 3.046875 C-1 1 -1 1 0 0 Z M-49 19 C-44.62065881 19.51958285 -40.31196609 20.05675742 -36 21 C-36 21.66 -36 22.32 -36 23 C-34.02 23 -32.04 23 -30 23 C-30.7734375 24.60875 -30.7734375 24.60875 -31.5625 26.25 C-32.59902059 28.65394916 -33.02841775 29.73003133 -32.75 32.375 C-32.11214846 34.00308665 -32.11214846 34.00308665 -31 35 C-30.95919217 36.99958364 -30.95745644 39.00045254 -31 41 C-28.03 40.34 -25.06 39.68 -22 39 C-22 38.34 -22 37.68 -22 37 C-19.25 34.3125 -19.25 34.3125 -16 32 C-13.625 32.1875 -13.625 32.1875 -12 33 C-13.21775059 35.63034128 -14.20635954 37.76444812 -16 40 C-19.625 41.25 -19.625 41.25 -23 42 C-23.66 42.99 -24.32 43.98 -25 45 C-26.33047982 45.34454657 -27.66400079 45.67751743 -29 46 C-30.299375 47.423125 -30.299375 47.423125 -31.625 48.875 C-35.37607368 52.81648351 -39.67741428 54.23963061 -45 55 C-48.5 54.5 -48.5 54.5 -51 53 C-53.33527217 49.33028659 -53.33731412 45.23542251 -53.55859375 40.98828125 C-53.84779901 38.60164944 -53.84779901 38.60164944 -57 37 C-59.04705225 36.40260055 -61.11233108 35.86590017 -63.1875 35.375 C-64.27417969 35.11460938 -65.36085937 34.85421875 -66.48046875 34.5859375 C-67.31191406 34.39257812 -68.14335938 34.19921875 -69 34 C-69 33.67 -69 33.34 -69 33 C-64.38 33 -59.76 33 -55 33 C-54.97417882 28.02801942 -54.97417882 28.02801942 -57 24 C-53 25 -53 25 -49 26 C-49 23.69 -49 21.38 -49 19 Z M-31 33 C-30.01 33.495 -30.01 33.495 -29 34 C-29.99 34.495 -29.99 34.495 -31 35 C-31 34.34 -31 33.68 -31 33 Z " fill="#C67557" transform="translate(121,79)"/>
<path d="M0 0 C2.35273568 3.52910353 2.40753493 4.84314368 2 9 C-1.01230895 18.03692684 -9.56954149 24.16231307 -17.56640625 28.6171875 C-19.81712212 29.89608544 -21.84396802 31.29520751 -23.9375 32.8125 C-25.61006721 33.89835515 -27.30071324 34.9564546 -29 36 C-29.6192334 36.39251953 -30.2384668 36.78503906 -30.87646484 37.18945312 C-44.00225319 45.26779861 -53.90697459 45.74329833 -68.84960938 42.53173828 C-71 42 -71 42 -74 41 C-72.72995023 37.18985068 -71.48886603 36.82372543 -68 35 C-66.33927151 34.31867549 -64.672233 33.65257873 -63 33 C-59.52257845 31.37720327 -56.35987626 29.57759509 -53.1875 27.4375 C-49.59749823 25.14673696 -46.39916409 24.22657536 -42.2421875 23.45703125 C-38.15150745 22.62321668 -33.45214542 21.54121033 -30.53515625 18.4453125 C-27.83242694 15.90075818 -24.59242245 16.29446086 -21 16 C-21 15.34 -21 14.68 -21 14 C-20.34 13.67 -19.68 13.34 -19 13 C-18.67 12.01 -18.34 11.02 -18 10 C-17.01 10 -16.02 10 -15 10 C-15 9.34 -15 8.68 -15 8 C-8.375 4.125 -8.375 4.125 -5 3 C-5 2.34 -5 1.68 -5 1 C-3 0 -3 0 0 0 Z " fill="#EB8E75" transform="translate(173,14)"/>
<path d="M0 0 C2 2 2 2 3 5 C3.99 5.495 4.98 5.99 6 6.5 C6.99 6.995 7.98 7.49 9 8 C9.98683518 10.96050555 10.1420076 13.45267349 10.24072266 16.5480957 C10.48312998 23.77331805 11.2760738 28.66932547 15 35 C14.67 35.99 14.34 36.98 14 38 C13.96125079 39.66621616 13.9549714 41.33394172 14 43 C14.66 43 15.32 43 16 43 C16.33 42.01 16.66 41.02 17 40 C17.66 40.33 18.32 40.66 19 41 C18.67 40.01 18.34 39.02 18 38 C21 37 21 37 23.0625 36.6875 C25.20121972 36.15861061 25.20121972 36.15861061 26.25 33.9375 C26.4975 33.298125 26.745 32.65875 27 32 C27.66 32 28.32 32 29 32 C29.495 30.515 29.495 30.515 30 29 C31.9375 27.875 31.9375 27.875 34 27 C34.66 26.67 35.32 26.34 36 26 C34.48903853 29.54712346 32.41167865 31.85663515 29.6875 34.5625 C28.92824219 35.32691406 28.16898438 36.09132812 27.38671875 36.87890625 C25 39 25 39 22.34765625 40.49609375 C19.59947965 42.25657293 18.92996492 43.50008917 17.75 46.5 C17.43546875 47.2734375 17.1209375 48.046875 16.796875 48.84375 C14.89471343 53.99077542 14.80866102 58.24719255 14.8125 63.6875 C14.81185547 64.62343994 14.81121094 65.55937988 14.81054688 66.52368164 C14.8641629 73.67837405 15.49225564 80.58427164 16.5625 87.65234375 C16.97579141 90.81476104 17.07778736 93.81558006 17 97 C15.68 96.67 14.36 96.34 13 96 C12.67 90.06 12.34 84.12 12 78 C11.34 77.67 10.68 77.34 10 77 C9.3671875 75.15234375 9.3671875 75.15234375 8.875 72.9375 C8.62363281 71.83728516 8.62363281 71.83728516 8.3671875 70.71484375 C8.24601562 70.14894531 8.12484375 69.58304687 8 69 C7.34 69 6.68 69 6 69 C6 64.71 6 60.42 6 56 C4.68 56 3.36 56 2 56 C2 54.68 2 53.36 2 52 C5.4019487 49.90649311 8.05272412 49.82057837 12 50 C12 49.01 12 48.02 12 47 C10.3603125 47.061875 10.3603125 47.061875 8.6875 47.125 C5 47 5 47 2 45 C2 44.01 2 43.02 2 42 C0.68 42 -0.64 42 -2 42 C-3.0326802 39.21176345 -3.04509293 38.1322726 -2.0625 35.25 C-1.711875 34.5075 -1.36125 33.765 -1 33 C-0.34 33 0.32 33 1 33 C1 28.05 1 23.1 1 18 C0.01 18.66 -0.98 19.32 -2 20 C-1.979375 19.195625 -1.95875 18.39125 -1.9375 17.5625 C-1.70366379 15.06645115 -1.70366379 15.06645115 -3 14 C-3.38493338 8.32223263 -3.00244501 5.00407501 0 0 Z " fill="#EDC1A4" transform="translate(68,128)"/>
<path d="M0 0 C1.19754817 3.59264452 1.33094958 6.22717474 1 10 C-1 12.4375 -1 12.4375 -3 14 C-2.91621094 13.38511719 -2.83242187 12.77023438 -2.74609375 12.13671875 C-2.59333984 10.92435547 -2.59333984 10.92435547 -2.4375 9.6875 C-2.33308594 8.88699219 -2.22867188 8.08648437 -2.12109375 7.26171875 C-1.85244822 4.83182884 -1.85244822 4.83182884 -3 2 C-4.65 2.33 -6.3 2.66 -8 3 C-8 3.66 -8 4.32 -8 5 C-9.42578125 6.2890625 -9.42578125 6.2890625 -11.3125 7.625 C-11.92738281 8.07101563 -12.54226562 8.51703125 -13.17578125 8.9765625 C-15 10 -15 10 -18 10 C-18 10.66 -18 11.32 -18 12 C-18.99 12 -19.98 12 -21 12 C-21.33 13.32 -21.66 14.64 -22 16 C-22.66 16 -23.32 16 -24 16 C-24 16.66 -24 17.32 -24 18 C-25.04800781 18.14695312 -25.04800781 18.14695312 -26.1171875 18.296875 C-27.02726562 18.44640625 -27.93734375 18.5959375 -28.875 18.75 C-29.77992188 18.88921875 -30.68484375 19.0284375 -31.6171875 19.171875 C-34.15364285 19.75202562 -34.15364285 19.75202562 -35.05859375 21.97265625 C-35.36925781 22.64167969 -35.67992187 23.31070313 -36 24 C-37.91796875 25.01171875 -37.91796875 25.01171875 -40.1875 25.6875 C-40.99058594 25.92855469 -41.79367188 26.16960938 -42.62109375 26.41796875 C-45 27 -45 27 -48.75 27.5 C-53.00098976 28.15399843 -55.63911178 29.77989332 -58.8125 32.625 C-61.44459258 34.2794582 -63.74424311 34.4126614 -66.796875 34.6953125 C-71.52220701 35.34881586 -75.97453434 37.2510336 -80.4296875 38.8984375 C-81.21601562 39.17945313 -82.00234375 39.46046875 -82.8125 39.75 C-83.87404297 40.14445312 -83.87404297 40.14445312 -84.95703125 40.546875 C-87.31142113 41.06907237 -88.73462643 40.75342762 -91 40 C-89.68 38.68 -88.36 37.36 -87 36 C-87.639375 36.268125 -88.27875 36.53625 -88.9375 36.8125 C-102.86428368 42.21268143 -102.86428368 42.21268143 -109.046875 41.9921875 C-109.81 41.97542969 -110.573125 41.95867188 -111.359375 41.94140625 C-112.9377504 41.89756249 -114.51592461 41.84563956 -116.09375 41.78515625 C-121.75507891 41.68066864 -125.87468375 42.51654102 -131 45 C-132.48854545 47.28891411 -133.13800128 49.36611503 -134 52 C-134.66 52.66 -135.32 53.32 -136 54 C-136.59834554 55.52056618 -137.13506656 57.06612088 -137.625 58.625 C-137.88539063 59.44226563 -138.14578125 60.25953125 -138.4140625 61.1015625 C-138.60742188 61.72804687 -138.80078125 62.35453125 -139 63 C-139.33 63 -139.66 63 -140 63 C-139.54283036 55.02317804 -138.72033974 49.26515784 -132.5625 43.6875 C-128.30377815 40.05758272 -125.19512663 39.92668975 -119.67358398 40.27001953 C-101.52070203 41.17273021 -84.69710404 32.23576028 -68.390625 25.234375 C-61.77740594 22.43933004 -55.04722287 20.31164615 -48.1796875 18.23828125 C-34.81445187 14.1842861 -23.22411683 9.57675832 -11.2734375 2.3515625 C-10.48195312 1.88492187 -9.69046875 1.41828125 -8.875 0.9375 C-8.23304688 0.53402344 -7.59109375 0.13054688 -6.9296875 -0.28515625 C-4.34104046 -1.24410849 -2.61544026 -0.71947232 0 0 Z " fill="#FBDEC7" transform="translate(176,12)"/>
<path d="M0 0 C3.125 0.375 3.125 0.375 6 1 C6.20302734 2.16015625 6.20302734 2.16015625 6.41015625 3.34375 C7.81648647 10.14803032 9.48696682 14.48404973 14.4765625 19.37890625 C17.63314301 22.73783167 17.37744388 27.19277571 17.6875 31.5625 C17.74744141 32.24763672 17.80738281 32.93277344 17.86914062 33.63867188 C17.99687787 35.42174389 18.00621424 37.21236917 18 39 C17.34 39.66 16.68 40.32 16 41 C15.30139577 42.61379699 14.60726572 44.22969257 13.93701172 45.85546875 C12.04581174 50.18384306 9.76779552 54.32558518 7.5625 58.5 C7.08490234 59.41136719 6.60730469 60.32273438 6.11523438 61.26171875 C-4.96532788 82.32846674 -4.96532788 82.32846674 -13 88 C-13.33663062 84.29706315 -13.47736015 82.60465619 -11.125 79.625 C-9 78 -9 78 -7 78 C-6.67 76.35 -6.34 74.7 -6 73 C-5.01 73 -4.02 73 -3 73 C-3 71.68 -3 70.36 -3 69 C-2.34 69 -1.68 69 -1 69 C-1.66 66.36 -2.32 63.72 -3 61 C-0.69 61.66 1.62 62.32 4 63 C4 61.35 4 59.7 4 58 C4.66 58 5.32 58 6 58 C6.103125 56.80375 6.20625 55.6075 6.3125 54.375 C6.81043271 50.426604 7.84429605 47.39937931 10 44 C10.99 43.67 11.98 43.34 13 43 C14.21869929 40.49552484 14.21869929 40.49552484 15 38 C15.66 38 16.32 38 17 38 C17 37.34 17 36.68 17 36 C16.34 36 15.68 36 15 36 C15.33 32.37 15.66 28.74 16 25 C15.01 24.67 14.02 24.34 13 24 C12.505 23.01 12.505 23.01 12 22 C11.360625 21.71125 10.72125 21.4225 10.0625 21.125 C7.53548352 19.74662738 6.97163556 18.67199778 6 16 C6 15.01 6 14.02 6 13 C5.319375 13.7425 5.319375 13.7425 4.625 14.5 C3 16 3 16 1 16 C0.34 17.32 -0.32 18.64 -1 20 C-25.29777778 17.70222222 -25.29777778 17.70222222 -29 14 C-27.1746875 13.7834375 -27.1746875 13.7834375 -25.3125 13.5625 C-23.01348493 13.27663298 -20.7729136 12.95458272 -18.5 12.5 C-15.01911346 11.80382269 -11.52493785 11.41821297 -8 11 C-7.34 9.35 -6.68 7.7 -6 6 C-6.66 6 -7.32 6 -8 6 C-6.60624928 3.21249856 -4.83755139 3.10733713 -2 2 C-1.34 1.34 -0.68 0.68 0 0 Z " fill="#E8A37F" transform="translate(117,66)"/>
<path d="M0 0 C2.97 0 5.94 0 9 0 C8.67 0.99 8.34 1.98 8 3 C8.99 4.485 8.99 4.485 10 6 C10.01171875 7.9375 10.01171875 7.9375 9.6875 10 C9.58824219 10.680625 9.48898438 11.36125 9.38671875 12.0625 C9 14 9 14 8 17 C8.99 16.67 9.98 16.34 11 16 C18.01068989 16.93475865 21.56544044 19.54999057 26 25 C27.76669786 28.53339571 27.58021779 32.18173788 26.38671875 35.921875 C23.70387456 41.83122344 19.44126932 46.34313509 15 51 C15 48 15 48 15.515625 45.65234375 C16.74088164 38.94307556 15.76374077 31.71050323 12 26 C10.96061348 24.91447883 9.91876564 23.83131117 8.875 22.75 C5.13812011 18.6338823 5.02166264 14.38316533 5 9 C1.12378022 8.63942142 -0.5479221 8.68856856 -3.8125 10.9375 C-5.4213399 12.45320976 -5.4213399 12.45320976 -7 14 C-10.47871621 15.15957207 -11.34219645 14.77456651 -14.6875 13.5625 C-15.49574219 13.27503906 -16.30398437 12.98757812 -17.13671875 12.69140625 C-17.75160156 12.46324219 -18.36648437 12.23507813 -19 12 C-18.71484375 10.1015625 -18.71484375 10.1015625 -18 8 C-12.22668789 5.27079791 -6.26550192 4.09132718 0 3 C0 2.01 0 1.02 0 0 Z " fill="#F6DCCE" transform="translate(118,58)"/>
<path d="M0 0 C0 1.65 0 3.3 0 5 C-0.66 5.33 -1.32 5.66 -2 6 C-2.268125 6.804375 -2.53625 7.60875 -2.8125 8.4375 C-4 11 -4 11 -6.5625 12.1875 C-7.366875 12.455625 -8.17125 12.72375 -9 13 C-9.33 13.66 -9.66 14.32 -10 15 C-11.65 15 -13.3 15 -15 15 C-15 16.32 -15 17.64 -15 19 C-17.25660873 21.34018683 -18.48760851 21.96506422 -21.75 22.1875 C-22.86375 22.0946875 -22.86375 22.0946875 -24 22 C-24 22.99 -24 23.98 -24 25 C-24.56589844 25.10957031 -25.13179687 25.21914063 -25.71484375 25.33203125 C-26.44832031 25.49058594 -27.18179688 25.64914063 -27.9375 25.8125 C-28.66839844 25.96332031 -29.39929688 26.11414063 -30.15234375 26.26953125 C-31.06693359 26.63111328 -31.06693359 26.63111328 -32 27 C-32.33 27.99 -32.66 28.98 -33 30 C-36.32091002 31.70533217 -38.18492784 32 -42 32 C-42 32.66 -42 33.32 -42 34 C-48.4 35.23076923 -48.4 35.23076923 -51.4375 34.0625 C-52.2109375 33.5365625 -52.2109375 33.5365625 -53 33 C-49.5640263 29.02715541 -46.92354539 27.44120372 -41.97265625 25.8125 C-39.671352 24.97975905 -39.671352 24.97975905 -37 22.5 C-33.93029616 19.94191346 -31.58516894 18.93151816 -27.87890625 17.6796875 C-25.36929173 16.77184358 -23.25138198 15.42192546 -21 14 C-20.030625 13.5875 -19.06125 13.175 -18.0625 12.75 C-15.19655085 11.11231477 -14.06050915 10.05469758 -12.0625 7.5625 C-9.07829208 3.84601943 -5.06202338 0 0 0 Z " fill="#DA8264" transform="translate(170,22)"/>
<path d="M0 0 C0.33 0 0.66 0 1 0 C0.83552405 6.35475248 -0.45113839 12.06327218 -2.4375 18.0625 C-2.65494873 18.72967041 -2.87239746 19.39684082 -3.09643555 20.08422852 C-4.74342991 24.87171496 -4.74342991 24.87171496 -7 26 C-6.42978066 20.6496441 -5.79265639 15.32212148 -5 10 C-7.97 10.66 -10.94 11.32 -14 12 C-14 11.34 -14 10.68 -14 10 C-14.87736816 10.00523682 -15.75473633 10.01047363 -16.65869141 10.01586914 C-19.93506537 10.03298097 -23.21139135 10.04548412 -26.48779297 10.05493164 C-27.90186313 10.0599392 -29.31592816 10.06674718 -30.72998047 10.07543945 C-32.77052073 10.08766256 -34.81099212 10.0932642 -36.8515625 10.09765625 C-38.68968506 10.10551147 -38.68968506 10.10551147 -40.56494141 10.11352539 C-44 10 -44 10 -47.34912109 9.41967773 C-48.22391113 9.28118408 -49.09870117 9.14269043 -50 9 C-51.66621425 10.1645201 -51.66621425 10.1645201 -53 12 C-53.825 12.61875 -54.65 13.2375 -55.5 13.875 C-58.87644054 16.74497446 -60.51545787 19.57867641 -61.9375 23.75 C-62.288125 24.4925 -62.63875 25.235 -63 26 C-65 26.6875 -65 26.6875 -67 27 C-67.66 27.66 -68.32 28.32 -69 29 C-68.22095672 16.33029613 -68.22095672 16.33029613 -66 11 C-65.34 11.33 -64.68 11.66 -64 12 C-64 13.32 -64 14.64 -64 16 C-62.06890419 16.04289755 -62.06890419 16.04289755 -60 15 C-59.566875 13.865625 -59.13375 12.73125 -58.6875 11.5625 C-57 8 -57 8 -53.5625 6.625 C-51.7990625 6.315625 -51.7990625 6.315625 -50 6 C-49.195625 5.79375 -48.39125 5.5875 -47.5625 5.375 C-47.046875 5.25125 -46.53125 5.1275 -46 5 C-46 4.34 -46 3.68 -46 3 C-43.125 2.375 -43.125 2.375 -40 2 C-39.34 2.66 -38.68 3.32 -38 4 C-34.15916037 6.65904282 -30.50786165 6.21466008 -26 6 C-25.01 5.67 -24.02 5.34 -23 5 C-23 5.66 -23 6.32 -23 7 C-21.77023438 6.98259766 -21.77023438 6.98259766 -20.515625 6.96484375 C-19.43796875 6.95582031 -18.3603125 6.94679688 -17.25 6.9375 C-15.64898437 6.92009766 -15.64898437 6.92009766 -14.015625 6.90234375 C-11.46631499 6.98489913 -9.42066409 7.25382442 -7 8 C-7 7.34 -7 6.68 -7 6 C-6.34 6 -5.68 6 -5 6 C-4.67 4.68 -4.34 3.36 -4 2 C-4 2.66 -4 3.32 -4 4 C-2.68 4.33 -1.36 4.66 0 5 C0 3.35 0 1.7 0 0 Z " fill="#EDB798" transform="translate(103,87)"/>
<path d="M0 0 C-1.60033492 3.20066984 -4.75969899 3.70013124 -7.96875 5 C-10.16560255 5.82709949 -10.16560255 5.82709949 -11 8 C-13.64860427 8.59355614 -16.29197322 8.74209269 -19 9 C-19 9.66 -19 10.32 -19 11 C-19.81984375 10.91621094 -20.6396875 10.83242188 -21.484375 10.74609375 C-22.56203125 10.64425781 -23.6396875 10.54242188 -24.75 10.4375 C-25.81734375 10.33308594 -26.8846875 10.22867188 -27.984375 10.12109375 C-30.66449757 10.01347225 -32.54274417 9.9493509 -35 11 C-35.33 11.99 -35.66 12.98 -36 14 C-38.31660891 15.42560548 -40.60658006 16.72418979 -43 18 C-43.845625 18.53625 -44.69125 19.0725 -45.5625 19.625 C-48.30409813 21.17154253 -50.99942498 22.06232031 -54 23 C-55.67163195 23.65411685 -57.34015202 24.31653318 -59 25 C-58.505 23.515 -58.505 23.515 -58 22 C-58.639375 22.268125 -59.27875 22.53625 -59.9375 22.8125 C-73.86428368 28.21268143 -73.86428368 28.21268143 -80.046875 27.9921875 C-80.81 27.97542969 -81.573125 27.95867188 -82.359375 27.94140625 C-83.9377504 27.89756249 -85.51592461 27.84563956 -87.09375 27.78515625 C-92.75507891 27.68066864 -96.87468375 28.51654102 -102 31 C-103.48854545 33.28891411 -104.13800128 35.36611503 -105 38 C-105.66 38.66 -106.32 39.32 -107 40 C-107.59834554 41.52056618 -108.13506656 43.06612088 -108.625 44.625 C-108.88539062 45.44226563 -109.14578125 46.25953125 -109.4140625 47.1015625 C-109.60742188 47.72804687 -109.80078125 48.35453125 -110 49 C-110.33 49 -110.66 49 -111 49 C-110.54283036 41.02317804 -109.72033974 35.26515784 -103.5625 29.6875 C-99.30377815 26.05758272 -96.19512663 25.92668975 -90.67358398 26.27001953 C-72.52070203 27.17273021 -55.69710404 18.23576028 -39.390625 11.234375 C-34.65827583 9.23332903 -29.90162979 7.53271091 -25 6 C-24.06849121 5.70254883 -23.13698242 5.40509766 -22.17724609 5.09863281 C-19.14315103 4.13522538 -16.10367144 3.19080797 -13.0625 2.25 C-11.50305664 1.75693359 -11.50305664 1.75693359 -9.91210938 1.25390625 C-8.92146484 0.94839844 -7.93082031 0.64289062 -6.91015625 0.328125 C-6.01433838 0.0487207 -5.11852051 -0.23068359 -4.19555664 -0.51855469 C-2 -1 -2 -1 0 0 Z " fill="#FCF3E7" transform="translate(147,26)"/>
<path d="M0 0 C0.66 0 1.32 0 2 0 C3.49821059 3.37097383 4 5.20442119 4 9 C4.639375 9.226875 5.27875 9.45375 5.9375 9.6875 C8 11 8 11 8.75 13.1875 C9.65873016 23.41071429 9.65873016 23.41071429 7 27 C4.00711009 28.99525994 2.76914404 29 -1 29 C0.07401108 31.91517292 0.77810176 33.77810176 3 36 C-1.31734008 36.37005772 -3.42457691 35.35225203 -7 33 C-7.99 32.67 -8.98 32.34 -10 32 C-9.36630577 29.10311209 -8.42458409 26.65961394 -7.125 24 C-5.02425738 19.38749991 -3.81256912 14.74483089 -2.66015625 9.8203125 C-1.88482106 6.50793374 -0.96366399 3.26163196 0 0 Z " fill="#CA6B47" transform="translate(121,79)"/>
<path d="M0 0 C0.66 0 1.32 0 2 0 C1.25392371 11.00462531 -0.92928501 21.11271035 -9 29 C-10.32 28.67 -11.64 28.34 -13 28 C-12.34 28 -11.68 28 -11 28 C-10.51787786 26.43840941 -10.03944127 24.87568072 -9.5625 23.3125 C-9.29566406 22.44238281 -9.02882813 21.57226562 -8.75390625 20.67578125 C-8.03655471 18.12974079 -7.482459 15.5996577 -7 13 C-9.26367752 12.79580944 -9.26367752 12.79580944 -11.5 14.9375 C-14.32415283 18.39708722 -14.78946879 20.626743 -15.53125 24.90625 C-16.10758024 27.48052507 -17.18514024 29.10264661 -19 31 C-19.66 30.67 -20.32 30.34 -21 30 C-20.47599609 28.54980469 -20.47599609 28.54980469 -19.94140625 27.0703125 C-15.80091439 16.30342945 -15.80091439 16.30342945 -15 5 C-16.4134738 2.75465791 -16.4134738 2.75465791 -18 1 C-16.08302063 1.14166357 -14.16642277 1.28849584 -12.25 1.4375 C-11.18265625 1.51871094 -10.1153125 1.59992188 -9.015625 1.68359375 C-6.56320038 1.94090773 -4.36078709 2.31812218 -2 3 C-1.34 2.01 -0.68 1.02 0 0 Z " fill="#E19977" transform="translate(118,82)"/>
<path d="M0 0 C0.99 0.66 1.98 1.32 3 2 C2.34 6.29 1.68 10.58 1 15 C0.34 15 -0.32 15 -1 15 C-0.96003906 15.99257812 -0.92007813 16.98515625 -0.87890625 18.0078125 C-1.00807226 22.26612414 -1.77645769 25.80934318 -2.9375 29.875 C-3.11990234 30.55046875 -3.30230469 31.2259375 -3.49023438 31.921875 C-4.8512591 36.8512591 -4.8512591 36.8512591 -6 38 C-6.23075082 39.34747084 -6.41153063 40.70377565 -6.5625 42.0625 C-6.706875 43.361875 -6.85125 44.66125 -7 46 C-6.67 46 -6.34 46 -6 46 C-6.47768841 50.13996619 -7.09590783 53.31875513 -9 57 C-9 59.07321477 -8.9929708 61.14787359 -8.89453125 63.21875 C-8.67090139 69.43778988 -8.67090139 69.43778988 -10.5 72.5625 C-10.995 73.036875 -11.49 73.51125 -12 74 C-10.02 73.505 -10.02 73.505 -8 73 C-10.625 79.75 -10.625 79.75 -14 82 C-14.41480107 84.02887311 -14.41480107 84.02887311 -14.29296875 86.3515625 C-14.28330078 87.20234375 -14.27363281 88.053125 -14.26367188 88.9296875 C-14.23853516 89.81914062 -14.21339844 90.70859375 -14.1875 91.625 C-14.17396484 92.5221875 -14.16042969 93.419375 -14.14648438 94.34375 C-14.11106925 96.56309789 -14.06168461 98.78125188 -14 101 C-14.66 101 -15.32 101 -16 101 C-18.81871009 79.85967433 -13.78821385 60.55395971 -8.76416016 40.13964844 C-5.52456136 26.82934794 -2.57764273 13.45403765 0 0 Z " fill="#F5E2D4" transform="translate(36,79)"/>
<path d="M0 0 C0.99 0 1.98 0 3 0 C3.48590046 3.39490379 3.96239751 6.79106964 4.4375 10.1875 C4.57220703 11.12787109 4.70691406 12.06824219 4.84570312 13.03710938 C5.86618428 20.37959572 6.42864311 27.57236045 7 35 C-10.82 35 -28.64 35 -47 35 C-47 26.75 -47 18.5 -47 10 C-46.01 10.495 -46.01 10.495 -45 11 C-45 17.93 -45 24.86 -45 32 C-41.54095354 32.69180929 -39.06130205 33.1240288 -35.66870117 33.11352539 C-34.848228 33.11344986 -34.02775482 33.11337433 -33.18241882 33.11329651 C-32.3114003 33.10813522 -31.44038177 33.10297394 -30.54296875 33.09765625 C-29.64000565 33.0962413 -28.73704254 33.09482635 -27.80671692 33.09336853 C-24.93361037 33.08778823 -22.06058284 33.07523934 -19.1875 33.0625 C-17.23502717 33.05748245 -15.28255311 33.05291999 -13.33007812 33.04882812 C-8.55335515 33.03782525 -3.77669096 33.02057418 1 33 C0.77251572 32.02702469 0.77251572 32.02702469 0.54043579 31.03439331 C-0.9675892 24.44077707 -1.27343857 18.18141619 -1.1875 11.4375 C-1.18685547 10.44169922 -1.18621094 9.44589844 -1.18554688 8.41992188 C-1.1408289 1.1408289 -1.1408289 1.1408289 0 0 Z " fill="#D3A98B" transform="translate(67,190)"/>
<path d="M0 0 C0.66 0 1.32 0 2 0 C2 4.29 2 8.58 2 13 C2.66 13 3.32 13 4 13 C4.33 12.01 4.66 11.02 5 10 C5.18175781 11.04800781 5.18175781 11.04800781 5.3671875 12.1171875 C5.53476563 13.02726563 5.70234375 13.93734375 5.875 14.875 C6.11863281 16.23238281 6.11863281 16.23238281 6.3671875 17.6171875 C6.83044703 20.16505988 6.83044703 20.16505988 9 22 C9.3347168 23.86352539 9.3347168 23.86352539 9.44921875 26.09765625 C9.49240234 26.89880859 9.53558594 27.69996094 9.58007812 28.52539062 C9.61552734 29.36263672 9.65097656 30.19988281 9.6875 31.0625 C9.73455078 31.90361328 9.78160156 32.74472656 9.83007812 33.61132812 C9.93466494 35.73906965 9.97271747 37.8698643 10 40 C9 41 9 41 5.4375 41.0625 C4.303125 41.041875 3.16875 41.02125 2 41 C1.31999278 37.04384099 0.65848257 33.08479382 0 29.125 C-0.19078125 28.01640625 -0.3815625 26.9078125 -0.578125 25.765625 C-1.67470108 19.10784166 -2.27484065 12.74695612 -2 6 C-1.34 6 -0.68 6 0 6 C0 4.02 0 2.04 0 0 Z " fill="#DFA77F" transform="translate(72,184)"/>
<path d="M0 0 C1.65 0 3.3 0 5 0 C5 4.95 5 9.9 5 15 C6.65 14.34 8.3 13.68 10 13 C10.33 14.65 10.66 16.3 11 18 C13.64 18.33 16.28 18.66 19 19 C19 19.66 19 20.32 19 21 C19.66 21.33 20.32 21.66 21 22 C21 22.99 21 23.98 21 25 C17.68751813 25.02888146 14.37506833 25.04675799 11.0625 25.0625 C10.11697266 25.07087891 9.17144531 25.07925781 8.19726562 25.08789062 C6.84858398 25.09272461 6.84858398 25.09272461 5.47265625 25.09765625 C4.22367554 25.10551147 4.22367554 25.10551147 2.94946289 25.11352539 C1 25 1 25 0 24 C-0.08726223 22.21928754 -0.10699041 20.4351686 -0.09765625 18.65234375 C-0.09443359 17.57275391 -0.09121094 16.49316406 -0.08789062 15.38085938 C-0.07951172 14.24455078 -0.07113281 13.10824219 -0.0625 11.9375 C-0.05798828 10.79732422 -0.05347656 9.65714844 -0.04882812 8.48242188 C-0.03699747 5.65489649 -0.0205141 2.8274736 0 0 Z " fill="#A4A4A1" transform="translate(169,102)"/>
<path d="M0 0 C6.13680387 2.15617433 6.13680387 2.15617433 8 5 C8.2804701 8.85646386 8.18234854 12.30516081 7 16 C7.66 16 8.32 16 9 16 C9 16.66 9 17.32 9 18 C8.34 18 7.68 18 7 18 C6.34 19.98 5.68 21.96 5 24 C4.01 24 3.02 24 2 24 C1.34 25.98 0.68 27.96 0 30 C-0.99 30 -1.98 30 -3 30 C-3.33 31.65 -3.66 33.3 -4 35 C-4.763125 34.195625 -5.52625 33.39125 -6.3125 32.5625 C-8.79430898 29.83200976 -8.79430898 29.83200976 -12 29 C-11.01 31.64 -10.02 34.28 -9 37 C-13.62 36.34 -18.24 35.68 -23 35 C-21.824375 33.63875 -21.824375 33.63875 -20.625 32.25 C-18.69947504 29.94809764 -17.17794259 27.78422793 -16 25 C-8.25 25.75 -8.25 25.75 -6 28 C-5.01 28 -4.02 28 -3 28 C-3.66 26.02 -4.32 24.04 -5 22 C-4.43410156 21.81824219 -3.86820313 21.63648437 -3.28515625 21.44921875 C-2.55167969 21.19785156 -1.81820312 20.94648437 -1.0625 20.6875 C-0.33160156 20.44386719 0.39929688 20.20023438 1.15234375 19.94921875 C3.35932024 19.08759559 3.35932024 19.08759559 4 16 C4.27164263 11.20098021 3.90167917 7.43725141 2 3 C1.34 2.67 0.68 2.34 0 2 C0 1.34 0 0.68 0 0 Z " fill="#D78363" transform="translate(125,86)"/>
<path d="M0 0 C-5.5 5 -5.5 5 -10 5 C-10.33 5.99 -10.66 6.98 -11 8 C-12.92578125 9.16796875 -12.92578125 9.16796875 -15.3125 10.1875 C-16.09238281 10.53167969 -16.87226563 10.87585937 -17.67578125 11.23046875 C-20 12 -20 12 -24 12 C-24 11.34 -24 10.68 -24 10 C-28.1973892 11.09124517 -28.1973892 11.09124517 -32 13 C-33.0150668 15.03429371 -33.54632124 17.00371717 -34.1484375 19.19140625 C-35 21 -35 21 -38.6875 22.5 C-40.3271875 22.7475 -40.3271875 22.7475 -42 23 C-41.67 23.99 -41.34 24.98 -41 26 C-46.94 25.01 -46.94 25.01 -53 24 C-51.72995023 20.18985068 -50.48886603 19.82372543 -47 18 C-45.33927151 17.31867549 -43.672233 16.65257873 -42 16 C-38.52257845 14.37720327 -35.35987626 12.57759509 -32.1875 10.4375 C-28.59749823 8.14673696 -25.39916409 7.22657536 -21.2421875 6.45703125 C-17.10683741 5.61411146 -12.48509375 4.50020921 -9.46484375 1.44921875 C-6.86405646 -1.12382681 -3.23228127 -1.61614063 0 0 Z " fill="#F6C2A4" transform="translate(152,31)"/>
<path d="M0 0 C2.97 0 5.94 0 9 0 C8.67 0.99 8.34 1.98 8 3 C8.99 4.485 8.99 4.485 10 6 C10.01171875 7.9375 10.01171875 7.9375 9.6875 10 C9.58824219 10.680625 9.48898438 11.36125 9.38671875 12.0625 C9 14 9 14 8 17 C7.34 17 6.68 17 6 17 C5.67 14.36 5.34 11.72 5 9 C1.12378022 8.63942142 -0.5479221 8.68856856 -3.8125 10.9375 C-5.4213399 12.45320976 -5.4213399 12.45320976 -7 14 C-10.47871621 15.15957207 -11.34219645 14.77456651 -14.6875 13.5625 C-15.49574219 13.27503906 -16.30398437 12.98757812 -17.13671875 12.69140625 C-17.75160156 12.46324219 -18.36648437 12.23507813 -19 12 C-18.71484375 10.1015625 -18.71484375 10.1015625 -18 8 C-12.22668789 5.27079791 -6.26550192 4.09132718 0 3 C0 2.01 0 1.02 0 0 Z " fill="#F8D5BF" transform="translate(118,58)"/>
<path d="M0 0 C1.65 0 3.3 0 5 0 C5.66 1.32 6.32 2.64 7 4 C8.98 3.67 10.96 3.34 13 3 C12.67 3.99 12.34 4.98 12 6 C11.34 6 10.68 6 10 6 C10 8.97 10 11.94 10 15 C8.9275 15.20625 7.855 15.4125 6.75 15.625 C2.26672491 17.26886753 1.35912663 18.98074722 -1 23 C-1.66 23 -2.32 23 -3 23 C-3.33 23.66 -3.66 24.32 -4 25 C-5.66342837 23.33657163 -5.36048097 21.2174291 -5.5625 18.9375 C-5.64628906 18.01839844 -5.73007813 17.09929687 -5.81640625 16.15234375 C-5.90728516 15.08693359 -5.90728516 15.08693359 -6 14 C-5.01 13.67 -4.02 13.34 -3 13 C-1.79117904 10.99983534 -1.79117904 10.99983534 -1 9 C0.32 9 1.64 9 3 9 C2.5359375 7.6078125 2.5359375 7.6078125 2.0625 6.1875 C1.375 4.125 0.6875 2.0625 0 0 Z " fill="#B25A3F" transform="translate(73,101)"/>
<path d="M0 0 C2.96175123 0.61277612 4.38058783 1.25372522 7 3 C7.36328125 4.875 7.36328125 4.875 7.3125 7 C7.30863281 7.70125 7.30476563 8.4025 7.30078125 9.125 C7 11 7 11 5 13 C2.86328125 13.01171875 2.86328125 13.01171875 0.3125 12.6875 C-1.03714844 12.52121094 -1.03714844 12.52121094 -2.4140625 12.3515625 C-3.26742187 12.23554687 -4.12078125 12.11953125 -5 12 C-6.175625 11.855625 -7.35125 11.71125 -8.5625 11.5625 C-20.36956522 9.63043478 -20.36956522 9.63043478 -23 7 C-21.1746875 6.7834375 -21.1746875 6.7834375 -19.3125 6.5625 C-17.01348493 6.27663298 -14.7729136 5.95458272 -12.5 5.5 C-10 5 -10 5 -7.98828125 4.85546875 C-5.52668618 4.70234882 -5.52668618 4.70234882 -2 4 C-0.4100567 2.07935207 -0.4100567 2.07935207 0 0 Z " fill="#F3C0A1" transform="translate(111,73)"/>
<path d="M0 0 C4.37934119 0.51958285 8.68803391 1.05675742 13 2 C13 2.66 13 3.32 13 4 C13.99 4.33 14.98 4.66 16 5 C12.79191085 7.1387261 11.72301503 7.47730962 8 7 C7.34 6.01 6.68 5.02 6 4 C3.43717258 3.27034634 3.43717258 3.27034634 1 3 C1.495 3.556875 1.99 4.11375 2.5 4.6875 C4.24754367 7.38162983 4.26218749 8.85375007 4 12 C2.68 12 1.36 12 0 12 C-0.66 13.65 -1.32 15.3 -2 17 C-2.99 17 -3.98 17 -5 17 C-5.33 17.66 -5.66 18.32 -6 19 C-10.62 17.68 -15.24 16.36 -20 15 C-20 14.67 -20 14.34 -20 14 C-15.38 14 -10.76 14 -6 14 C-5.97417882 9.02801942 -5.97417882 9.02801942 -8 5 C-4 6 -4 6 0 7 C0 4.69 0 2.38 0 0 Z " fill="#CB7E5C" transform="translate(72,98)"/>
<path d="M0 0 C-1.30717603 3.39503712 -2.76974282 6.61580534 -4.4609375 9.8359375 C-4.93273437 10.73570313 -5.40453125 11.63546875 -5.890625 12.5625 C-6.38046875 13.490625 -6.8703125 14.41875 -7.375 15.375 C-8.09816406 16.75558594 -8.09816406 16.75558594 -8.8359375 18.1640625 C-19.96062016 39.32514364 -19.96062016 39.32514364 -28 45 C-28.33663062 41.29706315 -28.47736015 39.60465619 -26.125 36.625 C-24 35 -24 35 -22 35 C-21.67 33.35 -21.34 31.7 -21 30 C-20.01 30 -19.02 30 -18 30 C-18 28.68 -18 27.36 -18 26 C-17.34 26 -16.68 26 -16 26 C-16.66 23.36 -17.32 20.72 -18 18 C-15.69 18.66 -13.38 19.32 -11 20 C-11 18.35 -11 16.7 -11 15 C-10.34 15 -9.68 15 -9 15 C-8.896875 13.80375 -8.79375 12.6075 -8.6875 11.375 C-8.18956729 7.426604 -7.15570395 4.39937931 -5 1 C-2 0 -2 0 0 0 Z " fill="#F1CFBF" transform="translate(132,109)"/>
<path d="M0 0 C2 2 2 2 3 5 C6.00007271 6.70855022 6.00007271 6.70855022 9 8 C8.67 8.66 8.34 9.32 8 10 C6.02 9.34 4.04 8.68 2 8 C2.33 9.65 2.66 11.3 3 13 C3.33 13 3.66 13 4 13 C4.08132642 16.04221065 4.14065374 19.0822238 4.1875 22.125 C4.22520508 23.40890625 4.22520508 23.40890625 4.26367188 24.71875 C4.32475149 30.01231688 3.71739443 33.31683088 1 38 C1.19530151 40.29887008 1.19530151 40.29887008 2 42 C0.68 42 -0.64 42 -2 42 C-3.0326802 39.21176345 -3.04509293 38.1322726 -2.0625 35.25 C-1.711875 34.5075 -1.36125 33.765 -1 33 C-0.34 33 0.32 33 1 33 C1 28.05 1 23.1 1 18 C0.01 18.66 -0.98 19.32 -2 20 C-1.979375 19.195625 -1.95875 18.39125 -1.9375 17.5625 C-1.70366379 15.06645115 -1.70366379 15.06645115 -3 14 C-3.38493338 8.32223263 -3.00244501 5.00407501 0 0 Z " fill="#EBB598" transform="translate(68,128)"/>
<path d="M0 0 C3.53600465 1.91135386 5.78972846 3.62642766 8 7 C8.66 5.68 9.32 4.36 10 3 C10.66 3 11.32 3 12 3 C11.67 5.64 11.34 8.28 11 11 C10.34 11 9.68 11 9 11 C9 12.65 9 14.3 9 16 C6.03 15.505 6.03 15.505 3 15 C3.33 17.31 3.66 19.62 4 22 C3.34 22 2.68 22 2 22 C2 23.32 2 24.64 2 26 C0.68 25.67 -0.64 25.34 -2 25 C-1.34 25 -0.68 25 0 25 C-0.185625 24.236875 -0.37125 23.47375 -0.5625 22.6875 C-1 20 -1 20 0 17 C0 16.34 0 15.68 0 15 C-0.66 15 -1.32 15 -2 15 C-2 14.34 -2 13.68 -2 13 C-2.66 13 -3.32 13 -4 13 C-4 12.01 -4 11.02 -4 10 C-0.535 9.505 -0.535 9.505 3 9 C2.01 6.03 1.02 3.06 0 0 Z " fill="#E9AB90" transform="translate(112,113)"/>
<path d="M0 0 C0.33 0 0.66 0 1 0 C1.268125 0.86625 1.53625 1.7325 1.8125 2.625 C2.86821189 6.01449206 2.86821189 6.01449206 4.75 8.8125 C6.29551425 12.75356134 5.96121301 15.05603863 4.8671875 19.07421875 C4 21 4 21 1.625 22.5625 C-1 23 -1 23 -5 23 C-5 24.32 -5 25.64 -5 27 C-5.99 27 -6.98 27 -8 27 C-7.33599639 24.01198378 -6.34470765 21.36593658 -5.125 18.5625 C-2.6605653 12.54532184 -1.31421239 6.35202654 0 0 Z " fill="#B84523" transform="translate(120,83)"/>
<path d="M0 0 C1.32 0 2.64 0 4 0 C3.46048934 6.68993219 2.11293829 12.63460728 0 19 C2.3431213 18.74438677 4.67843403 18.40729228 7 18 C7.33 17.34 7.66 16.68 8 16 C8 16.99 8 17.98 8 19 C7.34 19 6.68 19 6 19 C6 19.66 6 20.32 6 21 C3.03 21.66 0.06 22.32 -3 23 C-3.67258667 20.66836622 -4.33847444 18.3347961 -5 16 C-5.268125 15.319375 -5.53625 14.63875 -5.8125 13.9375 C-6.11552121 10.80628081 -4.51051314 8.65850313 -3 6 C-3.66 5.34 -4.32 4.68 -5 4 C-4.0409375 3.8453125 -4.0409375 3.8453125 -3.0625 3.6875 C-2.381875 3.460625 -1.70125 3.23375 -1 3 C-0.67 2.01 -0.34 1.02 0 0 Z M-3 15 C-2.67 15.66 -2.34 16.32 -2 17 C-1.67 16.34 -1.34 15.68 -1 15 C-1.66 15 -2.32 15 -3 15 Z " fill="#DB9473" transform="translate(93,97)"/>
<path d="M0 0 C0.33 0 0.66 0 1 0 C0.83552405 6.35475248 -0.45113839 12.06327218 -2.4375 18.0625 C-2.7636731 19.06325562 -2.7636731 19.06325562 -3.09643555 20.08422852 C-4.74342991 24.87171496 -4.74342991 24.87171496 -7 26 C-6.42978066 20.6496441 -5.79265639 15.32212148 -5 10 C-7.97 10.66 -10.94 11.32 -14 12 C-14 11.34 -14 10.68 -14 10 C-14.64066406 10.01160156 -15.28132813 10.02320312 -15.94140625 10.03515625 C-21.08653222 10.08883119 -25.93024924 9.88169578 -31 9 C-31 8.67 -31 8.34 -31 8 C-27.75052139 7.80261432 -24.50041127 7.6188246 -21.25 7.4375 C-20.32960938 7.38142578 -19.40921875 7.32535156 -18.4609375 7.26757812 C-17.57148437 7.21923828 -16.68203125 7.17089844 -15.765625 7.12109375 C-14.94868164 7.0739624 -14.13173828 7.02683105 -13.29003906 6.97827148 C-11.02117925 6.99979905 -9.16679079 7.35387865 -7 8 C-7 7.34 -7 6.68 -7 6 C-6.34 6 -5.68 6 -5 6 C-4.67 4.68 -4.34 3.36 -4 2 C-4 2.66 -4 3.32 -4 4 C-2.68 4.33 -1.36 4.66 0 5 C0 3.35 0 1.7 0 0 Z " fill="#E8AF91" transform="translate(103,87)"/>
<path d="M0 0 C0.66 0 1.32 0 2 0 C1.25392371 11.00462531 -0.92928501 21.11271035 -9 29 C-10.32 28.67 -11.64 28.34 -13 28 C-12.34 28 -11.68 28 -11 28 C-10.82984375 27.39414063 -10.6596875 26.78828125 -10.484375 26.1640625 C-7.83492141 17.00371763 -4.38762216 8.46184273 0 0 Z " fill="#D08466" transform="translate(118,82)"/>
<path d="M0 0 C-1.5625 2.4375 -1.5625 2.4375 -4 5 C-7.75 5.8125 -7.75 5.8125 -11 6 C-11.33 6.99 -11.66 7.98 -12 9 C-12.99 9.66 -13.98 10.32 -15 11 C-11.56484998 11.62457273 -8.50935186 12 -5 12 C-5 11.34 -5 10.68 -5 10 C-2.03 9.34 0.94 8.68 4 8 C2.5 9.25 2.5 9.25 0 11 C-0.51304687 11.38285156 -1.02609375 11.76570313 -1.5546875 12.16015625 C-8.19406434 16.36319523 -14.65483341 14.52680429 -22 13 C-22.33 12.01 -22.66 11.02 -23 10 C-20.35261084 8.5393715 -19.10551666 8 -16 8 C-16 7.34 -16 6.68 -16 6 C-15.01 6 -14.02 6 -13 6 C-12.67 5.01 -12.34 4.02 -12 3 C-7.9033589 0.87289789 -4.63766855 -0.42160623 0 0 Z " fill="#E9A185" transform="translate(133,44)"/>
<path d="M0 0 C0 3.99904969 -1.72586967 5.80200422 -4 9 C-3.34 9 -2.68 9 -2 9 C-2.54226981 12.79588866 -4.20127563 14.47211993 -7 17 C-2.545 17.99 -2.545 17.99 2 19 C2 20.65 2 22.3 2 24 C1.67 23.34 1.34 22.68 1 22 C0.01 21.67 -0.98 21.34 -2 21 C-2 20.67 -2 20.34 -2 20 C-4.97 19.67 -7.94 19.34 -11 19 C-10.34 18.67 -9.68 18.34 -9 18 C-9.33 16.68 -9.66 15.36 -10 14 C-11.65 14.33 -13.3 14.66 -15 15 C-15 10.38 -15 5.76 -15 1 C-14.67 1 -14.34 1 -14 1 C-14 4.63 -14 8.26 -14 12 C-12.80375 10.948125 -11.6075 9.89625 -10.375 8.8125 C-6.95845462 5.82150298 -3.50252879 2.88958625 0 0 Z " fill="#B2B2AF" transform="translate(189,102)"/>
<path d="M0 0 C0 1.65 0 3.3 0 5 C-0.99 5.495 -0.99 5.495 -2 6 C-2.268125 6.804375 -2.53625 7.60875 -2.8125 8.4375 C-4 11 -4 11 -6.5625 12.1875 C-7.366875 12.455625 -8.17125 12.72375 -9 13 C-9.33 13.66 -9.66 14.32 -10 15 C-11.65 15 -13.3 15 -15 15 C-15 15.66 -15 16.32 -15 17 C-16.32 17.33 -17.64 17.66 -19 18 C-15.77635604 10.93089243 -8.78546252 0 0 0 Z " fill="#E4745B" transform="translate(170,22)"/>
<path d="M0 0 C0.66 0 1.32 0 2 0 C2.80859375 2.16796875 2.80859375 2.16796875 3 5 C0.91015625 7.67578125 0.91015625 7.67578125 -1.9375 10.3125 C-2.87464844 11.19550781 -3.81179687 12.07851562 -4.77734375 12.98828125 C-5.51082031 13.65214844 -6.24429688 14.31601563 -7 15 C-7.66 14.01 -8.32 13.02 -9 12 C-14.08335725 12.15404113 -16.35754718 15.02068432 -19.64453125 18.50390625 C-20.09183594 18.99761719 -20.53914062 19.49132812 -21 20 C-21.66 19.67 -22.32 19.34 -23 19 C-7.61776062 3.2972973 -7.61776062 3.2972973 -2 2 C-1.34 1.34 -0.68 0.68 0 0 Z " fill="#ABACA7" transform="translate(213,82)"/>
<path d="M0 0 C0 3 0 3 -1.79296875 4.82421875 C-2.58316406 5.43910156 -3.37335938 6.05398437 -4.1875 6.6875 C-4.96480469 7.31011719 -5.74210937 7.93273438 -6.54296875 8.57421875 C-9.30032226 10.17427285 -10.86748982 10.29488995 -14 10 C-14 10.99 -14 11.98 -14 13 C-14.66 13.66 -15.32 14.32 -16 15 C-16 15.66 -16 16.32 -16 17 C-16.66 17 -17.32 17 -18 17 C-18 17.66 -18 18.32 -18 19 C-24.4 20.23076923 -24.4 20.23076923 -27.4375 19.0625 C-28.2109375 18.5365625 -28.2109375 18.5365625 -29 18 C-25.5640263 14.02715541 -22.92354539 12.44120372 -17.97265625 10.8125 C-15.671352 9.97975905 -15.671352 9.97975905 -13 7.5 C-9.41040119 4.50866766 -6.38433418 3.53451696 -2 2 C-1.34 1.34 -0.68 0.68 0 0 Z " fill="#E38461" transform="translate(146,37)"/>
<path d="M0 0 C1.80795432 4.0916861 2.21156222 7.55719328 2 12 C1.67 12 1.34 12 1 12 C0.67 9.36 0.34 6.72 0 4 C-3.87621978 3.63942142 -5.5479221 3.68856856 -8.8125 5.9375 C-10.4213399 7.45320976 -10.4213399 7.45320976 -12 9 C-15 10 -15 10 -18.1875 8.5625 C-19.115625 8.046875 -20.04375 7.53125 -21 7 C-21 6.01 -21 5.02 -21 4 C-20.28714844 3.89042969 -19.57429688 3.78085938 -18.83984375 3.66796875 C-12.24624415 2.58937366 -12.24624415 2.58937366 -6 0.3125 C-3 -1 -3 -1 0 0 Z " fill="#F3C2A3" transform="translate(123,63)"/>
<path d="M0 0 C2.35273568 3.52910353 2.40753493 4.84314368 2 9 C0.36985856 13.15686067 -1.18812892 15.63401106 -5 18 C-4.70351562 17.44828125 -4.40703125 16.8965625 -4.1015625 16.328125 C-2.92371196 13.83876712 -2.14034283 11.3939116 -1.375 8.75 C-1.11460937 7.85796875 -0.85421875 6.9659375 -0.5859375 6.046875 C-0.39257812 5.37140625 -0.19921875 4.6959375 0 4 C-5.33805016 5.73936466 -9.08424534 9.04776139 -13.359375 12.54296875 C-17.69326257 16 -17.69326257 16 -21 16 C-21 15.34 -21 14.68 -21 14 C-20.34 13.67 -19.68 13.34 -19 13 C-18.67 12.01 -18.34 11.02 -18 10 C-17.01 10 -16.02 10 -15 10 C-15 9.34 -15 8.68 -15 8 C-8.375 4.125 -8.375 4.125 -5 3 C-5 2.34 -5 1.68 -5 1 C-3 0 -3 0 0 0 Z " fill="#F6B8A4" transform="translate(173,14)"/>
<path d="M0 0 C0.66 0.33 1.32 0.66 2 1 C2.36923077 7.4 2.36923077 7.4 0.5 10.4375 C0.005 10.953125 -0.49 11.46875 -1 12 C0.32 11.67 1.64 11.34 3 11 C0.375 17.75 0.375 17.75 -3 20 C-3.41480107 22.02887311 -3.41480107 22.02887311 -3.29296875 24.3515625 C-3.28330078 25.20234375 -3.27363281 26.053125 -3.26367188 26.9296875 C-3.23853516 27.81914062 -3.21339844 28.70859375 -3.1875 29.625 C-3.17396484 30.5221875 -3.16042969 31.419375 -3.14648438 32.34375 C-3.11106925 34.56309789 -3.06168461 36.78125188 -3 39 C-3.66 39 -4.32 39 -5 39 C-5.67843291 33.91175317 -6.1229295 28.88364825 -6.25 23.75 C-6.27578125 22.77546875 -6.3015625 21.8009375 -6.328125 20.796875 C-5.94101225 17.49719962 -4.73770721 15.80509494 -3 13 C-2.35904196 10.75005265 -1.79794856 8.4760432 -1.3125 6.1875 C-1.06113281 5.02605469 -0.80976563 3.86460937 -0.55078125 2.66796875 C-0.36902344 1.78753906 -0.18726563 0.90710938 0 0 Z " fill="#EDD0BB" transform="translate(25,141)"/>
<path d="M0 0 C0.33 0 0.66 0 1 0 C1.44684458 6.10687589 -0.01949803 10.49576528 -3.7578125 15.22265625 C-5.46887962 17.18657337 -7.20804671 19.10985749 -9 21 C-9 18 -9 18 -8.5 15.875 C-7.81016232 11.90843334 -7.92126351 8.01556084 -8 4 C-4.535 3.505 -4.535 3.505 -1 3 C-0.67 2.01 -0.34 1.02 0 0 Z " fill="#EEC4B0" transform="translate(142,88)"/>
<path d="M0 0 C0.99 0.66 1.98 1.32 3 2 C2.34 6.29 1.68 10.58 1 15 C0.34 15 -0.32 15 -1 15 C-0.96261719 16.0003125 -0.92523438 17.000625 -0.88671875 18.03125 C-1.00426308 22.14935481 -1.71895972 25.53540453 -2.8125 29.5 C-3.14894531 30.7478125 -3.48539063 31.995625 -3.83203125 33.28125 C-5.00327098 37.01041462 -6.39896208 40.44009907 -8 44 C-9.41538589 39.49411558 -8.09833184 35.95998211 -6.8125 31.5625 C-3.90490338 21.15017459 -1.89448031 10.63660731 0 0 Z " fill="#FBF3EA" transform="translate(36,79)"/>
<path d="M0 0 C-4.70607821 5.44140293 -9.45747463 7.50280346 -16.5625 8.5 C-20.57812458 9.08409085 -23.37821005 10.18910503 -27 12 C-27.33 12.66 -27.66 13.32 -28 14 C-28.99 13.67 -29.98 13.34 -31 13 C-28.67510549 7.37130802 -28.67510549 7.37130802 -25.5 5.625 C-23 5 -23 5 -20 5 C-20 5.66 -20 6.32 -20 7 C-18.58208592 6.54554036 -17.16571954 6.08625056 -15.75 5.625 C-14.96109375 5.36976562 -14.1721875 5.11453125 -13.359375 4.8515625 C-8.8693116 3.41009052 -8.8693116 3.41009052 -6 0 C-2.49056604 -1.24528302 -2.49056604 -1.24528302 0 0 Z " fill="#F0AD8E" transform="translate(148,36)"/>
<path d="M0 0 C1.19754817 3.59264452 1.33094958 6.22717474 1 10 C-1 12.4375 -1 12.4375 -3 14 C-2.91621094 13.38511719 -2.83242187 12.77023438 -2.74609375 12.13671875 C-2.64425781 11.32847656 -2.54242188 10.52023438 -2.4375 9.6875 C-2.33308594 8.88699219 -2.22867188 8.08648437 -2.12109375 7.26171875 C-1.85244822 4.83182884 -1.85244822 4.83182884 -3 2 C-4.29409592 2.45142881 -5.58521059 2.91141021 -6.875 3.375 C-7.59429687 3.63023438 -8.31359375 3.88546875 -9.0546875 4.1484375 C-11.18157994 4.93877783 -11.18157994 4.93877783 -13 7 C-13.99 7 -14.98 7 -16 7 C-16 7.66 -16 8.32 -16 9 C-24.261959 13.59225513 -24.261959 13.59225513 -29 13 C-25.20420047 10.00937007 -21.14118944 7.83280653 -16.88671875 5.56640625 C-15.05468927 4.57230094 -13.24145065 3.54207389 -11.45703125 2.46484375 C-10.68746094 2.00207031 -9.91789062 1.53929687 -9.125 1.0625 C-8.44695312 0.64097656 -7.76890625 0.21945312 -7.0703125 -0.21484375 C-4.38937364 -1.23157717 -2.71605045 -0.76181903 0 0 Z " fill="#FCF2E9" transform="translate(176,12)"/>
<path d="M0 0 C0.66 0 1.32 0 2 0 C2.50612064 2.8740422 3.00506541 5.74902873 3.5 8.625 C3.64308594 9.43324219 3.78617187 10.24148437 3.93359375 11.07421875 C4.67876251 15.43877864 5.17272306 19.55238129 5 24 C3.02 24 1.04 24 -1 24 C-0.67 16.08 -0.34 8.16 0 0 Z " fill="#EDC2A1" transform="translate(69,201)"/>
<path d="M0 0 C4.74396231 2.37198116 7.93945975 5.73848825 11 10 C12.1568207 13.47046209 12.50369193 16.81854697 12.8125 20.4375 C12.88919922 21.10587891 12.96589844 21.77425781 13.04492188 22.46289062 C13.34056879 26.05695974 13.31103458 27.61319275 11.01171875 30.47265625 C10.34785156 30.97667969 9.68398437 31.48070313 9 32 C9.33 30.35 9.66 28.7 10 27 C10.66 27 11.32 27 12 27 C12 26.34 12 25.68 12 25 C11.34 25 10.68 25 10 25 C10.33 21.37 10.66 17.74 11 14 C10.01 13.67 9.02 13.34 8 13 C7.67 12.34 7.34 11.68 7 11 C6.360625 10.71125 5.72125 10.4225 5.0625 10.125 C2.53548352 8.74662738 1.97163556 7.67199778 1 5 C1 4.01 1 3.02 1 2 C0.34 1.67 -0.32 1.34 -1 1 C-0.67 0.67 -0.34 0.34 0 0 Z " fill="#E89F7F" transform="translate(122,77)"/>
<path d="M0 0 C2.31174972 2.31174972 2.41772917 3.01843814 2.625 6.1875 C2.56124656 9.22314468 2.26166383 10.64161992 0.45703125 13.11328125 C-3.82172966 17.11065363 -7.15025977 18.87813041 -13 19 C-13 18.34 -13 17.68 -13 17 C-12.34 17 -11.68 17 -11 17 C-10.5978125 15.8553125 -10.5978125 15.8553125 -10.1875 14.6875 C-8.39145907 10.6227758 -8.39145907 10.6227758 -6 9 C-2.8125 8.8125 -2.8125 8.8125 0 9 C0 6.03 0 3.06 0 0 Z " fill="#BC5946" transform="translate(83,107)"/>
<path d="M0 0 C-4.88445593 4.6115813 -9.85339776 8.31444528 -15.68359375 11.65234375 C-18.19716761 13.06942745 -18.19716761 13.06942745 -21.1875 15.25 C-24.46865278 17.29160617 -27.25922406 18.10221378 -31 19 C-30 16 -30 16 -28.1875 14.8125 C-26 14 -26 14 -22 14 C-22 13.01 -22 12.02 -22 11 C-17.5 9.5 -17.5 9.5 -13 8 C-13 6.68 -13 5.36 -13 4 C-11.35 4 -9.7 4 -8 4 C-7.67 3.01 -7.34 2.02 -7 1 C-2.55696203 -1.27848101 -2.55696203 -1.27848101 0 0 Z " fill="#EAC0B0" transform="translate(168,33)"/>
<path d="M0 0 C0.99 0 1.98 0 3 0 C5.47512888 4.07198623 7.31887867 7.23215071 8 12 C8.33 12.66 8.66 13.32 9 14 C7.68 13.67 6.36 13.34 5 13 C5 12.34 5 11.68 5 11 C3.824375 11.7425 3.824375 11.7425 2.625 12.5 C0 14 0 14 -2 14 C-2.66 15.65 -3.32 17.3 -4 19 C-4.66 18.34 -5.32 17.68 -6 17 C-6 16.01 -6 15.02 -6 14 C-5.01 13.67 -4.02 13.34 -3 13 C-1.79117904 10.99983534 -1.79117904 10.99983534 -1 9 C0.32 9 1.64 9 3 9 C2.5359375 7.6078125 2.5359375 7.6078125 2.0625 6.1875 C1.375 4.125 0.6875 2.0625 0 0 Z " fill="#943B24" transform="translate(73,101)"/>
<path d="M0 0 C0.99 0 1.98 0 3 0 C3.33 3.63 3.66 7.26 4 11 C3.34 11 2.68 11 2 11 C2 14.3 2 17.6 2 21 C-2.26415257 16.73584743 -1.11286452 8.49501813 -1.1328125 2.75 C-1 1 -1 1 0 0 Z " fill="#E6B590" transform="translate(67,190)"/>
<path d="M0 0 C0.66 0.33 1.32 0.66 2 1 C1.67 1.66 1.34 2.32 1 3 C1.66 3 2.32 3 3 3 C3 3.99 3 4.98 3 6 C5.91634129 6.2502157 5.91634129 6.2502157 9 6 C9.66 5.01 10.32 4.02 11 3 C10.67 4.65 10.34 6.3 10 8 C7.36 8.33 4.72 8.66 2 9 C1.67 9.99 1.34 10.98 1 12 C0.01 11.67 -0.98 11.34 -2 11 C-3.35384615 4.6 -3.35384615 4.6 -1.5625 1.5625 C-1.046875 1.046875 -0.53125 0.53125 0 0 Z " fill="#E6B394" transform="translate(49,103)"/>
<path d="M0 0 C0.33 0 0.66 0 1 0 C1.08636719 0.556875 1.17273438 1.11375 1.26171875 1.6875 C2.24978822 7.05389564 3.81190391 10.79233285 7.07421875 15.17578125 C8 17 8 17 7.7421875 19.05859375 C6.78191752 21.57045785 5.44489035 23.73843249 4 26 C3.01 25.67 2.02 25.34 1 25 C1.66 25 2.32 25 3 25 C2.979375 24.071875 2.95875 23.14375 2.9375 22.1875 C3 19 3 19 4 16 C3.05439935 13.9737129 2.04622875 11.97620986 1 10 C-1.47058824 3.82352941 -1.47058824 3.82352941 0 0 Z " fill="#C55B39" transform="translate(121,79)"/>
<path d="M0 0 C0.33 0 0.66 0 1 0 C1.19600577 2.22843488 1.38146569 4.45779893 1.5625 6.6875 C1.66691406 7.92886719 1.77132812 9.17023438 1.87890625 10.44921875 C1.98493841 13.55835533 1.77228525 16.00810972 1 19 C-0.32 19 -1.64 19 -3 19 C-2.54240047 12.4491015 -1.7899856 6.3246158 0 0 Z " fill="#9F3114" transform="translate(120,83)"/>
<path d="M0 0 C0 0.99 0 1.98 0 3 C-2.97 3.66 -5.94 4.32 -9 5 C-9 4.34 -9 3.68 -9 3 C-9.64066406 3.01160156 -10.28132813 3.02320312 -10.94140625 3.03515625 C-16.08653222 3.08883119 -20.93024924 2.88169578 -26 2 C-26 1.67 -26 1.34 -26 1 C-8.14350797 -0.14806378 -8.14350797 -0.14806378 0 0 Z " fill="#E8AD8D" transform="translate(98,94)"/>
<path d="M0 0 C0 1.66666667 0 3.33333333 0 5 C0.31802943 6.66965451 0.64984951 8.33678518 1 10 C0.01 10.66 -0.98 11.32 -2 12 C-2.33 11.01 -2.66 10.02 -3 9 C-8.08335725 9.15404113 -10.35754718 12.02068432 -13.64453125 15.50390625 C-14.31548828 16.24447266 -14.31548828 16.24447266 -15 17 C-15.66 16.67 -16.32 16.34 -17 16 C-11.53105379 10.41711741 -5.96348734 5.05352742 0 0 Z " fill="#BDBDBA" transform="translate(207,85)"/>
<path d="M0 0 C1.6260287 0.06000106 3.25101549 0.1487885 4.875 0.25 C6.23238281 0.31960937 6.23238281 0.31960937 7.6171875 0.390625 C10 1 10 1 11.3203125 3.046875 C11.54460937 3.69140625 11.76890625 4.3359375 12 5 C9.64046906 7.35953094 8.22104383 7.49141413 5 8 C0 2.25 0 2.25 0 0 Z " fill="#F1D2C1" transform="translate(124,75)"/>
<path d="M0 0 C0.99 0.33 1.98 0.66 3 1 C3.23855162 6.12885989 2.69212127 9.69256191 -0.375 13.875 C-2 15 -2 15 -4.1875 14.6875 C-4.785625 14.460625 -5.38375 14.23375 -6 14 C-5.34 14 -4.68 14 -4 14 C-3.5196682 12.41701974 -3.04078388 10.83360022 -2.5625 9.25 C-2.29566406 8.36828125 -2.02882813 7.4865625 -1.75390625 6.578125 C-1.11531506 4.39434165 -0.53224167 2.21164502 0 0 Z " fill="#CE9174" transform="translate(111,96)"/>
<path d="M0 0 C0.33 0 0.66 0 1 0 C1 2.64 1 5.28 1 8 C1.66 8.33 2.32 8.66 3 9 C2.2884375 9.60521484 2.2884375 9.60521484 1.5625 10.22265625 C-0.29572868 12.33639138 -0.55448527 13.68551837 -1 16.4375 C-1.68250879 19.98885929 -2.43605804 22.31951523 -5 25 C-5.66 24.67 -6.32 24.34 -7 24 C-6.66226563 23.02160156 -6.32453125 22.04320313 -5.9765625 21.03515625 C-3.59866181 14.07200216 -1.39713498 7.23969946 0 0 Z " fill="#D49174" transform="translate(104,88)"/>
<path d="M0 0 C5.61 0 11.22 0 17 0 C17 0.66 17 1.32 17 2 C17.99 2.33 18.98 2.66 20 3 C17.35261084 4.4606285 16.10551666 5 13 5 C13 4.34 13 3.68 13 3 C12.39671875 2.95101562 11.7934375 2.90203125 11.171875 2.8515625 C10.37265625 2.77679688 9.5734375 2.70203125 8.75 2.625 C7.96109375 2.55539063 7.1721875 2.48578125 6.359375 2.4140625 C4 2 4 2 0 0 Z " fill="#DA9672" transform="translate(72,97)"/>
<path d="M0 0 C0.7425 0.2475 1.485 0.495 2.25 0.75 C2.25 2.07 2.25 3.39 2.25 4.75 C0 6.5625 0 6.5625 -2.75 7.75 C-5.0625 7.4375 -5.0625 7.4375 -6.75 6.75 C-6.75 3.75 -6.75 3.75 -5.0625 1.5 C-2.75 -0.25 -2.75 -0.25 0 0 Z " fill="#A4A4A1" transform="translate(202.75,93.25)"/>
<path d="M0 0 C0.9178125 0.01353516 1.835625 0.02707031 2.78125 0.04101562 C5.02146803 0.07601903 7.26040594 0.12511131 9.5 0.1875 C8.18066406 1.68725586 8.18066406 1.68725586 6.5 3.1875 C3.609375 3.19140625 3.609375 3.19140625 0.25 2.75 C-5.00937291 2.20410527 -8.61713946 2.18996614 -13.5 4.1875 C-13.83 4.5175 -14.16 4.8475 -14.5 5.1875 C-16.16617115 5.22813832 -17.83388095 5.230221 -19.5 5.1875 C-18.05418098 2.29586195 -15.83399829 1.83677557 -12.90625 0.79833984 C-8.62345758 -0.28887065 -4.39009668 -0.12442861 0 0 Z " fill="#F9E7D5" transform="translate(63.5,52.8125)"/>
<path d="M0 0 C-2 2 -2 2 -5.4375 3.4375 C-8.91052779 4.67822389 -8.91052779 4.67822389 -10.5625 6.6875 C-12 8 -12 8 -15.1875 8.1875 C-16.115625 8.125625 -17.04375 8.06375 -18 8 C-17 5 -17 5 -14.375 3.5 C-13.26125 3.005 -12.1475 2.51 -11 2 C-10.401875 1.70609375 -9.80375 1.4121875 -9.1875 1.109375 C-3.55172576 -1.56275934 -3.55172576 -1.56275934 0 0 Z " fill="#F6CDB2" transform="translate(111,47)"/>
<path d="M0 0 C0.99 0.495 0.99 0.495 2 1 C1.01 1.495 1.01 1.495 0 2 C0 1.34 0 0.68 0 0 Z M-3 2 C-2.01 2.33 -1.02 2.66 0 3 C-3.82180842 7.4008703 -6.47371099 8.80805531 -12 10 C-12 9.01 -12 8.02 -12 7 C-10.88625 6.54625 -9.7725 6.0925 -8.625 5.625 C-5.03800992 4.27534014 -5.03800992 4.27534014 -3 2 Z M-22 5 C-17.545 6.98 -17.545 6.98 -13 9 C-13.66 9.66 -14.32 10.32 -15 11 C-17.9375 10.25 -17.9375 10.25 -21 9 C-21.33 7.68 -21.66 6.36 -22 5 Z " fill="#CF8765" transform="translate(91,123)"/>
<path d="M0 0 C0.99 0.33 1.98 0.66 3 1 C1.58531689 1.96125903 0.1681636 2.91888325 -1.25 3.875 C-2.03890625 4.40867187 -2.8278125 4.94234375 -3.640625 5.4921875 C-7.66557239 8.06442209 -10.16017422 9.26887921 -15 9 C-12.73865754 5.60798631 -11.77016882 5.28227856 -8.0625 3.9375 C-5.00468866 2.81615239 -2.73601645 1.82401097 0 0 Z M-17 9 C-16.34 9.33 -15.68 9.66 -15 10 C-16.32 10.99 -17.64 11.98 -19 13 C-19.66 12.67 -20.32 12.34 -21 12 C-20 10 -20 10 -17 9 Z " fill="#FBE9D7" transform="translate(109,38)"/>
<path d="M0 0 C0.66 0 1.32 0 2 0 C2 0.66 2 1.32 2 2 C0.57421875 3.2890625 0.57421875 3.2890625 -1.3125 4.625 C-1.92738281 5.07101563 -2.54226562 5.51703125 -3.17578125 5.9765625 C-5 7 -5 7 -8 7 C-8 7.66 -8 8.32 -8 9 C-8.99 9 -9.98 9 -11 9 C-11 9.66 -11 10.32 -11 11 C-14.13498292 12.85776765 -16.37471432 13.20140476 -20 13 C-19.67 12.01 -19.34 11.02 -19 10 C-16.68529088 9.27129528 -14.3494053 8.60760482 -12 8 C-11.01 7.34 -10.02 6.68 -9 6 C-8.01 6 -7.02 6 -6 6 C-6 5.34 -6 4.68 -6 4 C-4.36368108 2.95107762 -2.69514137 1.95093297 -1 1 C-0.67 0.67 -0.34 0.34 0 0 Z " fill="#FAE0D1" transform="translate(166,15)"/>
<path d="M0 0 C0.79277344 0.05671875 1.58554688 0.1134375 2.40234375 0.171875 C4.35231735 0.31283695 6.30128671 0.4675712 8.25 0.625 C7.59 1.945 6.93 3.265 6.25 4.625 C-0.24850211 4.10946121 -6.41226532 3.15832291 -12.75 1.625 C-8.74561779 -1.1952907 -4.62663461 -0.38363471 0 0 Z " fill="#EDB28F" transform="translate(109.75,81.375)"/>
<path d="M0 0 C1.3303125 0.4021875 1.3303125 0.4021875 2.6875 0.8125 C3.3475 4.4425 4.0075 8.0725 4.6875 11.8125 C4.0275 11.8125 3.3675 11.8125 2.6875 11.8125 C2.3575 8.8425 2.0275 5.8725 1.6875 2.8125 C0.0375 3.1425 -1.6125 3.4725 -3.3125 3.8125 C-3.3125 4.8025 -3.3125 5.7925 -3.3125 6.8125 C-5.7875 5.8225 -5.7875 5.8225 -8.3125 4.8125 C-4.12788462 -0.23365385 -4.12788462 -0.23365385 0 0 Z " fill="#EFAE8C" transform="translate(120.3125,66.1875)"/>
<path d="M0 0 C0.99 0.33 1.98 0.66 3 1 C-1.81776765 11.74259681 -1.81776765 11.74259681 -7 15 C-7.33663062 11.29706315 -7.47736015 9.60465619 -5.125 6.625 C-3 5 -3 5 -1 5 C-0.67 3.35 -0.34 1.7 0 0 Z " fill="#E4C1B0" transform="translate(111,139)"/>
<path d="M0 0 C0.99 0.495 0.99 0.495 2 1 C2 7.93 2 14.86 2 22 C3.65 22.33 5.3 22.66 7 23 C7 23.33 7 23.66 7 24 C4.69 24.33 2.38 24.66 0 25 C0 16.75 0 8.5 0 0 Z " fill="#DBB294" transform="translate(20,200)"/>
<path d="M0 0 C0.66 0 1.32 0 2 0 C1.67 6.93 1.34 13.86 1 21 C0.67 21 0.34 21 0 21 C-3.23282443 6.46564885 -3.23282443 6.46564885 0 0 Z " fill="#F3DCC8" transform="translate(81,179)"/>
<path d="M0 0 C4.77631579 2.44939271 4.77631579 2.44939271 5.8125 5 C6 7 6 7 6 10 C6.66 10 7.32 10 8 10 C8 11.32 8 12.64 8 14 C5.53199953 12.84826645 3.95216435 11.95216435 2 10 C2 8.68 2 7.36 2 6 C1.38001259 3.98504093 0.72045764 1.9812585 0 0 Z " fill="#E59577" transform="translate(112,113)"/>
<path d="M0 0 C0 3 0 3 -1.7578125 4.82421875 C-8.21009282 9.90299386 -8.21009282 9.90299386 -12.5625 10.4375 C-13.366875 10.293125 -14.17125 10.14875 -15 10 C-11.5621416 6.02497623 -8.788343 4.23996158 -3.76953125 2.67578125 C-1.78284837 2.05504977 -1.78284837 2.05504977 0 0 Z " fill="#E49071" transform="translate(146,37)"/>
<path d="M0 0 C-1 2 -1 2 -3.43359375 2.81640625 C-4.92052734 3.18572266 -4.92052734 3.18572266 -6.4375 3.5625 C-10.32254047 4.50185245 -10.32254047 4.50185245 -14 6 C-16.3329866 6.04022391 -18.66706666 6.04320247 -21 6 C-17.49451638 3.66301092 -13.9190119 2.54814162 -9.9375 1.3125 C-8.83825195 0.95575195 -8.83825195 0.95575195 -7.71679688 0.59179688 C-2.24388587 -1.12194293 -2.24388587 -1.12194293 0 0 Z " fill="#FDF5EC" transform="translate(147,26)"/>
<path d="M0 0 C1.32 0 2.64 0 4 0 C4.39391326 4.46435025 3.25077638 7.16534395 1 11 C-0.6875 12.875 -0.6875 12.875 -2 14 C-1.67 12.35 -1.34 10.7 -1 9 C-0.34 9 0.32 9 1 9 C1 7.35 1 5.7 1 4 C-0.32 4.33 -1.64 4.66 -3 5 C-1.75 2.5 -1.75 2.5 0 0 Z " fill="#EC8D71" transform="translate(169,18)"/>
<path d="M0 0 C0.33 0.99 0.66 1.98 1 3 C-1.3129482 5.3129482 -2.47904875 5.49580975 -5.625 6.125 C-6.44226562 6.29257813 -7.25953125 6.46015625 -8.1015625 6.6328125 C-9.04128906 6.81457031 -9.04128906 6.81457031 -10 7 C-10.33 6.34 -10.66 5.68 -11 5 C-10.01 5 -9.02 5 -8 5 C-8 4.34 -8 3.68 -8 3 C-8.66 2.67 -9.32 2.34 -10 2 C-3.375 0 -3.375 0 0 0 Z " fill="#C78160" transform="translate(61,161)"/>
<path d="M0 0 C6.13680387 2.15617433 6.13680387 2.15617433 8 5 C8.375 8.5625 8.375 8.5625 8 12 C7.01 12.66 6.02 13.32 5 14 C4.89042969 13.30132812 4.78085938 12.60265625 4.66796875 11.8828125 C4.50941406 10.97273438 4.35085937 10.06265625 4.1875 9.125 C4.03667969 8.22007813 3.88585937 7.31515625 3.73046875 6.3828125 C3.16948699 3.65587522 3.16948699 3.65587522 0 2 C0 1.34 0 0.68 0 0 Z " fill="#E07957" transform="translate(125,86)"/>
<path d="M0 0 C-1.21807138 1.15762119 -2.45001235 2.3006583 -3.6875 3.4375 C-4.71423828 4.39462891 -4.71423828 4.39462891 -5.76171875 5.37109375 C-8.22289422 7.16221098 -10.00816574 7.62798558 -13 8 C-13 6.68 -13 5.36 -13 4 C-11.35 4 -9.7 4 -8 4 C-7.67 3.01 -7.34 2.02 -7 1 C-2.55696203 -1.27848101 -2.55696203 -1.27848101 0 0 Z " fill="#E5AC9F" transform="translate(168,33)"/>
<path d="M0 0 C0.33 0 0.66 0 1 0 C1.33801152 2.54112232 1.67053379 5.08276746 2 7.625 C2.09539062 8.33785156 2.19078125 9.05070313 2.2890625 9.78515625 C2.81606101 13.88821609 3.10466984 17.85245742 3 22 C1.68 21.67 0.36 21.34 -1 21 C-0.9278125 20.40574219 -0.855625 19.81148437 -0.78125 19.19921875 C-0.06182721 12.77437359 0.11055835 6.46152127 0 0 Z " fill="#F2D9C7" transform="translate(82,203)"/>
<path d="M0 0 C3.12340953 3.12340953 2.75942984 6.97708114 3.2421875 11.25 C3.7140137 14.13631125 3.7140137 14.13631125 6.0703125 15.375 C6.70710938 15.58125 7.34390625 15.7875 8 16 C5.69 16 3.38 16 1 16 C0.63913128 13.52163716 0.28601843 11.04260213 -0.0625 8.5625 C-0.16626953 7.85544922 -0.27003906 7.14839844 -0.37695312 6.41992188 C-0.62689163 4.61864093 -0.81801314 2.80940959 -1 1 C-0.67 0.67 -0.34 0.34 0 0 Z " fill="#E0B491" transform="translate(73,209)"/>
<path d="M0 0 C0.66 0.33 1.32 0.66 2 1 C1.54625 1.33 1.0925 1.66 0.625 2 C-1.48920701 4.60210094 -1.80220142 7.00002057 -2.375 10.2578125 C-2.58125 10.83273438 -2.7875 11.40765625 -3 12 C-3.99 12.33 -4.98 12.66 -6 13 C-6.33 13.99 -6.66 14.98 -7 16 C-7 14.35 -7 12.7 -7 11 C-6.34 11 -5.68 11 -5 11 C-5.1546875 9.39125 -5.1546875 9.39125 -5.3125 7.75 C-5 4 -5 4 -2.5 1.5625 C-1.2625 0.7890625 -1.2625 0.7890625 0 0 Z " fill="#F9E2D0" transform="translate(42,83)"/>
<path d="M0 0 C2 3 2 3 2.375 6.0625 C2.684375 7.5165625 2.684375 7.5165625 3 9 C3.99 9.433125 3.99 9.433125 5 9.875 C5.66 10.24625 6.32 10.6175 7 11 C7.69009775 13.69360735 7.81968745 16.20515553 8 19 C6.96549509 17.69325696 5.97827929 16.34935074 5 15 C4.566875 14.40574219 4.13375 13.81148437 3.6875 13.19921875 C0.49661878 8.53074196 -0.58853391 5.64992557 0 0 Z " fill="#DA6949" transform="translate(122,79)"/>
<path d="M0 0 C2.16874252 0.50603992 3.99967627 0.99983813 6 2 C6 3.98 6 5.96 6 8 C4.35 7.67 2.7 7.34 1 7 C0.67 4.69 0.34 2.38 0 0 Z " fill="#F8CDAD" transform="translate(111,73)"/>
<path d="M0 0 C-5 5 -5 5 -8 6 C-8.33 5.01 -8.66 4.02 -9 3 C-9.99 3 -10.98 3 -12 3 C-12 2.34 -12 1.68 -12 1 C-8.0186217 -0.3271261 -4.14954773 -0.06915913 0 0 Z " fill="#F3B897" transform="translate(116,67)"/>
<path d="M0 0 C0.99 0 1.98 0 3 0 C2.67 1.32 2.34 2.64 2 4 C1.01 4 0.02 4 -1 4 C-1 4.66 -1 5.32 -1 6 C-1.66 6 -2.32 6 -3 6 C-3.66 7.65 -4.32 9.3 -5 11 C-5.66 11 -6.32 11 -7 11 C-6.58485103 6.1565954 -4.53791301 4.18412171 -1 1 C-0.67 0.67 -0.34 0.34 0 0 Z " fill="#A53628" transform="translate(75,112)"/>
<path d="M0 0 C-1.32 0.33 -2.64 0.66 -4 1 C-4 1.66 -4 2.32 -4 3 C-6.64 3.66 -9.28 4.32 -12 5 C-12 5.66 -12 6.32 -12 7 C-12.99 7 -13.98 7 -15 7 C-14.73828125 5.10546875 -14.73828125 5.10546875 -14 3 C-12.29296875 1.98828125 -12.29296875 1.98828125 -10.1875 1.3125 C-9.15689453 0.96638672 -9.15689453 0.96638672 -8.10546875 0.61328125 C-7.41066406 0.41089844 -6.71585938 0.20851562 -6 0 C-5.29488281 -0.21269531 -4.58976562 -0.42539062 -3.86328125 -0.64453125 C-2 -1 -2 -1 0 0 Z " fill="#F7CFB3" transform="translate(114,63)"/>
<path d="M0 0 C0.33 0.99 0.66 1.98 1 3 C0.4225 3.70125 -0.155 4.4025 -0.75 5.125 C-3.63531173 8.81178721 -4.71945291 12.54718852 -6 17 C-6.33 17 -6.66 17 -7 17 C-6.67 13.7 -6.34 10.4 -6 7 C-5.01 6.67 -4.02 6.34 -3 6 C-1.84478498 3.52869082 -1.84478498 3.52869082 -1 1 C-0.67 0.67 -0.34 0.34 0 0 Z " fill="#FBF0E4" transform="translate(43,58)"/>
<path d="M0 0 C2 2 2 2 3 5 C6.00007271 6.70855022 6.00007271 6.70855022 9 8 C8.67 8.66 8.34 9.32 8 10 C6.02 9.34 4.04 8.68 2 8 C1.34 8.66 0.68 9.32 0 10 C-0.19412181 8.52168779 -0.38012131 7.04230684 -0.5625 5.5625 C-0.66691406 4.73878906 -0.77132812 3.91507813 -0.87890625 3.06640625 C-0.91886719 2.38449219 -0.95882812 1.70257813 -1 1 C-0.67 0.67 -0.34 0.34 0 0 Z " fill="#EEB999" transform="translate(68,128)"/>
<path d="M0 0 C0.66 0.33 1.32 0.66 2 1 C1.74481529 3.27264504 1.47030939 5.54312705 1.1875 7.8125 C1.03667969 9.07707031 0.88585938 10.34164062 0.73046875 11.64453125 C0.01844789 14.91525811 -0.36608673 16.058842 -3 18 C-2.22095672 5.33029613 -2.22095672 5.33029613 0 0 Z " fill="#ECC2A9" transform="translate(37,98)"/>
<path d="M0 0 C0.33 0 0.66 0 1 0 C0.67 3.3 0.34 6.6 0 10 C-0.99 10.33 -1.98 10.66 -3 11 C-3.103125 10.360625 -3.20625 9.72125 -3.3125 9.0625 C-3.539375 8.381875 -3.76625 7.70125 -4 7 C-4.99 6.67 -5.98 6.34 -7 6 C-6.34 6 -5.68 6 -5 6 C-4.67 4.68 -4.34 3.36 -4 2 C-4 2.66 -4 3.32 -4 4 C-2.68 4.33 -1.36 4.66 0 5 C0 3.35 0 1.7 0 0 Z " fill="#F1BC9F" transform="translate(103,87)"/>
<path d="M0 0 C3.30657201 2.72792191 4.87153607 4.1168105 5.5 8.4375 C4.97263776 12.19495598 3.90706854 14.74209124 2 18 C1.67 17.01 1.34 16.02 1 15 C1.33 14.67 1.66 14.34 2 14 C2.26582874 8.7720347 1.97153141 4.92882852 0 0 Z " fill="#F9EAE3" transform="translate(140,80)"/>
<path d="M0 0 C1.91750286 0.08743331 3.83406665 0.1956189 5.75 0.3125 C6.81734375 0.37050781 7.8846875 0.42851563 8.984375 0.48828125 C12.1821068 1.03090154 13.62598691 1.85071145 16 4 C10.47513839 5.5582943 6.07204299 4.42390265 1 2 C0.67 1.34 0.34 0.68 0 0 Z " fill="#E7A480" transform="translate(100,83)"/>
<path d="M0 0 C-0.66 0.66 -1.32 1.32 -2 2 C-1.67958603 4.60280568 -1.67958603 4.60280568 -1 7 C-5.455 6.01 -5.455 6.01 -10 5 C-9.67 4.01 -9.34 3.02 -9 2 C-9 2.66 -9 3.32 -9 4 C-8.01 4 -7.02 4 -6 4 C-6 2.68 -6 1.36 -6 0 C-2.25 -1.125 -2.25 -1.125 0 0 Z " fill="#C45C3D" transform="translate(121,106)"/>
<path d="M0 0 C4.75 0.75 4.75 0.75 7 3 C7.125 6.125 7.125 6.125 7 9 C5.68 8.67 4.36 8.34 3 8 C2.87625 6.865625 2.7525 5.73125 2.625 4.5625 C2.41875 3.386875 2.2125 2.21125 2 1 C1.34 0.67 0.68 0.34 0 0 Z " fill="#FACFB1" transform="translate(96,83)"/>
<path d="M0 0 C1.12977926 3.42161718 0.88887425 5.97651169 0.25 9.5 C0.01023437 10.90765625 0.01023437 10.90765625 -0.234375 12.34375 C-1.04184554 15.14517842 -2.11466407 16.80389442 -4 19 C-3.63176001 12.09232563 -2.76081837 6.3618858 0 0 Z " fill="#F2D9C7" transform="translate(32,109)"/>
<path d="M0 0 C1.98 0 3.96 0 6 0 C6 0.66 6 1.32 6 2 C4.02 2 2.04 2 0 2 C0 1.34 0 0.68 0 0 Z M-3 2 C-2.01 2.33 -1.02 2.66 0 3 C-0.639375 3.78375 -1.27875 4.5675 -1.9375 5.375 C-3.98142313 7.79539281 -3.98142313 7.79539281 -5 10 C-5.66 10 -6.32 10 -7 10 C-7.33 10.66 -7.66 11.32 -8 12 C-8.33 11.01 -8.66 10.02 -9 9 C-8.34 9 -7.68 9 -7 9 C-6.34 7.35 -5.68 5.7 -5 4 C-4.34 4 -3.68 4 -3 4 C-3 3.34 -3 2.68 -3 2 Z " fill="#B54838" transform="translate(77,114)"/>
<path d="M0 0 C0.66 0.99 1.32 1.98 2 3 C1 5 1 5 -1.375 6.375 C-4.01373331 8.00850157 -5.31814826 9.43296314 -7 12 C-7.66 10.02 -8.32 8.04 -9 6 C-8.15115234 5.72736328 -8.15115234 5.72736328 -7.28515625 5.44921875 C-6.55167969 5.19785156 -5.81820312 4.94648437 -5.0625 4.6875 C-3.96615234 4.32205078 -3.96615234 4.32205078 -2.84765625 3.94921875 C-0.64067976 3.08759559 -0.64067976 3.08759559 0 0 Z " fill="#D17E59" transform="translate(129,102)"/>
<path d="M0 0 C-1.5625 2.4375 -1.5625 2.4375 -4 5 C-7.75 5.8125 -7.75 5.8125 -11 6 C-10.03628506 3.59071265 -9.34789837 2.23992991 -7.1875 0.75 C-4.67678635 -0.11081611 -2.63651351 -0.14647297 0 0 Z " fill="#E9997C" transform="translate(133,44)"/>
<path d="M0 0 C0 3 0 3 -2.1875 5.48046875 C-3.115625 6.37378906 -4.04375 7.26710937 -5 8.1875 C-5.928125 9.08855469 -6.85625 9.98960937 -7.8125 10.91796875 C-8.534375 11.60503906 -9.25625 12.29210937 -10 13 C-10.66 12.67 -11.32 12.34 -12 12 C-11.525625 11.566875 -11.05125 11.13375 -10.5625 10.6875 C-8.76313043 8.97690387 -8.76313043 8.97690387 -8 6 C-7.34 6 -6.68 6 -6 6 C-5.67 5.01 -5.34 4.02 -5 3 C-3 1.875 -3 1.875 -1 1 C-0.67 0.67 -0.34 0.34 0 0 Z " fill="#F0DFD3" transform="translate(103,154)"/>
<path d="M0 0 C-5.13887901 3.32515701 -9.80154611 5.36461493 -16 5 C-11.53321948 1.09156705 -5.86504904 -1.93756084 0 0 Z " fill="#F8CEB6" transform="translate(142,34)"/>
<path d="M0 0 C0.33 0 0.66 0 1 0 C1.27560214 6.20104812 0.22899346 11.93184478 -1 18 C-1.99 18.33 -2.98 18.66 -4 19 C-3.26309887 12.51527007 -1.64681249 6.30760257 0 0 Z " fill="#E3A385" transform="translate(97,97)"/>
<path d="M0 0 C1.32 0.33 2.64 0.66 4 1 C2.68 3.64 1.36 6.28 0 9 C-0.99 8.67 -1.98 8.34 -3 8 C-3 6.35 -3 4.7 -3 3 C-2.01 3 -1.02 3 0 3 C0 2.01 0 1.02 0 0 Z " fill="#E4AD8C" transform="translate(40,104)"/>
<path d="M0 0 C0.33 0 0.66 0 1 0 C1.66 2.64 2.32 5.28 3 8 C1.68 8 0.36 8 -1 8 C-1 9.32 -1 10.64 -1 12 C-1.99 12 -2.98 12 -4 12 C-3.33989524 9.15449988 -2.48275034 6.47674001 -1.4375 3.75 C-1.16808594 3.04359375 -0.89867188 2.3371875 -0.62109375 1.609375 C-0.41613281 1.07828125 -0.21117188 0.5471875 0 0 Z " fill="#B35436" transform="translate(116,98)"/>
<path d="M0 0 C0.66 0.33 1.32 0.66 2 1 C1.2575 1.556875 0.515 2.11375 -0.25 2.6875 C-3.07715575 4.89893307 -3.07715575 4.89893307 -5.125 7.75 C-6.053125 8.86375 -6.053125 8.86375 -7 10 C-7.99 10 -8.98 10 -10 10 C-10 9.34 -10 8.68 -10 8 C-9.34 7.67 -8.68 7.34 -8 7 C-7.67 6.01 -7.34 5.02 -7 4 C-6.01 4 -5.02 4 -4 4 C-4 3.34 -4 2.68 -4 2 C-2.125 0.9375 -2.125 0.9375 0 0 Z " fill="#FBC5B0" transform="translate(162,20)"/>
<path d="M0 0 C1.65 0 3.3 0 5 0 C5 0.66 5 1.32 5 2 C5.66 2.33 6.32 2.66 7 3 C7 3.66 7 4.32 7 5 C4.36 5 1.72 5 -1 5 C-0.67 3.35 -0.34 1.7 0 0 Z " fill="#9E9E9C" transform="translate(183,121)"/>
<path d="M0 0 C0.66 0.33 1.32 0.66 2 1 C1.34 1.66 0.68 2.32 0 3 C-0.99 3 -1.98 3 -3 3 C-3 3.66 -3 4.32 -3 5 C-7.0188515 6.81242323 -10.61110675 8.33501617 -15 9 C-15 8.34 -15 7.68 -15 7 C-12.36 6.67 -9.72 6.34 -7 6 C-6.67 5.01 -6.34 4.02 -6 3 C-3.0625 1.25 -3.0625 1.25 0 0 Z " fill="#FCE0CD" transform="translate(143,28)"/>
<path d="M0 0 C0.33 0 0.66 0 1 0 C1.05399736 1.45792884 1.09279177 2.91642712 1.125 4.375 C1.14820312 5.18710938 1.17140625 5.99921875 1.1953125 6.8359375 C1 9 1 9 -1 11 C-1.66 10.34 -2.32 9.68 -3 9 C-2.67582137 5.19090105 -2.14418558 3.21627837 0 0 Z " fill="#CF8568" transform="translate(90,103)"/>
<path d="M0 0 C0 0.66 0 1.32 0 2 C-2.31 2.66 -4.62 3.32 -7 4 C-6.67 4.99 -6.34 5.98 -6 7 C-8.3431213 6.74438677 -10.67843403 6.40729228 -13 6 C-13.33 5.34 -13.66 4.68 -14 4 C-13.30132812 3.79503906 -12.60265625 3.59007812 -11.8828125 3.37890625 C-10.97273438 3.10949219 -10.06265625 2.84007812 -9.125 2.5625 C-8.22007813 2.29566406 -7.31515625 2.02882812 -6.3828125 1.75390625 C-0.83937824 0 -0.83937824 0 0 0 Z " fill="#F1B495" transform="translate(117,50)"/>
<path d="M0 0 C0.66 0 1.32 0 2 0 C2.82638376 2.89234315 3 4.88742431 3 8 C1.68 8.33 0.36 8.66 -1 9 C-2.0326802 6.21176345 -2.04509293 5.1322726 -1.0625 2.25 C-0.711875 1.5075 -0.36125 0.765 0 0 Z " fill="#E9AC8C" transform="translate(67,161)"/>
<path d="M0 0 C0.33 0 0.66 0 1 0 C1 2.31 1 4.62 1 7 C-0.45947705 6.93993922 -1.91779272 6.8511311 -3.375 6.75 C-4.18710938 6.70359375 -4.99921875 6.6571875 -5.8359375 6.609375 C-6.55007812 6.40828125 -7.26421875 6.2071875 -8 6 C-8.66 4.68 -9.32 3.36 -10 2 C-6.7 2.99 -3.4 3.98 0 5 C-0.33 3.68 -0.66 2.36 -1 1 C-0.67 0.67 -0.34 0.34 0 0 Z " fill="#D48D68" transform="translate(71,98)"/>
<path d="M0 0 C1.65 0 3.3 0 5 0 C5 0.99 5 1.98 5 3 C3.35 3.33 1.7 3.66 0 4 C0 4.99 0 5.98 0 7 C-0.66 7 -1.32 7 -2 7 C-2 6.34 -2 5.68 -2 5 C-2.66 4.67 -3.32 4.34 -4 4 C-2.68 3.67 -1.36 3.34 0 3 C0 2.01 0 1.02 0 0 Z " fill="#DA7F59" transform="translate(132,47)"/>
<path d="M0 0 C-1.875 4.75 -1.875 4.75 -3 7 C-4.32 7 -5.64 7 -7 7 C-6.1875 4.0625 -6.1875 4.0625 -5 1 C-2 0 -2 0 0 0 Z " fill="#EABEA7" transform="translate(132,109)"/>
<path d="M0 0 C0.33 0 0.66 0 1 0 C1 1.65 1 3.3 1 5 C1.66 5 2.32 5 3 5 C2.50769231 11.52307692 2.50769231 11.52307692 -0.0625 13.9375 C-0.701875 14.288125 -1.34125 14.63875 -2 15 C-1.50886719 14.18789062 -1.50886719 14.18789062 -1.0078125 13.359375 C0.21664767 10.49280933 0.19892146 8.3547013 0.125 5.25 C0.10695312 4.26515625 0.08890625 3.2803125 0.0703125 2.265625 C0.04710937 1.51796875 0.02390625 0.7703125 0 0 Z " fill="#EBC0AA" transform="translate(134,94)"/>
<path d="M0 0 C0.33 0 0.66 0 1 0 C1 1.98 1 3.96 1 6 C0.01 5.67 -0.98 5.34 -2 5 C-2.33 5.99 -2.66 6.98 -3 8 C-3.99 7.67 -4.98 7.34 -6 7 C-6 6.34 -6 5.68 -6 5 C-5.195625 4.731875 -4.39125 4.46375 -3.5625 4.1875 C-2.716875 3.795625 -1.87125 3.40375 -1 3 C-0.67 2.01 -0.34 1.02 0 0 Z " fill="#F3CFBB" transform="translate(142,88)"/>
<path d="M0 0 C4.84455959 2.37823834 4.84455959 2.37823834 7 4 C7.9375 6.75 7.9375 6.75 8 9 C7.5875 8.54625 7.175 8.0925 6.75 7.625 C5.08048988 5.89725289 5.08048988 5.89725289 2.875 5.0625 C1 4 1 4 0.25 1.875 C0.1675 1.25625 0.085 0.6375 0 0 Z " fill="#EC8969" transform="translate(124,82)"/>
<path d="M0 0 C0.99 0.33 1.98 0.66 3 1 C1.55609075 4.80666984 -0.34952803 6.26602582 -4 8 C-4.66 7.67 -5.32 7.34 -6 7 C-5.34 6.01 -4.68 5.02 -4 4 C-3.34 4.33 -2.68 4.66 -2 5 C-2.33 4.01 -2.66 3.02 -3 2 C-2.01 1.67 -1.02 1.34 0 1 C0 0.67 0 0.34 0 0 Z " fill="#DEC2AD" transform="translate(89,164)"/>
<path d="M0 0 C1.19109375 0.16048828 1.19109375 0.16048828 2.40625 0.32421875 C3.2003125 0.42347656 3.994375 0.52273437 4.8125 0.625 C6.90625 1.01171875 6.90625 1.01171875 8.90625 2.01171875 C8.90625 3.66171875 8.90625 5.31171875 8.90625 7.01171875 C8.57625 6.35171875 8.24625 5.69171875 7.90625 5.01171875 C6.91625 4.68171875 5.92625 4.35171875 4.90625 4.01171875 C4.90625 3.68171875 4.90625 3.35171875 4.90625 3.01171875 C1.93625 2.68171875 -1.03375 2.35171875 -4.09375 2.01171875 C-2.09375 0.01171875 -2.09375 0.01171875 0 0 Z " fill="#CECECC" transform="translate(182.09375,118.98828125)"/>
<path d="M0 0 C4.875 1.875 4.875 1.875 6 3 C6.04080783 4.99958364 6.04254356 7.00045254 6 9 C5.34 9 4.68 9 4 9 C2.5393715 6.35261084 2 5.10551666 2 2 C1.34 2 0.68 2 0 2 C0 1.34 0 0.68 0 0 Z " fill="#D58466" transform="translate(62,115)"/>
<path d="M0 0 C2.9259724 2.41710763 3.43177482 4.3065363 4 8 C4.33 8.66 4.66 9.32 5 10 C3.68 9.67 2.36 9.34 1 9 C1 8.34 1 7.68 1 7 C0.01 6.67 -0.98 6.34 -2 6 C-1.34 6 -0.68 6 0 6 C0 4.02 0 2.04 0 0 Z " fill="#76180B" transform="translate(77,105)"/>
<path d="M0 0 C0.66 0.33 1.32 0.66 2 1 C2 2.65 2 4.3 2 6 C0.68 6 -0.64 6 -2 6 C-2.66 7.32 -3.32 8.64 -4 10 C-4.33 8.02 -4.66 6.04 -5 4 C-3.35 4 -1.7 4 0 4 C0 2.68 0 1.36 0 0 Z " fill="#BE694F" transform="translate(74,104)"/>
<path d="M0 0 C0.66 0 1.32 0 2 0 C2 1.98 2 3.96 2 6 C0.35 6.33 -1.3 6.66 -3 7 C-3.66 6.01 -4.32 5.02 -5 4 C-3.35 4 -1.7 4 0 4 C0 2.68 0 1.36 0 0 Z " fill="#B64F2A" transform="translate(122,98)"/>
<path d="M0 0 C2.97 0 5.94 0 9 0 C9 0.66 9 1.32 9 2 C9.99 2.33 10.98 2.66 12 3 C10.02 3.66 8.04 4.32 6 5 C6 3.68 6 2.36 6 1 C4.02 1 2.04 1 0 1 C0 0.67 0 0.34 0 0 Z " fill="#E09E7A" transform="translate(80,97)"/>
<path d="M0 0 C-2.54712074 2.00130916 -4.9527375 3.85727656 -8 5 C-10.25 4.625 -10.25 4.625 -12 4 C-9 2 -9 2 -6 2 C-6 1.34 -6 0.68 -6 0 C-2.25 -1.125 -2.25 -1.125 0 0 Z " fill="#F2C2A5" transform="translate(63,90)"/>
<path d="M0 0 C1.32 0.33 2.64 0.66 4 1 C4.49230769 7.4 4.49230769 7.4 2 10.4375 C1.01 11.2109375 1.01 11.2109375 0 12 C0.08378906 11.38511719 0.16757813 10.77023438 0.25390625 10.13671875 C0.35574219 9.32847656 0.45757812 8.52023438 0.5625 7.6875 C0.66691406 6.88699219 0.77132812 6.08648437 0.87890625 5.26171875 C1.14755178 2.83182884 1.14755178 2.83182884 0 0 Z " fill="#FAE7DD" transform="translate(173,14)"/>
<path d="M0 0 C0.99 0.33 1.98 0.66 3 1 C1.02 1.99 1.02 1.99 -1 3 C-0.67 2.01 -0.34 1.02 0 0 Z M-5 3 C-3.68 3.33 -2.36 3.66 -1 4 C-2.32 5.32 -3.64 6.64 -5 8 C-5.99 7.67 -6.98 7.34 -8 7 C-7.01 5.68 -6.02 4.36 -5 3 Z " fill="#C0654F" transform="translate(82,117)"/>
<path d="M0 0 C1.32 0.33 2.64 0.66 4 1 C3.071875 1.3403125 3.071875 1.3403125 2.125 1.6875 C-0.61410209 3.37929835 -1.05024472 4.99244161 -2 8 C-2.66 7.34 -3.32 6.68 -4 6 C-4 5.01 -4 4.02 -4 3 C-3.01 2.67 -2.02 2.34 -1 2 C-0.67 1.34 -0.34 0.68 0 0 Z " fill="#831E0C" transform="translate(71,112)"/>
<path d="M0 0 C0.75 1.75 0.75 1.75 1 4 C-0.8125 6.25 -0.8125 6.25 -3 8 C-3.66 8 -4.32 8 -5 8 C-3.8141763 4.62496331 -2.72426311 2.35277269 0 0 Z " fill="#D7AF97" transform="translate(103,150)"/>
<path d="M0 0 C0.66 0.33 1.32 0.66 2 1 C-1.42388092 4.82669043 -4.00724943 6.72278474 -9 8 C-6.37347975 4.40069448 -4.06036357 1.92333011 0 0 Z " fill="#F1A38B" transform="translate(157,27)"/>
<path d="M0 0 C0.33 0 0.66 0 1 0 C0.48041715 4.37934119 -0.05675742 8.68803391 -1 13 C-1.33 13 -1.66 13 -2 13 C-2.05447047 11.58376784 -2.09300508 10.16691809 -2.125 8.75 C-2.14820312 7.96109375 -2.17140625 7.1721875 -2.1953125 6.359375 C-1.9828378 3.79268059 -1.28654105 2.2083933 0 0 Z " fill="#F9EADF" transform="translate(34,96)"/>
<path d="M0 0 C0 0.66 0 1.32 0 2 C-4.455 3.485 -4.455 3.485 -9 5 C-8 2 -8 2 -6.1875 0.8125 C-4 0 -4 0 0 0 Z " fill="#E2B4A2" transform="translate(146,47)"/>
<path d="M0 0 C0.66 0.66 1.32 1.32 2 2 C-1.72965139 4.03435531 -3.66905042 5 -8 5 C-8.33 4.01 -8.66 3.02 -9 2 C-7.329375 2.061875 -7.329375 2.061875 -5.625 2.125 C-1.95633975 2.41121859 -1.95633975 2.41121859 0 0 Z " fill="#F2B89C" transform="translate(136,38)"/>
<path d="M0 0 C0.99 0.33 1.98 0.66 3 1 C1.63016497 4.16115776 1.0109362 4.9927092 -2 7 C-2 5.02 -2 3.04 -2 1 C-1.34 0.67 -0.68 0.34 0 0 Z " fill="#E4C8BC" transform="translate(106,147)"/>
<path d="M0 0 C0.66 0.66 1.32 1.32 2 2 C1.01 2.33 0.02 2.66 -1 3 C-1 3.66 -1 4.32 -1 5 C-2.98 5.33 -4.96 5.66 -7 6 C-5.1875 4 -5.1875 4 -3 2 C-2.01 2 -1.02 2 0 2 C0 1.34 0 0.68 0 0 Z " fill="#D18A6C" transform="translate(100,113)"/>
<path d="M0 0 C0.99 0 1.98 0 3 0 C3 2.64 3 5.28 3 8 C2.01 7.34 1.02 6.68 0 6 C-0.1875 2.875 -0.1875 2.875 0 0 Z " fill="#983B28" transform="translate(79,106)"/>
<path d="M0 0 C0.66 0.33 1.32 0.66 2 1 C2.625 4.0625 2.625 4.0625 3 7 C1.125 6.6875 1.125 6.6875 -1 6 C-1.66 5.01 -2.32 4.02 -3 3 C-2.01 3 -1.02 3 0 3 C0 2.01 0 1.02 0 0 Z " fill="#CF8063" transform="translate(72,102)"/>
<path d="M0 0 C0.99 0.33 1.98 0.66 3 1 C3 2.32 3 3.64 3 5 C0.6568787 4.74438677 -1.67843403 4.40729228 -4 4 C-4.33 3.34 -4.66 2.68 -5 2 C-3.68 2 -2.36 2 -1 2 C-0.67 1.34 -0.34 0.68 0 0 Z " fill="#DE9873" transform="translate(68,98)"/>
<path d="M0 0 C0 0.66 0 1.32 0 2 C0.99 2.33 1.98 2.66 3 3 C-1.29 3 -5.58 3 -10 3 C-6.48579734 1.24289867 -3.89581553 0 0 0 Z " fill="#EEBEA2" transform="translate(80,92)"/>
<path d="M0 0 C1.32 0 2.64 0 4 0 C4 0.66 4 1.32 4 2 C2.39950296 2.39036513 0.79437629 2.76178619 -0.8125 3.125 C-1.70582031 3.33382812 -2.59914063 3.54265625 -3.51953125 3.7578125 C-6 4 -6 4 -9 2 C-6.94921875 1.77213542 -4.8984375 1.54427083 -2.84765625 1.31640625 C-0.98859771 1.18113386 -0.98859771 1.18113386 0 0 Z " fill="#F6CAAF" transform="translate(97,78)"/>
<path d="M0 0 C1.32 0.33 2.64 0.66 4 1 C4 3.64 4 6.28 4 9 C1.3144406 6.3144406 0.93950026 3.62378672 0 0 Z " fill="#F4D4BE" transform="translate(122,62)"/>
<path d="M0 0 C2.97 0.495 2.97 0.495 6 1 C5.67 1.99 5.34 2.98 5 4 C3.35 3.67 1.7 3.34 0 3 C0 2.01 0 1.02 0 0 Z " fill="#F2C8AD" transform="translate(71,64)"/>
<path d="M0 0 C-3 2 -3 2 -7 2 C-7.33 2.99 -7.66 3.98 -8 5 C-8.99 4.67 -9.98 4.34 -11 4 C-4.02040816 -2.01020408 -4.02040816 -2.01020408 0 0 Z " fill="#F4B99B" transform="translate(149,34)"/>
<path d="M0 0 C1.98 0 3.96 0 6 0 C5.34 1.65 4.68 3.3 4 5 C3.34 5 2.68 5 2 5 C2 4.34 2 3.68 2 3 C1.34 3 0.68 3 0 3 C0 2.01 0 1.02 0 0 Z " fill="#EEA68A" transform="translate(108,123)"/>
<path d="M0 0 C0.66 0.33 1.32 0.66 2 1 C1.01 2.98 0.02 4.96 -1 7 C-1.66 7 -2.32 7 -3 7 C-2.625 4.0625 -2.625 4.0625 -2 1 C-1.34 0.67 -0.68 0.34 0 0 Z " fill="#E9BEA0" transform="translate(26,152)"/>
<path d="M0 0 C0 3 0 3 -1.3125 4.38671875 C-2.875 5.59114583 -4.4375 6.79557292 -6 8 C-6.66 7.67 -7.32 7.34 -8 7 C-5.36 4.69 -2.72 2.38 0 0 Z " fill="#C7C7C4" transform="translate(189,102)"/>
<path d="M0 0 C0.99 0 1.98 0 3 0 C3.33 0.99 3.66 1.98 4 3 C3.34 3.66 2.68 4.32 2 5 C-0.125 4.625 -0.125 4.625 -2 4 C-1.34 4 -0.68 4 0 4 C0 2.68 0 1.36 0 0 Z " fill="#D08867" transform="translate(58,161)"/>
<path d="M0 0 C2.64 0.33 5.28 0.66 8 1 C8 1.33 8 1.66 8 2 C6.35 2 4.7 2 3 2 C2.67 2.99 2.34 3.98 2 5 C1.34 3.35 0.68 1.7 0 0 Z " fill="#E79778" transform="translate(105,121)"/>
<path d="M0 0 C0.99 0.33 1.98 0.66 3 1 C1.25 3.0625 1.25 3.0625 -1 5 C-3.25 4.75 -3.25 4.75 -5 4 C-4.34 4 -3.68 4 -3 4 C-3 3.34 -3 2.68 -3 2 C-2.01 1.34 -1.02 0.68 0 0 Z " fill="#D1876C" transform="translate(110,106)"/>
<path d="M0 0 C0.93065133 2.60582371 1.14917407 3.64198224 0.0625 6.25 C-0.4634375 7.11625 -0.4634375 7.11625 -1 8 C-1.66 7.67 -2.32 7.34 -3 7 C-1.125 1.125 -1.125 1.125 0 0 Z " fill="#C67354" transform="translate(129,98)"/>
<path d="M0 0 C2.97 0.495 2.97 0.495 6 1 C6 1.66 6 2.32 6 3 C4.02 3.33 2.04 3.66 0 4 C0 2.68 0 1.36 0 0 Z " fill="#C77554" transform="translate(72,98)"/>
<path d="M0 0 C2.475 0.495 2.475 0.495 5 1 C5 2.65 5 4.3 5 6 C3.2925002 4.71937515 1.62626404 3.38232443 0 2 C0 1.34 0 0.68 0 0 Z " fill="#FACCAE" transform="translate(125,77)"/>
<path d="M0 0 C0.66 0.33 1.32 0.66 2 1 C1.67 2.98 1.34 4.96 1 7 C0.01 7 -0.98 7 -2 7 C-1.34 4.69 -0.68 2.38 0 0 Z " fill="#C4C5C2" transform="translate(222,25)"/>
<path d="" fill="#FFFFFF" transform="translate(0,0)"/>
<path d="" fill="#FFFFFF" transform="translate(0,0)"/>
<path d="" fill="#FFFFFF" transform="translate(0,0)"/>
<path d="" fill="#FFFFFE" transform="translate(0,0)"/>
<path d="" fill="#FFFFFF" transform="translate(0,0)"/>
<path d="" fill="#FFFFFF" transform="translate(0,0)"/>
<path d="" fill="#FFFFFF" transform="translate(0,0)"/>
<path d="" fill="#FFFFFF" transform="translate(0,0)"/>
<path d="" fill="#FFFFFF" transform="translate(0,0)"/>
<path d="" fill="#FFFFFF" transform="translate(0,0)"/>
<path d="" fill="#FFFFFF" transform="translate(0,0)"/>
<path d="" fill="#FFFFFF" transform="translate(0,0)"/>
<path d="" fill="#FFFFFF" transform="translate(0,0)"/>
<path d="" fill="#FFFFFF" transform="translate(0,0)"/>
<path d="" fill="#FFFFFF" transform="translate(0,0)"/>
<path d="" fill="#FFFFFE" transform="translate(0,0)"/>
<path d="" fill="#FFFFFF" transform="translate(0,0)"/>
<path d="" fill="#FFFFFF" transform="translate(0,0)"/>
<path d="" fill="#FFFFFF" transform="translate(0,0)"/>
<path d="" fill="#FFFFFF" transform="translate(0,0)"/>
<path d="" fill="#FFFFFF" transform="translate(0,0)"/>
<path d="" fill="#FFFFFF" transform="translate(0,0)"/>
<path d="" fill="#FFFFFF" transform="translate(0,0)"/>
<path d="" fill="#FFFFFF" transform="translate(0,0)"/>
<path d="" fill="#FFFFFF" transform="translate(0,0)"/>
<path d="" fill="#FFFFFF" transform="translate(0,0)"/>
<path d="" fill="#FFFFFF" transform="translate(0,0)"/>
<path d="" fill="#FFFFFF" transform="translate(0,0)"/>
<path d="" fill="#FFFFFF" transform="translate(0,0)"/>
<path d="" fill="#FFFFFF" transform="translate(0,0)"/>
<path d="" fill="#FFFFFF" transform="translate(0,0)"/>
<path d="" fill="#FFFFFF" transform="translate(0,0)"/>
<path d="" fill="#FFFFFF" transform="translate(0,0)"/>
<path d="" fill="#FFFFFF" transform="translate(0,0)"/>
<path d="" fill="#FFFFFF" transform="translate(0,0)"/>
<path d="" fill="#FFFFFF" transform="translate(0,0)"/>
<path d="" fill="#FFFFFF" transform="translate(0,0)"/>
<path d="" fill="#FFFFFF" transform="translate(0,0)"/>
<path d="" fill="#FFFFFF" transform="translate(0,0)"/>
<path d="" fill="#FFFFFF" transform="translate(0,0)"/>
<path d="" fill="#FFFFFF" transform="translate(0,0)"/>
<path d="" fill="#FFFFFF" transform="translate(0,0)"/>
<path d="" fill="#FFFFFF" transform="translate(0,0)"/>
<path d="" fill="#FFFFFF" transform="translate(0,0)"/>
<path d="" fill="#FFFFFF" transform="translate(0,0)"/>
<path d="" fill="#FFFFFF" transform="translate(0,0)"/>
<path d="" fill="#FFFFFF" transform="translate(0,0)"/>
<path d="" fill="#FFFFFF" transform="translate(0,0)"/>
<path d="" fill="#FFFFFF" transform="translate(0,0)"/>
<path d="" fill="#FFFFFF" transform="translate(0,0)"/>
<path d="" fill="#FFFFFF" transform="translate(0,0)"/>
<path d="" fill="#FFFFFF" transform="translate(0,0)"/>
<path d="" fill="#FFFFFF" transform="translate(0,0)"/>
<path d="" fill="#FFFFFF" transform="translate(0,0)"/>
<path d="" fill="#FFFFFF" transform="translate(0,0)"/>
<path d="" fill="#FFFFFF" transform="translate(0,0)"/>
<path d="" fill="#FFFFFF" transform="translate(0,0)"/>
<path d="" fill="#FFFFFF" transform="translate(0,0)"/>
<path d="" fill="#FFFFFF" transform="translate(0,0)"/>
<path d="" fill="#FFFFFF" transform="translate(0,0)"/>
<path d="" fill="#FFFFFF" transform="translate(0,0)"/>
<path d="" fill="#FFFFFF" transform="translate(0,0)"/>
<path d="" fill="#FFFFFF" transform="translate(0,0)"/>
<path d="" fill="#FFFFFF" transform="translate(0,0)"/>
<path d="" fill="#FFFFFF" transform="translate(0,0)"/>
</svg>
